%TF.GenerationSoftware,KiCad,Pcbnew,10.0.5+dfsg-1*%
%TF.CreationDate,2026-09-13T14:09:32+09:00*%
%TF.ProjectId,VdpBooster,56647042-6f6f-4737-9465-722e6b696361,rev?*%
%TF.SameCoordinates,Original*%
%TF.FileFunction,Copper,L2,Bot*%
%TF.FilePolarity,Positive*%
%FSLAX46Y46*%
G04 Gerber Fmt 4.6, Leading zero omitted, Abs format (unit mm)*
G04 Created by KiCad (PCBNEW 10.0.5+dfsg-1) date 2026-09-13 14:09:32*
%MOMM*%
%LPD*%
G01*
G04 APERTURE LIST*
%TA.AperFunction,ComponentPad*%
%ADD10R,1.524000X1.524000*%
%TD*%
%TA.AperFunction,ComponentPad*%
%ADD11C,1.524000*%
%TD*%
%TA.AperFunction,ViaPad*%
%ADD12C,0.600000*%
%TD*%
%TA.AperFunction,Conductor*%
%ADD13C,0.200000*%
%TD*%
G04 APERTURE END LIST*
D10*
%TO.P,U1,1,W2/IO2_1*%
%TO.N,/A2*%
X135110000Y-19290000D03*
D11*
%TO.P,U1,2,W3/IO3_2*%
%TO.N,/A3*%
X137650000Y-20560000D03*
%TO.P,U1,3,~{SE}_3*%
%TO.N,/~{SE0}*%
X135110000Y-21830000D03*
%TO.P,U1,4,SIO2_4*%
%TO.N,/SD2*%
X137650000Y-23100000D03*
%TO.P,U1,5,SIO3_5*%
%TO.N,/SD3*%
X135110000Y-24370000D03*
%TO.P,U1,6,GND_6*%
%TO.N,GND*%
X137650000Y-25640000D03*
%TO.P,U1,7,SC_7*%
%TO.N,/SC*%
X135110000Y-26910000D03*
%TO.P,U1,8,SIO0_8*%
%TO.N,/SD0*%
X137650000Y-28180000D03*
%TO.P,U1,9,SIO1_9*%
%TO.N,/SD1*%
X135110000Y-29450000D03*
%TO.P,U1,10,~{DT}/~{OE}_10*%
%TO.N,/~{OE1}*%
X137650000Y-30720000D03*
%TO.P,U1,11,W0/IO0_11*%
%TO.N,/A0*%
X135110000Y-31990000D03*
%TO.P,U1,12,W1/IO1_12*%
%TO.N,/A1*%
X137650000Y-33260000D03*
%TO.P,U1,13,~{WB}/~{WE}_13*%
%TO.N,/~{WE0}*%
X135110000Y-34530000D03*
%TO.P,U1,14,~{RAS}_14*%
%TO.N,/~{RAS1}*%
X137650000Y-35800000D03*
%TO.P,U1,15,A5_15*%
%TO.N,/A6*%
X135110000Y-37070000D03*
%TO.P,U1,16,A6_16*%
%TO.N,/A5*%
X137650000Y-38340000D03*
%TO.P,U1,17,A4_17*%
%TO.N,/A4*%
X135110000Y-39610000D03*
%TO.P,U1,18,VCC_18*%
%TO.N,VCC*%
X137650000Y-40880000D03*
%TO.P,U1,19,A7_19*%
%TO.N,/A7*%
X135110000Y-42150000D03*
%TO.P,U1,20,A3_20*%
%TO.N,/A3*%
X137650000Y-43420000D03*
%TO.P,U1,21,A2_21*%
%TO.N,/A2*%
X135110000Y-44690000D03*
%TO.P,U1,22,A1_22*%
%TO.N,/A1*%
X137650000Y-45960000D03*
%TO.P,U1,23,A0_23*%
%TO.N,/A0*%
X135110000Y-47230000D03*
%TO.P,U1,24,~{CAS}_24*%
%TO.N,/~{CAS1}*%
X137650000Y-48500000D03*
%TD*%
%TO.P,U2,24,~{CAS}_24*%
%TO.N,/~{CAS1}*%
X144000000Y-48500000D03*
%TO.P,U2,23,A0_23*%
%TO.N,/A0*%
X141460000Y-47230000D03*
%TO.P,U2,22,A1_22*%
%TO.N,/A1*%
X144000000Y-45960000D03*
%TO.P,U2,21,A2_21*%
%TO.N,/A2*%
X141460000Y-44690000D03*
%TO.P,U2,20,A3_20*%
%TO.N,/A3*%
X144000000Y-43420000D03*
%TO.P,U2,19,A7_19*%
%TO.N,/A7*%
X141460000Y-42150000D03*
%TO.P,U2,18,VCC_18*%
%TO.N,VCC*%
X144000000Y-40880000D03*
%TO.P,U2,17,A4_17*%
%TO.N,/A4*%
X141460000Y-39610000D03*
%TO.P,U2,16,A6_16*%
%TO.N,/A5*%
X144000000Y-38340000D03*
%TO.P,U2,15,A5_15*%
%TO.N,/A6*%
X141460000Y-37070000D03*
%TO.P,U2,14,~{RAS}_14*%
%TO.N,/~{RAS1}*%
X144000000Y-35800000D03*
%TO.P,U2,13,~{WB}/~{WE}_13*%
%TO.N,/~{WE0}*%
X141460000Y-34530000D03*
%TO.P,U2,12,W1/IO1_12*%
%TO.N,/A5*%
X144000000Y-33260000D03*
%TO.P,U2,11,W0/IO0_11*%
%TO.N,/A4*%
X141460000Y-31990000D03*
%TO.P,U2,10,~{DT}/~{OE}_10*%
%TO.N,/~{OE1}*%
X144000000Y-30720000D03*
%TO.P,U2,9,SIO1_9*%
%TO.N,/SD5*%
X141460000Y-29450000D03*
%TO.P,U2,8,SIO0_8*%
%TO.N,/SD4*%
X144000000Y-28180000D03*
%TO.P,U2,7,SC_7*%
%TO.N,/SC*%
X141460000Y-26910000D03*
%TO.P,U2,6,GND_6*%
%TO.N,GND*%
X144000000Y-25640000D03*
%TO.P,U2,5,SIO3_5*%
%TO.N,/SD7*%
X141460000Y-24370000D03*
%TO.P,U2,4,SIO2_4*%
%TO.N,/SD6*%
X144000000Y-23100000D03*
%TO.P,U2,3,~{SE}_3*%
%TO.N,/~{SE0}*%
X141460000Y-21830000D03*
%TO.P,U2,2,W3/IO3_2*%
%TO.N,/A7*%
X144000000Y-20560000D03*
D10*
%TO.P,U2,1,W2/IO2_1*%
%TO.N,/A6*%
X141460000Y-19290000D03*
%TD*%
D11*
%TO.P,U3,24,~{CAS}_24*%
%TO.N,/~{CAS1}*%
X124950000Y-48500000D03*
%TO.P,U3,23,A0_23*%
%TO.N,/A0*%
X122410000Y-47230000D03*
%TO.P,U3,22,A1_22*%
%TO.N,/A1*%
X124950000Y-45960000D03*
%TO.P,U3,21,A2_21*%
%TO.N,/A2*%
X122410000Y-44690000D03*
%TO.P,U3,20,A3_20*%
%TO.N,/A3*%
X124950000Y-43420000D03*
%TO.P,U3,19,A7_19*%
%TO.N,/A7*%
X122410000Y-42150000D03*
%TO.P,U3,18,VCC_18*%
%TO.N,VCC*%
X124950000Y-40880000D03*
%TO.P,U3,17,A4_17*%
%TO.N,/A4*%
X122410000Y-39610000D03*
%TO.P,U3,16,A6_16*%
%TO.N,/A5*%
X124950000Y-38340000D03*
%TO.P,U3,15,A5_15*%
%TO.N,/A6*%
X122410000Y-37070000D03*
%TO.P,U3,14,~{RAS}_14*%
%TO.N,/~{RAS1}*%
X124950000Y-35800000D03*
%TO.P,U3,13,~{WB}/~{WE}_13*%
%TO.N,/~{WE1}*%
X122410000Y-34530000D03*
%TO.P,U3,12,W1/IO1_12*%
%TO.N,/RD5*%
X124950000Y-33260000D03*
%TO.P,U3,11,W0/IO0_11*%
%TO.N,/RD4*%
X122410000Y-31990000D03*
%TO.P,U3,10,~{DT}/~{OE}_10*%
%TO.N,/~{OE1}*%
X124950000Y-30720000D03*
%TO.P,U3,9,SIO1_9*%
%TO.N,/SD5*%
X122410000Y-29450000D03*
%TO.P,U3,8,SIO0_8*%
%TO.N,/SD4*%
X124950000Y-28180000D03*
%TO.P,U3,7,SC_7*%
%TO.N,/SC*%
X122410000Y-26910000D03*
%TO.P,U3,6,GND_6*%
%TO.N,GND*%
X124950000Y-25640000D03*
%TO.P,U3,5,SIO3_5*%
%TO.N,/SD7*%
X122410000Y-24370000D03*
%TO.P,U3,4,SIO2_4*%
%TO.N,/SD6*%
X124950000Y-23100000D03*
%TO.P,U3,3,~{SE}_3*%
%TO.N,/~{SE1}*%
X122410000Y-21830000D03*
%TO.P,U3,2,W3/IO3_2*%
%TO.N,/RD7*%
X124950000Y-20560000D03*
D10*
%TO.P,U3,1,W2/IO2_1*%
%TO.N,/RD6*%
X122410000Y-19290000D03*
%TD*%
D11*
%TO.P,U4,24,~{CAS}_24*%
%TO.N,/~{CAS1}*%
X131300000Y-48500000D03*
%TO.P,U4,23,A0_23*%
%TO.N,/A0*%
X128760000Y-47230000D03*
%TO.P,U4,22,A1_22*%
%TO.N,/A1*%
X131300000Y-45960000D03*
%TO.P,U4,21,A2_21*%
%TO.N,/A2*%
X128760000Y-44690000D03*
%TO.P,U4,20,A3_20*%
%TO.N,/A3*%
X131300000Y-43420000D03*
%TO.P,U4,19,A7_19*%
%TO.N,/A7*%
X128760000Y-42150000D03*
%TO.P,U4,18,VCC_18*%
%TO.N,VCC*%
X131300000Y-40880000D03*
%TO.P,U4,17,A4_17*%
%TO.N,/A4*%
X128760000Y-39610000D03*
%TO.P,U4,16,A6_16*%
%TO.N,/A5*%
X131300000Y-38340000D03*
%TO.P,U4,15,A5_15*%
%TO.N,/A6*%
X128760000Y-37070000D03*
%TO.P,U4,14,~{RAS}_14*%
%TO.N,/~{RAS1}*%
X131300000Y-35800000D03*
%TO.P,U4,13,~{WB}/~{WE}_13*%
%TO.N,/~{WE1}*%
X128760000Y-34530000D03*
%TO.P,U4,12,W1/IO1_12*%
%TO.N,/RD1*%
X131300000Y-33260000D03*
%TO.P,U4,11,W0/IO0_11*%
%TO.N,/RD0*%
X128760000Y-31990000D03*
%TO.P,U4,10,~{DT}/~{OE}_10*%
%TO.N,/~{OE1}*%
X131300000Y-30720000D03*
%TO.P,U4,9,SIO1_9*%
%TO.N,/SD1*%
X128760000Y-29450000D03*
%TO.P,U4,8,SIO0_8*%
%TO.N,/SD0*%
X131300000Y-28180000D03*
%TO.P,U4,7,SC_7*%
%TO.N,/SC*%
X128760000Y-26910000D03*
%TO.P,U4,6,GND_6*%
%TO.N,GND*%
X131300000Y-25640000D03*
%TO.P,U4,5,SIO3_5*%
%TO.N,/SD3*%
X128760000Y-24370000D03*
%TO.P,U4,4,SIO2_4*%
%TO.N,/SD2*%
X131300000Y-23100000D03*
%TO.P,U4,3,~{SE}_3*%
%TO.N,/~{SE1}*%
X128760000Y-21830000D03*
%TO.P,U4,2,W3/IO3_2*%
%TO.N,/RD3*%
X131300000Y-20560000D03*
D10*
%TO.P,U4,1,W2/IO2_1*%
%TO.N,/RD2*%
X128760000Y-19290000D03*
%TD*%
D12*
%TO.N,GNDA*%
X142125000Y-84625000D03*
X136875000Y-83750000D03*
X125125000Y-86625000D03*
%TO.N,VCCA*%
X132375000Y-80875000D03*
X132375000Y-84875000D03*
%TO.N,GND*%
X149000000Y-86250000D03*
X145200000Y-80750000D03*
%TO.N,/~{WE0}*%
X145000000Y-42250000D03*
%TO.N,/A3*%
X144174265Y-81825735D03*
%TO.N,GNDA*%
X138250000Y-79500000D03*
X143750000Y-75000000D03*
X132375000Y-75125000D03*
X129750000Y-86750000D03*
X129750000Y-83000000D03*
X129750000Y-79000000D03*
%TO.N,VCCA*%
X137750000Y-84000000D03*
%TO.N,/A7*%
X140600735Y-81500000D03*
%TO.N,/A6*%
X141200735Y-80799265D03*
%TO.N,/A5*%
X141911735Y-81510265D03*
%TO.N,/A4*%
X141000000Y-80000000D03*
%TO.N,/A2*%
X140616975Y-79133025D03*
%TO.N,VCCA*%
X132375000Y-76875000D03*
%TO.N,GND*%
X134500000Y-54750000D03*
X123500000Y-51000000D03*
X145750000Y-29500000D03*
X118750000Y-28750000D03*
X125000000Y-19000000D03*
X131750000Y-18250000D03*
X138000000Y-18750000D03*
X144500000Y-18750000D03*
X145000000Y-53250000D03*
X134750000Y-49375000D03*
X128625000Y-49375000D03*
X125250000Y-62250000D03*
X138250000Y-74125000D03*
X125250000Y-73000000D03*
X117500000Y-65000000D03*
X117250000Y-52500000D03*
X143750000Y-67750000D03*
X134000000Y-66650000D03*
X117400000Y-38000000D03*
%TO.N,/RD7*%
X118250000Y-53250000D03*
%TO.N,/RD6*%
X119000000Y-52750000D03*
%TO.N,/RD5*%
X119687105Y-52292492D03*
X118400000Y-33068000D03*
%TO.N,/RD4*%
X120350000Y-51844637D03*
X119000000Y-32250000D03*
%TO.N,/RD3*%
X120950000Y-51250000D03*
%TO.N,/RD1*%
X120650000Y-34000000D03*
X122150000Y-50065687D03*
%TO.N,/RD0*%
X121250000Y-30928000D03*
X122750000Y-49500000D03*
%TO.N,/SC*%
X125756000Y-53506000D03*
%TO.N,/~{OE1}*%
X144875000Y-52125000D03*
%TO.N,/RD7*%
X119400000Y-21500000D03*
%TO.N,/RD6*%
X119900000Y-19950000D03*
%TO.N,/~{OE1}*%
X143700000Y-66900000D03*
%TO.N,/~{WE0}*%
X143700000Y-66000000D03*
%TO.N,/~{WE1}*%
X130000000Y-67250000D03*
%TO.N,/~{RAS1}*%
X130500000Y-63750000D03*
%TO.N,/SC*%
X125500000Y-26910000D03*
%TO.N,/SD4*%
X129570000Y-28180000D03*
%TO.N,/SC*%
X127250000Y-62900000D03*
%TO.N,/~{SE0}*%
X133000000Y-21000000D03*
X132500000Y-62000000D03*
%TO.N,/~{SE1}*%
X126500000Y-61300000D03*
%TO.N,/SD7*%
X124750000Y-60600000D03*
%TO.N,/SD6*%
X127250000Y-59700000D03*
%TO.N,/SD5*%
X128000000Y-58900000D03*
X127575000Y-30312000D03*
%TO.N,/SD4*%
X128750000Y-58100000D03*
%TO.N,/SD3*%
X133000000Y-57500000D03*
X132900000Y-24066263D03*
%TO.N,/SD2*%
X133600000Y-56500000D03*
%TO.N,/SD1*%
X136000000Y-56000000D03*
%TO.N,/SD0*%
X136500000Y-55000000D03*
%TO.N,/A0*%
X141322000Y-78642825D03*
%TO.N,/A1*%
X143100000Y-79500000D03*
%TO.N,/A7*%
X138885421Y-42500000D03*
%TO.N,/~{CAS1}*%
X137650000Y-64300000D03*
%TO.N,/RD2*%
X121550000Y-50654142D03*
%TD*%
%TO.N,VCCA*%
D13*
X137750000Y-84000000D02*
X137500000Y-84000000D01*
X137500000Y-84000000D02*
X136625000Y-84875000D01*
X136625000Y-84875000D02*
X132375000Y-84875000D01*
X132375000Y-80875000D02*
X132375000Y-76875000D01*
X132375000Y-84875000D02*
X132375000Y-80875000D01*
%TO.N,GND*%
X145400000Y-69400000D02*
X145400000Y-80750000D01*
X143750000Y-67750000D02*
X145400000Y-69400000D01*
X145400000Y-80750000D02*
X145200000Y-80750000D01*
%TO.N,/~{OE1}*%
X143700000Y-66900000D02*
X144100000Y-66900000D01*
X144100000Y-66900000D02*
X144500000Y-66500000D01*
X145900000Y-33900000D02*
X145500000Y-33500000D01*
X144500000Y-66500000D02*
X144500000Y-65500000D01*
X144500000Y-65500000D02*
X144000000Y-65000000D01*
X144000000Y-65000000D02*
X144000000Y-53000000D01*
X144000000Y-53000000D02*
X145900000Y-51100000D01*
X145500000Y-33500000D02*
X145500000Y-32220000D01*
X145900000Y-51100000D02*
X145900000Y-33900000D01*
X145500000Y-32220000D02*
X144000000Y-30720000D01*
%TO.N,/~{WE0}*%
X145000000Y-42250000D02*
X145500000Y-42750000D01*
%TO.N,/A3*%
X144075735Y-81825735D02*
X142500000Y-80250000D01*
X144174265Y-81825735D02*
X144075735Y-81825735D01*
X142500000Y-80250000D02*
X142500000Y-51376000D01*
X142500000Y-51376000D02*
X142938000Y-50938000D01*
X142938000Y-50938000D02*
X142938000Y-44482000D01*
X142938000Y-44482000D02*
X144000000Y-43420000D01*
%TO.N,/A2*%
X140616975Y-79133025D02*
X140500000Y-79016050D01*
X140500000Y-79016050D02*
X140500000Y-78098530D01*
X140398000Y-45752000D02*
X141460000Y-44690000D01*
X140500000Y-78098530D02*
X140398000Y-77996530D01*
X140398000Y-77996530D02*
X140398000Y-45752000D01*
%TO.N,/A7*%
X139000000Y-79750000D02*
X140600735Y-81350735D01*
X140600735Y-81350735D02*
X140600735Y-81500000D01*
X139000000Y-79000000D02*
X139000000Y-79750000D01*
%TO.N,/A6*%
X141200735Y-80799265D02*
X140869001Y-80799265D01*
X140869001Y-80799265D02*
X139485421Y-79415685D01*
%TO.N,/A5*%
X141922000Y-79500000D02*
X141922000Y-51078000D01*
X141922000Y-79500000D02*
X141922000Y-81500000D01*
X141922000Y-81500000D02*
X141911735Y-81510265D01*
%TO.N,/A4*%
X141000000Y-80000000D02*
X140635421Y-80000000D01*
X140635421Y-80000000D02*
X139885421Y-79250000D01*
%TO.N,/A0*%
X141322000Y-78642825D02*
X141322000Y-47368000D01*
X141322000Y-47368000D02*
X141460000Y-47230000D01*
%TO.N,/A1*%
X143100000Y-79500000D02*
X143100000Y-51900000D01*
X143100000Y-51900000D02*
X145062000Y-49938000D01*
X145062000Y-49938000D02*
X145062000Y-47022000D01*
X145062000Y-47022000D02*
X144000000Y-45960000D01*
%TO.N,/A4*%
X139885421Y-79250000D02*
X139885421Y-41184579D01*
X139885421Y-41184579D02*
X141460000Y-39610000D01*
%TO.N,/RD7*%
X118250000Y-53250000D02*
X118250000Y-50250000D01*
X118250000Y-50250000D02*
X118000000Y-50000000D01*
X118000000Y-50000000D02*
X118000000Y-36250000D01*
X118000000Y-36250000D02*
X117250000Y-35500000D01*
X117250000Y-35500000D02*
X117250000Y-31500000D01*
X117250000Y-31500000D02*
X119500000Y-29250000D01*
X119500000Y-29250000D02*
X119500000Y-21800000D01*
X119500000Y-21800000D02*
X119400000Y-21700000D01*
X119400000Y-21700000D02*
X119400000Y-21500000D01*
%TO.N,/RD6*%
X119000000Y-52750000D02*
X119000000Y-50250000D01*
X119000000Y-50250000D02*
X118600000Y-49850000D01*
X118600000Y-49850000D02*
X118600000Y-36100000D01*
X118600000Y-36100000D02*
X117750000Y-35250000D01*
X117750000Y-35250000D02*
X117750000Y-31684314D01*
X117750000Y-31684314D02*
X120000000Y-29434314D01*
X120000000Y-29434314D02*
X120000000Y-20300000D01*
X120000000Y-20300000D02*
X119900000Y-20200000D01*
X119900000Y-20200000D02*
X119900000Y-19950000D01*
%TO.N,/RD5*%
X119687105Y-52292492D02*
X119687105Y-50187105D01*
X119687105Y-50187105D02*
X119000000Y-49500000D01*
X119000000Y-49500000D02*
X119000000Y-35750000D01*
X119000000Y-35750000D02*
X118400000Y-35150000D01*
X118400000Y-35150000D02*
X118400000Y-33068000D01*
%TO.N,/RD4*%
X120350000Y-51844637D02*
X120350000Y-50100000D01*
X120350000Y-50100000D02*
X119500000Y-49250000D01*
X119500000Y-49250000D02*
X119500000Y-35250000D01*
X119500000Y-35250000D02*
X119000000Y-34750000D01*
X119000000Y-34750000D02*
X119000000Y-32250000D01*
%TO.N,/RD3*%
X120950000Y-51250000D02*
X120950000Y-49950000D01*
X120950000Y-49950000D02*
X119950000Y-48950000D01*
X119950000Y-48950000D02*
X119950000Y-35015686D01*
X119950000Y-35015686D02*
X119600000Y-34665685D01*
X119600000Y-34665685D02*
X119600000Y-31084314D01*
X119600000Y-31084314D02*
X120500000Y-30184314D01*
X120500000Y-30184314D02*
X120500000Y-18000000D01*
X120500000Y-18000000D02*
X121000000Y-17500000D01*
X121000000Y-17500000D02*
X129500000Y-17500000D01*
X129500000Y-17500000D02*
X131300000Y-19300000D01*
X131300000Y-19300000D02*
X131300000Y-20560000D01*
%TO.N,/RD2*%
X121550000Y-50654142D02*
X121550000Y-49727071D01*
X121550000Y-49727071D02*
X120350000Y-48527071D01*
X120350000Y-48527071D02*
X120350000Y-34850000D01*
X120350000Y-34850000D02*
X120000000Y-34500000D01*
X120000000Y-34500000D02*
X120000000Y-31250000D01*
X120000000Y-31250000D02*
X121000000Y-30250000D01*
X121000000Y-30250000D02*
X121000000Y-18500000D01*
X121000000Y-18500000D02*
X121500000Y-18000000D01*
X121500000Y-18000000D02*
X127470000Y-18000000D01*
X127470000Y-18000000D02*
X128760000Y-19290000D01*
%TO.N,/RD1*%
X122150000Y-50065687D02*
X122150000Y-49607843D01*
X122150000Y-49607843D02*
X120750000Y-48207843D01*
X120750000Y-48207843D02*
X120750000Y-34000000D01*
X120750000Y-34000000D02*
X120650000Y-34000000D01*
%TO.N,/~{RAS1}*%
X130500000Y-63750000D02*
X130500000Y-50012000D01*
X130500000Y-50012000D02*
X130238000Y-49750000D01*
X130238000Y-49750000D02*
X130238000Y-36862000D01*
X130238000Y-36862000D02*
X131300000Y-35800000D01*
%TO.N,/~{WE1}*%
X130000000Y-67250000D02*
X130000000Y-65000000D01*
X130000000Y-65000000D02*
X129838000Y-64838000D01*
X129838000Y-64838000D02*
X129838000Y-35608000D01*
X129838000Y-35608000D02*
X128760000Y-34530000D01*
%TO.N,/SC*%
X125756000Y-53506000D02*
X126000000Y-53750000D01*
X126000000Y-53750000D02*
X126000000Y-59500000D01*
X126000000Y-59500000D02*
X127250000Y-60750000D01*
X127250000Y-60750000D02*
X127250000Y-62900000D01*
%TO.N,/SD7*%
X124750000Y-60600000D02*
X124350000Y-60200000D01*
X124350000Y-60200000D02*
X124350000Y-50600000D01*
X124350000Y-50600000D02*
X123488000Y-49738000D01*
X123488000Y-49738000D02*
X123488000Y-25448000D01*
X123488000Y-25448000D02*
X122410000Y-24370000D01*
%TO.N,/~{SE1}*%
X126500000Y-61300000D02*
X126500000Y-61000000D01*
X126500000Y-61000000D02*
X124750000Y-59250000D01*
X124750000Y-59250000D02*
X124750000Y-50250000D01*
X124750000Y-50250000D02*
X123888000Y-49388000D01*
X123888000Y-49388000D02*
X123888000Y-23308000D01*
X123888000Y-23308000D02*
X122410000Y-21830000D01*
%TO.N,/SC*%
X126012000Y-53250000D02*
X126012000Y-42012000D01*
X125756000Y-53506000D02*
X126012000Y-53250000D01*
X126000000Y-42000000D02*
X126100000Y-41900000D01*
X126012000Y-42012000D02*
X126000000Y-42000000D01*
X126100000Y-41900000D02*
X126100000Y-27510000D01*
X126100000Y-27510000D02*
X125500000Y-26910000D01*
%TO.N,/SD6*%
X127250000Y-59700000D02*
X126500000Y-58950000D01*
X126500000Y-58950000D02*
X126500000Y-24650000D01*
X126500000Y-24650000D02*
X124950000Y-23100000D01*
%TO.N,/SD5*%
X128000000Y-58900000D02*
X127000000Y-57900000D01*
X127000000Y-57900000D02*
X127000000Y-30887000D01*
X127000000Y-30887000D02*
X127575000Y-30312000D01*
%TO.N,/SD4*%
X127500000Y-31500000D02*
X128072000Y-30928000D01*
X128750000Y-58100000D02*
X127500000Y-56850000D01*
X129056000Y-30928000D02*
X130000000Y-29984000D01*
X127500000Y-56850000D02*
X127500000Y-31500000D01*
X130000000Y-28610000D02*
X129570000Y-28180000D01*
X128072000Y-30928000D02*
X129056000Y-30928000D01*
X130000000Y-29984000D02*
X130000000Y-28610000D01*
%TO.N,/SD2*%
X133600000Y-56500000D02*
X133600000Y-44350000D01*
X133600000Y-44350000D02*
X133500000Y-44250000D01*
%TO.N,/RD0*%
X122750000Y-49500000D02*
X121250000Y-48000000D01*
X121250000Y-48000000D02*
X121250000Y-30928000D01*
%TO.N,/A3*%
X137650000Y-43420000D02*
X137650000Y-42850000D01*
X137650000Y-42850000D02*
X138712000Y-41788000D01*
X138712000Y-41788000D02*
X138712000Y-21622000D01*
X138712000Y-21622000D02*
X137650000Y-20560000D01*
%TO.N,/A5*%
X144000000Y-33260000D02*
X144000000Y-34000000D01*
X145062000Y-37278000D02*
X144000000Y-38340000D01*
X144000000Y-34000000D02*
X145062000Y-35062000D01*
X145062000Y-35062000D02*
X145062000Y-37278000D01*
%TO.N,/A7*%
X142522000Y-41088000D02*
X142522000Y-39500000D01*
X142922000Y-21638000D02*
X144000000Y-20560000D01*
X141460000Y-42150000D02*
X142522000Y-41088000D01*
X142522000Y-39500000D02*
X142922000Y-39100000D01*
X142922000Y-39100000D02*
X142922000Y-21638000D01*
%TO.N,/A5*%
X143500000Y-38840000D02*
X144000000Y-38340000D01*
X141922000Y-51078000D02*
X142522000Y-50478000D01*
X142522000Y-50478000D02*
X142522000Y-42416000D01*
X143500000Y-39500000D02*
X143500000Y-38840000D01*
X142522000Y-42416000D02*
X142938000Y-42000000D01*
X142938000Y-42000000D02*
X142938000Y-40062000D01*
X142938000Y-40062000D02*
X143500000Y-39500000D01*
%TO.N,/A7*%
X138885421Y-42500000D02*
X139000000Y-42614579D01*
X139000000Y-42614579D02*
X139000000Y-79000000D01*
%TO.N,/A4*%
X141460000Y-31990000D02*
X142522000Y-33052000D01*
X142522000Y-33052000D02*
X142522000Y-38548000D01*
X142522000Y-38548000D02*
X141460000Y-39610000D01*
%TO.N,/~{CAS1}*%
X137650000Y-64300000D02*
X137650000Y-48500000D01*
%TO.N,/~{WE0}*%
X143500000Y-52500000D02*
X143500000Y-66000000D01*
X145500000Y-50500000D02*
X143500000Y-52500000D01*
X143500000Y-66000000D02*
X143700000Y-66000000D01*
X145500000Y-42750000D02*
X145500000Y-50500000D01*
%TO.N,/~{SE0}*%
X132000000Y-22000000D02*
X133000000Y-21000000D01*
X130000000Y-22898105D02*
X130898105Y-22000000D01*
X130662000Y-24162000D02*
X130000000Y-23500000D01*
X131386000Y-24162000D02*
X130662000Y-24162000D01*
X132362000Y-25138000D02*
X131386000Y-24162000D01*
X132362000Y-61862000D02*
X132362000Y-25138000D01*
X132500000Y-62000000D02*
X132362000Y-61862000D01*
X130000000Y-23500000D02*
X130000000Y-22898105D01*
X130898105Y-22000000D02*
X132000000Y-22000000D01*
%TO.N,/SD2*%
X133500000Y-23500000D02*
X133100000Y-23100000D01*
X133100000Y-23100000D02*
X131300000Y-23100000D01*
X133500000Y-44250000D02*
X133500000Y-23500000D01*
%TO.N,/SD3*%
X133000000Y-24166263D02*
X132900000Y-24066263D01*
X133000000Y-57500000D02*
X133000000Y-24166263D01*
%TO.N,/SD0*%
X137650000Y-28180000D02*
X136588000Y-29242000D01*
X136588000Y-54912000D02*
X136500000Y-55000000D01*
X136588000Y-29242000D02*
X136588000Y-54912000D01*
%TO.N,/SD1*%
X136000000Y-56000000D02*
X135900000Y-55900000D01*
X135900000Y-55900000D02*
X135900000Y-47941895D01*
X135900000Y-47941895D02*
X136188000Y-47653895D01*
X136188000Y-47653895D02*
X136188000Y-30528000D01*
X136188000Y-30528000D02*
X135110000Y-29450000D01*
%TO.N,/A6*%
X140000000Y-38530000D02*
X141460000Y-37070000D01*
X139485421Y-79415685D02*
X139485421Y-40514579D01*
X139485421Y-40514579D02*
X140000000Y-40000000D01*
X140000000Y-40000000D02*
X140000000Y-38530000D01*
X141460000Y-19290000D02*
X140398000Y-20352000D01*
X140398000Y-20352000D02*
X140398000Y-36008000D01*
%TO.N,/A2*%
X135110000Y-19290000D02*
X134048000Y-20352000D01*
X134048000Y-43628000D02*
X135110000Y-44690000D01*
X134048000Y-20352000D02*
X134048000Y-43628000D01*
%TO.N,/A6*%
X140398000Y-36008000D02*
X141460000Y-37070000D01*
%TD*%
%TA.AperFunction,Conductor*%
%TO.N,GNDA*%
G36*
X138592539Y-74769685D02*
G01*
X138638294Y-74822489D01*
X138649500Y-74874000D01*
X138649500Y-78953856D01*
X138649500Y-79796144D01*
X138660720Y-79838015D01*
X138662702Y-79845413D01*
X138662702Y-79845414D01*
X138673385Y-79885286D01*
X138719527Y-79965208D01*
X138719531Y-79965213D01*
X140027424Y-81273106D01*
X140060909Y-81334429D01*
X140059518Y-81392879D01*
X140050235Y-81427523D01*
X140050235Y-81427525D01*
X140050235Y-81572475D01*
X140066385Y-81632746D01*
X140087752Y-81712488D01*
X140160223Y-81838011D01*
X140160225Y-81838013D01*
X140160226Y-81838015D01*
X140262720Y-81940509D01*
X140262721Y-81940510D01*
X140262723Y-81940511D01*
X140388246Y-82012982D01*
X140388247Y-82012982D01*
X140388250Y-82012984D01*
X140528260Y-82050500D01*
X140528263Y-82050500D01*
X140673207Y-82050500D01*
X140673210Y-82050500D01*
X140813220Y-82012984D01*
X140938750Y-81940509D01*
X141041244Y-81838015D01*
X141113719Y-81712485D01*
X141135086Y-81632742D01*
X141171448Y-81573086D01*
X141234295Y-81542556D01*
X141303671Y-81550850D01*
X141357549Y-81595335D01*
X141374633Y-81632742D01*
X141390829Y-81693186D01*
X141398752Y-81722754D01*
X141471223Y-81848276D01*
X141471225Y-81848278D01*
X141471226Y-81848280D01*
X141573720Y-81950774D01*
X141573721Y-81950775D01*
X141573723Y-81950776D01*
X141699246Y-82023247D01*
X141699247Y-82023247D01*
X141699250Y-82023249D01*
X141839260Y-82060765D01*
X141839263Y-82060765D01*
X141984207Y-82060765D01*
X141984210Y-82060765D01*
X142124220Y-82023249D01*
X142249750Y-81950774D01*
X142352244Y-81848280D01*
X142424719Y-81722750D01*
X142462235Y-81582740D01*
X142462235Y-81437790D01*
X142424719Y-81297780D01*
X142410473Y-81273106D01*
X142352246Y-81172253D01*
X142352241Y-81172247D01*
X142308819Y-81128825D01*
X142275334Y-81067502D01*
X142272500Y-81041144D01*
X142272500Y-80817544D01*
X142292185Y-80750505D01*
X142344989Y-80704750D01*
X142414147Y-80694806D01*
X142477703Y-80723831D01*
X142484181Y-80729863D01*
X142713681Y-80959363D01*
X142747166Y-81020686D01*
X142750000Y-81047044D01*
X142750000Y-87375500D01*
X142730315Y-87442539D01*
X142677511Y-87488294D01*
X142626000Y-87499500D01*
X134750000Y-87499500D01*
X134750000Y-85225500D01*
X136671142Y-85225500D01*
X136671144Y-85225500D01*
X136760288Y-85201614D01*
X136840212Y-85155470D01*
X137443660Y-84552020D01*
X137504981Y-84518537D01*
X137563429Y-84519927D01*
X137677525Y-84550500D01*
X137677528Y-84550500D01*
X137822472Y-84550500D01*
X137822475Y-84550500D01*
X137962485Y-84512984D01*
X138088015Y-84440509D01*
X138190509Y-84338015D01*
X138262984Y-84212485D01*
X138300500Y-84072475D01*
X138300500Y-83927525D01*
X138262984Y-83787515D01*
X138227211Y-83725555D01*
X138190511Y-83661988D01*
X138190506Y-83661982D01*
X138088017Y-83559493D01*
X138088011Y-83559488D01*
X137962488Y-83487017D01*
X137962489Y-83487017D01*
X137951006Y-83483940D01*
X137822475Y-83449500D01*
X137677525Y-83449500D01*
X137548993Y-83483940D01*
X137537511Y-83487017D01*
X137411988Y-83559488D01*
X137411986Y-83559490D01*
X137309490Y-83661985D01*
X137272787Y-83725555D01*
X137253082Y-83751234D01*
X136516137Y-84488181D01*
X136454814Y-84521666D01*
X136428456Y-84524500D01*
X134750000Y-84524500D01*
X134750000Y-74750000D01*
X138525500Y-74750000D01*
X138592539Y-74769685D01*
G37*
%TD.AperFunction*%
%TA.AperFunction,Conductor*%
G36*
X144992539Y-74769685D02*
G01*
X145038294Y-74822489D01*
X145049500Y-74874000D01*
X145049500Y-78126000D01*
X145029815Y-78193039D01*
X144977011Y-78238794D01*
X144925500Y-78250000D01*
X143574500Y-78250000D01*
X143507461Y-78230315D01*
X143461706Y-78177511D01*
X143450500Y-78126000D01*
X143450500Y-74874000D01*
X143470185Y-74806961D01*
X143522989Y-74761206D01*
X143574500Y-74750000D01*
X144925500Y-74750000D01*
X144992539Y-74769685D01*
G37*
%TD.AperFunction*%
%TD*%
%TA.AperFunction,Conductor*%
%TO.N,GNDA*%
G36*
X134750000Y-84524500D02*
G01*
X132854386Y-84524500D01*
X132787347Y-84504815D01*
X132766705Y-84488181D01*
X132761819Y-84483295D01*
X132728334Y-84421972D01*
X132725500Y-84395614D01*
X132725500Y-81354386D01*
X132745185Y-81287347D01*
X132761819Y-81266705D01*
X132815509Y-81213015D01*
X132887984Y-81087485D01*
X132925500Y-80947475D01*
X132925500Y-80802525D01*
X132887984Y-80662515D01*
X132815509Y-80536985D01*
X132761819Y-80483295D01*
X132728334Y-80421972D01*
X132725500Y-80395614D01*
X132725500Y-77354386D01*
X132745185Y-77287347D01*
X132761819Y-77266705D01*
X132815509Y-77213015D01*
X132887984Y-77087485D01*
X132925500Y-76947475D01*
X132925500Y-76802525D01*
X132887984Y-76662515D01*
X132815509Y-76536985D01*
X132713015Y-76434491D01*
X132713013Y-76434490D01*
X132713011Y-76434488D01*
X132587488Y-76362017D01*
X132587489Y-76362017D01*
X132576006Y-76358940D01*
X132447475Y-76324500D01*
X132302525Y-76324500D01*
X132173993Y-76358940D01*
X132162511Y-76362017D01*
X132036988Y-76434488D01*
X132036982Y-76434493D01*
X131934493Y-76536982D01*
X131934488Y-76536988D01*
X131862017Y-76662511D01*
X131862016Y-76662515D01*
X131824500Y-76802525D01*
X131824500Y-76947475D01*
X131862016Y-77087485D01*
X131862017Y-77087488D01*
X131934488Y-77213011D01*
X131934493Y-77213017D01*
X131988181Y-77266705D01*
X132021666Y-77328028D01*
X132024500Y-77354386D01*
X132024500Y-80395614D01*
X132004815Y-80462653D01*
X131988181Y-80483295D01*
X131934493Y-80536982D01*
X131934488Y-80536988D01*
X131862017Y-80662511D01*
X131862016Y-80662515D01*
X131824500Y-80802525D01*
X131824500Y-80947475D01*
X131862016Y-81087485D01*
X131862017Y-81087488D01*
X131934488Y-81213011D01*
X131934493Y-81213017D01*
X131988181Y-81266705D01*
X132021666Y-81328028D01*
X132024500Y-81354386D01*
X132024500Y-84395614D01*
X132004815Y-84462653D01*
X131988181Y-84483295D01*
X131934493Y-84536982D01*
X131934488Y-84536988D01*
X131862017Y-84662511D01*
X131862016Y-84662515D01*
X131824500Y-84802525D01*
X131824500Y-84947475D01*
X131862016Y-85087485D01*
X131862017Y-85087488D01*
X131934488Y-85213011D01*
X131934490Y-85213013D01*
X131934491Y-85213015D01*
X132036985Y-85315509D01*
X132036986Y-85315510D01*
X132036988Y-85315511D01*
X132162511Y-85387982D01*
X132162512Y-85387982D01*
X132162515Y-85387984D01*
X132302525Y-85425500D01*
X132302528Y-85425500D01*
X132447472Y-85425500D01*
X132447475Y-85425500D01*
X132587485Y-85387984D01*
X132713015Y-85315509D01*
X132766705Y-85261819D01*
X132828028Y-85228334D01*
X132854386Y-85225500D01*
X134750000Y-85225500D01*
X134750000Y-87499500D01*
X124624500Y-87499500D01*
X124557461Y-87479815D01*
X124511706Y-87427011D01*
X124500500Y-87375500D01*
X124500500Y-74874000D01*
X124520185Y-74806961D01*
X124572989Y-74761206D01*
X124624500Y-74750000D01*
X134750000Y-74750000D01*
X134750000Y-84524500D01*
G37*
%TD.AperFunction*%
%TD*%
%TA.AperFunction,Conductor*%
%TO.N,GND*%
G36*
X145448028Y-78239778D02*
G01*
X145490890Y-78294956D01*
X145499500Y-78340355D01*
X145499500Y-81565888D01*
X145499499Y-81565888D01*
X145499500Y-81565891D01*
X145499500Y-81565892D01*
X145507389Y-81595335D01*
X145533608Y-81693187D01*
X145533609Y-81693188D01*
X145533608Y-81693188D01*
X145547070Y-81716503D01*
X145550679Y-81722754D01*
X145599500Y-81807314D01*
X145692686Y-81900500D01*
X145806814Y-81966392D01*
X145934108Y-82000500D01*
X151607670Y-82000500D01*
X151642606Y-82005523D01*
X151657604Y-82009927D01*
X151716355Y-82047672D01*
X151717542Y-82049041D01*
X151745018Y-82103902D01*
X151746663Y-82111460D01*
X151749500Y-82137831D01*
X151749500Y-83973494D01*
X151744476Y-84008431D01*
X151737064Y-84033672D01*
X151705769Y-84086416D01*
X148341612Y-87450573D01*
X148313361Y-87471722D01*
X148290273Y-87484330D01*
X148230843Y-87499500D01*
X143129500Y-87499500D01*
X143062461Y-87479815D01*
X143016706Y-87427011D01*
X143005500Y-87375500D01*
X143005500Y-81550544D01*
X143025185Y-81483505D01*
X143077989Y-81437750D01*
X143147147Y-81427806D01*
X143210703Y-81456831D01*
X143217181Y-81462863D01*
X143578199Y-81823881D01*
X143597902Y-81849558D01*
X143613673Y-81876873D01*
X143626060Y-81906776D01*
X143653699Y-82009927D01*
X143657269Y-82023248D01*
X143661282Y-82038223D01*
X143731900Y-82160537D01*
X143733388Y-82163303D01*
X143733618Y-82163612D01*
X143836250Y-82266244D01*
X143836939Y-82266740D01*
X143839443Y-82268088D01*
X143958334Y-82336730D01*
X143961352Y-82338604D01*
X143961779Y-82338718D01*
X143961780Y-82338719D01*
X144101790Y-82376235D01*
X144101793Y-82376235D01*
X144246737Y-82376235D01*
X144246740Y-82376235D01*
X144386750Y-82338719D01*
X144512280Y-82266244D01*
X144614774Y-82163750D01*
X144687249Y-82038220D01*
X144724765Y-81898210D01*
X144724765Y-81753260D01*
X144687249Y-81613250D01*
X144669632Y-81582737D01*
X144614776Y-81487723D01*
X144614771Y-81487717D01*
X144614758Y-81487703D01*
X144512295Y-81385240D01*
X144512279Y-81385225D01*
X144512276Y-81385223D01*
X144458506Y-81354179D01*
X144430073Y-81324359D01*
X144364593Y-81306814D01*
X144364592Y-81306813D01*
X144278318Y-81283696D01*
X144246740Y-81275235D01*
X144246739Y-81275235D01*
X144142837Y-81275235D01*
X144139180Y-81274161D01*
X144139171Y-81274559D01*
X144070522Y-81272924D01*
X144008933Y-81254838D01*
X144000034Y-81249413D01*
X143976902Y-81231220D01*
X143020470Y-80274788D01*
X142999321Y-80246538D01*
X142993899Y-80236608D01*
X142979046Y-80168338D01*
X143003460Y-80102873D01*
X143059390Y-80061001D01*
X143063269Y-80059554D01*
X143066605Y-80058311D01*
X143109919Y-80050500D01*
X143172472Y-80050500D01*
X143172475Y-80050500D01*
X143312485Y-80012984D01*
X143438015Y-79940509D01*
X143540509Y-79838015D01*
X143612984Y-79712485D01*
X143650500Y-79572475D01*
X143650500Y-79427525D01*
X143612984Y-79287515D01*
X143569665Y-79212485D01*
X143540511Y-79161988D01*
X143540506Y-79161982D01*
X143540493Y-79161968D01*
X143499426Y-79120902D01*
X143478272Y-79092643D01*
X143465666Y-79069555D01*
X143450500Y-79010132D01*
X143450500Y-78629500D01*
X143470185Y-78562461D01*
X143522989Y-78516706D01*
X143574500Y-78505500D01*
X144925500Y-78505500D01*
X144979813Y-78499661D01*
X145031324Y-78488455D01*
X145057698Y-78481219D01*
X145086574Y-78464775D01*
X145144318Y-78431894D01*
X145144319Y-78431892D01*
X145144328Y-78431888D01*
X145197132Y-78386133D01*
X145228757Y-78353359D01*
X145265625Y-78282878D01*
X145314141Y-78232600D01*
X145382138Y-78216533D01*
X145448028Y-78239778D01*
G37*
%TD.AperFunction*%
%TA.AperFunction,Conductor*%
G36*
X145447126Y-52486302D02*
G01*
X145488999Y-52542234D01*
X145489001Y-52542238D01*
X145491682Y-52549426D01*
X145499500Y-52592760D01*
X145499500Y-74657659D01*
X145479815Y-74724698D01*
X145427011Y-74770453D01*
X145357853Y-74780397D01*
X145294297Y-74751372D01*
X145267746Y-74719019D01*
X145231392Y-74655177D01*
X145231389Y-74655174D01*
X145231388Y-74655172D01*
X145185633Y-74602368D01*
X145152859Y-74570743D01*
X145064524Y-74524535D01*
X145064523Y-74524534D01*
X145064522Y-74524534D01*
X145064522Y-74524533D01*
X144997490Y-74504851D01*
X144997478Y-74504848D01*
X144925501Y-74494500D01*
X144925500Y-74494500D01*
X144006741Y-74494500D01*
X143974645Y-74490274D01*
X143951007Y-74483939D01*
X143951007Y-74483940D01*
X143886740Y-74466720D01*
X143822475Y-74449500D01*
X143822474Y-74449500D01*
X143677520Y-74449500D01*
X143623812Y-74463891D01*
X143588772Y-74468081D01*
X143574898Y-74467751D01*
X143508346Y-74446478D01*
X143463860Y-74392601D01*
X143463856Y-74392593D01*
X143460509Y-74384776D01*
X143450500Y-74335969D01*
X143450500Y-67582494D01*
X143455522Y-67547561D01*
X143459433Y-67534242D01*
X143497206Y-67475465D01*
X143560758Y-67446440D01*
X143564590Y-67445889D01*
X143569185Y-67445229D01*
X143618919Y-67448193D01*
X143627525Y-67450500D01*
X143627528Y-67450500D01*
X143772472Y-67450500D01*
X143772475Y-67450500D01*
X143912485Y-67412984D01*
X144038015Y-67340509D01*
X144086361Y-67292162D01*
X144112032Y-67272463D01*
X144139348Y-67256692D01*
X144169242Y-67244309D01*
X144235288Y-67226614D01*
X144245912Y-67220480D01*
X144315212Y-67180470D01*
X144780469Y-66715212D01*
X144826614Y-66635288D01*
X144830836Y-66619531D01*
X144850500Y-66546144D01*
X144850500Y-65453856D01*
X144826614Y-65364712D01*
X144793475Y-65307314D01*
X144780470Y-65284788D01*
X144399426Y-64903744D01*
X144378274Y-64875488D01*
X144365667Y-64852399D01*
X144350500Y-64792974D01*
X144350500Y-53214373D01*
X144355522Y-53179440D01*
X144362934Y-53154195D01*
X144394228Y-53101453D01*
X144771258Y-52724423D01*
X144799508Y-52703275D01*
X144822600Y-52690667D01*
X144882025Y-52675500D01*
X144947472Y-52675500D01*
X144947475Y-52675500D01*
X145087485Y-52637984D01*
X145213015Y-52565509D01*
X145275217Y-52503306D01*
X145303457Y-52482165D01*
X145313391Y-52476741D01*
X145381661Y-52461888D01*
X145447126Y-52486302D01*
G37*
%TD.AperFunction*%
%TA.AperFunction,Conductor*%
G36*
X144258426Y-15505521D02*
G01*
X144283670Y-15512934D01*
X144336416Y-15544230D01*
X146575573Y-17783387D01*
X146596723Y-17811639D01*
X146609331Y-17834728D01*
X146624500Y-17894157D01*
X146624500Y-45098494D01*
X146619476Y-45133431D01*
X146612064Y-45158672D01*
X146580769Y-45211416D01*
X146474788Y-45317397D01*
X146446538Y-45338546D01*
X146436611Y-45343967D01*
X146368338Y-45358821D01*
X146302873Y-45334407D01*
X146261000Y-45278475D01*
X146258313Y-45271269D01*
X146250500Y-45227949D01*
X146250500Y-33853858D01*
X146250500Y-33853856D01*
X146226614Y-33764712D01*
X146215325Y-33745159D01*
X146214394Y-33743547D01*
X146186747Y-33695661D01*
X146185567Y-33693037D01*
X146181457Y-33686387D01*
X146180549Y-33684868D01*
X146115212Y-33619531D01*
X145899426Y-33403744D01*
X145878274Y-33375488D01*
X145865667Y-33352399D01*
X145850500Y-33292974D01*
X145850500Y-32173858D01*
X145850500Y-32173856D01*
X145826614Y-32084712D01*
X145826611Y-32084706D01*
X145786744Y-32015656D01*
X145785565Y-32013035D01*
X145781456Y-32006385D01*
X145780550Y-32004869D01*
X144991308Y-31215627D01*
X144970156Y-31187371D01*
X144962664Y-31173650D01*
X144947813Y-31105380D01*
X144948718Y-31092726D01*
X144948784Y-31091800D01*
X144957909Y-31053190D01*
X144973588Y-31015340D01*
X144973589Y-31015337D01*
X144973590Y-31015335D01*
X144990894Y-30928341D01*
X145005378Y-30855529D01*
X145005378Y-30855526D01*
X145012500Y-30819725D01*
X145012500Y-30620271D01*
X144974393Y-30428702D01*
X144973591Y-30424670D01*
X144973590Y-30424669D01*
X144973351Y-30423464D01*
X144971266Y-30419056D01*
X144969011Y-30413611D01*
X144897269Y-30240407D01*
X144897262Y-30240394D01*
X144786460Y-30074569D01*
X144786457Y-30074565D01*
X144786452Y-30074559D01*
X144645439Y-29933546D01*
X144645433Y-29933541D01*
X144645432Y-29933540D01*
X144479611Y-29822741D01*
X144479610Y-29822740D01*
X144479605Y-29822737D01*
X144479592Y-29822730D01*
X144479585Y-29822726D01*
X144295361Y-29746419D01*
X144295347Y-29746414D01*
X144295339Y-29746411D01*
X144295329Y-29746408D01*
X144295326Y-29746407D01*
X144295322Y-29746406D01*
X144099728Y-29707500D01*
X144099725Y-29707500D01*
X144099723Y-29707500D01*
X143900277Y-29707500D01*
X143900275Y-29707500D01*
X143900271Y-29707500D01*
X143704676Y-29746406D01*
X143704670Y-29746408D01*
X143704660Y-29746411D01*
X143704655Y-29746412D01*
X143704637Y-29746419D01*
X143520413Y-29822726D01*
X143520395Y-29822736D01*
X143480216Y-29849584D01*
X143448372Y-29864818D01*
X143435375Y-29868887D01*
X143365516Y-29870131D01*
X143306075Y-29833409D01*
X143277400Y-29777986D01*
X143275571Y-29769925D01*
X143272500Y-29742497D01*
X143272500Y-29161440D01*
X143277521Y-29126512D01*
X143278329Y-29123760D01*
X143281358Y-29113442D01*
X143319128Y-29054665D01*
X143382682Y-29025636D01*
X143444699Y-29032580D01*
X143452424Y-29035540D01*
X143476940Y-29048226D01*
X143520392Y-29077261D01*
X143520407Y-29077269D01*
X143680573Y-29143611D01*
X143699054Y-29151265D01*
X143703463Y-29153351D01*
X143900271Y-29192500D01*
X144099725Y-29192500D01*
X144099727Y-29192500D01*
X144202124Y-29172131D01*
X144269635Y-29158702D01*
X144295335Y-29153590D01*
X144465031Y-29083300D01*
X144479592Y-29077269D01*
X144479592Y-29077268D01*
X144479599Y-29077266D01*
X144645431Y-28966460D01*
X144786460Y-28825431D01*
X144897266Y-28659599D01*
X144973590Y-28475335D01*
X144973593Y-28475323D01*
X144990070Y-28392486D01*
X144990070Y-28392485D01*
X145012500Y-28279727D01*
X145012500Y-28080271D01*
X144973351Y-27883463D01*
X144971269Y-27879063D01*
X144946844Y-27820093D01*
X144922414Y-27761112D01*
X144897272Y-27700413D01*
X144897267Y-27700404D01*
X144897262Y-27700394D01*
X144786460Y-27534569D01*
X144786457Y-27534565D01*
X144786452Y-27534559D01*
X144645439Y-27393546D01*
X144645433Y-27393541D01*
X144645432Y-27393540D01*
X144549855Y-27329677D01*
X144479605Y-27282737D01*
X144479592Y-27282730D01*
X144479585Y-27282726D01*
X144295361Y-27206419D01*
X144295347Y-27206414D01*
X144295339Y-27206411D01*
X144295329Y-27206408D01*
X144295326Y-27206407D01*
X144295322Y-27206406D01*
X144099728Y-27167500D01*
X144099725Y-27167500D01*
X144099723Y-27167500D01*
X143900277Y-27167500D01*
X143900275Y-27167500D01*
X143900271Y-27167500D01*
X143704676Y-27206406D01*
X143704670Y-27206408D01*
X143704660Y-27206411D01*
X143704655Y-27206412D01*
X143704637Y-27206419D01*
X143520413Y-27282726D01*
X143520395Y-27282736D01*
X143480216Y-27309584D01*
X143448372Y-27324818D01*
X143435375Y-27328887D01*
X143365516Y-27330131D01*
X143306075Y-27293409D01*
X143277400Y-27237986D01*
X143275571Y-27229925D01*
X143272500Y-27202497D01*
X143272500Y-24081440D01*
X143277521Y-24046512D01*
X143279173Y-24040884D01*
X143281358Y-24033442D01*
X143319128Y-23974665D01*
X143382682Y-23945636D01*
X143444699Y-23952580D01*
X143452424Y-23955540D01*
X143476940Y-23968226D01*
X143520392Y-23997261D01*
X143520407Y-23997269D01*
X143680573Y-24063611D01*
X143699054Y-24071265D01*
X143703463Y-24073351D01*
X143900271Y-24112500D01*
X144099725Y-24112500D01*
X144099726Y-24112500D01*
X144155668Y-24101372D01*
X144285094Y-24075627D01*
X144295335Y-24073590D01*
X144455464Y-24007263D01*
X144473054Y-23999976D01*
X144475838Y-23999006D01*
X144477282Y-23998338D01*
X144481950Y-23996291D01*
X144491211Y-23992455D01*
X144500095Y-23983570D01*
X144645431Y-23886460D01*
X144786460Y-23745431D01*
X144897266Y-23579599D01*
X144973590Y-23395335D01*
X144981116Y-23357500D01*
X144986322Y-23331327D01*
X144986322Y-23331324D01*
X145012500Y-23199725D01*
X145012500Y-23000274D01*
X145012500Y-23000271D01*
X144976546Y-22819527D01*
X144973591Y-22804670D01*
X144973590Y-22804669D01*
X144973350Y-22803459D01*
X144971267Y-22799054D01*
X144962424Y-22777706D01*
X144962403Y-22777659D01*
X144962382Y-22777607D01*
X144897269Y-22620407D01*
X144897262Y-22620394D01*
X144786460Y-22454569D01*
X144786457Y-22454565D01*
X144786452Y-22454559D01*
X144645439Y-22313546D01*
X144645433Y-22313541D01*
X144645432Y-22313540D01*
X144550534Y-22250131D01*
X144479605Y-22202737D01*
X144479592Y-22202730D01*
X144479585Y-22202726D01*
X144295361Y-22126419D01*
X144295347Y-22126414D01*
X144295339Y-22126411D01*
X144295329Y-22126408D01*
X144295326Y-22126407D01*
X144295322Y-22126406D01*
X144099728Y-22087500D01*
X144099725Y-22087500D01*
X144099723Y-22087500D01*
X143900277Y-22087500D01*
X143900275Y-22087500D01*
X143900271Y-22087500D01*
X143704676Y-22126406D01*
X143704670Y-22126408D01*
X143704660Y-22126411D01*
X143704655Y-22126412D01*
X143704637Y-22126419D01*
X143520413Y-22202726D01*
X143520395Y-22202736D01*
X143480216Y-22229584D01*
X143448372Y-22244818D01*
X143435375Y-22248887D01*
X143365516Y-22250131D01*
X143306075Y-22213409D01*
X143277400Y-22157986D01*
X143275571Y-22149925D01*
X143272500Y-22122497D01*
X143272500Y-21852372D01*
X143277522Y-21817439D01*
X143284934Y-21792194D01*
X143316228Y-21739452D01*
X143504374Y-21551305D01*
X143532625Y-21530157D01*
X143546351Y-21522662D01*
X143614616Y-21507814D01*
X143628198Y-21508785D01*
X143666805Y-21517908D01*
X143699052Y-21531265D01*
X143703463Y-21533351D01*
X143900271Y-21572500D01*
X144099725Y-21572500D01*
X144099726Y-21572500D01*
X144146067Y-21563281D01*
X144285094Y-21535627D01*
X144295335Y-21533590D01*
X144418970Y-21482379D01*
X144437840Y-21474563D01*
X144446854Y-21470829D01*
X144473053Y-21459977D01*
X144475843Y-21459005D01*
X144477288Y-21458336D01*
X144481945Y-21456294D01*
X144491210Y-21452456D01*
X144500095Y-21443570D01*
X144645431Y-21346460D01*
X144786460Y-21205431D01*
X144897266Y-21039599D01*
X144973590Y-20855335D01*
X144992535Y-20760092D01*
X144996921Y-20738045D01*
X144996921Y-20738044D01*
X145012500Y-20659727D01*
X145012500Y-20460271D01*
X144973351Y-20263462D01*
X144971264Y-20259049D01*
X144960309Y-20232601D01*
X144897272Y-20080413D01*
X144897267Y-20080404D01*
X144897262Y-20080394D01*
X144786460Y-19914569D01*
X144786457Y-19914565D01*
X144786452Y-19914559D01*
X144645439Y-19773546D01*
X144645433Y-19773541D01*
X144645432Y-19773540D01*
X144479611Y-19662741D01*
X144479610Y-19662740D01*
X144479605Y-19662737D01*
X144479592Y-19662730D01*
X144479585Y-19662726D01*
X144295361Y-19586419D01*
X144295347Y-19586414D01*
X144295339Y-19586411D01*
X144295329Y-19586408D01*
X144295326Y-19586407D01*
X144295322Y-19586406D01*
X144099728Y-19547500D01*
X144099725Y-19547500D01*
X144099723Y-19547500D01*
X143900277Y-19547500D01*
X143900275Y-19547500D01*
X143900271Y-19547500D01*
X143704676Y-19586406D01*
X143704670Y-19586408D01*
X143704660Y-19586411D01*
X143704655Y-19586412D01*
X143704637Y-19586419D01*
X143520413Y-19662726D01*
X143520404Y-19662731D01*
X143520387Y-19662741D01*
X143354566Y-19773540D01*
X143354565Y-19773541D01*
X143354559Y-19773546D01*
X143213546Y-19914559D01*
X143213541Y-19914565D01*
X143213540Y-19914566D01*
X143102741Y-20080387D01*
X143102731Y-20080404D01*
X143102726Y-20080413D01*
X143026419Y-20264637D01*
X143026406Y-20264676D01*
X142987500Y-20460270D01*
X142987500Y-20615356D01*
X142982237Y-20633277D01*
X143026404Y-20855314D01*
X143026406Y-20855323D01*
X143026411Y-20855339D01*
X143030729Y-20865762D01*
X143041355Y-20891417D01*
X143050083Y-20925614D01*
X143051230Y-20936288D01*
X143051754Y-20941157D01*
X143039349Y-21009909D01*
X143033254Y-21022086D01*
X143010050Y-21054265D01*
X142641531Y-21422786D01*
X142641529Y-21422787D01*
X142628107Y-21446035D01*
X142606295Y-21473772D01*
X142597269Y-21482379D01*
X142535167Y-21514398D01*
X142465614Y-21507760D01*
X142412871Y-21467539D01*
X142409545Y-21463151D01*
X142406878Y-21459631D01*
X142391144Y-21432191D01*
X142357269Y-21350407D01*
X142357262Y-21350394D01*
X142246460Y-21184569D01*
X142246457Y-21184565D01*
X142246452Y-21184559D01*
X142105439Y-21043546D01*
X142105433Y-21043541D01*
X142105432Y-21043540D01*
X141939611Y-20932741D01*
X141939610Y-20932740D01*
X141939605Y-20932737D01*
X141939592Y-20932730D01*
X141939585Y-20932726D01*
X141755361Y-20856419D01*
X141755347Y-20856414D01*
X141755339Y-20856411D01*
X141755329Y-20856408D01*
X141755326Y-20856407D01*
X141755322Y-20856406D01*
X141559728Y-20817500D01*
X141559725Y-20817500D01*
X141559723Y-20817500D01*
X141360277Y-20817500D01*
X141360275Y-20817500D01*
X141360271Y-20817500D01*
X141164676Y-20856406D01*
X141164670Y-20856408D01*
X141164660Y-20856411D01*
X141164655Y-20856412D01*
X141164637Y-20856419D01*
X140980413Y-20932726D01*
X140980392Y-20932737D01*
X140956213Y-20948894D01*
X140924373Y-20964126D01*
X140911377Y-20968195D01*
X140841519Y-20969441D01*
X140782077Y-20932721D01*
X140753400Y-20877295D01*
X140751571Y-20869234D01*
X140748500Y-20841806D01*
X140748500Y-20566373D01*
X140753522Y-20531440D01*
X140759046Y-20512627D01*
X140760934Y-20506195D01*
X140792228Y-20453453D01*
X140894258Y-20351423D01*
X140922508Y-20330275D01*
X140945600Y-20317667D01*
X141005025Y-20302500D01*
X142250796Y-20302500D01*
X142258648Y-20300117D01*
X142319740Y-20287966D01*
X142402601Y-20232601D01*
X142457966Y-20149740D01*
X142472500Y-20076674D01*
X142472500Y-18503326D01*
X142472500Y-18503323D01*
X142472500Y-18503139D01*
X142472064Y-18501134D01*
X142457972Y-18430289D01*
X142457967Y-18430266D01*
X142457966Y-18430260D01*
X142428940Y-18386819D01*
X142428940Y-18386818D01*
X142402604Y-18347402D01*
X142402600Y-18347398D01*
X142329891Y-18298816D01*
X142325826Y-18295480D01*
X142319739Y-18292033D01*
X142319735Y-18292032D01*
X142319709Y-18292026D01*
X142246680Y-18277500D01*
X142246677Y-18277500D01*
X142246674Y-18277500D01*
X140673326Y-18277500D01*
X140673323Y-18277500D01*
X140673319Y-18277500D01*
X140600285Y-18292027D01*
X140600262Y-18292032D01*
X140600258Y-18292033D01*
X140517399Y-18347399D01*
X140462033Y-18430258D01*
X140462032Y-18430266D01*
X140462028Y-18430281D01*
X140447500Y-18503318D01*
X140447500Y-19737626D01*
X140442476Y-19772563D01*
X140435064Y-19797804D01*
X140403769Y-19850548D01*
X140117534Y-20136781D01*
X140117526Y-20136793D01*
X140075552Y-20209496D01*
X140075544Y-20209510D01*
X140071393Y-20216696D01*
X140071384Y-20216713D01*
X140047500Y-20305852D01*
X140047500Y-36054147D01*
X140059919Y-36100497D01*
X140059920Y-36100497D01*
X140059920Y-36100498D01*
X140063219Y-36112809D01*
X140066083Y-36123500D01*
X140071385Y-36143285D01*
X140071387Y-36143290D01*
X140101440Y-36195344D01*
X140117527Y-36223208D01*
X140117532Y-36223214D01*
X140117538Y-36223221D01*
X140468689Y-36574371D01*
X140489841Y-36602627D01*
X140497333Y-36616348D01*
X140512184Y-36684617D01*
X140511213Y-36698196D01*
X140502092Y-36736801D01*
X140486409Y-36774664D01*
X140486405Y-36774677D01*
X140447500Y-36970269D01*
X140447500Y-37125356D01*
X140442237Y-37143277D01*
X140486404Y-37365314D01*
X140486406Y-37365323D01*
X140486411Y-37365339D01*
X140492169Y-37379238D01*
X140501355Y-37401417D01*
X140510083Y-37435614D01*
X140510850Y-37442745D01*
X140511754Y-37451157D01*
X140499349Y-37519909D01*
X140493254Y-37532086D01*
X140470050Y-37564265D01*
X139719535Y-38314780D01*
X139719531Y-38314785D01*
X139719530Y-38314786D01*
X139679335Y-38384407D01*
X139679332Y-38384413D01*
X139673386Y-38394711D01*
X139649500Y-38483856D01*
X139649500Y-39785626D01*
X139644476Y-39820563D01*
X139637064Y-39845804D01*
X139605769Y-39898548D01*
X139286788Y-40217529D01*
X139258538Y-40238678D01*
X139248611Y-40244099D01*
X139180338Y-40258953D01*
X139114873Y-40234539D01*
X139073000Y-40178607D01*
X139070313Y-40171401D01*
X139062500Y-40128081D01*
X139062500Y-21575858D01*
X139062500Y-21575856D01*
X139038614Y-21486712D01*
X139038613Y-21486711D01*
X139038613Y-21486709D01*
X139025012Y-21463153D01*
X139025011Y-21463151D01*
X139021052Y-21456294D01*
X138992472Y-21406791D01*
X138992468Y-21406786D01*
X138992466Y-21406784D01*
X138992460Y-21406777D01*
X138641309Y-21055627D01*
X138620157Y-21027371D01*
X138612665Y-21013650D01*
X138597814Y-20945381D01*
X138598719Y-20932726D01*
X138598785Y-20931800D01*
X138607909Y-20893191D01*
X138623144Y-20856411D01*
X138623590Y-20855335D01*
X138639073Y-20777497D01*
X138646921Y-20738045D01*
X138646921Y-20738044D01*
X138662500Y-20659727D01*
X138662500Y-20460271D01*
X138623351Y-20263462D01*
X138621264Y-20259049D01*
X138610309Y-20232601D01*
X138547272Y-20080413D01*
X138547267Y-20080404D01*
X138547262Y-20080394D01*
X138436460Y-19914569D01*
X138436457Y-19914565D01*
X138436452Y-19914559D01*
X138295439Y-19773546D01*
X138295433Y-19773541D01*
X138295432Y-19773540D01*
X138129611Y-19662741D01*
X138129610Y-19662740D01*
X138129605Y-19662737D01*
X138129592Y-19662730D01*
X138129585Y-19662726D01*
X137945361Y-19586419D01*
X137945347Y-19586414D01*
X137945339Y-19586411D01*
X137945329Y-19586408D01*
X137945326Y-19586407D01*
X137945322Y-19586406D01*
X137749728Y-19547500D01*
X137749725Y-19547500D01*
X137749723Y-19547500D01*
X137550277Y-19547500D01*
X137550275Y-19547500D01*
X137550271Y-19547500D01*
X137354676Y-19586406D01*
X137354670Y-19586408D01*
X137354660Y-19586411D01*
X137354655Y-19586412D01*
X137354637Y-19586419D01*
X137170413Y-19662726D01*
X137170404Y-19662731D01*
X137170387Y-19662741D01*
X137004566Y-19773540D01*
X137004565Y-19773541D01*
X137004559Y-19773546D01*
X136863546Y-19914559D01*
X136863541Y-19914565D01*
X136863540Y-19914566D01*
X136752741Y-20080387D01*
X136752731Y-20080404D01*
X136752726Y-20080413D01*
X136676419Y-20264637D01*
X136676406Y-20264676D01*
X136637500Y-20460270D01*
X136637500Y-20615356D01*
X136632237Y-20633276D01*
X136676406Y-20855322D01*
X136676407Y-20855326D01*
X136676408Y-20855329D01*
X136676411Y-20855339D01*
X136676414Y-20855347D01*
X136676419Y-20855361D01*
X136752726Y-21039585D01*
X136752731Y-21039594D01*
X136752741Y-21039611D01*
X136863540Y-21205432D01*
X136863541Y-21205433D01*
X136863546Y-21205439D01*
X137004559Y-21346452D01*
X137004565Y-21346457D01*
X137004569Y-21346460D01*
X137170394Y-21457262D01*
X137170407Y-21457269D01*
X137170409Y-21457269D01*
X137170413Y-21457272D01*
X137304912Y-21512982D01*
X137349049Y-21531264D01*
X137353462Y-21533351D01*
X137550271Y-21572500D01*
X137749725Y-21572500D01*
X137749726Y-21572500D01*
X137796067Y-21563281D01*
X137935094Y-21535627D01*
X137945335Y-21533590D01*
X137981412Y-21518645D01*
X138015608Y-21509915D01*
X138031157Y-21508244D01*
X138099910Y-21520648D01*
X138112088Y-21526744D01*
X138144264Y-21549946D01*
X138312573Y-21718255D01*
X138333723Y-21746507D01*
X138346331Y-21769596D01*
X138361500Y-21829025D01*
X138361500Y-22107867D01*
X138356475Y-22142809D01*
X138352637Y-22155877D01*
X138314859Y-22214653D01*
X138251301Y-22243674D01*
X138189283Y-22236721D01*
X138181569Y-22233765D01*
X138157061Y-22221082D01*
X138129617Y-22202745D01*
X138129616Y-22202744D01*
X138129605Y-22202737D01*
X138129592Y-22202730D01*
X138129585Y-22202726D01*
X137945361Y-22126419D01*
X137945347Y-22126414D01*
X137945339Y-22126411D01*
X137945329Y-22126408D01*
X137945326Y-22126407D01*
X137945322Y-22126406D01*
X137749728Y-22087500D01*
X137749725Y-22087500D01*
X137749723Y-22087500D01*
X137550277Y-22087500D01*
X137550275Y-22087500D01*
X137550271Y-22087500D01*
X137354676Y-22126406D01*
X137354670Y-22126408D01*
X137354660Y-22126411D01*
X137354655Y-22126412D01*
X137354637Y-22126419D01*
X137170413Y-22202726D01*
X137170404Y-22202731D01*
X137170399Y-22202734D01*
X137170394Y-22202737D01*
X137131390Y-22228799D01*
X137004566Y-22313540D01*
X137004565Y-22313541D01*
X137004559Y-22313546D01*
X136863546Y-22454559D01*
X136863541Y-22454565D01*
X136863540Y-22454566D01*
X136752741Y-22620387D01*
X136752731Y-22620404D01*
X136752726Y-22620413D01*
X136676419Y-22804637D01*
X136676406Y-22804676D01*
X136637500Y-23000270D01*
X136637500Y-23155356D01*
X136632237Y-23173276D01*
X136676406Y-23395322D01*
X136676407Y-23395326D01*
X136676408Y-23395329D01*
X136676411Y-23395339D01*
X136676414Y-23395347D01*
X136676419Y-23395361D01*
X136752726Y-23579585D01*
X136752730Y-23579592D01*
X136752735Y-23579602D01*
X136752741Y-23579611D01*
X136863535Y-23745424D01*
X136863541Y-23745433D01*
X136863546Y-23745439D01*
X137004559Y-23886452D01*
X137004565Y-23886457D01*
X137004569Y-23886460D01*
X137170394Y-23997262D01*
X137170407Y-23997269D01*
X137170409Y-23997269D01*
X137170413Y-23997272D01*
X137330573Y-24063611D01*
X137349054Y-24071265D01*
X137353463Y-24073351D01*
X137550271Y-24112500D01*
X137749725Y-24112500D01*
X137749726Y-24112500D01*
X137805668Y-24101372D01*
X137935094Y-24075627D01*
X137945335Y-24073590D01*
X138105464Y-24007263D01*
X138123054Y-23999976D01*
X138125838Y-23999006D01*
X138127282Y-23998338D01*
X138131950Y-23996291D01*
X138141207Y-23992456D01*
X138150085Y-23983577D01*
X138153783Y-23981106D01*
X138185622Y-23965873D01*
X138194516Y-23963088D01*
X138198621Y-23961803D01*
X138268479Y-23960557D01*
X138327921Y-23997277D01*
X138356594Y-24052687D01*
X138358423Y-24060744D01*
X138361500Y-24088195D01*
X138361500Y-27187867D01*
X138356475Y-27222809D01*
X138352637Y-27235877D01*
X138314859Y-27294653D01*
X138251301Y-27323674D01*
X138189283Y-27316721D01*
X138181569Y-27313765D01*
X138157061Y-27301082D01*
X138129617Y-27282745D01*
X138129616Y-27282744D01*
X138129605Y-27282737D01*
X138129592Y-27282730D01*
X138129585Y-27282726D01*
X137945361Y-27206419D01*
X137945347Y-27206414D01*
X137945339Y-27206411D01*
X137945329Y-27206408D01*
X137945326Y-27206407D01*
X137945322Y-27206406D01*
X137749728Y-27167500D01*
X137749725Y-27167500D01*
X137749723Y-27167500D01*
X137550277Y-27167500D01*
X137550275Y-27167500D01*
X137550271Y-27167500D01*
X137354676Y-27206406D01*
X137354670Y-27206408D01*
X137354660Y-27206411D01*
X137354655Y-27206412D01*
X137354637Y-27206419D01*
X137170413Y-27282726D01*
X137170404Y-27282731D01*
X137170399Y-27282734D01*
X137170394Y-27282737D01*
X137131390Y-27308799D01*
X137004566Y-27393540D01*
X137004565Y-27393541D01*
X137004559Y-27393546D01*
X136863546Y-27534559D01*
X136863541Y-27534565D01*
X136863540Y-27534566D01*
X136752741Y-27700387D01*
X136752731Y-27700404D01*
X136752726Y-27700413D01*
X136676419Y-27884637D01*
X136676406Y-27884676D01*
X136637500Y-28080270D01*
X136637500Y-28235356D01*
X136632237Y-28253277D01*
X136676404Y-28475314D01*
X136676406Y-28475323D01*
X136676411Y-28475339D01*
X136680988Y-28486388D01*
X136691355Y-28511417D01*
X136700083Y-28545614D01*
X136700923Y-28553427D01*
X136701754Y-28561157D01*
X136689349Y-28629909D01*
X136683254Y-28642086D01*
X136660050Y-28674265D01*
X136307538Y-29026777D01*
X136307527Y-29026791D01*
X136307523Y-29026796D01*
X136280934Y-29072852D01*
X136259116Y-29100596D01*
X136250088Y-29109204D01*
X136187985Y-29141219D01*
X136118432Y-29134577D01*
X136065697Y-29094361D01*
X136059704Y-29086454D01*
X136043971Y-29059015D01*
X136007269Y-28970407D01*
X136007262Y-28970394D01*
X135896460Y-28804569D01*
X135896457Y-28804565D01*
X135896452Y-28804559D01*
X135755439Y-28663546D01*
X135755433Y-28663541D01*
X135755432Y-28663540D01*
X135589611Y-28552741D01*
X135589606Y-28552738D01*
X135589605Y-28552737D01*
X135589592Y-28552730D01*
X135589585Y-28552726D01*
X135405361Y-28476419D01*
X135405347Y-28476414D01*
X135405339Y-28476411D01*
X135405329Y-28476408D01*
X135405326Y-28476407D01*
X135405322Y-28476406D01*
X135209728Y-28437500D01*
X135209725Y-28437500D01*
X135209723Y-28437500D01*
X135010277Y-28437500D01*
X135010275Y-28437500D01*
X135010271Y-28437500D01*
X134814676Y-28476406D01*
X134814670Y-28476408D01*
X134814660Y-28476411D01*
X134814655Y-28476412D01*
X134814637Y-28476419D01*
X134630413Y-28552726D01*
X134630392Y-28552737D01*
X134606213Y-28568894D01*
X134574373Y-28584126D01*
X134561377Y-28588195D01*
X134491519Y-28589441D01*
X134432077Y-28552721D01*
X134403400Y-28497295D01*
X134401571Y-28489234D01*
X134398500Y-28461806D01*
X134398500Y-27902131D01*
X134400150Y-27896510D01*
X134403521Y-27867203D01*
X134405620Y-27860053D01*
X134407358Y-27854133D01*
X134416999Y-27839130D01*
X134418185Y-27835092D01*
X134421364Y-27832336D01*
X134445128Y-27795356D01*
X134508682Y-27766327D01*
X134570699Y-27773271D01*
X134578424Y-27776231D01*
X134602943Y-27788919D01*
X134630391Y-27807260D01*
X134630399Y-27807264D01*
X134630401Y-27807266D01*
X134630403Y-27807267D01*
X134630407Y-27807269D01*
X134790573Y-27873611D01*
X134809054Y-27881265D01*
X134813463Y-27883351D01*
X135010271Y-27922500D01*
X135209725Y-27922500D01*
X135209726Y-27922500D01*
X135236044Y-27917264D01*
X135341324Y-27896322D01*
X135341325Y-27896322D01*
X135354196Y-27893761D01*
X135405335Y-27883590D01*
X135589585Y-27807272D01*
X135589592Y-27807269D01*
X135589592Y-27807268D01*
X135589599Y-27807266D01*
X135755431Y-27696460D01*
X135896460Y-27555431D01*
X136007266Y-27389599D01*
X136008964Y-27385501D01*
X136051529Y-27282737D01*
X136083590Y-27205335D01*
X136111740Y-27063818D01*
X136122500Y-27009725D01*
X136122500Y-26810274D01*
X136122500Y-26810271D01*
X136083351Y-26613462D01*
X136081264Y-26609050D01*
X136072310Y-26587434D01*
X136028479Y-26481614D01*
X136007269Y-26430407D01*
X136007262Y-26430394D01*
X135896460Y-26264569D01*
X135896457Y-26264565D01*
X135896452Y-26264559D01*
X135755439Y-26123546D01*
X135755433Y-26123541D01*
X135755432Y-26123540D01*
X135589611Y-26012741D01*
X135589606Y-26012738D01*
X135589605Y-26012737D01*
X135589592Y-26012730D01*
X135589585Y-26012726D01*
X135405361Y-25936419D01*
X135405347Y-25936414D01*
X135405339Y-25936411D01*
X135405329Y-25936408D01*
X135405326Y-25936407D01*
X135405322Y-25936406D01*
X135209728Y-25897500D01*
X135209725Y-25897500D01*
X135209723Y-25897500D01*
X135010277Y-25897500D01*
X135010275Y-25897500D01*
X135010271Y-25897500D01*
X134814676Y-25936406D01*
X134814670Y-25936408D01*
X134814660Y-25936411D01*
X134814655Y-25936412D01*
X134814637Y-25936419D01*
X134630413Y-26012726D01*
X134630392Y-26012737D01*
X134606213Y-26028894D01*
X134574373Y-26044126D01*
X134561377Y-26048195D01*
X134491519Y-26049441D01*
X134432077Y-26012721D01*
X134403400Y-25957295D01*
X134401571Y-25949234D01*
X134398500Y-25921806D01*
X134398500Y-25362131D01*
X134400145Y-25356526D01*
X134403521Y-25327203D01*
X134405101Y-25321821D01*
X134407358Y-25314133D01*
X134416999Y-25299130D01*
X134418185Y-25295092D01*
X134421364Y-25292336D01*
X134445128Y-25255356D01*
X134508682Y-25226327D01*
X134570699Y-25233271D01*
X134578424Y-25236231D01*
X134602943Y-25248919D01*
X134630391Y-25267260D01*
X134630399Y-25267264D01*
X134630401Y-25267266D01*
X134630403Y-25267267D01*
X134630407Y-25267269D01*
X134792826Y-25334544D01*
X134809063Y-25341269D01*
X134813464Y-25343351D01*
X134814669Y-25343590D01*
X134814670Y-25343591D01*
X134840364Y-25348702D01*
X135010271Y-25382500D01*
X135209725Y-25382500D01*
X135209726Y-25382500D01*
X135256067Y-25373281D01*
X135395094Y-25345627D01*
X135405335Y-25343590D01*
X135568000Y-25276212D01*
X135589592Y-25267269D01*
X135589592Y-25267268D01*
X135589599Y-25267266D01*
X135755431Y-25156460D01*
X135896460Y-25015431D01*
X136007266Y-24849599D01*
X136008532Y-24846544D01*
X136081917Y-24669372D01*
X136083078Y-24666829D01*
X136083588Y-24665339D01*
X136083590Y-24665335D01*
X136109673Y-24534210D01*
X136112404Y-24520482D01*
X136122500Y-24469727D01*
X136122500Y-24270271D01*
X136096335Y-24138738D01*
X136083591Y-24074670D01*
X136083590Y-24074669D01*
X136083590Y-24074665D01*
X136083589Y-24074662D01*
X136083350Y-24073461D01*
X136081265Y-24069052D01*
X136074128Y-24051822D01*
X136074128Y-24051821D01*
X136036719Y-23961508D01*
X136007269Y-23890407D01*
X136007262Y-23890394D01*
X135896460Y-23724569D01*
X135896457Y-23724565D01*
X135896452Y-23724559D01*
X135755439Y-23583546D01*
X135755433Y-23583541D01*
X135755432Y-23583540D01*
X135589611Y-23472741D01*
X135589610Y-23472740D01*
X135589605Y-23472737D01*
X135589592Y-23472730D01*
X135589585Y-23472726D01*
X135405361Y-23396419D01*
X135405347Y-23396414D01*
X135405339Y-23396411D01*
X135405329Y-23396408D01*
X135405326Y-23396407D01*
X135405322Y-23396406D01*
X135209728Y-23357500D01*
X135209725Y-23357500D01*
X135209723Y-23357500D01*
X135010277Y-23357500D01*
X135010275Y-23357500D01*
X135010271Y-23357500D01*
X134814676Y-23396406D01*
X134814670Y-23396408D01*
X134814660Y-23396411D01*
X134814655Y-23396412D01*
X134814637Y-23396419D01*
X134630413Y-23472726D01*
X134630392Y-23472737D01*
X134606213Y-23488894D01*
X134574373Y-23504126D01*
X134561377Y-23508195D01*
X134491519Y-23509441D01*
X134432077Y-23472721D01*
X134403400Y-23417295D01*
X134401571Y-23409234D01*
X134398500Y-23381806D01*
X134398500Y-22822131D01*
X134403521Y-22787203D01*
X134405101Y-22781821D01*
X134407358Y-22774133D01*
X134445128Y-22715356D01*
X134508682Y-22686327D01*
X134570699Y-22693271D01*
X134578424Y-22696231D01*
X134602943Y-22708919D01*
X134630391Y-22727260D01*
X134630399Y-22727264D01*
X134630401Y-22727266D01*
X134630403Y-22727267D01*
X134630407Y-22727269D01*
X134809056Y-22801267D01*
X134813487Y-22803362D01*
X134814227Y-22803505D01*
X134814970Y-22803651D01*
X135010271Y-22842500D01*
X135209725Y-22842500D01*
X135209726Y-22842500D01*
X135256067Y-22833281D01*
X135395094Y-22805627D01*
X135405335Y-22803590D01*
X135583445Y-22729815D01*
X135589592Y-22727269D01*
X135589592Y-22727268D01*
X135589599Y-22727266D01*
X135755431Y-22616460D01*
X135896460Y-22475431D01*
X136007266Y-22309599D01*
X136008964Y-22305501D01*
X136051529Y-22202737D01*
X136083590Y-22125335D01*
X136107366Y-22005806D01*
X136122500Y-21929725D01*
X136122500Y-21730271D01*
X136083350Y-21533459D01*
X136081267Y-21529054D01*
X136071434Y-21505316D01*
X136071413Y-21505269D01*
X136071392Y-21505217D01*
X136007269Y-21350407D01*
X136007262Y-21350394D01*
X135896460Y-21184569D01*
X135896457Y-21184565D01*
X135896452Y-21184559D01*
X135755439Y-21043546D01*
X135755433Y-21043541D01*
X135755432Y-21043540D01*
X135589611Y-20932741D01*
X135589610Y-20932740D01*
X135589605Y-20932737D01*
X135589592Y-20932730D01*
X135589585Y-20932726D01*
X135405361Y-20856419D01*
X135405347Y-20856414D01*
X135405339Y-20856411D01*
X135405329Y-20856408D01*
X135405326Y-20856407D01*
X135405322Y-20856406D01*
X135209728Y-20817500D01*
X135209725Y-20817500D01*
X135209723Y-20817500D01*
X135010277Y-20817500D01*
X135010275Y-20817500D01*
X135010271Y-20817500D01*
X134814676Y-20856406D01*
X134814670Y-20856408D01*
X134814660Y-20856411D01*
X134814655Y-20856412D01*
X134814637Y-20856419D01*
X134630413Y-20932726D01*
X134630392Y-20932737D01*
X134606213Y-20948894D01*
X134574373Y-20964126D01*
X134561377Y-20968195D01*
X134491519Y-20969441D01*
X134432077Y-20932721D01*
X134403400Y-20877295D01*
X134401571Y-20869234D01*
X134398500Y-20841806D01*
X134398500Y-20566373D01*
X134403522Y-20531440D01*
X134409046Y-20512627D01*
X134410934Y-20506195D01*
X134442228Y-20453453D01*
X134544258Y-20351423D01*
X134572508Y-20330275D01*
X134595600Y-20317667D01*
X134655025Y-20302500D01*
X135900796Y-20302500D01*
X135908648Y-20300117D01*
X135969740Y-20287966D01*
X136052601Y-20232601D01*
X136107966Y-20149740D01*
X136122500Y-20076674D01*
X136122500Y-18503326D01*
X136122500Y-18503323D01*
X136122500Y-18503139D01*
X136122064Y-18501134D01*
X136107972Y-18430289D01*
X136107967Y-18430266D01*
X136107966Y-18430260D01*
X136078940Y-18386819D01*
X136078940Y-18386818D01*
X136052604Y-18347402D01*
X136052600Y-18347398D01*
X135979891Y-18298816D01*
X135975826Y-18295480D01*
X135969739Y-18292033D01*
X135969735Y-18292032D01*
X135969709Y-18292026D01*
X135896680Y-18277500D01*
X135896677Y-18277500D01*
X135896674Y-18277500D01*
X134323326Y-18277500D01*
X134323323Y-18277500D01*
X134323319Y-18277500D01*
X134250285Y-18292027D01*
X134250262Y-18292032D01*
X134250258Y-18292033D01*
X134167399Y-18347399D01*
X134112033Y-18430258D01*
X134112032Y-18430266D01*
X134112028Y-18430281D01*
X134097500Y-18503318D01*
X134097500Y-19737626D01*
X134092476Y-19772563D01*
X134085064Y-19797804D01*
X134053769Y-19850548D01*
X133767534Y-20136781D01*
X133767526Y-20136793D01*
X133725552Y-20209496D01*
X133725544Y-20209510D01*
X133721393Y-20216696D01*
X133721384Y-20216713D01*
X133697500Y-20305852D01*
X133697500Y-20626501D01*
X133693384Y-20640516D01*
X133692476Y-20661439D01*
X133689289Y-20672292D01*
X133679650Y-20687289D01*
X133677815Y-20693540D01*
X133672891Y-20697806D01*
X133651514Y-20731069D01*
X133587957Y-20760092D01*
X133518864Y-20750177D01*
X133518304Y-20749921D01*
X133474129Y-20716039D01*
X133472691Y-20714298D01*
X133460938Y-20697367D01*
X133457400Y-20691240D01*
X133440513Y-20661991D01*
X133440510Y-20661988D01*
X133440509Y-20661985D01*
X133338015Y-20559491D01*
X133338013Y-20559490D01*
X133338011Y-20559488D01*
X133332964Y-20556574D01*
X133332963Y-20556573D01*
X133284242Y-20528444D01*
X133255809Y-20498625D01*
X133191918Y-20481505D01*
X133191918Y-20481504D01*
X133087220Y-20453451D01*
X133072475Y-20449500D01*
X133072474Y-20449500D01*
X132927525Y-20449500D01*
X132808081Y-20481505D01*
X132808080Y-20481504D01*
X132787510Y-20487017D01*
X132787507Y-20487018D01*
X132661992Y-20559485D01*
X132661984Y-20559490D01*
X132661979Y-20559495D01*
X132559489Y-20661986D01*
X132559486Y-20661989D01*
X132552798Y-20673575D01*
X132530984Y-20701313D01*
X132522800Y-20709116D01*
X132460700Y-20741134D01*
X132391146Y-20734495D01*
X132336224Y-20691306D01*
X132336177Y-20691240D01*
X132335820Y-20690738D01*
X132314588Y-20639430D01*
X132314216Y-20637217D01*
X132312500Y-20616661D01*
X132312500Y-20460271D01*
X132273351Y-20263462D01*
X132271264Y-20259049D01*
X132260309Y-20232601D01*
X132197272Y-20080413D01*
X132197267Y-20080404D01*
X132197262Y-20080394D01*
X132086460Y-19914569D01*
X132086457Y-19914565D01*
X132086452Y-19914559D01*
X131945436Y-19773543D01*
X131945431Y-19773540D01*
X131918366Y-19755456D01*
X131822855Y-19691637D01*
X131779599Y-19662734D01*
X131779596Y-19662732D01*
X131779545Y-19662698D01*
X131779545Y-19662697D01*
X131778558Y-19662039D01*
X131773932Y-19660386D01*
X131762558Y-19655675D01*
X131743516Y-19647786D01*
X131713163Y-19629777D01*
X131700988Y-19619965D01*
X131661144Y-19562571D01*
X131661143Y-19562570D01*
X131656843Y-19549648D01*
X131650500Y-19510496D01*
X131650500Y-19253858D01*
X131650500Y-19253856D01*
X131626614Y-19164712D01*
X131626611Y-19164706D01*
X131586744Y-19095656D01*
X131585565Y-19093035D01*
X131581456Y-19086385D01*
X131580550Y-19084869D01*
X131515212Y-19019531D01*
X129715212Y-17219530D01*
X129715211Y-17219529D01*
X129715204Y-17219524D01*
X129649425Y-17181547D01*
X129642896Y-17176537D01*
X129627682Y-17170235D01*
X129619520Y-17169161D01*
X129546144Y-17149500D01*
X129546143Y-17149500D01*
X120953856Y-17149500D01*
X120864725Y-17173382D01*
X120864708Y-17173387D01*
X120864703Y-17173389D01*
X120784791Y-17219526D01*
X120784787Y-17219530D01*
X120784777Y-17219538D01*
X120219529Y-17784787D01*
X120219528Y-17784788D01*
X120200248Y-17818186D01*
X120200244Y-17818192D01*
X120173335Y-17864794D01*
X120172902Y-17866517D01*
X120155581Y-17931163D01*
X120155580Y-17931167D01*
X120149500Y-17953855D01*
X120149500Y-19267504D01*
X120144475Y-19302445D01*
X120140564Y-19315762D01*
X120102787Y-19374538D01*
X120039242Y-19403558D01*
X120030829Y-19404768D01*
X119981085Y-19401807D01*
X119972475Y-19399500D01*
X119827525Y-19399500D01*
X119698994Y-19433939D01*
X119698993Y-19433940D01*
X119691338Y-19435991D01*
X119687510Y-19437017D01*
X119561991Y-19509485D01*
X119561984Y-19509490D01*
X119561968Y-19509505D01*
X119459505Y-19611968D01*
X119459490Y-19611984D01*
X119459485Y-19611992D01*
X119387017Y-19737509D01*
X119386989Y-19737578D01*
X119386748Y-19738511D01*
X119349500Y-19877525D01*
X119349500Y-20022475D01*
X119362316Y-20070306D01*
X119383590Y-20149701D01*
X119383595Y-20149717D01*
X119383600Y-20149735D01*
X119385232Y-20155826D01*
X119387017Y-20162488D01*
X119457635Y-20284802D01*
X119459123Y-20287568D01*
X119459353Y-20287877D01*
X119459491Y-20288015D01*
X119561985Y-20390509D01*
X119572059Y-20396325D01*
X119599802Y-20418142D01*
X119612786Y-20431759D01*
X119643548Y-20488094D01*
X119646004Y-20498217D01*
X119649500Y-20527453D01*
X119649500Y-20817504D01*
X119644475Y-20852445D01*
X119640564Y-20865762D01*
X119602787Y-20924538D01*
X119539242Y-20953558D01*
X119530829Y-20954768D01*
X119481085Y-20951807D01*
X119472475Y-20949500D01*
X119327525Y-20949500D01*
X119207365Y-20981697D01*
X119207364Y-20981696D01*
X119187515Y-20987015D01*
X119187508Y-20987018D01*
X119061992Y-21059485D01*
X119061984Y-21059490D01*
X119061968Y-21059505D01*
X118959505Y-21161968D01*
X118959490Y-21161984D01*
X118959485Y-21161992D01*
X118887017Y-21287509D01*
X118886989Y-21287578D01*
X118886748Y-21288511D01*
X118855057Y-21406786D01*
X118849500Y-21427525D01*
X118849500Y-21572475D01*
X118876540Y-21673387D01*
X118876539Y-21673387D01*
X118887016Y-21712486D01*
X118887018Y-21712491D01*
X118959485Y-21838006D01*
X118959490Y-21838014D01*
X118959505Y-21838030D01*
X119061980Y-21940505D01*
X119061984Y-21940508D01*
X119061985Y-21940509D01*
X119072057Y-21946324D01*
X119099800Y-21968140D01*
X119112786Y-21981759D01*
X119143546Y-22038087D01*
X119146003Y-22048216D01*
X119149500Y-22077451D01*
X119149500Y-29035626D01*
X119144476Y-29070563D01*
X119137064Y-29095804D01*
X119105769Y-29148548D01*
X116969534Y-31284782D01*
X116969528Y-31284789D01*
X116969526Y-31284791D01*
X116923389Y-31364703D01*
X116923387Y-31364708D01*
X116923382Y-31364725D01*
X116900477Y-31450211D01*
X116899500Y-31453856D01*
X116899500Y-35546144D01*
X116909855Y-35584790D01*
X116923384Y-35635285D01*
X116923385Y-35635286D01*
X116969526Y-35715207D01*
X116969527Y-35715208D01*
X116969532Y-35715214D01*
X116969538Y-35715221D01*
X117600573Y-36346255D01*
X117621723Y-36374507D01*
X117634331Y-36397596D01*
X117649500Y-36457025D01*
X117649500Y-50046144D01*
X117655045Y-50066839D01*
X117667872Y-50114712D01*
X117672090Y-50130452D01*
X117672096Y-50130474D01*
X117673384Y-50135284D01*
X117673384Y-50135286D01*
X117673385Y-50135287D01*
X117687092Y-50159028D01*
X117687093Y-50159031D01*
X117687094Y-50159031D01*
X117719530Y-50215212D01*
X117802882Y-50298563D01*
X117850576Y-50346257D01*
X117871725Y-50374508D01*
X117884332Y-50397597D01*
X117899500Y-50457023D01*
X117899500Y-52752784D01*
X117894476Y-52787721D01*
X117887064Y-52812962D01*
X117855769Y-52865706D01*
X117809495Y-52911979D01*
X117809490Y-52911985D01*
X117809485Y-52911992D01*
X117737017Y-53037509D01*
X117736989Y-53037578D01*
X117736748Y-53038511D01*
X117714978Y-53119761D01*
X117699500Y-53177525D01*
X117699500Y-53322475D01*
X117717591Y-53389990D01*
X117717590Y-53389990D01*
X117737016Y-53462487D01*
X117737018Y-53462491D01*
X117807635Y-53584802D01*
X117809123Y-53587568D01*
X117809353Y-53587877D01*
X117911985Y-53690509D01*
X117912674Y-53691005D01*
X117915178Y-53692353D01*
X118034069Y-53760995D01*
X118037087Y-53762869D01*
X118037514Y-53762983D01*
X118037515Y-53762984D01*
X118177525Y-53800500D01*
X118177528Y-53800500D01*
X118322472Y-53800500D01*
X118322475Y-53800500D01*
X118462485Y-53762984D01*
X118588015Y-53690509D01*
X118690509Y-53588015D01*
X118762984Y-53462485D01*
X118777796Y-53407202D01*
X118791686Y-53374766D01*
X118799824Y-53361415D01*
X118851518Y-53314422D01*
X118853166Y-53313621D01*
X118913250Y-53301317D01*
X118919183Y-53301602D01*
X118919183Y-53301601D01*
X118946702Y-53302921D01*
X118950055Y-53301463D01*
X118965480Y-53300500D01*
X119072472Y-53300500D01*
X119072475Y-53300500D01*
X119212485Y-53262984D01*
X119338015Y-53190509D01*
X119440509Y-53088015D01*
X119512984Y-52962485D01*
X119515759Y-52952126D01*
X119529653Y-52919675D01*
X119537791Y-52906323D01*
X119589487Y-52859330D01*
X119597475Y-52855449D01*
X119651645Y-52842992D01*
X119759577Y-52842992D01*
X119759580Y-52842992D01*
X119899590Y-52805476D01*
X120025120Y-52733001D01*
X120127614Y-52630507D01*
X120200089Y-52504977D01*
X120200278Y-52504270D01*
X120214174Y-52471817D01*
X120222313Y-52458464D01*
X120274015Y-52411471D01*
X120281989Y-52407598D01*
X120336164Y-52395137D01*
X120422472Y-52395137D01*
X120422475Y-52395137D01*
X120562485Y-52357621D01*
X120688015Y-52285146D01*
X120790509Y-52182652D01*
X120862984Y-52057122D01*
X120889745Y-51957247D01*
X120892043Y-51953476D01*
X120891994Y-51953462D01*
X120904905Y-51909491D01*
X120904906Y-51909492D01*
X120909927Y-51892392D01*
X120947691Y-51833626D01*
X120949068Y-51832433D01*
X121003910Y-51804978D01*
X121014560Y-51802662D01*
X121014559Y-51802660D01*
X121042509Y-51796580D01*
X121043350Y-51795911D01*
X121058046Y-51790968D01*
X121162485Y-51762984D01*
X121288015Y-51690509D01*
X121390509Y-51588015D01*
X121462984Y-51462485D01*
X121489832Y-51362285D01*
X121491918Y-51358863D01*
X121491648Y-51358784D01*
X121504560Y-51314809D01*
X121504561Y-51314810D01*
X121509927Y-51296534D01*
X121547697Y-51237763D01*
X121549072Y-51236571D01*
X121603910Y-51209120D01*
X121614560Y-51206804D01*
X121614559Y-51206802D01*
X121642509Y-51200722D01*
X121643350Y-51200053D01*
X121658046Y-51195110D01*
X121762485Y-51167126D01*
X121888015Y-51094651D01*
X121990509Y-50992157D01*
X122062984Y-50866627D01*
X122099264Y-50731228D01*
X122105634Y-50713172D01*
X122114379Y-50693402D01*
X122159494Y-50640062D01*
X122164595Y-50636698D01*
X122214493Y-50617578D01*
X122240394Y-50613696D01*
X122244115Y-50610930D01*
X122254962Y-50607482D01*
X122362485Y-50578671D01*
X122488015Y-50506196D01*
X122590509Y-50403702D01*
X122662984Y-50278172D01*
X122694749Y-50159622D01*
X122708640Y-50127183D01*
X122716775Y-50113836D01*
X122768468Y-50066841D01*
X122776467Y-50062956D01*
X122814460Y-50051555D01*
X122822470Y-50050500D01*
X122822472Y-50050500D01*
X122822475Y-50050500D01*
X122962485Y-50012984D01*
X123057892Y-49957899D01*
X123090652Y-49944783D01*
X123105849Y-49941097D01*
X123175634Y-49944421D01*
X123184017Y-49947323D01*
X123231138Y-49976820D01*
X123950573Y-50696255D01*
X123971723Y-50724507D01*
X123984331Y-50747596D01*
X123999500Y-50807025D01*
X123999500Y-60246143D01*
X124023386Y-60335287D01*
X124023387Y-60335290D01*
X124069529Y-60415211D01*
X124137069Y-60482750D01*
X124150573Y-60496254D01*
X124171723Y-60524506D01*
X124184331Y-60547595D01*
X124199500Y-60607024D01*
X124199500Y-60672475D01*
X124215627Y-60732663D01*
X124229594Y-60784786D01*
X124237017Y-60812487D01*
X124237018Y-60812490D01*
X124307635Y-60934802D01*
X124309123Y-60937568D01*
X124309353Y-60937877D01*
X124411985Y-61040509D01*
X124412674Y-61041005D01*
X124415178Y-61042353D01*
X124534069Y-61110995D01*
X124537087Y-61112869D01*
X124537514Y-61112983D01*
X124537515Y-61112984D01*
X124677525Y-61150500D01*
X124677528Y-61150500D01*
X124822472Y-61150500D01*
X124822475Y-61150500D01*
X124962485Y-61112984D01*
X125088015Y-61040509D01*
X125190509Y-60938015D01*
X125262984Y-60812485D01*
X125300500Y-60672475D01*
X125300500Y-60613373D01*
X125305521Y-60578446D01*
X125308707Y-60567593D01*
X125346477Y-60508812D01*
X125410031Y-60479783D01*
X125479186Y-60489721D01*
X125486172Y-60492911D01*
X125522342Y-60518024D01*
X125946521Y-60942203D01*
X125967671Y-60970455D01*
X125975163Y-60984175D01*
X125990016Y-61052447D01*
X125988533Y-61073190D01*
X125984624Y-61096440D01*
X125970139Y-61150499D01*
X125949500Y-61227525D01*
X125949500Y-61372474D01*
X125976234Y-61472249D01*
X125987015Y-61512484D01*
X125987018Y-61512491D01*
X126057635Y-61634802D01*
X126059123Y-61637568D01*
X126059353Y-61637877D01*
X126161985Y-61740509D01*
X126162674Y-61741005D01*
X126165178Y-61742353D01*
X126284069Y-61810995D01*
X126287087Y-61812869D01*
X126287514Y-61812983D01*
X126287515Y-61812984D01*
X126427525Y-61850500D01*
X126427528Y-61850500D01*
X126572472Y-61850500D01*
X126572475Y-61850500D01*
X126712485Y-61812984D01*
X126712485Y-61812983D01*
X126720355Y-61810875D01*
X126720392Y-61811013D01*
X126723814Y-61809895D01*
X126744309Y-61804923D01*
X126814098Y-61808244D01*
X126871005Y-61848759D01*
X126872008Y-61850034D01*
X126896308Y-61903229D01*
X126897258Y-61908157D01*
X126899500Y-61931629D01*
X126899500Y-62402784D01*
X126894476Y-62437721D01*
X126887064Y-62462962D01*
X126855769Y-62515706D01*
X126809495Y-62561979D01*
X126809490Y-62561985D01*
X126809485Y-62561992D01*
X126737017Y-62687509D01*
X126736989Y-62687578D01*
X126736748Y-62688511D01*
X126699500Y-62827525D01*
X126699500Y-62972474D01*
X126737013Y-63112477D01*
X126737017Y-63112488D01*
X126737018Y-63112489D01*
X126807635Y-63234802D01*
X126809123Y-63237568D01*
X126809353Y-63237877D01*
X126911985Y-63340509D01*
X126912674Y-63341005D01*
X126915178Y-63342353D01*
X127034069Y-63410995D01*
X127037087Y-63412869D01*
X127037514Y-63412983D01*
X127037515Y-63412984D01*
X127177525Y-63450500D01*
X127177528Y-63450500D01*
X127322472Y-63450500D01*
X127322475Y-63450500D01*
X127462485Y-63412984D01*
X127588015Y-63340509D01*
X127690509Y-63238015D01*
X127762984Y-63112485D01*
X127800500Y-62972475D01*
X127800500Y-62827525D01*
X127762984Y-62687515D01*
X127690509Y-62561985D01*
X127649426Y-62520902D01*
X127628274Y-62492646D01*
X127615667Y-62469557D01*
X127600500Y-62410132D01*
X127600500Y-60703858D01*
X127600500Y-60703856D01*
X127576614Y-60614712D01*
X127550906Y-60570185D01*
X127530472Y-60534791D01*
X127530468Y-60534786D01*
X127530463Y-60534781D01*
X127530460Y-60534777D01*
X127426779Y-60431096D01*
X127405630Y-60402846D01*
X127398978Y-60390665D01*
X127384124Y-60322393D01*
X127408537Y-60256930D01*
X127409518Y-60255618D01*
X127454618Y-60218398D01*
X127455715Y-60217866D01*
X127455714Y-60217865D01*
X127479661Y-60206240D01*
X127482716Y-60202213D01*
X127494409Y-60194552D01*
X127588015Y-60140509D01*
X127690509Y-60038015D01*
X127762984Y-59912485D01*
X127800500Y-59772475D01*
X127800500Y-59627525D01*
X127799331Y-59623163D01*
X127795141Y-59588128D01*
X127795471Y-59574248D01*
X127816744Y-59507699D01*
X127870618Y-59463214D01*
X127876038Y-59460893D01*
X127925586Y-59450883D01*
X127965073Y-59451117D01*
X127970896Y-59450500D01*
X128072472Y-59450500D01*
X128072475Y-59450500D01*
X128212485Y-59412984D01*
X128338015Y-59340509D01*
X128440509Y-59238015D01*
X128512984Y-59112485D01*
X128550500Y-58972475D01*
X128550500Y-58827525D01*
X128549331Y-58823163D01*
X128545141Y-58788128D01*
X128545471Y-58774248D01*
X128566744Y-58707699D01*
X128620618Y-58663214D01*
X128626038Y-58660893D01*
X128675586Y-58650883D01*
X128715073Y-58651117D01*
X128720896Y-58650500D01*
X128822472Y-58650500D01*
X128822475Y-58650500D01*
X128962485Y-58612984D01*
X129088015Y-58540509D01*
X129190509Y-58438015D01*
X129247200Y-58339822D01*
X129269009Y-58312088D01*
X129277199Y-58304279D01*
X129339298Y-58272263D01*
X129408852Y-58278902D01*
X129463775Y-58322090D01*
X129463822Y-58322157D01*
X129464179Y-58322659D01*
X129485405Y-58373932D01*
X129485778Y-58376147D01*
X129487500Y-58396738D01*
X129487500Y-64884142D01*
X129511382Y-64973273D01*
X129511387Y-64973290D01*
X129511389Y-64973295D01*
X129557526Y-65053207D01*
X129557527Y-65053208D01*
X129557537Y-65053220D01*
X129600573Y-65096255D01*
X129621725Y-65124510D01*
X129634332Y-65147598D01*
X129649500Y-65207025D01*
X129649500Y-66752784D01*
X129644476Y-66787721D01*
X129637064Y-66812962D01*
X129605769Y-66865706D01*
X129559495Y-66911979D01*
X129559490Y-66911985D01*
X129559485Y-66911992D01*
X129487017Y-67037509D01*
X129486989Y-67037578D01*
X129486748Y-67038511D01*
X129449500Y-67177525D01*
X129449500Y-67322475D01*
X129467078Y-67388077D01*
X129482301Y-67444889D01*
X129487016Y-67462485D01*
X129487018Y-67462490D01*
X129557635Y-67584802D01*
X129559123Y-67587568D01*
X129559353Y-67587877D01*
X129661985Y-67690509D01*
X129662674Y-67691005D01*
X129665178Y-67692353D01*
X129784069Y-67760995D01*
X129787087Y-67762869D01*
X129787514Y-67762983D01*
X129787515Y-67762984D01*
X129927525Y-67800500D01*
X129927528Y-67800500D01*
X130072472Y-67800500D01*
X130072475Y-67800500D01*
X130212485Y-67762984D01*
X130338015Y-67690509D01*
X130440509Y-67588015D01*
X130512984Y-67462485D01*
X130550500Y-67322475D01*
X130550500Y-67177525D01*
X130512984Y-67037515D01*
X130440509Y-66911985D01*
X130399426Y-66870902D01*
X130378274Y-66842646D01*
X130365667Y-66819557D01*
X130350500Y-66760132D01*
X130350500Y-64953858D01*
X130350500Y-64953856D01*
X130326614Y-64864712D01*
X130318409Y-64850500D01*
X130280470Y-64784788D01*
X130237426Y-64741744D01*
X130216274Y-64713488D01*
X130203667Y-64690399D01*
X130188500Y-64630974D01*
X130188500Y-64415881D01*
X130193522Y-64380948D01*
X130196010Y-64372475D01*
X130197433Y-64367629D01*
X130235206Y-64308852D01*
X130298758Y-64279827D01*
X130307182Y-64278616D01*
X130356916Y-64281580D01*
X130392347Y-64291073D01*
X130427525Y-64300500D01*
X130427527Y-64300500D01*
X130572472Y-64300500D01*
X130572475Y-64300500D01*
X130712485Y-64262984D01*
X130838015Y-64190509D01*
X130940509Y-64088015D01*
X131012984Y-63962485D01*
X131050500Y-63822475D01*
X131050500Y-63677525D01*
X131012984Y-63537515D01*
X130941019Y-63412869D01*
X130940511Y-63411988D01*
X130940506Y-63411982D01*
X130899426Y-63370902D01*
X130878274Y-63342646D01*
X130865667Y-63319557D01*
X130850500Y-63260132D01*
X130850500Y-49965858D01*
X130850500Y-49965856D01*
X130826614Y-49876712D01*
X130821837Y-49868437D01*
X130817249Y-49860490D01*
X130817249Y-49860491D01*
X130805996Y-49841001D01*
X130780473Y-49796791D01*
X130637426Y-49653744D01*
X130616274Y-49625488D01*
X130603667Y-49602399D01*
X130588500Y-49542974D01*
X130588500Y-49492131D01*
X130593521Y-49457203D01*
X130594847Y-49452687D01*
X130597358Y-49444133D01*
X130635128Y-49385356D01*
X130698682Y-49356327D01*
X130760699Y-49363271D01*
X130768424Y-49366231D01*
X130792943Y-49378919D01*
X130820391Y-49397260D01*
X130820399Y-49397264D01*
X130820401Y-49397266D01*
X130820403Y-49397267D01*
X130820407Y-49397269D01*
X130987681Y-49466555D01*
X130999054Y-49471265D01*
X131003463Y-49473351D01*
X131200271Y-49512500D01*
X131399725Y-49512500D01*
X131399726Y-49512500D01*
X131426044Y-49507264D01*
X131531324Y-49486322D01*
X131531325Y-49486322D01*
X131544196Y-49483761D01*
X131595335Y-49473590D01*
X131758000Y-49406212D01*
X131779592Y-49397269D01*
X131779592Y-49397268D01*
X131779599Y-49397266D01*
X131803783Y-49381107D01*
X131835617Y-49365874D01*
X131848620Y-49361802D01*
X131918477Y-49360556D01*
X131977920Y-49397275D01*
X132006594Y-49452687D01*
X132008423Y-49460744D01*
X132011500Y-49488195D01*
X132011500Y-61695555D01*
X132007274Y-61727652D01*
X131999111Y-61758113D01*
X131987165Y-61786953D01*
X131978640Y-61818773D01*
X131949500Y-61927525D01*
X131949500Y-62072474D01*
X131987013Y-62212477D01*
X131987017Y-62212488D01*
X131987018Y-62212489D01*
X132057635Y-62334802D01*
X132059123Y-62337568D01*
X132059353Y-62337877D01*
X132161985Y-62440509D01*
X132162674Y-62441005D01*
X132165178Y-62442353D01*
X132284069Y-62510995D01*
X132287087Y-62512869D01*
X132287514Y-62512983D01*
X132287515Y-62512984D01*
X132427525Y-62550500D01*
X132427528Y-62550500D01*
X132572472Y-62550500D01*
X132572475Y-62550500D01*
X132712485Y-62512984D01*
X132838015Y-62440509D01*
X132940509Y-62338015D01*
X133012984Y-62212485D01*
X133050500Y-62072475D01*
X133050500Y-61927525D01*
X133012984Y-61787515D01*
X132985843Y-61740506D01*
X132940511Y-61661988D01*
X132940506Y-61661982D01*
X132838017Y-61559493D01*
X132838015Y-61559491D01*
X132838012Y-61559489D01*
X132838011Y-61559488D01*
X132822970Y-61550803D01*
X132822967Y-61550803D01*
X132789935Y-61531731D01*
X132762197Y-61509916D01*
X132749207Y-61496293D01*
X132718449Y-61439957D01*
X132715994Y-61429835D01*
X132712500Y-61400607D01*
X132712500Y-58172312D01*
X132717522Y-58137379D01*
X132721433Y-58124060D01*
X132759206Y-58065283D01*
X132822758Y-58036258D01*
X132831182Y-58035047D01*
X132880915Y-58038011D01*
X132887716Y-58039833D01*
X132927525Y-58050500D01*
X132927527Y-58050500D01*
X133072472Y-58050500D01*
X133072475Y-58050500D01*
X133212485Y-58012984D01*
X133338015Y-57940509D01*
X133440509Y-57838015D01*
X133512984Y-57712485D01*
X133550500Y-57572475D01*
X133550500Y-57427525D01*
X133512984Y-57287515D01*
X133512982Y-57287511D01*
X133492442Y-57251935D01*
X133479329Y-57219180D01*
X133476055Y-57205685D01*
X133479378Y-57135898D01*
X133519901Y-57078987D01*
X133521192Y-57077972D01*
X133574389Y-57053685D01*
X133579318Y-57052735D01*
X133602756Y-57050500D01*
X133672472Y-57050500D01*
X133672475Y-57050500D01*
X133812485Y-57012984D01*
X133938015Y-56940509D01*
X134040509Y-56838015D01*
X134112984Y-56712485D01*
X134150500Y-56572475D01*
X134150500Y-56427525D01*
X134112984Y-56287515D01*
X134069665Y-56212485D01*
X134040511Y-56161988D01*
X134040506Y-56161982D01*
X134040493Y-56161968D01*
X133999426Y-56120902D01*
X133978272Y-56092643D01*
X133965666Y-56069555D01*
X133950500Y-56010132D01*
X133950500Y-47717728D01*
X133955521Y-47682801D01*
X133958055Y-47674169D01*
X133995825Y-47615388D01*
X134059379Y-47586359D01*
X134128538Y-47596298D01*
X134177614Y-47636572D01*
X134180610Y-47640727D01*
X134194589Y-47665794D01*
X134200498Y-47680058D01*
X134200498Y-47680062D01*
X134200500Y-47680062D01*
X134200500Y-47680063D01*
X134212735Y-47709601D01*
X134212737Y-47709605D01*
X134323540Y-47875432D01*
X134323541Y-47875433D01*
X134323546Y-47875439D01*
X134464559Y-48016452D01*
X134464565Y-48016457D01*
X134464569Y-48016460D01*
X134630394Y-48127262D01*
X134630407Y-48127269D01*
X134630409Y-48127269D01*
X134630413Y-48127272D01*
X134790573Y-48193611D01*
X134809054Y-48201265D01*
X134813463Y-48203351D01*
X135010271Y-48242500D01*
X135209725Y-48242500D01*
X135209726Y-48242500D01*
X135258504Y-48232797D01*
X135383825Y-48207868D01*
X135419057Y-48205979D01*
X135432889Y-48207216D01*
X135497906Y-48232797D01*
X135538772Y-48289466D01*
X135542435Y-48299848D01*
X135549500Y-48341105D01*
X135549500Y-55629736D01*
X135545274Y-55661833D01*
X135537110Y-55692298D01*
X135524723Y-55722200D01*
X135487534Y-55786614D01*
X135487045Y-55787444D01*
X135487014Y-55787517D01*
X135468258Y-55857519D01*
X135449500Y-55927525D01*
X135449500Y-56072474D01*
X135487013Y-56212477D01*
X135487017Y-56212489D01*
X135557635Y-56334802D01*
X135559123Y-56337568D01*
X135559353Y-56337877D01*
X135661985Y-56440509D01*
X135662674Y-56441005D01*
X135665178Y-56442353D01*
X135784069Y-56510995D01*
X135787087Y-56512869D01*
X135787514Y-56512983D01*
X135787515Y-56512984D01*
X135927525Y-56550500D01*
X135927528Y-56550500D01*
X136072472Y-56550500D01*
X136072475Y-56550500D01*
X136212485Y-56512984D01*
X136338015Y-56440509D01*
X136440509Y-56338015D01*
X136512984Y-56212485D01*
X136550500Y-56072475D01*
X136550500Y-55927525D01*
X136517207Y-55803274D01*
X136516133Y-55795120D01*
X136516095Y-55795027D01*
X136515229Y-55792477D01*
X136513806Y-55789331D01*
X136512217Y-55785664D01*
X136509831Y-55779905D01*
X136504819Y-55773373D01*
X136491713Y-55750673D01*
X136478599Y-55717915D01*
X136475325Y-55704420D01*
X136478650Y-55634631D01*
X136519172Y-55577723D01*
X136523807Y-55574079D01*
X136569078Y-55551586D01*
X136610340Y-55540793D01*
X136614103Y-55539345D01*
X136712485Y-55512984D01*
X136838015Y-55440509D01*
X136940509Y-55338015D01*
X137012984Y-55212485D01*
X137050500Y-55072475D01*
X137050500Y-54927525D01*
X137012984Y-54787515D01*
X136963275Y-54701417D01*
X136950888Y-54671510D01*
X136942725Y-54641044D01*
X136938500Y-54608952D01*
X136938500Y-49492131D01*
X136943521Y-49457203D01*
X136944847Y-49452687D01*
X136947358Y-49444133D01*
X136985128Y-49385356D01*
X137048682Y-49356327D01*
X137110699Y-49363271D01*
X137118424Y-49366231D01*
X137142941Y-49378918D01*
X137170393Y-49397261D01*
X137170395Y-49397262D01*
X137170401Y-49397266D01*
X137206485Y-49412212D01*
X137236830Y-49430217D01*
X137249005Y-49440027D01*
X137288853Y-49497418D01*
X137293154Y-49510340D01*
X137299500Y-49549500D01*
X137299500Y-63802784D01*
X137294476Y-63837721D01*
X137287064Y-63862962D01*
X137255769Y-63915706D01*
X137209495Y-63961979D01*
X137209490Y-63961985D01*
X137209485Y-63961992D01*
X137137017Y-64087509D01*
X137136989Y-64087578D01*
X137136748Y-64088511D01*
X137109418Y-64190511D01*
X137099500Y-64227525D01*
X137099500Y-64372475D01*
X137106353Y-64398052D01*
X137137013Y-64512477D01*
X137137017Y-64512488D01*
X137137018Y-64512489D01*
X137207635Y-64634802D01*
X137209123Y-64637568D01*
X137209353Y-64637877D01*
X137311985Y-64740509D01*
X137312674Y-64741005D01*
X137315178Y-64742353D01*
X137434069Y-64810995D01*
X137437087Y-64812869D01*
X137437514Y-64812983D01*
X137437515Y-64812984D01*
X137577525Y-64850500D01*
X137577528Y-64850500D01*
X137722472Y-64850500D01*
X137722475Y-64850500D01*
X137862485Y-64812984D01*
X137988015Y-64740509D01*
X138090509Y-64638015D01*
X138162984Y-64512485D01*
X138200500Y-64372475D01*
X138200500Y-64227525D01*
X138162984Y-64087515D01*
X138090799Y-63962488D01*
X138090511Y-63961988D01*
X138090506Y-63961982D01*
X138090503Y-63961979D01*
X138090493Y-63961968D01*
X138049426Y-63920902D01*
X138028272Y-63892643D01*
X138025547Y-63887653D01*
X138024238Y-63885254D01*
X138015666Y-63869555D01*
X138000500Y-63810132D01*
X138000500Y-49551423D01*
X138005523Y-49516487D01*
X138009927Y-49501489D01*
X138047697Y-49442716D01*
X138051927Y-49439050D01*
X138057989Y-49433796D01*
X138091740Y-49412946D01*
X138129599Y-49397266D01*
X138295431Y-49286460D01*
X138361500Y-49220391D01*
X138425213Y-49156679D01*
X138453459Y-49135532D01*
X138463391Y-49130109D01*
X138531660Y-49115256D01*
X138597125Y-49139670D01*
X138638999Y-49195602D01*
X138639001Y-49195606D01*
X138641682Y-49202794D01*
X138649500Y-49246128D01*
X138649500Y-74370500D01*
X138629815Y-74437539D01*
X138577011Y-74483294D01*
X138525500Y-74494500D01*
X124624500Y-74494500D01*
X124557461Y-74474815D01*
X124511706Y-74422011D01*
X124500500Y-74370500D01*
X124500500Y-72934110D01*
X124500500Y-72934108D01*
X124466392Y-72806814D01*
X124400500Y-72692686D01*
X124307314Y-72599500D01*
X116549426Y-64841612D01*
X116528274Y-64813356D01*
X116515667Y-64790267D01*
X116500500Y-64730842D01*
X116500500Y-19776505D01*
X116505522Y-19741572D01*
X116506695Y-19737578D01*
X116512934Y-19716327D01*
X116544228Y-19663585D01*
X120658390Y-15549423D01*
X120686640Y-15528275D01*
X120709732Y-15515667D01*
X120769157Y-15500500D01*
X144223494Y-15500500D01*
X144258426Y-15505521D01*
G37*
%TD.AperFunction*%
%TA.AperFunction,Conductor*%
G36*
X128029186Y-47945931D02*
G01*
X128036172Y-47949121D01*
X128072343Y-47974235D01*
X128114560Y-48016453D01*
X128114565Y-48016457D01*
X128114569Y-48016460D01*
X128280394Y-48127262D01*
X128280407Y-48127269D01*
X128280409Y-48127269D01*
X128280413Y-48127272D01*
X128440573Y-48193611D01*
X128459054Y-48201265D01*
X128463463Y-48203351D01*
X128660271Y-48242500D01*
X128859725Y-48242500D01*
X128859727Y-48242500D01*
X129020003Y-48210618D01*
X129055335Y-48203590D01*
X129235575Y-48128932D01*
X129239190Y-48127583D01*
X129239476Y-48127454D01*
X129241244Y-48126342D01*
X129243984Y-48124336D01*
X129279793Y-48100409D01*
X129311622Y-48085182D01*
X129320516Y-48082397D01*
X129324621Y-48081112D01*
X129394479Y-48079866D01*
X129453921Y-48116586D01*
X129482594Y-48171996D01*
X129484423Y-48180053D01*
X129487500Y-48207504D01*
X129487500Y-57795783D01*
X129482476Y-57830721D01*
X129479289Y-57841574D01*
X129441514Y-57900351D01*
X129377957Y-57929374D01*
X129308849Y-57919452D01*
X129308288Y-57919195D01*
X129264139Y-57885335D01*
X129262703Y-57883595D01*
X129250940Y-57866654D01*
X129234405Y-57838015D01*
X129190509Y-57761985D01*
X129088015Y-57659491D01*
X129087877Y-57659353D01*
X129087568Y-57659123D01*
X129084802Y-57657635D01*
X129034243Y-57628445D01*
X129005808Y-57598624D01*
X128951007Y-57583939D01*
X128951007Y-57583940D01*
X128886740Y-57566720D01*
X128822475Y-57549500D01*
X128822474Y-57549500D01*
X128764374Y-57549500D01*
X128729438Y-57544477D01*
X128704196Y-57537065D01*
X128651451Y-57505769D01*
X127899426Y-56753744D01*
X127878274Y-56725488D01*
X127865667Y-56702399D01*
X127850500Y-56642974D01*
X127850500Y-48069583D01*
X127855521Y-48034656D01*
X127858707Y-48023803D01*
X127896477Y-47965022D01*
X127960031Y-47935993D01*
X128029186Y-47945931D01*
G37*
%TD.AperFunction*%
%TA.AperFunction,Conductor*%
G36*
X127290558Y-18355521D02*
G01*
X127315802Y-18362934D01*
X127368548Y-18394230D01*
X127698573Y-18724255D01*
X127719723Y-18752507D01*
X127732331Y-18775596D01*
X127747500Y-18835025D01*
X127747500Y-20076678D01*
X127747500Y-20076680D01*
X127747499Y-20076680D01*
X127762028Y-20149717D01*
X127762032Y-20149735D01*
X127762033Y-20149739D01*
X127765480Y-20155826D01*
X127768816Y-20159891D01*
X127817399Y-20232601D01*
X127900256Y-20287964D01*
X127900258Y-20287965D01*
X127900259Y-20287965D01*
X127900260Y-20287966D01*
X127900264Y-20287967D01*
X127900279Y-20287970D01*
X127900288Y-20287972D01*
X127945021Y-20296869D01*
X127965681Y-20300979D01*
X127968415Y-20301703D01*
X127973323Y-20302500D01*
X129546676Y-20302500D01*
X129550796Y-20302500D01*
X129558648Y-20300117D01*
X129619740Y-20287966D01*
X129702601Y-20232601D01*
X129757966Y-20149740D01*
X129772500Y-20076674D01*
X129772500Y-18585372D01*
X129777521Y-18550445D01*
X129780707Y-18539592D01*
X129818477Y-18480811D01*
X129882031Y-18451782D01*
X129951186Y-18461720D01*
X129958172Y-18464910D01*
X129994342Y-18490023D01*
X130900573Y-19396254D01*
X130921723Y-19424506D01*
X130934331Y-19447595D01*
X130949500Y-19507024D01*
X130949500Y-19508574D01*
X130944475Y-19543518D01*
X130940070Y-19558516D01*
X130902297Y-19617285D01*
X130892005Y-19626203D01*
X130858259Y-19647050D01*
X130826032Y-19660400D01*
X130821427Y-19662047D01*
X130654562Y-19773544D01*
X130654559Y-19773546D01*
X130513546Y-19914559D01*
X130513541Y-19914565D01*
X130513540Y-19914566D01*
X130402741Y-20080387D01*
X130402731Y-20080404D01*
X130402726Y-20080413D01*
X130326419Y-20264637D01*
X130326406Y-20264676D01*
X130287500Y-20460270D01*
X130287500Y-20615356D01*
X130282237Y-20633276D01*
X130326406Y-20855322D01*
X130326407Y-20855326D01*
X130326408Y-20855329D01*
X130326411Y-20855339D01*
X130326414Y-20855347D01*
X130326419Y-20855361D01*
X130402726Y-21039585D01*
X130402731Y-21039594D01*
X130402741Y-21039611D01*
X130513540Y-21205432D01*
X130513541Y-21205433D01*
X130513546Y-21205439D01*
X130654559Y-21346452D01*
X130654565Y-21346457D01*
X130654569Y-21346460D01*
X130792412Y-21438564D01*
X130818666Y-21462148D01*
X130825921Y-21470829D01*
X130853804Y-21534893D01*
X130842625Y-21603863D01*
X130795937Y-21655837D01*
X130786627Y-21661588D01*
X130773218Y-21667378D01*
X130759460Y-21675322D01*
X130759459Y-21675323D01*
X130682909Y-21719519D01*
X130682891Y-21719531D01*
X129719534Y-22682887D01*
X129719525Y-22682898D01*
X129719524Y-22682900D01*
X129681076Y-22749497D01*
X129681073Y-22749501D01*
X129673388Y-22762810D01*
X129673385Y-22762816D01*
X129649500Y-22851961D01*
X129649500Y-23510416D01*
X129644476Y-23545354D01*
X129641289Y-23556207D01*
X129603514Y-23614984D01*
X129539957Y-23644007D01*
X129470807Y-23634066D01*
X129463829Y-23630879D01*
X129427658Y-23605766D01*
X129405434Y-23583542D01*
X129405433Y-23583541D01*
X129405432Y-23583540D01*
X129239611Y-23472741D01*
X129239610Y-23472740D01*
X129239605Y-23472737D01*
X129239592Y-23472730D01*
X129239585Y-23472726D01*
X129055361Y-23396419D01*
X129055347Y-23396414D01*
X129055339Y-23396411D01*
X129055329Y-23396408D01*
X129055326Y-23396407D01*
X129055322Y-23396406D01*
X128859728Y-23357500D01*
X128859725Y-23357500D01*
X128859723Y-23357500D01*
X128660277Y-23357500D01*
X128660275Y-23357500D01*
X128660271Y-23357500D01*
X128464676Y-23396406D01*
X128464670Y-23396408D01*
X128464660Y-23396411D01*
X128464655Y-23396412D01*
X128464637Y-23396419D01*
X128280413Y-23472726D01*
X128280404Y-23472731D01*
X128280387Y-23472741D01*
X128114566Y-23583540D01*
X128114565Y-23583541D01*
X128114559Y-23583546D01*
X127973546Y-23724559D01*
X127973541Y-23724565D01*
X127973540Y-23724566D01*
X127862741Y-23890387D01*
X127862731Y-23890404D01*
X127862726Y-23890413D01*
X127786419Y-24074637D01*
X127786406Y-24074676D01*
X127747500Y-24270270D01*
X127747500Y-24425356D01*
X127742237Y-24443276D01*
X127786406Y-24665322D01*
X127786407Y-24665326D01*
X127786408Y-24665329D01*
X127786411Y-24665339D01*
X127786414Y-24665347D01*
X127786419Y-24665361D01*
X127862726Y-24849585D01*
X127862730Y-24849592D01*
X127862734Y-24849600D01*
X127862741Y-24849611D01*
X127973540Y-25015432D01*
X127973541Y-25015433D01*
X127973546Y-25015439D01*
X128114559Y-25156452D01*
X128114565Y-25156457D01*
X128114569Y-25156460D01*
X128280394Y-25267262D01*
X128280407Y-25267269D01*
X128442826Y-25334544D01*
X128459063Y-25341269D01*
X128463464Y-25343351D01*
X128464669Y-25343590D01*
X128464670Y-25343591D01*
X128490364Y-25348702D01*
X128660271Y-25382500D01*
X128859725Y-25382500D01*
X128859726Y-25382500D01*
X128906067Y-25373281D01*
X129045094Y-25345627D01*
X129055335Y-25343590D01*
X129218000Y-25276212D01*
X129239592Y-25267269D01*
X129239592Y-25267268D01*
X129239599Y-25267266D01*
X129405431Y-25156460D01*
X129546460Y-25015431D01*
X129657266Y-24849599D01*
X129658532Y-24846544D01*
X129731917Y-24669372D01*
X129733078Y-24666829D01*
X129733588Y-24665339D01*
X129733590Y-24665335D01*
X129759673Y-24534210D01*
X129762404Y-24520482D01*
X129772500Y-24469727D01*
X129772500Y-24270271D01*
X129730003Y-24056630D01*
X129730577Y-24056515D01*
X129725759Y-24040886D01*
X129725052Y-24034306D01*
X129737456Y-23965549D01*
X129785066Y-23914411D01*
X129852765Y-23897131D01*
X129913503Y-23915554D01*
X129917863Y-23918247D01*
X129940382Y-23936064D01*
X130274593Y-24270274D01*
X130446866Y-24442547D01*
X130448392Y-24443459D01*
X130455036Y-24447566D01*
X130457651Y-24448741D01*
X130525935Y-24488166D01*
X130526683Y-24488606D01*
X130526711Y-24488613D01*
X130526712Y-24488614D01*
X130615856Y-24512500D01*
X131171626Y-24512500D01*
X131206558Y-24517521D01*
X131231802Y-24524934D01*
X131284548Y-24556230D01*
X131962573Y-25234255D01*
X131983723Y-25262507D01*
X131996331Y-25285596D01*
X132011500Y-25345025D01*
X132011500Y-27187867D01*
X132006475Y-27222809D01*
X132002637Y-27235877D01*
X131964859Y-27294653D01*
X131901301Y-27323674D01*
X131839283Y-27316721D01*
X131831569Y-27313765D01*
X131807061Y-27301082D01*
X131779617Y-27282745D01*
X131779616Y-27282744D01*
X131779605Y-27282737D01*
X131779592Y-27282730D01*
X131779585Y-27282726D01*
X131595361Y-27206419D01*
X131595347Y-27206414D01*
X131595339Y-27206411D01*
X131595329Y-27206408D01*
X131595326Y-27206407D01*
X131595322Y-27206406D01*
X131399728Y-27167500D01*
X131399725Y-27167500D01*
X131399723Y-27167500D01*
X131200277Y-27167500D01*
X131200275Y-27167500D01*
X131200271Y-27167500D01*
X131004676Y-27206406D01*
X131004670Y-27206408D01*
X131004660Y-27206411D01*
X131004655Y-27206412D01*
X131004637Y-27206419D01*
X130820413Y-27282726D01*
X130820404Y-27282731D01*
X130820399Y-27282734D01*
X130820394Y-27282737D01*
X130781390Y-27308799D01*
X130654566Y-27393540D01*
X130654565Y-27393541D01*
X130654559Y-27393546D01*
X130513546Y-27534559D01*
X130513541Y-27534565D01*
X130513540Y-27534566D01*
X130402741Y-27700387D01*
X130402731Y-27700404D01*
X130402726Y-27700413D01*
X130326414Y-27884650D01*
X130326411Y-27884659D01*
X130326411Y-27884660D01*
X130326408Y-27884669D01*
X130319529Y-27919254D01*
X130307784Y-27952544D01*
X130302541Y-27962566D01*
X130254023Y-28012843D01*
X130186025Y-28028908D01*
X130120139Y-28005660D01*
X130115763Y-28002505D01*
X130080921Y-27963941D01*
X130035153Y-27884669D01*
X130035151Y-27884667D01*
X130034940Y-27884302D01*
X130022831Y-27863327D01*
X130010511Y-27841988D01*
X130010507Y-27841983D01*
X129907877Y-27739353D01*
X129907568Y-27739123D01*
X129904802Y-27737635D01*
X129854242Y-27708444D01*
X129834863Y-27694617D01*
X129812322Y-27675011D01*
X129767001Y-27662867D01*
X129703427Y-27645832D01*
X129670981Y-27631937D01*
X129659133Y-27624715D01*
X129612136Y-27573014D01*
X129600550Y-27504115D01*
X129601342Y-27497493D01*
X129621362Y-27443333D01*
X129628377Y-27432834D01*
X129654320Y-27394008D01*
X129656337Y-27391252D01*
X129657451Y-27389480D01*
X129657793Y-27388724D01*
X129659008Y-27385527D01*
X129658961Y-27385508D01*
X129667848Y-27364053D01*
X129701529Y-27282737D01*
X129733590Y-27205335D01*
X129761740Y-27063818D01*
X129772500Y-27009725D01*
X129772500Y-26810274D01*
X129772500Y-26810271D01*
X129733351Y-26613462D01*
X129731264Y-26609050D01*
X129722310Y-26587434D01*
X129678479Y-26481614D01*
X129657269Y-26430407D01*
X129657262Y-26430394D01*
X129546460Y-26264569D01*
X129546457Y-26264565D01*
X129546452Y-26264559D01*
X129405439Y-26123546D01*
X129405433Y-26123541D01*
X129405432Y-26123540D01*
X129239611Y-26012741D01*
X129239606Y-26012738D01*
X129239605Y-26012737D01*
X129239592Y-26012730D01*
X129239585Y-26012726D01*
X129055361Y-25936419D01*
X129055347Y-25936414D01*
X129055339Y-25936411D01*
X129055329Y-25936408D01*
X129055326Y-25936407D01*
X129055322Y-25936406D01*
X128859728Y-25897500D01*
X128859725Y-25897500D01*
X128859723Y-25897500D01*
X128660277Y-25897500D01*
X128660275Y-25897500D01*
X128660271Y-25897500D01*
X128464676Y-25936406D01*
X128464670Y-25936408D01*
X128464660Y-25936411D01*
X128464655Y-25936412D01*
X128464637Y-25936419D01*
X128280413Y-26012726D01*
X128280404Y-26012731D01*
X128280387Y-26012741D01*
X128114566Y-26123540D01*
X128114565Y-26123541D01*
X128114559Y-26123546D01*
X127973546Y-26264559D01*
X127973541Y-26264565D01*
X127973540Y-26264566D01*
X127862741Y-26430387D01*
X127862731Y-26430404D01*
X127862726Y-26430413D01*
X127786419Y-26614637D01*
X127786406Y-26614676D01*
X127747500Y-26810270D01*
X127747500Y-26965356D01*
X127742237Y-26983276D01*
X127786406Y-27205322D01*
X127786407Y-27205326D01*
X127786408Y-27205329D01*
X127786411Y-27205339D01*
X127786414Y-27205347D01*
X127786419Y-27205361D01*
X127862726Y-27389585D01*
X127862730Y-27389592D01*
X127862737Y-27389605D01*
X127862740Y-27389610D01*
X127862741Y-27389611D01*
X127973540Y-27555432D01*
X127973541Y-27555433D01*
X127973546Y-27555439D01*
X128114559Y-27696452D01*
X128114565Y-27696457D01*
X128114569Y-27696460D01*
X128280394Y-27807262D01*
X128280407Y-27807269D01*
X128280409Y-27807269D01*
X128280413Y-27807272D01*
X128440573Y-27873611D01*
X128459054Y-27881265D01*
X128463463Y-27883351D01*
X128660271Y-27922500D01*
X128660274Y-27922500D01*
X128660277Y-27922500D01*
X128859721Y-27922500D01*
X128859723Y-27922500D01*
X128867797Y-27920893D01*
X128903045Y-27919004D01*
X128916867Y-27920241D01*
X128981885Y-27945823D01*
X129022741Y-28002465D01*
X129023569Y-28004810D01*
X129023866Y-28005653D01*
X129023994Y-28006014D01*
X129030389Y-28060245D01*
X129030263Y-28061445D01*
X129026717Y-28080585D01*
X129019500Y-28107521D01*
X129019500Y-28252475D01*
X129024639Y-28271656D01*
X129028828Y-28306695D01*
X129028498Y-28320569D01*
X129007225Y-28387121D01*
X128953359Y-28431602D01*
X128949897Y-28433085D01*
X128896212Y-28443007D01*
X128895219Y-28442969D01*
X128895012Y-28442961D01*
X128875687Y-28440674D01*
X128859729Y-28437500D01*
X128859723Y-28437500D01*
X128660277Y-28437500D01*
X128660275Y-28437500D01*
X128660271Y-28437500D01*
X128464676Y-28476406D01*
X128464670Y-28476408D01*
X128464660Y-28476411D01*
X128464655Y-28476412D01*
X128464637Y-28476419D01*
X128280413Y-28552726D01*
X128280404Y-28552731D01*
X128280387Y-28552741D01*
X128114566Y-28663540D01*
X128114565Y-28663541D01*
X128114559Y-28663546D01*
X127973546Y-28804559D01*
X127973541Y-28804565D01*
X127973540Y-28804566D01*
X127862741Y-28970387D01*
X127862731Y-28970404D01*
X127862726Y-28970413D01*
X127786419Y-29154637D01*
X127786406Y-29154676D01*
X127747500Y-29350270D01*
X127747500Y-29549726D01*
X127756669Y-29595819D01*
X127758559Y-29631063D01*
X127757322Y-29644888D01*
X127731741Y-29709906D01*
X127675069Y-29750773D01*
X127664686Y-29754436D01*
X127623432Y-29761500D01*
X127502525Y-29761500D01*
X127373994Y-29795939D01*
X127373993Y-29795940D01*
X127366338Y-29797991D01*
X127362510Y-29799017D01*
X127236991Y-29871485D01*
X127236984Y-29871490D01*
X127236968Y-29871505D01*
X127134497Y-29973976D01*
X127134493Y-29973981D01*
X127090801Y-30049658D01*
X127068978Y-30077404D01*
X127063471Y-30082655D01*
X127060791Y-30085211D01*
X126998685Y-30117221D01*
X126929133Y-30110574D01*
X126874244Y-30067419D01*
X126873886Y-30066916D01*
X126852582Y-30015479D01*
X126852210Y-30013262D01*
X126850500Y-29992742D01*
X126850500Y-24603858D01*
X126850500Y-24603856D01*
X126826614Y-24514712D01*
X126825351Y-24512525D01*
X126825343Y-24512494D01*
X126825336Y-24512499D01*
X126821175Y-24505291D01*
X126821174Y-24505290D01*
X126819315Y-24502069D01*
X126819304Y-24502052D01*
X126811543Y-24488608D01*
X126811543Y-24488607D01*
X126780472Y-24434791D01*
X126780468Y-24434786D01*
X125941309Y-23595627D01*
X125920157Y-23567371D01*
X125912665Y-23553650D01*
X125897814Y-23485381D01*
X125898785Y-23471800D01*
X125907907Y-23433195D01*
X125923590Y-23395335D01*
X125931116Y-23357500D01*
X125936322Y-23331327D01*
X125936322Y-23331324D01*
X125962500Y-23199725D01*
X125962500Y-23000274D01*
X125962500Y-23000271D01*
X125926546Y-22819527D01*
X125923591Y-22804670D01*
X125923590Y-22804669D01*
X125923350Y-22803459D01*
X125921267Y-22799054D01*
X125912424Y-22777706D01*
X125912403Y-22777659D01*
X125912382Y-22777607D01*
X125847269Y-22620407D01*
X125847262Y-22620394D01*
X125736460Y-22454569D01*
X125736457Y-22454565D01*
X125736452Y-22454559D01*
X125595439Y-22313546D01*
X125595433Y-22313541D01*
X125595432Y-22313540D01*
X125500534Y-22250131D01*
X125429605Y-22202737D01*
X125429592Y-22202730D01*
X125429585Y-22202726D01*
X125245361Y-22126419D01*
X125245347Y-22126414D01*
X125245339Y-22126411D01*
X125245329Y-22126408D01*
X125245326Y-22126407D01*
X125245322Y-22126406D01*
X125049728Y-22087500D01*
X125049725Y-22087500D01*
X125049723Y-22087500D01*
X124850277Y-22087500D01*
X124850275Y-22087500D01*
X124850271Y-22087500D01*
X124654676Y-22126406D01*
X124654670Y-22126408D01*
X124654660Y-22126411D01*
X124654655Y-22126412D01*
X124654637Y-22126419D01*
X124470413Y-22202726D01*
X124470404Y-22202731D01*
X124470399Y-22202734D01*
X124470394Y-22202737D01*
X124431390Y-22228799D01*
X124304566Y-22313540D01*
X124304565Y-22313541D01*
X124304559Y-22313546D01*
X124163543Y-22454562D01*
X124052742Y-22620386D01*
X124052729Y-22620408D01*
X124026111Y-22684671D01*
X124008100Y-22715026D01*
X123999394Y-22725829D01*
X123942001Y-22765676D01*
X123872181Y-22768169D01*
X123867102Y-22766873D01*
X123810089Y-22734407D01*
X123401309Y-22325627D01*
X123380157Y-22297371D01*
X123372665Y-22283650D01*
X123357814Y-22215381D01*
X123358718Y-22202736D01*
X123358785Y-22201800D01*
X123367909Y-22163191D01*
X123370939Y-22155877D01*
X123383590Y-22125335D01*
X123396064Y-22062627D01*
X123422500Y-21929725D01*
X123422500Y-21903276D01*
X127742237Y-21903276D01*
X127786406Y-22125322D01*
X127786407Y-22125326D01*
X127786408Y-22125329D01*
X127786411Y-22125339D01*
X127786414Y-22125347D01*
X127786419Y-22125361D01*
X127862726Y-22309585D01*
X127862731Y-22309594D01*
X127862741Y-22309611D01*
X127973540Y-22475432D01*
X127973541Y-22475433D01*
X127973546Y-22475439D01*
X128114559Y-22616452D01*
X128114565Y-22616457D01*
X128114569Y-22616460D01*
X128280394Y-22727262D01*
X128280407Y-22727269D01*
X128459065Y-22801270D01*
X128463488Y-22803362D01*
X128464227Y-22803505D01*
X128464970Y-22803651D01*
X128660271Y-22842500D01*
X128859725Y-22842500D01*
X128859726Y-22842500D01*
X128906067Y-22833281D01*
X129045094Y-22805627D01*
X129055335Y-22803590D01*
X129233445Y-22729815D01*
X129239592Y-22727269D01*
X129239592Y-22727268D01*
X129239599Y-22727266D01*
X129405431Y-22616460D01*
X129546460Y-22475431D01*
X129657266Y-22309599D01*
X129658964Y-22305501D01*
X129701529Y-22202737D01*
X129733590Y-22125335D01*
X129757366Y-22005806D01*
X129772500Y-21929725D01*
X129772500Y-21730271D01*
X129733350Y-21533459D01*
X129731267Y-21529054D01*
X129721434Y-21505316D01*
X129721413Y-21505269D01*
X129721392Y-21505217D01*
X129657269Y-21350407D01*
X129657262Y-21350394D01*
X129546460Y-21184569D01*
X129546457Y-21184565D01*
X129546452Y-21184559D01*
X129405439Y-21043546D01*
X129405433Y-21043541D01*
X129405432Y-21043540D01*
X129239611Y-20932741D01*
X129239610Y-20932740D01*
X129239605Y-20932737D01*
X129239592Y-20932730D01*
X129239585Y-20932726D01*
X129055361Y-20856419D01*
X129055347Y-20856414D01*
X129055339Y-20856411D01*
X129055329Y-20856408D01*
X129055326Y-20856407D01*
X129055322Y-20856406D01*
X128859728Y-20817500D01*
X128859725Y-20817500D01*
X128859723Y-20817500D01*
X128660277Y-20817500D01*
X128660275Y-20817500D01*
X128660271Y-20817500D01*
X128464676Y-20856406D01*
X128464670Y-20856408D01*
X128464660Y-20856411D01*
X128464655Y-20856412D01*
X128464637Y-20856419D01*
X128280413Y-20932726D01*
X128280404Y-20932731D01*
X128280387Y-20932741D01*
X128114566Y-21043540D01*
X128114565Y-21043541D01*
X128114559Y-21043546D01*
X127973546Y-21184559D01*
X127973541Y-21184565D01*
X127973540Y-21184566D01*
X127862741Y-21350387D01*
X127862731Y-21350404D01*
X127862726Y-21350413D01*
X127786419Y-21534637D01*
X127786406Y-21534676D01*
X127747500Y-21730270D01*
X127747500Y-21885356D01*
X127742237Y-21903276D01*
X123422500Y-21903276D01*
X123422500Y-21730271D01*
X123383350Y-21533459D01*
X123381267Y-21529054D01*
X123371434Y-21505316D01*
X123371413Y-21505269D01*
X123371392Y-21505217D01*
X123307269Y-21350407D01*
X123307262Y-21350394D01*
X123196460Y-21184569D01*
X123196457Y-21184565D01*
X123196452Y-21184559D01*
X123055439Y-21043546D01*
X123055433Y-21043541D01*
X123055432Y-21043540D01*
X122889611Y-20932741D01*
X122889610Y-20932740D01*
X122889605Y-20932737D01*
X122889592Y-20932730D01*
X122889585Y-20932726D01*
X122705361Y-20856419D01*
X122705347Y-20856414D01*
X122705339Y-20856411D01*
X122705329Y-20856408D01*
X122705326Y-20856407D01*
X122705322Y-20856406D01*
X122509728Y-20817500D01*
X122509725Y-20817500D01*
X122509723Y-20817500D01*
X122310277Y-20817500D01*
X122310275Y-20817500D01*
X122310271Y-20817500D01*
X122114676Y-20856406D01*
X122114670Y-20856408D01*
X122114660Y-20856411D01*
X122114655Y-20856412D01*
X122114637Y-20856419D01*
X121930413Y-20932726D01*
X121930404Y-20932731D01*
X121930387Y-20932741D01*
X121764566Y-21043540D01*
X121764565Y-21043541D01*
X121764559Y-21043546D01*
X121623544Y-21184561D01*
X121623541Y-21184565D01*
X121587507Y-21238494D01*
X121563919Y-21264753D01*
X121555241Y-21272005D01*
X121491177Y-21299889D01*
X121422207Y-21288710D01*
X121370230Y-21242019D01*
X121370222Y-21242006D01*
X121368995Y-21240019D01*
X121350500Y-21174868D01*
X121350500Y-20633276D01*
X123932237Y-20633276D01*
X123976406Y-20855322D01*
X123976407Y-20855326D01*
X123976408Y-20855329D01*
X123976411Y-20855339D01*
X123976414Y-20855347D01*
X123976419Y-20855361D01*
X124052726Y-21039585D01*
X124052731Y-21039594D01*
X124052741Y-21039611D01*
X124163540Y-21205432D01*
X124163541Y-21205433D01*
X124163546Y-21205439D01*
X124304559Y-21346452D01*
X124304565Y-21346457D01*
X124304569Y-21346460D01*
X124470394Y-21457262D01*
X124470407Y-21457269D01*
X124470409Y-21457269D01*
X124470413Y-21457272D01*
X124604912Y-21512982D01*
X124649049Y-21531264D01*
X124653462Y-21533351D01*
X124850271Y-21572500D01*
X125049725Y-21572500D01*
X125049726Y-21572500D01*
X125096067Y-21563281D01*
X125235094Y-21535627D01*
X125245335Y-21533590D01*
X125368970Y-21482379D01*
X125387840Y-21474563D01*
X125396854Y-21470829D01*
X125423053Y-21459977D01*
X125425843Y-21459005D01*
X125427288Y-21458336D01*
X125431945Y-21456294D01*
X125441210Y-21452456D01*
X125450095Y-21443570D01*
X125595431Y-21346460D01*
X125736460Y-21205431D01*
X125847266Y-21039599D01*
X125923590Y-20855335D01*
X125942535Y-20760092D01*
X125946921Y-20738045D01*
X125946921Y-20738044D01*
X125962500Y-20659727D01*
X125962500Y-20460271D01*
X125923351Y-20263462D01*
X125921264Y-20259049D01*
X125910309Y-20232601D01*
X125847272Y-20080413D01*
X125847267Y-20080404D01*
X125847262Y-20080394D01*
X125736460Y-19914569D01*
X125736457Y-19914565D01*
X125736452Y-19914559D01*
X125595439Y-19773546D01*
X125595433Y-19773541D01*
X125595432Y-19773540D01*
X125429611Y-19662741D01*
X125429610Y-19662740D01*
X125429605Y-19662737D01*
X125429592Y-19662730D01*
X125429585Y-19662726D01*
X125245361Y-19586419D01*
X125245347Y-19586414D01*
X125245339Y-19586411D01*
X125245329Y-19586408D01*
X125245326Y-19586407D01*
X125245322Y-19586406D01*
X125049728Y-19547500D01*
X125049725Y-19547500D01*
X125049723Y-19547500D01*
X124850277Y-19547500D01*
X124850275Y-19547500D01*
X124850271Y-19547500D01*
X124654676Y-19586406D01*
X124654670Y-19586408D01*
X124654660Y-19586411D01*
X124654655Y-19586412D01*
X124654637Y-19586419D01*
X124470413Y-19662726D01*
X124470404Y-19662731D01*
X124470387Y-19662741D01*
X124304566Y-19773540D01*
X124304565Y-19773541D01*
X124304559Y-19773546D01*
X124163546Y-19914559D01*
X124163541Y-19914565D01*
X124163540Y-19914566D01*
X124052741Y-20080387D01*
X124052731Y-20080404D01*
X124052726Y-20080413D01*
X123976419Y-20264637D01*
X123976406Y-20264676D01*
X123937500Y-20460270D01*
X123937500Y-20615356D01*
X123932237Y-20633276D01*
X121350500Y-20633276D01*
X121350500Y-20404307D01*
X121355523Y-20369373D01*
X121359360Y-20356305D01*
X121397134Y-20297527D01*
X121460689Y-20268501D01*
X121522708Y-20275450D01*
X121530080Y-20278275D01*
X121544227Y-20284740D01*
X121544950Y-20285127D01*
X121550150Y-20288246D01*
X121556100Y-20289737D01*
X121556133Y-20289747D01*
X121562230Y-20290347D01*
X121615697Y-20300982D01*
X121618420Y-20301704D01*
X121623323Y-20302500D01*
X123196676Y-20302500D01*
X123200796Y-20302500D01*
X123208648Y-20300117D01*
X123269740Y-20287966D01*
X123352601Y-20232601D01*
X123407966Y-20149740D01*
X123422500Y-20076674D01*
X123422500Y-18503326D01*
X123422500Y-18503323D01*
X123422500Y-18503321D01*
X123422500Y-18497231D01*
X123422898Y-18497231D01*
X123422838Y-18484610D01*
X123424405Y-18467104D01*
X123449988Y-18402089D01*
X123506659Y-18361226D01*
X123511954Y-18359358D01*
X123517057Y-18357559D01*
X123558297Y-18350500D01*
X127255626Y-18350500D01*
X127290558Y-18355521D01*
G37*
%TD.AperFunction*%
%TA.AperFunction,Conductor*%
G36*
X124410699Y-23963271D02*
G01*
X124418424Y-23966231D01*
X124442943Y-23978919D01*
X124470391Y-23997260D01*
X124470399Y-23997264D01*
X124470401Y-23997266D01*
X124470403Y-23997267D01*
X124470407Y-23997269D01*
X124630573Y-24063611D01*
X124649054Y-24071265D01*
X124653463Y-24073351D01*
X124850271Y-24112500D01*
X125049725Y-24112500D01*
X125049726Y-24112500D01*
X125105668Y-24101372D01*
X125235094Y-24075627D01*
X125245335Y-24073590D01*
X125281412Y-24058645D01*
X125315608Y-24049915D01*
X125331157Y-24048244D01*
X125399910Y-24060648D01*
X125412088Y-24066744D01*
X125444264Y-24089946D01*
X126100573Y-24746255D01*
X126121723Y-24774507D01*
X126134331Y-24797596D01*
X126149500Y-24857025D01*
X126149500Y-26463784D01*
X126144476Y-26498722D01*
X126141289Y-26509575D01*
X126103514Y-26568352D01*
X126039957Y-26597375D01*
X125970807Y-26587434D01*
X125963829Y-26584247D01*
X125927659Y-26559135D01*
X125838017Y-26469493D01*
X125838015Y-26469491D01*
X125838014Y-26469490D01*
X125838006Y-26469485D01*
X125784243Y-26438445D01*
X125755808Y-26408624D01*
X125701007Y-26393939D01*
X125701007Y-26393940D01*
X125636740Y-26376720D01*
X125572475Y-26359500D01*
X125572474Y-26359500D01*
X125427525Y-26359500D01*
X125298994Y-26393939D01*
X125298993Y-26393940D01*
X125291338Y-26395991D01*
X125287510Y-26397017D01*
X125161991Y-26469485D01*
X125161984Y-26469490D01*
X125161968Y-26469505D01*
X125059505Y-26571968D01*
X125059490Y-26571984D01*
X125059485Y-26571992D01*
X124987017Y-26697509D01*
X124986989Y-26697578D01*
X124986748Y-26698511D01*
X124949500Y-26837525D01*
X124949500Y-26982480D01*
X124952810Y-26994832D01*
X124956999Y-27029869D01*
X124956669Y-27043744D01*
X124935396Y-27110297D01*
X124881519Y-27154783D01*
X124881517Y-27154784D01*
X124865082Y-27161822D01*
X124840461Y-27169451D01*
X124654676Y-27206406D01*
X124654670Y-27206408D01*
X124654660Y-27206411D01*
X124654655Y-27206412D01*
X124654637Y-27206419D01*
X124470413Y-27282726D01*
X124470392Y-27282737D01*
X124446213Y-27298894D01*
X124414373Y-27314126D01*
X124401377Y-27318195D01*
X124331519Y-27319441D01*
X124272077Y-27282721D01*
X124243400Y-27227295D01*
X124241571Y-27219234D01*
X124238500Y-27191806D01*
X124238500Y-24092131D01*
X124243521Y-24057203D01*
X124245101Y-24051821D01*
X124247358Y-24044133D01*
X124253892Y-24033965D01*
X124254562Y-24031094D01*
X124257686Y-24028060D01*
X124285128Y-23985356D01*
X124348682Y-23956327D01*
X124410699Y-23963271D01*
G37*
%TD.AperFunction*%
%TD*%
M02*
