M48
; DRILL file KiCad 10.0.5+dfsg-1 date 2026-09-13T14:09:36
; FORMAT={-:-/ absolute / metric / decimal}
; #@! TF.CreationDate,2026-09-13T14:09:36+09:00
; #@! TF.GenerationSoftware,Kicad,Pcbnew,10.0.5+dfsg-1
; #@! TF.FileFunction,Plated,1,2,PTH
FMAT,2
METRIC
; #@! TA.AperFunction,Plated,PTH,ViaDrill
T1C0.300
; #@! TA.AperFunction,Plated,PTH,ComponentDrill
T2C0.762
%
G90
G05
T1
X117.25Y-52.5
X117.4Y-38.0
X117.5Y-65.0
X118.25Y-53.25
X118.4Y-33.068
X118.75Y-28.75
X119.0Y-32.25
X119.0Y-52.75
X119.4Y-21.5
X119.687Y-52.292
X119.9Y-19.95
X120.35Y-51.845
X120.65Y-34.0
X120.95Y-51.25
X121.25Y-30.928
X121.55Y-50.654
X122.15Y-50.066
X122.75Y-49.5
X123.5Y-51.0
X124.75Y-60.6
X125.0Y-19.0
X125.125Y-86.625
X125.25Y-62.25
X125.25Y-73.0
X125.5Y-26.91
X125.756Y-53.506
X126.5Y-61.3
X127.25Y-59.7
X127.25Y-62.9
X127.575Y-30.312
X128.0Y-58.9
X128.625Y-49.375
X128.75Y-58.1
X129.57Y-28.18
X129.75Y-79.0
X129.75Y-83.0
X129.75Y-86.75
X130.0Y-67.25
X130.5Y-63.75
X131.75Y-18.25
X132.375Y-75.125
X132.375Y-76.875
X132.375Y-80.875
X132.375Y-84.875
X132.5Y-62.0
X132.9Y-24.066
X133.0Y-21.0
X133.0Y-57.5
X133.6Y-56.5
X134.0Y-66.65
X134.5Y-54.75
X134.75Y-49.375
X136.0Y-56.0
X136.5Y-55.0
X136.875Y-83.75
X137.65Y-64.3
X137.75Y-84.0
X138.0Y-18.75
X138.25Y-74.125
X138.25Y-79.5
X138.885Y-42.5
X140.601Y-81.5
X140.617Y-79.133
X141.0Y-80.0
X141.201Y-80.799
X141.322Y-78.643
X141.912Y-81.51
X142.125Y-84.625
X143.1Y-79.5
X143.7Y-66.0
X143.7Y-66.9
X143.75Y-67.75
X143.75Y-75.0
X144.174Y-81.826
X144.5Y-18.75
X144.875Y-52.125
X145.0Y-42.25
X145.0Y-53.25
X145.2Y-80.75
X145.75Y-29.5
X149.0Y-86.25
T2
X122.41Y-19.29
X122.41Y-21.83
X122.41Y-24.37
X122.41Y-26.91
X122.41Y-29.45
X122.41Y-31.99
X122.41Y-34.53
X122.41Y-37.07
X122.41Y-39.61
X122.41Y-42.15
X122.41Y-44.69
X122.41Y-47.23
X124.95Y-20.56
X124.95Y-23.1
X124.95Y-25.64
X124.95Y-28.18
X124.95Y-30.72
X124.95Y-33.26
X124.95Y-35.8
X124.95Y-38.34
X124.95Y-40.88
X124.95Y-43.42
X124.95Y-45.96
X124.95Y-48.5
X128.76Y-19.29
X128.76Y-21.83
X128.76Y-24.37
X128.76Y-26.91
X128.76Y-29.45
X128.76Y-31.99
X128.76Y-34.53
X128.76Y-37.07
X128.76Y-39.61
X128.76Y-42.15
X128.76Y-44.69
X128.76Y-47.23
X131.3Y-20.56
X131.3Y-23.1
X131.3Y-25.64
X131.3Y-28.18
X131.3Y-30.72
X131.3Y-33.26
X131.3Y-35.8
X131.3Y-38.34
X131.3Y-40.88
X131.3Y-43.42
X131.3Y-45.96
X131.3Y-48.5
X135.11Y-19.29
X135.11Y-21.83
X135.11Y-24.37
X135.11Y-26.91
X135.11Y-29.45
X135.11Y-31.99
X135.11Y-34.53
X135.11Y-37.07
X135.11Y-39.61
X135.11Y-42.15
X135.11Y-44.69
X135.11Y-47.23
X137.65Y-20.56
X137.65Y-23.1
X137.65Y-25.64
X137.65Y-28.18
X137.65Y-30.72
X137.65Y-33.26
X137.65Y-35.8
X137.65Y-38.34
X137.65Y-40.88
X137.65Y-43.42
X137.65Y-45.96
X137.65Y-48.5
X141.46Y-19.29
X141.46Y-21.83
X141.46Y-24.37
X141.46Y-26.91
X141.46Y-29.45
X141.46Y-31.99
X141.46Y-34.53
X141.46Y-37.07
X141.46Y-39.61
X141.46Y-42.15
X141.46Y-44.69
X141.46Y-47.23
X144.0Y-20.56
X144.0Y-23.1
X144.0Y-25.64
X144.0Y-28.18
X144.0Y-30.72
X144.0Y-33.26
X144.0Y-35.8
X144.0Y-38.34
X144.0Y-40.88
X144.0Y-43.42
X144.0Y-45.96
X144.0Y-48.5
M30
