M48
; DRILL file KiCad 10.0.6 date 2026-10-01T07:06:16
; FORMAT={-:-/ absolute / metric / decimal}
; #@! TF.CreationDate,2026-10-01T07:06:16+09:00
; #@! TF.GenerationSoftware,Kicad,Pcbnew,10.0.6
; #@! TF.FileFunction,Plated,1,2,PTH
FMAT,2
METRIC
; #@! TA.AperFunction,Plated,PTH,ViaDrill
T1C0.300
; #@! TA.AperFunction,Plated,PTH,ComponentDrill
T2C0.762
%
G90
G05
T1
X118.25Y-51.75
X119.45Y-31.75
X119.85Y-31.032
X120.767Y-53.454
X120.86Y-52.254
X120.95Y-50.8
X121.076Y-33.326
X121.29Y-51.579
X121.41Y-52.854
X121.537Y-30.75
X121.55Y-50.205
X122.148Y-49.674
X122.844Y-50.25
X123.444Y-56.769
X124.227Y-50.316
X124.246Y-51.141
X125.231Y-50.865
X125.349Y-58.166
X125.5Y-26.91
X125.926Y-51.524
X126.365Y-18.288
X127.1Y-30.0
X127.125Y-28.18
X127.301Y-50.399
X127.375Y-20.625
X128.125Y-50.375
X128.533Y-54.1
X128.673Y-52.85
X129.0Y-49.25
X129.0Y-50.35
X129.671Y-53.55
X130.838Y-52.85
X131.064Y-49.9
X131.318Y-62.992
X131.445Y-75.311
X131.6Y-76.7
X131.6Y-78.2
X131.6Y-79.7
X131.6Y-81.2
X131.6Y-82.7
X131.625Y-84.5
X132.9Y-24.066
X132.969Y-18.288
X133.0Y-21.0
X133.0Y-49.75
X133.638Y-50.362
X134.747Y-74.422
X134.75Y-49.75
X135.0Y-84.5
X135.35Y-50.316
X135.636Y-15.875
X136.144Y-51.562
X136.779Y-78.232
X136.779Y-81.153
X136.779Y-84.455
X137.0Y-50.75
X138.125Y-51.375
X138.15Y-50.0
X138.43Y-84.455
X138.5Y-18.25
X138.557Y-69.977
X139.192Y-39.878
X139.192Y-73.914
X139.25Y-54.125
X139.35Y-50.6
X140.125Y-84.5
X140.125Y-84.5
X140.126Y-78.359
X140.462Y-65.913
X140.75Y-45.96
X141.4Y-50.6
X141.605Y-66.1
X142.24Y-66.7
X142.3Y-49.3
X142.494Y-79.375
X142.494Y-80.137
X142.494Y-80.899
X142.494Y-81.661
X142.494Y-82.423
X142.494Y-83.312
X142.494Y-84.201
X142.621Y-74.803
X142.9Y-51.0
X142.923Y-53.388
X143.093Y-78.944
X143.134Y-78.059
X143.214Y-85.95
X143.5Y-50.25
X143.991Y-86.35
X144.018Y-83.566
X144.018Y-85.09
X144.768Y-86.734
X144.862Y-42.25
X144.875Y-18.375
X145.415Y-84.963
X145.451Y-87.15
X146.251Y-87.516
X146.923Y-87.95
T2
X122.41Y-19.29
X122.41Y-21.83
X122.41Y-24.37
X122.41Y-26.91
X122.41Y-29.45
X122.41Y-31.99
X122.41Y-34.53
X122.41Y-37.07
X122.41Y-39.61
X122.41Y-42.15
X122.41Y-44.69
X122.41Y-47.23
X124.95Y-20.56
X124.95Y-23.1
X124.95Y-25.64
X124.95Y-28.18
X124.95Y-30.72
X124.95Y-33.26
X124.95Y-35.8
X124.95Y-38.34
X124.95Y-40.88
X124.95Y-43.42
X124.95Y-45.96
X124.95Y-48.5
X128.76Y-19.29
X128.76Y-21.83
X128.76Y-24.37
X128.76Y-26.91
X128.76Y-29.45
X128.76Y-31.99
X128.76Y-34.53
X128.76Y-37.07
X128.76Y-39.61
X128.76Y-42.15
X128.76Y-44.69
X128.76Y-47.23
X131.3Y-20.56
X131.3Y-23.1
X131.3Y-25.64
X131.3Y-28.18
X131.3Y-30.72
X131.3Y-33.26
X131.3Y-35.8
X131.3Y-38.34
X131.3Y-40.88
X131.3Y-43.42
X131.3Y-45.96
X131.3Y-48.5
X135.11Y-19.29
X135.11Y-21.83
X135.11Y-24.37
X135.11Y-26.91
X135.11Y-29.45
X135.11Y-31.99
X135.11Y-34.53
X135.11Y-37.07
X135.11Y-39.61
X135.11Y-42.15
X135.11Y-44.69
X135.11Y-47.23
X137.65Y-20.56
X137.65Y-23.1
X137.65Y-25.64
X137.65Y-28.18
X137.65Y-30.72
X137.65Y-33.26
X137.65Y-35.8
X137.65Y-38.34
X137.65Y-40.88
X137.65Y-43.42
X137.65Y-45.96
X137.65Y-48.5
X141.46Y-19.29
X141.46Y-21.83
X141.46Y-24.37
X141.46Y-26.91
X141.46Y-29.45
X141.46Y-31.99
X141.46Y-34.53
X141.46Y-37.07
X141.46Y-39.61
X141.46Y-42.15
X141.46Y-44.69
X141.46Y-47.23
X144.0Y-20.56
X144.0Y-23.1
X144.0Y-25.64
X144.0Y-28.18
X144.0Y-30.72
X144.0Y-33.26
X144.0Y-35.8
X144.0Y-38.34
X144.0Y-40.88
X144.0Y-43.42
X144.0Y-45.96
X144.0Y-48.5
M30
