M48
; DRILL file KiCad 10.0.5+dfsg-1 date 2026-09-25T09:00:39
; FORMAT={-:-/ absolute / metric / decimal}
; #@! TF.CreationDate,2026-09-25T09:00:39+09:00
; #@! TF.GenerationSoftware,Kicad,Pcbnew,10.0.5+dfsg-1
; #@! TF.FileFunction,Plated,1,2,PTH
FMAT,2
METRIC
; #@! TA.AperFunction,Plated,PTH,ViaDrill
T1C0.300
; #@! TA.AperFunction,Plated,PTH,ComponentDrill
T2C0.762
%
G90
G05
T1
X118.25Y-51.75
X119.1Y-32.23
X119.5Y-31.375
X119.55Y-18.125
X120.65Y-34.0
X120.767Y-53.454
X120.86Y-52.254
X120.95Y-50.8
X121.25Y-30.928
X121.29Y-51.579
X121.41Y-52.854
X121.55Y-50.205
X122.148Y-49.674
X122.844Y-49.114
X123.125Y-15.375
X124.5Y-13.25
X125.157Y-51.968
X125.5Y-26.91
X125.75Y-18.25
X125.902Y-52.425
X126.626Y-52.85
X127.1Y-30.0
X127.125Y-28.18
X127.301Y-50.399
X127.375Y-20.625
X128.125Y-50.375
X128.5Y-60.25
X128.5Y-68.375
X128.623Y-69.505
X128.625Y-52.85
X128.991Y-70.215
X129.0Y-50.35
X129.192Y-70.99
X129.263Y-54.237
X129.983Y-71.113
X130.083Y-71.907
X130.25Y-55.625
X130.576Y-53.674
X130.81Y-13.208
X130.875Y-72.018
X130.926Y-72.976
X131.25Y-49.875
X131.625Y-74.375
X131.625Y-84.5
X131.75Y-73.0
X132.125Y-18.25
X132.362Y-53.75
X132.75Y-73.25
X132.9Y-24.066
X133.0Y-21.0
X133.0Y-49.75
X133.125Y-64.625
X133.6Y-49.125
X134.25Y-59.375
X135.7Y-51.0
X136.252Y-51.702
X136.625Y-77.5
X136.625Y-80.5
X136.625Y-83.5
X137.0Y-50.75
X138.0Y-74.375
X138.125Y-51.375
X138.15Y-50.0
X138.5Y-18.25
X139.25Y-54.125
X139.35Y-50.6
X140.125Y-15.375
X140.125Y-84.5
X140.75Y-45.96
X141.75Y-73.375
X142.06Y-50.75
X142.375Y-74.375
X142.5Y-80.5
X142.5Y-84.5
X143.375Y-77.5
X143.5Y-50.25
X143.625Y-78.375
X143.7Y-66.0
X143.7Y-66.9
X143.75Y-67.75
X143.75Y-75.0
X144.625Y-42.125
X144.625Y-83.25
X144.875Y-18.375
X145.0Y-53.25
X145.2Y-81.026
X145.375Y-87.95
X145.868Y-86.993
X151.325Y-85.125
T2
X122.41Y-19.29
X122.41Y-21.83
X122.41Y-24.37
X122.41Y-26.91
X122.41Y-29.45
X122.41Y-31.99
X122.41Y-34.53
X122.41Y-37.07
X122.41Y-39.61
X122.41Y-42.15
X122.41Y-44.69
X122.41Y-47.23
X124.95Y-20.56
X124.95Y-23.1
X124.95Y-25.64
X124.95Y-28.18
X124.95Y-30.72
X124.95Y-33.26
X124.95Y-35.8
X124.95Y-38.34
X124.95Y-40.88
X124.95Y-43.42
X124.95Y-45.96
X124.95Y-48.5
X128.76Y-19.29
X128.76Y-21.83
X128.76Y-24.37
X128.76Y-26.91
X128.76Y-29.45
X128.76Y-31.99
X128.76Y-34.53
X128.76Y-37.07
X128.76Y-39.61
X128.76Y-42.15
X128.76Y-44.69
X128.76Y-47.23
X131.3Y-20.56
X131.3Y-23.1
X131.3Y-25.64
X131.3Y-28.18
X131.3Y-30.72
X131.3Y-33.26
X131.3Y-35.8
X131.3Y-38.34
X131.3Y-40.88
X131.3Y-43.42
X131.3Y-45.96
X131.3Y-48.5
X135.11Y-19.29
X135.11Y-21.83
X135.11Y-24.37
X135.11Y-26.91
X135.11Y-29.45
X135.11Y-31.99
X135.11Y-34.53
X135.11Y-37.07
X135.11Y-39.61
X135.11Y-42.15
X135.11Y-44.69
X135.11Y-47.23
X137.65Y-20.56
X137.65Y-23.1
X137.65Y-25.64
X137.65Y-28.18
X137.65Y-30.72
X137.65Y-33.26
X137.65Y-35.8
X137.65Y-38.34
X137.65Y-40.88
X137.65Y-43.42
X137.65Y-45.96
X137.65Y-48.5
X141.46Y-19.29
X141.46Y-21.83
X141.46Y-24.37
X141.46Y-26.91
X141.46Y-29.45
X141.46Y-31.99
X141.46Y-34.53
X141.46Y-37.07
X141.46Y-39.61
X141.46Y-42.15
X141.46Y-44.69
X141.46Y-47.23
X144.0Y-20.56
X144.0Y-23.1
X144.0Y-25.64
X144.0Y-28.18
X144.0Y-30.72
X144.0Y-33.26
X144.0Y-35.8
X144.0Y-38.34
X144.0Y-40.88
X144.0Y-43.42
X144.0Y-45.96
X144.0Y-48.5
M30
