%TF.GenerationSoftware,KiCad,Pcbnew,10.0.6*%
%TF.CreationDate,2026-10-01T07:06:09+09:00*%
%TF.ProjectId,VdpBooster,56647042-6f6f-4737-9465-722e6b696361,rev?*%
%TF.SameCoordinates,Original*%
%TF.FileFunction,Copper,L2,Bot*%
%TF.FilePolarity,Positive*%
%FSLAX46Y46*%
G04 Gerber Fmt 4.6, Leading zero omitted, Abs format (unit mm)*
G04 Created by KiCad (PCBNEW 10.0.6) date 2026-10-01 07:06:09*
%MOMM*%
%LPD*%
G01*
G04 APERTURE LIST*
%TA.AperFunction,ComponentPad*%
%ADD10R,1.524000X1.524000*%
%TD*%
%TA.AperFunction,ComponentPad*%
%ADD11C,1.524000*%
%TD*%
%TA.AperFunction,ViaPad*%
%ADD12C,0.600000*%
%TD*%
%TA.AperFunction,Conductor*%
%ADD13C,0.200000*%
%TD*%
G04 APERTURE END LIST*
D10*
%TO.P,U2,1,W2/IO2_1*%
%TO.N,/A6*%
X141460000Y-19290000D03*
D11*
%TO.P,U2,2,W3/IO3_2*%
%TO.N,/A7*%
X144000000Y-20560000D03*
%TO.P,U2,3,~{SE}_3*%
%TO.N,/~{SE0}*%
X141460000Y-21830000D03*
%TO.P,U2,4,SIO2_4*%
%TO.N,/SD6*%
X144000000Y-23100000D03*
%TO.P,U2,5,SIO3_5*%
%TO.N,/SD7*%
X141460000Y-24370000D03*
%TO.P,U2,6,GND_6*%
%TO.N,GND*%
X144000000Y-25640000D03*
%TO.P,U2,7,SC_7*%
%TO.N,/SC*%
X141460000Y-26910000D03*
%TO.P,U2,8,SIO0_8*%
%TO.N,/SD4*%
X144000000Y-28180000D03*
%TO.P,U2,9,SIO1_9*%
%TO.N,/SD5*%
X141460000Y-29450000D03*
%TO.P,U2,10,~{DT}/~{OE}_10*%
%TO.N,/~{OE1}*%
X144000000Y-30720000D03*
%TO.P,U2,11,W0/IO0_11*%
%TO.N,/A4*%
X141460000Y-31990000D03*
%TO.P,U2,12,W1/IO1_12*%
%TO.N,/A5*%
X144000000Y-33260000D03*
%TO.P,U2,13,~{WB}/~{WE}_13*%
%TO.N,/~{WE0}*%
X141460000Y-34530000D03*
%TO.P,U2,14,~{RAS}_14*%
%TO.N,/~{RAS1}*%
X144000000Y-35800000D03*
%TO.P,U2,15,A5_15*%
%TO.N,/A6*%
X141460000Y-37070000D03*
%TO.P,U2,16,A6_16*%
%TO.N,/A5*%
X144000000Y-38340000D03*
%TO.P,U2,17,A4_17*%
%TO.N,/A4*%
X141460000Y-39610000D03*
%TO.P,U2,18,VCC_18*%
%TO.N,VCC*%
X144000000Y-40880000D03*
%TO.P,U2,19,A7_19*%
%TO.N,/A7*%
X141460000Y-42150000D03*
%TO.P,U2,20,A3_20*%
%TO.N,/A3*%
X144000000Y-43420000D03*
%TO.P,U2,21,A2_21*%
%TO.N,/A2*%
X141460000Y-44690000D03*
%TO.P,U2,22,A1_22*%
%TO.N,/A1*%
X144000000Y-45960000D03*
%TO.P,U2,23,A0_23*%
%TO.N,/A0*%
X141460000Y-47230000D03*
%TO.P,U2,24,~{CAS}_24*%
%TO.N,/~{CAS1}*%
X144000000Y-48500000D03*
%TD*%
D10*
%TO.P,U3,1,W2/IO2_1*%
%TO.N,/RD6*%
X122410000Y-19290000D03*
D11*
%TO.P,U3,2,W3/IO3_2*%
%TO.N,/RD7*%
X124950000Y-20560000D03*
%TO.P,U3,3,~{SE}_3*%
%TO.N,/~{SE1}*%
X122410000Y-21830000D03*
%TO.P,U3,4,SIO2_4*%
%TO.N,/SD6*%
X124950000Y-23100000D03*
%TO.P,U3,5,SIO3_5*%
%TO.N,/SD7*%
X122410000Y-24370000D03*
%TO.P,U3,6,GND_6*%
%TO.N,GND*%
X124950000Y-25640000D03*
%TO.P,U3,7,SC_7*%
%TO.N,/SC*%
X122410000Y-26910000D03*
%TO.P,U3,8,SIO0_8*%
%TO.N,/SD4*%
X124950000Y-28180000D03*
%TO.P,U3,9,SIO1_9*%
%TO.N,/SD5*%
X122410000Y-29450000D03*
%TO.P,U3,10,~{DT}/~{OE}_10*%
%TO.N,/~{OE1}*%
X124950000Y-30720000D03*
%TO.P,U3,11,W0/IO0_11*%
%TO.N,/RD4*%
X122410000Y-31990000D03*
%TO.P,U3,12,W1/IO1_12*%
%TO.N,/RD5*%
X124950000Y-33260000D03*
%TO.P,U3,13,~{WB}/~{WE}_13*%
%TO.N,/~{WE1}*%
X122410000Y-34530000D03*
%TO.P,U3,14,~{RAS}_14*%
%TO.N,/~{RAS1}*%
X124950000Y-35800000D03*
%TO.P,U3,15,A5_15*%
%TO.N,/A6*%
X122410000Y-37070000D03*
%TO.P,U3,16,A6_16*%
%TO.N,/A5*%
X124950000Y-38340000D03*
%TO.P,U3,17,A4_17*%
%TO.N,/A4*%
X122410000Y-39610000D03*
%TO.P,U3,18,VCC_18*%
%TO.N,VCC*%
X124950000Y-40880000D03*
%TO.P,U3,19,A7_19*%
%TO.N,/A7*%
X122410000Y-42150000D03*
%TO.P,U3,20,A3_20*%
%TO.N,/A3*%
X124950000Y-43420000D03*
%TO.P,U3,21,A2_21*%
%TO.N,/A2*%
X122410000Y-44690000D03*
%TO.P,U3,22,A1_22*%
%TO.N,/A1*%
X124950000Y-45960000D03*
%TO.P,U3,23,A0_23*%
%TO.N,/A0*%
X122410000Y-47230000D03*
%TO.P,U3,24,~{CAS}_24*%
%TO.N,/~{CAS1}*%
X124950000Y-48500000D03*
%TD*%
D10*
%TO.P,U1,1,W2/IO2_1*%
%TO.N,/A2*%
X135110000Y-19290000D03*
D11*
%TO.P,U1,2,W3/IO3_2*%
%TO.N,/A3*%
X137650000Y-20560000D03*
%TO.P,U1,3,~{SE}_3*%
%TO.N,/~{SE0}*%
X135110000Y-21830000D03*
%TO.P,U1,4,SIO2_4*%
%TO.N,/SD2*%
X137650000Y-23100000D03*
%TO.P,U1,5,SIO3_5*%
%TO.N,/SD3*%
X135110000Y-24370000D03*
%TO.P,U1,6,GND_6*%
%TO.N,GND*%
X137650000Y-25640000D03*
%TO.P,U1,7,SC_7*%
%TO.N,/SC*%
X135110000Y-26910000D03*
%TO.P,U1,8,SIO0_8*%
%TO.N,/SD0*%
X137650000Y-28180000D03*
%TO.P,U1,9,SIO1_9*%
%TO.N,/SD1*%
X135110000Y-29450000D03*
%TO.P,U1,10,~{DT}/~{OE}_10*%
%TO.N,/~{OE1}*%
X137650000Y-30720000D03*
%TO.P,U1,11,W0/IO0_11*%
%TO.N,/A0*%
X135110000Y-31990000D03*
%TO.P,U1,12,W1/IO1_12*%
%TO.N,/A1*%
X137650000Y-33260000D03*
%TO.P,U1,13,~{WB}/~{WE}_13*%
%TO.N,/~{WE0}*%
X135110000Y-34530000D03*
%TO.P,U1,14,~{RAS}_14*%
%TO.N,/~{RAS1}*%
X137650000Y-35800000D03*
%TO.P,U1,15,A5_15*%
%TO.N,/A6*%
X135110000Y-37070000D03*
%TO.P,U1,16,A6_16*%
%TO.N,/A5*%
X137650000Y-38340000D03*
%TO.P,U1,17,A4_17*%
%TO.N,/A4*%
X135110000Y-39610000D03*
%TO.P,U1,18,VCC_18*%
%TO.N,VCC*%
X137650000Y-40880000D03*
%TO.P,U1,19,A7_19*%
%TO.N,/A7*%
X135110000Y-42150000D03*
%TO.P,U1,20,A3_20*%
%TO.N,/A3*%
X137650000Y-43420000D03*
%TO.P,U1,21,A2_21*%
%TO.N,/A2*%
X135110000Y-44690000D03*
%TO.P,U1,22,A1_22*%
%TO.N,/A1*%
X137650000Y-45960000D03*
%TO.P,U1,23,A0_23*%
%TO.N,/A0*%
X135110000Y-47230000D03*
%TO.P,U1,24,~{CAS}_24*%
%TO.N,/~{CAS1}*%
X137650000Y-48500000D03*
%TD*%
D10*
%TO.P,U4,1,W2/IO2_1*%
%TO.N,/RD2*%
X128760000Y-19290000D03*
D11*
%TO.P,U4,2,W3/IO3_2*%
%TO.N,/RD3*%
X131300000Y-20560000D03*
%TO.P,U4,3,~{SE}_3*%
%TO.N,/~{SE1}*%
X128760000Y-21830000D03*
%TO.P,U4,4,SIO2_4*%
%TO.N,/SD2*%
X131300000Y-23100000D03*
%TO.P,U4,5,SIO3_5*%
%TO.N,/SD3*%
X128760000Y-24370000D03*
%TO.P,U4,6,GND_6*%
%TO.N,GND*%
X131300000Y-25640000D03*
%TO.P,U4,7,SC_7*%
%TO.N,/SC*%
X128760000Y-26910000D03*
%TO.P,U4,8,SIO0_8*%
%TO.N,/SD0*%
X131300000Y-28180000D03*
%TO.P,U4,9,SIO1_9*%
%TO.N,/SD1*%
X128760000Y-29450000D03*
%TO.P,U4,10,~{DT}/~{OE}_10*%
%TO.N,/~{OE1}*%
X131300000Y-30720000D03*
%TO.P,U4,11,W0/IO0_11*%
%TO.N,/RD0*%
X128760000Y-31990000D03*
%TO.P,U4,12,W1/IO1_12*%
%TO.N,/RD1*%
X131300000Y-33260000D03*
%TO.P,U4,13,~{WB}/~{WE}_13*%
%TO.N,/~{WE1}*%
X128760000Y-34530000D03*
%TO.P,U4,14,~{RAS}_14*%
%TO.N,/~{RAS1}*%
X131300000Y-35800000D03*
%TO.P,U4,15,A5_15*%
%TO.N,/A6*%
X128760000Y-37070000D03*
%TO.P,U4,16,A6_16*%
%TO.N,/A5*%
X131300000Y-38340000D03*
%TO.P,U4,17,A4_17*%
%TO.N,/A4*%
X128760000Y-39610000D03*
%TO.P,U4,18,VCC_18*%
%TO.N,VCC*%
X131300000Y-40880000D03*
%TO.P,U4,19,A7_19*%
%TO.N,/A7*%
X128760000Y-42150000D03*
%TO.P,U4,20,A3_20*%
%TO.N,/A3*%
X131300000Y-43420000D03*
%TO.P,U4,21,A2_21*%
%TO.N,/A2*%
X128760000Y-44690000D03*
%TO.P,U4,22,A1_22*%
%TO.N,/A1*%
X131300000Y-45960000D03*
%TO.P,U4,23,A0_23*%
%TO.N,/A0*%
X128760000Y-47230000D03*
%TO.P,U4,24,~{CAS}_24*%
%TO.N,/~{CAS1}*%
X131300000Y-48500000D03*
%TD*%
D12*
%TO.N,VCC*%
X135636000Y-15875000D03*
%TO.N,/A0*%
X144018000Y-83566000D03*
%TO.N,GND*%
X140462000Y-65913000D03*
%TO.N,/~{OE1}*%
X142240000Y-66700000D03*
%TO.N,/~{WE0}*%
X141605000Y-66100000D03*
%TO.N,GND*%
X123444000Y-56769000D03*
X125349000Y-58166000D03*
%TO.N,GNDA*%
X139192000Y-73914000D03*
X142621000Y-74803000D03*
%TO.N,GND*%
X138557000Y-69977000D03*
%TO.N,GNDA*%
X142494000Y-79375000D03*
X140125000Y-84500000D03*
X138430000Y-84455000D03*
X142494000Y-84201000D03*
X142494000Y-82423000D03*
X142494000Y-80899000D03*
X142494000Y-80137000D03*
X142494000Y-83312000D03*
X145415000Y-84963000D03*
%TO.N,VCCA*%
X140126129Y-78359000D03*
%TO.N,GNDA*%
X136779000Y-84455000D03*
X136779000Y-81153000D03*
X143092900Y-78943571D03*
%TO.N,/A1*%
X144018000Y-85090000D03*
%TO.N,/A2*%
X143213737Y-85950000D03*
%TO.N,/A3*%
X143991081Y-86350000D03*
%TO.N,/A4*%
X144768250Y-86733843D03*
%TO.N,/A5*%
X145451490Y-87150000D03*
%TO.N,/A7*%
X146923314Y-87950000D03*
%TO.N,/A6*%
X146251294Y-87515958D03*
%TO.N,/A7*%
X124245951Y-51141049D03*
%TO.N,VCC*%
X139192000Y-39878000D03*
%TO.N,GND*%
X136144000Y-51562000D03*
%TO.N,GNDA*%
X134747000Y-74422000D03*
X131600000Y-76700000D03*
X131600000Y-79700000D03*
X131600000Y-82700000D03*
X135000000Y-84500000D03*
X131600000Y-81200000D03*
X131600000Y-78200000D03*
%TO.N,GND*%
X142300000Y-49300000D03*
%TO.N,/RD4*%
X119850000Y-31032106D03*
%TO.N,/RD5*%
X119450000Y-31750000D03*
%TO.N,VCCA*%
X143134265Y-78059265D03*
%TO.N,GNDA*%
X131445000Y-75311000D03*
X140125000Y-84500000D03*
X142494000Y-81661000D03*
%TO.N,/A6*%
X137000000Y-50750000D03*
X139350000Y-50600000D03*
%TO.N,/~{SE0}*%
X130838000Y-52849999D03*
X133000000Y-21000000D03*
%TO.N,/SD6*%
X127300734Y-50399263D03*
%TO.N,/SD7*%
X124226781Y-50315962D03*
%TO.N,GND*%
X131064000Y-49900000D03*
X127375000Y-20625000D03*
X132969000Y-18288000D03*
X118250000Y-51750000D03*
X144875000Y-18375000D03*
X138500000Y-18250000D03*
X139250000Y-54125000D03*
X142900000Y-51000000D03*
X129000000Y-49250000D03*
X131318000Y-62992000D03*
X142922765Y-53387765D03*
X126365000Y-18288000D03*
%TO.N,/SC*%
X125500000Y-26910000D03*
X128673472Y-52850000D03*
%TO.N,/SD4*%
X127125000Y-28180000D03*
X129000000Y-50350000D03*
%TO.N,/SD5*%
X127100000Y-30000000D03*
X128125000Y-50375000D03*
%TO.N,/A4*%
X138125000Y-51375000D03*
X141400000Y-50600000D03*
%TO.N,/A5*%
X143500000Y-50250000D03*
X138150000Y-50000000D03*
%TO.N,/~{WE0}*%
X144862000Y-42250000D03*
%TO.N,/~{RAS1}*%
X129670852Y-53549678D03*
%TO.N,/A1*%
X140750000Y-45960000D03*
%TO.N,/~{CAS1}*%
X125925735Y-51524265D03*
%TO.N,/SD0*%
X135350000Y-50315687D03*
%TO.N,/SD1*%
X134750000Y-49750000D03*
%TO.N,/SD2*%
X133638478Y-50361522D03*
%TO.N,/SD3*%
X132900000Y-24066263D03*
X133000000Y-49750000D03*
%TO.N,/~{SE1}*%
X125231130Y-50865067D03*
%TO.N,/~{WE1}*%
X128533330Y-54100000D03*
%TO.N,/RD0*%
X121536657Y-30750000D03*
X122844000Y-50250000D03*
%TO.N,/RD1*%
X121075735Y-33325735D03*
X122147614Y-49673623D03*
%TO.N,/RD2*%
X121550000Y-50205465D03*
%TO.N,/RD3*%
X120950000Y-50800000D03*
%TO.N,/RD4*%
X121289821Y-51579036D03*
%TO.N,/RD5*%
X120859678Y-52253558D03*
%TO.N,/RD6*%
X121410241Y-52853558D03*
%TO.N,/RD7*%
X120767375Y-53453558D03*
%TO.N,GNDA*%
X136779000Y-78232000D03*
X131625000Y-84500000D03*
%TD*%
%TO.N,VCC*%
D13*
X135636000Y-16383000D02*
X135636000Y-15875000D01*
X139192000Y-19939000D02*
X135636000Y-16383000D01*
X139192000Y-19939000D02*
X139192000Y-39878000D01*
%TO.N,/A7*%
X124245951Y-58078951D02*
X124245951Y-51141049D01*
X127725000Y-85607055D02*
X127725000Y-61558000D01*
X146951000Y-88150000D02*
X130267942Y-88150000D01*
X146951000Y-87977686D02*
X146951000Y-88150000D01*
X127725000Y-61558000D02*
X124245951Y-58078951D01*
X146923314Y-87950000D02*
X146951000Y-87977686D01*
X130267942Y-88150000D02*
X127725000Y-85607055D01*
%TO.N,/A6*%
X136950000Y-50800000D02*
X137000000Y-50750000D01*
X128125000Y-60677941D02*
X136950000Y-51852942D01*
X130433628Y-87750000D02*
X128125000Y-85441370D01*
X128125000Y-85441370D02*
X128125000Y-60677941D01*
X146017252Y-87750000D02*
X130433628Y-87750000D01*
X146251294Y-87515958D02*
X146017252Y-87750000D01*
X136950000Y-51852942D02*
X136950000Y-50800000D01*
%TO.N,/A5*%
X138150000Y-50501471D02*
X138150000Y-50000000D01*
X137350000Y-52018628D02*
X137350000Y-51301471D01*
X130599314Y-87350000D02*
X128525000Y-85275685D01*
X128525000Y-85275685D02*
X128525000Y-60843627D01*
X145251490Y-87350000D02*
X130599314Y-87350000D01*
X145451490Y-87150000D02*
X145251490Y-87350000D01*
X128525000Y-60843627D02*
X137350000Y-52018628D01*
X137350000Y-51301471D02*
X138150000Y-50501471D01*
%TO.N,/A4*%
X128925000Y-61009314D02*
X130654157Y-59280157D01*
X128925000Y-85110000D02*
X128925000Y-61009314D01*
X130765000Y-86950000D02*
X128925000Y-85110000D01*
X144768250Y-86733843D02*
X144552093Y-86950000D01*
X144552093Y-86950000D02*
X130765000Y-86950000D01*
%TO.N,/A3*%
X138750000Y-51749998D02*
X138750000Y-44520000D01*
X129325000Y-84921055D02*
X129325000Y-61174998D01*
X130953942Y-86550000D02*
X129325000Y-84921055D01*
X138750000Y-44520000D02*
X137650000Y-43420000D01*
X143791081Y-86550000D02*
X130953942Y-86550000D01*
X129325000Y-61174998D02*
X138750000Y-51749998D01*
X143991081Y-86350000D02*
X143791081Y-86550000D01*
%TO.N,/A2*%
X139950000Y-51115684D02*
X139950000Y-45600000D01*
X129725000Y-61340684D02*
X139950000Y-51115684D01*
X140860000Y-44690000D02*
X141460000Y-44690000D01*
X129725000Y-84755370D02*
X129725000Y-61340684D01*
X131119628Y-86150000D02*
X129725000Y-84755370D01*
X139950000Y-45600000D02*
X140860000Y-44690000D01*
X143013737Y-86150000D02*
X131119628Y-86150000D01*
X143213737Y-85950000D02*
X143013737Y-86150000D01*
%TO.N,/A1*%
X140375000Y-46335000D02*
X140750000Y-45960000D01*
X130125000Y-61506370D02*
X140375000Y-51256370D01*
X130125000Y-84589685D02*
X130125000Y-61506370D01*
X131285314Y-85750000D02*
X130125000Y-84589685D01*
X142565207Y-85750000D02*
X131285314Y-85750000D01*
X140375000Y-51256370D02*
X140375000Y-46335000D01*
X142971208Y-85344000D02*
X142565207Y-85750000D01*
X143764000Y-85344000D02*
X142971208Y-85344000D01*
X144018000Y-85090000D02*
X143764000Y-85344000D01*
%TO.N,/A0*%
X141460000Y-48540000D02*
X141460000Y-47230000D01*
X140800000Y-49200000D02*
X141460000Y-48540000D01*
X140800000Y-51397056D02*
X140800000Y-49200000D01*
X130525000Y-84424000D02*
X130525000Y-61672056D01*
X131451000Y-85350000D02*
X130525000Y-84424000D01*
X143929522Y-83820000D02*
X142399522Y-85350000D01*
X143929522Y-83654478D02*
X143929522Y-83820000D01*
X142399522Y-85350000D02*
X131451000Y-85350000D01*
X130525000Y-61672056D02*
X140800000Y-51397056D01*
X144018000Y-83566000D02*
X143929522Y-83654478D01*
%TO.N,VCCA*%
X140142129Y-78375000D02*
X140126129Y-78359000D01*
X142818530Y-78375000D02*
X140142129Y-78375000D01*
X143172265Y-78021265D02*
X143134265Y-78059265D01*
X143134265Y-78059265D02*
X142818530Y-78375000D01*
%TO.N,/~{OE1}*%
X144650000Y-50728185D02*
X144650000Y-50165686D01*
X144625000Y-50753186D02*
X144650000Y-50728185D01*
X142240000Y-53222000D02*
X144625000Y-50837000D01*
X144625000Y-50837000D02*
X144625000Y-50753186D01*
X144650000Y-50165686D02*
X145462000Y-49353686D01*
X142240000Y-66700000D02*
X142240000Y-53222000D01*
X145462000Y-49353686D02*
X145462000Y-32182000D01*
X145462000Y-32182000D02*
X144000000Y-30720000D01*
%TO.N,/~{WE0}*%
X144250000Y-50000000D02*
X145062000Y-49188000D01*
X145062000Y-49188000D02*
X145062000Y-42562000D01*
X145062000Y-42562000D02*
X144862000Y-42362000D01*
X144250000Y-50562500D02*
X144250000Y-50000000D01*
X141605000Y-53207500D02*
X144250000Y-50562500D01*
X141605000Y-66100000D02*
X141605000Y-53207500D01*
X144862000Y-42362000D02*
X144862000Y-42250000D01*
%TO.N,/A4*%
X130654157Y-59280157D02*
X138125000Y-51809314D01*
%TO.N,/A3*%
X138712000Y-42358000D02*
X137650000Y-43420000D01*
X138430000Y-40158105D02*
X138712000Y-40440105D01*
X138430000Y-39061895D02*
X138430000Y-40158105D01*
X138712000Y-38779895D02*
X138430000Y-39061895D01*
X138712000Y-21622000D02*
X138712000Y-38779895D01*
X137650000Y-20560000D02*
X138712000Y-21622000D01*
X138712000Y-40440105D02*
X138712000Y-42358000D01*
%TO.N,/A4*%
X140398000Y-40672000D02*
X141460000Y-39610000D01*
X140398000Y-42898000D02*
X140398000Y-40672000D01*
%TO.N,/A6*%
X139998000Y-44914000D02*
X139485421Y-45426579D01*
X139485421Y-45426579D02*
X139485421Y-50464579D01*
X139998000Y-38532000D02*
X139998000Y-44914000D01*
X139485421Y-50464579D02*
X139350000Y-50600000D01*
X141460000Y-37070000D02*
X139998000Y-38532000D01*
%TO.N,/A4*%
X141000000Y-43500000D02*
X140398000Y-42898000D01*
X142538000Y-43788000D02*
X142250000Y-43500000D01*
X141400000Y-49255000D02*
X142538000Y-48117000D01*
X142538000Y-48117000D02*
X142538000Y-43788000D01*
X141400000Y-50600000D02*
X141400000Y-49255000D01*
X142250000Y-43500000D02*
X141000000Y-43500000D01*
%TO.N,/SC*%
X126100000Y-41900000D02*
X126100000Y-27510000D01*
X126000000Y-42000000D02*
X126100000Y-41900000D01*
X126100000Y-42100000D02*
X126000000Y-42000000D01*
X126100000Y-50154000D02*
X126100000Y-42100000D01*
X126100000Y-27510000D02*
X125500000Y-26910000D01*
X128673472Y-52727472D02*
X126100000Y-50154000D01*
X128673472Y-52850000D02*
X128673472Y-52727472D01*
%TO.N,/~{WE1}*%
X129838000Y-52534000D02*
X129838000Y-35608000D01*
X129838000Y-35608000D02*
X128760000Y-34530000D01*
X128533330Y-53838670D02*
X129838000Y-52534000D01*
X128533330Y-54100000D02*
X128533330Y-53838670D01*
%TO.N,/~{RAS1}*%
X130238000Y-52982530D02*
X130238000Y-49000000D01*
X129670852Y-53549678D02*
X130238000Y-52982530D01*
%TO.N,/~{SE0}*%
X132125000Y-21875000D02*
X133000000Y-21000000D01*
X130750000Y-21875000D02*
X132125000Y-21875000D01*
X130125000Y-22500000D02*
X130750000Y-21875000D01*
X130875000Y-24375000D02*
X130125000Y-23625000D01*
X130125000Y-23625000D02*
X130125000Y-22500000D01*
X132362000Y-24862000D02*
X131875000Y-24375000D01*
X132362000Y-49450000D02*
X132362000Y-24862000D01*
X130838000Y-50974000D02*
X132362000Y-49450000D01*
X131875000Y-24375000D02*
X130875000Y-24375000D01*
X130838000Y-52849999D02*
X130838000Y-50974000D01*
%TO.N,/SD2*%
X133100000Y-23100000D02*
X131300000Y-23100000D01*
X133500000Y-23500000D02*
X133100000Y-23100000D01*
X133638478Y-49163478D02*
X133500000Y-49025000D01*
X133638478Y-50361522D02*
X133638478Y-49163478D01*
X133500000Y-49025000D02*
X133500000Y-23500000D01*
%TO.N,/A5*%
X145062000Y-34322000D02*
X145062000Y-37278000D01*
X145062000Y-37278000D02*
X144000000Y-38340000D01*
X144000000Y-33260000D02*
X145062000Y-34322000D01*
X143500000Y-49688000D02*
X143500000Y-50250000D01*
X142938000Y-49126000D02*
X143500000Y-49688000D01*
X142938000Y-40249500D02*
X142938000Y-49126000D01*
X144000000Y-39187500D02*
X142938000Y-40249500D01*
X144000000Y-38340000D02*
X144000000Y-39187500D01*
%TO.N,/RD0*%
X122500000Y-49000000D02*
X122844000Y-49344000D01*
X121250000Y-48000000D02*
X122250000Y-49000000D01*
X121250000Y-34000000D02*
X121250000Y-48000000D01*
X121250000Y-32500000D02*
X121750000Y-33000000D01*
X122250000Y-49000000D02*
X122500000Y-49000000D01*
X121536657Y-30963343D02*
X121250000Y-31250000D01*
X121250000Y-31250000D02*
X121250000Y-32500000D01*
X122844000Y-49344000D02*
X122844000Y-50250000D01*
X121750000Y-33000000D02*
X121750000Y-33500000D01*
X121536657Y-30750000D02*
X121536657Y-30963343D01*
X121750000Y-33500000D02*
X121250000Y-34000000D01*
%TO.N,/RD7*%
X124950000Y-19325000D02*
X124950000Y-20560000D01*
X121375000Y-18125000D02*
X123750000Y-18125000D01*
X120050000Y-19450000D02*
X121375000Y-18125000D01*
X118450000Y-49455500D02*
X118450000Y-31017892D01*
X119142000Y-50147501D02*
X118450000Y-49455500D01*
X120050000Y-29417892D02*
X120050000Y-19450000D01*
X119142000Y-52353764D02*
X119142000Y-50147501D01*
X118450000Y-31017892D02*
X120050000Y-29417892D01*
X120241794Y-53453558D02*
X119142000Y-52353764D01*
X123750000Y-18125000D02*
X124950000Y-19325000D01*
X120767375Y-53453558D02*
X120241794Y-53453558D01*
%TO.N,/RD6*%
X120498498Y-52853558D02*
X121410241Y-52853558D01*
X119542000Y-51897060D02*
X120498498Y-52853558D01*
X119542000Y-49981816D02*
X119542000Y-51897060D01*
X118850000Y-31183578D02*
X118850000Y-49289815D01*
X118850000Y-49289815D02*
X119542000Y-49981816D01*
X120450000Y-20288000D02*
X120450000Y-29583578D01*
X121448000Y-19290000D02*
X120450000Y-20288000D01*
X120450000Y-29583578D02*
X118850000Y-31183578D01*
X122410000Y-19290000D02*
X121448000Y-19290000D01*
%TO.N,/RD1*%
X122150000Y-49671237D02*
X122147614Y-49673623D01*
X122150000Y-49607843D02*
X122150000Y-49671237D01*
X120850000Y-48307843D02*
X122150000Y-49607843D01*
X121075735Y-33608579D02*
X120850000Y-33834315D01*
X121075735Y-33325735D02*
X121075735Y-33608579D01*
X120850000Y-33834315D02*
X120850000Y-48307843D01*
%TO.N,/A6*%
X140398000Y-36008000D02*
X141460000Y-37070000D01*
X140398000Y-20352000D02*
X140398000Y-36008000D01*
X141460000Y-19290000D02*
X140398000Y-20352000D01*
%TO.N,/A7*%
X142522000Y-40103000D02*
X142538000Y-40087000D01*
X142538000Y-40083814D02*
X142922000Y-39699814D01*
X142522000Y-41088000D02*
X142522000Y-40103000D01*
X141460000Y-42150000D02*
X142522000Y-41088000D01*
X142538000Y-40087000D02*
X142538000Y-40083814D01*
X142922000Y-21638000D02*
X144000000Y-20560000D01*
X142922000Y-39699814D02*
X142922000Y-21638000D01*
%TO.N,/SD6*%
X124950000Y-23100000D02*
X126500000Y-24650000D01*
X126500000Y-24650000D02*
X126500000Y-49598529D01*
X127300734Y-50399263D02*
X126500000Y-49598529D01*
%TO.N,/SD7*%
X123488000Y-49577181D02*
X123488000Y-25448000D01*
X123488000Y-25448000D02*
X122410000Y-24370000D01*
X124226781Y-50315962D02*
X123488000Y-49577181D01*
%TO.N,/SD4*%
X127700000Y-31300000D02*
X127700000Y-29891895D01*
X127700000Y-29891895D02*
X127698000Y-29889895D01*
X127500000Y-31500000D02*
X127625000Y-31375000D01*
X129000000Y-50350000D02*
X129000000Y-50250000D01*
X127625000Y-31375000D02*
X127700000Y-31300000D01*
X127698000Y-29889895D02*
X127698000Y-28753000D01*
X127698000Y-28753000D02*
X127125000Y-28180000D01*
X127500000Y-48750000D02*
X127500000Y-31500000D01*
X129000000Y-50250000D02*
X127500000Y-48750000D01*
%TO.N,/SD5*%
X127000000Y-49250000D02*
X127000000Y-30100000D01*
X127000000Y-30100000D02*
X127100000Y-30000000D01*
X128125000Y-50375000D02*
X127000000Y-49250000D01*
%TO.N,/A4*%
X138125000Y-51809314D02*
X138125000Y-51375000D01*
X141460000Y-31990000D02*
X142522000Y-33052000D01*
X142522000Y-38548000D02*
X141460000Y-39610000D01*
X130650000Y-59284313D02*
X130654157Y-59280157D01*
X142522000Y-33052000D02*
X142522000Y-38548000D01*
%TO.N,/~{RAS1}*%
X130238000Y-49000000D02*
X130238000Y-36862000D01*
X130238000Y-36862000D02*
X131300000Y-35800000D01*
X130238000Y-49500000D02*
X130238000Y-49375000D01*
X130238000Y-49375000D02*
X130238000Y-49000000D01*
%TO.N,/A2*%
X135110000Y-19290000D02*
X134048000Y-20352000D01*
X134048000Y-20352000D02*
X134048000Y-43628000D01*
X134048000Y-43628000D02*
X135110000Y-44690000D01*
%TO.N,/~{CAS1}*%
X125700000Y-50490685D02*
X125700000Y-49700000D01*
X125925735Y-50716421D02*
X125700000Y-50490685D01*
X125700000Y-49700000D02*
X124950000Y-48950000D01*
X144250000Y-48750000D02*
X144000000Y-48500000D01*
X125925735Y-51524265D02*
X125925735Y-50716421D01*
X124950000Y-48950000D02*
X124950000Y-48500000D01*
%TO.N,/SD0*%
X135350000Y-50315687D02*
X135350000Y-49400000D01*
X136588000Y-48162000D02*
X136588000Y-29242000D01*
X136588000Y-29242000D02*
X137650000Y-28180000D01*
X135350000Y-49400000D02*
X136588000Y-48162000D01*
%TO.N,/SD1*%
X136188000Y-30528000D02*
X135110000Y-29450000D01*
X134750000Y-49434314D02*
X136188000Y-47996314D01*
X134750000Y-49750000D02*
X134750000Y-49434314D01*
X136188000Y-47996314D02*
X136188000Y-30528000D01*
%TO.N,/SD3*%
X133000000Y-49750000D02*
X133000000Y-24166263D01*
X133000000Y-24166263D02*
X132900000Y-24066263D01*
%TO.N,/~{SE1}*%
X125231130Y-50462130D02*
X123888000Y-49119000D01*
X125231130Y-50865067D02*
X125231130Y-50462130D01*
X123888000Y-23308000D02*
X122410000Y-21830000D01*
X123888000Y-49119000D02*
X123888000Y-23308000D01*
%TO.N,/RD3*%
X126375000Y-19551000D02*
X126375000Y-20875000D01*
X124375186Y-21622000D02*
X124314093Y-21560907D01*
X126375000Y-20875000D02*
X125628000Y-21622000D01*
X131300000Y-19300000D02*
X130000000Y-18000000D01*
X130000000Y-18000000D02*
X127926000Y-18000000D01*
X125628000Y-21622000D02*
X124375186Y-21622000D01*
X124353186Y-21600000D02*
X124488105Y-21600000D01*
X127926000Y-18000000D02*
X126375000Y-19551000D01*
X124314093Y-21560907D02*
X124353186Y-21600000D01*
X131300000Y-20560000D02*
X131300000Y-19300000D01*
%TO.N,/RD5*%
X120706499Y-52253558D02*
X120859678Y-52253558D01*
X119942000Y-49816129D02*
X119942000Y-51489059D01*
X119250000Y-32493628D02*
X119250000Y-49124129D01*
X119250000Y-32493628D02*
X119450000Y-32293628D01*
X119942000Y-51489059D02*
X120706499Y-52253558D01*
X119450000Y-32293628D02*
X119450000Y-31750000D01*
X119250000Y-49124129D02*
X119942000Y-49816129D01*
%TO.N,/RD4*%
X121289821Y-51579036D02*
X120880506Y-51579036D01*
X120880506Y-51579036D02*
X120342000Y-51040530D01*
X120342000Y-51040530D02*
X120342000Y-49650443D01*
X120342000Y-49650443D02*
X119650000Y-48958443D01*
X119650000Y-48958443D02*
X119650000Y-32659315D01*
X120050000Y-31232106D02*
X119850000Y-31032106D01*
X119650000Y-32659315D02*
X120050000Y-32259314D01*
X120050000Y-32259314D02*
X120050000Y-31232106D01*
%TO.N,/RD3*%
X120050000Y-48792757D02*
X120950000Y-49692757D01*
X120050000Y-32825000D02*
X120050000Y-48792757D01*
X120450000Y-30422442D02*
X120450000Y-32425000D01*
X120850000Y-30022442D02*
X120450000Y-30422442D01*
X120850000Y-21322420D02*
X120850000Y-30022442D01*
X120950000Y-49692757D02*
X120950000Y-50800000D01*
X121820420Y-20352000D02*
X120850000Y-21322420D01*
X123105186Y-20352000D02*
X121820420Y-20352000D01*
X124314093Y-21560907D02*
X123105186Y-20352000D01*
X120450000Y-32425000D02*
X120050000Y-32825000D01*
%TO.N,/RD2*%
X128760000Y-20115000D02*
X128760000Y-19290000D01*
X126853000Y-22022000D02*
X128760000Y-20115000D01*
X122955500Y-20768000D02*
X124209501Y-22022000D01*
X121970105Y-20768000D02*
X122955500Y-20768000D01*
X121250000Y-21488105D02*
X121970105Y-20768000D01*
X121250000Y-30188128D02*
X121250000Y-21488105D01*
X120850000Y-30588128D02*
X121250000Y-30188128D01*
X120450000Y-48627071D02*
X120450000Y-32990686D01*
X121550000Y-49727071D02*
X120450000Y-48627071D01*
X120850000Y-32590686D02*
X120850000Y-30588128D01*
X124209501Y-22022000D02*
X126853000Y-22022000D01*
X120450000Y-32990686D02*
X120850000Y-32590686D01*
X121550000Y-50205465D02*
X121550000Y-49727071D01*
%TD*%
%TA.AperFunction,Conductor*%
%TO.N,GND*%
G36*
X146017606Y-14729523D02*
G01*
X146032604Y-14733927D01*
X146091355Y-14771672D01*
X146092542Y-14773041D01*
X146120018Y-14827902D01*
X146121663Y-14835460D01*
X146124500Y-14861831D01*
X146124500Y-50098494D01*
X146119476Y-50133431D01*
X146112064Y-50158672D01*
X146080769Y-50211416D01*
X145599504Y-50692679D01*
X145599503Y-50692681D01*
X145599493Y-50692696D01*
X145533610Y-50806806D01*
X145533609Y-50806808D01*
X145499500Y-50934108D01*
X145499500Y-51535308D01*
X145494476Y-51570245D01*
X145487064Y-51595486D01*
X145455769Y-51648230D01*
X143371697Y-53732301D01*
X143388503Y-72979016D01*
X143368877Y-73046072D01*
X143316113Y-73091873D01*
X143256398Y-73102859D01*
X143233165Y-73101337D01*
X143220390Y-73100500D01*
X143220384Y-73100500D01*
X131094126Y-73100500D01*
X131094116Y-73100500D01*
X131054244Y-73103113D01*
X131038820Y-73105143D01*
X131015681Y-73108189D01*
X130946646Y-73097421D01*
X130894392Y-73051039D01*
X130875500Y-72985249D01*
X130875500Y-61886428D01*
X130880522Y-61851495D01*
X130887934Y-61826250D01*
X130919228Y-61773508D01*
X134929462Y-57763275D01*
X141080469Y-51612268D01*
X141126614Y-51532344D01*
X141130810Y-51516683D01*
X141150500Y-51443200D01*
X141150500Y-51282494D01*
X141155522Y-51247561D01*
X141155631Y-51247191D01*
X141159433Y-51234242D01*
X141197206Y-51175465D01*
X141260758Y-51146440D01*
X141264590Y-51145889D01*
X141269185Y-51145229D01*
X141318919Y-51148193D01*
X141327525Y-51150500D01*
X141327528Y-51150500D01*
X141472472Y-51150500D01*
X141472475Y-51150500D01*
X141612485Y-51112984D01*
X141738015Y-51040509D01*
X141840509Y-50938015D01*
X141912984Y-50812485D01*
X141950500Y-50672475D01*
X141950500Y-50527525D01*
X141915473Y-50396806D01*
X141914027Y-50389968D01*
X141913187Y-50386731D01*
X141913186Y-50386722D01*
X141784998Y-50037511D01*
X141758095Y-49964222D01*
X141750500Y-49921492D01*
X141750500Y-49469373D01*
X141755522Y-49434440D01*
X141755660Y-49433971D01*
X141762934Y-49409195D01*
X141794228Y-49356453D01*
X142363214Y-48787467D01*
X142391457Y-48766323D01*
X142401391Y-48760899D01*
X142469661Y-48746046D01*
X142535126Y-48770460D01*
X142576999Y-48826392D01*
X142577001Y-48826396D01*
X142579682Y-48833584D01*
X142587500Y-48876918D01*
X142587500Y-49172146D01*
X142603497Y-49231853D01*
X142603501Y-49231863D01*
X142605605Y-49239713D01*
X142605605Y-49239714D01*
X142611384Y-49261284D01*
X142611385Y-49261284D01*
X142611389Y-49261293D01*
X142657526Y-49341207D01*
X142657527Y-49341208D01*
X142657532Y-49341214D01*
X142657538Y-49341221D01*
X143033275Y-49716957D01*
X143066760Y-49778280D01*
X143061776Y-49847971D01*
X143060877Y-49850309D01*
X142988194Y-50033774D01*
X142987317Y-50036308D01*
X142987268Y-50036505D01*
X142986747Y-50038516D01*
X142949500Y-50177525D01*
X142949500Y-50322472D01*
X142949499Y-50322472D01*
X142956928Y-50350195D01*
X142985865Y-50458189D01*
X142987017Y-50462488D01*
X143051406Y-50574013D01*
X143057635Y-50584801D01*
X143059125Y-50587571D01*
X143059353Y-50587877D01*
X143161985Y-50690509D01*
X143162684Y-50691013D01*
X143165200Y-50692367D01*
X143284065Y-50760993D01*
X143289260Y-50764220D01*
X143292814Y-50766044D01*
X143301646Y-50771143D01*
X143301536Y-50771332D01*
X143305303Y-50772944D01*
X143317163Y-50780173D01*
X143364165Y-50831867D01*
X143375762Y-50900743D01*
X143375570Y-50902353D01*
X143355131Y-50957174D01*
X143352318Y-50961330D01*
X143337310Y-50979506D01*
X141324535Y-52992280D01*
X141324528Y-52992288D01*
X141324525Y-52992293D01*
X141279135Y-53070914D01*
X141279131Y-53070920D01*
X141278387Y-53072206D01*
X141278386Y-53072210D01*
X141254500Y-53161356D01*
X141254500Y-65602784D01*
X141249476Y-65637721D01*
X141242064Y-65662962D01*
X141210769Y-65715706D01*
X141164495Y-65761979D01*
X141164490Y-65761985D01*
X141164485Y-65761992D01*
X141092017Y-65887509D01*
X141091989Y-65887578D01*
X141091748Y-65888511D01*
X141054500Y-66027525D01*
X141054500Y-66172475D01*
X141074462Y-66246971D01*
X141092018Y-66312492D01*
X141162635Y-66434802D01*
X141164123Y-66437568D01*
X141164353Y-66437877D01*
X141266985Y-66540509D01*
X141267674Y-66541005D01*
X141270178Y-66542353D01*
X141389069Y-66610995D01*
X141392087Y-66612869D01*
X141392514Y-66612983D01*
X141392515Y-66612984D01*
X141532525Y-66650500D01*
X141532528Y-66650500D01*
X141547670Y-66650500D01*
X141582606Y-66655523D01*
X141597604Y-66659927D01*
X141656355Y-66697672D01*
X141657542Y-66699041D01*
X141685021Y-66753916D01*
X141693421Y-66792533D01*
X141694105Y-66793392D01*
X141699032Y-66808053D01*
X141727016Y-66912486D01*
X141727018Y-66912491D01*
X141797635Y-67034802D01*
X141799123Y-67037568D01*
X141799353Y-67037877D01*
X141901985Y-67140509D01*
X141902674Y-67141005D01*
X141905178Y-67142353D01*
X142024069Y-67210995D01*
X142027087Y-67212869D01*
X142027514Y-67212983D01*
X142027515Y-67212984D01*
X142167525Y-67250500D01*
X142167528Y-67250500D01*
X142312472Y-67250500D01*
X142312475Y-67250500D01*
X142452485Y-67212984D01*
X142578015Y-67140509D01*
X142680509Y-67038015D01*
X142752984Y-66912485D01*
X142790500Y-66772475D01*
X142790500Y-66627525D01*
X142752984Y-66487515D01*
X142724406Y-66438017D01*
X142680511Y-66361988D01*
X142680506Y-66361982D01*
X142680493Y-66361968D01*
X142639426Y-66320902D01*
X142618272Y-66292643D01*
X142605666Y-66269555D01*
X142590500Y-66210132D01*
X142590500Y-53436372D01*
X142595522Y-53401439D01*
X142595798Y-53400499D01*
X142602934Y-53376194D01*
X142634228Y-53323452D01*
X143739665Y-52218016D01*
X144905469Y-51052212D01*
X144914702Y-51036220D01*
X144949636Y-50975714D01*
X144951498Y-50972716D01*
X144951612Y-50972291D01*
X144951614Y-50972288D01*
X144957452Y-50950499D01*
X144967089Y-50914532D01*
X144972680Y-50905358D01*
X144976665Y-50875096D01*
X144976666Y-50875097D01*
X144978665Y-50859911D01*
X144981827Y-50844019D01*
X144986096Y-50828087D01*
X144986096Y-50828086D01*
X144988201Y-50820232D01*
X144988201Y-50820226D01*
X144989466Y-50815509D01*
X145000500Y-50774329D01*
X145000500Y-50380058D01*
X145005522Y-50345125D01*
X145005668Y-50344628D01*
X145012934Y-50319880D01*
X145044228Y-50267138D01*
X145387385Y-49923982D01*
X145742469Y-49568898D01*
X145788614Y-49488974D01*
X145791528Y-49478096D01*
X145791529Y-49478095D01*
X145791529Y-49478094D01*
X145791533Y-49478095D01*
X145791533Y-49478074D01*
X145795510Y-49463240D01*
X145801728Y-49440030D01*
X145812500Y-49399830D01*
X145812500Y-32135856D01*
X145788614Y-32046712D01*
X145787107Y-32044102D01*
X145742470Y-31966788D01*
X145392566Y-31616884D01*
X145362844Y-31569109D01*
X144975869Y-30430616D01*
X144974743Y-30426413D01*
X144971275Y-30419077D01*
X144969011Y-30413611D01*
X144964128Y-30401822D01*
X144963395Y-30400053D01*
X144923154Y-30302901D01*
X144897269Y-30240407D01*
X144897262Y-30240394D01*
X144786460Y-30074569D01*
X144786457Y-30074565D01*
X144786452Y-30074559D01*
X144645439Y-29933546D01*
X144645433Y-29933541D01*
X144645432Y-29933540D01*
X144549855Y-29869677D01*
X144479605Y-29822737D01*
X144479592Y-29822730D01*
X144479585Y-29822726D01*
X144295361Y-29746419D01*
X144295347Y-29746414D01*
X144295339Y-29746411D01*
X144295329Y-29746408D01*
X144295326Y-29746407D01*
X144295322Y-29746406D01*
X144099728Y-29707500D01*
X144099725Y-29707500D01*
X144099723Y-29707500D01*
X143900277Y-29707500D01*
X143900275Y-29707500D01*
X143900271Y-29707500D01*
X143704676Y-29746406D01*
X143704670Y-29746408D01*
X143704660Y-29746411D01*
X143704655Y-29746412D01*
X143704637Y-29746419D01*
X143520413Y-29822726D01*
X143520395Y-29822736D01*
X143480216Y-29849584D01*
X143448372Y-29864818D01*
X143435375Y-29868887D01*
X143365516Y-29870131D01*
X143306075Y-29833409D01*
X143277400Y-29777986D01*
X143275571Y-29769925D01*
X143272500Y-29742497D01*
X143272500Y-29161440D01*
X143273745Y-29157198D01*
X143277521Y-29126512D01*
X143278439Y-29123386D01*
X143281358Y-29113442D01*
X143290999Y-29098439D01*
X143292185Y-29094401D01*
X143295364Y-29091645D01*
X143319128Y-29054665D01*
X143382682Y-29025636D01*
X143444699Y-29032580D01*
X143452424Y-29035540D01*
X143476940Y-29048226D01*
X143520392Y-29077261D01*
X143520407Y-29077269D01*
X143597501Y-29109202D01*
X143663427Y-29136509D01*
X143699049Y-29151264D01*
X143703462Y-29153351D01*
X143900271Y-29192500D01*
X144099725Y-29192500D01*
X144099727Y-29192500D01*
X144202124Y-29172131D01*
X144269635Y-29158702D01*
X144295335Y-29153590D01*
X144402039Y-29109392D01*
X144437840Y-29094563D01*
X144446341Y-29091041D01*
X144473053Y-29079977D01*
X144475843Y-29079005D01*
X144477288Y-29078336D01*
X144481945Y-29076294D01*
X144491210Y-29072456D01*
X144500095Y-29063570D01*
X144645431Y-28966460D01*
X144786460Y-28825431D01*
X144897266Y-28659599D01*
X144904772Y-28641479D01*
X144930734Y-28578799D01*
X144973590Y-28475335D01*
X145012500Y-28279723D01*
X145012500Y-28080277D01*
X145012500Y-28080274D01*
X145012500Y-28080271D01*
X144973351Y-27883463D01*
X144971269Y-27879063D01*
X144946844Y-27820093D01*
X144922414Y-27761112D01*
X144897272Y-27700413D01*
X144897267Y-27700404D01*
X144897262Y-27700394D01*
X144786460Y-27534569D01*
X144786457Y-27534565D01*
X144786452Y-27534559D01*
X144645439Y-27393546D01*
X144645433Y-27393541D01*
X144645432Y-27393540D01*
X144549855Y-27329677D01*
X144479605Y-27282737D01*
X144479592Y-27282730D01*
X144479585Y-27282726D01*
X144295361Y-27206419D01*
X144295347Y-27206414D01*
X144295339Y-27206411D01*
X144295329Y-27206408D01*
X144295326Y-27206407D01*
X144295322Y-27206406D01*
X144099728Y-27167500D01*
X144099725Y-27167500D01*
X144099723Y-27167500D01*
X143900277Y-27167500D01*
X143900275Y-27167500D01*
X143900271Y-27167500D01*
X143704676Y-27206406D01*
X143704670Y-27206408D01*
X143704660Y-27206411D01*
X143704655Y-27206412D01*
X143704637Y-27206419D01*
X143520413Y-27282726D01*
X143520395Y-27282736D01*
X143480216Y-27309584D01*
X143448372Y-27324818D01*
X143435375Y-27328887D01*
X143365516Y-27330131D01*
X143306075Y-27293409D01*
X143277400Y-27237986D01*
X143275571Y-27229925D01*
X143272500Y-27202497D01*
X143272500Y-26905874D01*
X143277522Y-26870941D01*
X143277527Y-26870924D01*
X143281433Y-26857622D01*
X143319206Y-26798845D01*
X143382758Y-26769820D01*
X143386070Y-26769344D01*
X143441182Y-26773878D01*
X143443065Y-26774475D01*
X143461885Y-26782192D01*
X143468795Y-26785713D01*
X143515555Y-26809539D01*
X143515557Y-26809539D01*
X143515560Y-26809541D01*
X143704477Y-26870924D01*
X143900679Y-26902000D01*
X144099320Y-26902000D01*
X144099321Y-26902000D01*
X144243939Y-26879094D01*
X144285880Y-26872451D01*
X144285886Y-26872450D01*
X144287408Y-26872208D01*
X144295520Y-26870924D01*
X144295523Y-26870924D01*
X144484437Y-26809542D01*
X144661425Y-26719362D01*
X144698715Y-26692268D01*
X144169036Y-26162589D01*
X144135551Y-26101266D01*
X144140535Y-26031574D01*
X144182407Y-25975641D01*
X144194705Y-25967528D01*
X144233940Y-25944876D01*
X144304876Y-25873940D01*
X144327522Y-25834715D01*
X144378087Y-25786502D01*
X144446694Y-25773278D01*
X144511559Y-25799246D01*
X144522589Y-25809036D01*
X145052267Y-26338714D01*
X145052268Y-26338715D01*
X145079362Y-26301425D01*
X145169542Y-26124437D01*
X145230924Y-25935523D01*
X145230924Y-25935520D01*
X145262000Y-25739321D01*
X145262000Y-25540678D01*
X145240678Y-25406060D01*
X145232451Y-25354118D01*
X145232450Y-25354112D01*
X145232450Y-25354113D01*
X145230924Y-25344479D01*
X145230924Y-25344476D01*
X145169542Y-25155562D01*
X145169539Y-25155557D01*
X145169538Y-25155552D01*
X145079362Y-24978574D01*
X145079360Y-24978572D01*
X145079358Y-24978567D01*
X145052268Y-24941283D01*
X145052267Y-24941283D01*
X144522588Y-25470962D01*
X144461265Y-25504447D01*
X144391573Y-25499463D01*
X144335640Y-25457591D01*
X144327520Y-25445281D01*
X144304879Y-25406066D01*
X144304876Y-25406060D01*
X144233940Y-25335124D01*
X144194715Y-25312477D01*
X144146500Y-25261911D01*
X144133277Y-25193304D01*
X144159245Y-25128439D01*
X144169028Y-25117417D01*
X144698715Y-24587730D01*
X144677440Y-24572272D01*
X144661430Y-24560639D01*
X144484439Y-24470458D01*
X144484438Y-24470457D01*
X144484437Y-24470457D01*
X144424062Y-24450840D01*
X144295522Y-24409074D01*
X144099326Y-24378000D01*
X144099321Y-24378000D01*
X143900679Y-24378000D01*
X143900674Y-24378000D01*
X143714120Y-24407548D01*
X143714112Y-24407547D01*
X143714113Y-24407549D01*
X143704474Y-24409075D01*
X143599216Y-24443276D01*
X143515562Y-24470457D01*
X143515560Y-24470457D01*
X143515560Y-24470458D01*
X143468682Y-24494344D01*
X143435274Y-24505728D01*
X143421632Y-24508290D01*
X143352111Y-24501318D01*
X143297396Y-24457866D01*
X143297395Y-24457864D01*
X143295472Y-24455136D01*
X143274487Y-24403946D01*
X143274165Y-24402001D01*
X143272500Y-24381748D01*
X143272500Y-24081440D01*
X143277521Y-24046512D01*
X143279173Y-24040884D01*
X143281358Y-24033442D01*
X143319128Y-23974665D01*
X143382682Y-23945636D01*
X143444699Y-23952580D01*
X143452424Y-23955540D01*
X143476940Y-23968226D01*
X143520392Y-23997261D01*
X143520407Y-23997269D01*
X143680573Y-24063611D01*
X143699054Y-24071265D01*
X143703463Y-24073351D01*
X143900271Y-24112500D01*
X144099725Y-24112500D01*
X144099726Y-24112500D01*
X144146067Y-24103281D01*
X144285094Y-24075627D01*
X144295335Y-24073590D01*
X144458000Y-24006212D01*
X144479592Y-23997269D01*
X144479592Y-23997268D01*
X144479599Y-23997266D01*
X144645431Y-23886460D01*
X144786460Y-23745431D01*
X144897266Y-23579599D01*
X144973590Y-23395335D01*
X144981116Y-23357500D01*
X144986322Y-23331327D01*
X144986322Y-23331324D01*
X145012500Y-23199725D01*
X145012500Y-23000274D01*
X145012500Y-23000271D01*
X144973351Y-22803462D01*
X144971265Y-22799052D01*
X144961238Y-22774845D01*
X144961238Y-22774844D01*
X144923885Y-22684666D01*
X144897269Y-22620407D01*
X144897262Y-22620394D01*
X144786460Y-22454569D01*
X144786457Y-22454565D01*
X144786452Y-22454559D01*
X144645439Y-22313546D01*
X144645433Y-22313541D01*
X144645432Y-22313540D01*
X144550534Y-22250131D01*
X144479605Y-22202737D01*
X144479592Y-22202730D01*
X144479585Y-22202726D01*
X144295361Y-22126419D01*
X144295347Y-22126414D01*
X144295339Y-22126411D01*
X144295329Y-22126408D01*
X144295326Y-22126407D01*
X144295322Y-22126406D01*
X144099728Y-22087500D01*
X144099725Y-22087500D01*
X144099723Y-22087500D01*
X143900277Y-22087500D01*
X143900275Y-22087500D01*
X143900271Y-22087500D01*
X143704676Y-22126406D01*
X143704670Y-22126408D01*
X143704660Y-22126411D01*
X143704655Y-22126412D01*
X143704637Y-22126419D01*
X143520413Y-22202726D01*
X143520395Y-22202736D01*
X143480216Y-22229584D01*
X143448372Y-22244818D01*
X143435375Y-22248887D01*
X143365516Y-22250131D01*
X143306075Y-22213409D01*
X143277400Y-22157986D01*
X143275571Y-22149925D01*
X143272500Y-22122497D01*
X143272500Y-21970328D01*
X143292185Y-21903289D01*
X143344989Y-21857534D01*
X143356588Y-21852927D01*
X144292762Y-21534720D01*
X144292768Y-21534716D01*
X144293070Y-21534582D01*
X144296301Y-21533190D01*
X144357202Y-21507964D01*
X144457796Y-21466297D01*
X144473054Y-21459976D01*
X144475842Y-21459005D01*
X144477283Y-21458338D01*
X144481953Y-21456290D01*
X144491211Y-21452455D01*
X144500095Y-21443570D01*
X144645431Y-21346460D01*
X144786460Y-21205431D01*
X144897266Y-21039599D01*
X144973590Y-20855335D01*
X144992889Y-20758316D01*
X144996921Y-20738045D01*
X144996921Y-20738044D01*
X145012500Y-20659727D01*
X145012500Y-20460271D01*
X144973351Y-20263462D01*
X144971264Y-20259049D01*
X144960309Y-20232601D01*
X144897272Y-20080413D01*
X144897267Y-20080404D01*
X144897262Y-20080394D01*
X144786460Y-19914569D01*
X144786457Y-19914565D01*
X144786452Y-19914559D01*
X144645439Y-19773546D01*
X144645433Y-19773541D01*
X144645432Y-19773540D01*
X144479611Y-19662741D01*
X144479610Y-19662740D01*
X144479605Y-19662737D01*
X144479592Y-19662730D01*
X144479585Y-19662726D01*
X144295361Y-19586419D01*
X144295347Y-19586414D01*
X144295339Y-19586411D01*
X144295329Y-19586408D01*
X144295326Y-19586407D01*
X144295322Y-19586406D01*
X144099728Y-19547500D01*
X144099725Y-19547500D01*
X144099723Y-19547500D01*
X143900277Y-19547500D01*
X143900275Y-19547500D01*
X143900271Y-19547500D01*
X143704676Y-19586406D01*
X143704670Y-19586408D01*
X143704660Y-19586411D01*
X143704655Y-19586412D01*
X143704637Y-19586419D01*
X143520413Y-19662726D01*
X143520404Y-19662731D01*
X143520387Y-19662741D01*
X143354566Y-19773540D01*
X143354565Y-19773541D01*
X143354559Y-19773546D01*
X143213546Y-19914559D01*
X143213541Y-19914565D01*
X143213540Y-19914566D01*
X143102741Y-20080387D01*
X143102731Y-20080404D01*
X143102728Y-20080410D01*
X143026798Y-20263723D01*
X143025297Y-20267182D01*
X142705864Y-21206964D01*
X142629230Y-21432419D01*
X142597800Y-21481870D01*
X142597668Y-21481997D01*
X142535710Y-21514292D01*
X142466127Y-21507964D01*
X142412871Y-21467539D01*
X142411930Y-21466298D01*
X142406878Y-21459631D01*
X142391144Y-21432191D01*
X142357269Y-21350407D01*
X142357262Y-21350394D01*
X142246460Y-21184569D01*
X142246457Y-21184565D01*
X142246452Y-21184559D01*
X142105439Y-21043546D01*
X142105433Y-21043541D01*
X142105432Y-21043540D01*
X141939611Y-20932741D01*
X141939610Y-20932740D01*
X141939605Y-20932737D01*
X141939592Y-20932730D01*
X141939585Y-20932726D01*
X141755361Y-20856419D01*
X141755347Y-20856414D01*
X141755339Y-20856411D01*
X141755329Y-20856408D01*
X141755326Y-20856407D01*
X141755322Y-20856406D01*
X141559728Y-20817500D01*
X141559725Y-20817500D01*
X141559723Y-20817500D01*
X141360277Y-20817500D01*
X141360275Y-20817500D01*
X141360271Y-20817500D01*
X141164676Y-20856406D01*
X141164670Y-20856408D01*
X141164660Y-20856411D01*
X141164655Y-20856412D01*
X141164637Y-20856419D01*
X140980413Y-20932726D01*
X140980392Y-20932737D01*
X140956213Y-20948894D01*
X140924373Y-20964126D01*
X140911377Y-20968195D01*
X140841519Y-20969441D01*
X140782077Y-20932721D01*
X140753400Y-20877295D01*
X140751571Y-20869234D01*
X140748500Y-20841806D01*
X140748500Y-20702646D01*
X140768185Y-20635607D01*
X140820989Y-20589852D01*
X140838657Y-20583353D01*
X141812203Y-20307205D01*
X141846041Y-20302500D01*
X142250796Y-20302500D01*
X142258648Y-20300117D01*
X142319740Y-20287966D01*
X142402601Y-20232601D01*
X142457966Y-20149740D01*
X142472500Y-20076674D01*
X142472500Y-18503326D01*
X142472500Y-18503323D01*
X142472500Y-18503139D01*
X142472064Y-18501134D01*
X142457972Y-18430289D01*
X142457967Y-18430266D01*
X142457967Y-18430264D01*
X142457966Y-18430260D01*
X142457965Y-18430258D01*
X142457964Y-18430256D01*
X142402601Y-18347399D01*
X142329891Y-18298816D01*
X142325826Y-18295480D01*
X142319739Y-18292033D01*
X142319735Y-18292032D01*
X142319709Y-18292026D01*
X142246680Y-18277500D01*
X142246677Y-18277500D01*
X142246674Y-18277500D01*
X140673326Y-18277500D01*
X140673323Y-18277500D01*
X140673319Y-18277500D01*
X140600285Y-18292027D01*
X140600262Y-18292032D01*
X140600258Y-18292033D01*
X140517399Y-18347399D01*
X140462033Y-18430258D01*
X140462032Y-18430266D01*
X140462028Y-18430281D01*
X140447500Y-18503318D01*
X140447500Y-18903956D01*
X140442794Y-18937794D01*
X140092574Y-20172474D01*
X140080669Y-20200633D01*
X140075554Y-20209493D01*
X140075544Y-20209510D01*
X140071393Y-20216696D01*
X140071383Y-20216715D01*
X140055395Y-20276380D01*
X140054286Y-20280266D01*
X140048295Y-20300023D01*
X140048294Y-20300025D01*
X140047410Y-20304470D01*
X140047407Y-20304493D01*
X140042500Y-20354326D01*
X140042500Y-20678041D01*
X140045117Y-20691197D01*
X140047500Y-20715389D01*
X140047500Y-35963915D01*
X140045117Y-35988107D01*
X140042500Y-36001262D01*
X140042500Y-36005663D01*
X140042501Y-36005693D01*
X140047411Y-36055529D01*
X140047413Y-36055543D01*
X140047414Y-36055545D01*
X140048305Y-36060022D01*
X140048306Y-36060024D01*
X140048308Y-36060034D01*
X140054303Y-36079795D01*
X140055415Y-36083687D01*
X140058824Y-36096405D01*
X140058825Y-36096408D01*
X140058826Y-36096411D01*
X140071386Y-36143287D01*
X140071387Y-36143290D01*
X140084258Y-36165584D01*
X140094521Y-36188419D01*
X140172090Y-36421492D01*
X140172090Y-36421493D01*
X140373683Y-37027231D01*
X140376175Y-37097056D01*
X140373431Y-37106292D01*
X140165864Y-37716963D01*
X140165864Y-37716964D01*
X140097154Y-37919109D01*
X140067432Y-37966884D01*
X139766788Y-38267528D01*
X139738538Y-38288677D01*
X139728611Y-38294098D01*
X139660338Y-38308952D01*
X139594873Y-38284538D01*
X139553000Y-38228606D01*
X139550313Y-38221400D01*
X139542500Y-38178080D01*
X139542500Y-19892858D01*
X139542500Y-19892856D01*
X139518614Y-19803712D01*
X139518611Y-19803706D01*
X139478744Y-19734656D01*
X139477565Y-19732035D01*
X139473456Y-19725385D01*
X139472550Y-19723869D01*
X136114371Y-16365690D01*
X136093219Y-16337434D01*
X136085727Y-16323713D01*
X136070876Y-16255444D01*
X136071508Y-16246605D01*
X136087804Y-16193451D01*
X136148984Y-16087485D01*
X136186500Y-15947475D01*
X136186500Y-15802525D01*
X136148984Y-15662515D01*
X136076509Y-15536985D01*
X135974015Y-15434491D01*
X135973877Y-15434353D01*
X135973568Y-15434123D01*
X135970802Y-15432635D01*
X135920243Y-15403445D01*
X135891808Y-15373624D01*
X135837007Y-15358939D01*
X135837007Y-15358940D01*
X135772740Y-15341720D01*
X135708475Y-15324500D01*
X135708474Y-15324500D01*
X135563525Y-15324500D01*
X135434994Y-15358939D01*
X135434993Y-15358940D01*
X135427338Y-15360991D01*
X135423510Y-15362017D01*
X135297991Y-15434485D01*
X135297984Y-15434490D01*
X135297968Y-15434505D01*
X135195505Y-15536968D01*
X135195490Y-15536984D01*
X135195485Y-15536992D01*
X135123017Y-15662509D01*
X135122989Y-15662578D01*
X135122748Y-15663511D01*
X135085500Y-15802525D01*
X135085500Y-15947474D01*
X135123013Y-16087477D01*
X135123017Y-16087488D01*
X135123018Y-16087489D01*
X135195485Y-16213006D01*
X135195490Y-16213014D01*
X135195505Y-16213030D01*
X135236573Y-16254097D01*
X135257725Y-16282352D01*
X135270332Y-16305440D01*
X135285500Y-16364867D01*
X135285500Y-16429142D01*
X135309382Y-16518273D01*
X135309387Y-16518290D01*
X135309391Y-16518298D01*
X135355523Y-16598202D01*
X135355527Y-16598208D01*
X135355529Y-16598211D01*
X135355530Y-16598212D01*
X137049352Y-18292034D01*
X137614679Y-18857361D01*
X138172024Y-19414705D01*
X138193176Y-19442960D01*
X138197488Y-19450857D01*
X138212339Y-19519130D01*
X138187921Y-19584594D01*
X138131988Y-19626465D01*
X138068806Y-19632683D01*
X138063748Y-19631864D01*
X138036146Y-19624024D01*
X137945354Y-19586416D01*
X137945343Y-19586413D01*
X137945339Y-19586411D01*
X137945329Y-19586408D01*
X137945326Y-19586407D01*
X137945322Y-19586406D01*
X137749728Y-19547500D01*
X137749725Y-19547500D01*
X137749723Y-19547500D01*
X137550277Y-19547500D01*
X137550275Y-19547500D01*
X137550271Y-19547500D01*
X137354676Y-19586406D01*
X137354670Y-19586408D01*
X137354660Y-19586411D01*
X137354655Y-19586412D01*
X137354637Y-19586419D01*
X137170413Y-19662726D01*
X137170404Y-19662731D01*
X137170387Y-19662741D01*
X137004566Y-19773540D01*
X137004565Y-19773541D01*
X137004559Y-19773546D01*
X136863546Y-19914559D01*
X136863541Y-19914565D01*
X136863540Y-19914566D01*
X136752741Y-20080387D01*
X136752731Y-20080404D01*
X136752726Y-20080413D01*
X136676419Y-20264637D01*
X136676406Y-20264676D01*
X136637500Y-20460270D01*
X136637500Y-20615356D01*
X136632237Y-20633276D01*
X136676406Y-20855322D01*
X136676407Y-20855326D01*
X136676408Y-20855329D01*
X136676411Y-20855339D01*
X136676414Y-20855347D01*
X136676419Y-20855361D01*
X136752726Y-21039585D01*
X136752731Y-21039594D01*
X136752741Y-21039611D01*
X136863540Y-21205432D01*
X136863541Y-21205433D01*
X136863546Y-21205439D01*
X137004559Y-21346452D01*
X137004565Y-21346457D01*
X137004569Y-21346460D01*
X137170394Y-21457262D01*
X137170407Y-21457269D01*
X137170409Y-21457269D01*
X137170413Y-21457272D01*
X137345641Y-21529852D01*
X137345643Y-21529853D01*
X137349061Y-21531269D01*
X137355970Y-21534536D01*
X137360507Y-21535738D01*
X137768441Y-21671500D01*
X138276657Y-21840636D01*
X138334050Y-21880482D01*
X138360789Y-21945033D01*
X138361500Y-21958291D01*
X138361500Y-22107867D01*
X138356475Y-22142809D01*
X138352637Y-22155877D01*
X138314859Y-22214653D01*
X138251301Y-22243674D01*
X138189283Y-22236721D01*
X138181569Y-22233765D01*
X138157061Y-22221082D01*
X138129617Y-22202745D01*
X138129616Y-22202744D01*
X138129605Y-22202737D01*
X138129592Y-22202730D01*
X138129585Y-22202726D01*
X137945361Y-22126419D01*
X137945347Y-22126414D01*
X137945339Y-22126411D01*
X137945329Y-22126408D01*
X137945326Y-22126407D01*
X137945322Y-22126406D01*
X137749728Y-22087500D01*
X137749725Y-22087500D01*
X137749723Y-22087500D01*
X137550277Y-22087500D01*
X137550275Y-22087500D01*
X137550271Y-22087500D01*
X137354676Y-22126406D01*
X137354670Y-22126408D01*
X137354660Y-22126411D01*
X137354655Y-22126412D01*
X137354637Y-22126419D01*
X137170413Y-22202726D01*
X137170404Y-22202731D01*
X137170399Y-22202734D01*
X137170394Y-22202737D01*
X137131390Y-22228799D01*
X137004566Y-22313540D01*
X137004565Y-22313541D01*
X137004559Y-22313546D01*
X136863546Y-22454559D01*
X136863541Y-22454565D01*
X136863540Y-22454566D01*
X136752741Y-22620387D01*
X136752731Y-22620404D01*
X136752726Y-22620413D01*
X136676419Y-22804637D01*
X136676406Y-22804676D01*
X136637500Y-23000270D01*
X136637500Y-23155356D01*
X136632237Y-23173276D01*
X136676406Y-23395322D01*
X136676407Y-23395326D01*
X136676408Y-23395329D01*
X136676411Y-23395339D01*
X136676414Y-23395347D01*
X136676419Y-23395361D01*
X136752726Y-23579585D01*
X136752731Y-23579594D01*
X136752741Y-23579611D01*
X136863540Y-23745432D01*
X136863541Y-23745433D01*
X136863546Y-23745439D01*
X137004559Y-23886452D01*
X137004565Y-23886457D01*
X137004569Y-23886460D01*
X137170394Y-23997262D01*
X137170407Y-23997269D01*
X137170409Y-23997269D01*
X137170413Y-23997272D01*
X137227178Y-24020784D01*
X137330573Y-24063611D01*
X137349054Y-24071265D01*
X137353463Y-24073351D01*
X137550271Y-24112500D01*
X137749725Y-24112500D01*
X137749726Y-24112500D01*
X137796067Y-24103281D01*
X137935094Y-24075627D01*
X137945335Y-24073590D01*
X138108000Y-24006212D01*
X138129592Y-23997269D01*
X138129592Y-23997268D01*
X138129599Y-23997266D01*
X138153783Y-23981107D01*
X138185617Y-23965874D01*
X138198620Y-23961802D01*
X138268477Y-23960556D01*
X138327920Y-23997275D01*
X138356594Y-24052687D01*
X138358423Y-24060744D01*
X138361500Y-24088195D01*
X138361500Y-24365971D01*
X138356475Y-24400912D01*
X138352564Y-24414229D01*
X138314787Y-24473005D01*
X138251229Y-24502027D01*
X138247924Y-24502502D01*
X138192814Y-24497966D01*
X138190937Y-24497371D01*
X138172114Y-24489654D01*
X138134433Y-24470455D01*
X137945523Y-24409075D01*
X137749326Y-24378000D01*
X137749321Y-24378000D01*
X137550679Y-24378000D01*
X137550674Y-24378000D01*
X137364120Y-24407548D01*
X137364112Y-24407548D01*
X137364113Y-24407549D01*
X137354474Y-24409075D01*
X137249216Y-24443276D01*
X137165562Y-24470457D01*
X137120998Y-24493164D01*
X136988564Y-24560642D01*
X136951282Y-24587729D01*
X136951282Y-24587730D01*
X137268496Y-24904944D01*
X137480963Y-25117410D01*
X137514448Y-25178733D01*
X137509464Y-25248424D01*
X137467593Y-25304358D01*
X137455284Y-25312477D01*
X137416063Y-25335122D01*
X137416057Y-25335126D01*
X137345126Y-25406057D01*
X137345119Y-25406066D01*
X137322476Y-25445284D01*
X137271908Y-25493498D01*
X137203300Y-25506719D01*
X137138436Y-25480749D01*
X137127410Y-25470962D01*
X136597730Y-24941282D01*
X136570642Y-24978564D01*
X136510898Y-25095818D01*
X136480457Y-25155562D01*
X136473908Y-25175717D01*
X136419075Y-25344474D01*
X136418857Y-25345853D01*
X136388000Y-25540678D01*
X136388000Y-25739321D01*
X136409322Y-25873940D01*
X136417548Y-25925878D01*
X136417549Y-25925886D01*
X136419075Y-25935524D01*
X136480458Y-26124441D01*
X136570641Y-26301433D01*
X136597727Y-26338712D01*
X136597730Y-26338716D01*
X136597730Y-26338715D01*
X136597731Y-26338716D01*
X137127412Y-25809034D01*
X137188733Y-25775551D01*
X137258424Y-25780535D01*
X137314358Y-25822406D01*
X137322476Y-25834714D01*
X137345124Y-25873940D01*
X137416060Y-25944876D01*
X137416063Y-25944877D01*
X137416066Y-25944880D01*
X137455282Y-25967522D01*
X137503497Y-26018089D01*
X137516719Y-26086697D01*
X137490751Y-26151561D01*
X137480962Y-26162589D01*
X136951283Y-26692267D01*
X136951282Y-26692268D01*
X136951283Y-26692268D01*
X136951283Y-26692269D01*
X136988567Y-26719358D01*
X137072187Y-26761965D01*
X137165557Y-26809540D01*
X137165559Y-26809540D01*
X137165562Y-26809542D01*
X137229378Y-26830277D01*
X137354476Y-26870924D01*
X137450280Y-26886098D01*
X137550679Y-26902000D01*
X137749320Y-26902000D01*
X137749321Y-26902000D01*
X137893939Y-26879094D01*
X137935880Y-26872451D01*
X137935886Y-26872450D01*
X137941483Y-26871563D01*
X137945520Y-26870924D01*
X137945523Y-26870924D01*
X138134437Y-26809542D01*
X138165324Y-26793804D01*
X138198724Y-26782422D01*
X138212371Y-26779860D01*
X138281892Y-26786834D01*
X138336598Y-26830277D01*
X138338520Y-26833003D01*
X138359503Y-26884152D01*
X138359826Y-26886098D01*
X138361500Y-26906402D01*
X138361500Y-27187867D01*
X138356475Y-27222809D01*
X138352637Y-27235877D01*
X138314859Y-27294653D01*
X138251301Y-27323674D01*
X138189283Y-27316721D01*
X138181569Y-27313765D01*
X138157061Y-27301082D01*
X138129617Y-27282745D01*
X138129616Y-27282744D01*
X138129605Y-27282737D01*
X138129592Y-27282730D01*
X138129585Y-27282726D01*
X137945361Y-27206419D01*
X137945347Y-27206414D01*
X137945339Y-27206411D01*
X137945329Y-27206408D01*
X137945326Y-27206407D01*
X137945322Y-27206406D01*
X137749728Y-27167500D01*
X137749725Y-27167500D01*
X137749723Y-27167500D01*
X137550277Y-27167500D01*
X137550275Y-27167500D01*
X137550271Y-27167500D01*
X137354676Y-27206406D01*
X137354670Y-27206408D01*
X137354660Y-27206411D01*
X137354655Y-27206412D01*
X137354637Y-27206419D01*
X137170413Y-27282726D01*
X137170404Y-27282731D01*
X137170399Y-27282734D01*
X137170394Y-27282737D01*
X137131390Y-27308799D01*
X137004566Y-27393540D01*
X137004565Y-27393541D01*
X137004559Y-27393546D01*
X136863546Y-27534559D01*
X136863541Y-27534565D01*
X136863540Y-27534566D01*
X136752741Y-27700387D01*
X136752731Y-27700404D01*
X136752726Y-27700413D01*
X136675378Y-27887150D01*
X136287057Y-29053960D01*
X136254972Y-29104546D01*
X136250089Y-29109202D01*
X136187987Y-29141219D01*
X136118434Y-29134578D01*
X136065697Y-29094361D01*
X136059704Y-29086454D01*
X136043971Y-29059015D01*
X136007269Y-28970407D01*
X136007262Y-28970394D01*
X135896460Y-28804569D01*
X135896457Y-28804565D01*
X135896452Y-28804559D01*
X135755439Y-28663546D01*
X135755433Y-28663541D01*
X135755432Y-28663540D01*
X135589611Y-28552741D01*
X135589606Y-28552738D01*
X135589605Y-28552737D01*
X135589592Y-28552730D01*
X135589585Y-28552726D01*
X135405361Y-28476419D01*
X135405347Y-28476414D01*
X135405339Y-28476411D01*
X135405329Y-28476408D01*
X135405326Y-28476407D01*
X135405322Y-28476406D01*
X135209728Y-28437500D01*
X135209725Y-28437500D01*
X135209723Y-28437500D01*
X135010277Y-28437500D01*
X135010275Y-28437500D01*
X135010271Y-28437500D01*
X134814676Y-28476406D01*
X134814670Y-28476408D01*
X134814660Y-28476411D01*
X134814655Y-28476412D01*
X134814637Y-28476419D01*
X134630413Y-28552726D01*
X134630392Y-28552737D01*
X134606213Y-28568894D01*
X134574373Y-28584126D01*
X134561377Y-28588195D01*
X134491519Y-28589441D01*
X134432077Y-28552721D01*
X134403400Y-28497295D01*
X134401571Y-28489234D01*
X134398500Y-28461806D01*
X134398500Y-27902131D01*
X134400150Y-27896510D01*
X134403521Y-27867203D01*
X134405620Y-27860053D01*
X134407358Y-27854133D01*
X134416999Y-27839130D01*
X134418185Y-27835092D01*
X134421364Y-27832336D01*
X134445128Y-27795356D01*
X134508682Y-27766327D01*
X134570699Y-27773271D01*
X134578424Y-27776231D01*
X134602943Y-27788919D01*
X134630391Y-27807260D01*
X134630399Y-27807264D01*
X134630401Y-27807266D01*
X134630403Y-27807267D01*
X134630407Y-27807269D01*
X134790573Y-27873611D01*
X134809054Y-27881265D01*
X134813463Y-27883351D01*
X135010271Y-27922500D01*
X135209725Y-27922500D01*
X135209726Y-27922500D01*
X135236044Y-27917264D01*
X135341324Y-27896322D01*
X135341325Y-27896322D01*
X135354196Y-27893761D01*
X135405335Y-27883590D01*
X135589585Y-27807272D01*
X135589592Y-27807269D01*
X135589592Y-27807268D01*
X135589599Y-27807266D01*
X135755431Y-27696460D01*
X135896460Y-27555431D01*
X136007266Y-27389599D01*
X136008964Y-27385501D01*
X136051529Y-27282737D01*
X136083590Y-27205335D01*
X136111740Y-27063818D01*
X136122500Y-27009725D01*
X136122500Y-26810274D01*
X136122500Y-26810271D01*
X136083351Y-26613464D01*
X136081266Y-26609056D01*
X136065912Y-26571985D01*
X136014585Y-26448069D01*
X136007272Y-26430413D01*
X136007267Y-26430404D01*
X136007262Y-26430394D01*
X135896460Y-26264569D01*
X135896457Y-26264565D01*
X135896452Y-26264559D01*
X135755439Y-26123546D01*
X135755433Y-26123541D01*
X135755432Y-26123540D01*
X135589611Y-26012741D01*
X135589606Y-26012738D01*
X135589605Y-26012737D01*
X135589592Y-26012730D01*
X135589585Y-26012726D01*
X135405361Y-25936419D01*
X135405347Y-25936414D01*
X135405339Y-25936411D01*
X135405329Y-25936408D01*
X135405326Y-25936407D01*
X135405322Y-25936406D01*
X135209728Y-25897500D01*
X135209725Y-25897500D01*
X135209723Y-25897500D01*
X135010277Y-25897500D01*
X135010275Y-25897500D01*
X135010271Y-25897500D01*
X134814676Y-25936406D01*
X134814670Y-25936408D01*
X134814660Y-25936411D01*
X134814655Y-25936412D01*
X134814637Y-25936419D01*
X134630413Y-26012726D01*
X134630392Y-26012737D01*
X134606213Y-26028894D01*
X134574373Y-26044126D01*
X134561377Y-26048195D01*
X134491519Y-26049441D01*
X134432077Y-26012721D01*
X134403400Y-25957295D01*
X134401571Y-25949234D01*
X134398500Y-25921806D01*
X134398500Y-25362131D01*
X134403521Y-25327203D01*
X134404075Y-25325314D01*
X134407358Y-25314133D01*
X134445128Y-25255356D01*
X134508682Y-25226327D01*
X134570699Y-25233271D01*
X134578424Y-25236231D01*
X134602943Y-25248919D01*
X134630391Y-25267260D01*
X134630403Y-25267267D01*
X134630418Y-25267274D01*
X134719949Y-25304358D01*
X134794226Y-25335124D01*
X134809055Y-25341266D01*
X134813464Y-25343351D01*
X134814669Y-25343590D01*
X134814670Y-25343591D01*
X134826042Y-25345853D01*
X135010271Y-25382500D01*
X135209725Y-25382500D01*
X135209726Y-25382500D01*
X135256067Y-25373281D01*
X135395094Y-25345627D01*
X135405335Y-25343590D01*
X135589599Y-25267266D01*
X135755431Y-25156460D01*
X135896460Y-25015431D01*
X136007266Y-24849599D01*
X136008964Y-24845501D01*
X136068563Y-24701614D01*
X136083590Y-24665335D01*
X136083683Y-24664871D01*
X136115049Y-24507183D01*
X136115049Y-24507181D01*
X136115177Y-24506541D01*
X136122500Y-24469725D01*
X136122500Y-24270274D01*
X136122500Y-24270271D01*
X136083351Y-24073462D01*
X136081265Y-24069051D01*
X136075219Y-24054455D01*
X136071790Y-24046177D01*
X136007269Y-23890407D01*
X136007262Y-23890394D01*
X135896460Y-23724569D01*
X135896459Y-23724568D01*
X135896458Y-23724566D01*
X135896457Y-23724565D01*
X135896452Y-23724559D01*
X135755439Y-23583546D01*
X135755433Y-23583541D01*
X135755432Y-23583540D01*
X135589611Y-23472741D01*
X135589610Y-23472740D01*
X135589605Y-23472737D01*
X135589592Y-23472730D01*
X135589585Y-23472726D01*
X135405361Y-23396419D01*
X135405347Y-23396414D01*
X135405339Y-23396411D01*
X135405329Y-23396408D01*
X135405326Y-23396407D01*
X135405322Y-23396406D01*
X135209728Y-23357500D01*
X135209725Y-23357500D01*
X135209723Y-23357500D01*
X135010277Y-23357500D01*
X135010275Y-23357500D01*
X135010271Y-23357500D01*
X134814676Y-23396406D01*
X134814670Y-23396408D01*
X134814660Y-23396411D01*
X134814655Y-23396412D01*
X134814637Y-23396419D01*
X134630413Y-23472726D01*
X134630392Y-23472737D01*
X134606213Y-23488894D01*
X134574373Y-23504126D01*
X134561377Y-23508195D01*
X134491519Y-23509441D01*
X134432077Y-23472721D01*
X134403400Y-23417295D01*
X134401571Y-23409234D01*
X134398500Y-23381806D01*
X134398500Y-22822131D01*
X134403521Y-22787203D01*
X134404075Y-22785314D01*
X134407358Y-22774133D01*
X134445128Y-22715356D01*
X134508682Y-22686327D01*
X134570699Y-22693271D01*
X134578424Y-22696231D01*
X134602943Y-22708919D01*
X134630391Y-22727260D01*
X134630399Y-22727264D01*
X134630401Y-22727266D01*
X134630403Y-22727267D01*
X134630407Y-22727269D01*
X134809056Y-22801267D01*
X134813487Y-22803362D01*
X134814227Y-22803505D01*
X134814970Y-22803651D01*
X135010271Y-22842500D01*
X135209725Y-22842500D01*
X135209726Y-22842500D01*
X135256067Y-22833281D01*
X135395094Y-22805627D01*
X135405335Y-22803590D01*
X135569310Y-22735670D01*
X135589592Y-22727269D01*
X135589592Y-22727268D01*
X135589599Y-22727266D01*
X135755431Y-22616460D01*
X135896460Y-22475431D01*
X136007266Y-22309599D01*
X136008964Y-22305501D01*
X136051529Y-22202737D01*
X136083590Y-22125335D01*
X136114423Y-21970328D01*
X136122500Y-21929725D01*
X136122500Y-21730271D01*
X136083350Y-21533459D01*
X136081267Y-21529054D01*
X136071434Y-21505316D01*
X136071413Y-21505269D01*
X136071392Y-21505217D01*
X136007269Y-21350407D01*
X136007262Y-21350394D01*
X135896460Y-21184569D01*
X135896457Y-21184565D01*
X135896452Y-21184559D01*
X135755439Y-21043546D01*
X135755433Y-21043541D01*
X135755432Y-21043540D01*
X135589611Y-20932741D01*
X135589610Y-20932740D01*
X135589605Y-20932737D01*
X135589592Y-20932730D01*
X135589585Y-20932726D01*
X135405361Y-20856419D01*
X135405347Y-20856414D01*
X135405339Y-20856411D01*
X135405329Y-20856408D01*
X135405326Y-20856407D01*
X135405322Y-20856406D01*
X135209728Y-20817500D01*
X135209725Y-20817500D01*
X135209723Y-20817500D01*
X135010277Y-20817500D01*
X135010275Y-20817500D01*
X135010271Y-20817500D01*
X134814676Y-20856406D01*
X134814670Y-20856408D01*
X134814660Y-20856411D01*
X134814655Y-20856412D01*
X134814637Y-20856419D01*
X134630413Y-20932726D01*
X134630392Y-20932737D01*
X134606213Y-20948894D01*
X134574373Y-20964126D01*
X134561377Y-20968195D01*
X134491519Y-20969441D01*
X134432077Y-20932721D01*
X134403400Y-20877295D01*
X134401571Y-20869234D01*
X134398500Y-20841806D01*
X134398500Y-20723181D01*
X134400258Y-20704256D01*
X134400194Y-20704251D01*
X134400195Y-20704234D01*
X134400047Y-20704214D01*
X134400456Y-20701223D01*
X134400459Y-20701210D01*
X134400856Y-20696661D01*
X134400855Y-20696658D01*
X134401120Y-20693635D01*
X134402037Y-20693714D01*
X134423042Y-20631066D01*
X134477541Y-20587345D01*
X134490898Y-20582718D01*
X135462199Y-20307205D01*
X135496037Y-20302500D01*
X135900796Y-20302500D01*
X135908648Y-20300117D01*
X135969740Y-20287966D01*
X136052601Y-20232601D01*
X136107966Y-20149740D01*
X136122500Y-20076674D01*
X136122500Y-18503326D01*
X136122500Y-18503323D01*
X136122500Y-18503139D01*
X136122064Y-18501134D01*
X136107972Y-18430289D01*
X136107967Y-18430266D01*
X136107967Y-18430264D01*
X136107966Y-18430260D01*
X136107965Y-18430258D01*
X136107964Y-18430256D01*
X136052601Y-18347399D01*
X135979891Y-18298816D01*
X135975826Y-18295480D01*
X135969739Y-18292033D01*
X135969735Y-18292032D01*
X135969709Y-18292026D01*
X135896680Y-18277500D01*
X135896677Y-18277500D01*
X135896674Y-18277500D01*
X134323326Y-18277500D01*
X134323323Y-18277500D01*
X134323319Y-18277500D01*
X134250285Y-18292027D01*
X134250262Y-18292032D01*
X134250258Y-18292033D01*
X134167399Y-18347399D01*
X134112033Y-18430258D01*
X134112032Y-18430266D01*
X134112028Y-18430281D01*
X134097500Y-18503318D01*
X134097500Y-18903955D01*
X134092794Y-18937793D01*
X133742573Y-20172475D01*
X133730670Y-20200630D01*
X133725556Y-20209489D01*
X133725544Y-20209510D01*
X133721393Y-20216696D01*
X133721383Y-20216715D01*
X133721382Y-20216717D01*
X133710286Y-20258129D01*
X133707260Y-20267818D01*
X133704867Y-20274503D01*
X133704848Y-20274561D01*
X133704198Y-20276700D01*
X133704193Y-20276718D01*
X133698064Y-20301183D01*
X133698059Y-20301208D01*
X133697618Y-20303429D01*
X133697617Y-20303430D01*
X133696837Y-20308702D01*
X133693945Y-20328245D01*
X133693722Y-20330517D01*
X133693721Y-20330531D01*
X133692500Y-20355456D01*
X133692500Y-20635578D01*
X133672815Y-20702617D01*
X133620011Y-20748372D01*
X133550853Y-20758316D01*
X133487297Y-20729291D01*
X133472948Y-20714609D01*
X133472771Y-20714395D01*
X133460938Y-20697367D01*
X133449780Y-20678042D01*
X133446786Y-20672856D01*
X133445607Y-20670234D01*
X133441497Y-20663584D01*
X133440589Y-20662065D01*
X133337877Y-20559353D01*
X133337568Y-20559123D01*
X133334802Y-20557635D01*
X133284242Y-20528444D01*
X133255809Y-20498625D01*
X133211324Y-20486705D01*
X133191918Y-20481505D01*
X133191918Y-20481504D01*
X133097715Y-20456263D01*
X133072475Y-20449500D01*
X133072474Y-20449500D01*
X132927525Y-20449500D01*
X132808081Y-20481505D01*
X132808080Y-20481504D01*
X132787510Y-20487017D01*
X132787507Y-20487018D01*
X132661992Y-20559485D01*
X132661984Y-20559490D01*
X132661979Y-20559495D01*
X132559489Y-20661986D01*
X132559486Y-20661989D01*
X132552798Y-20673575D01*
X132530984Y-20701313D01*
X132522800Y-20709116D01*
X132460700Y-20741134D01*
X132391146Y-20734495D01*
X132336224Y-20691306D01*
X132336177Y-20691240D01*
X132335820Y-20690738D01*
X132314585Y-20639412D01*
X132314213Y-20637197D01*
X132312500Y-20616659D01*
X132312500Y-20460271D01*
X132273351Y-20263462D01*
X132271264Y-20259049D01*
X132260309Y-20232601D01*
X132197272Y-20080413D01*
X132197262Y-20080394D01*
X132189899Y-20069374D01*
X132182322Y-20056394D01*
X132179738Y-20051278D01*
X131849254Y-19530846D01*
X131747839Y-19371143D01*
X131643994Y-19207612D01*
X131628897Y-19173231D01*
X131626615Y-19164713D01*
X131626613Y-19164710D01*
X131605148Y-19127531D01*
X131600439Y-19118545D01*
X131597385Y-19112087D01*
X131597384Y-19112085D01*
X131596304Y-19110064D01*
X131583429Y-19088576D01*
X131583426Y-19088572D01*
X131583421Y-19088563D01*
X131582184Y-19086712D01*
X131582172Y-19086694D01*
X131567248Y-19066561D01*
X131565792Y-19064786D01*
X131548915Y-19046161D01*
X131548907Y-19046153D01*
X131548888Y-19046133D01*
X131499068Y-18996314D01*
X131377213Y-18874459D01*
X131342434Y-18845910D01*
X131333429Y-18837747D01*
X130215211Y-17719529D01*
X130215204Y-17719524D01*
X130149425Y-17681547D01*
X130142896Y-17676537D01*
X130127682Y-17670235D01*
X130119520Y-17669161D01*
X130046144Y-17649500D01*
X130046143Y-17649500D01*
X127879856Y-17649500D01*
X127792518Y-17672902D01*
X127790796Y-17673335D01*
X127710804Y-17719519D01*
X127710786Y-17719531D01*
X126094526Y-19335791D01*
X126080179Y-19360642D01*
X126074119Y-19371140D01*
X126074114Y-19371149D01*
X126069149Y-19379749D01*
X126061252Y-19393427D01*
X126055231Y-19403856D01*
X126048385Y-19415713D01*
X126024500Y-19504856D01*
X126024500Y-19919046D01*
X126019476Y-19953983D01*
X126016615Y-19963726D01*
X125978840Y-20022503D01*
X125915284Y-20051527D01*
X125846125Y-20041582D01*
X125793822Y-19996597D01*
X125648134Y-19773542D01*
X125294266Y-19231752D01*
X125278308Y-19196036D01*
X125276614Y-19189712D01*
X125262180Y-19164712D01*
X125245750Y-19136255D01*
X125243784Y-19132717D01*
X125241012Y-19127531D01*
X125234052Y-19114507D01*
X125234050Y-19114503D01*
X125231516Y-19110711D01*
X125231513Y-19110706D01*
X125199731Y-19071977D01*
X125199720Y-19071965D01*
X125007893Y-18880139D01*
X125007888Y-18880135D01*
X125003675Y-18877320D01*
X124996727Y-18872677D01*
X124977938Y-18857257D01*
X123965212Y-17844530D01*
X123965211Y-17844529D01*
X123965204Y-17844524D01*
X123899425Y-17806547D01*
X123892896Y-17801537D01*
X123877682Y-17795235D01*
X123869520Y-17794161D01*
X123796144Y-17774500D01*
X123796143Y-17774500D01*
X121328856Y-17774500D01*
X121239725Y-17798382D01*
X121239708Y-17798387D01*
X121239703Y-17798389D01*
X121159791Y-17844526D01*
X121159787Y-17844530D01*
X121159777Y-17844538D01*
X119769538Y-19234777D01*
X119769532Y-19234784D01*
X119769527Y-19234790D01*
X119769526Y-19234791D01*
X119723389Y-19314703D01*
X119723387Y-19314708D01*
X119723382Y-19314725D01*
X119699500Y-19403856D01*
X119699500Y-29203518D01*
X119694476Y-29238455D01*
X119687064Y-29263696D01*
X119655769Y-29316440D01*
X118169534Y-30802674D01*
X118169528Y-30802681D01*
X118169527Y-30802682D01*
X118159689Y-30819723D01*
X118136247Y-30860328D01*
X118130389Y-30870474D01*
X118130386Y-30870476D01*
X118130384Y-30870481D01*
X118123389Y-30882594D01*
X118123387Y-30882599D01*
X118099500Y-30971748D01*
X118099500Y-49501646D01*
X118117890Y-49570281D01*
X118123379Y-49590767D01*
X118123383Y-49590778D01*
X118123385Y-49590785D01*
X118123387Y-49590790D01*
X118156882Y-49648806D01*
X118169527Y-49670708D01*
X118169532Y-49670714D01*
X118169538Y-49670721D01*
X118742573Y-50243755D01*
X118763723Y-50272007D01*
X118776331Y-50295096D01*
X118791500Y-50354525D01*
X118791500Y-52399909D01*
X118795021Y-52413049D01*
X118812099Y-52476786D01*
X118812099Y-52476789D01*
X118815382Y-52489045D01*
X118815383Y-52489046D01*
X118815396Y-52489071D01*
X118861523Y-52568966D01*
X118861529Y-52568975D01*
X119912843Y-53620289D01*
X119921012Y-53629302D01*
X119949516Y-53664032D01*
X119949521Y-53664037D01*
X119965006Y-53679524D01*
X119987927Y-53702445D01*
X119987948Y-53702465D01*
X119987956Y-53702473D01*
X120006581Y-53719350D01*
X120008356Y-53720806D01*
X120028489Y-53735730D01*
X120028507Y-53735742D01*
X120030358Y-53736979D01*
X120030367Y-53736984D01*
X120030371Y-53736987D01*
X120051859Y-53749862D01*
X120053880Y-53750942D01*
X120060337Y-53753996D01*
X120069314Y-53758699D01*
X120080037Y-53764890D01*
X120080039Y-53764891D01*
X120098198Y-53775376D01*
X120098200Y-53775377D01*
X120106502Y-53780171D01*
X120138889Y-53788849D01*
X120155891Y-53794757D01*
X120538483Y-53959767D01*
X120538497Y-53959771D01*
X120538503Y-53959774D01*
X120541372Y-53960847D01*
X120541215Y-53961265D01*
X120550500Y-53965365D01*
X120554888Y-53966540D01*
X120554890Y-53966542D01*
X120580869Y-53973503D01*
X120583037Y-53974084D01*
X120585025Y-53974666D01*
X120589439Y-53975832D01*
X120590610Y-53976113D01*
X120694900Y-54004058D01*
X120694903Y-54004058D01*
X120839847Y-54004058D01*
X120839850Y-54004058D01*
X120979860Y-53966542D01*
X121105390Y-53894067D01*
X121207884Y-53791573D01*
X121280359Y-53666043D01*
X121311319Y-53550496D01*
X121312099Y-53547722D01*
X121320763Y-53518212D01*
X121320765Y-53518213D01*
X121327302Y-53495950D01*
X121365071Y-53437179D01*
X121366446Y-53435988D01*
X121421295Y-53408535D01*
X121428854Y-53406891D01*
X121455207Y-53404058D01*
X121482713Y-53404058D01*
X121482716Y-53404058D01*
X121622726Y-53366542D01*
X121748256Y-53294067D01*
X121850750Y-53191573D01*
X121923225Y-53066043D01*
X121960741Y-52926033D01*
X121960741Y-52781083D01*
X121923225Y-52641073D01*
X121921170Y-52637514D01*
X121881599Y-52568975D01*
X121850754Y-52515549D01*
X121850749Y-52515542D01*
X121850734Y-52515526D01*
X121748271Y-52413063D01*
X121748255Y-52413048D01*
X121748252Y-52413046D01*
X121738878Y-52407634D01*
X121694481Y-52382001D01*
X121666049Y-52352182D01*
X121609451Y-52337017D01*
X121609451Y-52337016D01*
X121609447Y-52337016D01*
X121552814Y-52321840D01*
X121520374Y-52307948D01*
X121510717Y-52302062D01*
X121463717Y-52250363D01*
X121452130Y-52181461D01*
X121479631Y-52117235D01*
X121484524Y-52111310D01*
X121518134Y-52082881D01*
X121532192Y-52074765D01*
X121627836Y-52019545D01*
X121730330Y-51917051D01*
X121802805Y-51791521D01*
X121840321Y-51651511D01*
X121840321Y-51506561D01*
X121802805Y-51366551D01*
X121795291Y-51353537D01*
X121782514Y-51331406D01*
X121730334Y-51241027D01*
X121730329Y-51241020D01*
X121730324Y-51241015D01*
X121679264Y-51189955D01*
X121627838Y-51138529D01*
X121627836Y-51138527D01*
X121553660Y-51095701D01*
X121525920Y-51073885D01*
X121515127Y-51062566D01*
X121483119Y-51000479D01*
X121483041Y-51000077D01*
X121481440Y-50991767D01*
X121483422Y-50936203D01*
X121489737Y-50912638D01*
X121492053Y-50908839D01*
X121492023Y-50908831D01*
X121504935Y-50864859D01*
X121509926Y-50847859D01*
X121547660Y-50789119D01*
X121548011Y-50788814D01*
X121549033Y-50787928D01*
X121603910Y-50760443D01*
X121614560Y-50758127D01*
X121614559Y-50758125D01*
X121642509Y-50752045D01*
X121643350Y-50751376D01*
X121658046Y-50746433D01*
X121762485Y-50718449D01*
X121888015Y-50645974D01*
X121990509Y-50543480D01*
X122062984Y-50417950D01*
X122066644Y-50404287D01*
X122073397Y-50393208D01*
X122080537Y-50371845D01*
X122086423Y-50362188D01*
X122099614Y-50350195D01*
X122103008Y-50344628D01*
X122108872Y-50341779D01*
X122138122Y-50315188D01*
X122207024Y-50303601D01*
X122271251Y-50331103D01*
X122271763Y-50331526D01*
X122305577Y-50375616D01*
X122306512Y-50377664D01*
X122313486Y-50397066D01*
X122321897Y-50428456D01*
X122329865Y-50458189D01*
X122331017Y-50462488D01*
X122403188Y-50587492D01*
X122403420Y-50587944D01*
X122505985Y-50690509D01*
X122506674Y-50691005D01*
X122509178Y-50692353D01*
X122628066Y-50760993D01*
X122631087Y-50762869D01*
X122631514Y-50762983D01*
X122631515Y-50762984D01*
X122771525Y-50800500D01*
X122771528Y-50800500D01*
X122916472Y-50800500D01*
X122916475Y-50800500D01*
X123056485Y-50762984D01*
X123182015Y-50690509D01*
X123284509Y-50588015D01*
X123356984Y-50462485D01*
X123387853Y-50347279D01*
X123424216Y-50287623D01*
X123487062Y-50257094D01*
X123556438Y-50265388D01*
X123610316Y-50309874D01*
X123620152Y-50327281D01*
X123712177Y-50526053D01*
X123712180Y-50526059D01*
X123712181Y-50526060D01*
X123735612Y-50566497D01*
X123735616Y-50566503D01*
X123735709Y-50566663D01*
X123738587Y-50571386D01*
X123780792Y-50644487D01*
X123782238Y-50647062D01*
X123801739Y-50682777D01*
X123816590Y-50751044D01*
X123815958Y-50759885D01*
X123799661Y-50813043D01*
X123732968Y-50928558D01*
X123732940Y-50928627D01*
X123732699Y-50929560D01*
X123699836Y-51052208D01*
X123695451Y-51068574D01*
X123695451Y-51213524D01*
X123709155Y-51264665D01*
X123720073Y-51305412D01*
X123720073Y-51305413D01*
X123727542Y-51333289D01*
X123727788Y-51334223D01*
X123733565Y-51356511D01*
X123887856Y-51776826D01*
X123895451Y-51819556D01*
X123895451Y-57745445D01*
X123890427Y-57780383D01*
X123887240Y-57791236D01*
X123849465Y-57850013D01*
X123785908Y-57879036D01*
X123716758Y-57869095D01*
X123709780Y-57865908D01*
X123673608Y-57840794D01*
X117799426Y-51966612D01*
X117778274Y-51938356D01*
X117765667Y-51915267D01*
X117750500Y-51855842D01*
X117750500Y-30651504D01*
X117755522Y-30616571D01*
X117762934Y-30591326D01*
X117794228Y-30538584D01*
X119049683Y-29283128D01*
X119050436Y-29282402D01*
X119051581Y-29281255D01*
X119051594Y-29281245D01*
X119102933Y-29229880D01*
X119102956Y-29229857D01*
X119111465Y-29221348D01*
X119150499Y-29182315D01*
X119150501Y-29182310D01*
X119150516Y-29182296D01*
X119150555Y-29182245D01*
X119150567Y-29182223D01*
X119150574Y-29182217D01*
X119184522Y-29123386D01*
X119216392Y-29068186D01*
X119216392Y-29068184D01*
X119216407Y-29068159D01*
X119216427Y-29068111D01*
X119216435Y-29068078D01*
X119216439Y-29068073D01*
X119233493Y-29004360D01*
X119233493Y-29004358D01*
X119233500Y-29004359D01*
X119233500Y-29004330D01*
X119249643Y-28944088D01*
X119250450Y-28941401D01*
X119250515Y-28940958D01*
X119250514Y-28940774D01*
X119250516Y-28940771D01*
X119250500Y-28874627D01*
X119250500Y-28809108D01*
X119250500Y-28801186D01*
X119250500Y-28799766D01*
X119250481Y-28798624D01*
X119250479Y-28791797D01*
X119250436Y-28609126D01*
X119248066Y-18815964D01*
X119253079Y-18781038D01*
X119260484Y-18755795D01*
X119291785Y-18703026D01*
X123221390Y-14773423D01*
X123249640Y-14752275D01*
X123272732Y-14739667D01*
X123332157Y-14724500D01*
X145982670Y-14724500D01*
X146017606Y-14729523D01*
G37*
%TD.AperFunction*%
%TA.AperFunction,Conductor*%
G36*
X136640540Y-48761077D02*
G01*
X136643158Y-48763037D01*
X136644744Y-48764225D01*
X136684981Y-48816030D01*
X136752724Y-48979578D01*
X136752732Y-48979596D01*
X136752741Y-48979611D01*
X136863540Y-49145432D01*
X136863541Y-49145433D01*
X136863546Y-49145439D01*
X137004559Y-49286452D01*
X137004565Y-49286457D01*
X137004569Y-49286460D01*
X137170394Y-49397262D01*
X137170407Y-49397269D01*
X137170409Y-49397269D01*
X137170413Y-49397272D01*
X137315103Y-49457203D01*
X137329680Y-49463241D01*
X137337395Y-49466436D01*
X137349051Y-49471265D01*
X137353462Y-49473351D01*
X137550271Y-49512500D01*
X137550274Y-49512500D01*
X137563192Y-49512500D01*
X137598124Y-49517521D01*
X137611443Y-49521432D01*
X137670221Y-49559206D01*
X137699247Y-49622761D01*
X137699249Y-49622778D01*
X137699480Y-49624386D01*
X137693916Y-49682587D01*
X137692278Y-49687318D01*
X137682491Y-49708747D01*
X137665937Y-49737421D01*
X137637016Y-49787515D01*
X137599500Y-49927525D01*
X137599500Y-50072475D01*
X137612829Y-50122218D01*
X137631127Y-50190508D01*
X137637016Y-50212486D01*
X137637103Y-50212695D01*
X137637129Y-50212721D01*
X137645898Y-50232436D01*
X137646526Y-50234262D01*
X137680994Y-50309488D01*
X137690734Y-50330747D01*
X137695957Y-50342145D01*
X137705987Y-50411291D01*
X137677041Y-50474883D01*
X137642662Y-50502625D01*
X137637969Y-50505188D01*
X137569697Y-50520045D01*
X137504231Y-50495632D01*
X137504216Y-50495621D01*
X137497411Y-50490526D01*
X137464344Y-50453269D01*
X137457199Y-50440893D01*
X137443955Y-50417953D01*
X137440511Y-50411988D01*
X137440507Y-50411983D01*
X137337877Y-50309353D01*
X137337568Y-50309123D01*
X137334802Y-50307635D01*
X137284242Y-50278444D01*
X137255808Y-50248624D01*
X137176049Y-50227253D01*
X137176048Y-50227252D01*
X137100227Y-50206936D01*
X137072475Y-50199500D01*
X137072474Y-50199500D01*
X136927525Y-50199500D01*
X136823950Y-50227253D01*
X136823949Y-50227252D01*
X136787512Y-50237016D01*
X136787507Y-50237018D01*
X136661992Y-50309485D01*
X136661984Y-50309490D01*
X136661968Y-50309505D01*
X136559505Y-50411968D01*
X136559490Y-50411984D01*
X136559485Y-50411992D01*
X136487017Y-50537509D01*
X136486989Y-50537578D01*
X136486748Y-50538511D01*
X136449500Y-50677525D01*
X136449500Y-50755956D01*
X136449362Y-50761802D01*
X136448744Y-50774886D01*
X136448744Y-50774900D01*
X136449131Y-50782479D01*
X136449080Y-50782481D01*
X136449500Y-50790868D01*
X136449500Y-50822475D01*
X136463442Y-50874506D01*
X136483801Y-50950487D01*
X136483806Y-50950503D01*
X136487016Y-50962486D01*
X136490127Y-50969995D01*
X136489271Y-50970349D01*
X136496718Y-50988708D01*
X136528073Y-51112982D01*
X136594950Y-51378051D01*
X136595732Y-51381148D01*
X136599500Y-51411483D01*
X136599500Y-51638567D01*
X136594476Y-51673504D01*
X136587064Y-51698745D01*
X136555769Y-51751489D01*
X127844534Y-60462723D01*
X127844528Y-60462730D01*
X127844526Y-60462732D01*
X127798389Y-60542644D01*
X127798387Y-60542649D01*
X127798382Y-60542666D01*
X127774500Y-60631797D01*
X127774500Y-60794626D01*
X127769476Y-60829564D01*
X127766289Y-60840417D01*
X127728514Y-60899194D01*
X127664957Y-60928217D01*
X127595807Y-60918276D01*
X127588829Y-60915089D01*
X127552657Y-60889975D01*
X124645377Y-57982695D01*
X124624225Y-57954439D01*
X124611618Y-57931350D01*
X124596451Y-57871925D01*
X124596451Y-51819554D01*
X124604046Y-51776825D01*
X124648252Y-51656397D01*
X124745842Y-51390538D01*
X124787421Y-51334389D01*
X124838842Y-51311498D01*
X124839408Y-51311389D01*
X124900561Y-51315048D01*
X124907932Y-51317404D01*
X124932178Y-51328129D01*
X124942789Y-51334256D01*
X125015192Y-51376058D01*
X125018216Y-51377936D01*
X125018644Y-51378050D01*
X125018645Y-51378051D01*
X125158655Y-51415567D01*
X125158658Y-51415567D01*
X125233405Y-51415567D01*
X125268341Y-51420590D01*
X125283339Y-51424994D01*
X125342090Y-51462739D01*
X125343277Y-51464108D01*
X125370753Y-51518969D01*
X125372398Y-51526527D01*
X125375235Y-51552898D01*
X125375235Y-51596740D01*
X125410681Y-51729024D01*
X125412751Y-51736750D01*
X125412753Y-51736755D01*
X125412753Y-51736756D01*
X125483370Y-51859067D01*
X125484858Y-51861833D01*
X125485088Y-51862142D01*
X125587720Y-51964774D01*
X125588409Y-51965270D01*
X125590913Y-51966618D01*
X125709804Y-52035260D01*
X125712822Y-52037134D01*
X125713249Y-52037248D01*
X125713250Y-52037249D01*
X125853260Y-52074765D01*
X125853263Y-52074765D01*
X125998207Y-52074765D01*
X125998210Y-52074765D01*
X126138220Y-52037249D01*
X126263750Y-51964774D01*
X126366244Y-51862280D01*
X126438719Y-51736750D01*
X126476235Y-51596740D01*
X126476235Y-51451790D01*
X126449908Y-51353537D01*
X126444742Y-51334256D01*
X126440552Y-51299212D01*
X126440821Y-51287910D01*
X126462095Y-51221358D01*
X126515973Y-51176873D01*
X126585235Y-51168559D01*
X126585844Y-51168661D01*
X126637316Y-51189954D01*
X126639155Y-51191263D01*
X126654905Y-51204587D01*
X128016556Y-52566238D01*
X128041185Y-52601360D01*
X128111282Y-52751145D01*
X128122972Y-52803704D01*
X128122972Y-52922475D01*
X128160220Y-53061487D01*
X128160462Y-53062423D01*
X128160489Y-53062489D01*
X128231107Y-53184802D01*
X128232595Y-53187568D01*
X128232825Y-53187877D01*
X128335537Y-53290589D01*
X128337070Y-53291505D01*
X128342446Y-53294828D01*
X128366987Y-53314731D01*
X128370500Y-53318415D01*
X128402516Y-53380515D01*
X128395875Y-53450069D01*
X128365915Y-53494117D01*
X128150864Y-53697297D01*
X128150863Y-53697298D01*
X128125089Y-53725591D01*
X128122939Y-53728340D01*
X128122924Y-53728360D01*
X128122589Y-53728862D01*
X128122352Y-53729149D01*
X128121571Y-53730229D01*
X128121505Y-53730181D01*
X128107206Y-53747598D01*
X128092826Y-53761980D01*
X128092820Y-53761985D01*
X128092815Y-53761991D01*
X128020347Y-53887509D01*
X128020319Y-53887578D01*
X128020078Y-53888511D01*
X127982830Y-54027525D01*
X127982830Y-54172474D01*
X128020343Y-54312477D01*
X128020347Y-54312488D01*
X128020348Y-54312489D01*
X128090965Y-54434802D01*
X128092453Y-54437568D01*
X128092683Y-54437877D01*
X128195315Y-54540509D01*
X128196004Y-54541005D01*
X128198508Y-54542353D01*
X128317399Y-54610995D01*
X128320417Y-54612869D01*
X128320844Y-54612983D01*
X128320845Y-54612984D01*
X128460855Y-54650500D01*
X128460858Y-54650500D01*
X128605802Y-54650500D01*
X128605805Y-54650500D01*
X128745815Y-54612984D01*
X128871345Y-54540509D01*
X128973839Y-54438015D01*
X129046314Y-54312485D01*
X129083830Y-54172475D01*
X129083830Y-54058371D01*
X129085602Y-54052333D01*
X129084434Y-54046152D01*
X129088851Y-54023444D01*
X129092037Y-54012591D01*
X129101678Y-53997585D01*
X129103515Y-53991332D01*
X129108438Y-53987066D01*
X129129807Y-53953810D01*
X129193361Y-53924781D01*
X129262516Y-53934719D01*
X129269502Y-53937909D01*
X129305672Y-53963022D01*
X129332837Y-53990187D01*
X129332838Y-53990188D01*
X129332840Y-53990189D01*
X129458363Y-54062660D01*
X129458364Y-54062660D01*
X129458367Y-54062662D01*
X129598377Y-54100178D01*
X129598380Y-54100178D01*
X129743324Y-54100178D01*
X129743327Y-54100178D01*
X129883337Y-54062662D01*
X130008867Y-53990187D01*
X130111361Y-53887693D01*
X130173438Y-53780172D01*
X130173835Y-53779492D01*
X130181867Y-53765836D01*
X130185518Y-53759630D01*
X130365192Y-53371535D01*
X130411219Y-53318970D01*
X130478360Y-53299634D01*
X130486540Y-53299946D01*
X130492085Y-53300343D01*
X130545246Y-53316640D01*
X130622062Y-53360990D01*
X130625086Y-53362868D01*
X130625514Y-53362982D01*
X130625515Y-53362983D01*
X130765525Y-53400499D01*
X130765528Y-53400499D01*
X130910472Y-53400499D01*
X130910475Y-53400499D01*
X131050485Y-53362983D01*
X131176015Y-53290508D01*
X131278509Y-53188014D01*
X131350984Y-53062484D01*
X131388500Y-52922474D01*
X131388500Y-52777524D01*
X131356311Y-52657398D01*
X131356156Y-52656811D01*
X131350383Y-52634535D01*
X131196095Y-52214221D01*
X131188500Y-52171491D01*
X131188500Y-51188372D01*
X131193522Y-51153439D01*
X131200934Y-51128194D01*
X131232228Y-51075452D01*
X132308234Y-49999445D01*
X132336484Y-49978298D01*
X132348667Y-49971645D01*
X132416941Y-49956795D01*
X132482402Y-49981212D01*
X132489212Y-49986310D01*
X132522283Y-50023572D01*
X132529750Y-50036505D01*
X132559486Y-50088008D01*
X132559489Y-50088012D01*
X132559491Y-50088015D01*
X132661985Y-50190509D01*
X132662674Y-50191005D01*
X132665178Y-50192353D01*
X132787511Y-50262982D01*
X132787512Y-50262982D01*
X132787515Y-50262984D01*
X132927525Y-50300500D01*
X132927528Y-50300500D01*
X132955639Y-50300500D01*
X132967626Y-50303588D01*
X132981084Y-50305523D01*
X132996082Y-50309927D01*
X133038257Y-50337023D01*
X133053276Y-50345979D01*
X133053782Y-50346997D01*
X133054833Y-50347672D01*
X133056020Y-50349041D01*
X133083496Y-50403902D01*
X133085141Y-50411460D01*
X133086701Y-50425966D01*
X133086917Y-50425938D01*
X133087977Y-50433994D01*
X133117315Y-50543482D01*
X133117314Y-50543482D01*
X133125494Y-50574008D01*
X133125496Y-50574013D01*
X133196113Y-50696324D01*
X133197601Y-50699090D01*
X133197831Y-50699399D01*
X133300463Y-50802031D01*
X133301152Y-50802527D01*
X133303656Y-50803875D01*
X133422547Y-50872517D01*
X133425565Y-50874391D01*
X133425992Y-50874505D01*
X133425993Y-50874506D01*
X133566003Y-50912022D01*
X133566006Y-50912022D01*
X133710950Y-50912022D01*
X133710953Y-50912022D01*
X133850963Y-50874506D01*
X133976493Y-50802031D01*
X134078987Y-50699537D01*
X134151462Y-50574007D01*
X134188978Y-50433997D01*
X134188978Y-50330747D01*
X134190531Y-50325455D01*
X134191490Y-50280520D01*
X134191491Y-50280520D01*
X134191758Y-50267973D01*
X134212868Y-50201372D01*
X134266636Y-50156754D01*
X134335988Y-50148287D01*
X134336375Y-50148351D01*
X134336643Y-50148396D01*
X134388051Y-50169606D01*
X134390003Y-50170993D01*
X134405888Y-50184412D01*
X134411985Y-50190509D01*
X134412674Y-50191005D01*
X134415178Y-50192353D01*
X134534069Y-50260995D01*
X134537087Y-50262869D01*
X134537514Y-50262983D01*
X134537515Y-50262984D01*
X134677525Y-50300500D01*
X134677527Y-50300500D01*
X134682416Y-50301810D01*
X134692786Y-50304001D01*
X134712969Y-50309927D01*
X134771742Y-50347698D01*
X134777547Y-50354397D01*
X134803610Y-50403506D01*
X134828294Y-50495621D01*
X134835759Y-50523482D01*
X134836717Y-50527055D01*
X134837017Y-50528177D01*
X134907635Y-50650489D01*
X134909123Y-50653255D01*
X134909353Y-50653564D01*
X135011985Y-50756196D01*
X135012674Y-50756692D01*
X135015178Y-50758040D01*
X135134069Y-50826682D01*
X135137087Y-50828556D01*
X135137514Y-50828670D01*
X135137515Y-50828671D01*
X135277525Y-50866187D01*
X135277528Y-50866187D01*
X135422472Y-50866187D01*
X135422475Y-50866187D01*
X135562485Y-50828671D01*
X135688015Y-50756196D01*
X135790509Y-50653702D01*
X135862984Y-50528172D01*
X135900500Y-50388162D01*
X135900500Y-50243212D01*
X135868311Y-50123086D01*
X135868156Y-50122499D01*
X135862383Y-50100223D01*
X135715913Y-49701207D01*
X135708095Y-49679909D01*
X135700500Y-49637179D01*
X135700500Y-49614371D01*
X135705522Y-49579438D01*
X135712934Y-49554193D01*
X135744228Y-49501451D01*
X136466368Y-48779310D01*
X136494617Y-48758163D01*
X136506805Y-48751508D01*
X136575077Y-48736659D01*
X136640540Y-48761077D01*
G37*
%TD.AperFunction*%
%TA.AperFunction,Conductor*%
G36*
X130760699Y-49363271D02*
G01*
X130768424Y-49366231D01*
X130792943Y-49378919D01*
X130820391Y-49397260D01*
X130820403Y-49397267D01*
X130820418Y-49397274D01*
X130979641Y-49463225D01*
X130979680Y-49463241D01*
X130987395Y-49466436D01*
X130999051Y-49471265D01*
X131003462Y-49473351D01*
X131200271Y-49512500D01*
X131200274Y-49512500D01*
X131200277Y-49512500D01*
X131399724Y-49512500D01*
X131420397Y-49508387D01*
X131420397Y-49508386D01*
X131420402Y-49508386D01*
X131485754Y-49495386D01*
X131520986Y-49493497D01*
X131532259Y-49494505D01*
X131597275Y-49520085D01*
X131638143Y-49576756D01*
X131641884Y-49646526D01*
X131641882Y-49646534D01*
X131641345Y-49648806D01*
X131608351Y-49707965D01*
X130812788Y-50503529D01*
X130784538Y-50524678D01*
X130774611Y-50530099D01*
X130706338Y-50544953D01*
X130640873Y-50520539D01*
X130599000Y-50464607D01*
X130596313Y-50457401D01*
X130588500Y-50414081D01*
X130588500Y-49492131D01*
X130593521Y-49457203D01*
X130594075Y-49455314D01*
X130597358Y-49444133D01*
X130603888Y-49433971D01*
X130604557Y-49431104D01*
X130607678Y-49428073D01*
X130635128Y-49385356D01*
X130698682Y-49356327D01*
X130760699Y-49363271D01*
G37*
%TD.AperFunction*%
%TA.AperFunction,Conductor*%
G36*
X128029186Y-47945931D02*
G01*
X128036172Y-47949121D01*
X128072343Y-47974235D01*
X128114560Y-48016453D01*
X128114565Y-48016457D01*
X128114569Y-48016460D01*
X128280394Y-48127262D01*
X128280407Y-48127269D01*
X128280409Y-48127269D01*
X128280413Y-48127272D01*
X128440573Y-48193611D01*
X128459054Y-48201265D01*
X128463463Y-48203351D01*
X128660271Y-48242500D01*
X128859725Y-48242500D01*
X128859726Y-48242500D01*
X128886044Y-48237264D01*
X128991324Y-48216322D01*
X128991325Y-48216322D01*
X129004196Y-48213761D01*
X129055335Y-48203590D01*
X129235575Y-48128932D01*
X129239190Y-48127583D01*
X129239476Y-48127454D01*
X129241244Y-48126342D01*
X129243984Y-48124336D01*
X129279793Y-48100409D01*
X129311622Y-48085182D01*
X129320516Y-48082397D01*
X129324621Y-48081112D01*
X129394479Y-48079866D01*
X129453921Y-48116586D01*
X129482594Y-48171996D01*
X129484423Y-48180053D01*
X129487500Y-48207504D01*
X129487500Y-49763191D01*
X129482475Y-49798132D01*
X129478564Y-49811449D01*
X129440787Y-49870225D01*
X129377229Y-49899247D01*
X129377221Y-49899248D01*
X129375613Y-49899479D01*
X129317428Y-49893920D01*
X129312692Y-49892281D01*
X129291245Y-49882487D01*
X129251129Y-49859326D01*
X129246287Y-49856381D01*
X129138672Y-49787508D01*
X128856990Y-49607232D01*
X128836152Y-49590471D01*
X127899426Y-48653744D01*
X127878274Y-48625488D01*
X127865667Y-48602399D01*
X127850500Y-48542974D01*
X127850500Y-48069583D01*
X127855521Y-48034656D01*
X127858707Y-48023803D01*
X127896477Y-47965022D01*
X127960031Y-47935993D01*
X128029186Y-47945931D01*
G37*
%TD.AperFunction*%
%TA.AperFunction,Conductor*%
G36*
X127695130Y-21830462D02*
G01*
X127736996Y-21886384D01*
X127737534Y-21887826D01*
X127742974Y-21906979D01*
X127786406Y-22125321D01*
X127786408Y-22125329D01*
X127786411Y-22125339D01*
X127786414Y-22125347D01*
X127786419Y-22125361D01*
X127862726Y-22309585D01*
X127862731Y-22309594D01*
X127862741Y-22309611D01*
X127973540Y-22475432D01*
X127973541Y-22475433D01*
X127973546Y-22475439D01*
X128114559Y-22616452D01*
X128114565Y-22616457D01*
X128114569Y-22616460D01*
X128280394Y-22727262D01*
X128280407Y-22727269D01*
X128459065Y-22801270D01*
X128463488Y-22803362D01*
X128464227Y-22803505D01*
X128464970Y-22803651D01*
X128660271Y-22842500D01*
X128859725Y-22842500D01*
X128859726Y-22842500D01*
X128906067Y-22833281D01*
X129045094Y-22805627D01*
X129055335Y-22803590D01*
X129219310Y-22735670D01*
X129239592Y-22727269D01*
X129239592Y-22727268D01*
X129239599Y-22727266D01*
X129405431Y-22616460D01*
X129546324Y-22475566D01*
X129554468Y-22468118D01*
X129569754Y-22455343D01*
X129633816Y-22427456D01*
X129702786Y-22438630D01*
X129754762Y-22485312D01*
X129755991Y-22487302D01*
X129774500Y-22552475D01*
X129774500Y-23639251D01*
X129769476Y-23674189D01*
X129766289Y-23685042D01*
X129728514Y-23743819D01*
X129664957Y-23772842D01*
X129595817Y-23762905D01*
X129593333Y-23761771D01*
X129548971Y-23727629D01*
X129546460Y-23724568D01*
X129405432Y-23583540D01*
X129239611Y-23472741D01*
X129239610Y-23472740D01*
X129239605Y-23472737D01*
X129239592Y-23472730D01*
X129239585Y-23472726D01*
X129055361Y-23396419D01*
X129055347Y-23396414D01*
X129055339Y-23396411D01*
X129055329Y-23396408D01*
X129055326Y-23396407D01*
X129055322Y-23396406D01*
X128859728Y-23357500D01*
X128859725Y-23357500D01*
X128859723Y-23357500D01*
X128660277Y-23357500D01*
X128660275Y-23357500D01*
X128660271Y-23357500D01*
X128464676Y-23396406D01*
X128464670Y-23396408D01*
X128464660Y-23396411D01*
X128464655Y-23396412D01*
X128464637Y-23396419D01*
X128280413Y-23472726D01*
X128280404Y-23472731D01*
X128280387Y-23472741D01*
X128114566Y-23583540D01*
X128114565Y-23583541D01*
X128114559Y-23583546D01*
X127973546Y-23724559D01*
X127973541Y-23724565D01*
X127973540Y-23724566D01*
X127862741Y-23890387D01*
X127862731Y-23890404D01*
X127862726Y-23890413D01*
X127786419Y-24074637D01*
X127786406Y-24074676D01*
X127747500Y-24270270D01*
X127747500Y-24425356D01*
X127742237Y-24443276D01*
X127786406Y-24665322D01*
X127786407Y-24665326D01*
X127786408Y-24665329D01*
X127786411Y-24665339D01*
X127786414Y-24665347D01*
X127786419Y-24665361D01*
X127862726Y-24849585D01*
X127862731Y-24849594D01*
X127862741Y-24849611D01*
X127973540Y-25015432D01*
X127973541Y-25015433D01*
X127973546Y-25015439D01*
X128114559Y-25156452D01*
X128114565Y-25156457D01*
X128114569Y-25156460D01*
X128280394Y-25267262D01*
X128280407Y-25267269D01*
X128280409Y-25267269D01*
X128280413Y-25267272D01*
X128369949Y-25304358D01*
X128444226Y-25335124D01*
X128459055Y-25341266D01*
X128463464Y-25343351D01*
X128464669Y-25343590D01*
X128464670Y-25343591D01*
X128476042Y-25345853D01*
X128660271Y-25382500D01*
X128859725Y-25382500D01*
X128859726Y-25382500D01*
X128906067Y-25373281D01*
X129045094Y-25345627D01*
X129055335Y-25343590D01*
X129239599Y-25267266D01*
X129405431Y-25156460D01*
X129546460Y-25015431D01*
X129657266Y-24849599D01*
X129658964Y-24845501D01*
X129718563Y-24701614D01*
X129733590Y-24665335D01*
X129733683Y-24664871D01*
X129765049Y-24507183D01*
X129765049Y-24507181D01*
X129765177Y-24506541D01*
X129772500Y-24469725D01*
X129772500Y-24270274D01*
X129772500Y-24270271D01*
X129730003Y-24056630D01*
X129730577Y-24056515D01*
X129725759Y-24040886D01*
X129725052Y-24034306D01*
X129737456Y-23965549D01*
X129785066Y-23914411D01*
X129852765Y-23897131D01*
X129913503Y-23915554D01*
X129917863Y-23918247D01*
X129940382Y-23936064D01*
X130659788Y-24655470D01*
X130660467Y-24655862D01*
X130673947Y-24664869D01*
X130681731Y-24670843D01*
X130686736Y-24674683D01*
X130698930Y-24685377D01*
X131130963Y-25117410D01*
X131164448Y-25178733D01*
X131159464Y-25248425D01*
X131117592Y-25304358D01*
X131105284Y-25312477D01*
X131066063Y-25335122D01*
X131066057Y-25335126D01*
X130995126Y-25406057D01*
X130995119Y-25406066D01*
X130972476Y-25445284D01*
X130921908Y-25493498D01*
X130853300Y-25506719D01*
X130788436Y-25480749D01*
X130777410Y-25470962D01*
X130247730Y-24941282D01*
X130220642Y-24978564D01*
X130160898Y-25095818D01*
X130130457Y-25155562D01*
X130123908Y-25175717D01*
X130069075Y-25344474D01*
X130068857Y-25345853D01*
X130038000Y-25540678D01*
X130038000Y-25739321D01*
X130059322Y-25873940D01*
X130067548Y-25925878D01*
X130067549Y-25925886D01*
X130069075Y-25935524D01*
X130130458Y-26124441D01*
X130220641Y-26301433D01*
X130247727Y-26338712D01*
X130247730Y-26338716D01*
X130247730Y-26338715D01*
X130247731Y-26338716D01*
X130777412Y-25809034D01*
X130838733Y-25775551D01*
X130908424Y-25780535D01*
X130964358Y-25822406D01*
X130972476Y-25834714D01*
X130995124Y-25873940D01*
X131066060Y-25944876D01*
X131066063Y-25944877D01*
X131066066Y-25944880D01*
X131105282Y-25967522D01*
X131153497Y-26018089D01*
X131166719Y-26086697D01*
X131140751Y-26151561D01*
X131130962Y-26162589D01*
X130601283Y-26692267D01*
X130601282Y-26692268D01*
X130601283Y-26692268D01*
X130601283Y-26692269D01*
X130638567Y-26719358D01*
X130722187Y-26761965D01*
X130815557Y-26809540D01*
X130815559Y-26809540D01*
X130815562Y-26809542D01*
X130879378Y-26830277D01*
X131004476Y-26870924D01*
X131100280Y-26886098D01*
X131200679Y-26902000D01*
X131399320Y-26902000D01*
X131399321Y-26902000D01*
X131543939Y-26879094D01*
X131585880Y-26872451D01*
X131585886Y-26872450D01*
X131591483Y-26871563D01*
X131595520Y-26870924D01*
X131595523Y-26870924D01*
X131784437Y-26809542D01*
X131815324Y-26793804D01*
X131848724Y-26782422D01*
X131862371Y-26779860D01*
X131931892Y-26786834D01*
X131986598Y-26830277D01*
X131988520Y-26833003D01*
X132009503Y-26884152D01*
X132009826Y-26886098D01*
X132011500Y-26906402D01*
X132011500Y-27187867D01*
X132006475Y-27222809D01*
X132002637Y-27235877D01*
X131964859Y-27294653D01*
X131901301Y-27323674D01*
X131839283Y-27316721D01*
X131831569Y-27313765D01*
X131807061Y-27301082D01*
X131779617Y-27282745D01*
X131779616Y-27282744D01*
X131779605Y-27282737D01*
X131779592Y-27282730D01*
X131779585Y-27282726D01*
X131595361Y-27206419D01*
X131595347Y-27206414D01*
X131595339Y-27206411D01*
X131595329Y-27206408D01*
X131595326Y-27206407D01*
X131595322Y-27206406D01*
X131399728Y-27167500D01*
X131399725Y-27167500D01*
X131399723Y-27167500D01*
X131200277Y-27167500D01*
X131200275Y-27167500D01*
X131200271Y-27167500D01*
X131004676Y-27206406D01*
X131004670Y-27206408D01*
X131004660Y-27206411D01*
X131004655Y-27206412D01*
X131004637Y-27206419D01*
X130820413Y-27282726D01*
X130820404Y-27282731D01*
X130820399Y-27282734D01*
X130820394Y-27282737D01*
X130781390Y-27308799D01*
X130654566Y-27393540D01*
X130654565Y-27393541D01*
X130654559Y-27393546D01*
X130513546Y-27534559D01*
X130513541Y-27534565D01*
X130513540Y-27534566D01*
X130402741Y-27700387D01*
X130402731Y-27700404D01*
X130402726Y-27700413D01*
X130326419Y-27884637D01*
X130326406Y-27884676D01*
X130287500Y-28080270D01*
X130287500Y-28235356D01*
X130282237Y-28253276D01*
X130326406Y-28475322D01*
X130326407Y-28475326D01*
X130326408Y-28475329D01*
X130326411Y-28475339D01*
X130326414Y-28475347D01*
X130326419Y-28475361D01*
X130402726Y-28659585D01*
X130402731Y-28659594D01*
X130402741Y-28659611D01*
X130513540Y-28825432D01*
X130513541Y-28825433D01*
X130513546Y-28825439D01*
X130654559Y-28966452D01*
X130654565Y-28966457D01*
X130654569Y-28966460D01*
X130820394Y-29077262D01*
X130820407Y-29077269D01*
X130820409Y-29077269D01*
X130820413Y-29077272D01*
X130963427Y-29136509D01*
X130999049Y-29151264D01*
X131003462Y-29153351D01*
X131200271Y-29192500D01*
X131399725Y-29192500D01*
X131399727Y-29192500D01*
X131502124Y-29172131D01*
X131569635Y-29158702D01*
X131595335Y-29153590D01*
X131702039Y-29109392D01*
X131737840Y-29094563D01*
X131746341Y-29091041D01*
X131773053Y-29079977D01*
X131775843Y-29079005D01*
X131777288Y-29078336D01*
X131781945Y-29076294D01*
X131791206Y-29072457D01*
X131800085Y-29063577D01*
X131803783Y-29061106D01*
X131835622Y-29045873D01*
X131844516Y-29043088D01*
X131848621Y-29041803D01*
X131918479Y-29040557D01*
X131977921Y-29077277D01*
X132006594Y-29132687D01*
X132008423Y-29140744D01*
X132011500Y-29168195D01*
X132011500Y-29727867D01*
X132006475Y-29762809D01*
X132002637Y-29775877D01*
X131964859Y-29834653D01*
X131901301Y-29863674D01*
X131839283Y-29856721D01*
X131831569Y-29853765D01*
X131807061Y-29841082D01*
X131779617Y-29822745D01*
X131779616Y-29822744D01*
X131779605Y-29822737D01*
X131779592Y-29822730D01*
X131779585Y-29822726D01*
X131595361Y-29746419D01*
X131595347Y-29746414D01*
X131595339Y-29746411D01*
X131595329Y-29746408D01*
X131595326Y-29746407D01*
X131595322Y-29746406D01*
X131399728Y-29707500D01*
X131399725Y-29707500D01*
X131399723Y-29707500D01*
X131200277Y-29707500D01*
X131200275Y-29707500D01*
X131200271Y-29707500D01*
X131004676Y-29746406D01*
X131004670Y-29746408D01*
X131004660Y-29746411D01*
X131004655Y-29746412D01*
X131004637Y-29746419D01*
X130820413Y-29822726D01*
X130820404Y-29822731D01*
X130820399Y-29822734D01*
X130820394Y-29822737D01*
X130781390Y-29848799D01*
X130654566Y-29933540D01*
X130654565Y-29933541D01*
X130654559Y-29933546D01*
X130513546Y-30074559D01*
X130513541Y-30074565D01*
X130513540Y-30074566D01*
X130402741Y-30240387D01*
X130402731Y-30240404D01*
X130402726Y-30240413D01*
X130326419Y-30424637D01*
X130326406Y-30424676D01*
X130287500Y-30620270D01*
X130287500Y-30775356D01*
X130282237Y-30793276D01*
X130326406Y-31015322D01*
X130326407Y-31015326D01*
X130326408Y-31015329D01*
X130326411Y-31015339D01*
X130326414Y-31015347D01*
X130326419Y-31015361D01*
X130402726Y-31199585D01*
X130402731Y-31199594D01*
X130402741Y-31199611D01*
X130513540Y-31365432D01*
X130513541Y-31365433D01*
X130513546Y-31365439D01*
X130654559Y-31506452D01*
X130654565Y-31506457D01*
X130654569Y-31506460D01*
X130820394Y-31617262D01*
X130820407Y-31617269D01*
X130820409Y-31617269D01*
X130820413Y-31617272D01*
X130980573Y-31683611D01*
X130999054Y-31691265D01*
X131003463Y-31693351D01*
X131200271Y-31732500D01*
X131399725Y-31732500D01*
X131399726Y-31732500D01*
X131446067Y-31723281D01*
X131585094Y-31695627D01*
X131595335Y-31693590D01*
X131758000Y-31626212D01*
X131779592Y-31617269D01*
X131779592Y-31617268D01*
X131779599Y-31617266D01*
X131803783Y-31601107D01*
X131835617Y-31585874D01*
X131848620Y-31581802D01*
X131918477Y-31580556D01*
X131977920Y-31617275D01*
X132006594Y-31672687D01*
X132008423Y-31680744D01*
X132011500Y-31708195D01*
X132011500Y-32267867D01*
X132006475Y-32302809D01*
X132002637Y-32315877D01*
X131964859Y-32374653D01*
X131901301Y-32403674D01*
X131839283Y-32396721D01*
X131831569Y-32393765D01*
X131807061Y-32381082D01*
X131779617Y-32362745D01*
X131779616Y-32362744D01*
X131779605Y-32362737D01*
X131779592Y-32362730D01*
X131779585Y-32362726D01*
X131595361Y-32286419D01*
X131595347Y-32286414D01*
X131595339Y-32286411D01*
X131595329Y-32286408D01*
X131595326Y-32286407D01*
X131595322Y-32286406D01*
X131399728Y-32247500D01*
X131399725Y-32247500D01*
X131399723Y-32247500D01*
X131200277Y-32247500D01*
X131200275Y-32247500D01*
X131200271Y-32247500D01*
X131004676Y-32286406D01*
X131004670Y-32286408D01*
X131004660Y-32286411D01*
X131004655Y-32286412D01*
X131004637Y-32286419D01*
X130820413Y-32362726D01*
X130820404Y-32362731D01*
X130820387Y-32362741D01*
X130654566Y-32473540D01*
X130654565Y-32473541D01*
X130654559Y-32473546D01*
X130513546Y-32614559D01*
X130513541Y-32614565D01*
X130513540Y-32614566D01*
X130402741Y-32780387D01*
X130402731Y-32780404D01*
X130402726Y-32780413D01*
X130326419Y-32964637D01*
X130326406Y-32964676D01*
X130287500Y-33160270D01*
X130287500Y-33315356D01*
X130282237Y-33333276D01*
X130326406Y-33555322D01*
X130326407Y-33555326D01*
X130326408Y-33555329D01*
X130326411Y-33555339D01*
X130326414Y-33555347D01*
X130326419Y-33555361D01*
X130402726Y-33739585D01*
X130402731Y-33739594D01*
X130402741Y-33739611D01*
X130513540Y-33905432D01*
X130513541Y-33905433D01*
X130513546Y-33905439D01*
X130654559Y-34046452D01*
X130654565Y-34046457D01*
X130654569Y-34046460D01*
X130820394Y-34157262D01*
X130820407Y-34157269D01*
X130820409Y-34157269D01*
X130820413Y-34157272D01*
X130980573Y-34223611D01*
X130999054Y-34231265D01*
X131003463Y-34233351D01*
X131200271Y-34272500D01*
X131399725Y-34272500D01*
X131399726Y-34272500D01*
X131446067Y-34263281D01*
X131585094Y-34235627D01*
X131595335Y-34233590D01*
X131758000Y-34166212D01*
X131779592Y-34157269D01*
X131779592Y-34157268D01*
X131779599Y-34157266D01*
X131803783Y-34141107D01*
X131835617Y-34125874D01*
X131848620Y-34121802D01*
X131918477Y-34120556D01*
X131977920Y-34157275D01*
X132006594Y-34212687D01*
X132008423Y-34220744D01*
X132011500Y-34248195D01*
X132011500Y-34807867D01*
X132006475Y-34842809D01*
X132002637Y-34855877D01*
X131964859Y-34914653D01*
X131901301Y-34943674D01*
X131839283Y-34936721D01*
X131831569Y-34933765D01*
X131807061Y-34921082D01*
X131779617Y-34902745D01*
X131779616Y-34902744D01*
X131779605Y-34902737D01*
X131779592Y-34902730D01*
X131779585Y-34902726D01*
X131595361Y-34826419D01*
X131595347Y-34826414D01*
X131595339Y-34826411D01*
X131595329Y-34826408D01*
X131595326Y-34826407D01*
X131595322Y-34826406D01*
X131399728Y-34787500D01*
X131399725Y-34787500D01*
X131399723Y-34787500D01*
X131200277Y-34787500D01*
X131200275Y-34787500D01*
X131200271Y-34787500D01*
X131004676Y-34826406D01*
X131004670Y-34826408D01*
X131004660Y-34826411D01*
X131004655Y-34826412D01*
X131004637Y-34826419D01*
X130820413Y-34902726D01*
X130820404Y-34902731D01*
X130820387Y-34902741D01*
X130654566Y-35013540D01*
X130654565Y-35013541D01*
X130654559Y-35013546D01*
X130513546Y-35154559D01*
X130513541Y-35154565D01*
X130513540Y-35154566D01*
X130402735Y-35320396D01*
X130402734Y-35320398D01*
X130369574Y-35400454D01*
X130351567Y-35430804D01*
X130344480Y-35439599D01*
X130287089Y-35479449D01*
X130217264Y-35481945D01*
X130157174Y-35446295D01*
X130130523Y-35401702D01*
X130129539Y-35398806D01*
X129735871Y-34240626D01*
X129734746Y-34236421D01*
X129731275Y-34229077D01*
X129724127Y-34211819D01*
X129724127Y-34211818D01*
X129677178Y-34098473D01*
X129657269Y-34050407D01*
X129657262Y-34050394D01*
X129546460Y-33884569D01*
X129546457Y-33884565D01*
X129546452Y-33884559D01*
X129405439Y-33743546D01*
X129405433Y-33743541D01*
X129405432Y-33743540D01*
X129239611Y-33632741D01*
X129239606Y-33632738D01*
X129239605Y-33632737D01*
X129239592Y-33632730D01*
X129239585Y-33632726D01*
X129055361Y-33556419D01*
X129055347Y-33556414D01*
X129055339Y-33556411D01*
X129055329Y-33556408D01*
X129055326Y-33556407D01*
X129055322Y-33556406D01*
X128859728Y-33517500D01*
X128859725Y-33517500D01*
X128859723Y-33517500D01*
X128660277Y-33517500D01*
X128660275Y-33517500D01*
X128660271Y-33517500D01*
X128464676Y-33556406D01*
X128464670Y-33556408D01*
X128464660Y-33556411D01*
X128464655Y-33556412D01*
X128464637Y-33556419D01*
X128280413Y-33632726D01*
X128280404Y-33632731D01*
X128280387Y-33632741D01*
X128114573Y-33743536D01*
X128114568Y-33743539D01*
X128114559Y-33743547D01*
X128074787Y-33783320D01*
X128046533Y-33804471D01*
X128036607Y-33809891D01*
X127968334Y-33824743D01*
X127902870Y-33800326D01*
X127860999Y-33744395D01*
X127858313Y-33737191D01*
X127850500Y-33693871D01*
X127850500Y-32829583D01*
X127855521Y-32794656D01*
X127858707Y-32783803D01*
X127896477Y-32725022D01*
X127960031Y-32695993D01*
X128029186Y-32705931D01*
X128036172Y-32709121D01*
X128072343Y-32734235D01*
X128114560Y-32776453D01*
X128114565Y-32776457D01*
X128114569Y-32776460D01*
X128280394Y-32887262D01*
X128280407Y-32887269D01*
X128280409Y-32887269D01*
X128280413Y-32887272D01*
X128440573Y-32953611D01*
X128459054Y-32961265D01*
X128463463Y-32963351D01*
X128660271Y-33002500D01*
X128859725Y-33002500D01*
X128859726Y-33002500D01*
X128912139Y-32992074D01*
X129045094Y-32965627D01*
X129055335Y-32963590D01*
X129239585Y-32887272D01*
X129239592Y-32887269D01*
X129239592Y-32887268D01*
X129239599Y-32887266D01*
X129405431Y-32776460D01*
X129546460Y-32635431D01*
X129657266Y-32469599D01*
X129733590Y-32285335D01*
X129734999Y-32278255D01*
X129763323Y-32135860D01*
X129763323Y-32135857D01*
X129772500Y-32089725D01*
X129772500Y-31890271D01*
X129733351Y-31693462D01*
X129731265Y-31689052D01*
X129724128Y-31671822D01*
X129724128Y-31671821D01*
X129683022Y-31572581D01*
X129657269Y-31510407D01*
X129657262Y-31510394D01*
X129546460Y-31344569D01*
X129546457Y-31344565D01*
X129546452Y-31344559D01*
X129405439Y-31203546D01*
X129405433Y-31203541D01*
X129405432Y-31203540D01*
X129239611Y-31092741D01*
X129239606Y-31092738D01*
X129239605Y-31092737D01*
X129239592Y-31092730D01*
X129239585Y-31092726D01*
X129055361Y-31016419D01*
X129055347Y-31016414D01*
X129055339Y-31016411D01*
X129055329Y-31016408D01*
X129055326Y-31016407D01*
X129055322Y-31016406D01*
X128859728Y-30977500D01*
X128859725Y-30977500D01*
X128859723Y-30977500D01*
X128660277Y-30977500D01*
X128660275Y-30977500D01*
X128660271Y-30977500D01*
X128464676Y-31016406D01*
X128464670Y-31016408D01*
X128464660Y-31016411D01*
X128464655Y-31016412D01*
X128464637Y-31016419D01*
X128280410Y-31092728D01*
X128280405Y-31092730D01*
X128280396Y-31092735D01*
X128258210Y-31107559D01*
X128226375Y-31122790D01*
X128213380Y-31126859D01*
X128143521Y-31128106D01*
X128084078Y-31091387D01*
X128055401Y-31035961D01*
X128053572Y-31027902D01*
X128050500Y-31000471D01*
X128050500Y-30443468D01*
X128052204Y-30437661D01*
X128055523Y-30408534D01*
X128059360Y-30395466D01*
X128068999Y-30380466D01*
X128070185Y-30376429D01*
X128073365Y-30373673D01*
X128097134Y-30336688D01*
X128160689Y-30307662D01*
X128222705Y-30314610D01*
X128230428Y-30317570D01*
X128254939Y-30330253D01*
X128278789Y-30346189D01*
X128279991Y-30347019D01*
X128280393Y-30347260D01*
X128280394Y-30347261D01*
X128280401Y-30347266D01*
X128280403Y-30347267D01*
X128280407Y-30347269D01*
X128440573Y-30413611D01*
X128459054Y-30421265D01*
X128463463Y-30423351D01*
X128660271Y-30462500D01*
X128859725Y-30462500D01*
X128859726Y-30462500D01*
X128886044Y-30457264D01*
X128991324Y-30436322D01*
X128991325Y-30436322D01*
X129004196Y-30433761D01*
X129055335Y-30423590D01*
X129239145Y-30347454D01*
X129239592Y-30347269D01*
X129239592Y-30347268D01*
X129239599Y-30347266D01*
X129405431Y-30236460D01*
X129546460Y-30095431D01*
X129657266Y-29929599D01*
X129658964Y-29925501D01*
X129701529Y-29822737D01*
X129733590Y-29745335D01*
X129746322Y-29681324D01*
X129772500Y-29549725D01*
X129772500Y-29350271D01*
X129733351Y-29153463D01*
X129731264Y-29149050D01*
X129729011Y-29143611D01*
X129720789Y-29123760D01*
X129701974Y-29078336D01*
X129657272Y-28970413D01*
X129657267Y-28970404D01*
X129657262Y-28970394D01*
X129546460Y-28804569D01*
X129546457Y-28804565D01*
X129546452Y-28804559D01*
X129405439Y-28663546D01*
X129405433Y-28663541D01*
X129405432Y-28663540D01*
X129239611Y-28552741D01*
X129239606Y-28552738D01*
X129239605Y-28552737D01*
X129239592Y-28552730D01*
X129239585Y-28552726D01*
X129055361Y-28476419D01*
X129055347Y-28476414D01*
X129055339Y-28476411D01*
X129055329Y-28476408D01*
X129055326Y-28476407D01*
X129055322Y-28476406D01*
X128859728Y-28437500D01*
X128859725Y-28437500D01*
X128859723Y-28437500D01*
X128660277Y-28437500D01*
X128660275Y-28437500D01*
X128660271Y-28437500D01*
X128464676Y-28476406D01*
X128464670Y-28476408D01*
X128464660Y-28476411D01*
X128464655Y-28476412D01*
X128464637Y-28476419D01*
X128280412Y-28552726D01*
X128280402Y-28552731D01*
X128280394Y-28552736D01*
X128280393Y-28552736D01*
X128193653Y-28610695D01*
X128161814Y-28625928D01*
X128147091Y-28630538D01*
X128077233Y-28631785D01*
X128021060Y-28598567D01*
X128013266Y-28590537D01*
X127994860Y-28566176D01*
X127987500Y-28553429D01*
X127987498Y-28553426D01*
X127978471Y-28537791D01*
X127978467Y-28537786D01*
X127852617Y-28411936D01*
X127827771Y-28376347D01*
X127817650Y-28354485D01*
X127817650Y-28354486D01*
X127638687Y-27967931D01*
X127638685Y-27967929D01*
X127638682Y-27967921D01*
X127637918Y-27966604D01*
X127633300Y-27959403D01*
X127611994Y-27922500D01*
X127596880Y-27896322D01*
X127565513Y-27841991D01*
X127565508Y-27841984D01*
X127565493Y-27841968D01*
X127463030Y-27739505D01*
X127463014Y-27739490D01*
X127463006Y-27739485D01*
X127409243Y-27708445D01*
X127380808Y-27678624D01*
X127326007Y-27663939D01*
X127326007Y-27663940D01*
X127240587Y-27641052D01*
X127197475Y-27629500D01*
X127197474Y-27629500D01*
X127052523Y-27629500D01*
X127023810Y-27637193D01*
X126988771Y-27641382D01*
X126974897Y-27641052D01*
X126908345Y-27619779D01*
X126863860Y-27565903D01*
X126860508Y-27558076D01*
X126850500Y-27509272D01*
X126850500Y-26983276D01*
X127742237Y-26983276D01*
X127786406Y-27205322D01*
X127786407Y-27205326D01*
X127786408Y-27205329D01*
X127786411Y-27205339D01*
X127786414Y-27205347D01*
X127786419Y-27205361D01*
X127862726Y-27389585D01*
X127862731Y-27389594D01*
X127862741Y-27389611D01*
X127973540Y-27555432D01*
X127973541Y-27555433D01*
X127973546Y-27555439D01*
X128114559Y-27696452D01*
X128114565Y-27696457D01*
X128114569Y-27696460D01*
X128280394Y-27807262D01*
X128280407Y-27807269D01*
X128280409Y-27807269D01*
X128280413Y-27807272D01*
X128440573Y-27873611D01*
X128459054Y-27881265D01*
X128463463Y-27883351D01*
X128660271Y-27922500D01*
X128859725Y-27922500D01*
X128859726Y-27922500D01*
X128886044Y-27917264D01*
X128991324Y-27896322D01*
X128991325Y-27896322D01*
X129004196Y-27893761D01*
X129055335Y-27883590D01*
X129239585Y-27807272D01*
X129239592Y-27807269D01*
X129239592Y-27807268D01*
X129239599Y-27807266D01*
X129405431Y-27696460D01*
X129546460Y-27555431D01*
X129657266Y-27389599D01*
X129658964Y-27385501D01*
X129701529Y-27282737D01*
X129733590Y-27205335D01*
X129761740Y-27063818D01*
X129772500Y-27009725D01*
X129772500Y-26810274D01*
X129772500Y-26810271D01*
X129733351Y-26613464D01*
X129731266Y-26609056D01*
X129715912Y-26571985D01*
X129664585Y-26448069D01*
X129657272Y-26430413D01*
X129657267Y-26430404D01*
X129657262Y-26430394D01*
X129546460Y-26264569D01*
X129546457Y-26264565D01*
X129546452Y-26264559D01*
X129405439Y-26123546D01*
X129405433Y-26123541D01*
X129405432Y-26123540D01*
X129239611Y-26012741D01*
X129239606Y-26012738D01*
X129239605Y-26012737D01*
X129239592Y-26012730D01*
X129239585Y-26012726D01*
X129055361Y-25936419D01*
X129055347Y-25936414D01*
X129055339Y-25936411D01*
X129055329Y-25936408D01*
X129055326Y-25936407D01*
X129055322Y-25936406D01*
X128859728Y-25897500D01*
X128859725Y-25897500D01*
X128859723Y-25897500D01*
X128660277Y-25897500D01*
X128660275Y-25897500D01*
X128660271Y-25897500D01*
X128464676Y-25936406D01*
X128464670Y-25936408D01*
X128464660Y-25936411D01*
X128464655Y-25936412D01*
X128464637Y-25936419D01*
X128280413Y-26012726D01*
X128280404Y-26012731D01*
X128280387Y-26012741D01*
X128114566Y-26123540D01*
X128114565Y-26123541D01*
X128114559Y-26123546D01*
X127973546Y-26264559D01*
X127973541Y-26264565D01*
X127973540Y-26264566D01*
X127862741Y-26430387D01*
X127862731Y-26430404D01*
X127862726Y-26430413D01*
X127786419Y-26614637D01*
X127786406Y-26614676D01*
X127747500Y-26810270D01*
X127747500Y-26965356D01*
X127742237Y-26983276D01*
X126850500Y-26983276D01*
X126850500Y-24603858D01*
X126850500Y-24603856D01*
X126826614Y-24514712D01*
X126821918Y-24506579D01*
X126821907Y-24506534D01*
X126821896Y-24506541D01*
X126821895Y-24506539D01*
X126821175Y-24505291D01*
X126821174Y-24505290D01*
X126819342Y-24502114D01*
X126819316Y-24502072D01*
X126816156Y-24496599D01*
X126816154Y-24496595D01*
X126780470Y-24434788D01*
X126342566Y-23996884D01*
X126312844Y-23949109D01*
X125925869Y-22810616D01*
X125924743Y-22806413D01*
X125921275Y-22799077D01*
X125912382Y-22777607D01*
X125911238Y-22774845D01*
X125910944Y-22774136D01*
X125873885Y-22684666D01*
X125847269Y-22620407D01*
X125847262Y-22620394D01*
X125820414Y-22580214D01*
X125805184Y-22548378D01*
X125801114Y-22535380D01*
X125799866Y-22465522D01*
X125836585Y-22406079D01*
X125892012Y-22377401D01*
X125900075Y-22375571D01*
X125927502Y-22372500D01*
X126899142Y-22372500D01*
X126899144Y-22372500D01*
X126988288Y-22348614D01*
X127068212Y-22302470D01*
X127523217Y-21847462D01*
X127551460Y-21826320D01*
X127561395Y-21820895D01*
X127629666Y-21806045D01*
X127695130Y-21830462D01*
G37*
%TD.AperFunction*%
%TA.AperFunction,Conductor*%
G36*
X127695126Y-18881459D02*
G01*
X127736999Y-18937391D01*
X127737001Y-18937395D01*
X127739682Y-18944583D01*
X127747500Y-18987917D01*
X127747500Y-20076678D01*
X127747500Y-20076680D01*
X127747499Y-20076680D01*
X127762028Y-20149717D01*
X127762032Y-20149733D01*
X127762033Y-20149740D01*
X127780404Y-20177234D01*
X127817398Y-20232600D01*
X127817403Y-20232604D01*
X127874357Y-20270659D01*
X127900616Y-20294246D01*
X127909513Y-20304892D01*
X127937398Y-20368955D01*
X127926223Y-20437922D01*
X127921471Y-20447855D01*
X127897294Y-20482022D01*
X126756744Y-21622573D01*
X126728493Y-21643722D01*
X126705405Y-21656330D01*
X126645975Y-21671500D01*
X126391374Y-21671500D01*
X126356439Y-21666477D01*
X126345585Y-21663290D01*
X126286807Y-21625516D01*
X126257782Y-21561960D01*
X126267722Y-21492811D01*
X126270912Y-21485824D01*
X126296019Y-21449662D01*
X126452014Y-21293668D01*
X126655470Y-21090212D01*
X126701614Y-21010288D01*
X126725500Y-20921143D01*
X126725500Y-20828856D01*
X126725500Y-19765372D01*
X126730522Y-19730439D01*
X126732006Y-19725385D01*
X126737934Y-19705194D01*
X126769228Y-19652452D01*
X127523214Y-18898466D01*
X127551457Y-18877322D01*
X127561391Y-18871898D01*
X127629661Y-18857045D01*
X127695126Y-18881459D01*
G37*
%TD.AperFunction*%
%TD*%
%TA.AperFunction,Conductor*%
%TO.N,GNDA*%
G36*
X143258949Y-73411076D02*
G01*
X143268245Y-73413566D01*
X143274439Y-73415226D01*
X143341236Y-73453788D01*
X143379784Y-73520516D01*
X143383927Y-73535948D01*
X143389023Y-73574452D01*
X143392269Y-77292789D01*
X143387226Y-77331355D01*
X143383094Y-77346831D01*
X143344590Y-77413660D01*
X143277844Y-77452280D01*
X143275831Y-77452821D01*
X143272068Y-77453833D01*
X143214015Y-77457686D01*
X143197072Y-77455467D01*
X143192214Y-77457482D01*
X143172702Y-77458765D01*
X143055204Y-77458765D01*
X142921428Y-77494611D01*
X142901464Y-77497239D01*
X142885487Y-77509499D01*
X142765547Y-77578745D01*
X142653745Y-77690547D01*
X142574687Y-77827481D01*
X142571031Y-77841125D01*
X142563181Y-77861328D01*
X142563672Y-77861529D01*
X142561065Y-77867919D01*
X142552140Y-77886139D01*
X142546280Y-77896288D01*
X142491763Y-77950811D01*
X142488554Y-77952663D01*
X142485325Y-77954528D01*
X142410829Y-77974500D01*
X140672199Y-77974500D01*
X140633635Y-77969423D01*
X140606839Y-77962243D01*
X140540044Y-77923679D01*
X140494845Y-77878480D01*
X140465485Y-77861529D01*
X140357913Y-77799423D01*
X140205186Y-77758500D01*
X140047068Y-77758500D01*
X139913292Y-77794346D01*
X139893328Y-77796974D01*
X139877351Y-77809234D01*
X139757411Y-77878480D01*
X139645608Y-77990283D01*
X139566553Y-78127212D01*
X139525629Y-78279941D01*
X139525629Y-78279943D01*
X139525629Y-78438057D01*
X139566552Y-78590784D01*
X139645609Y-78727716D01*
X139757413Y-78839520D01*
X139894345Y-78918577D01*
X140047072Y-78959500D01*
X140205186Y-78959500D01*
X140357913Y-78918577D01*
X140494845Y-78839520D01*
X140501352Y-78833012D01*
X140532210Y-78809333D01*
X140556239Y-78795460D01*
X140630737Y-78775500D01*
X142638759Y-78775500D01*
X142666136Y-78778036D01*
X142679314Y-78780500D01*
X142816200Y-78780500D01*
X142816204Y-78780500D01*
X142859658Y-78776218D01*
X142869467Y-78775735D01*
X142871252Y-78775500D01*
X142871255Y-78775500D01*
X142871257Y-78775500D01*
X142871261Y-78775498D01*
X142873053Y-78775263D01*
X142875578Y-78774674D01*
X142875824Y-78774624D01*
X142875834Y-78774624D01*
X142880311Y-78773733D01*
X142896600Y-78768790D01*
X142901183Y-78767481D01*
X142973118Y-78748207D01*
X142990058Y-78738425D01*
X143021255Y-78724893D01*
X143199816Y-78670664D01*
X143276900Y-78668116D01*
X143344932Y-78704452D01*
X143372152Y-78738739D01*
X143373638Y-78741313D01*
X143393598Y-78815679D01*
X143395084Y-80514781D01*
X145873397Y-83016234D01*
X146650881Y-83800978D01*
X146669727Y-83820000D01*
X151142852Y-83820000D01*
X151181407Y-83825074D01*
X151194808Y-83828665D01*
X151261603Y-83867225D01*
X151300170Y-83934018D01*
X151300181Y-84011118D01*
X151299220Y-84014708D01*
X151260673Y-84081512D01*
X151260647Y-84081538D01*
X149492686Y-85849500D01*
X147685706Y-87656477D01*
X147654851Y-87680153D01*
X147640980Y-87688162D01*
X147566481Y-87708127D01*
X147491991Y-87688173D01*
X147486913Y-87685242D01*
X147432371Y-87630713D01*
X147403834Y-87581284D01*
X147292030Y-87469480D01*
X147155098Y-87390423D01*
X147002371Y-87349500D01*
X146954228Y-87349500D01*
X146915665Y-87344423D01*
X146898674Y-87339870D01*
X146831881Y-87301307D01*
X146819446Y-87288872D01*
X146795767Y-87258013D01*
X146731813Y-87147241D01*
X146620010Y-87035438D01*
X146483078Y-86956381D01*
X146330351Y-86915458D01*
X146172232Y-86915458D01*
X146160657Y-86918560D01*
X146122100Y-86923635D01*
X146104514Y-86923635D01*
X146030014Y-86903673D01*
X146030001Y-86903665D01*
X146023561Y-86899946D01*
X145969036Y-86845416D01*
X145932009Y-86781283D01*
X145820206Y-86669480D01*
X145683274Y-86590423D01*
X145530547Y-86549500D01*
X145460858Y-86549500D01*
X145422295Y-86544423D01*
X145405304Y-86539870D01*
X145338511Y-86501307D01*
X145326074Y-86488870D01*
X145302395Y-86458010D01*
X145248770Y-86365127D01*
X145136966Y-86253323D01*
X145000034Y-86174266D01*
X144847307Y-86133343D01*
X144683453Y-86133343D01*
X144675390Y-86133871D01*
X144673067Y-86133871D01*
X144650006Y-86133871D01*
X144575509Y-86113907D01*
X144569073Y-86110191D01*
X144514538Y-86055654D01*
X144471600Y-85981282D01*
X144359802Y-85869485D01*
X144359797Y-85869480D01*
X144354834Y-85866614D01*
X144323975Y-85842934D01*
X144314164Y-85833123D01*
X144275603Y-85766326D01*
X144275607Y-85689198D01*
X144314166Y-85622413D01*
X144323982Y-85612598D01*
X144354830Y-85588928D01*
X144386716Y-85570520D01*
X144498520Y-85458716D01*
X144577577Y-85321784D01*
X144618500Y-85169057D01*
X144618500Y-85010943D01*
X144577577Y-84858216D01*
X144498520Y-84721284D01*
X144386716Y-84609480D01*
X144249784Y-84530423D01*
X144249781Y-84530421D01*
X144151833Y-84504175D01*
X144115903Y-84489293D01*
X144103892Y-84482359D01*
X144049353Y-84427823D01*
X144029388Y-84353324D01*
X144049347Y-84278825D01*
X144056282Y-84266812D01*
X144079961Y-84235951D01*
X144126481Y-84189431D01*
X144157335Y-84165756D01*
X144190151Y-84146811D01*
X144226087Y-84131927D01*
X144242675Y-84127481D01*
X144249784Y-84125577D01*
X144386716Y-84046520D01*
X144498520Y-83934716D01*
X144577577Y-83797784D01*
X144618500Y-83645057D01*
X144618500Y-83486943D01*
X144577577Y-83334216D01*
X144498520Y-83197284D01*
X144386716Y-83085480D01*
X144249784Y-83006423D01*
X144097057Y-82965500D01*
X143938939Y-82965500D01*
X143805163Y-83001346D01*
X143785199Y-83003974D01*
X143769222Y-83016234D01*
X143649282Y-83085480D01*
X143537479Y-83197283D01*
X143458424Y-83334212D01*
X143417500Y-83486941D01*
X143417500Y-83645057D01*
X143418775Y-83654740D01*
X143417844Y-83654862D01*
X143420714Y-83676672D01*
X143420714Y-83694259D01*
X143400752Y-83768759D01*
X143400750Y-83768762D01*
X143391957Y-83783991D01*
X143368280Y-83814847D01*
X142291140Y-84891988D01*
X142260284Y-84915665D01*
X142236260Y-84929536D01*
X142161760Y-84949500D01*
X131698226Y-84949500D01*
X131659662Y-84944423D01*
X131632866Y-84937243D01*
X131566071Y-84898679D01*
X130983012Y-84315619D01*
X130959332Y-84284758D01*
X130945461Y-84260732D01*
X130925500Y-84186234D01*
X130925500Y-73574616D01*
X130930576Y-73536056D01*
X130934721Y-73520585D01*
X130973283Y-73453789D01*
X131040075Y-73415223D01*
X131055556Y-73411076D01*
X131094116Y-73406000D01*
X143220390Y-73406000D01*
X143258949Y-73411076D01*
G37*
%TD.AperFunction*%
%TD*%
%TA.AperFunction,Conductor*%
%TO.N,VCC*%
G36*
X139292105Y-39283994D02*
G01*
X139294815Y-39288235D01*
X139465335Y-39752766D01*
X139464969Y-39761714D01*
X139458947Y-39767558D01*
X139196595Y-39879604D01*
X139187641Y-39879702D01*
X139187405Y-39879604D01*
X138925052Y-39767558D01*
X138918789Y-39761157D01*
X138918664Y-39752766D01*
X139089185Y-39288235D01*
X139095252Y-39281650D01*
X139100168Y-39280567D01*
X139283832Y-39280567D01*
X139292105Y-39283994D01*
G37*
%TD.AperFunction*%
%TD*%
%TA.AperFunction,Conductor*%
%TO.N,/A7*%
G36*
X124252576Y-51140311D02*
G01*
X124510756Y-51250575D01*
X124514523Y-51253152D01*
X124515893Y-51254552D01*
X124519230Y-51262562D01*
X124519253Y-51264115D01*
X124518537Y-51268320D01*
X124349568Y-51728628D01*
X124347189Y-51732525D01*
X124345191Y-51734693D01*
X124339250Y-51738157D01*
X124339173Y-51738175D01*
X124336510Y-51738482D01*
X124156446Y-51738482D01*
X124151968Y-51737591D01*
X124149245Y-51736463D01*
X124143859Y-51731946D01*
X124143811Y-51731871D01*
X124142698Y-51729621D01*
X123973416Y-51268466D01*
X123972710Y-51263957D01*
X123972790Y-51262000D01*
X123976331Y-51254081D01*
X123977445Y-51253000D01*
X123980998Y-51250638D01*
X123981146Y-51250575D01*
X124239221Y-51140355D01*
X124243682Y-51139417D01*
X124247857Y-51139372D01*
X124252576Y-51140311D01*
G37*
%TD.AperFunction*%
%TD*%
%TA.AperFunction,Conductor*%
%TO.N,/A7*%
G36*
X146742844Y-87721014D02*
G01*
X146743614Y-87721333D01*
X146749167Y-87726119D01*
X146999419Y-88142904D01*
X147000960Y-88147202D01*
X147001492Y-88150770D01*
X147000696Y-88157053D01*
X146966383Y-88238182D01*
X146963817Y-88241960D01*
X146961635Y-88244109D01*
X146953479Y-88247473D01*
X146511716Y-88249500D01*
X146416707Y-88249500D01*
X146412230Y-88248609D01*
X146410581Y-88247926D01*
X146404252Y-88241595D01*
X146403940Y-88240843D01*
X146403569Y-88239945D01*
X146402680Y-88235472D01*
X146402680Y-88057173D01*
X146403570Y-88052698D01*
X146405215Y-88048724D01*
X146407749Y-88044929D01*
X146504023Y-87948655D01*
X146505148Y-87947667D01*
X146506366Y-87946732D01*
X146507617Y-87945896D01*
X146558608Y-87916458D01*
X146651794Y-87823272D01*
X146681232Y-87772281D01*
X146682068Y-87771030D01*
X146683003Y-87769812D01*
X146683991Y-87768687D01*
X146728450Y-87724228D01*
X146732245Y-87721693D01*
X146733117Y-87721333D01*
X146733893Y-87721012D01*
X146742844Y-87721014D01*
G37*
%TD.AperFunction*%
%TD*%
%TA.AperFunction,Conductor*%
%TO.N,/A6*%
G36*
X145966510Y-87478345D02*
G01*
X146058136Y-87489536D01*
X146244729Y-87512326D01*
X146252526Y-87516731D01*
X146254925Y-87522522D01*
X146288906Y-87800741D01*
X146286507Y-87809368D01*
X146278710Y-87813773D01*
X146277715Y-87813851D01*
X146087965Y-87820710D01*
X146087960Y-87820711D01*
X146020610Y-87848609D01*
X146016133Y-87849500D01*
X145762504Y-87849500D01*
X145754231Y-87846073D01*
X145750804Y-87837800D01*
X145750804Y-87663580D01*
X145754231Y-87655307D01*
X145762504Y-87651880D01*
X145764224Y-87652008D01*
X145946541Y-87679289D01*
X145953400Y-87489534D01*
X145957123Y-87481392D01*
X145965515Y-87478267D01*
X145966510Y-87478345D01*
G37*
%TD.AperFunction*%
%TD*%
%TA.AperFunction,Conductor*%
%TO.N,/A6*%
G36*
X136947391Y-50744449D02*
G01*
X136951354Y-50745936D01*
X136955161Y-50748278D01*
X136959091Y-50751894D01*
X136962812Y-50755319D01*
X137192327Y-50966545D01*
X137195017Y-50970230D01*
X137196269Y-50972930D01*
X137197160Y-50979970D01*
X137197153Y-50980008D01*
X137196494Y-50982274D01*
X137165417Y-51059119D01*
X137164324Y-51061195D01*
X137163052Y-51063115D01*
X137161571Y-51064926D01*
X137109544Y-51116954D01*
X137109536Y-51116963D01*
X137069989Y-51185460D01*
X137069977Y-51185482D01*
X137069976Y-51185484D01*
X137049500Y-51261903D01*
X137049500Y-51330500D01*
X137048609Y-51334979D01*
X137047927Y-51336625D01*
X137041599Y-51342954D01*
X137040727Y-51343315D01*
X137039952Y-51343636D01*
X137035473Y-51344528D01*
X136861441Y-51344528D01*
X136856965Y-51343638D01*
X136854553Y-51342639D01*
X136848850Y-51337594D01*
X136848541Y-51337049D01*
X136847382Y-51334153D01*
X136846460Y-51330500D01*
X136704145Y-50766434D01*
X136703913Y-50761883D01*
X136704172Y-50760113D01*
X136708755Y-50752431D01*
X136709479Y-50751892D01*
X136716160Y-50749580D01*
X136942988Y-50743708D01*
X136947391Y-50744449D01*
G37*
%TD.AperFunction*%
%TD*%
%TA.AperFunction,Conductor*%
%TO.N,/A5*%
G36*
X138156625Y-49999262D02*
G01*
X138356925Y-50084807D01*
X138413977Y-50109173D01*
X138417746Y-50111752D01*
X138418993Y-50113027D01*
X138422328Y-50121330D01*
X138422311Y-50122960D01*
X138421249Y-50127712D01*
X138249976Y-50501521D01*
X138222042Y-50568964D01*
X138220962Y-50570985D01*
X138219705Y-50572867D01*
X138218249Y-50574642D01*
X138162773Y-50630118D01*
X138158981Y-50632653D01*
X138157336Y-50633335D01*
X138148381Y-50633337D01*
X138146729Y-50632653D01*
X138142936Y-50630118D01*
X138035344Y-50522526D01*
X138032808Y-50518731D01*
X138032325Y-50517564D01*
X138032326Y-50508610D01*
X138038656Y-50502281D01*
X138039477Y-50501941D01*
X138044807Y-50501086D01*
X138050000Y-50501471D01*
X137878806Y-50127836D01*
X137877752Y-50123397D01*
X137877736Y-50122960D01*
X137877686Y-50121615D01*
X137880803Y-50113224D01*
X137881918Y-50112022D01*
X137885892Y-50109228D01*
X138143270Y-49999306D01*
X138147731Y-49998368D01*
X138151906Y-49998323D01*
X138156625Y-49999262D01*
G37*
%TD.AperFunction*%
%TD*%
%TA.AperFunction,Conductor*%
%TO.N,/A5*%
G36*
X145271020Y-86921014D02*
G01*
X145271790Y-86921333D01*
X145277343Y-86926119D01*
X145305944Y-86973753D01*
X145527595Y-87342904D01*
X145529136Y-87347202D01*
X145529668Y-87350770D01*
X145528872Y-87357053D01*
X145494559Y-87438182D01*
X145491993Y-87441960D01*
X145489811Y-87444109D01*
X145481655Y-87447473D01*
X145039892Y-87449500D01*
X144944883Y-87449500D01*
X144940406Y-87448609D01*
X144938757Y-87447926D01*
X144932428Y-87441595D01*
X144932116Y-87440843D01*
X144931745Y-87439945D01*
X144930856Y-87435472D01*
X144930856Y-87257173D01*
X144931746Y-87252698D01*
X144933391Y-87248724D01*
X144935925Y-87244929D01*
X145005210Y-87175644D01*
X145006337Y-87174655D01*
X145007552Y-87173722D01*
X145008795Y-87172891D01*
X145075564Y-87134343D01*
X145168750Y-87041157D01*
X145207298Y-86974388D01*
X145208129Y-86973145D01*
X145209062Y-86971930D01*
X145210051Y-86970803D01*
X145256626Y-86924228D01*
X145260421Y-86921693D01*
X145261293Y-86921333D01*
X145262069Y-86921012D01*
X145271020Y-86921014D01*
G37*
%TD.AperFunction*%
%TD*%
%TA.AperFunction,Conductor*%
%TO.N,/A4*%
G36*
X144764108Y-86735707D02*
G01*
X144768641Y-86743430D01*
X144768641Y-86746650D01*
X144730640Y-87020129D01*
X144726107Y-87027852D01*
X144717894Y-87030162D01*
X144622801Y-87020710D01*
X144555451Y-87048609D01*
X144550974Y-87049500D01*
X144272052Y-87049500D01*
X144263779Y-87046073D01*
X144260352Y-87037800D01*
X144260352Y-86863353D01*
X144263779Y-86855080D01*
X144272052Y-86851653D01*
X144273588Y-86851753D01*
X144481382Y-86879289D01*
X144471929Y-86784195D01*
X144474521Y-86775627D01*
X144481961Y-86771452D01*
X144755442Y-86733451D01*
X144764108Y-86735707D01*
G37*
%TD.AperFunction*%
%TD*%
%TA.AperFunction,Conductor*%
%TO.N,/A3*%
G36*
X138377305Y-43202938D02*
G01*
X138382812Y-43209462D01*
X138793404Y-44417434D01*
X138792821Y-44426370D01*
X138790599Y-44429472D01*
X138659472Y-44560599D01*
X138651199Y-44564026D01*
X138647434Y-44563404D01*
X137439462Y-44152812D01*
X137432732Y-44146905D01*
X137432013Y-44138398D01*
X137644893Y-43422767D01*
X137650535Y-43415817D01*
X137652761Y-43414895D01*
X138368398Y-43202013D01*
X138377305Y-43202938D01*
G37*
%TD.AperFunction*%
%TD*%
%TA.AperFunction,Conductor*%
%TO.N,/A3*%
G36*
X143810611Y-86121014D02*
G01*
X143811381Y-86121333D01*
X143816934Y-86126119D01*
X144067186Y-86542904D01*
X144068727Y-86547202D01*
X144069259Y-86550770D01*
X144068463Y-86557053D01*
X144034150Y-86638182D01*
X144031584Y-86641960D01*
X144029402Y-86644109D01*
X144021246Y-86647473D01*
X143579483Y-86649500D01*
X143484474Y-86649500D01*
X143479997Y-86648609D01*
X143478348Y-86647926D01*
X143472019Y-86641595D01*
X143471707Y-86640843D01*
X143471336Y-86639945D01*
X143470447Y-86635472D01*
X143470447Y-86457173D01*
X143471337Y-86452697D01*
X143472984Y-86448720D01*
X143475516Y-86444929D01*
X143796217Y-86124228D01*
X143800012Y-86121693D01*
X143800884Y-86121333D01*
X143801660Y-86121012D01*
X143810611Y-86121014D01*
G37*
%TD.AperFunction*%
%TD*%
%TA.AperFunction,Conductor*%
%TO.N,/A2*%
G36*
X140928199Y-44154729D02*
G01*
X140931442Y-44155600D01*
X141242005Y-44289308D01*
X141245765Y-44291897D01*
X141246359Y-44292508D01*
X141247008Y-44293176D01*
X141250316Y-44301490D01*
X141250293Y-44303173D01*
X141249261Y-44307819D01*
X140866171Y-45158179D01*
X140863790Y-45161633D01*
X140860973Y-45164459D01*
X140857526Y-45166851D01*
X140256941Y-45439664D01*
X140252496Y-45440705D01*
X140249527Y-45440805D01*
X140242834Y-45438972D01*
X140242798Y-45438949D01*
X140240824Y-45437362D01*
X140114643Y-45311181D01*
X140112108Y-45307388D01*
X140111205Y-45305209D01*
X140110867Y-45297187D01*
X140111170Y-45296235D01*
X140112768Y-45293025D01*
X140914367Y-44160812D01*
X140917679Y-44157675D01*
X140919783Y-44156350D01*
X140927393Y-44154633D01*
X140928199Y-44154729D01*
G37*
%TD.AperFunction*%
%TD*%
%TA.AperFunction,Conductor*%
%TO.N,/A2*%
G36*
X143033267Y-85721014D02*
G01*
X143034037Y-85721333D01*
X143039590Y-85726119D01*
X143289842Y-86142904D01*
X143291383Y-86147202D01*
X143291915Y-86150770D01*
X143291119Y-86157053D01*
X143256806Y-86238182D01*
X143254240Y-86241960D01*
X143252058Y-86244109D01*
X143243902Y-86247473D01*
X142802139Y-86249500D01*
X142707130Y-86249500D01*
X142702653Y-86248609D01*
X142701004Y-86247926D01*
X142694675Y-86241595D01*
X142694363Y-86240843D01*
X142693992Y-86239945D01*
X142693103Y-86235472D01*
X142693103Y-86057173D01*
X142693993Y-86052697D01*
X142695640Y-86048720D01*
X142698172Y-86044929D01*
X143018873Y-85724228D01*
X143022668Y-85721693D01*
X143023540Y-85721333D01*
X143024316Y-85721012D01*
X143033267Y-85721014D01*
G37*
%TD.AperFunction*%
%TD*%
%TA.AperFunction,Conductor*%
%TO.N,/A1*%
G36*
X140747884Y-45955616D02*
G01*
X140754285Y-45961879D01*
X140754383Y-45962115D01*
X140860448Y-46226312D01*
X140860350Y-46235266D01*
X140853956Y-46241526D01*
X140474999Y-46393931D01*
X140472994Y-46396900D01*
X140472458Y-46396538D01*
X140471573Y-46398676D01*
X140463300Y-46402103D01*
X140453560Y-46402103D01*
X140453560Y-46401486D01*
X140453458Y-46401465D01*
X140453458Y-46402103D01*
X140286700Y-46402103D01*
X140278427Y-46398676D01*
X140275000Y-46390403D01*
X140275000Y-46337325D01*
X140275890Y-46332850D01*
X140292905Y-46291772D01*
X140304280Y-46264312D01*
X140468473Y-45856043D01*
X140474739Y-45849646D01*
X140483686Y-45849551D01*
X140747884Y-45955616D01*
G37*
%TD.AperFunction*%
%TD*%
%TA.AperFunction,Conductor*%
%TO.N,/A1*%
G36*
X144011435Y-85086368D02*
G01*
X144019232Y-85090773D01*
X144021631Y-85096564D01*
X144055740Y-85375825D01*
X144053341Y-85384452D01*
X144045550Y-85388856D01*
X143834708Y-85414711D01*
X143834704Y-85414712D01*
X143766151Y-85443109D01*
X143761674Y-85444000D01*
X143537477Y-85444000D01*
X143529204Y-85440573D01*
X143525777Y-85432300D01*
X143525777Y-85257923D01*
X143529204Y-85249650D01*
X143537477Y-85246223D01*
X143539491Y-85246397D01*
X143693289Y-85273289D01*
X143719143Y-85062447D01*
X143723551Y-85054654D01*
X143732172Y-85052259D01*
X144011435Y-85086368D01*
G37*
%TD.AperFunction*%
%TD*%
%TA.AperFunction,Conductor*%
%TO.N,/A0*%
G36*
X141465567Y-47228345D02*
G01*
X142121257Y-47583374D01*
X142126900Y-47590327D01*
X142125975Y-47599234D01*
X142125711Y-47599695D01*
X141559997Y-48540004D01*
X141559996Y-48540005D01*
X141531601Y-48608560D01*
X141529065Y-48612356D01*
X141390258Y-48751164D01*
X141381985Y-48754591D01*
X141373712Y-48751164D01*
X141250751Y-48628203D01*
X141247324Y-48619930D01*
X141250751Y-48611657D01*
X141252616Y-48610142D01*
X141360000Y-48540000D01*
X141359999Y-48539999D01*
X141360000Y-48539999D01*
X140794288Y-47599695D01*
X140792959Y-47590839D01*
X140798281Y-47583638D01*
X140798720Y-47583386D01*
X141454430Y-47228346D01*
X141463336Y-47227422D01*
X141465567Y-47228345D01*
G37*
%TD.AperFunction*%
%TD*%
%TA.AperFunction,Conductor*%
%TO.N,VCCA*%
G36*
X142868945Y-77949215D02*
G01*
X143132149Y-78054881D01*
X143138550Y-78061144D01*
X143138648Y-78061380D01*
X143244314Y-78324584D01*
X143244216Y-78333538D01*
X143237815Y-78339801D01*
X143236856Y-78340138D01*
X142889239Y-78445711D01*
X142889235Y-78445712D01*
X142820681Y-78474109D01*
X142816204Y-78475000D01*
X142679314Y-78475000D01*
X142671041Y-78471573D01*
X142667614Y-78463300D01*
X142667614Y-78291728D01*
X142671041Y-78283455D01*
X142679314Y-78280028D01*
X142683327Y-78280738D01*
X142747818Y-78304289D01*
X142747818Y-78304288D01*
X142747819Y-78304289D01*
X142853392Y-77956671D01*
X142859074Y-77949753D01*
X142867986Y-77948878D01*
X142868945Y-77949215D01*
G37*
%TD.AperFunction*%
%TD*%
%TA.AperFunction,Conductor*%
%TO.N,/~{OE1}*%
G36*
X144727305Y-30502938D02*
G01*
X144732812Y-30509462D01*
X145143404Y-31717434D01*
X145142821Y-31726370D01*
X145140599Y-31729472D01*
X145009472Y-31860599D01*
X145001199Y-31864026D01*
X144997434Y-31863404D01*
X143789462Y-31452812D01*
X143782732Y-31446905D01*
X143782013Y-31438398D01*
X143994893Y-30722767D01*
X144000535Y-30715817D01*
X144002761Y-30714895D01*
X144718398Y-30502013D01*
X144727305Y-30502938D01*
G37*
%TD.AperFunction*%
%TD*%
%TA.AperFunction,Conductor*%
%TO.N,/~{WE0}*%
G36*
X144801974Y-42296597D02*
G01*
X145137632Y-42335544D01*
X145145455Y-42339902D01*
X145147917Y-42348404D01*
X145132711Y-42491288D01*
X145132711Y-42491292D01*
X145150232Y-42533589D01*
X145160609Y-42558643D01*
X145161500Y-42563118D01*
X145161500Y-42774966D01*
X145158073Y-42783239D01*
X145149800Y-42786666D01*
X144976136Y-42786666D01*
X144967863Y-42783239D01*
X144964436Y-42774966D01*
X144964642Y-42772779D01*
X144966377Y-42763655D01*
X144991289Y-42632711D01*
X144991287Y-42632710D01*
X144991288Y-42632710D01*
X144663445Y-42468915D01*
X144657576Y-42462152D01*
X144658208Y-42453220D01*
X144659880Y-42450733D01*
X144791846Y-42300497D01*
X144799878Y-42296544D01*
X144801974Y-42296597D01*
G37*
%TD.AperFunction*%
%TD*%
%TA.AperFunction,Conductor*%
%TO.N,/A3*%
G36*
X138625913Y-42296017D02*
G01*
X138631777Y-42302784D01*
X138631485Y-42310956D01*
X138619635Y-42339563D01*
X138619636Y-42339564D01*
X138800300Y-42339564D01*
X138808573Y-42342991D01*
X138812000Y-42351264D01*
X138812000Y-42355674D01*
X138811109Y-42360151D01*
X138782718Y-42428692D01*
X138782706Y-42428725D01*
X138382766Y-43630447D01*
X138376902Y-43637214D01*
X138368329Y-43637966D01*
X137652770Y-43425107D01*
X137645817Y-43419464D01*
X137644894Y-43417235D01*
X137432033Y-42701669D01*
X137432958Y-42692763D01*
X137439550Y-42687234D01*
X138616983Y-42295378D01*
X138625913Y-42296017D01*
G37*
%TD.AperFunction*%
%TD*%
%TA.AperFunction,Conductor*%
%TO.N,/A3*%
G36*
X138377236Y-20342958D02*
G01*
X138382766Y-20349552D01*
X138782706Y-21551274D01*
X138782718Y-21551307D01*
X138811109Y-21619848D01*
X138812000Y-21624325D01*
X138812000Y-21628736D01*
X138808573Y-21637009D01*
X138800300Y-21640436D01*
X138619635Y-21640436D01*
X138631485Y-21669042D01*
X138631485Y-21677997D01*
X138625154Y-21684329D01*
X138616981Y-21684621D01*
X137439552Y-21292766D01*
X137432785Y-21286902D01*
X137432033Y-21278330D01*
X137644893Y-20562767D01*
X137650535Y-20555817D01*
X137652761Y-20554895D01*
X138368330Y-20342033D01*
X138377236Y-20342958D01*
G37*
%TD.AperFunction*%
%TD*%
%TA.AperFunction,Conductor*%
%TO.N,/A4*%
G36*
X140743802Y-39392667D02*
G01*
X141454998Y-39604229D01*
X141459035Y-39606358D01*
X141461715Y-39608533D01*
X141465556Y-39614282D01*
X141677302Y-40326098D01*
X141677726Y-40330641D01*
X141677531Y-40332521D01*
X141673415Y-40340276D01*
X141672158Y-40341331D01*
X141668331Y-40343470D01*
X140495226Y-40733885D01*
X140490696Y-40734454D01*
X140489256Y-40734351D01*
X140481249Y-40730343D01*
X140478398Y-40722271D01*
X140478437Y-40721155D01*
X140479319Y-40717096D01*
X140490364Y-40690436D01*
X140312527Y-40690436D01*
X140308050Y-40689545D01*
X140306401Y-40688862D01*
X140300072Y-40682531D01*
X140299389Y-40680881D01*
X140298500Y-40676408D01*
X140298500Y-40674268D01*
X140298723Y-40671993D01*
X140299167Y-40669761D01*
X140299827Y-40667587D01*
X140327289Y-40601289D01*
X140726499Y-39401757D01*
X140728759Y-39397790D01*
X140729998Y-39396361D01*
X140737808Y-39392371D01*
X140739449Y-39392227D01*
X140743802Y-39392667D01*
G37*
%TD.AperFunction*%
%TD*%
%TA.AperFunction,Conductor*%
%TO.N,/A6*%
G36*
X139583255Y-50038166D02*
G01*
X139586606Y-50045111D01*
X139648798Y-50589483D01*
X139646333Y-50598092D01*
X139639657Y-50602245D01*
X139494360Y-50633797D01*
X139485548Y-50632203D01*
X139481380Y-50627530D01*
X139322713Y-50305221D01*
X139321839Y-50297301D01*
X139362720Y-50128483D01*
X139383255Y-50043685D01*
X139388532Y-50036451D01*
X139394626Y-50034739D01*
X139574982Y-50034739D01*
X139583255Y-50038166D01*
G37*
%TD.AperFunction*%
%TD*%
%TA.AperFunction,Conductor*%
%TO.N,/A6*%
G36*
X140743718Y-36852642D02*
G01*
X140774045Y-36861664D01*
X140930242Y-36908128D01*
X141454998Y-37064229D01*
X141459035Y-37066358D01*
X141461715Y-37068533D01*
X141465556Y-37074282D01*
X141677322Y-37786167D01*
X141677746Y-37790708D01*
X141677549Y-37792610D01*
X141673455Y-37800348D01*
X141672222Y-37801388D01*
X141668443Y-37803523D01*
X140464767Y-38212655D01*
X140460240Y-38213252D01*
X140457083Y-38213046D01*
X140449572Y-38209644D01*
X140321045Y-38081117D01*
X140318510Y-38077324D01*
X140317296Y-38074395D01*
X140317029Y-38066156D01*
X140407772Y-37799189D01*
X140726440Y-36861660D01*
X140728722Y-36857712D01*
X140729984Y-36856274D01*
X140737793Y-36852334D01*
X140739407Y-36852198D01*
X140743718Y-36852642D01*
G37*
%TD.AperFunction*%
%TD*%
%TA.AperFunction,Conductor*%
%TO.N,/A4*%
G36*
X141500105Y-50005994D02*
G01*
X141502815Y-50010235D01*
X141673335Y-50474766D01*
X141672969Y-50483714D01*
X141666947Y-50489558D01*
X141404595Y-50601604D01*
X141395641Y-50601702D01*
X141395405Y-50601604D01*
X141133052Y-50489558D01*
X141126789Y-50483157D01*
X141126664Y-50474766D01*
X141297185Y-50010235D01*
X141303252Y-50003650D01*
X141308168Y-50002567D01*
X141491832Y-50002567D01*
X141500105Y-50005994D01*
G37*
%TD.AperFunction*%
%TD*%
%TA.AperFunction,Conductor*%
%TO.N,/SC*%
G36*
X125775809Y-26799431D02*
G01*
X125781830Y-26805274D01*
X125960794Y-27191831D01*
X125989727Y-27254324D01*
X125990093Y-27263272D01*
X125987383Y-27267513D01*
X125857513Y-27397383D01*
X125849240Y-27400810D01*
X125844325Y-27399727D01*
X125395274Y-27191830D01*
X125389208Y-27185246D01*
X125389332Y-27176856D01*
X125495616Y-26912114D01*
X125501879Y-26905714D01*
X125502084Y-26905628D01*
X125766856Y-26799333D01*
X125775809Y-26799431D01*
G37*
%TD.AperFunction*%
%TD*%
%TA.AperFunction,Conductor*%
%TO.N,/SC*%
G36*
X128398313Y-52309458D02*
G01*
X128401435Y-52310948D01*
X128594415Y-52441252D01*
X128612442Y-52453424D01*
X128872789Y-52629215D01*
X128876002Y-52632460D01*
X128876985Y-52633947D01*
X128878689Y-52642738D01*
X128878689Y-52642739D01*
X128878443Y-52643944D01*
X128875858Y-52649223D01*
X128751981Y-52793579D01*
X128748388Y-52796398D01*
X128745349Y-52797937D01*
X128738336Y-52799071D01*
X128400098Y-52748594D01*
X128395802Y-52747053D01*
X128392822Y-52745263D01*
X128388251Y-52740195D01*
X128255034Y-52455529D01*
X128253944Y-52451100D01*
X128253812Y-52448166D01*
X128255642Y-52441341D01*
X128255702Y-52441245D01*
X128257277Y-52439288D01*
X128383527Y-52313038D01*
X128387317Y-52310505D01*
X128389565Y-52309574D01*
X128397452Y-52309195D01*
X128398313Y-52309458D01*
G37*
%TD.AperFunction*%
%TD*%
%TA.AperFunction,Conductor*%
%TO.N,/~{WE1}*%
G36*
X129482613Y-34312450D02*
G01*
X129490348Y-34316543D01*
X129491388Y-34317776D01*
X129493523Y-34321555D01*
X129902655Y-35525231D01*
X129903252Y-35529758D01*
X129903046Y-35532915D01*
X129899644Y-35540426D01*
X129771117Y-35668953D01*
X129767321Y-35671490D01*
X129764397Y-35672701D01*
X129756155Y-35672969D01*
X128551664Y-35263560D01*
X128547712Y-35261276D01*
X128546275Y-35260015D01*
X128542334Y-35252204D01*
X128542198Y-35250591D01*
X128542643Y-35246279D01*
X128754229Y-34534999D01*
X128756358Y-34530963D01*
X128758532Y-34528284D01*
X128764278Y-34524443D01*
X129476170Y-34312675D01*
X129480703Y-34312252D01*
X129482613Y-34312450D01*
G37*
%TD.AperFunction*%
%TD*%
%TA.AperFunction,Conductor*%
%TO.N,/~{WE1}*%
G36*
X128718895Y-53527766D02*
G01*
X128844501Y-53653372D01*
X128847928Y-53661645D01*
X128845000Y-53669387D01*
X128691946Y-53842792D01*
X128688506Y-53845464D01*
X128369363Y-54008867D01*
X128360437Y-54009587D01*
X128353617Y-54003785D01*
X128352757Y-54001582D01*
X128323083Y-53894660D01*
X128324173Y-53885772D01*
X128326319Y-53883029D01*
X128702589Y-53527532D01*
X128710954Y-53524344D01*
X128718895Y-53527766D01*
G37*
%TD.AperFunction*%
%TD*%
%TA.AperFunction,Conductor*%
%TO.N,/~{RAS1}*%
G36*
X130027177Y-53061535D02*
G01*
X130027246Y-53061579D01*
X130029265Y-53063194D01*
X130156589Y-53190518D01*
X130159125Y-53194313D01*
X130160253Y-53197036D01*
X130160844Y-53204145D01*
X130160826Y-53204223D01*
X130160043Y-53206507D01*
X129953661Y-53652288D01*
X129950970Y-53655980D01*
X129949529Y-53657307D01*
X129941430Y-53660399D01*
X129939878Y-53660376D01*
X129935692Y-53659535D01*
X129675127Y-53554928D01*
X129671304Y-53552434D01*
X129668317Y-53549511D01*
X129665645Y-53545511D01*
X129561050Y-53284978D01*
X129560210Y-53280495D01*
X129560231Y-53278535D01*
X129563531Y-53270520D01*
X129564618Y-53269399D01*
X129568091Y-53266937D01*
X130010114Y-53062294D01*
X130013067Y-53060927D01*
X130017504Y-53059854D01*
X130020447Y-53059734D01*
X130027177Y-53061535D01*
G37*
%TD.AperFunction*%
%TD*%
%TA.AperFunction,Conductor*%
%TO.N,/~{SE0}*%
G36*
X132733143Y-20889332D02*
G01*
X132997884Y-20995616D01*
X133004285Y-21001879D01*
X133004383Y-21002115D01*
X133110666Y-21266855D01*
X133110568Y-21275809D01*
X133104724Y-21281831D01*
X132655675Y-21489727D01*
X132646727Y-21490093D01*
X132642486Y-21487383D01*
X132512616Y-21357513D01*
X132509189Y-21349240D01*
X132510270Y-21344329D01*
X132718170Y-20895272D01*
X132724753Y-20889208D01*
X132733143Y-20889332D01*
G37*
%TD.AperFunction*%
%TD*%
%TA.AperFunction,Conductor*%
%TO.N,/~{SE0}*%
G36*
X130931980Y-52253455D02*
G01*
X130934704Y-52254584D01*
X130940092Y-52259102D01*
X130940136Y-52259171D01*
X130941254Y-52261430D01*
X131110532Y-52722579D01*
X131111239Y-52727089D01*
X131111159Y-52729047D01*
X131107620Y-52736962D01*
X131106506Y-52738043D01*
X131102952Y-52740409D01*
X130844733Y-52850689D01*
X130840267Y-52851628D01*
X130836096Y-52851674D01*
X130831373Y-52850735D01*
X130727588Y-52806410D01*
X130573193Y-52740471D01*
X130569426Y-52737894D01*
X130568056Y-52736494D01*
X130564719Y-52728484D01*
X130564698Y-52727089D01*
X130564696Y-52726929D01*
X130565412Y-52722726D01*
X130565466Y-52722579D01*
X130734384Y-52262415D01*
X130736758Y-52258526D01*
X130738760Y-52256353D01*
X130744868Y-52252852D01*
X130744953Y-52252833D01*
X130747441Y-52252566D01*
X130927505Y-52252566D01*
X130931980Y-52253455D01*
G37*
%TD.AperFunction*%
%TD*%
%TA.AperFunction,Conductor*%
%TO.N,/SD2*%
G36*
X131667101Y-22432765D02*
G01*
X131671287Y-22433928D01*
X132811715Y-22995754D01*
X132815333Y-22998527D01*
X132817423Y-23000909D01*
X132820331Y-23008627D01*
X132820331Y-23190393D01*
X132819439Y-23194873D01*
X132818227Y-23197797D01*
X132812590Y-23203812D01*
X131671390Y-23766019D01*
X131666978Y-23767199D01*
X131665070Y-23767323D01*
X131656765Y-23764589D01*
X131655534Y-23763550D01*
X131652791Y-23760180D01*
X131351540Y-23203812D01*
X131299453Y-23107614D01*
X131298105Y-23103254D01*
X131297749Y-23099817D01*
X131299097Y-23093042D01*
X131345536Y-23007278D01*
X131652738Y-22439915D01*
X131655651Y-22436406D01*
X131657138Y-22435199D01*
X131665492Y-22432629D01*
X131667101Y-22432765D01*
G37*
%TD.AperFunction*%
%TD*%
%TA.AperFunction,Conductor*%
%TO.N,/SD2*%
G36*
X133732458Y-49764978D02*
G01*
X133735182Y-49766107D01*
X133740570Y-49770625D01*
X133740614Y-49770694D01*
X133741732Y-49772953D01*
X133911010Y-50234102D01*
X133911717Y-50238612D01*
X133911637Y-50240570D01*
X133908098Y-50248485D01*
X133906984Y-50249566D01*
X133903430Y-50251932D01*
X133645211Y-50362212D01*
X133640745Y-50363151D01*
X133636574Y-50363197D01*
X133631851Y-50362258D01*
X133528066Y-50317933D01*
X133373671Y-50251994D01*
X133369904Y-50249417D01*
X133368534Y-50248017D01*
X133365197Y-50240007D01*
X133365176Y-50238612D01*
X133365174Y-50238452D01*
X133365890Y-50234249D01*
X133365944Y-50234102D01*
X133534862Y-49773938D01*
X133537236Y-49770049D01*
X133539238Y-49767876D01*
X133545346Y-49764375D01*
X133545431Y-49764356D01*
X133547919Y-49764089D01*
X133727983Y-49764089D01*
X133732458Y-49764978D01*
G37*
%TD.AperFunction*%
%TD*%
%TA.AperFunction,Conductor*%
%TO.N,/A5*%
G36*
X144975913Y-37216017D02*
G01*
X144981777Y-37222784D01*
X144981485Y-37230956D01*
X144969635Y-37259563D01*
X144969636Y-37259564D01*
X145149800Y-37259564D01*
X145158073Y-37262991D01*
X145161500Y-37271264D01*
X145161500Y-37276881D01*
X145160609Y-37281358D01*
X145132718Y-37348692D01*
X145132706Y-37348725D01*
X144732766Y-38550447D01*
X144726902Y-38557214D01*
X144718329Y-38557966D01*
X144002770Y-38345107D01*
X143995817Y-38339464D01*
X143994894Y-38337235D01*
X143782033Y-37621669D01*
X143782958Y-37612763D01*
X143789550Y-37607234D01*
X144966983Y-37215378D01*
X144975913Y-37216017D01*
G37*
%TD.AperFunction*%
%TD*%
%TA.AperFunction,Conductor*%
%TO.N,/A5*%
G36*
X144727236Y-33042958D02*
G01*
X144732766Y-33049552D01*
X145045483Y-33989189D01*
X145132711Y-34251289D01*
X145160609Y-34318643D01*
X145161500Y-34323117D01*
X145161500Y-34328736D01*
X145158073Y-34337009D01*
X145149800Y-34340436D01*
X144969635Y-34340436D01*
X144981485Y-34369042D01*
X144981485Y-34377997D01*
X144975154Y-34384329D01*
X144966981Y-34384621D01*
X143789552Y-33992766D01*
X143782785Y-33986902D01*
X143782033Y-33978330D01*
X143994893Y-33262767D01*
X144000535Y-33255817D01*
X144002761Y-33254895D01*
X144718330Y-33042033D01*
X144727236Y-33042958D01*
G37*
%TD.AperFunction*%
%TD*%
%TA.AperFunction,Conductor*%
%TO.N,/A5*%
G36*
X143553928Y-49600507D02*
G01*
X143569066Y-49615644D01*
X143571602Y-49619440D01*
X143599966Y-49687919D01*
X143600034Y-49688087D01*
X143772967Y-50124601D01*
X143772829Y-50133554D01*
X143766685Y-50139670D01*
X143504595Y-50251604D01*
X143495641Y-50251702D01*
X143495405Y-50251604D01*
X143233314Y-50139670D01*
X143227051Y-50133269D01*
X143227032Y-50124603D01*
X143389364Y-49714845D01*
X143395597Y-49708416D01*
X143404550Y-49708278D01*
X143410980Y-49714511D01*
X143411050Y-49714678D01*
X143414611Y-49723276D01*
X143414612Y-49723276D01*
X143414612Y-49723277D01*
X143537383Y-49600506D01*
X143545655Y-49597080D01*
X143553928Y-49600507D01*
G37*
%TD.AperFunction*%
%TD*%
%TA.AperFunction,Conductor*%
%TO.N,/A5*%
G36*
X144007387Y-38344788D02*
G01*
X144009073Y-38346474D01*
X144475322Y-38919104D01*
X144477888Y-38927683D01*
X144473636Y-38935564D01*
X144472789Y-38936192D01*
X144100000Y-39187499D01*
X144099999Y-39187501D01*
X144071601Y-39256060D01*
X144069065Y-39259856D01*
X143603221Y-39725701D01*
X143594948Y-39729128D01*
X143586675Y-39725701D01*
X143462210Y-39601236D01*
X143458783Y-39592963D01*
X143462210Y-39584690D01*
X143462579Y-39584338D01*
X143900000Y-39187500D01*
X143527209Y-38936191D01*
X143522266Y-38928726D01*
X143524049Y-38919951D01*
X143524677Y-38919104D01*
X143990927Y-38346474D01*
X143998808Y-38342222D01*
X144007387Y-38344788D01*
G37*
%TD.AperFunction*%
%TD*%
%TA.AperFunction,Conductor*%
%TO.N,/RD0*%
G36*
X121674185Y-30829067D02*
G01*
X121679836Y-30834252D01*
X121744261Y-30953735D01*
X121745171Y-30962644D01*
X121741476Y-30968257D01*
X121357296Y-31290064D01*
X121348753Y-31292750D01*
X121340814Y-31288608D01*
X121338128Y-31280065D01*
X121338972Y-31276623D01*
X121349959Y-31250099D01*
X121167468Y-31250099D01*
X121159195Y-31246672D01*
X121155768Y-31238399D01*
X121156658Y-31233924D01*
X121178835Y-31180382D01*
X121179951Y-31178311D01*
X121323717Y-30966321D01*
X121329088Y-30962013D01*
X121665232Y-30828927D01*
X121674185Y-30829067D01*
G37*
%TD.AperFunction*%
%TD*%
%TA.AperFunction,Conductor*%
%TO.N,/RD0*%
G36*
X122937980Y-49653456D02*
G01*
X122940704Y-49654585D01*
X122946092Y-49659103D01*
X122946136Y-49659172D01*
X122947254Y-49661431D01*
X123116532Y-50122580D01*
X123117239Y-50127090D01*
X123117159Y-50129048D01*
X123113620Y-50136963D01*
X123112506Y-50138044D01*
X123108952Y-50140410D01*
X122850733Y-50250690D01*
X122846267Y-50251629D01*
X122842096Y-50251675D01*
X122837373Y-50250736D01*
X122733588Y-50206411D01*
X122579193Y-50140472D01*
X122575426Y-50137895D01*
X122574056Y-50136495D01*
X122570719Y-50128485D01*
X122570698Y-50127090D01*
X122570696Y-50126930D01*
X122571412Y-50122727D01*
X122571466Y-50122580D01*
X122740384Y-49662416D01*
X122742758Y-49658527D01*
X122744760Y-49656354D01*
X122750868Y-49652853D01*
X122750953Y-49652834D01*
X122753441Y-49652567D01*
X122933505Y-49652567D01*
X122937980Y-49653456D01*
G37*
%TD.AperFunction*%
%TD*%
%TA.AperFunction,Conductor*%
%TO.N,/RD7*%
G36*
X124827225Y-19060803D02*
G01*
X125019065Y-19252643D01*
X125021601Y-19256439D01*
X125049997Y-19324995D01*
X125615076Y-20190158D01*
X125616731Y-20198959D01*
X125611678Y-20206352D01*
X125610851Y-20206845D01*
X124955571Y-20561652D01*
X124946664Y-20562577D01*
X124944429Y-20561652D01*
X124289148Y-20206845D01*
X124283505Y-20199892D01*
X124284430Y-20190985D01*
X124284910Y-20190178D01*
X124850000Y-19325000D01*
X124849993Y-19324995D01*
X124688203Y-19202062D01*
X124683688Y-19194328D01*
X124685965Y-19185668D01*
X124687001Y-19184480D01*
X124810679Y-19060803D01*
X124818952Y-19057376D01*
X124827225Y-19060803D01*
G37*
%TD.AperFunction*%
%TD*%
%TA.AperFunction,Conductor*%
%TO.N,/RD7*%
G36*
X120654214Y-53184288D02*
G01*
X120655482Y-53185519D01*
X120658086Y-53189313D01*
X120768065Y-53446824D01*
X120769004Y-53451290D01*
X120769050Y-53455461D01*
X120768111Y-53460185D01*
X120658095Y-53717781D01*
X120655516Y-53721550D01*
X120654241Y-53722797D01*
X120645934Y-53726132D01*
X120644176Y-53726113D01*
X120639668Y-53725157D01*
X120241750Y-53553538D01*
X120174300Y-53525600D01*
X120172279Y-53524520D01*
X120170397Y-53523263D01*
X120168622Y-53521807D01*
X120145680Y-53498865D01*
X120130193Y-53483377D01*
X120127658Y-53479584D01*
X120126976Y-53477939D01*
X120126975Y-53471200D01*
X120126821Y-53470696D01*
X120126975Y-53470405D01*
X120126975Y-53468986D01*
X120127660Y-53467332D01*
X120130191Y-53463545D01*
X120251781Y-53341955D01*
X120255576Y-53339420D01*
X120256253Y-53339140D01*
X120257224Y-53338739D01*
X120266172Y-53338740D01*
X120267817Y-53339421D01*
X120270118Y-53340958D01*
X120270731Y-53341074D01*
X120270733Y-53341076D01*
X120639651Y-53181964D01*
X120644109Y-53181009D01*
X120645896Y-53180983D01*
X120654214Y-53184288D01*
G37*
%TD.AperFunction*%
%TD*%
%TA.AperFunction,Conductor*%
%TO.N,/RD6*%
G36*
X121289289Y-52580397D02*
G01*
X121297202Y-52583934D01*
X121298287Y-52585052D01*
X121300649Y-52588602D01*
X121309176Y-52608565D01*
X121410931Y-52846824D01*
X121411870Y-52851290D01*
X121411916Y-52855461D01*
X121410977Y-52860185D01*
X121300713Y-53118363D01*
X121298136Y-53122130D01*
X121296736Y-53123500D01*
X121288726Y-53126837D01*
X121287173Y-53126860D01*
X121282968Y-53126144D01*
X121060092Y-53044330D01*
X121059169Y-53043946D01*
X121058262Y-53043522D01*
X121057367Y-53043056D01*
X120990853Y-53004655D01*
X120990853Y-53004654D01*
X120967329Y-52991072D01*
X120965305Y-52988435D01*
X120833271Y-52953058D01*
X120833269Y-52953058D01*
X120833267Y-52953058D01*
X120826835Y-52953058D01*
X120822358Y-52952167D01*
X120820709Y-52951484D01*
X120814380Y-52945153D01*
X120813697Y-52943503D01*
X120812808Y-52939030D01*
X120812808Y-52768085D01*
X120813697Y-52763612D01*
X120813731Y-52763527D01*
X120814379Y-52761964D01*
X120820704Y-52755633D01*
X120822362Y-52754947D01*
X120826835Y-52754058D01*
X120927192Y-52754058D01*
X120928598Y-52753245D01*
X120989217Y-52737004D01*
X121052862Y-52719951D01*
X121052866Y-52719949D01*
X121090906Y-52697986D01*
X121166992Y-52654058D01*
X121212488Y-52608560D01*
X121214453Y-52606981D01*
X121216549Y-52605641D01*
X121218805Y-52604522D01*
X121282822Y-52581023D01*
X121287330Y-52580317D01*
X121289289Y-52580397D01*
G37*
%TD.AperFunction*%
%TD*%
%TA.AperFunction,Conductor*%
%TO.N,/RD6*%
G36*
X121661819Y-18541801D02*
G01*
X122402710Y-19281721D01*
X122406142Y-19289992D01*
X122402721Y-19298268D01*
X122402710Y-19298279D01*
X121661819Y-20038198D01*
X121653543Y-20041619D01*
X121645272Y-20038187D01*
X121642351Y-20033303D01*
X121559209Y-19758104D01*
X121448000Y-19390000D01*
X121129559Y-19748815D01*
X121121504Y-19752728D01*
X121113042Y-19749800D01*
X121112535Y-19749322D01*
X120988168Y-19624955D01*
X120984741Y-19616682D01*
X120988166Y-19608412D01*
X121375646Y-19220931D01*
X121379437Y-19218399D01*
X121448000Y-19190000D01*
X121642352Y-18546694D01*
X121648024Y-18539768D01*
X121656935Y-18538880D01*
X121661819Y-18541801D01*
G37*
%TD.AperFunction*%
%TD*%
%TA.AperFunction,Conductor*%
%TO.N,/RD1*%
G36*
X121837974Y-49152316D02*
G01*
X121840839Y-49153534D01*
X122082198Y-49296774D01*
X122345107Y-49452803D01*
X122348497Y-49455847D01*
X122349568Y-49457279D01*
X122351783Y-49465953D01*
X122351782Y-49465958D01*
X122351656Y-49466832D01*
X122348544Y-49473237D01*
X122190681Y-49638793D01*
X122187104Y-49641348D01*
X122185214Y-49642217D01*
X122183323Y-49643087D01*
X122179057Y-49644141D01*
X121858369Y-49661228D01*
X121853851Y-49660577D01*
X121851084Y-49659600D01*
X121845443Y-49655347D01*
X121845384Y-49655264D01*
X121844148Y-49653049D01*
X121836764Y-49635607D01*
X121836480Y-49634867D01*
X121836467Y-49634831D01*
X121836220Y-49634112D01*
X121835995Y-49633379D01*
X121830021Y-49611082D01*
X121830020Y-49611081D01*
X121830020Y-49611079D01*
X121816912Y-49588377D01*
X121816572Y-49587746D01*
X121816514Y-49587630D01*
X121816257Y-49587114D01*
X121815971Y-49586490D01*
X121694230Y-49298915D01*
X121693305Y-49294450D01*
X121693282Y-49291416D01*
X121696645Y-49283119D01*
X121823601Y-49156163D01*
X121827394Y-49153630D01*
X121828301Y-49153254D01*
X121829813Y-49152627D01*
X121837390Y-49152156D01*
X121837974Y-49152316D01*
G37*
%TD.AperFunction*%
%TD*%
%TA.AperFunction,Conductor*%
%TO.N,/RD1*%
G36*
X120791097Y-33366065D02*
G01*
X121266889Y-33409677D01*
X121274814Y-33413845D01*
X121276662Y-33416931D01*
X121310841Y-33501212D01*
X121310775Y-33510167D01*
X121308310Y-33513844D01*
X120962614Y-33862734D01*
X120954357Y-33866199D01*
X120946068Y-33862810D01*
X120942603Y-33854553D01*
X120943493Y-33850024D01*
X120949423Y-33835709D01*
X120766932Y-33835709D01*
X120758659Y-33832282D01*
X120755232Y-33824009D01*
X120756123Y-33819532D01*
X120779288Y-33763607D01*
X120779288Y-33763606D01*
X120779289Y-33763604D01*
X120778333Y-33377744D01*
X120781739Y-33369464D01*
X120790004Y-33366017D01*
X120791097Y-33366065D01*
G37*
%TD.AperFunction*%
%TD*%
%TA.AperFunction,Conductor*%
%TO.N,/A6*%
G36*
X141670447Y-36337233D02*
G01*
X141677214Y-36343097D01*
X141677966Y-36351670D01*
X141465107Y-37067229D01*
X141459464Y-37074182D01*
X141457229Y-37075107D01*
X140741670Y-37287966D01*
X140732763Y-37287041D01*
X140727233Y-37280447D01*
X140414517Y-36340811D01*
X140327289Y-36078711D01*
X140298891Y-36010151D01*
X140298000Y-36005674D01*
X140298000Y-36001264D01*
X140301427Y-35992991D01*
X140309700Y-35989564D01*
X140490364Y-35989564D01*
X140478513Y-35960955D01*
X140478513Y-35952002D01*
X140484845Y-35945670D01*
X140493016Y-35945378D01*
X141670447Y-36337233D01*
G37*
%TD.AperFunction*%
%TD*%
%TA.AperFunction,Conductor*%
%TO.N,/A6*%
G36*
X140710130Y-18979377D02*
G01*
X141456213Y-19287437D01*
X141462552Y-19293762D01*
X141462562Y-19293786D01*
X141770619Y-20039862D01*
X141770609Y-20048816D01*
X141764270Y-20055141D01*
X141762998Y-20055583D01*
X140468711Y-20422711D01*
X140496577Y-20676760D01*
X140494073Y-20685358D01*
X140486223Y-20689666D01*
X140484947Y-20689736D01*
X140309700Y-20689736D01*
X140301427Y-20686309D01*
X140298000Y-20678036D01*
X140298000Y-20354325D01*
X140298890Y-20349850D01*
X140327289Y-20281289D01*
X140694417Y-18986999D01*
X140699970Y-18979977D01*
X140708865Y-18978938D01*
X140710130Y-18979377D01*
G37*
%TD.AperFunction*%
%TD*%
%TA.AperFunction,Conductor*%
%TO.N,/A7*%
G36*
X142435913Y-41026017D02*
G01*
X142441777Y-41032784D01*
X142441485Y-41040956D01*
X142429635Y-41069563D01*
X142429636Y-41069564D01*
X142610300Y-41069564D01*
X142618573Y-41072991D01*
X142622000Y-41081264D01*
X142622000Y-41085674D01*
X142621109Y-41090151D01*
X142592718Y-41158692D01*
X142592706Y-41158725D01*
X142192766Y-42360447D01*
X142186902Y-42367214D01*
X142178329Y-42367966D01*
X141462770Y-42155107D01*
X141455817Y-42149464D01*
X141454894Y-42147235D01*
X141242033Y-41431669D01*
X141242958Y-41422763D01*
X141249550Y-41417234D01*
X142426983Y-41025378D01*
X142435913Y-41026017D01*
G37*
%TD.AperFunction*%
%TD*%
%TA.AperFunction,Conductor*%
%TO.N,/A7*%
G36*
X143470242Y-20398128D02*
G01*
X143997230Y-20554893D01*
X144004182Y-20560535D01*
X144005107Y-20562770D01*
X144217986Y-21278398D01*
X144217061Y-21287305D01*
X144210537Y-21292812D01*
X143002565Y-21703404D01*
X142993629Y-21702821D01*
X142990527Y-21700599D01*
X142859400Y-21569472D01*
X142855973Y-21561199D01*
X142856595Y-21557434D01*
X142947772Y-21289189D01*
X143267188Y-20349460D01*
X143273094Y-20342732D01*
X143281601Y-20342013D01*
X143470242Y-20398128D01*
G37*
%TD.AperFunction*%
%TD*%
%TA.AperFunction,Conductor*%
%TO.N,/SD6*%
G36*
X125677305Y-22882938D02*
G01*
X125682812Y-22889462D01*
X126093404Y-24097434D01*
X126092821Y-24106370D01*
X126090599Y-24109472D01*
X125959472Y-24240599D01*
X125951199Y-24244026D01*
X125947434Y-24243404D01*
X124739462Y-23832812D01*
X124732732Y-23826905D01*
X124732013Y-23818398D01*
X124944893Y-23102767D01*
X124950535Y-23095817D01*
X124952761Y-23094895D01*
X125668398Y-22882013D01*
X125677305Y-22882938D01*
G37*
%TD.AperFunction*%
%TD*%
%TA.AperFunction,Conductor*%
%TO.N,/SD6*%
G36*
X126955235Y-49909276D02*
G01*
X126957558Y-49910068D01*
X127188874Y-50017160D01*
X127403344Y-50116453D01*
X127407033Y-50119141D01*
X127408360Y-50120581D01*
X127411455Y-50128683D01*
X127411432Y-50130235D01*
X127410591Y-50134421D01*
X127305984Y-50394986D01*
X127303490Y-50398809D01*
X127300570Y-50401794D01*
X127296565Y-50404470D01*
X127036036Y-50509062D01*
X127031551Y-50509903D01*
X127029595Y-50509882D01*
X127021574Y-50506580D01*
X127020457Y-50505496D01*
X127017991Y-50502018D01*
X126811983Y-50057046D01*
X126810910Y-50052608D01*
X126810790Y-50049666D01*
X126812591Y-50042936D01*
X126812634Y-50042868D01*
X126814246Y-50040853D01*
X126941577Y-49913521D01*
X126945367Y-49910988D01*
X126948093Y-49909859D01*
X126955152Y-49909258D01*
X126955235Y-49909276D01*
G37*
%TD.AperFunction*%
%TD*%
%TA.AperFunction,Conductor*%
%TO.N,/SD7*%
G36*
X123137305Y-24152938D02*
G01*
X123142812Y-24159462D01*
X123553404Y-25367434D01*
X123552821Y-25376370D01*
X123550599Y-25379472D01*
X123419472Y-25510599D01*
X123411199Y-25514026D01*
X123407434Y-25513404D01*
X122199462Y-25102812D01*
X122192732Y-25096905D01*
X122192013Y-25088398D01*
X122404893Y-24372767D01*
X122410535Y-24365817D01*
X122412761Y-24364895D01*
X123128398Y-24152013D01*
X123137305Y-24152938D01*
G37*
%TD.AperFunction*%
%TD*%
%TA.AperFunction,Conductor*%
%TO.N,/SD7*%
G36*
X123881282Y-49825975D02*
G01*
X123883605Y-49826767D01*
X124114921Y-49933859D01*
X124329391Y-50033152D01*
X124333080Y-50035840D01*
X124334407Y-50037280D01*
X124337502Y-50045382D01*
X124337479Y-50046934D01*
X124336638Y-50051120D01*
X124232031Y-50311685D01*
X124229537Y-50315508D01*
X124226617Y-50318493D01*
X124222612Y-50321169D01*
X123962083Y-50425761D01*
X123957598Y-50426602D01*
X123955642Y-50426581D01*
X123947621Y-50423279D01*
X123946504Y-50422195D01*
X123944038Y-50418717D01*
X123738030Y-49973745D01*
X123736957Y-49969307D01*
X123736837Y-49966365D01*
X123738638Y-49959635D01*
X123738681Y-49959567D01*
X123740293Y-49957552D01*
X123867624Y-49830220D01*
X123871414Y-49827687D01*
X123874140Y-49826558D01*
X123881199Y-49825957D01*
X123881282Y-49825975D01*
G37*
%TD.AperFunction*%
%TD*%
%TA.AperFunction,Conductor*%
%TO.N,/SD4*%
G36*
X127400809Y-28069431D02*
G01*
X127406830Y-28075274D01*
X127585794Y-28461831D01*
X127614727Y-28524324D01*
X127615093Y-28533272D01*
X127612383Y-28537513D01*
X127482513Y-28667383D01*
X127474240Y-28670810D01*
X127469325Y-28669727D01*
X127020274Y-28461830D01*
X127014208Y-28455246D01*
X127014332Y-28446856D01*
X127120616Y-28182114D01*
X127126879Y-28175714D01*
X127127084Y-28175628D01*
X127391856Y-28069333D01*
X127400809Y-28069431D01*
G37*
%TD.AperFunction*%
%TD*%
%TA.AperFunction,Conductor*%
%TO.N,/SD4*%
G36*
X128712165Y-49817891D02*
G01*
X128922683Y-49952622D01*
X129200515Y-50130433D01*
X129205636Y-50137779D01*
X129204063Y-50146595D01*
X129202903Y-50148117D01*
X129062344Y-50304229D01*
X129054262Y-50308084D01*
X129052769Y-50308067D01*
X128714780Y-50282585D01*
X128706788Y-50278546D01*
X128704962Y-50275653D01*
X128566061Y-49961573D01*
X128565850Y-49952622D01*
X128568487Y-49948571D01*
X128697586Y-49819472D01*
X128705858Y-49816046D01*
X128712165Y-49817891D01*
G37*
%TD.AperFunction*%
%TD*%
%TA.AperFunction,Conductor*%
%TO.N,/SD5*%
G36*
X127001545Y-29983422D02*
G01*
X127003892Y-29986022D01*
X127196855Y-30278083D01*
X127198556Y-30286875D01*
X127198186Y-30288252D01*
X127138879Y-30465159D01*
X127103258Y-30571415D01*
X127102676Y-30573150D01*
X127096797Y-30579905D01*
X127091583Y-30581131D01*
X126909859Y-30581131D01*
X126901586Y-30577704D01*
X126898328Y-30571415D01*
X126802131Y-30012384D01*
X126804106Y-30003650D01*
X126811678Y-29998869D01*
X126812485Y-29998759D01*
X126992973Y-29980829D01*
X127001545Y-29983422D01*
G37*
%TD.AperFunction*%
%TD*%
%TA.AperFunction,Conductor*%
%TO.N,/SD5*%
G36*
X127779501Y-49885013D02*
G01*
X127781824Y-49885805D01*
X128013140Y-49992897D01*
X128227610Y-50092190D01*
X128231299Y-50094878D01*
X128232626Y-50096318D01*
X128235721Y-50104420D01*
X128235698Y-50105972D01*
X128234857Y-50110158D01*
X128130250Y-50370723D01*
X128127756Y-50374546D01*
X128124836Y-50377531D01*
X128120831Y-50380207D01*
X127860302Y-50484799D01*
X127855817Y-50485640D01*
X127853862Y-50485619D01*
X127845836Y-50482313D01*
X127844720Y-50481229D01*
X127842255Y-50477752D01*
X127802849Y-50392634D01*
X127802044Y-50390248D01*
X127801506Y-50387808D01*
X127801234Y-50385295D01*
X127801234Y-50333370D01*
X127801024Y-50332482D01*
X127800927Y-50332227D01*
X127767127Y-50206078D01*
X127767125Y-50206074D01*
X127701236Y-50091952D01*
X127701232Y-50091947D01*
X127642112Y-50032827D01*
X127639578Y-50029037D01*
X127638894Y-50027387D01*
X127638892Y-50018438D01*
X127639579Y-50016779D01*
X127642110Y-50012992D01*
X127765843Y-49889258D01*
X127769633Y-49886725D01*
X127772359Y-49885596D01*
X127779418Y-49884995D01*
X127779501Y-49885013D01*
G37*
%TD.AperFunction*%
%TD*%
%TA.AperFunction,Conductor*%
%TO.N,/A4*%
G36*
X138129557Y-51373379D02*
G01*
X138390239Y-51484712D01*
X138396501Y-51491112D01*
X138396403Y-51500066D01*
X138395875Y-51501145D01*
X138225003Y-51809308D01*
X138224997Y-51809321D01*
X138197102Y-51876664D01*
X138194566Y-51880459D01*
X138088287Y-51986739D01*
X138080014Y-51990166D01*
X138071741Y-51986739D01*
X137950248Y-51865246D01*
X137946821Y-51856973D01*
X137950248Y-51848700D01*
X137953134Y-51846587D01*
X138025000Y-51809314D01*
X137854124Y-51501145D01*
X137853109Y-51492248D01*
X137858682Y-51485239D01*
X137859744Y-51484719D01*
X138120406Y-51373394D01*
X138129359Y-51373297D01*
X138129557Y-51373379D01*
G37*
%TD.AperFunction*%
%TD*%
%TA.AperFunction,Conductor*%
%TO.N,/A4*%
G36*
X142187236Y-31772958D02*
G01*
X142192766Y-31779552D01*
X142505483Y-32719189D01*
X142592711Y-32981289D01*
X142620609Y-33048643D01*
X142621500Y-33053117D01*
X142621500Y-33058736D01*
X142618073Y-33067009D01*
X142609800Y-33070436D01*
X142429635Y-33070436D01*
X142441485Y-33099042D01*
X142441485Y-33107997D01*
X142435154Y-33114329D01*
X142426981Y-33114621D01*
X141249552Y-32722766D01*
X141242785Y-32716902D01*
X141242033Y-32708330D01*
X141454893Y-31992767D01*
X141460535Y-31985817D01*
X141462761Y-31984895D01*
X142178330Y-31772033D01*
X142187236Y-31772958D01*
G37*
%TD.AperFunction*%
%TD*%
%TA.AperFunction,Conductor*%
%TO.N,/A4*%
G36*
X142430738Y-38485646D02*
G01*
X142438745Y-38489649D01*
X142441599Y-38497736D01*
X142441559Y-38498850D01*
X142440676Y-38502908D01*
X142429634Y-38529562D01*
X142429634Y-38529563D01*
X142429636Y-38529564D01*
X142607473Y-38529564D01*
X142611948Y-38530454D01*
X142612781Y-38530798D01*
X142613593Y-38531135D01*
X142619925Y-38537463D01*
X142619927Y-38537466D01*
X142620609Y-38539112D01*
X142621500Y-38543591D01*
X142621500Y-38545727D01*
X142621275Y-38548012D01*
X142620833Y-38550232D01*
X142620167Y-38552424D01*
X142592721Y-38618681D01*
X142592702Y-38618733D01*
X142193500Y-39818238D01*
X142191242Y-39822204D01*
X142190004Y-39823633D01*
X142182188Y-39827627D01*
X142180970Y-39827734D01*
X142180553Y-39827770D01*
X142176191Y-39827330D01*
X141465001Y-39615770D01*
X141460964Y-39613640D01*
X141458283Y-39611464D01*
X141454442Y-39605716D01*
X141242696Y-38893899D01*
X141242272Y-38889362D01*
X141242468Y-38887472D01*
X141246584Y-38879721D01*
X141247844Y-38878664D01*
X141251660Y-38876531D01*
X142424774Y-38486112D01*
X142429294Y-38485543D01*
X142430738Y-38485646D01*
G37*
%TD.AperFunction*%
%TD*%
%TA.AperFunction,Conductor*%
%TO.N,/~{RAS1}*%
G36*
X131297230Y-35794893D02*
G01*
X131304182Y-35800535D01*
X131305107Y-35802770D01*
X131517966Y-36518329D01*
X131517041Y-36527236D01*
X131510447Y-36532766D01*
X130333018Y-36924621D01*
X130324086Y-36923982D01*
X130318222Y-36917215D01*
X130318513Y-36909044D01*
X130330364Y-36880436D01*
X130150200Y-36880436D01*
X130141927Y-36877009D01*
X130138500Y-36868736D01*
X130138500Y-36863117D01*
X130139390Y-36858643D01*
X130167289Y-36791289D01*
X130567234Y-35589550D01*
X130573097Y-35582785D01*
X130581669Y-35582033D01*
X131297230Y-35794893D01*
G37*
%TD.AperFunction*%
%TD*%
%TA.AperFunction,Conductor*%
%TO.N,/A2*%
G36*
X134361827Y-18980077D02*
G01*
X135104062Y-19286549D01*
X135107861Y-19289081D01*
X135110896Y-19292110D01*
X135113445Y-19295926D01*
X135419730Y-20037709D01*
X135420616Y-20042187D01*
X135420614Y-20043970D01*
X135417178Y-20052239D01*
X135417173Y-20052244D01*
X135416301Y-20053113D01*
X135411235Y-20056082D01*
X134118711Y-20422711D01*
X134146323Y-20674447D01*
X134145926Y-20678996D01*
X134145428Y-20680705D01*
X134139830Y-20687685D01*
X134138731Y-20688289D01*
X134133096Y-20689736D01*
X133962027Y-20689736D01*
X133957550Y-20688845D01*
X133955901Y-20688162D01*
X133949572Y-20681831D01*
X133948889Y-20680181D01*
X133948000Y-20675708D01*
X133948000Y-20355475D01*
X133948223Y-20353203D01*
X133948667Y-20350967D01*
X133949328Y-20348791D01*
X133977289Y-20281289D01*
X134343783Y-18989233D01*
X134345858Y-18985176D01*
X134346964Y-18983777D01*
X134354778Y-18979415D01*
X134356009Y-18979271D01*
X134361827Y-18980077D01*
G37*
%TD.AperFunction*%
%TD*%
%TA.AperFunction,Conductor*%
%TO.N,/A2*%
G36*
X135320447Y-43957233D02*
G01*
X135327214Y-43963097D01*
X135327966Y-43971670D01*
X135115107Y-44687229D01*
X135109464Y-44694182D01*
X135107229Y-44695107D01*
X134391670Y-44907966D01*
X134382763Y-44907041D01*
X134377233Y-44900447D01*
X134064517Y-43960811D01*
X133977289Y-43698711D01*
X133948891Y-43630151D01*
X133948000Y-43625674D01*
X133948000Y-43621264D01*
X133951427Y-43612991D01*
X133959700Y-43609564D01*
X134140364Y-43609564D01*
X134128513Y-43580955D01*
X134128513Y-43572002D01*
X134134845Y-43565670D01*
X134143016Y-43565378D01*
X135320447Y-43957233D01*
G37*
%TD.AperFunction*%
%TD*%
%TA.AperFunction,Conductor*%
%TO.N,/~{CAS1}*%
G36*
X124679327Y-48675004D02*
G01*
X124681979Y-48675476D01*
X125561950Y-48940130D01*
X125565980Y-48942273D01*
X125568649Y-48944453D01*
X125572479Y-48950235D01*
X125598338Y-49038815D01*
X125770712Y-49629293D01*
X125798168Y-49695577D01*
X125798834Y-49697769D01*
X125799275Y-49699984D01*
X125799500Y-49702269D01*
X125799500Y-49758123D01*
X125798609Y-49762602D01*
X125797927Y-49764248D01*
X125791599Y-49770577D01*
X125791597Y-49770578D01*
X125789952Y-49771259D01*
X125785473Y-49772151D01*
X125614027Y-49772151D01*
X125609550Y-49771260D01*
X125607901Y-49770577D01*
X125601572Y-49764246D01*
X125600889Y-49762596D01*
X125600000Y-49758123D01*
X125600000Y-49753113D01*
X125600000Y-49753112D01*
X124424031Y-49046533D01*
X124420655Y-49043466D01*
X124419592Y-49042029D01*
X124417430Y-49033343D01*
X124417634Y-49031980D01*
X124419683Y-49026914D01*
X124666460Y-48681388D01*
X124669786Y-48678264D01*
X124672222Y-48676744D01*
X124679115Y-48674991D01*
X124679327Y-48675004D01*
G37*
%TD.AperFunction*%
%TD*%
%TA.AperFunction,Conductor*%
%TO.N,/~{CAS1}*%
G36*
X126019715Y-50927721D02*
G01*
X126022439Y-50928850D01*
X126027827Y-50933368D01*
X126027871Y-50933437D01*
X126028989Y-50935696D01*
X126198267Y-51396845D01*
X126198974Y-51401355D01*
X126198894Y-51403313D01*
X126195355Y-51411228D01*
X126194241Y-51412309D01*
X126190687Y-51414675D01*
X125932468Y-51524955D01*
X125928002Y-51525894D01*
X125923831Y-51525940D01*
X125919108Y-51525001D01*
X125815323Y-51480676D01*
X125660928Y-51414737D01*
X125657161Y-51412160D01*
X125655791Y-51410760D01*
X125652454Y-51402750D01*
X125652433Y-51401355D01*
X125652431Y-51401195D01*
X125653147Y-51396992D01*
X125653201Y-51396845D01*
X125822119Y-50936681D01*
X125824493Y-50932792D01*
X125826495Y-50930619D01*
X125832603Y-50927118D01*
X125832688Y-50927099D01*
X125835176Y-50926832D01*
X126015240Y-50926832D01*
X126019715Y-50927721D01*
G37*
%TD.AperFunction*%
%TD*%
%TA.AperFunction,Conductor*%
%TO.N,/SD0*%
G36*
X135443980Y-49719143D02*
G01*
X135446704Y-49720272D01*
X135452092Y-49724790D01*
X135452136Y-49724859D01*
X135453254Y-49727118D01*
X135622532Y-50188267D01*
X135623239Y-50192777D01*
X135623159Y-50194735D01*
X135619620Y-50202650D01*
X135618506Y-50203731D01*
X135614952Y-50206097D01*
X135356733Y-50316377D01*
X135352267Y-50317316D01*
X135348096Y-50317362D01*
X135343373Y-50316423D01*
X135239588Y-50272098D01*
X135085193Y-50206159D01*
X135081426Y-50203582D01*
X135080056Y-50202182D01*
X135076719Y-50194172D01*
X135076698Y-50192777D01*
X135076696Y-50192617D01*
X135077412Y-50188414D01*
X135077466Y-50188267D01*
X135109734Y-50100363D01*
X135110852Y-50098105D01*
X135112197Y-50096000D01*
X135113776Y-50094036D01*
X135150500Y-50057314D01*
X135216392Y-49943186D01*
X135250500Y-49815892D01*
X135250500Y-49732281D01*
X135251389Y-49727808D01*
X135251423Y-49727723D01*
X135252071Y-49726160D01*
X135258396Y-49719829D01*
X135259969Y-49719177D01*
X135260054Y-49719143D01*
X135264527Y-49718254D01*
X135439505Y-49718254D01*
X135443980Y-49719143D01*
G37*
%TD.AperFunction*%
%TD*%
%TA.AperFunction,Conductor*%
%TO.N,/SD0*%
G36*
X137647230Y-28174893D02*
G01*
X137654182Y-28180535D01*
X137655107Y-28182770D01*
X137867966Y-28898329D01*
X137867041Y-28907236D01*
X137860447Y-28912766D01*
X136683018Y-29304621D01*
X136674086Y-29303982D01*
X136668222Y-29297215D01*
X136668513Y-29289044D01*
X136680364Y-29260436D01*
X136499700Y-29260436D01*
X136491427Y-29257009D01*
X136488000Y-29248736D01*
X136488000Y-29244325D01*
X136488891Y-29239848D01*
X136517289Y-29171289D01*
X136917234Y-27969550D01*
X136923097Y-27962785D01*
X136931669Y-27962033D01*
X137647230Y-28174893D01*
G37*
%TD.AperFunction*%
%TD*%
%TA.AperFunction,Conductor*%
%TO.N,/SD1*%
G36*
X135832613Y-29232450D02*
G01*
X135840348Y-29236543D01*
X135841388Y-29237776D01*
X135843523Y-29241555D01*
X136252655Y-30445231D01*
X136253252Y-30449758D01*
X136253046Y-30452915D01*
X136249644Y-30460426D01*
X136121117Y-30588953D01*
X136117321Y-30591490D01*
X136114397Y-30592701D01*
X136106155Y-30592969D01*
X134901664Y-30183560D01*
X134897712Y-30181276D01*
X134896275Y-30180015D01*
X134892334Y-30172204D01*
X134892198Y-30170591D01*
X134892643Y-30166279D01*
X135104229Y-29454999D01*
X135106358Y-29450963D01*
X135108532Y-29448284D01*
X135114278Y-29444443D01*
X135826170Y-29232675D01*
X135830703Y-29232252D01*
X135832613Y-29232450D01*
G37*
%TD.AperFunction*%
%TD*%
%TA.AperFunction,Conductor*%
%TO.N,/SD1*%
G36*
X134886786Y-49172651D02*
G01*
X135010434Y-49296299D01*
X135013861Y-49304572D01*
X135010434Y-49312845D01*
X135009218Y-49313904D01*
X134849999Y-49434314D01*
X134924971Y-49504796D01*
X134928651Y-49512959D01*
X134926290Y-49520376D01*
X134759333Y-49741221D01*
X134751610Y-49745754D01*
X134742944Y-49743498D01*
X134740667Y-49741221D01*
X134573709Y-49520376D01*
X134571453Y-49511710D01*
X134575026Y-49504797D01*
X134650000Y-49434314D01*
X134678399Y-49365751D01*
X134680931Y-49361960D01*
X134870243Y-49172649D01*
X134878513Y-49169224D01*
X134886786Y-49172651D01*
G37*
%TD.AperFunction*%
%TD*%
%TA.AperFunction,Conductor*%
%TO.N,/SD3*%
G36*
X133100105Y-49155994D02*
G01*
X133102815Y-49160235D01*
X133273335Y-49624766D01*
X133272969Y-49633714D01*
X133266947Y-49639558D01*
X133004595Y-49751604D01*
X132995641Y-49751702D01*
X132995405Y-49751604D01*
X132733052Y-49639558D01*
X132726789Y-49633157D01*
X132726664Y-49624766D01*
X132897185Y-49160235D01*
X132903252Y-49153650D01*
X132908168Y-49152567D01*
X133091832Y-49152567D01*
X133100105Y-49155994D01*
G37*
%TD.AperFunction*%
%TD*%
%TA.AperFunction,Conductor*%
%TO.N,/SD3*%
G36*
X133187495Y-24065020D02*
G01*
X133195387Y-24069248D01*
X133197980Y-24077820D01*
X133197868Y-24078647D01*
X133101672Y-24637678D01*
X133096891Y-24645250D01*
X133090141Y-24647394D01*
X132908417Y-24647394D01*
X132900144Y-24643967D01*
X132897324Y-24639413D01*
X132896742Y-24637678D01*
X132801813Y-24354514D01*
X132802432Y-24345582D01*
X132803137Y-24344356D01*
X132996108Y-24052283D01*
X133003527Y-24047272D01*
X133007026Y-24047092D01*
X133187495Y-24065020D01*
G37*
%TD.AperFunction*%
%TD*%
%TA.AperFunction,Conductor*%
%TO.N,/~{SE1}*%
G36*
X125172585Y-50262163D02*
G01*
X125300195Y-50389773D01*
X125302731Y-50393569D01*
X125306671Y-50403081D01*
X125331130Y-50462130D01*
X125331132Y-50462133D01*
X125331135Y-50462139D01*
X125417777Y-50600452D01*
X125419162Y-50603632D01*
X125419976Y-50606668D01*
X125419980Y-50606679D01*
X125439059Y-50639723D01*
X125458564Y-50673507D01*
X125459538Y-50675193D01*
X125459558Y-50675220D01*
X125459562Y-50675235D01*
X125459922Y-50675859D01*
X125459754Y-50675955D01*
X125461872Y-50683871D01*
X125457482Y-50691554D01*
X125238338Y-50862994D01*
X125229711Y-50865393D01*
X125223921Y-50862994D01*
X125001424Y-50688932D01*
X124997020Y-50681136D01*
X124998719Y-50673507D01*
X125040582Y-50606679D01*
X125131130Y-50462130D01*
X125131119Y-50462123D01*
X125035476Y-50403081D01*
X125030236Y-50395819D01*
X125031666Y-50386979D01*
X125033345Y-50384856D01*
X125156039Y-50262163D01*
X125164312Y-50258736D01*
X125172585Y-50262163D01*
G37*
%TD.AperFunction*%
%TD*%
%TA.AperFunction,Conductor*%
%TO.N,/~{SE1}*%
G36*
X123137305Y-21612938D02*
G01*
X123142812Y-21619462D01*
X123553404Y-22827434D01*
X123552821Y-22836370D01*
X123550599Y-22839472D01*
X123419472Y-22970599D01*
X123411199Y-22974026D01*
X123407434Y-22973404D01*
X122199462Y-22562812D01*
X122192732Y-22556905D01*
X122192013Y-22548398D01*
X122404893Y-21832767D01*
X122410535Y-21825817D01*
X122412761Y-21824895D01*
X123128398Y-21612013D01*
X123137305Y-21612938D01*
G37*
%TD.AperFunction*%
%TD*%
%TA.AperFunction,Conductor*%
%TO.N,/RD3*%
G36*
X131192753Y-19052589D02*
G01*
X131196545Y-19055124D01*
X131318402Y-19176980D01*
X131368249Y-19226827D01*
X131369705Y-19228602D01*
X131370962Y-19230484D01*
X131372042Y-19232505D01*
X131399990Y-19299981D01*
X131399998Y-19299996D01*
X131399998Y-19299997D01*
X131633567Y-19667811D01*
X131964051Y-20188243D01*
X131965699Y-20192497D01*
X131966006Y-20194250D01*
X131964057Y-20202990D01*
X131963242Y-20204151D01*
X131959237Y-20207718D01*
X131307616Y-20560544D01*
X131303256Y-20561892D01*
X131300816Y-20562145D01*
X131299823Y-20562248D01*
X131293042Y-20560901D01*
X130641052Y-20207876D01*
X130637538Y-20204959D01*
X130636415Y-20203575D01*
X130633863Y-20195000D01*
X130634010Y-20193581D01*
X130635767Y-20188525D01*
X131200000Y-19300000D01*
X131200000Y-19299999D01*
X131199997Y-19299997D01*
X131101207Y-19227643D01*
X131058093Y-19196065D01*
X131055008Y-19192703D01*
X131054083Y-19191181D01*
X131052714Y-19182334D01*
X131052977Y-19181258D01*
X131056066Y-19175769D01*
X131176713Y-19055122D01*
X131180500Y-19052591D01*
X131182152Y-19051906D01*
X131191102Y-19051906D01*
X131192753Y-19052589D01*
G37*
%TD.AperFunction*%
%TD*%
%TA.AperFunction,Conductor*%
%TO.N,/RD5*%
G36*
X120450615Y-51853696D02*
G01*
X120450722Y-51853723D01*
X120453309Y-51854700D01*
X120456106Y-51856156D01*
X120708039Y-51987282D01*
X120711593Y-51990133D01*
X120714118Y-51993142D01*
X120716541Y-51997970D01*
X120796468Y-52336273D01*
X120796630Y-52340835D01*
X120796130Y-52343919D01*
X120791852Y-52351213D01*
X120658930Y-52456657D01*
X120654869Y-52458742D01*
X120653155Y-52459231D01*
X120644259Y-52458205D01*
X120642904Y-52457451D01*
X120639131Y-52454108D01*
X120561585Y-52347376D01*
X120310273Y-52001479D01*
X120308361Y-51997334D01*
X120307821Y-51995085D01*
X120308770Y-51987047D01*
X120309254Y-51986098D01*
X120311402Y-51983140D01*
X120436744Y-51857798D01*
X120440534Y-51855265D01*
X120443123Y-51854193D01*
X120450409Y-51853646D01*
X120450615Y-51853696D01*
G37*
%TD.AperFunction*%
%TD*%
%TA.AperFunction,Conductor*%
%TO.N,/RD5*%
G36*
X119454557Y-31748379D02*
G01*
X119716532Y-31860264D01*
X119722794Y-31866664D01*
X119722749Y-31875490D01*
X119550004Y-32293618D01*
X119550000Y-32293629D01*
X119522100Y-32360982D01*
X119519564Y-32364777D01*
X119490584Y-32393758D01*
X119482311Y-32397185D01*
X119474038Y-32393758D01*
X119357001Y-32276721D01*
X119353501Y-32277417D01*
X119344719Y-32275669D01*
X119340407Y-32270409D01*
X119177250Y-31875490D01*
X119177258Y-31866536D01*
X119183465Y-31860265D01*
X119445406Y-31748394D01*
X119454359Y-31748297D01*
X119454557Y-31748379D01*
G37*
%TD.AperFunction*%
%TD*%
%TA.AperFunction,Conductor*%
%TO.N,/RD4*%
G36*
X121113604Y-51349225D02*
G01*
X121287748Y-51571827D01*
X121290147Y-51580454D01*
X121287748Y-51586245D01*
X121113604Y-51808846D01*
X121105807Y-51813251D01*
X121098305Y-51811631D01*
X120880504Y-51679035D01*
X120880495Y-51679030D01*
X120811945Y-51650637D01*
X120808149Y-51648101D01*
X120685049Y-51525001D01*
X120681622Y-51516728D01*
X120685049Y-51508455D01*
X120714469Y-51479035D01*
X120807608Y-51385895D01*
X120815880Y-51382469D01*
X120824153Y-51385896D01*
X120825907Y-51388141D01*
X120880506Y-51479036D01*
X121098307Y-51346439D01*
X121107153Y-51345065D01*
X121113604Y-51349225D01*
G37*
%TD.AperFunction*%
%TD*%
%TA.AperFunction,Conductor*%
%TO.N,/RD4*%
G36*
X120057050Y-30954722D02*
G01*
X120138181Y-30989035D01*
X120141960Y-30991601D01*
X120144109Y-30993783D01*
X120147473Y-31001939D01*
X120149500Y-31443703D01*
X120149500Y-31538712D01*
X120148609Y-31543191D01*
X120147927Y-31544837D01*
X120141599Y-31551166D01*
X120140727Y-31551527D01*
X120139952Y-31551848D01*
X120135473Y-31552740D01*
X119957173Y-31552740D01*
X119952695Y-31551849D01*
X119948722Y-31550203D01*
X119944927Y-31547667D01*
X119866548Y-31469288D01*
X119865540Y-31468139D01*
X119864615Y-31466934D01*
X119863772Y-31465674D01*
X119850500Y-31442686D01*
X119757314Y-31349500D01*
X119757313Y-31349499D01*
X119757310Y-31349497D01*
X119751648Y-31346228D01*
X119734338Y-31336233D01*
X119733070Y-31335386D01*
X119731861Y-31334459D01*
X119730707Y-31333447D01*
X119624231Y-31226971D01*
X119621697Y-31223181D01*
X119621013Y-31221531D01*
X119621011Y-31212582D01*
X119621333Y-31211802D01*
X119626116Y-31206254D01*
X120042908Y-30955996D01*
X120047201Y-30954458D01*
X120050769Y-30953926D01*
X120057050Y-30954722D01*
G37*
%TD.AperFunction*%
%TD*%
%TA.AperFunction,Conductor*%
%TO.N,/RD3*%
G36*
X121039948Y-50203457D02*
G01*
X121040414Y-50203650D01*
X121041593Y-50204138D01*
X121047925Y-50210466D01*
X121047927Y-50210469D01*
X121048609Y-50212115D01*
X121049500Y-50216594D01*
X121049500Y-50271359D01*
X121083605Y-50398647D01*
X121083606Y-50398649D01*
X121083618Y-50398671D01*
X121149496Y-50512774D01*
X121149504Y-50512783D01*
X121169485Y-50532764D01*
X121171071Y-50534737D01*
X121172411Y-50536834D01*
X121173535Y-50539102D01*
X121222532Y-50672580D01*
X121223239Y-50677090D01*
X121223159Y-50679046D01*
X121219617Y-50686964D01*
X121218502Y-50688046D01*
X121214949Y-50690410D01*
X120956733Y-50800690D01*
X120952267Y-50801629D01*
X120948096Y-50801675D01*
X120943373Y-50800736D01*
X120839588Y-50756411D01*
X120685193Y-50690472D01*
X120681426Y-50687895D01*
X120680056Y-50686495D01*
X120676719Y-50678485D01*
X120676698Y-50677090D01*
X120676696Y-50676930D01*
X120677412Y-50672727D01*
X120727297Y-50536834D01*
X120824748Y-50271359D01*
X120846383Y-50212416D01*
X120848759Y-50208525D01*
X120850760Y-50206353D01*
X120856900Y-50202846D01*
X120856924Y-50202840D01*
X120856980Y-50202829D01*
X120859441Y-50202567D01*
X121035473Y-50202567D01*
X121039948Y-50203457D01*
G37*
%TD.AperFunction*%
%TD*%
%TA.AperFunction,Conductor*%
%TO.N,/RD2*%
G36*
X128768266Y-19297277D02*
G01*
X129488075Y-20018030D01*
X129504459Y-20034436D01*
X129507880Y-20042712D01*
X129504448Y-20050983D01*
X129497288Y-20054351D01*
X128860000Y-20114999D01*
X128831601Y-20183560D01*
X128829065Y-20187356D01*
X128344717Y-20671705D01*
X128336444Y-20675132D01*
X128328171Y-20671705D01*
X128203689Y-20547223D01*
X128200262Y-20538950D01*
X128203689Y-20530677D01*
X128204055Y-20530327D01*
X128660000Y-20115000D01*
X128659998Y-20114999D01*
X128659999Y-20114999D01*
X128022711Y-20054351D01*
X128014799Y-20050156D01*
X128012172Y-20041596D01*
X128015539Y-20034437D01*
X128751722Y-19297288D01*
X128759992Y-19293857D01*
X128768266Y-19297277D01*
G37*
%TD.AperFunction*%
%TD*%
%TA.AperFunction,Conductor*%
%TO.N,/RD2*%
G36*
X121544809Y-49580459D02*
G01*
X121619065Y-49654714D01*
X121621601Y-49658509D01*
X121646223Y-49717954D01*
X121647114Y-49722428D01*
X121647114Y-49739517D01*
X121681220Y-49866807D01*
X121681222Y-49866811D01*
X121747111Y-49980933D01*
X121747115Y-49980938D01*
X121797578Y-50031401D01*
X121799823Y-50034549D01*
X121821777Y-50079605D01*
X121822320Y-50088543D01*
X121816384Y-50095248D01*
X121815854Y-50095490D01*
X121554595Y-50207069D01*
X121545641Y-50207167D01*
X121545405Y-50207069D01*
X121284145Y-50095490D01*
X121277882Y-50089089D01*
X121277980Y-50080135D01*
X121278211Y-50079628D01*
X121450000Y-49727071D01*
X121449999Y-49727070D01*
X121450000Y-49727070D01*
X121415290Y-49718557D01*
X121408071Y-49713258D01*
X121406714Y-49704407D01*
X121409802Y-49698923D01*
X121528266Y-49580459D01*
X121536538Y-49577033D01*
X121544809Y-49580459D01*
G37*
%TD.AperFunction*%
%TD*%
M02*
