%TF.GenerationSoftware,KiCad,Pcbnew,10.0.5+dfsg-1*%
%TF.CreationDate,2026-09-13T14:09:33+09:00*%
%TF.ProjectId,VdpBooster,56647042-6f6f-4737-9465-722e6b696361,rev?*%
%TF.SameCoordinates,Original*%
%TF.FileFunction,Soldermask,Top*%
%TF.FilePolarity,Negative*%
%FSLAX46Y46*%
G04 Gerber Fmt 4.6, Leading zero omitted, Abs format (unit mm)*
G04 Created by KiCad (PCBNEW 10.0.5+dfsg-1) date 2026-09-13 14:09:33*
%MOMM*%
%LPD*%
G01*
G04 APERTURE LIST*
G04 Aperture macros list*
%AMRoundRect*
0 Rectangle with rounded corners*
0 $1 Rounding radius*
0 $2 $3 $4 $5 $6 $7 $8 $9 X,Y pos of 4 corners*
0 Add a 4 corners polygon primitive as box body*
4,1,4,$2,$3,$4,$5,$6,$7,$8,$9,$2,$3,0*
0 Add four circle primitives for the rounded corners*
1,1,$1+$1,$2,$3*
1,1,$1+$1,$4,$5*
1,1,$1+$1,$6,$7*
1,1,$1+$1,$8,$9*
0 Add four rect primitives between the rounded corners*
20,1,$1+$1,$2,$3,$4,$5,0*
20,1,$1+$1,$4,$5,$6,$7,0*
20,1,$1+$1,$6,$7,$8,$9,0*
20,1,$1+$1,$8,$9,$2,$3,0*%
G04 Aperture macros list end*
%ADD10R,1.524000X1.524000*%
%ADD11C,1.524000*%
%ADD12R,2.000000X2.000000*%
%ADD13RoundRect,0.237500X-0.250000X-0.237500X0.250000X-0.237500X0.250000X0.237500X-0.250000X0.237500X0*%
%ADD14RoundRect,0.237500X0.250000X0.237500X-0.250000X0.237500X-0.250000X-0.237500X0.250000X-0.237500X0*%
%ADD15RoundRect,0.237500X-0.300000X-0.237500X0.300000X-0.237500X0.300000X0.237500X-0.300000X0.237500X0*%
%ADD16RoundRect,0.237500X0.300000X0.237500X-0.300000X0.237500X-0.300000X-0.237500X0.300000X-0.237500X0*%
%ADD17RoundRect,0.237500X0.237500X-0.300000X0.237500X0.300000X-0.237500X0.300000X-0.237500X-0.300000X0*%
%ADD18RoundRect,0.137500X-0.737500X-0.137500X0.737500X-0.137500X0.737500X0.137500X-0.737500X0.137500X0*%
%ADD19RoundRect,0.137500X-0.137500X-0.737500X0.137500X-0.737500X0.137500X0.737500X-0.137500X0.737500X0*%
G04 APERTURE END LIST*
D10*
%TO.C,U1*%
X135110000Y-19290000D03*
D11*
X137650000Y-20560000D03*
X135110000Y-21830000D03*
X137650000Y-23100000D03*
X135110000Y-24370000D03*
X137650000Y-25640000D03*
X135110000Y-26910000D03*
X137650000Y-28180000D03*
X135110000Y-29450000D03*
X137650000Y-30720000D03*
X135110000Y-31990000D03*
X137650000Y-33260000D03*
X135110000Y-34530000D03*
X137650000Y-35800000D03*
X135110000Y-37070000D03*
X137650000Y-38340000D03*
X135110000Y-39610000D03*
X137650000Y-40880000D03*
X135110000Y-42150000D03*
X137650000Y-43420000D03*
X135110000Y-44690000D03*
X137650000Y-45960000D03*
X135110000Y-47230000D03*
X137650000Y-48500000D03*
%TD*%
D12*
%TO.C,TP7*%
X125525000Y-84625000D03*
%TD*%
%TO.C,TP6*%
X125525000Y-80575000D03*
%TD*%
%TO.C,TP5*%
X125525000Y-76525000D03*
%TD*%
%TO.C,TP2*%
X142750000Y-86500000D03*
%TD*%
%TO.C,TP1*%
X139250000Y-86500000D03*
%TD*%
%TO.C,TP4*%
X117500000Y-36000000D03*
%TD*%
%TO.C,TP3*%
X117500000Y-44500000D03*
%TD*%
D13*
%TO.C,R4*%
X135025000Y-80000000D03*
X133200000Y-80000000D03*
%TD*%
%TO.C,R9*%
X129700000Y-85750000D03*
X131525000Y-85750000D03*
%TD*%
D14*
%TO.C,R8*%
X135025000Y-85750000D03*
X133200000Y-85750000D03*
%TD*%
D13*
%TO.C,R7*%
X133200000Y-84000000D03*
X135025000Y-84000000D03*
%TD*%
%TO.C,R6*%
X129700000Y-81750000D03*
X131525000Y-81750000D03*
%TD*%
D14*
%TO.C,R5*%
X135025000Y-81750000D03*
X133200000Y-81750000D03*
%TD*%
D13*
%TO.C,R3*%
X129700000Y-77750000D03*
X131525000Y-77750000D03*
%TD*%
D14*
%TO.C,R2*%
X135025000Y-77750000D03*
X133200000Y-77750000D03*
%TD*%
D13*
%TO.C,R1*%
X133200000Y-76000000D03*
X135025000Y-76000000D03*
%TD*%
D15*
%TO.C,C9*%
X138637500Y-84000000D03*
X140362500Y-84000000D03*
%TD*%
D16*
%TO.C,C8*%
X131475000Y-84000000D03*
X129750000Y-84000000D03*
%TD*%
%TO.C,C7*%
X131475000Y-80000000D03*
X129750000Y-80000000D03*
%TD*%
%TO.C,C6*%
X131475000Y-76000000D03*
X129750000Y-76000000D03*
%TD*%
D17*
%TO.C,C5*%
X118500000Y-40912500D03*
X118500000Y-39187500D03*
%TD*%
D15*
%TO.C,C4*%
X130137500Y-53500000D03*
X131862500Y-53500000D03*
%TD*%
D16*
%TO.C,C3*%
X137862500Y-53500000D03*
X136137500Y-53500000D03*
%TD*%
%TO.C,C2*%
X137862500Y-65500000D03*
X136137500Y-65500000D03*
%TD*%
D15*
%TO.C,C1*%
X130137500Y-65500000D03*
X131862500Y-65500000D03*
%TD*%
D18*
%TO.C,U5*%
X145000000Y-54900000D03*
X145000000Y-55700000D03*
X145000000Y-56500000D03*
X145000000Y-57300000D03*
X145000000Y-58100000D03*
X145000000Y-58900000D03*
X145000000Y-59700000D03*
X145000000Y-60500000D03*
X145000000Y-61300000D03*
X145000000Y-62100000D03*
X145000000Y-62900000D03*
X145000000Y-63700000D03*
X145000000Y-64500000D03*
X145000000Y-65300000D03*
X145000000Y-66100000D03*
X145000000Y-66900000D03*
X145000000Y-67700000D03*
X145000000Y-68500000D03*
X145000000Y-69300000D03*
X145000000Y-70100000D03*
X145000000Y-70900000D03*
X145000000Y-71700000D03*
X145000000Y-72500000D03*
X145000000Y-73300000D03*
X145000000Y-74100000D03*
X145000000Y-74900000D03*
X145000000Y-75700000D03*
X145000000Y-76500000D03*
X145000000Y-77300000D03*
X145000000Y-78100000D03*
X145000000Y-78900000D03*
X145000000Y-79700000D03*
D19*
X147725000Y-82425000D03*
X148525000Y-82425000D03*
X149325000Y-82425000D03*
X150125000Y-82425000D03*
X150925000Y-82425000D03*
X151725000Y-82425000D03*
X152525000Y-82425000D03*
X153325000Y-82425000D03*
X154125000Y-82425000D03*
X154925000Y-82425000D03*
X155725000Y-82425000D03*
X156525000Y-82425000D03*
X157325000Y-82425000D03*
X158125000Y-82425000D03*
X158925000Y-82425000D03*
X159725000Y-82425000D03*
X160525000Y-82425000D03*
X161325000Y-82425000D03*
X162125000Y-82425000D03*
X162925000Y-82425000D03*
X163725000Y-82425000D03*
X164525000Y-82425000D03*
X165325000Y-82425000D03*
X166125000Y-82425000D03*
X166925000Y-82425000D03*
X167725000Y-82425000D03*
X168525000Y-82425000D03*
X169325000Y-82425000D03*
X170125000Y-82425000D03*
X170925000Y-82425000D03*
X171725000Y-82425000D03*
X172525000Y-82425000D03*
D18*
X175250000Y-79700000D03*
X175250000Y-78900000D03*
X175250000Y-78100000D03*
X175250000Y-77300000D03*
X175250000Y-76500000D03*
X175250000Y-75700000D03*
X175250000Y-74900000D03*
X175250000Y-74100000D03*
X175250000Y-73300000D03*
X175250000Y-72500000D03*
X175250000Y-71700000D03*
X175250000Y-70900000D03*
X175250000Y-70100000D03*
X175250000Y-69300000D03*
X175250000Y-68500000D03*
X175250000Y-67700000D03*
X175250000Y-66900000D03*
X175250000Y-66100000D03*
X175250000Y-65300000D03*
X175250000Y-64500000D03*
X175250000Y-63700000D03*
X175250000Y-62900000D03*
X175250000Y-62100000D03*
X175250000Y-61300000D03*
X175250000Y-60500000D03*
X175250000Y-59700000D03*
X175250000Y-58900000D03*
X175250000Y-58100000D03*
X175250000Y-57300000D03*
X175250000Y-56500000D03*
X175250000Y-55700000D03*
X175250000Y-54900000D03*
D19*
X172525000Y-52175000D03*
X171725000Y-52175000D03*
X170925000Y-52175000D03*
X170125000Y-52175000D03*
X169325000Y-52175000D03*
X168525000Y-52175000D03*
X167725000Y-52175000D03*
X166925000Y-52175000D03*
X166125000Y-52175000D03*
X165325000Y-52175000D03*
X164525000Y-52175000D03*
X163725000Y-52175000D03*
X162925000Y-52175000D03*
X162125000Y-52175000D03*
X161325000Y-52175000D03*
X160525000Y-52175000D03*
X159725000Y-52175000D03*
X158925000Y-52175000D03*
X158125000Y-52175000D03*
X157325000Y-52175000D03*
X156525000Y-52175000D03*
X155725000Y-52175000D03*
X154925000Y-52175000D03*
X154125000Y-52175000D03*
X153325000Y-52175000D03*
X152525000Y-52175000D03*
X151725000Y-52175000D03*
X150925000Y-52175000D03*
X150125000Y-52175000D03*
X149325000Y-52175000D03*
X148525000Y-52175000D03*
X147725000Y-52175000D03*
%TD*%
D11*
%TO.C,U2*%
X144000000Y-48500000D03*
X141460000Y-47230000D03*
X144000000Y-45960000D03*
X141460000Y-44690000D03*
X144000000Y-43420000D03*
X141460000Y-42150000D03*
X144000000Y-40880000D03*
X141460000Y-39610000D03*
X144000000Y-38340000D03*
X141460000Y-37070000D03*
X144000000Y-35800000D03*
X141460000Y-34530000D03*
X144000000Y-33260000D03*
X141460000Y-31990000D03*
X144000000Y-30720000D03*
X141460000Y-29450000D03*
X144000000Y-28180000D03*
X141460000Y-26910000D03*
X144000000Y-25640000D03*
X141460000Y-24370000D03*
X144000000Y-23100000D03*
X141460000Y-21830000D03*
X144000000Y-20560000D03*
D10*
X141460000Y-19290000D03*
%TD*%
D11*
%TO.C,U3*%
X124950000Y-48500000D03*
X122410000Y-47230000D03*
X124950000Y-45960000D03*
X122410000Y-44690000D03*
X124950000Y-43420000D03*
X122410000Y-42150000D03*
X124950000Y-40880000D03*
X122410000Y-39610000D03*
X124950000Y-38340000D03*
X122410000Y-37070000D03*
X124950000Y-35800000D03*
X122410000Y-34530000D03*
X124950000Y-33260000D03*
X122410000Y-31990000D03*
X124950000Y-30720000D03*
X122410000Y-29450000D03*
X124950000Y-28180000D03*
X122410000Y-26910000D03*
X124950000Y-25640000D03*
X122410000Y-24370000D03*
X124950000Y-23100000D03*
X122410000Y-21830000D03*
X124950000Y-20560000D03*
D10*
X122410000Y-19290000D03*
%TD*%
D11*
%TO.C,U4*%
X131300000Y-48500000D03*
X128760000Y-47230000D03*
X131300000Y-45960000D03*
X128760000Y-44690000D03*
X131300000Y-43420000D03*
X128760000Y-42150000D03*
X131300000Y-40880000D03*
X128760000Y-39610000D03*
X131300000Y-38340000D03*
X128760000Y-37070000D03*
X131300000Y-35800000D03*
X128760000Y-34530000D03*
X131300000Y-33260000D03*
X128760000Y-31990000D03*
X131300000Y-30720000D03*
X128760000Y-29450000D03*
X131300000Y-28180000D03*
X128760000Y-26910000D03*
X131300000Y-25640000D03*
X128760000Y-24370000D03*
X131300000Y-23100000D03*
X128760000Y-21830000D03*
X131300000Y-20560000D03*
D10*
X128760000Y-19290000D03*
%TD*%
M02*
