%TF.GenerationSoftware,KiCad,Pcbnew,10.0.5+dfsg-1*%
%TF.CreationDate,2026-09-25T09:00:37+09:00*%
%TF.ProjectId,VdpBooster,56647042-6f6f-4737-9465-722e6b696361,rev?*%
%TF.SameCoordinates,Original*%
%TF.FileFunction,Soldermask,Bot*%
%TF.FilePolarity,Negative*%
%FSLAX46Y46*%
G04 Gerber Fmt 4.6, Leading zero omitted, Abs format (unit mm)*
G04 Created by KiCad (PCBNEW 10.0.5+dfsg-1) date 2026-09-25 09:00:37*
%MOMM*%
%LPD*%
G01*
G04 APERTURE LIST*
%ADD10R,1.524000X1.524000*%
%ADD11C,1.524000*%
G04 APERTURE END LIST*
D10*
%TO.C,U2*%
X141460000Y-19290000D03*
D11*
X144000000Y-20560000D03*
X141460000Y-21830000D03*
X144000000Y-23100000D03*
X141460000Y-24370000D03*
X144000000Y-25640000D03*
X141460000Y-26910000D03*
X144000000Y-28180000D03*
X141460000Y-29450000D03*
X144000000Y-30720000D03*
X141460000Y-31990000D03*
X144000000Y-33260000D03*
X141460000Y-34530000D03*
X144000000Y-35800000D03*
X141460000Y-37070000D03*
X144000000Y-38340000D03*
X141460000Y-39610000D03*
X144000000Y-40880000D03*
X141460000Y-42150000D03*
X144000000Y-43420000D03*
X141460000Y-44690000D03*
X144000000Y-45960000D03*
X141460000Y-47230000D03*
X144000000Y-48500000D03*
%TD*%
D10*
%TO.C,U3*%
X122410000Y-19290000D03*
D11*
X124950000Y-20560000D03*
X122410000Y-21830000D03*
X124950000Y-23100000D03*
X122410000Y-24370000D03*
X124950000Y-25640000D03*
X122410000Y-26910000D03*
X124950000Y-28180000D03*
X122410000Y-29450000D03*
X124950000Y-30720000D03*
X122410000Y-31990000D03*
X124950000Y-33260000D03*
X122410000Y-34530000D03*
X124950000Y-35800000D03*
X122410000Y-37070000D03*
X124950000Y-38340000D03*
X122410000Y-39610000D03*
X124950000Y-40880000D03*
X122410000Y-42150000D03*
X124950000Y-43420000D03*
X122410000Y-44690000D03*
X124950000Y-45960000D03*
X122410000Y-47230000D03*
X124950000Y-48500000D03*
%TD*%
D10*
%TO.C,U1*%
X135110000Y-19290000D03*
D11*
X137650000Y-20560000D03*
X135110000Y-21830000D03*
X137650000Y-23100000D03*
X135110000Y-24370000D03*
X137650000Y-25640000D03*
X135110000Y-26910000D03*
X137650000Y-28180000D03*
X135110000Y-29450000D03*
X137650000Y-30720000D03*
X135110000Y-31990000D03*
X137650000Y-33260000D03*
X135110000Y-34530000D03*
X137650000Y-35800000D03*
X135110000Y-37070000D03*
X137650000Y-38340000D03*
X135110000Y-39610000D03*
X137650000Y-40880000D03*
X135110000Y-42150000D03*
X137650000Y-43420000D03*
X135110000Y-44690000D03*
X137650000Y-45960000D03*
X135110000Y-47230000D03*
X137650000Y-48500000D03*
%TD*%
D10*
%TO.C,U4*%
X128760000Y-19290000D03*
D11*
X131300000Y-20560000D03*
X128760000Y-21830000D03*
X131300000Y-23100000D03*
X128760000Y-24370000D03*
X131300000Y-25640000D03*
X128760000Y-26910000D03*
X131300000Y-28180000D03*
X128760000Y-29450000D03*
X131300000Y-30720000D03*
X128760000Y-31990000D03*
X131300000Y-33260000D03*
X128760000Y-34530000D03*
X131300000Y-35800000D03*
X128760000Y-37070000D03*
X131300000Y-38340000D03*
X128760000Y-39610000D03*
X131300000Y-40880000D03*
X128760000Y-42150000D03*
X131300000Y-43420000D03*
X128760000Y-44690000D03*
X131300000Y-45960000D03*
X128760000Y-47230000D03*
X131300000Y-48500000D03*
%TD*%
M02*
