%TF.GenerationSoftware,KiCad,Pcbnew,10.0.5+dfsg-1*%
%TF.CreationDate,2026-09-25T09:00:37+09:00*%
%TF.ProjectId,VdpBooster,56647042-6f6f-4737-9465-722e6b696361,rev?*%
%TF.SameCoordinates,Original*%
%TF.FileFunction,Copper,L2,Bot*%
%TF.FilePolarity,Positive*%
%FSLAX46Y46*%
G04 Gerber Fmt 4.6, Leading zero omitted, Abs format (unit mm)*
G04 Created by KiCad (PCBNEW 10.0.5+dfsg-1) date 2026-09-25 09:00:37*
%MOMM*%
%LPD*%
G01*
G04 APERTURE LIST*
%TA.AperFunction,ComponentPad*%
%ADD10R,1.524000X1.524000*%
%TD*%
%TA.AperFunction,ComponentPad*%
%ADD11C,1.524000*%
%TD*%
%TA.AperFunction,ViaPad*%
%ADD12C,0.600000*%
%TD*%
%TA.AperFunction,Conductor*%
%ADD13C,0.200000*%
%TD*%
G04 APERTURE END LIST*
D10*
%TO.P,U2,1,W2/IO2_1*%
%TO.N,/A6*%
X141460000Y-19290000D03*
D11*
%TO.P,U2,2,W3/IO3_2*%
%TO.N,/A7*%
X144000000Y-20560000D03*
%TO.P,U2,3,~{SE}_3*%
%TO.N,/~{SE0}*%
X141460000Y-21830000D03*
%TO.P,U2,4,SIO2_4*%
%TO.N,/SD6*%
X144000000Y-23100000D03*
%TO.P,U2,5,SIO3_5*%
%TO.N,/SD7*%
X141460000Y-24370000D03*
%TO.P,U2,6,GND_6*%
%TO.N,GND*%
X144000000Y-25640000D03*
%TO.P,U2,7,SC_7*%
%TO.N,/SC*%
X141460000Y-26910000D03*
%TO.P,U2,8,SIO0_8*%
%TO.N,/SD4*%
X144000000Y-28180000D03*
%TO.P,U2,9,SIO1_9*%
%TO.N,/SD5*%
X141460000Y-29450000D03*
%TO.P,U2,10,~{DT}/~{OE}_10*%
%TO.N,/~{OE1}*%
X144000000Y-30720000D03*
%TO.P,U2,11,W0/IO0_11*%
%TO.N,/A4*%
X141460000Y-31990000D03*
%TO.P,U2,12,W1/IO1_12*%
%TO.N,/A5*%
X144000000Y-33260000D03*
%TO.P,U2,13,~{WB}/~{WE}_13*%
%TO.N,/~{WE0}*%
X141460000Y-34530000D03*
%TO.P,U2,14,~{RAS}_14*%
%TO.N,/~{RAS1}*%
X144000000Y-35800000D03*
%TO.P,U2,15,A5_15*%
%TO.N,/A6*%
X141460000Y-37070000D03*
%TO.P,U2,16,A6_16*%
%TO.N,/A5*%
X144000000Y-38340000D03*
%TO.P,U2,17,A4_17*%
%TO.N,/A4*%
X141460000Y-39610000D03*
%TO.P,U2,18,VCC_18*%
%TO.N,VCC*%
X144000000Y-40880000D03*
%TO.P,U2,19,A7_19*%
%TO.N,/A7*%
X141460000Y-42150000D03*
%TO.P,U2,20,A3_20*%
%TO.N,/A3*%
X144000000Y-43420000D03*
%TO.P,U2,21,A2_21*%
%TO.N,/A2*%
X141460000Y-44690000D03*
%TO.P,U2,22,A1_22*%
%TO.N,/A1*%
X144000000Y-45960000D03*
%TO.P,U2,23,A0_23*%
%TO.N,/A0*%
X141460000Y-47230000D03*
%TO.P,U2,24,~{CAS}_24*%
%TO.N,/~{CAS1}*%
X144000000Y-48500000D03*
%TD*%
D10*
%TO.P,U3,1,W2/IO2_1*%
%TO.N,/RD6*%
X122410000Y-19290000D03*
D11*
%TO.P,U3,2,W3/IO3_2*%
%TO.N,/RD7*%
X124950000Y-20560000D03*
%TO.P,U3,3,~{SE}_3*%
%TO.N,/~{SE1}*%
X122410000Y-21830000D03*
%TO.P,U3,4,SIO2_4*%
%TO.N,/SD6*%
X124950000Y-23100000D03*
%TO.P,U3,5,SIO3_5*%
%TO.N,/SD7*%
X122410000Y-24370000D03*
%TO.P,U3,6,GND_6*%
%TO.N,GND*%
X124950000Y-25640000D03*
%TO.P,U3,7,SC_7*%
%TO.N,/SC*%
X122410000Y-26910000D03*
%TO.P,U3,8,SIO0_8*%
%TO.N,/SD4*%
X124950000Y-28180000D03*
%TO.P,U3,9,SIO1_9*%
%TO.N,/SD5*%
X122410000Y-29450000D03*
%TO.P,U3,10,~{DT}/~{OE}_10*%
%TO.N,/~{OE1}*%
X124950000Y-30720000D03*
%TO.P,U3,11,W0/IO0_11*%
%TO.N,/RD4*%
X122410000Y-31990000D03*
%TO.P,U3,12,W1/IO1_12*%
%TO.N,/RD5*%
X124950000Y-33260000D03*
%TO.P,U3,13,~{WB}/~{WE}_13*%
%TO.N,/~{WE1}*%
X122410000Y-34530000D03*
%TO.P,U3,14,~{RAS}_14*%
%TO.N,/~{RAS1}*%
X124950000Y-35800000D03*
%TO.P,U3,15,A5_15*%
%TO.N,/A6*%
X122410000Y-37070000D03*
%TO.P,U3,16,A6_16*%
%TO.N,/A5*%
X124950000Y-38340000D03*
%TO.P,U3,17,A4_17*%
%TO.N,/A4*%
X122410000Y-39610000D03*
%TO.P,U3,18,VCC_18*%
%TO.N,VCC*%
X124950000Y-40880000D03*
%TO.P,U3,19,A7_19*%
%TO.N,/A7*%
X122410000Y-42150000D03*
%TO.P,U3,20,A3_20*%
%TO.N,/A3*%
X124950000Y-43420000D03*
%TO.P,U3,21,A2_21*%
%TO.N,/A2*%
X122410000Y-44690000D03*
%TO.P,U3,22,A1_22*%
%TO.N,/A1*%
X124950000Y-45960000D03*
%TO.P,U3,23,A0_23*%
%TO.N,/A0*%
X122410000Y-47230000D03*
%TO.P,U3,24,~{CAS}_24*%
%TO.N,/~{CAS1}*%
X124950000Y-48500000D03*
%TD*%
D10*
%TO.P,U1,1,W2/IO2_1*%
%TO.N,/A2*%
X135110000Y-19290000D03*
D11*
%TO.P,U1,2,W3/IO3_2*%
%TO.N,/A3*%
X137650000Y-20560000D03*
%TO.P,U1,3,~{SE}_3*%
%TO.N,/~{SE0}*%
X135110000Y-21830000D03*
%TO.P,U1,4,SIO2_4*%
%TO.N,/SD2*%
X137650000Y-23100000D03*
%TO.P,U1,5,SIO3_5*%
%TO.N,/SD3*%
X135110000Y-24370000D03*
%TO.P,U1,6,GND_6*%
%TO.N,GND*%
X137650000Y-25640000D03*
%TO.P,U1,7,SC_7*%
%TO.N,/SC*%
X135110000Y-26910000D03*
%TO.P,U1,8,SIO0_8*%
%TO.N,/SD0*%
X137650000Y-28180000D03*
%TO.P,U1,9,SIO1_9*%
%TO.N,/SD1*%
X135110000Y-29450000D03*
%TO.P,U1,10,~{DT}/~{OE}_10*%
%TO.N,/~{OE1}*%
X137650000Y-30720000D03*
%TO.P,U1,11,W0/IO0_11*%
%TO.N,/A0*%
X135110000Y-31990000D03*
%TO.P,U1,12,W1/IO1_12*%
%TO.N,/A1*%
X137650000Y-33260000D03*
%TO.P,U1,13,~{WB}/~{WE}_13*%
%TO.N,/~{WE0}*%
X135110000Y-34530000D03*
%TO.P,U1,14,~{RAS}_14*%
%TO.N,/~{RAS1}*%
X137650000Y-35800000D03*
%TO.P,U1,15,A5_15*%
%TO.N,/A6*%
X135110000Y-37070000D03*
%TO.P,U1,16,A6_16*%
%TO.N,/A5*%
X137650000Y-38340000D03*
%TO.P,U1,17,A4_17*%
%TO.N,/A4*%
X135110000Y-39610000D03*
%TO.P,U1,18,VCC_18*%
%TO.N,VCC*%
X137650000Y-40880000D03*
%TO.P,U1,19,A7_19*%
%TO.N,/A7*%
X135110000Y-42150000D03*
%TO.P,U1,20,A3_20*%
%TO.N,/A3*%
X137650000Y-43420000D03*
%TO.P,U1,21,A2_21*%
%TO.N,/A2*%
X135110000Y-44690000D03*
%TO.P,U1,22,A1_22*%
%TO.N,/A1*%
X137650000Y-45960000D03*
%TO.P,U1,23,A0_23*%
%TO.N,/A0*%
X135110000Y-47230000D03*
%TO.P,U1,24,~{CAS}_24*%
%TO.N,/~{CAS1}*%
X137650000Y-48500000D03*
%TD*%
D10*
%TO.P,U4,1,W2/IO2_1*%
%TO.N,/RD2*%
X128760000Y-19290000D03*
D11*
%TO.P,U4,2,W3/IO3_2*%
%TO.N,/RD3*%
X131300000Y-20560000D03*
%TO.P,U4,3,~{SE}_3*%
%TO.N,/~{SE1}*%
X128760000Y-21830000D03*
%TO.P,U4,4,SIO2_4*%
%TO.N,/SD2*%
X131300000Y-23100000D03*
%TO.P,U4,5,SIO3_5*%
%TO.N,/SD3*%
X128760000Y-24370000D03*
%TO.P,U4,6,GND_6*%
%TO.N,GND*%
X131300000Y-25640000D03*
%TO.P,U4,7,SC_7*%
%TO.N,/SC*%
X128760000Y-26910000D03*
%TO.P,U4,8,SIO0_8*%
%TO.N,/SD0*%
X131300000Y-28180000D03*
%TO.P,U4,9,SIO1_9*%
%TO.N,/SD1*%
X128760000Y-29450000D03*
%TO.P,U4,10,~{DT}/~{OE}_10*%
%TO.N,/~{OE1}*%
X131300000Y-30720000D03*
%TO.P,U4,11,W0/IO0_11*%
%TO.N,/RD0*%
X128760000Y-31990000D03*
%TO.P,U4,12,W1/IO1_12*%
%TO.N,/RD1*%
X131300000Y-33260000D03*
%TO.P,U4,13,~{WB}/~{WE}_13*%
%TO.N,/~{WE1}*%
X128760000Y-34530000D03*
%TO.P,U4,14,~{RAS}_14*%
%TO.N,/~{RAS1}*%
X131300000Y-35800000D03*
%TO.P,U4,15,A5_15*%
%TO.N,/A6*%
X128760000Y-37070000D03*
%TO.P,U4,16,A6_16*%
%TO.N,/A5*%
X131300000Y-38340000D03*
%TO.P,U4,17,A4_17*%
%TO.N,/A4*%
X128760000Y-39610000D03*
%TO.P,U4,18,VCC_18*%
%TO.N,VCC*%
X131300000Y-40880000D03*
%TO.P,U4,19,A7_19*%
%TO.N,/A7*%
X128760000Y-42150000D03*
%TO.P,U4,20,A3_20*%
%TO.N,/A3*%
X131300000Y-43420000D03*
%TO.P,U4,21,A2_21*%
%TO.N,/A2*%
X128760000Y-44690000D03*
%TO.P,U4,22,A1_22*%
%TO.N,/A1*%
X131300000Y-45960000D03*
%TO.P,U4,23,A0_23*%
%TO.N,/A0*%
X128760000Y-47230000D03*
%TO.P,U4,24,~{CAS}_24*%
%TO.N,/~{CAS1}*%
X131300000Y-48500000D03*
%TD*%
D12*
%TO.N,GNDA*%
X138000000Y-74375000D03*
%TO.N,VCCA*%
X143625000Y-78375000D03*
%TO.N,GNDA*%
X143375000Y-77500000D03*
%TO.N,/SD4*%
X127125000Y-28180000D03*
%TO.N,/SD5*%
X127100000Y-30000000D03*
%TO.N,VCCA*%
X145868136Y-86993136D03*
X142375000Y-74375000D03*
%TO.N,GNDA*%
X136625000Y-77500000D03*
X131625000Y-84500000D03*
X151325000Y-85125000D03*
X142500000Y-80500000D03*
X131625000Y-74375000D03*
X140125000Y-84500000D03*
X142500000Y-84500000D03*
X143750000Y-75000000D03*
X136625000Y-80500000D03*
X136625000Y-83500000D03*
%TO.N,/~{RAS1}*%
X130575735Y-53674265D03*
%TO.N,GND*%
X128500000Y-60250000D03*
X143750000Y-67750000D03*
X132750000Y-73250000D03*
X130810000Y-13208000D03*
X128500000Y-68375000D03*
X127375000Y-20625000D03*
X132125000Y-18250000D03*
X118250000Y-51750000D03*
X134250000Y-59375000D03*
X144875000Y-18375000D03*
X141750000Y-73375000D03*
X138500000Y-18250000D03*
X139250000Y-54125000D03*
X119550000Y-18125000D03*
X130250000Y-55625000D03*
X124500000Y-13250000D03*
X133125000Y-64625000D03*
X145000000Y-53250000D03*
X145375000Y-87950000D03*
X125750000Y-18250000D03*
%TO.N,/A6*%
X137000000Y-50750000D03*
X139350000Y-50600000D03*
X128991019Y-70215433D03*
%TO.N,/A7*%
X131250000Y-49875000D03*
X128623145Y-69505030D03*
%TO.N,/~{SE0}*%
X132362000Y-53750000D03*
X133000000Y-21000000D03*
%TO.N,/SD6*%
X127300734Y-50399263D03*
%TO.N,/SD7*%
X125157235Y-51967765D03*
%TO.N,/SC*%
X125500000Y-26910000D03*
X128625000Y-52850000D03*
%TO.N,/SD4*%
X129000000Y-50350000D03*
%TO.N,/SD5*%
X128125000Y-50375000D03*
%TO.N,/~{OE1}*%
X143700000Y-66900000D03*
%TO.N,/A4*%
X138125000Y-51375000D03*
X129982651Y-71112888D03*
X142060000Y-50750000D03*
%TO.N,/A5*%
X143500000Y-50250000D03*
X138150000Y-50000000D03*
X129192185Y-70989730D03*
%TO.N,/~{WE0}*%
X143700000Y-66000000D03*
X144625000Y-42125000D03*
%TO.N,VCC*%
X140125000Y-15375000D03*
X123125000Y-15375000D03*
%TO.N,/A3*%
X130083077Y-71906562D03*
%TO.N,/A2*%
X130875291Y-72017918D03*
%TO.N,/A1*%
X140750000Y-45960000D03*
X130925734Y-72975737D03*
%TO.N,/A0*%
X131750000Y-73000000D03*
%TO.N,/~{CAS1}*%
X126625874Y-52850000D03*
%TO.N,/SD0*%
X136252206Y-51702206D03*
%TO.N,/SD1*%
X135700000Y-51000000D03*
%TO.N,/SD2*%
X133600000Y-49125000D03*
%TO.N,/SD3*%
X132900000Y-24066263D03*
X133000000Y-49750000D03*
%TO.N,/~{SE1}*%
X125901748Y-52425000D03*
%TO.N,/~{WE1}*%
X129263235Y-54236765D03*
%TO.N,/RD0*%
X121250000Y-30928000D03*
X122844000Y-49114000D03*
%TO.N,/RD1*%
X120650000Y-34000000D03*
X122147614Y-49673623D03*
%TO.N,/RD2*%
X121550000Y-50205465D03*
%TO.N,/RD3*%
X120950000Y-50800000D03*
%TO.N,/RD4*%
X121289821Y-51579036D03*
X119500000Y-31375000D03*
%TO.N,/RD5*%
X120859678Y-52253558D03*
X119100000Y-32230392D03*
%TO.N,/RD6*%
X121410241Y-52853558D03*
%TO.N,/RD7*%
X120767375Y-53453558D03*
%TO.N,GNDA*%
X145200000Y-81026000D03*
X144625000Y-83250000D03*
%TD*%
%TO.N,/~{WE0}*%
D13*
X144625000Y-42125000D02*
X145062000Y-42562000D01*
X145062000Y-42562000D02*
X145062000Y-49188000D01*
X145062000Y-49188000D02*
X144250000Y-50000000D01*
X144250000Y-50000000D02*
X144250000Y-50562500D01*
X144250000Y-50562500D02*
X143500000Y-51312500D01*
X143500000Y-51312500D02*
X143500000Y-65800000D01*
X143500000Y-65800000D02*
X143700000Y-66000000D01*
%TO.N,/SD1*%
X136188000Y-30528000D02*
X135110000Y-29450000D01*
X136188000Y-47732947D02*
X136188000Y-30528000D01*
X135885421Y-48035526D02*
X136188000Y-47732947D01*
X135885421Y-50000000D02*
X135885421Y-48035526D01*
X135700000Y-50185421D02*
X135885421Y-50000000D01*
X135700000Y-51000000D02*
X135700000Y-50185421D01*
%TO.N,/SD0*%
X136252206Y-51702206D02*
X136300000Y-51654412D01*
X136300000Y-51654412D02*
X136300000Y-48288000D01*
X136300000Y-48288000D02*
X136588000Y-48000000D01*
X136588000Y-48000000D02*
X136588000Y-29242000D01*
X136588000Y-29242000D02*
X137650000Y-28180000D01*
%TO.N,/A6*%
X139350000Y-50600000D02*
X139485421Y-50464579D01*
X139485421Y-50464579D02*
X139485421Y-40514579D01*
X139485421Y-40514579D02*
X140000000Y-40000000D01*
X140000000Y-40000000D02*
X140000000Y-38530000D01*
X140000000Y-38530000D02*
X141460000Y-37070000D01*
%TO.N,/A2*%
X130875291Y-72017918D02*
X130880537Y-72017918D01*
X130880537Y-72017918D02*
X131450000Y-71448456D01*
X131450000Y-71448456D02*
X131450000Y-59615684D01*
X131450000Y-59615684D02*
X139950000Y-51115684D01*
X139950000Y-51115684D02*
X139950000Y-45300000D01*
X139950000Y-45300000D02*
X140560000Y-44690000D01*
X140560000Y-44690000D02*
X141460000Y-44690000D01*
%TO.N,/A1*%
X140750000Y-45960000D02*
X140375000Y-46335000D01*
X131850000Y-72051471D02*
X130925734Y-72975737D01*
X140375000Y-46335000D02*
X140375000Y-47875000D01*
X140750000Y-48250000D02*
X140750000Y-50881370D01*
X140375000Y-47875000D02*
X140750000Y-48250000D01*
X131850000Y-59781370D02*
X131850000Y-72051471D01*
X140750000Y-50881370D02*
X131850000Y-59781370D01*
%TO.N,/A0*%
X141460000Y-47230000D02*
X141460000Y-50737055D01*
X141460000Y-50737055D02*
X132250000Y-59947056D01*
X132250000Y-59947056D02*
X132250000Y-72500000D01*
X132250000Y-72500000D02*
X131750000Y-73000000D01*
%TO.N,/SD5*%
X128125000Y-50375000D02*
X127000000Y-49250000D01*
X127000000Y-49250000D02*
X127000000Y-30100000D01*
X127000000Y-30100000D02*
X127100000Y-30000000D01*
%TO.N,/SD4*%
X127625000Y-31375000D02*
X127700000Y-31300000D01*
X127698000Y-29889895D02*
X127698000Y-28753000D01*
X127700000Y-31300000D02*
X127700000Y-29891895D01*
X127700000Y-29891895D02*
X127698000Y-29889895D01*
X127698000Y-28753000D02*
X127125000Y-28180000D01*
%TO.N,/SD2*%
X131300000Y-23100000D02*
X133100000Y-23100000D01*
X133100000Y-23100000D02*
X133500000Y-23500000D01*
X133500000Y-23500000D02*
X133500000Y-49025000D01*
X133500000Y-49025000D02*
X133600000Y-49125000D01*
%TO.N,/A4*%
X142060000Y-50750000D02*
X142538000Y-50272000D01*
X142538000Y-50272000D02*
X142538000Y-43788000D01*
X142538000Y-43788000D02*
X142250000Y-43500000D01*
X142250000Y-43500000D02*
X141000000Y-43500000D01*
X141000000Y-43500000D02*
X140250000Y-42750000D01*
X140250000Y-40820000D02*
X141460000Y-39610000D01*
X140250000Y-42750000D02*
X140250000Y-40820000D01*
%TO.N,/A7*%
X141460000Y-42150000D02*
X142522000Y-41088000D01*
X142522000Y-41088000D02*
X142522000Y-40103000D01*
X142522000Y-40103000D02*
X142538000Y-40087000D01*
X142922000Y-21638000D02*
X144000000Y-20560000D01*
X142538000Y-40087000D02*
X142538000Y-40083814D01*
X142538000Y-40083814D02*
X142922000Y-39699814D01*
X142922000Y-39699814D02*
X142922000Y-21638000D01*
%TO.N,/A5*%
X144000000Y-38340000D02*
X143500000Y-38840000D01*
X143500000Y-38840000D02*
X143500000Y-39687500D01*
X142938000Y-49688000D02*
X143500000Y-50250000D01*
X143500000Y-39687500D02*
X142938000Y-40249500D01*
X142938000Y-40249500D02*
X142938000Y-49688000D01*
%TO.N,/~{SE0}*%
X132362000Y-53750000D02*
X132362000Y-24862000D01*
X132362000Y-24862000D02*
X131875000Y-24375000D01*
X131875000Y-24375000D02*
X130875000Y-24375000D01*
X130875000Y-24375000D02*
X130125000Y-23625000D01*
X130125000Y-23625000D02*
X130125000Y-22500000D01*
X130125000Y-22500000D02*
X130750000Y-21875000D01*
X130750000Y-21875000D02*
X132125000Y-21875000D01*
X132125000Y-21875000D02*
X133000000Y-21000000D01*
%TO.N,/SD4*%
X129000000Y-50350000D02*
X129000000Y-50250000D01*
X129000000Y-50250000D02*
X127500000Y-48750000D01*
X127500000Y-48750000D02*
X127500000Y-31500000D01*
X127500000Y-31500000D02*
X127625000Y-31375000D01*
%TO.N,/~{RAS1}*%
X130625000Y-49875000D02*
X130238000Y-49488000D01*
X130238000Y-49000000D02*
X130238000Y-36862000D01*
X130625000Y-53625000D02*
X130625000Y-49875000D01*
X130238000Y-36862000D02*
X131300000Y-35800000D01*
X130238000Y-49500000D02*
X130238000Y-49375000D01*
X130238000Y-49488000D02*
X130238000Y-49000000D01*
X130575735Y-53674265D02*
X130625000Y-53625000D01*
X130238000Y-49375000D02*
X130238000Y-49000000D01*
%TO.N,/A6*%
X136950000Y-50800000D02*
X136950000Y-51852942D01*
X136950000Y-51852942D02*
X129850000Y-58952941D01*
X129850000Y-69356452D02*
X128991019Y-70215433D01*
X137000000Y-50750000D02*
X136950000Y-50800000D01*
X129850000Y-58952941D02*
X129850000Y-69356452D01*
X140398000Y-36008000D02*
X141460000Y-37070000D01*
X140398000Y-20352000D02*
X140398000Y-36008000D01*
X141460000Y-19290000D02*
X140398000Y-20352000D01*
%TO.N,/A7*%
X129450000Y-58787255D02*
X131250000Y-56987256D01*
X129450000Y-68678175D02*
X129450000Y-58787255D01*
X131250000Y-56987256D02*
X131250000Y-49875000D01*
X128623145Y-69505030D02*
X129450000Y-68678175D01*
%TO.N,/SD6*%
X124950000Y-23100000D02*
X126500000Y-24650000D01*
X126500000Y-24650000D02*
X126500000Y-49598529D01*
X127300734Y-50399263D02*
X126500000Y-49598529D01*
%TO.N,/SD7*%
X123488000Y-25448000D02*
X123488000Y-50298530D01*
X123488000Y-50298530D02*
X125157235Y-51967765D01*
X122410000Y-24370000D02*
X123488000Y-25448000D01*
%TO.N,/SC*%
X126100000Y-42100000D02*
X126000000Y-42000000D01*
X126100000Y-50325000D02*
X126100000Y-50165685D01*
X126000000Y-42000000D02*
X126100000Y-41900000D01*
X128625000Y-52850000D02*
X126100000Y-50325000D01*
X126100000Y-41900000D02*
X126100000Y-27510000D01*
X126100000Y-50165685D02*
X126100000Y-42100000D01*
X126100000Y-27510000D02*
X125500000Y-26910000D01*
%TO.N,/~{OE1}*%
X144650000Y-50165686D02*
X145462000Y-49353686D01*
X143700000Y-66900000D02*
X144100000Y-66900000D01*
X145462000Y-32182000D02*
X144000000Y-30720000D01*
X144625000Y-50753186D02*
X144650000Y-50728185D01*
X144500000Y-65500000D02*
X144000000Y-65000000D01*
X144100000Y-66900000D02*
X144500000Y-66500000D01*
X144500000Y-66500000D02*
X144500000Y-65500000D01*
X144000000Y-65000000D02*
X144000000Y-51462000D01*
X144650000Y-50728185D02*
X144650000Y-50165686D01*
X144000000Y-51462000D02*
X144625000Y-50837000D01*
X144625000Y-50837000D02*
X144625000Y-50753186D01*
X145462000Y-49353686D02*
X145462000Y-32182000D01*
%TO.N,/A4*%
X138125000Y-51809314D02*
X138125000Y-51375000D01*
X141460000Y-31990000D02*
X142522000Y-33052000D01*
X130650000Y-70445540D02*
X130650000Y-59284313D01*
X142522000Y-38548000D02*
X141460000Y-39610000D01*
X129982651Y-71112888D02*
X130650000Y-70445540D01*
X130650000Y-59284313D02*
X138125000Y-51809314D01*
X142522000Y-33052000D02*
X142522000Y-38548000D01*
%TO.N,/A5*%
X129192185Y-70989730D02*
X130250000Y-69931916D01*
X145062000Y-35062000D02*
X145062000Y-37278000D01*
X145062000Y-37278000D02*
X144000000Y-38340000D01*
X137350000Y-52018628D02*
X137350000Y-51301471D01*
X138150000Y-50501471D02*
X138150000Y-50000000D01*
X144000000Y-33260000D02*
X144000000Y-34000000D01*
X144000000Y-34000000D02*
X145062000Y-35062000D01*
X137350000Y-51301471D02*
X138150000Y-50501471D01*
X130250000Y-69931916D02*
X130250000Y-59118627D01*
X130250000Y-59118627D02*
X137350000Y-52018628D01*
%TO.N,VCC*%
X123125000Y-15375000D02*
X140125000Y-15375000D01*
%TO.N,/A3*%
X137650000Y-43420000D02*
X137650000Y-42850000D01*
X138712000Y-21622000D02*
X137650000Y-20560000D01*
X138750000Y-44520000D02*
X137650000Y-43420000D01*
X138712000Y-41788000D02*
X138712000Y-21622000D01*
X138750000Y-51750000D02*
X138750000Y-44520000D01*
X130083077Y-71906562D02*
X131050000Y-70939638D01*
X131050000Y-70939638D02*
X131050000Y-59449999D01*
X137650000Y-42850000D02*
X138712000Y-41788000D01*
X131050000Y-59449999D02*
X138750000Y-51750000D01*
%TO.N,/A2*%
X135110000Y-19290000D02*
X134048000Y-20352000D01*
X134048000Y-20352000D02*
X134048000Y-43628000D01*
X134048000Y-43628000D02*
X135110000Y-44690000D01*
%TO.N,/~{CAS1}*%
X126625874Y-51875874D02*
X124950000Y-50200000D01*
X126625874Y-52850000D02*
X126625874Y-51875874D01*
X124950000Y-50200000D02*
X124950000Y-48500000D01*
X144250000Y-48750000D02*
X144000000Y-48500000D01*
%TO.N,/SD3*%
X133000000Y-49750000D02*
X133000000Y-24166263D01*
X133000000Y-24166263D02*
X132900000Y-24066263D01*
%TO.N,/~{SE1}*%
X123888000Y-49850000D02*
X123888000Y-23308000D01*
X123888000Y-23308000D02*
X122410000Y-21830000D01*
X125901748Y-51863748D02*
X123888000Y-49850000D01*
X125901748Y-52425000D02*
X125901748Y-51863748D01*
%TO.N,/~{WE1}*%
X129838000Y-53662000D02*
X129838000Y-35608000D01*
X129838000Y-35608000D02*
X128760000Y-34530000D01*
X129263235Y-54236765D02*
X129838000Y-53662000D01*
%TO.N,/RD0*%
X122844000Y-49114000D02*
X122364000Y-49114000D01*
X121250000Y-48000000D02*
X121250000Y-30928000D01*
X122364000Y-49114000D02*
X121250000Y-48000000D01*
%TO.N,/RD1*%
X122150000Y-49671237D02*
X122150000Y-49607843D01*
X120750000Y-34000000D02*
X120650000Y-34000000D01*
X122150000Y-49607843D02*
X120750000Y-48207843D01*
X120750000Y-48207843D02*
X120750000Y-34000000D01*
X122147614Y-49673623D02*
X122150000Y-49671237D01*
%TO.N,/RD2*%
X124209501Y-22022000D02*
X126853000Y-22022000D01*
X121000000Y-30250000D02*
X121000000Y-21738105D01*
X120000000Y-33500000D02*
X120500000Y-33000000D01*
X121550000Y-50205465D02*
X121550000Y-49727071D01*
X120500000Y-30750000D02*
X121000000Y-30250000D01*
X128760000Y-20115000D02*
X128760000Y-19290000D01*
X122955500Y-20768000D02*
X124209501Y-22022000D01*
X120350000Y-48527071D02*
X120350000Y-34850000D01*
X120350000Y-34850000D02*
X120000000Y-34500000D01*
X120500000Y-33000000D02*
X120500000Y-30750000D01*
X121970105Y-20768000D02*
X122955500Y-20768000D01*
X121000000Y-21738105D02*
X121970105Y-20768000D01*
X126853000Y-22022000D02*
X128760000Y-20115000D01*
X120000000Y-34500000D02*
X120000000Y-33500000D01*
X121550000Y-49727071D02*
X120350000Y-48527071D01*
%TO.N,/RD3*%
X120950000Y-50800000D02*
X120950000Y-49692757D01*
X120100000Y-30584314D02*
X120500000Y-30184314D01*
X126375000Y-19551000D02*
X126375000Y-20875000D01*
X124375186Y-21622000D02*
X124314093Y-21560907D01*
X123105186Y-20352000D02*
X124314093Y-21560907D01*
X120100000Y-32775000D02*
X120100000Y-30584314D01*
X126375000Y-20875000D02*
X125628000Y-21622000D01*
X131300000Y-19300000D02*
X130000000Y-18000000D01*
X119950000Y-48692756D02*
X119950000Y-35015686D01*
X120950000Y-49692757D02*
X119950000Y-48692756D01*
X119600000Y-33275000D02*
X120100000Y-32775000D01*
X120500000Y-30184314D02*
X120500000Y-21672420D01*
X119950000Y-35015686D02*
X119600000Y-34665685D01*
X130000000Y-18000000D02*
X127926000Y-18000000D01*
X125628000Y-21622000D02*
X124375186Y-21622000D01*
X120500000Y-21672420D02*
X121820420Y-20352000D01*
X124353186Y-21600000D02*
X124488105Y-21600000D01*
X127926000Y-18000000D02*
X126375000Y-19551000D01*
X121820420Y-20352000D02*
X123105186Y-20352000D01*
X119600000Y-34665685D02*
X119600000Y-33275000D01*
X124314093Y-21560907D02*
X124353186Y-21600000D01*
X131300000Y-20560000D02*
X131300000Y-19300000D01*
%TO.N,/RD4*%
X120342000Y-49657000D02*
X119550000Y-48865000D01*
X119550000Y-48865000D02*
X119550000Y-35300000D01*
X121289821Y-51579036D02*
X120880506Y-51579036D01*
X119125000Y-34875000D02*
X119125000Y-33184314D01*
X120880506Y-51579036D02*
X120342000Y-51040530D01*
X120342000Y-51040530D02*
X120342000Y-49657000D01*
X119700000Y-31575000D02*
X119500000Y-31375000D01*
X119125000Y-33184314D02*
X119700000Y-32609314D01*
X119700000Y-32609314D02*
X119700000Y-31575000D01*
X119550000Y-35300000D02*
X119125000Y-34875000D01*
%TO.N,/RD5*%
X118725000Y-32605392D02*
X119100000Y-32230392D01*
X119150000Y-35465686D02*
X118725000Y-35040686D01*
X119150000Y-49030686D02*
X119150000Y-35465686D01*
X119942000Y-51489059D02*
X119942000Y-49822686D01*
X119942000Y-49822686D02*
X119150000Y-49030686D01*
X120859678Y-52253558D02*
X120706499Y-52253558D01*
X120706499Y-52253558D02*
X119942000Y-51489059D01*
X118725000Y-35040686D02*
X118725000Y-32605392D01*
%TO.N,/RD6*%
X118750000Y-49196372D02*
X118750000Y-35631371D01*
X121410241Y-52853558D02*
X120498498Y-52853558D01*
X120000000Y-20738000D02*
X121448000Y-19290000D01*
X118325000Y-31109314D02*
X120000000Y-29434314D01*
X119542000Y-51897060D02*
X119542000Y-49988372D01*
X118325000Y-35206372D02*
X118325000Y-31109314D01*
X120498498Y-52853558D02*
X119542000Y-51897060D01*
X120000000Y-29434314D02*
X120000000Y-20738000D01*
X118750000Y-35631371D02*
X118325000Y-35206372D01*
X119542000Y-49988372D02*
X118750000Y-49196372D01*
X121448000Y-19290000D02*
X122410000Y-19290000D01*
%TO.N,/RD7*%
X118350000Y-35814000D02*
X117925000Y-35389000D01*
X117925000Y-35389000D02*
X117925000Y-30825000D01*
X121397000Y-18228000D02*
X121500000Y-18125000D01*
X121348000Y-18228000D02*
X121397000Y-18228000D01*
X119500000Y-29250000D02*
X119500000Y-20125000D01*
X119142000Y-52353764D02*
X119142000Y-50154058D01*
X120241794Y-53453558D02*
X119142000Y-52353764D01*
X117925000Y-30825000D02*
X119500000Y-29250000D01*
X118350000Y-49362057D02*
X118350000Y-35814000D01*
X121348000Y-18277000D02*
X121348000Y-18228000D01*
X124950000Y-19325000D02*
X124950000Y-20560000D01*
X123750000Y-18125000D02*
X124950000Y-19325000D01*
X119142000Y-50154058D02*
X118350000Y-49362057D01*
X119500000Y-20125000D02*
X121348000Y-18277000D01*
X120767375Y-53453558D02*
X120241794Y-53453558D01*
X121500000Y-18125000D02*
X123750000Y-18125000D01*
%TO.N,VCCA*%
X144500000Y-77500000D02*
X143625000Y-78375000D01*
X144500000Y-74750000D02*
X144500000Y-77500000D01*
X144125000Y-74375000D02*
X144500000Y-74750000D01*
X142375000Y-74375000D02*
X144125000Y-74375000D01*
X143625000Y-78375000D02*
X143625000Y-80875000D01*
X143625000Y-80875000D02*
X145875000Y-83125000D01*
X145875000Y-83125000D02*
X145875000Y-86986272D01*
X145875000Y-86986272D02*
X145868136Y-86993136D01*
%TD*%
%TA.AperFunction,Conductor*%
%TO.N,GNDA*%
G36*
X141761064Y-74005021D02*
G01*
X141774383Y-74008932D01*
X141833161Y-74046706D01*
X141862187Y-74110261D01*
X141862188Y-74110268D01*
X141863397Y-74118679D01*
X141860925Y-74160217D01*
X141862140Y-74160438D01*
X141862138Y-74160449D01*
X141860470Y-74167877D01*
X141860440Y-74168387D01*
X141859922Y-74170322D01*
X141859913Y-74170360D01*
X141824500Y-74302525D01*
X141824500Y-74447474D01*
X141847894Y-74534784D01*
X141862016Y-74587486D01*
X141862018Y-74587491D01*
X141932635Y-74709802D01*
X141934123Y-74712568D01*
X141934353Y-74712877D01*
X142036985Y-74815509D01*
X142037674Y-74816005D01*
X142040178Y-74817353D01*
X142159069Y-74885995D01*
X142162087Y-74887869D01*
X142162514Y-74887983D01*
X142162515Y-74887984D01*
X142302525Y-74925500D01*
X142302528Y-74925500D01*
X142447472Y-74925500D01*
X142447475Y-74925500D01*
X142578193Y-74890473D01*
X142585032Y-74889026D01*
X142588266Y-74888187D01*
X142588278Y-74888186D01*
X143010776Y-74733095D01*
X143053506Y-74725500D01*
X143910626Y-74725500D01*
X143945558Y-74730521D01*
X143970802Y-74737934D01*
X144023548Y-74769230D01*
X144100573Y-74846255D01*
X144121723Y-74874507D01*
X144134331Y-74897596D01*
X144149500Y-74957025D01*
X144149500Y-77285626D01*
X144144476Y-77320563D01*
X144137064Y-77345804D01*
X144105769Y-77398548D01*
X143856936Y-77647380D01*
X143821351Y-77672225D01*
X143412925Y-77861314D01*
X143411596Y-77862084D01*
X143404421Y-77866685D01*
X143286986Y-77934489D01*
X143286984Y-77934490D01*
X143286968Y-77934505D01*
X143184505Y-78036968D01*
X143184494Y-78036981D01*
X143184493Y-78036982D01*
X143184485Y-78036992D01*
X143112017Y-78162509D01*
X143111989Y-78162578D01*
X143111748Y-78163511D01*
X143074500Y-78302525D01*
X143074500Y-78447474D01*
X143109521Y-78578177D01*
X143110980Y-78585065D01*
X143111812Y-78588275D01*
X143111813Y-78588278D01*
X143266904Y-79010776D01*
X143266905Y-79010777D01*
X143274500Y-79053507D01*
X143274500Y-80921142D01*
X143295494Y-80999495D01*
X143295494Y-80999496D01*
X143298385Y-81010286D01*
X143344525Y-81090205D01*
X143344527Y-81090207D01*
X143344531Y-81090213D01*
X143344535Y-81090218D01*
X145475573Y-83221255D01*
X145496723Y-83249507D01*
X145509331Y-83272596D01*
X145524500Y-83332025D01*
X145524500Y-86312689D01*
X145516363Y-86356868D01*
X145492222Y-86420179D01*
X145449944Y-86475806D01*
X145384303Y-86499745D01*
X145376359Y-86500000D01*
X131391830Y-86500000D01*
X131356889Y-86494975D01*
X131341890Y-86490570D01*
X131283144Y-86452827D01*
X131281957Y-86451458D01*
X131254477Y-86396583D01*
X131252832Y-86389021D01*
X131250000Y-86362668D01*
X131250000Y-74141829D01*
X131255023Y-74106893D01*
X131259427Y-74091895D01*
X131297172Y-74033144D01*
X131298541Y-74031957D01*
X131353420Y-74004477D01*
X131360979Y-74002833D01*
X131387332Y-74000000D01*
X141726132Y-74000000D01*
X141761064Y-74005021D01*
G37*
%TD.AperFunction*%
%TA.AperFunction,Conductor*%
G36*
X145392606Y-74005023D02*
G01*
X145407604Y-74009427D01*
X145466355Y-74047172D01*
X145467542Y-74048541D01*
X145495018Y-74103402D01*
X145496663Y-74110960D01*
X145499500Y-74137331D01*
X145499500Y-81565890D01*
X145533608Y-81693188D01*
X145566554Y-81750250D01*
X145599500Y-81807314D01*
X145692686Y-81900500D01*
X145806814Y-81966392D01*
X145934108Y-82000500D01*
X151482670Y-82000500D01*
X151517606Y-82005523D01*
X151532604Y-82009927D01*
X151591355Y-82047672D01*
X151592542Y-82049041D01*
X151620018Y-82103902D01*
X151621663Y-82111460D01*
X151624500Y-82137831D01*
X151624500Y-86358170D01*
X151619475Y-86393114D01*
X151615070Y-86408112D01*
X151577327Y-86466855D01*
X151575958Y-86468042D01*
X151521097Y-86495518D01*
X151513539Y-86497163D01*
X151487168Y-86500000D01*
X146370480Y-86500000D01*
X146303441Y-86480315D01*
X146257686Y-86427511D01*
X146253546Y-86417260D01*
X146232566Y-86357801D01*
X146225500Y-86316541D01*
X146225500Y-83078858D01*
X146225500Y-83078856D01*
X146201614Y-82989712D01*
X146155470Y-82909788D01*
X144024426Y-80778744D01*
X144003274Y-80750488D01*
X143990667Y-80727399D01*
X143975500Y-80667974D01*
X143975500Y-79053506D01*
X143983095Y-79010776D01*
X144136665Y-78592420D01*
X144140529Y-78583088D01*
X144327773Y-78178646D01*
X144352614Y-78143066D01*
X144458700Y-78036982D01*
X144780470Y-77715212D01*
X144826614Y-77635288D01*
X144850500Y-77546144D01*
X144850500Y-74703856D01*
X144826614Y-74614712D01*
X144812469Y-74590212D01*
X144780470Y-74534788D01*
X144469970Y-74224288D01*
X144448821Y-74196038D01*
X144443399Y-74186108D01*
X144428546Y-74117838D01*
X144452960Y-74052373D01*
X144508890Y-74010501D01*
X144513098Y-74008932D01*
X144516105Y-74007811D01*
X144559419Y-74000000D01*
X145357670Y-74000000D01*
X145392606Y-74005023D01*
G37*
%TD.AperFunction*%
%TD*%
%TA.AperFunction,Conductor*%
%TO.N,GND*%
G36*
X117927018Y-35911176D02*
G01*
X117979819Y-35956934D01*
X117999500Y-36023968D01*
X117999500Y-49408201D01*
X118002874Y-49420795D01*
X118002876Y-49420801D01*
X118017890Y-49476836D01*
X118020655Y-49487152D01*
X118020670Y-49487207D01*
X118021122Y-49488894D01*
X118021133Y-49488981D01*
X118021145Y-49488979D01*
X118023386Y-49497347D01*
X118059101Y-49559206D01*
X118069528Y-49577267D01*
X118069532Y-49577271D01*
X118069538Y-49577278D01*
X118742573Y-50250312D01*
X118763723Y-50278564D01*
X118767263Y-50285047D01*
X118774428Y-50298169D01*
X118776331Y-50301653D01*
X118791500Y-50361082D01*
X118791500Y-52399908D01*
X118813418Y-52481710D01*
X118813453Y-52481837D01*
X118815384Y-52489049D01*
X118815387Y-52489057D01*
X118861527Y-52568972D01*
X118861528Y-52568974D01*
X119912843Y-53620289D01*
X119921012Y-53629302D01*
X119949516Y-53664032D01*
X119949521Y-53664037D01*
X119965006Y-53679524D01*
X119987927Y-53702445D01*
X119987948Y-53702465D01*
X119987956Y-53702473D01*
X120006581Y-53719350D01*
X120008356Y-53720806D01*
X120028489Y-53735730D01*
X120028507Y-53735742D01*
X120030358Y-53736979D01*
X120030367Y-53736984D01*
X120030371Y-53736987D01*
X120051859Y-53749862D01*
X120053880Y-53750942D01*
X120060348Y-53754000D01*
X120069331Y-53758708D01*
X120088842Y-53769973D01*
X120088855Y-53769982D01*
X120103119Y-53778216D01*
X120103131Y-53778229D01*
X120103134Y-53778225D01*
X120103136Y-53778226D01*
X120106506Y-53780172D01*
X120138889Y-53788849D01*
X120155891Y-53794757D01*
X120538483Y-53959767D01*
X120538497Y-53959771D01*
X120538503Y-53959774D01*
X120541372Y-53960847D01*
X120541215Y-53961265D01*
X120550500Y-53965365D01*
X120554888Y-53966540D01*
X120554890Y-53966542D01*
X120583037Y-53974084D01*
X120585025Y-53974666D01*
X120589439Y-53975832D01*
X120590610Y-53976113D01*
X120694900Y-54004058D01*
X120694903Y-54004058D01*
X120839847Y-54004058D01*
X120839850Y-54004058D01*
X120979860Y-53966542D01*
X121105390Y-53894067D01*
X121207884Y-53791573D01*
X121280359Y-53666043D01*
X121311319Y-53550496D01*
X121312099Y-53547722D01*
X121320763Y-53518212D01*
X121320765Y-53518213D01*
X121327302Y-53495950D01*
X121365071Y-53437179D01*
X121366446Y-53435988D01*
X121421295Y-53408535D01*
X121428854Y-53406891D01*
X121455207Y-53404058D01*
X121482713Y-53404058D01*
X121482716Y-53404058D01*
X121622726Y-53366542D01*
X121748256Y-53294067D01*
X121850750Y-53191573D01*
X121923225Y-53066043D01*
X121960741Y-52926033D01*
X121960741Y-52781083D01*
X121923225Y-52641073D01*
X121923223Y-52641070D01*
X121923223Y-52641068D01*
X121921168Y-52637510D01*
X121921162Y-52637500D01*
X121850754Y-52515549D01*
X121850749Y-52515542D01*
X121850734Y-52515526D01*
X121748271Y-52413063D01*
X121748255Y-52413048D01*
X121748252Y-52413046D01*
X121725496Y-52399908D01*
X121694481Y-52382001D01*
X121666049Y-52352182D01*
X121609451Y-52337017D01*
X121609451Y-52337016D01*
X121609447Y-52337016D01*
X121552814Y-52321840D01*
X121520374Y-52307948D01*
X121510717Y-52302062D01*
X121463717Y-52250363D01*
X121452130Y-52181461D01*
X121479631Y-52117235D01*
X121484524Y-52111310D01*
X121518134Y-52082880D01*
X121627836Y-52019545D01*
X121730330Y-51917051D01*
X121802805Y-51791521D01*
X121840321Y-51651511D01*
X121840321Y-51506561D01*
X121802805Y-51366551D01*
X121786327Y-51338011D01*
X121730332Y-51241024D01*
X121730327Y-51241018D01*
X121627838Y-51138529D01*
X121627836Y-51138527D01*
X121553660Y-51095701D01*
X121525920Y-51073885D01*
X121515127Y-51062566D01*
X121483119Y-51000479D01*
X121483041Y-51000077D01*
X121481440Y-50991767D01*
X121483422Y-50936203D01*
X121489737Y-50912638D01*
X121492053Y-50908839D01*
X121492023Y-50908831D01*
X121504935Y-50864859D01*
X121509926Y-50847859D01*
X121547660Y-50789119D01*
X121548011Y-50788814D01*
X121549033Y-50787928D01*
X121603910Y-50760443D01*
X121614560Y-50758127D01*
X121614559Y-50758125D01*
X121642509Y-50752045D01*
X121643350Y-50751376D01*
X121658046Y-50746433D01*
X121762485Y-50718449D01*
X121888015Y-50645974D01*
X121990509Y-50543480D01*
X122062984Y-50417950D01*
X122085680Y-50333245D01*
X122099571Y-50300806D01*
X122099758Y-50300500D01*
X122107706Y-50287459D01*
X122159399Y-50240464D01*
X122167394Y-50236581D01*
X122212173Y-50226282D01*
X122212029Y-50225184D01*
X122220085Y-50224123D01*
X122220086Y-50224123D01*
X122220089Y-50224123D01*
X122360099Y-50186607D01*
X122485629Y-50114132D01*
X122588123Y-50011638D01*
X122660598Y-49886108D01*
X122690738Y-49773622D01*
X122704629Y-49741183D01*
X122706245Y-49738532D01*
X122712764Y-49727836D01*
X122764457Y-49680841D01*
X122772452Y-49676958D01*
X122826622Y-49664500D01*
X122916472Y-49664500D01*
X122916475Y-49664500D01*
X122964190Y-49651714D01*
X122999226Y-49647525D01*
X123013104Y-49647855D01*
X123079654Y-49669128D01*
X123124140Y-49723005D01*
X123124141Y-49723007D01*
X123127488Y-49730823D01*
X123137500Y-49779636D01*
X123137500Y-50344679D01*
X123142186Y-50362167D01*
X123142204Y-50362230D01*
X123159827Y-50428002D01*
X123159840Y-50428047D01*
X123161386Y-50433819D01*
X123198986Y-50498945D01*
X123207528Y-50513739D01*
X123207529Y-50513741D01*
X123207532Y-50513744D01*
X123207538Y-50513751D01*
X124429616Y-51735828D01*
X124454461Y-51771413D01*
X124642631Y-52177856D01*
X124642634Y-52177862D01*
X124642635Y-52177863D01*
X124666066Y-52218300D01*
X124666070Y-52218306D01*
X124666152Y-52218447D01*
X124669041Y-52223189D01*
X124702339Y-52280863D01*
X124714870Y-52302566D01*
X124716359Y-52305334D01*
X124716588Y-52305642D01*
X124819220Y-52408274D01*
X124819909Y-52408770D01*
X124822413Y-52410118D01*
X124941304Y-52478760D01*
X124944322Y-52480634D01*
X124944749Y-52480748D01*
X124944750Y-52480749D01*
X125084760Y-52518265D01*
X125084762Y-52518265D01*
X125213563Y-52518265D01*
X125214967Y-52518677D01*
X125216494Y-52518300D01*
X125237977Y-52518807D01*
X125237978Y-52518808D01*
X125261960Y-52519375D01*
X125328512Y-52540637D01*
X125330035Y-52541667D01*
X125370733Y-52587517D01*
X125374283Y-52594403D01*
X125383847Y-52619136D01*
X125388605Y-52636894D01*
X125388764Y-52637485D01*
X125388765Y-52637488D01*
X125388766Y-52637490D01*
X125459383Y-52759802D01*
X125460871Y-52762568D01*
X125461101Y-52762877D01*
X125563733Y-52865509D01*
X125564422Y-52866005D01*
X125566926Y-52867353D01*
X125685817Y-52935995D01*
X125688835Y-52937869D01*
X125689262Y-52937983D01*
X125689263Y-52937984D01*
X125829273Y-52975500D01*
X125829275Y-52975500D01*
X125971280Y-52975500D01*
X125990379Y-52976980D01*
X126000241Y-52978517D01*
X126010889Y-52980177D01*
X126074092Y-53009949D01*
X126078656Y-53013999D01*
X126110046Y-53057251D01*
X126119515Y-53079002D01*
X126123779Y-53082382D01*
X126129884Y-53091921D01*
X126183513Y-53184808D01*
X126184998Y-53187569D01*
X126185227Y-53187877D01*
X126287859Y-53290509D01*
X126288548Y-53291005D01*
X126291052Y-53292353D01*
X126409943Y-53360995D01*
X126412961Y-53362869D01*
X126413388Y-53362983D01*
X126413389Y-53362984D01*
X126553399Y-53400500D01*
X126553402Y-53400500D01*
X126698346Y-53400500D01*
X126698349Y-53400500D01*
X126838359Y-53362984D01*
X126963889Y-53290509D01*
X127066383Y-53188015D01*
X127138858Y-53062485D01*
X127176374Y-52922475D01*
X127176374Y-52777525D01*
X127144185Y-52657399D01*
X127144030Y-52656812D01*
X127138257Y-52634536D01*
X127005443Y-52272722D01*
X126983969Y-52214222D01*
X126976374Y-52171492D01*
X126976374Y-52014246D01*
X126981395Y-51979319D01*
X126984581Y-51968466D01*
X127022351Y-51909685D01*
X127085905Y-51880656D01*
X127155060Y-51890594D01*
X127162046Y-51893784D01*
X127198216Y-51918897D01*
X127897378Y-52618059D01*
X127922222Y-52653644D01*
X128111310Y-53062065D01*
X128112094Y-53063417D01*
X128116697Y-53070594D01*
X128182635Y-53184802D01*
X128184123Y-53187568D01*
X128184353Y-53187877D01*
X128286985Y-53290509D01*
X128287674Y-53291005D01*
X128290178Y-53292353D01*
X128409069Y-53360995D01*
X128412087Y-53362869D01*
X128412514Y-53362983D01*
X128412515Y-53362984D01*
X128552525Y-53400500D01*
X128552528Y-53400500D01*
X128697472Y-53400500D01*
X128697475Y-53400500D01*
X128837485Y-53362984D01*
X128963015Y-53290509D01*
X129065509Y-53188015D01*
X129137984Y-53062485D01*
X129175500Y-52922475D01*
X129175500Y-52777525D01*
X129137984Y-52637515D01*
X129137981Y-52637510D01*
X129137975Y-52637494D01*
X129137704Y-52637031D01*
X129065511Y-52511988D01*
X129065506Y-52511982D01*
X129065493Y-52511968D01*
X128963030Y-52409505D01*
X128963014Y-52409490D01*
X128963008Y-52409485D01*
X128845817Y-52341825D01*
X128839936Y-52337999D01*
X128837074Y-52336315D01*
X128428647Y-52147226D01*
X128393062Y-52122381D01*
X127417202Y-51146520D01*
X127410987Y-51135138D01*
X127396052Y-51118268D01*
X127389398Y-51106082D01*
X127385608Y-51088661D01*
X127383717Y-51085197D01*
X127383998Y-51081259D01*
X127374547Y-51037812D01*
X127398961Y-50972351D01*
X127399969Y-50971004D01*
X127445011Y-50933827D01*
X127445828Y-50933429D01*
X127449522Y-50931635D01*
X127471613Y-50923394D01*
X127513219Y-50912247D01*
X127638749Y-50839772D01*
X127640471Y-50838049D01*
X127649727Y-50832737D01*
X127650235Y-50832615D01*
X127652000Y-50831464D01*
X127670472Y-50821376D01*
X127738736Y-50806523D01*
X127747585Y-50807155D01*
X127800741Y-50823451D01*
X127909063Y-50885991D01*
X127912087Y-50887869D01*
X127912514Y-50887983D01*
X127912515Y-50887984D01*
X128052525Y-50925500D01*
X128052528Y-50925500D01*
X128197472Y-50925500D01*
X128197475Y-50925500D01*
X128337485Y-50887984D01*
X128463015Y-50815509D01*
X128474715Y-50803808D01*
X128502964Y-50782661D01*
X128516688Y-50775167D01*
X128584950Y-50760316D01*
X128586761Y-50760446D01*
X128644959Y-50779816D01*
X128679258Y-50801859D01*
X128679838Y-50801926D01*
X128693656Y-50808795D01*
X128727071Y-50828087D01*
X128784069Y-50860995D01*
X128787087Y-50862869D01*
X128787514Y-50862983D01*
X128787515Y-50862984D01*
X128927525Y-50900500D01*
X128927528Y-50900500D01*
X129072472Y-50900500D01*
X129072475Y-50900500D01*
X129212485Y-50862984D01*
X129286065Y-50820501D01*
X129318819Y-50807388D01*
X129332312Y-50804115D01*
X129402100Y-50807438D01*
X129458988Y-50847931D01*
X129459995Y-50849212D01*
X129484309Y-50902425D01*
X129485258Y-50907348D01*
X129487500Y-50930819D01*
X129487500Y-53441830D01*
X129467815Y-53508869D01*
X129415596Y-53554355D01*
X129053136Y-53722164D01*
X129053127Y-53722168D01*
X129012681Y-53745603D01*
X129007784Y-53748585D01*
X128925221Y-53796254D01*
X128925219Y-53796255D01*
X128925203Y-53796270D01*
X128822740Y-53898733D01*
X128822725Y-53898749D01*
X128822720Y-53898757D01*
X128750252Y-54024274D01*
X128750224Y-54024343D01*
X128749983Y-54025276D01*
X128712735Y-54164290D01*
X128712735Y-54309242D01*
X128715356Y-54319021D01*
X128715357Y-54319031D01*
X128715359Y-54319031D01*
X128749575Y-54446728D01*
X128750253Y-54449256D01*
X128820870Y-54571567D01*
X128822358Y-54574333D01*
X128822588Y-54574642D01*
X128925220Y-54677274D01*
X128925909Y-54677770D01*
X128928413Y-54679118D01*
X129047304Y-54747760D01*
X129050322Y-54749634D01*
X129050749Y-54749748D01*
X129050750Y-54749749D01*
X129190760Y-54787265D01*
X129190763Y-54787265D01*
X129335707Y-54787265D01*
X129335710Y-54787265D01*
X129475720Y-54749749D01*
X129601250Y-54677274D01*
X129703744Y-54574780D01*
X129765761Y-54467361D01*
X129766218Y-54466579D01*
X129776409Y-54449253D01*
X129777901Y-54446717D01*
X129953539Y-54067340D01*
X129999567Y-54014775D01*
X130066708Y-53995439D01*
X130133099Y-54015118D01*
X130135779Y-54016840D01*
X130156421Y-54033475D01*
X130237720Y-54114774D01*
X130238409Y-54115270D01*
X130240913Y-54116618D01*
X130359804Y-54185260D01*
X130362822Y-54187134D01*
X130363249Y-54187248D01*
X130363250Y-54187249D01*
X130503260Y-54224765D01*
X130503263Y-54224765D01*
X130648207Y-54224765D01*
X130648210Y-54224765D01*
X130726192Y-54203869D01*
X130761227Y-54199680D01*
X130775102Y-54200010D01*
X130841654Y-54221284D01*
X130886135Y-54275150D01*
X130889483Y-54282966D01*
X130899500Y-54331791D01*
X130899500Y-56772881D01*
X130894476Y-56807818D01*
X130887064Y-56833059D01*
X130855769Y-56885803D01*
X129169534Y-58572037D01*
X129169528Y-58572044D01*
X129169526Y-58572046D01*
X129123389Y-58651958D01*
X129123387Y-58651963D01*
X129123382Y-58651980D01*
X129099500Y-58741111D01*
X129099500Y-68463801D01*
X129094476Y-68498738D01*
X129087064Y-68523979D01*
X129055769Y-68576723D01*
X128855082Y-68777409D01*
X128819497Y-68802253D01*
X128413047Y-68990429D01*
X128413037Y-68990433D01*
X128372591Y-69013868D01*
X128367694Y-69016850D01*
X128285131Y-69064519D01*
X128285129Y-69064520D01*
X128285113Y-69064535D01*
X128182650Y-69166998D01*
X128182635Y-69167014D01*
X128182630Y-69167022D01*
X128110162Y-69292539D01*
X128110134Y-69292608D01*
X128109893Y-69293541D01*
X128072645Y-69432555D01*
X128072645Y-69577504D01*
X128110158Y-69717507D01*
X128110162Y-69717518D01*
X128110163Y-69717519D01*
X128180780Y-69839832D01*
X128182268Y-69842598D01*
X128182498Y-69842907D01*
X128182636Y-69843045D01*
X128285130Y-69945539D01*
X128285131Y-69945540D01*
X128285133Y-69945541D01*
X128367670Y-69993194D01*
X128395413Y-70015011D01*
X128406200Y-70026324D01*
X128438214Y-70088414D01*
X128440046Y-70097914D01*
X128441223Y-70137618D01*
X128440519Y-70142952D01*
X128440519Y-70287907D01*
X128478032Y-70427910D01*
X128478036Y-70427921D01*
X128478037Y-70427922D01*
X128550504Y-70553439D01*
X128550509Y-70553447D01*
X128550510Y-70553448D01*
X128550512Y-70553450D01*
X128636071Y-70639009D01*
X128657221Y-70667263D01*
X128666238Y-70683777D01*
X128681370Y-70746154D01*
X128681122Y-70756568D01*
X128676932Y-70785709D01*
X128641685Y-70917255D01*
X128641685Y-71062204D01*
X128679198Y-71202207D01*
X128679202Y-71202218D01*
X128679203Y-71202219D01*
X128749820Y-71324532D01*
X128751308Y-71327298D01*
X128751538Y-71327607D01*
X128854170Y-71430239D01*
X128854859Y-71430735D01*
X128857363Y-71432083D01*
X128976254Y-71500725D01*
X128979272Y-71502599D01*
X128979699Y-71502713D01*
X128979700Y-71502714D01*
X129119710Y-71540230D01*
X129119713Y-71540230D01*
X129264657Y-71540230D01*
X129264658Y-71540230D01*
X129264660Y-71540230D01*
X129404670Y-71502714D01*
X129404672Y-71502712D01*
X129412177Y-71499604D01*
X129412362Y-71500052D01*
X129435070Y-71490958D01*
X129446072Y-71488289D01*
X129515858Y-71491612D01*
X129572773Y-71532138D01*
X129598732Y-71596893D01*
X129598791Y-71597508D01*
X129591543Y-71652745D01*
X129590757Y-71654852D01*
X129581967Y-71673508D01*
X129570094Y-71694073D01*
X129570084Y-71694091D01*
X129570035Y-71694190D01*
X129569611Y-71695874D01*
X129532577Y-71834087D01*
X129532577Y-71979036D01*
X129532821Y-71979944D01*
X129532828Y-71979999D01*
X129532835Y-71979998D01*
X129570095Y-72119053D01*
X129640712Y-72241364D01*
X129642200Y-72244130D01*
X129642430Y-72244439D01*
X129745062Y-72347071D01*
X129745751Y-72347567D01*
X129748255Y-72348915D01*
X129867146Y-72417557D01*
X129870164Y-72419431D01*
X129870591Y-72419545D01*
X129870592Y-72419546D01*
X130010602Y-72457062D01*
X130010605Y-72457062D01*
X130155549Y-72457062D01*
X130155552Y-72457062D01*
X130279801Y-72423769D01*
X130285061Y-72423894D01*
X130288051Y-72422656D01*
X130295767Y-72420036D01*
X130303071Y-72416435D01*
X130303169Y-72416394D01*
X130309702Y-72411380D01*
X130326319Y-72401787D01*
X130359067Y-72388678D01*
X130363240Y-72387665D01*
X130374262Y-72384991D01*
X130444048Y-72388309D01*
X130452439Y-72391214D01*
X130499560Y-72420711D01*
X130500608Y-72421759D01*
X130521760Y-72450015D01*
X130529252Y-72463736D01*
X130544105Y-72531986D01*
X130543976Y-72533794D01*
X130524602Y-72592013D01*
X130520423Y-72598515D01*
X130503797Y-72619148D01*
X130485230Y-72637715D01*
X130485231Y-72637716D01*
X130485224Y-72637722D01*
X130485219Y-72637728D01*
X130412751Y-72763246D01*
X130412723Y-72763315D01*
X130412482Y-72764248D01*
X130375234Y-72903262D01*
X130375234Y-73048211D01*
X130412747Y-73188214D01*
X130412750Y-73188222D01*
X130412751Y-73188225D01*
X130436763Y-73229814D01*
X130483369Y-73310539D01*
X130484857Y-73313305D01*
X130485087Y-73313614D01*
X130587719Y-73416246D01*
X130588408Y-73416742D01*
X130590912Y-73418090D01*
X130709803Y-73486732D01*
X130712821Y-73488606D01*
X130713248Y-73488720D01*
X130713249Y-73488721D01*
X130853259Y-73526237D01*
X130853262Y-73526237D01*
X130998206Y-73526237D01*
X130998209Y-73526237D01*
X131122462Y-73492943D01*
X131130614Y-73491869D01*
X131130708Y-73491831D01*
X131138424Y-73489211D01*
X131145728Y-73485610D01*
X131145828Y-73485568D01*
X131152359Y-73480557D01*
X131244507Y-73427355D01*
X131277268Y-73414239D01*
X131278834Y-73413858D01*
X131292456Y-73410554D01*
X131362241Y-73413874D01*
X131370630Y-73416778D01*
X131402427Y-73436682D01*
X131403880Y-73434667D01*
X131411982Y-73440506D01*
X131411985Y-73440509D01*
X131411986Y-73440510D01*
X131411988Y-73440511D01*
X131411990Y-73440512D01*
X131412674Y-73441005D01*
X131415178Y-73442353D01*
X131534069Y-73510995D01*
X131540845Y-73515204D01*
X131544028Y-73517326D01*
X131588889Y-73570891D01*
X131597669Y-73640207D01*
X131567580Y-73703266D01*
X131508176Y-73740047D01*
X131475245Y-73744500D01*
X131387331Y-73744500D01*
X131360028Y-73745963D01*
X131349484Y-73747097D01*
X131333670Y-73748797D01*
X131306680Y-73753170D01*
X131299121Y-73754814D01*
X131299116Y-73754815D01*
X131299106Y-73754818D01*
X131239029Y-73776015D01*
X131239012Y-73776022D01*
X131184152Y-73803493D01*
X131184138Y-73803501D01*
X131131168Y-73838912D01*
X131131160Y-73838918D01*
X131129792Y-73840105D01*
X131082211Y-73895041D01*
X131082208Y-73895045D01*
X131044472Y-73953783D01*
X131044461Y-73953802D01*
X131014277Y-74019908D01*
X131009873Y-74034903D01*
X131009873Y-74034907D01*
X131002123Y-74070533D01*
X130997101Y-74105466D01*
X130994500Y-74141829D01*
X130994500Y-86362674D01*
X130995960Y-86389938D01*
X130995962Y-86389966D01*
X130998794Y-86416324D01*
X130998795Y-86416329D01*
X131003165Y-86443296D01*
X131003173Y-86443342D01*
X131004814Y-86450886D01*
X131026023Y-86510990D01*
X131053499Y-86565857D01*
X131053504Y-86565866D01*
X131088912Y-86618831D01*
X131088914Y-86618834D01*
X131088916Y-86618836D01*
X131090103Y-86620205D01*
X131145038Y-86667785D01*
X131203784Y-86705528D01*
X131269892Y-86735715D01*
X131269893Y-86735715D01*
X131269894Y-86735716D01*
X131284893Y-86740121D01*
X131284900Y-86740122D01*
X131284902Y-86740123D01*
X131320504Y-86747870D01*
X131320519Y-86747873D01*
X131355460Y-86752898D01*
X131391830Y-86755500D01*
X145200291Y-86755500D01*
X145267330Y-86775185D01*
X145313085Y-86827989D01*
X145323029Y-86897147D01*
X145320066Y-86911592D01*
X145317636Y-86920659D01*
X145317636Y-87065610D01*
X145355149Y-87205613D01*
X145355153Y-87205624D01*
X145355154Y-87205625D01*
X145425771Y-87327938D01*
X145427259Y-87330704D01*
X145427489Y-87331013D01*
X145530121Y-87433645D01*
X145530810Y-87434141D01*
X145533314Y-87435489D01*
X145652205Y-87504131D01*
X145655223Y-87506005D01*
X145655650Y-87506119D01*
X145655651Y-87506120D01*
X145795661Y-87543636D01*
X145795664Y-87543636D01*
X145940608Y-87543636D01*
X145940611Y-87543636D01*
X146080621Y-87506120D01*
X146206151Y-87433645D01*
X146308645Y-87331151D01*
X146381120Y-87205621D01*
X146418636Y-87065611D01*
X146418636Y-86920661D01*
X146416206Y-86911592D01*
X146417869Y-86841744D01*
X146457031Y-86783882D01*
X146521259Y-86756377D01*
X146535981Y-86755500D01*
X151487150Y-86755500D01*
X151487168Y-86755500D01*
X151493856Y-86755141D01*
X151561854Y-86771205D01*
X151610372Y-86821482D01*
X151624500Y-86878963D01*
X151624500Y-88107670D01*
X151619475Y-88142614D01*
X151615070Y-88157612D01*
X151577327Y-88216355D01*
X151575958Y-88217542D01*
X151521097Y-88245018D01*
X151513539Y-88246663D01*
X151487168Y-88249500D01*
X129901506Y-88249500D01*
X129866570Y-88244477D01*
X129841328Y-88237065D01*
X129788583Y-88205769D01*
X127674426Y-86091612D01*
X127653274Y-86063356D01*
X127640667Y-86040267D01*
X127625500Y-85980842D01*
X127625500Y-61934110D01*
X127625500Y-61934108D01*
X127591392Y-61806814D01*
X127525500Y-61692686D01*
X127432314Y-61599500D01*
X117799426Y-51966612D01*
X117778274Y-51938356D01*
X117765667Y-51915267D01*
X117750500Y-51855842D01*
X117750500Y-36027373D01*
X117755525Y-35992432D01*
X117756525Y-35989027D01*
X117794302Y-35930251D01*
X117857860Y-35901229D01*
X117927018Y-35911176D01*
G37*
%TD.AperFunction*%
%TA.AperFunction,Conductor*%
G36*
X146017606Y-12880523D02*
G01*
X146032604Y-12884927D01*
X146091355Y-12922672D01*
X146092542Y-12924041D01*
X146120018Y-12978902D01*
X146121663Y-12986460D01*
X146124500Y-13012831D01*
X146124500Y-50098494D01*
X146119476Y-50133431D01*
X146112064Y-50158672D01*
X146080769Y-50211416D01*
X145599504Y-50692679D01*
X145599503Y-50692681D01*
X145599493Y-50692696D01*
X145533610Y-50806806D01*
X145533609Y-50806808D01*
X145499500Y-50934108D01*
X145499500Y-73621458D01*
X145479815Y-73688497D01*
X145427011Y-73734252D01*
X145366658Y-73745142D01*
X145357682Y-73744500D01*
X145357670Y-73744500D01*
X144559419Y-73744500D01*
X144514075Y-73748556D01*
X144512739Y-73748797D01*
X144470766Y-73756365D01*
X144426851Y-73768407D01*
X144426838Y-73768411D01*
X144424643Y-73769230D01*
X144419639Y-73771095D01*
X144419625Y-73771102D01*
X144355765Y-73805970D01*
X144299833Y-73847843D01*
X144299828Y-73847847D01*
X144265951Y-73878281D01*
X144211980Y-73965662D01*
X144160003Y-74012355D01*
X144106482Y-74024500D01*
X143053509Y-74024500D01*
X143010779Y-74016905D01*
X142588284Y-73861814D01*
X142586792Y-73861417D01*
X142578438Y-73859591D01*
X142576006Y-73858940D01*
X142576001Y-73858938D01*
X142484577Y-73834441D01*
X142447475Y-73824500D01*
X142447474Y-73824500D01*
X142302525Y-73824500D01*
X142173994Y-73858939D01*
X142173993Y-73858940D01*
X142162511Y-73862017D01*
X142162509Y-73862017D01*
X142162509Y-73862018D01*
X142143378Y-73873063D01*
X142075477Y-73889534D01*
X142009451Y-73866681D01*
X141995278Y-73854907D01*
X141971297Y-73831767D01*
X141971295Y-73831765D01*
X141912520Y-73793993D01*
X141873161Y-73776018D01*
X141846369Y-73763782D01*
X141846371Y-73763782D01*
X141833050Y-73759871D01*
X141797402Y-73752117D01*
X141762493Y-73747100D01*
X141762465Y-73747097D01*
X141726137Y-73744500D01*
X141726132Y-73744500D01*
X132024263Y-73744500D01*
X131957224Y-73724815D01*
X131911469Y-73672011D01*
X131901525Y-73602853D01*
X131930550Y-73539297D01*
X131962262Y-73513113D01*
X131999057Y-73491869D01*
X132088015Y-73440509D01*
X132190509Y-73338015D01*
X132252526Y-73230596D01*
X132252983Y-73229814D01*
X132259395Y-73218912D01*
X132264666Y-73209952D01*
X132452768Y-72803653D01*
X132477614Y-72768068D01*
X132530468Y-72715214D01*
X132530468Y-72715213D01*
X132530470Y-72715212D01*
X132576614Y-72635288D01*
X132600500Y-72546144D01*
X132600500Y-72453856D01*
X132600500Y-60161427D01*
X132605522Y-60126494D01*
X132612934Y-60101249D01*
X132644228Y-60048507D01*
X141511820Y-51180914D01*
X141540075Y-51159764D01*
X141553795Y-51152273D01*
X141622051Y-51137422D01*
X141623861Y-51137551D01*
X141682058Y-51156917D01*
X141688566Y-51161099D01*
X141709213Y-51177737D01*
X141722121Y-51190645D01*
X141722433Y-51190877D01*
X141725202Y-51192367D01*
X141844062Y-51260991D01*
X141847086Y-51262869D01*
X141847514Y-51262983D01*
X141847515Y-51262984D01*
X141987525Y-51300500D01*
X141987528Y-51300500D01*
X142132472Y-51300500D01*
X142132475Y-51300500D01*
X142272485Y-51262984D01*
X142398015Y-51190509D01*
X142500509Y-51088015D01*
X142562526Y-50980596D01*
X142562983Y-50979814D01*
X142573862Y-50961318D01*
X142574666Y-50959952D01*
X142762771Y-50553647D01*
X142787611Y-50518069D01*
X142807506Y-50498175D01*
X142835747Y-50477033D01*
X142847935Y-50470379D01*
X142916204Y-50455527D01*
X142981664Y-50479939D01*
X142988471Y-50485034D01*
X143021553Y-50522305D01*
X143059491Y-50588015D01*
X143059493Y-50588017D01*
X143161985Y-50690509D01*
X143162684Y-50691013D01*
X143165200Y-50692367D01*
X143284065Y-50760993D01*
X143285110Y-50762089D01*
X143292814Y-50766044D01*
X143301646Y-50771143D01*
X143301536Y-50771332D01*
X143305303Y-50772944D01*
X143317163Y-50780173D01*
X143364165Y-50831867D01*
X143375763Y-50900734D01*
X143375571Y-50902345D01*
X143355138Y-50957164D01*
X143352327Y-50961318D01*
X143337312Y-50979505D01*
X143226520Y-51090296D01*
X143226516Y-51090301D01*
X143219529Y-51097289D01*
X143198282Y-51134091D01*
X143198276Y-51134101D01*
X143173334Y-51177300D01*
X143172902Y-51179015D01*
X143169325Y-51192367D01*
X143156288Y-51241024D01*
X143156288Y-51241025D01*
X143149500Y-51266355D01*
X143149500Y-65436315D01*
X143148956Y-65447918D01*
X143144567Y-65494610D01*
X143144567Y-65494624D01*
X143147028Y-66031339D01*
X143147080Y-66031596D01*
X143149500Y-66055975D01*
X143149500Y-66072474D01*
X143187013Y-66212477D01*
X143187016Y-66212485D01*
X143187017Y-66212488D01*
X143259488Y-66338011D01*
X143259489Y-66338012D01*
X143259491Y-66338015D01*
X143271187Y-66349711D01*
X143277146Y-66360624D01*
X143292341Y-66377970D01*
X143299831Y-66391688D01*
X143303622Y-66409108D01*
X143304672Y-66411031D01*
X143304515Y-66413214D01*
X143314683Y-66459931D01*
X143314554Y-66461740D01*
X143295185Y-66519958D01*
X143291004Y-66526464D01*
X143274370Y-66547105D01*
X143259491Y-66561984D01*
X143259485Y-66561991D01*
X143236372Y-66602024D01*
X143236358Y-66602048D01*
X143187017Y-66687511D01*
X143187016Y-66687515D01*
X143183090Y-66702166D01*
X143183086Y-66702174D01*
X143149500Y-66827525D01*
X143149500Y-66972474D01*
X143187013Y-67112477D01*
X143187016Y-67112485D01*
X143187017Y-67112488D01*
X143228335Y-67184052D01*
X143257635Y-67234802D01*
X143259123Y-67237568D01*
X143259353Y-67237877D01*
X143361985Y-67340509D01*
X143362674Y-67341005D01*
X143365178Y-67342353D01*
X143484069Y-67410995D01*
X143487087Y-67412869D01*
X143487514Y-67412983D01*
X143487515Y-67412984D01*
X143627525Y-67450500D01*
X143627528Y-67450500D01*
X143772472Y-67450500D01*
X143772475Y-67450500D01*
X143912485Y-67412984D01*
X144009542Y-67356946D01*
X144026779Y-67348696D01*
X144028525Y-67348021D01*
X144192374Y-67243993D01*
X144226741Y-67228903D01*
X144235288Y-67226614D01*
X144235290Y-67226612D01*
X144235292Y-67226612D01*
X144245911Y-67220481D01*
X144288752Y-67195745D01*
X144292270Y-67193789D01*
X144310492Y-67184052D01*
X144314288Y-67181516D01*
X144353022Y-67149731D01*
X144353027Y-67149725D01*
X144353034Y-67149720D01*
X144482704Y-67020049D01*
X144482706Y-67020047D01*
X144482709Y-67020044D01*
X144490167Y-67008882D01*
X144505581Y-66990099D01*
X144780469Y-66715212D01*
X144826614Y-66635288D01*
X144830836Y-66619531D01*
X144850500Y-66546144D01*
X144850500Y-65453856D01*
X144826614Y-65364712D01*
X144804618Y-65326614D01*
X144780470Y-65284788D01*
X144399426Y-64903744D01*
X144378274Y-64875488D01*
X144365667Y-64852399D01*
X144350500Y-64792974D01*
X144350500Y-51676373D01*
X144355522Y-51641440D01*
X144362934Y-51616195D01*
X144394228Y-51563453D01*
X144619671Y-51338011D01*
X144905469Y-51052213D01*
X144951614Y-50972288D01*
X144953350Y-50965807D01*
X144956358Y-50954585D01*
X144956362Y-50954586D01*
X144956362Y-50954565D01*
X144958400Y-50946965D01*
X144967088Y-50914534D01*
X144972680Y-50905359D01*
X144976665Y-50875096D01*
X144976666Y-50875097D01*
X144978665Y-50859911D01*
X144981827Y-50844019D01*
X144986096Y-50828087D01*
X144986096Y-50828086D01*
X144988201Y-50820232D01*
X144988201Y-50820226D01*
X144989466Y-50815509D01*
X145000500Y-50774329D01*
X145000500Y-50380058D01*
X145005522Y-50345125D01*
X145005653Y-50344679D01*
X145012934Y-50319880D01*
X145044228Y-50267138D01*
X145383842Y-49927525D01*
X145742469Y-49568898D01*
X145788614Y-49488974D01*
X145791865Y-49476841D01*
X145791867Y-49476836D01*
X145795571Y-49463011D01*
X145812500Y-49399830D01*
X145812500Y-32135856D01*
X145788614Y-32046712D01*
X145742470Y-31966788D01*
X145392566Y-31616884D01*
X145362844Y-31569109D01*
X144975869Y-30430616D01*
X144974743Y-30426414D01*
X144971273Y-30419073D01*
X144969011Y-30413611D01*
X144967364Y-30409635D01*
X144923154Y-30302901D01*
X144897269Y-30240407D01*
X144897262Y-30240394D01*
X144786460Y-30074569D01*
X144786457Y-30074565D01*
X144786452Y-30074559D01*
X144645439Y-29933546D01*
X144645433Y-29933541D01*
X144645432Y-29933540D01*
X144549855Y-29869677D01*
X144479605Y-29822737D01*
X144479592Y-29822730D01*
X144479585Y-29822726D01*
X144295361Y-29746419D01*
X144295347Y-29746414D01*
X144295339Y-29746411D01*
X144295329Y-29746408D01*
X144295326Y-29746407D01*
X144295322Y-29746406D01*
X144099728Y-29707500D01*
X144099725Y-29707500D01*
X144099723Y-29707500D01*
X143900277Y-29707500D01*
X143900275Y-29707500D01*
X143900271Y-29707500D01*
X143704676Y-29746406D01*
X143704670Y-29746408D01*
X143704660Y-29746411D01*
X143704655Y-29746412D01*
X143704637Y-29746419D01*
X143520413Y-29822726D01*
X143520395Y-29822736D01*
X143480216Y-29849584D01*
X143448372Y-29864818D01*
X143435375Y-29868887D01*
X143365516Y-29870131D01*
X143306075Y-29833409D01*
X143277400Y-29777986D01*
X143275571Y-29769925D01*
X143272500Y-29742497D01*
X143272500Y-29161440D01*
X143273745Y-29157198D01*
X143277521Y-29126512D01*
X143278329Y-29123760D01*
X143281358Y-29113442D01*
X143290999Y-29098439D01*
X143292185Y-29094401D01*
X143295364Y-29091645D01*
X143319128Y-29054665D01*
X143382682Y-29025636D01*
X143444699Y-29032580D01*
X143452424Y-29035540D01*
X143476940Y-29048226D01*
X143520392Y-29077261D01*
X143520407Y-29077269D01*
X143597501Y-29109202D01*
X143663427Y-29136509D01*
X143699049Y-29151264D01*
X143703462Y-29153351D01*
X143900271Y-29192500D01*
X144099725Y-29192500D01*
X144099727Y-29192500D01*
X144202124Y-29172131D01*
X144269635Y-29158702D01*
X144295335Y-29153590D01*
X144402039Y-29109392D01*
X144437840Y-29094563D01*
X144446341Y-29091041D01*
X144473053Y-29079977D01*
X144475843Y-29079005D01*
X144477288Y-29078336D01*
X144481945Y-29076294D01*
X144491210Y-29072456D01*
X144500095Y-29063570D01*
X144645431Y-28966460D01*
X144786460Y-28825431D01*
X144897266Y-28659599D01*
X144904772Y-28641479D01*
X144930734Y-28578799D01*
X144973590Y-28475335D01*
X145012500Y-28279723D01*
X145012500Y-28080277D01*
X145012500Y-28080274D01*
X145012500Y-28080271D01*
X144973351Y-27883463D01*
X144971269Y-27879063D01*
X144946844Y-27820093D01*
X144922414Y-27761112D01*
X144897272Y-27700413D01*
X144897267Y-27700404D01*
X144897262Y-27700394D01*
X144786460Y-27534569D01*
X144786457Y-27534565D01*
X144786452Y-27534559D01*
X144645439Y-27393546D01*
X144645433Y-27393541D01*
X144645432Y-27393540D01*
X144549855Y-27329677D01*
X144479605Y-27282737D01*
X144479592Y-27282730D01*
X144479585Y-27282726D01*
X144295361Y-27206419D01*
X144295347Y-27206414D01*
X144295339Y-27206411D01*
X144295329Y-27206408D01*
X144295326Y-27206407D01*
X144295322Y-27206406D01*
X144099728Y-27167500D01*
X144099725Y-27167500D01*
X144099723Y-27167500D01*
X143900277Y-27167500D01*
X143900275Y-27167500D01*
X143900271Y-27167500D01*
X143704676Y-27206406D01*
X143704670Y-27206408D01*
X143704660Y-27206411D01*
X143704655Y-27206412D01*
X143704637Y-27206419D01*
X143520413Y-27282726D01*
X143520395Y-27282736D01*
X143480216Y-27309584D01*
X143448372Y-27324818D01*
X143435375Y-27328887D01*
X143365516Y-27330131D01*
X143306075Y-27293409D01*
X143277400Y-27237986D01*
X143275571Y-27229925D01*
X143272500Y-27202497D01*
X143272500Y-26905874D01*
X143277522Y-26870941D01*
X143277527Y-26870924D01*
X143281433Y-26857622D01*
X143319206Y-26798845D01*
X143382758Y-26769820D01*
X143386070Y-26769344D01*
X143441182Y-26773878D01*
X143443065Y-26774475D01*
X143461885Y-26782192D01*
X143468795Y-26785713D01*
X143515555Y-26809539D01*
X143515557Y-26809539D01*
X143515560Y-26809541D01*
X143704477Y-26870924D01*
X143900679Y-26902000D01*
X144099320Y-26902000D01*
X144099321Y-26902000D01*
X144243939Y-26879094D01*
X144285880Y-26872451D01*
X144285886Y-26872450D01*
X144287408Y-26872208D01*
X144295520Y-26870924D01*
X144295523Y-26870924D01*
X144484437Y-26809542D01*
X144661425Y-26719362D01*
X144698715Y-26692268D01*
X144169036Y-26162589D01*
X144135551Y-26101266D01*
X144140535Y-26031574D01*
X144182407Y-25975641D01*
X144194705Y-25967528D01*
X144233940Y-25944876D01*
X144304876Y-25873940D01*
X144327522Y-25834715D01*
X144378087Y-25786502D01*
X144446694Y-25773278D01*
X144511559Y-25799246D01*
X144522589Y-25809036D01*
X145052267Y-26338714D01*
X145052268Y-26338715D01*
X145079362Y-26301425D01*
X145169542Y-26124437D01*
X145230924Y-25935523D01*
X145230924Y-25935520D01*
X145262000Y-25739321D01*
X145262000Y-25540678D01*
X145240678Y-25406060D01*
X145232451Y-25354118D01*
X145232450Y-25354112D01*
X145232450Y-25354113D01*
X145230924Y-25344479D01*
X145230924Y-25344476D01*
X145169542Y-25155562D01*
X145169539Y-25155557D01*
X145169538Y-25155552D01*
X145079362Y-24978574D01*
X145079360Y-24978572D01*
X145079358Y-24978567D01*
X145052268Y-24941283D01*
X145052267Y-24941283D01*
X144522588Y-25470962D01*
X144461265Y-25504447D01*
X144391573Y-25499463D01*
X144335640Y-25457591D01*
X144327520Y-25445281D01*
X144304879Y-25406066D01*
X144304876Y-25406060D01*
X144233940Y-25335124D01*
X144194715Y-25312477D01*
X144146500Y-25261911D01*
X144133277Y-25193304D01*
X144159245Y-25128439D01*
X144169028Y-25117417D01*
X144698715Y-24587730D01*
X144677440Y-24572272D01*
X144661430Y-24560639D01*
X144484439Y-24470458D01*
X144484438Y-24470457D01*
X144484437Y-24470457D01*
X144424062Y-24450840D01*
X144295522Y-24409074D01*
X144099326Y-24378000D01*
X144099321Y-24378000D01*
X143900679Y-24378000D01*
X143900674Y-24378000D01*
X143714120Y-24407548D01*
X143714112Y-24407547D01*
X143714113Y-24407549D01*
X143704474Y-24409075D01*
X143599216Y-24443276D01*
X143515562Y-24470457D01*
X143515560Y-24470457D01*
X143515560Y-24470458D01*
X143468682Y-24494344D01*
X143435274Y-24505728D01*
X143421632Y-24508290D01*
X143352111Y-24501318D01*
X143297396Y-24457866D01*
X143297395Y-24457864D01*
X143295472Y-24455136D01*
X143274487Y-24403946D01*
X143274165Y-24402001D01*
X143272500Y-24381748D01*
X143272500Y-24081440D01*
X143277521Y-24046512D01*
X143279173Y-24040884D01*
X143281358Y-24033442D01*
X143319128Y-23974665D01*
X143382682Y-23945636D01*
X143444699Y-23952580D01*
X143452424Y-23955540D01*
X143476940Y-23968226D01*
X143520392Y-23997261D01*
X143520407Y-23997269D01*
X143680573Y-24063611D01*
X143699054Y-24071265D01*
X143703463Y-24073351D01*
X143900271Y-24112500D01*
X144099725Y-24112500D01*
X144099726Y-24112500D01*
X144146067Y-24103281D01*
X144285094Y-24075627D01*
X144295335Y-24073590D01*
X144458000Y-24006212D01*
X144479592Y-23997269D01*
X144479592Y-23997268D01*
X144479599Y-23997266D01*
X144645431Y-23886460D01*
X144786460Y-23745431D01*
X144897266Y-23579599D01*
X144973590Y-23395335D01*
X144981116Y-23357500D01*
X144986322Y-23331327D01*
X144986322Y-23331324D01*
X145012500Y-23199725D01*
X145012500Y-23000274D01*
X145012500Y-23000271D01*
X144973351Y-22803462D01*
X144971265Y-22799052D01*
X144961238Y-22774845D01*
X144961238Y-22774844D01*
X144923885Y-22684666D01*
X144897269Y-22620407D01*
X144897262Y-22620394D01*
X144786460Y-22454569D01*
X144786457Y-22454565D01*
X144786452Y-22454559D01*
X144645439Y-22313546D01*
X144645433Y-22313541D01*
X144645432Y-22313540D01*
X144550534Y-22250131D01*
X144479605Y-22202737D01*
X144479592Y-22202730D01*
X144479585Y-22202726D01*
X144295361Y-22126419D01*
X144295347Y-22126414D01*
X144295339Y-22126411D01*
X144295329Y-22126408D01*
X144295326Y-22126407D01*
X144295322Y-22126406D01*
X144099728Y-22087500D01*
X144099725Y-22087500D01*
X144099723Y-22087500D01*
X143900277Y-22087500D01*
X143900275Y-22087500D01*
X143900271Y-22087500D01*
X143704676Y-22126406D01*
X143704670Y-22126408D01*
X143704660Y-22126411D01*
X143704655Y-22126412D01*
X143704637Y-22126419D01*
X143520413Y-22202726D01*
X143520395Y-22202736D01*
X143480216Y-22229584D01*
X143448372Y-22244818D01*
X143435375Y-22248887D01*
X143365516Y-22250131D01*
X143306075Y-22213409D01*
X143277400Y-22157986D01*
X143275571Y-22149925D01*
X143272500Y-22122497D01*
X143272500Y-21970328D01*
X143292185Y-21903289D01*
X143344989Y-21857534D01*
X143356588Y-21852927D01*
X144292762Y-21534720D01*
X144292768Y-21534716D01*
X144293070Y-21534582D01*
X144296301Y-21533190D01*
X144357202Y-21507964D01*
X144457796Y-21466297D01*
X144473054Y-21459976D01*
X144475842Y-21459005D01*
X144477283Y-21458338D01*
X144481953Y-21456290D01*
X144491211Y-21452455D01*
X144500095Y-21443570D01*
X144645431Y-21346460D01*
X144786460Y-21205431D01*
X144897266Y-21039599D01*
X144973590Y-20855335D01*
X144992889Y-20758316D01*
X144996921Y-20738045D01*
X144996921Y-20738044D01*
X145012500Y-20659727D01*
X145012500Y-20460271D01*
X144973351Y-20263462D01*
X144971264Y-20259049D01*
X144960309Y-20232601D01*
X144897272Y-20080413D01*
X144897267Y-20080404D01*
X144897262Y-20080394D01*
X144786460Y-19914569D01*
X144786457Y-19914565D01*
X144786452Y-19914559D01*
X144645439Y-19773546D01*
X144645433Y-19773541D01*
X144645432Y-19773540D01*
X144479611Y-19662741D01*
X144479610Y-19662740D01*
X144479605Y-19662737D01*
X144479592Y-19662730D01*
X144479585Y-19662726D01*
X144295361Y-19586419D01*
X144295347Y-19586414D01*
X144295339Y-19586411D01*
X144295329Y-19586408D01*
X144295326Y-19586407D01*
X144295322Y-19586406D01*
X144099728Y-19547500D01*
X144099725Y-19547500D01*
X144099723Y-19547500D01*
X143900277Y-19547500D01*
X143900275Y-19547500D01*
X143900271Y-19547500D01*
X143704676Y-19586406D01*
X143704670Y-19586408D01*
X143704660Y-19586411D01*
X143704655Y-19586412D01*
X143704637Y-19586419D01*
X143520413Y-19662726D01*
X143520404Y-19662731D01*
X143520387Y-19662741D01*
X143354566Y-19773540D01*
X143354565Y-19773541D01*
X143354559Y-19773546D01*
X143213546Y-19914559D01*
X143213541Y-19914565D01*
X143213540Y-19914566D01*
X143102741Y-20080387D01*
X143102731Y-20080404D01*
X143102728Y-20080410D01*
X143026798Y-20263723D01*
X143025297Y-20267182D01*
X142705864Y-21206964D01*
X142629230Y-21432419D01*
X142597800Y-21481870D01*
X142597668Y-21481997D01*
X142535710Y-21514292D01*
X142466127Y-21507964D01*
X142412871Y-21467539D01*
X142411930Y-21466298D01*
X142406878Y-21459631D01*
X142391144Y-21432191D01*
X142357269Y-21350407D01*
X142357262Y-21350394D01*
X142246460Y-21184569D01*
X142246457Y-21184565D01*
X142246452Y-21184559D01*
X142105439Y-21043546D01*
X142105433Y-21043541D01*
X142105432Y-21043540D01*
X141939611Y-20932741D01*
X141939610Y-20932740D01*
X141939605Y-20932737D01*
X141939592Y-20932730D01*
X141939585Y-20932726D01*
X141755361Y-20856419D01*
X141755347Y-20856414D01*
X141755339Y-20856411D01*
X141755329Y-20856408D01*
X141755326Y-20856407D01*
X141755322Y-20856406D01*
X141559728Y-20817500D01*
X141559725Y-20817500D01*
X141559723Y-20817500D01*
X141360277Y-20817500D01*
X141360275Y-20817500D01*
X141360271Y-20817500D01*
X141164676Y-20856406D01*
X141164670Y-20856408D01*
X141164660Y-20856411D01*
X141164655Y-20856412D01*
X141164637Y-20856419D01*
X140980413Y-20932726D01*
X140980392Y-20932737D01*
X140956213Y-20948894D01*
X140924373Y-20964126D01*
X140911377Y-20968195D01*
X140841519Y-20969441D01*
X140782077Y-20932721D01*
X140753400Y-20877295D01*
X140751571Y-20869234D01*
X140748500Y-20841806D01*
X140748500Y-20702646D01*
X140768185Y-20635607D01*
X140820989Y-20589852D01*
X140838657Y-20583353D01*
X141812203Y-20307205D01*
X141846041Y-20302500D01*
X142250796Y-20302500D01*
X142258648Y-20300117D01*
X142319740Y-20287966D01*
X142402601Y-20232601D01*
X142457966Y-20149740D01*
X142472500Y-20076674D01*
X142472500Y-18503326D01*
X142472500Y-18503323D01*
X142472500Y-18503139D01*
X142472064Y-18501134D01*
X142457972Y-18430289D01*
X142457967Y-18430266D01*
X142457967Y-18430264D01*
X142457966Y-18430260D01*
X142457965Y-18430258D01*
X142457964Y-18430256D01*
X142402601Y-18347399D01*
X142329891Y-18298816D01*
X142325826Y-18295480D01*
X142319739Y-18292033D01*
X142319735Y-18292032D01*
X142319709Y-18292026D01*
X142246680Y-18277500D01*
X142246677Y-18277500D01*
X142246674Y-18277500D01*
X140673326Y-18277500D01*
X140673323Y-18277500D01*
X140673319Y-18277500D01*
X140600285Y-18292027D01*
X140600262Y-18292032D01*
X140600258Y-18292033D01*
X140517399Y-18347399D01*
X140462033Y-18430258D01*
X140462032Y-18430266D01*
X140462028Y-18430281D01*
X140447500Y-18503318D01*
X140447500Y-18903956D01*
X140442794Y-18937794D01*
X140092574Y-20172472D01*
X140080668Y-20200633D01*
X140071385Y-20216711D01*
X140055397Y-20276375D01*
X140054286Y-20280267D01*
X140048299Y-20300005D01*
X140047407Y-20304490D01*
X140047407Y-20304493D01*
X140042500Y-20354326D01*
X140042500Y-20678041D01*
X140045117Y-20691197D01*
X140047500Y-20715389D01*
X140047500Y-35963915D01*
X140045117Y-35988107D01*
X140042500Y-36001262D01*
X140042500Y-36005663D01*
X140042501Y-36005693D01*
X140047411Y-36055529D01*
X140047413Y-36055543D01*
X140047414Y-36055545D01*
X140048305Y-36060022D01*
X140048306Y-36060024D01*
X140048308Y-36060034D01*
X140054303Y-36079795D01*
X140055415Y-36083687D01*
X140058824Y-36096405D01*
X140058827Y-36096415D01*
X140070663Y-36140587D01*
X140070668Y-36140632D01*
X140070674Y-36140631D01*
X140071383Y-36143282D01*
X140071385Y-36143287D01*
X140071386Y-36143290D01*
X140082613Y-36162736D01*
X140084256Y-36165581D01*
X140094522Y-36188422D01*
X140172090Y-36421492D01*
X140172090Y-36421493D01*
X140373683Y-37027231D01*
X140376175Y-37097056D01*
X140373431Y-37106292D01*
X140165864Y-37716963D01*
X140165864Y-37716964D01*
X140097154Y-37919108D01*
X140067432Y-37966883D01*
X139719535Y-38314780D01*
X139719531Y-38314785D01*
X139719530Y-38314786D01*
X139679335Y-38384407D01*
X139679332Y-38384413D01*
X139673386Y-38394711D01*
X139649500Y-38483856D01*
X139649500Y-39785626D01*
X139644476Y-39820563D01*
X139637064Y-39845804D01*
X139605769Y-39898548D01*
X139286788Y-40217529D01*
X139258538Y-40238678D01*
X139248611Y-40244099D01*
X139180338Y-40258953D01*
X139114873Y-40234539D01*
X139073000Y-40178607D01*
X139070313Y-40171401D01*
X139062500Y-40128081D01*
X139062500Y-21666085D01*
X139064883Y-21641891D01*
X139067500Y-21628735D01*
X139067500Y-21624335D01*
X139067500Y-21624325D01*
X139064565Y-21594537D01*
X139062588Y-21574469D01*
X139062586Y-21574463D01*
X139062586Y-21574454D01*
X139061695Y-21569977D01*
X139055684Y-21550167D01*
X139054588Y-21546330D01*
X139038614Y-21486712D01*
X139025742Y-21464417D01*
X139015475Y-21441575D01*
X139015120Y-21440509D01*
X138827679Y-20877292D01*
X138625737Y-20270504D01*
X138624536Y-20265970D01*
X138621270Y-20259064D01*
X138610309Y-20232601D01*
X138560368Y-20112031D01*
X138547272Y-20080413D01*
X138547267Y-20080404D01*
X138547262Y-20080394D01*
X138436460Y-19914569D01*
X138436457Y-19914565D01*
X138436452Y-19914559D01*
X138295439Y-19773546D01*
X138295433Y-19773541D01*
X138295432Y-19773540D01*
X138129611Y-19662741D01*
X138129610Y-19662740D01*
X138129605Y-19662737D01*
X138129592Y-19662730D01*
X138129585Y-19662726D01*
X137945361Y-19586419D01*
X137945347Y-19586414D01*
X137945339Y-19586411D01*
X137945329Y-19586408D01*
X137945326Y-19586407D01*
X137945322Y-19586406D01*
X137749728Y-19547500D01*
X137749725Y-19547500D01*
X137749723Y-19547500D01*
X137550277Y-19547500D01*
X137550275Y-19547500D01*
X137550271Y-19547500D01*
X137354676Y-19586406D01*
X137354670Y-19586408D01*
X137354660Y-19586411D01*
X137354655Y-19586412D01*
X137354637Y-19586419D01*
X137170413Y-19662726D01*
X137170404Y-19662731D01*
X137170387Y-19662741D01*
X137004566Y-19773540D01*
X137004565Y-19773541D01*
X137004559Y-19773546D01*
X136863546Y-19914559D01*
X136863541Y-19914565D01*
X136863540Y-19914566D01*
X136752741Y-20080387D01*
X136752731Y-20080404D01*
X136752726Y-20080413D01*
X136676419Y-20264637D01*
X136676406Y-20264676D01*
X136637500Y-20460270D01*
X136637500Y-20615356D01*
X136632237Y-20633276D01*
X136676406Y-20855322D01*
X136676407Y-20855326D01*
X136676408Y-20855329D01*
X136676411Y-20855339D01*
X136676414Y-20855347D01*
X136676419Y-20855361D01*
X136752726Y-21039585D01*
X136752731Y-21039594D01*
X136752741Y-21039611D01*
X136863540Y-21205432D01*
X136863541Y-21205433D01*
X136863546Y-21205439D01*
X137004559Y-21346452D01*
X137004565Y-21346457D01*
X137004569Y-21346460D01*
X137170394Y-21457262D01*
X137170407Y-21457269D01*
X137170409Y-21457269D01*
X137170413Y-21457272D01*
X137345641Y-21529852D01*
X137345643Y-21529853D01*
X137349061Y-21531269D01*
X137355970Y-21534536D01*
X137360507Y-21535738D01*
X137768441Y-21671500D01*
X138276657Y-21840636D01*
X138334050Y-21880482D01*
X138360789Y-21945033D01*
X138361500Y-21958291D01*
X138361500Y-22107867D01*
X138356475Y-22142809D01*
X138352637Y-22155877D01*
X138314859Y-22214653D01*
X138251301Y-22243674D01*
X138189283Y-22236721D01*
X138181569Y-22233765D01*
X138157061Y-22221082D01*
X138129617Y-22202745D01*
X138129616Y-22202744D01*
X138129605Y-22202737D01*
X138129592Y-22202730D01*
X138129585Y-22202726D01*
X137945361Y-22126419D01*
X137945347Y-22126414D01*
X137945339Y-22126411D01*
X137945329Y-22126408D01*
X137945326Y-22126407D01*
X137945322Y-22126406D01*
X137749728Y-22087500D01*
X137749725Y-22087500D01*
X137749723Y-22087500D01*
X137550277Y-22087500D01*
X137550275Y-22087500D01*
X137550271Y-22087500D01*
X137354676Y-22126406D01*
X137354670Y-22126408D01*
X137354660Y-22126411D01*
X137354655Y-22126412D01*
X137354637Y-22126419D01*
X137170413Y-22202726D01*
X137170404Y-22202731D01*
X137170399Y-22202734D01*
X137170394Y-22202737D01*
X137131390Y-22228799D01*
X137004566Y-22313540D01*
X137004565Y-22313541D01*
X137004559Y-22313546D01*
X136863546Y-22454559D01*
X136863541Y-22454565D01*
X136863540Y-22454566D01*
X136752741Y-22620387D01*
X136752731Y-22620404D01*
X136752726Y-22620413D01*
X136676419Y-22804637D01*
X136676406Y-22804676D01*
X136637500Y-23000270D01*
X136637500Y-23155356D01*
X136632237Y-23173276D01*
X136676406Y-23395322D01*
X136676407Y-23395326D01*
X136676408Y-23395329D01*
X136676411Y-23395339D01*
X136676414Y-23395347D01*
X136676419Y-23395361D01*
X136752726Y-23579585D01*
X136752731Y-23579594D01*
X136752741Y-23579611D01*
X136863540Y-23745432D01*
X136863541Y-23745433D01*
X136863546Y-23745439D01*
X137004559Y-23886452D01*
X137004565Y-23886457D01*
X137004569Y-23886460D01*
X137170394Y-23997262D01*
X137170407Y-23997269D01*
X137170409Y-23997269D01*
X137170413Y-23997272D01*
X137227178Y-24020784D01*
X137330573Y-24063611D01*
X137349054Y-24071265D01*
X137353463Y-24073351D01*
X137550271Y-24112500D01*
X137749725Y-24112500D01*
X137749726Y-24112500D01*
X137796067Y-24103281D01*
X137935094Y-24075627D01*
X137945335Y-24073590D01*
X138108000Y-24006212D01*
X138129592Y-23997269D01*
X138129592Y-23997268D01*
X138129599Y-23997266D01*
X138153783Y-23981107D01*
X138185617Y-23965874D01*
X138198620Y-23961802D01*
X138268477Y-23960556D01*
X138327920Y-23997275D01*
X138356594Y-24052687D01*
X138358423Y-24060744D01*
X138361500Y-24088195D01*
X138361500Y-24365971D01*
X138356475Y-24400912D01*
X138352564Y-24414229D01*
X138314787Y-24473005D01*
X138251229Y-24502027D01*
X138247924Y-24502502D01*
X138192814Y-24497966D01*
X138190937Y-24497371D01*
X138172114Y-24489654D01*
X138134433Y-24470455D01*
X137945523Y-24409075D01*
X137749326Y-24378000D01*
X137749321Y-24378000D01*
X137550679Y-24378000D01*
X137550674Y-24378000D01*
X137364120Y-24407548D01*
X137364112Y-24407548D01*
X137364113Y-24407549D01*
X137354474Y-24409075D01*
X137249216Y-24443276D01*
X137165562Y-24470457D01*
X137120998Y-24493164D01*
X136988564Y-24560642D01*
X136951282Y-24587729D01*
X136951282Y-24587730D01*
X137285417Y-24921865D01*
X137480963Y-25117410D01*
X137514448Y-25178733D01*
X137509464Y-25248424D01*
X137467593Y-25304358D01*
X137455284Y-25312477D01*
X137416063Y-25335122D01*
X137416057Y-25335126D01*
X137345126Y-25406057D01*
X137345119Y-25406066D01*
X137322476Y-25445284D01*
X137271908Y-25493498D01*
X137203300Y-25506719D01*
X137138436Y-25480749D01*
X137127410Y-25470962D01*
X136597730Y-24941282D01*
X136570642Y-24978564D01*
X136510898Y-25095818D01*
X136480457Y-25155562D01*
X136472928Y-25178733D01*
X136419075Y-25344474D01*
X136418857Y-25345853D01*
X136388000Y-25540678D01*
X136388000Y-25739321D01*
X136409322Y-25873940D01*
X136417548Y-25925878D01*
X136417549Y-25925886D01*
X136419075Y-25935524D01*
X136480458Y-26124441D01*
X136570641Y-26301433D01*
X136597727Y-26338712D01*
X136597730Y-26338716D01*
X136597730Y-26338715D01*
X136597731Y-26338716D01*
X137127412Y-25809034D01*
X137188733Y-25775551D01*
X137258424Y-25780535D01*
X137314358Y-25822406D01*
X137322476Y-25834714D01*
X137345124Y-25873940D01*
X137416060Y-25944876D01*
X137416063Y-25944877D01*
X137416066Y-25944880D01*
X137455282Y-25967522D01*
X137503497Y-26018089D01*
X137516719Y-26086697D01*
X137490751Y-26151561D01*
X137480962Y-26162589D01*
X136951283Y-26692267D01*
X136951282Y-26692268D01*
X136951283Y-26692268D01*
X136951283Y-26692269D01*
X136988567Y-26719358D01*
X137072187Y-26761965D01*
X137165557Y-26809540D01*
X137165559Y-26809540D01*
X137165562Y-26809542D01*
X137229378Y-26830277D01*
X137354476Y-26870924D01*
X137450280Y-26886098D01*
X137550679Y-26902000D01*
X137749320Y-26902000D01*
X137749321Y-26902000D01*
X137893939Y-26879094D01*
X137935880Y-26872451D01*
X137935886Y-26872450D01*
X137941483Y-26871563D01*
X137945520Y-26870924D01*
X137945523Y-26870924D01*
X138134437Y-26809542D01*
X138165324Y-26793804D01*
X138198724Y-26782422D01*
X138212371Y-26779860D01*
X138281892Y-26786834D01*
X138336598Y-26830277D01*
X138338520Y-26833003D01*
X138359503Y-26884152D01*
X138359826Y-26886098D01*
X138361500Y-26906402D01*
X138361500Y-27187867D01*
X138356475Y-27222809D01*
X138352637Y-27235877D01*
X138314859Y-27294653D01*
X138251301Y-27323674D01*
X138189283Y-27316721D01*
X138181569Y-27313765D01*
X138157061Y-27301082D01*
X138129617Y-27282745D01*
X138129616Y-27282744D01*
X138129605Y-27282737D01*
X138129592Y-27282730D01*
X138129585Y-27282726D01*
X137945361Y-27206419D01*
X137945347Y-27206414D01*
X137945339Y-27206411D01*
X137945329Y-27206408D01*
X137945326Y-27206407D01*
X137945322Y-27206406D01*
X137749728Y-27167500D01*
X137749725Y-27167500D01*
X137749723Y-27167500D01*
X137550277Y-27167500D01*
X137550275Y-27167500D01*
X137550271Y-27167500D01*
X137354676Y-27206406D01*
X137354670Y-27206408D01*
X137354660Y-27206411D01*
X137354655Y-27206412D01*
X137354637Y-27206419D01*
X137170413Y-27282726D01*
X137170404Y-27282731D01*
X137170399Y-27282734D01*
X137170394Y-27282737D01*
X137131390Y-27308799D01*
X137004566Y-27393540D01*
X137004565Y-27393541D01*
X137004559Y-27393546D01*
X136863546Y-27534559D01*
X136863541Y-27534565D01*
X136863540Y-27534566D01*
X136752741Y-27700387D01*
X136752731Y-27700404D01*
X136752726Y-27700413D01*
X136675378Y-27887150D01*
X136287057Y-29053960D01*
X136254972Y-29104546D01*
X136250089Y-29109202D01*
X136187987Y-29141219D01*
X136118434Y-29134578D01*
X136065697Y-29094361D01*
X136059704Y-29086454D01*
X136043971Y-29059015D01*
X136007269Y-28970407D01*
X136007262Y-28970394D01*
X135896460Y-28804569D01*
X135896457Y-28804565D01*
X135896452Y-28804559D01*
X135755439Y-28663546D01*
X135755433Y-28663541D01*
X135755432Y-28663540D01*
X135589611Y-28552741D01*
X135589606Y-28552738D01*
X135589605Y-28552737D01*
X135589592Y-28552730D01*
X135589585Y-28552726D01*
X135405361Y-28476419D01*
X135405347Y-28476414D01*
X135405339Y-28476411D01*
X135405329Y-28476408D01*
X135405326Y-28476407D01*
X135405322Y-28476406D01*
X135209728Y-28437500D01*
X135209725Y-28437500D01*
X135209723Y-28437500D01*
X135010277Y-28437500D01*
X135010275Y-28437500D01*
X135010271Y-28437500D01*
X134814676Y-28476406D01*
X134814670Y-28476408D01*
X134814660Y-28476411D01*
X134814655Y-28476412D01*
X134814637Y-28476419D01*
X134630413Y-28552726D01*
X134630392Y-28552737D01*
X134606213Y-28568894D01*
X134574373Y-28584126D01*
X134561377Y-28588195D01*
X134491519Y-28589441D01*
X134432077Y-28552721D01*
X134403400Y-28497295D01*
X134401571Y-28489234D01*
X134398500Y-28461806D01*
X134398500Y-27902131D01*
X134400150Y-27896510D01*
X134403521Y-27867203D01*
X134405620Y-27860053D01*
X134407358Y-27854133D01*
X134416999Y-27839130D01*
X134418185Y-27835092D01*
X134421364Y-27832336D01*
X134445128Y-27795356D01*
X134508682Y-27766327D01*
X134570699Y-27773271D01*
X134578424Y-27776231D01*
X134602943Y-27788919D01*
X134630391Y-27807260D01*
X134630399Y-27807264D01*
X134630401Y-27807266D01*
X134630403Y-27807267D01*
X134630407Y-27807269D01*
X134790573Y-27873611D01*
X134809054Y-27881265D01*
X134813463Y-27883351D01*
X135010271Y-27922500D01*
X135209725Y-27922500D01*
X135209726Y-27922500D01*
X135236044Y-27917264D01*
X135341324Y-27896322D01*
X135341325Y-27896322D01*
X135354196Y-27893761D01*
X135405335Y-27883590D01*
X135589585Y-27807272D01*
X135589592Y-27807269D01*
X135589592Y-27807268D01*
X135589599Y-27807266D01*
X135755431Y-27696460D01*
X135896460Y-27555431D01*
X136007266Y-27389599D01*
X136008964Y-27385501D01*
X136051529Y-27282737D01*
X136083590Y-27205335D01*
X136111740Y-27063818D01*
X136122500Y-27009725D01*
X136122500Y-26810274D01*
X136122500Y-26810271D01*
X136083351Y-26613464D01*
X136081266Y-26609056D01*
X136065912Y-26571985D01*
X136014585Y-26448069D01*
X136007272Y-26430413D01*
X136007267Y-26430404D01*
X136007262Y-26430394D01*
X135896460Y-26264569D01*
X135896457Y-26264565D01*
X135896452Y-26264559D01*
X135755439Y-26123546D01*
X135755433Y-26123541D01*
X135755432Y-26123540D01*
X135589611Y-26012741D01*
X135589606Y-26012738D01*
X135589605Y-26012737D01*
X135589592Y-26012730D01*
X135589585Y-26012726D01*
X135405361Y-25936419D01*
X135405347Y-25936414D01*
X135405339Y-25936411D01*
X135405329Y-25936408D01*
X135405326Y-25936407D01*
X135405322Y-25936406D01*
X135209728Y-25897500D01*
X135209725Y-25897500D01*
X135209723Y-25897500D01*
X135010277Y-25897500D01*
X135010275Y-25897500D01*
X135010271Y-25897500D01*
X134814676Y-25936406D01*
X134814670Y-25936408D01*
X134814660Y-25936411D01*
X134814655Y-25936412D01*
X134814637Y-25936419D01*
X134630413Y-26012726D01*
X134630392Y-26012737D01*
X134606213Y-26028894D01*
X134574373Y-26044126D01*
X134561377Y-26048195D01*
X134491519Y-26049441D01*
X134432077Y-26012721D01*
X134403400Y-25957295D01*
X134401571Y-25949234D01*
X134398500Y-25921806D01*
X134398500Y-25362131D01*
X134403521Y-25327203D01*
X134404075Y-25325314D01*
X134407358Y-25314133D01*
X134445128Y-25255356D01*
X134508682Y-25226327D01*
X134570699Y-25233271D01*
X134578424Y-25236231D01*
X134602943Y-25248919D01*
X134630391Y-25267260D01*
X134630403Y-25267267D01*
X134630418Y-25267274D01*
X134719949Y-25304358D01*
X134794226Y-25335124D01*
X134809055Y-25341266D01*
X134813464Y-25343351D01*
X134814669Y-25343590D01*
X134814670Y-25343591D01*
X134826042Y-25345853D01*
X135010271Y-25382500D01*
X135209725Y-25382500D01*
X135209726Y-25382500D01*
X135256067Y-25373281D01*
X135395094Y-25345627D01*
X135405335Y-25343590D01*
X135589599Y-25267266D01*
X135755431Y-25156460D01*
X135896460Y-25015431D01*
X136007266Y-24849599D01*
X136008964Y-24845501D01*
X136068563Y-24701614D01*
X136083590Y-24665335D01*
X136083683Y-24664871D01*
X136115049Y-24507183D01*
X136115049Y-24507181D01*
X136115177Y-24506541D01*
X136122500Y-24469725D01*
X136122500Y-24270274D01*
X136122500Y-24270271D01*
X136083351Y-24073462D01*
X136081265Y-24069051D01*
X136075219Y-24054455D01*
X136071790Y-24046177D01*
X136007269Y-23890407D01*
X136007262Y-23890394D01*
X135896460Y-23724569D01*
X135896459Y-23724568D01*
X135896458Y-23724566D01*
X135896457Y-23724565D01*
X135896452Y-23724559D01*
X135755439Y-23583546D01*
X135755433Y-23583541D01*
X135755432Y-23583540D01*
X135589611Y-23472741D01*
X135589610Y-23472740D01*
X135589605Y-23472737D01*
X135589592Y-23472730D01*
X135589585Y-23472726D01*
X135405361Y-23396419D01*
X135405347Y-23396414D01*
X135405339Y-23396411D01*
X135405329Y-23396408D01*
X135405326Y-23396407D01*
X135405322Y-23396406D01*
X135209728Y-23357500D01*
X135209725Y-23357500D01*
X135209723Y-23357500D01*
X135010277Y-23357500D01*
X135010275Y-23357500D01*
X135010271Y-23357500D01*
X134814676Y-23396406D01*
X134814670Y-23396408D01*
X134814660Y-23396411D01*
X134814655Y-23396412D01*
X134814637Y-23396419D01*
X134630413Y-23472726D01*
X134630392Y-23472737D01*
X134606213Y-23488894D01*
X134574373Y-23504126D01*
X134561377Y-23508195D01*
X134491519Y-23509441D01*
X134432077Y-23472721D01*
X134403400Y-23417295D01*
X134401571Y-23409234D01*
X134398500Y-23381806D01*
X134398500Y-22822131D01*
X134403521Y-22787203D01*
X134404075Y-22785314D01*
X134407358Y-22774133D01*
X134445128Y-22715356D01*
X134508682Y-22686327D01*
X134570699Y-22693271D01*
X134578424Y-22696231D01*
X134602943Y-22708919D01*
X134630391Y-22727260D01*
X134630399Y-22727264D01*
X134630401Y-22727266D01*
X134630403Y-22727267D01*
X134630407Y-22727269D01*
X134809056Y-22801267D01*
X134813487Y-22803362D01*
X134814227Y-22803505D01*
X134814970Y-22803651D01*
X135010271Y-22842500D01*
X135209725Y-22842500D01*
X135209726Y-22842500D01*
X135256067Y-22833281D01*
X135395094Y-22805627D01*
X135405335Y-22803590D01*
X135569310Y-22735670D01*
X135589592Y-22727269D01*
X135589592Y-22727268D01*
X135589599Y-22727266D01*
X135755431Y-22616460D01*
X135896460Y-22475431D01*
X136007266Y-22309599D01*
X136008964Y-22305501D01*
X136051529Y-22202737D01*
X136083590Y-22125335D01*
X136114423Y-21970328D01*
X136122500Y-21929725D01*
X136122500Y-21730271D01*
X136083350Y-21533459D01*
X136081267Y-21529054D01*
X136071434Y-21505316D01*
X136071413Y-21505269D01*
X136071392Y-21505217D01*
X136007269Y-21350407D01*
X136007262Y-21350394D01*
X135896460Y-21184569D01*
X135896457Y-21184565D01*
X135896452Y-21184559D01*
X135755439Y-21043546D01*
X135755433Y-21043541D01*
X135755432Y-21043540D01*
X135589611Y-20932741D01*
X135589610Y-20932740D01*
X135589605Y-20932737D01*
X135589592Y-20932730D01*
X135589585Y-20932726D01*
X135405361Y-20856419D01*
X135405347Y-20856414D01*
X135405339Y-20856411D01*
X135405329Y-20856408D01*
X135405326Y-20856407D01*
X135405322Y-20856406D01*
X135209728Y-20817500D01*
X135209725Y-20817500D01*
X135209723Y-20817500D01*
X135010277Y-20817500D01*
X135010275Y-20817500D01*
X135010271Y-20817500D01*
X134814676Y-20856406D01*
X134814670Y-20856408D01*
X134814660Y-20856411D01*
X134814655Y-20856412D01*
X134814637Y-20856419D01*
X134630413Y-20932726D01*
X134630392Y-20932737D01*
X134606213Y-20948894D01*
X134574373Y-20964126D01*
X134561377Y-20968195D01*
X134491519Y-20969441D01*
X134432077Y-20932721D01*
X134403400Y-20877295D01*
X134401571Y-20869234D01*
X134398500Y-20841806D01*
X134398500Y-20723181D01*
X134400258Y-20704256D01*
X134400194Y-20704251D01*
X134400195Y-20704234D01*
X134400047Y-20704214D01*
X134400456Y-20701223D01*
X134400459Y-20701210D01*
X134400856Y-20696661D01*
X134400855Y-20696658D01*
X134401120Y-20693635D01*
X134402037Y-20693714D01*
X134423042Y-20631066D01*
X134477541Y-20587345D01*
X134490898Y-20582718D01*
X135462199Y-20307205D01*
X135496037Y-20302500D01*
X135900796Y-20302500D01*
X135908648Y-20300117D01*
X135969740Y-20287966D01*
X136052601Y-20232601D01*
X136107966Y-20149740D01*
X136122500Y-20076674D01*
X136122500Y-18503326D01*
X136122500Y-18503323D01*
X136122500Y-18503139D01*
X136122064Y-18501134D01*
X136107972Y-18430289D01*
X136107967Y-18430266D01*
X136107967Y-18430264D01*
X136107966Y-18430260D01*
X136107965Y-18430258D01*
X136107964Y-18430256D01*
X136052601Y-18347399D01*
X135979891Y-18298816D01*
X135975826Y-18295480D01*
X135969739Y-18292033D01*
X135969735Y-18292032D01*
X135969709Y-18292026D01*
X135896680Y-18277500D01*
X135896677Y-18277500D01*
X135896674Y-18277500D01*
X134323326Y-18277500D01*
X134323323Y-18277500D01*
X134323319Y-18277500D01*
X134250285Y-18292027D01*
X134250262Y-18292032D01*
X134250258Y-18292033D01*
X134167399Y-18347399D01*
X134112033Y-18430258D01*
X134112032Y-18430266D01*
X134112028Y-18430281D01*
X134097500Y-18503318D01*
X134097500Y-18903955D01*
X134092794Y-18937793D01*
X133742574Y-20172471D01*
X133730668Y-20200631D01*
X133721388Y-20216704D01*
X133721385Y-20216712D01*
X133710288Y-20258123D01*
X133707265Y-20267804D01*
X133704853Y-20274542D01*
X133704195Y-20276710D01*
X133704193Y-20276718D01*
X133698064Y-20301183D01*
X133698059Y-20301208D01*
X133697618Y-20303429D01*
X133697617Y-20303430D01*
X133696837Y-20308702D01*
X133693945Y-20328245D01*
X133693722Y-20330517D01*
X133693721Y-20330531D01*
X133692500Y-20355456D01*
X133692500Y-20635578D01*
X133672815Y-20702617D01*
X133620011Y-20748372D01*
X133550853Y-20758316D01*
X133487297Y-20729291D01*
X133472948Y-20714609D01*
X133472771Y-20714395D01*
X133460938Y-20697367D01*
X133449780Y-20678042D01*
X133446786Y-20672856D01*
X133445607Y-20670234D01*
X133441497Y-20663584D01*
X133440589Y-20662065D01*
X133337877Y-20559353D01*
X133337568Y-20559123D01*
X133334802Y-20557635D01*
X133284242Y-20528444D01*
X133255809Y-20498625D01*
X133211324Y-20486705D01*
X133191918Y-20481505D01*
X133191918Y-20481504D01*
X133097715Y-20456263D01*
X133072475Y-20449500D01*
X133072474Y-20449500D01*
X132927525Y-20449500D01*
X132808081Y-20481505D01*
X132808080Y-20481504D01*
X132787510Y-20487017D01*
X132787507Y-20487018D01*
X132661992Y-20559485D01*
X132661984Y-20559490D01*
X132661979Y-20559495D01*
X132559489Y-20661986D01*
X132559486Y-20661989D01*
X132552798Y-20673575D01*
X132530984Y-20701313D01*
X132522800Y-20709116D01*
X132460700Y-20741134D01*
X132391146Y-20734495D01*
X132336224Y-20691306D01*
X132336177Y-20691240D01*
X132335820Y-20690738D01*
X132314585Y-20639412D01*
X132314213Y-20637197D01*
X132312500Y-20616659D01*
X132312500Y-20460271D01*
X132273351Y-20263462D01*
X132271264Y-20259049D01*
X132260309Y-20232601D01*
X132197272Y-20080413D01*
X132197262Y-20080394D01*
X132189899Y-20069374D01*
X132182322Y-20056394D01*
X132179738Y-20051278D01*
X131849254Y-19530846D01*
X131747839Y-19371143D01*
X131643994Y-19207612D01*
X131628897Y-19173231D01*
X131626615Y-19164713D01*
X131626613Y-19164710D01*
X131605148Y-19127531D01*
X131600439Y-19118545D01*
X131597385Y-19112087D01*
X131597384Y-19112085D01*
X131596304Y-19110064D01*
X131583429Y-19088576D01*
X131583426Y-19088572D01*
X131583421Y-19088563D01*
X131582184Y-19086712D01*
X131582172Y-19086694D01*
X131567248Y-19066561D01*
X131565792Y-19064786D01*
X131548915Y-19046161D01*
X131548907Y-19046153D01*
X131548888Y-19046133D01*
X131499068Y-18996314D01*
X131377213Y-18874459D01*
X131342434Y-18845910D01*
X131333429Y-18837747D01*
X130215211Y-17719529D01*
X130215204Y-17719524D01*
X130149425Y-17681547D01*
X130142896Y-17676537D01*
X130127682Y-17670235D01*
X130119520Y-17669161D01*
X130046144Y-17649500D01*
X130046143Y-17649500D01*
X127879856Y-17649500D01*
X127792518Y-17672902D01*
X127790796Y-17673335D01*
X127710804Y-17719519D01*
X127710786Y-17719531D01*
X126094526Y-19335791D01*
X126080179Y-19360642D01*
X126074119Y-19371140D01*
X126074114Y-19371149D01*
X126069149Y-19379749D01*
X126061252Y-19393427D01*
X126048386Y-19415711D01*
X126048385Y-19415713D01*
X126024500Y-19504856D01*
X126024500Y-19919046D01*
X126019476Y-19953983D01*
X126016615Y-19963726D01*
X125978840Y-20022503D01*
X125915284Y-20051527D01*
X125846125Y-20041582D01*
X125793822Y-19996597D01*
X125648134Y-19773542D01*
X125294266Y-19231752D01*
X125278308Y-19196036D01*
X125276614Y-19189712D01*
X125262180Y-19164712D01*
X125245750Y-19136255D01*
X125243784Y-19132717D01*
X125241012Y-19127531D01*
X125234052Y-19114507D01*
X125234050Y-19114503D01*
X125231516Y-19110711D01*
X125231513Y-19110706D01*
X125199731Y-19071977D01*
X125199720Y-19071965D01*
X125007893Y-18880139D01*
X125007888Y-18880135D01*
X125003675Y-18877320D01*
X124996727Y-18872677D01*
X124977938Y-18857257D01*
X123965212Y-17844530D01*
X123965211Y-17844529D01*
X123965204Y-17844524D01*
X123899425Y-17806547D01*
X123892896Y-17801537D01*
X123877682Y-17795235D01*
X123869520Y-17794161D01*
X123796144Y-17774500D01*
X123796143Y-17774500D01*
X121453856Y-17774500D01*
X121364725Y-17798382D01*
X121364708Y-17798387D01*
X121364700Y-17798391D01*
X121284791Y-17844526D01*
X121264765Y-17864552D01*
X121245978Y-17879970D01*
X121225179Y-17893868D01*
X121206650Y-17904078D01*
X121193743Y-17909814D01*
X121186950Y-17916259D01*
X121143004Y-17941631D01*
X121143005Y-17941632D01*
X121132783Y-17947533D01*
X121067537Y-18012779D01*
X121067529Y-18012788D01*
X121067527Y-18012792D01*
X121019352Y-18096235D01*
X121019187Y-18096139D01*
X121014579Y-18104112D01*
X120999965Y-18125982D01*
X120984546Y-18144769D01*
X119474788Y-19654528D01*
X119446538Y-19675677D01*
X119436611Y-19681098D01*
X119368338Y-19695952D01*
X119302873Y-19671538D01*
X119261000Y-19615606D01*
X119258313Y-19608400D01*
X119250500Y-19565080D01*
X119250500Y-18026503D01*
X119255522Y-17991570D01*
X119262934Y-17966325D01*
X119294228Y-17913583D01*
X121789870Y-15417940D01*
X121789877Y-15417936D01*
X121807313Y-15400500D01*
X121807314Y-15400500D01*
X121905289Y-15302525D01*
X122574500Y-15302525D01*
X122574500Y-15309925D01*
X122574500Y-15447474D01*
X122612013Y-15587477D01*
X122612017Y-15587488D01*
X122612018Y-15587489D01*
X122682635Y-15709802D01*
X122684123Y-15712568D01*
X122684353Y-15712877D01*
X122786985Y-15815509D01*
X122787674Y-15816005D01*
X122790178Y-15817353D01*
X122909069Y-15885995D01*
X122912087Y-15887869D01*
X122912514Y-15887983D01*
X122912515Y-15887984D01*
X123052525Y-15925500D01*
X123052528Y-15925500D01*
X123197472Y-15925500D01*
X123197475Y-15925500D01*
X123328193Y-15890473D01*
X123335032Y-15889026D01*
X123338266Y-15888187D01*
X123338278Y-15888186D01*
X123760776Y-15733095D01*
X123803506Y-15725500D01*
X139446494Y-15725500D01*
X139489224Y-15733095D01*
X139911715Y-15888184D01*
X139911717Y-15888184D01*
X139911721Y-15888186D01*
X139911725Y-15888186D01*
X139913222Y-15888585D01*
X139921537Y-15890401D01*
X140052525Y-15925500D01*
X140052528Y-15925500D01*
X140197472Y-15925500D01*
X140197475Y-15925500D01*
X140337485Y-15887984D01*
X140463015Y-15815509D01*
X140565509Y-15713015D01*
X140637984Y-15587485D01*
X140675500Y-15447475D01*
X140675500Y-15302525D01*
X140637984Y-15162515D01*
X140565509Y-15036985D01*
X140463015Y-14934491D01*
X140462877Y-14934353D01*
X140462568Y-14934123D01*
X140459802Y-14932635D01*
X140409243Y-14903445D01*
X140380808Y-14873624D01*
X140326007Y-14858939D01*
X140326007Y-14858940D01*
X140261740Y-14841720D01*
X140197475Y-14824500D01*
X140197474Y-14824500D01*
X140052525Y-14824500D01*
X139923995Y-14858939D01*
X139923955Y-14858950D01*
X139921780Y-14859532D01*
X139914914Y-14860985D01*
X139911717Y-14861814D01*
X139489220Y-15016905D01*
X139446490Y-15024500D01*
X123803509Y-15024500D01*
X123760779Y-15016905D01*
X123338284Y-14861814D01*
X123336792Y-14861417D01*
X123328438Y-14859591D01*
X123326006Y-14858940D01*
X123326001Y-14858938D01*
X123234577Y-14834441D01*
X123197475Y-14824500D01*
X123197474Y-14824500D01*
X123052525Y-14824500D01*
X122923994Y-14858939D01*
X122923993Y-14858940D01*
X122916362Y-14860985D01*
X122912510Y-14862017D01*
X122786991Y-14934485D01*
X122786984Y-14934490D01*
X122786968Y-14934505D01*
X122684505Y-15036968D01*
X122684490Y-15036984D01*
X122684485Y-15036992D01*
X122612017Y-15162509D01*
X122612004Y-15162541D01*
X122611909Y-15162914D01*
X122574500Y-15302525D01*
X121905289Y-15302525D01*
X124283390Y-12924423D01*
X124311640Y-12903275D01*
X124334732Y-12890667D01*
X124394157Y-12875500D01*
X145982670Y-12875500D01*
X146017606Y-12880523D01*
G37*
%TD.AperFunction*%
%TA.AperFunction,Conductor*%
G36*
X127695130Y-21830462D02*
G01*
X127736996Y-21886384D01*
X127737534Y-21887826D01*
X127742974Y-21906979D01*
X127786406Y-22125321D01*
X127786408Y-22125329D01*
X127786411Y-22125339D01*
X127786414Y-22125347D01*
X127786419Y-22125361D01*
X127862726Y-22309585D01*
X127862731Y-22309594D01*
X127862741Y-22309611D01*
X127973540Y-22475432D01*
X127973541Y-22475433D01*
X127973546Y-22475439D01*
X128114559Y-22616452D01*
X128114565Y-22616457D01*
X128114569Y-22616460D01*
X128280394Y-22727262D01*
X128280407Y-22727269D01*
X128459065Y-22801270D01*
X128463488Y-22803362D01*
X128464227Y-22803505D01*
X128464970Y-22803651D01*
X128660271Y-22842500D01*
X128859725Y-22842500D01*
X128859726Y-22842500D01*
X128906067Y-22833281D01*
X129045094Y-22805627D01*
X129055335Y-22803590D01*
X129219310Y-22735670D01*
X129239592Y-22727269D01*
X129239592Y-22727268D01*
X129239599Y-22727266D01*
X129405431Y-22616460D01*
X129546324Y-22475566D01*
X129554468Y-22468118D01*
X129569754Y-22455343D01*
X129633816Y-22427456D01*
X129702786Y-22438630D01*
X129754762Y-22485312D01*
X129755991Y-22487302D01*
X129774500Y-22552475D01*
X129774500Y-23639251D01*
X129769476Y-23674189D01*
X129766289Y-23685042D01*
X129728514Y-23743819D01*
X129664957Y-23772842D01*
X129595817Y-23762905D01*
X129593333Y-23761771D01*
X129548971Y-23727629D01*
X129546460Y-23724568D01*
X129405432Y-23583540D01*
X129239611Y-23472741D01*
X129239610Y-23472740D01*
X129239605Y-23472737D01*
X129239592Y-23472730D01*
X129239585Y-23472726D01*
X129055361Y-23396419D01*
X129055347Y-23396414D01*
X129055339Y-23396411D01*
X129055329Y-23396408D01*
X129055326Y-23396407D01*
X129055322Y-23396406D01*
X128859728Y-23357500D01*
X128859725Y-23357500D01*
X128859723Y-23357500D01*
X128660277Y-23357500D01*
X128660275Y-23357500D01*
X128660271Y-23357500D01*
X128464676Y-23396406D01*
X128464670Y-23396408D01*
X128464660Y-23396411D01*
X128464655Y-23396412D01*
X128464637Y-23396419D01*
X128280413Y-23472726D01*
X128280404Y-23472731D01*
X128280387Y-23472741D01*
X128114566Y-23583540D01*
X128114565Y-23583541D01*
X128114559Y-23583546D01*
X127973546Y-23724559D01*
X127973541Y-23724565D01*
X127973540Y-23724566D01*
X127862741Y-23890387D01*
X127862731Y-23890404D01*
X127862726Y-23890413D01*
X127786419Y-24074637D01*
X127786406Y-24074676D01*
X127747500Y-24270270D01*
X127747500Y-24425356D01*
X127742237Y-24443276D01*
X127786406Y-24665322D01*
X127786407Y-24665326D01*
X127786408Y-24665329D01*
X127786411Y-24665339D01*
X127786414Y-24665347D01*
X127786419Y-24665361D01*
X127862726Y-24849585D01*
X127862731Y-24849594D01*
X127862741Y-24849611D01*
X127973540Y-25015432D01*
X127973541Y-25015433D01*
X127973546Y-25015439D01*
X128114559Y-25156452D01*
X128114565Y-25156457D01*
X128114569Y-25156460D01*
X128280394Y-25267262D01*
X128280407Y-25267269D01*
X128280409Y-25267269D01*
X128280413Y-25267272D01*
X128369949Y-25304358D01*
X128444226Y-25335124D01*
X128459055Y-25341266D01*
X128463464Y-25343351D01*
X128464669Y-25343590D01*
X128464670Y-25343591D01*
X128476042Y-25345853D01*
X128660271Y-25382500D01*
X128859725Y-25382500D01*
X128859726Y-25382500D01*
X128906067Y-25373281D01*
X129045094Y-25345627D01*
X129055335Y-25343590D01*
X129239599Y-25267266D01*
X129405431Y-25156460D01*
X129546460Y-25015431D01*
X129657266Y-24849599D01*
X129658964Y-24845501D01*
X129718563Y-24701614D01*
X129733590Y-24665335D01*
X129733683Y-24664871D01*
X129765049Y-24507183D01*
X129765049Y-24507181D01*
X129765177Y-24506541D01*
X129772500Y-24469725D01*
X129772500Y-24270274D01*
X129772500Y-24270271D01*
X129730003Y-24056630D01*
X129730577Y-24056515D01*
X129725759Y-24040886D01*
X129725052Y-24034306D01*
X129737456Y-23965549D01*
X129785066Y-23914411D01*
X129852765Y-23897131D01*
X129913503Y-23915554D01*
X129917863Y-23918247D01*
X129940382Y-23936064D01*
X130659788Y-24655470D01*
X130660467Y-24655862D01*
X130673947Y-24664869D01*
X130681731Y-24670843D01*
X130686736Y-24674683D01*
X130698930Y-24685377D01*
X131130963Y-25117410D01*
X131164448Y-25178733D01*
X131159464Y-25248425D01*
X131117592Y-25304358D01*
X131105284Y-25312477D01*
X131066063Y-25335122D01*
X131066057Y-25335126D01*
X130995126Y-25406057D01*
X130995119Y-25406066D01*
X130972476Y-25445284D01*
X130921908Y-25493498D01*
X130853300Y-25506719D01*
X130788436Y-25480749D01*
X130777410Y-25470962D01*
X130247730Y-24941282D01*
X130220642Y-24978564D01*
X130160898Y-25095818D01*
X130130457Y-25155562D01*
X130122928Y-25178733D01*
X130069075Y-25344474D01*
X130068857Y-25345853D01*
X130038000Y-25540678D01*
X130038000Y-25739321D01*
X130059322Y-25873940D01*
X130067548Y-25925878D01*
X130067549Y-25925886D01*
X130069075Y-25935524D01*
X130130458Y-26124441D01*
X130220641Y-26301433D01*
X130247727Y-26338712D01*
X130247730Y-26338716D01*
X130247730Y-26338715D01*
X130247731Y-26338716D01*
X130777412Y-25809034D01*
X130838733Y-25775551D01*
X130908424Y-25780535D01*
X130964358Y-25822406D01*
X130972476Y-25834714D01*
X130995124Y-25873940D01*
X131066060Y-25944876D01*
X131066063Y-25944877D01*
X131066066Y-25944880D01*
X131105282Y-25967522D01*
X131153497Y-26018089D01*
X131166719Y-26086697D01*
X131140751Y-26151561D01*
X131130962Y-26162589D01*
X130601283Y-26692267D01*
X130601282Y-26692268D01*
X130601283Y-26692268D01*
X130601283Y-26692269D01*
X130638567Y-26719358D01*
X130722187Y-26761965D01*
X130815557Y-26809540D01*
X130815559Y-26809540D01*
X130815562Y-26809542D01*
X130879378Y-26830277D01*
X131004476Y-26870924D01*
X131100280Y-26886098D01*
X131200679Y-26902000D01*
X131399320Y-26902000D01*
X131399321Y-26902000D01*
X131543939Y-26879094D01*
X131585880Y-26872451D01*
X131585886Y-26872450D01*
X131591483Y-26871563D01*
X131595520Y-26870924D01*
X131595523Y-26870924D01*
X131784437Y-26809542D01*
X131815324Y-26793804D01*
X131848724Y-26782422D01*
X131862371Y-26779860D01*
X131931892Y-26786834D01*
X131986598Y-26830277D01*
X131988520Y-26833003D01*
X132009503Y-26884152D01*
X132009826Y-26886098D01*
X132011500Y-26906402D01*
X132011500Y-27187867D01*
X132006475Y-27222809D01*
X132002637Y-27235877D01*
X131964859Y-27294653D01*
X131901301Y-27323674D01*
X131839283Y-27316721D01*
X131831569Y-27313765D01*
X131807061Y-27301082D01*
X131779617Y-27282745D01*
X131779616Y-27282744D01*
X131779605Y-27282737D01*
X131779592Y-27282730D01*
X131779585Y-27282726D01*
X131595361Y-27206419D01*
X131595347Y-27206414D01*
X131595339Y-27206411D01*
X131595329Y-27206408D01*
X131595326Y-27206407D01*
X131595322Y-27206406D01*
X131399728Y-27167500D01*
X131399725Y-27167500D01*
X131399723Y-27167500D01*
X131200277Y-27167500D01*
X131200275Y-27167500D01*
X131200271Y-27167500D01*
X131004676Y-27206406D01*
X131004670Y-27206408D01*
X131004660Y-27206411D01*
X131004655Y-27206412D01*
X131004637Y-27206419D01*
X130820413Y-27282726D01*
X130820404Y-27282731D01*
X130820399Y-27282734D01*
X130820394Y-27282737D01*
X130781390Y-27308799D01*
X130654566Y-27393540D01*
X130654565Y-27393541D01*
X130654559Y-27393546D01*
X130513546Y-27534559D01*
X130513541Y-27534565D01*
X130513540Y-27534566D01*
X130402741Y-27700387D01*
X130402731Y-27700404D01*
X130402726Y-27700413D01*
X130326419Y-27884637D01*
X130326406Y-27884676D01*
X130287500Y-28080270D01*
X130287500Y-28235356D01*
X130282237Y-28253276D01*
X130326406Y-28475322D01*
X130326407Y-28475326D01*
X130326408Y-28475329D01*
X130326411Y-28475339D01*
X130326414Y-28475347D01*
X130326419Y-28475361D01*
X130402726Y-28659585D01*
X130402731Y-28659594D01*
X130402741Y-28659611D01*
X130513540Y-28825432D01*
X130513541Y-28825433D01*
X130513546Y-28825439D01*
X130654559Y-28966452D01*
X130654565Y-28966457D01*
X130654569Y-28966460D01*
X130820394Y-29077262D01*
X130820407Y-29077269D01*
X130820409Y-29077269D01*
X130820413Y-29077272D01*
X130963427Y-29136509D01*
X130999049Y-29151264D01*
X131003462Y-29153351D01*
X131200271Y-29192500D01*
X131399725Y-29192500D01*
X131399727Y-29192500D01*
X131502124Y-29172131D01*
X131569635Y-29158702D01*
X131595335Y-29153590D01*
X131702039Y-29109392D01*
X131737840Y-29094563D01*
X131746341Y-29091041D01*
X131773053Y-29079977D01*
X131775843Y-29079005D01*
X131777288Y-29078336D01*
X131781945Y-29076294D01*
X131791206Y-29072457D01*
X131800085Y-29063577D01*
X131803783Y-29061106D01*
X131835622Y-29045873D01*
X131844516Y-29043088D01*
X131848621Y-29041803D01*
X131918479Y-29040557D01*
X131977921Y-29077277D01*
X132006594Y-29132687D01*
X132008423Y-29140744D01*
X132011500Y-29168195D01*
X132011500Y-29727867D01*
X132006475Y-29762809D01*
X132002637Y-29775877D01*
X131964859Y-29834653D01*
X131901301Y-29863674D01*
X131839283Y-29856721D01*
X131831569Y-29853765D01*
X131807061Y-29841082D01*
X131779617Y-29822745D01*
X131779616Y-29822744D01*
X131779605Y-29822737D01*
X131779592Y-29822730D01*
X131779585Y-29822726D01*
X131595361Y-29746419D01*
X131595347Y-29746414D01*
X131595339Y-29746411D01*
X131595329Y-29746408D01*
X131595326Y-29746407D01*
X131595322Y-29746406D01*
X131399728Y-29707500D01*
X131399725Y-29707500D01*
X131399723Y-29707500D01*
X131200277Y-29707500D01*
X131200275Y-29707500D01*
X131200271Y-29707500D01*
X131004676Y-29746406D01*
X131004670Y-29746408D01*
X131004660Y-29746411D01*
X131004655Y-29746412D01*
X131004637Y-29746419D01*
X130820413Y-29822726D01*
X130820404Y-29822731D01*
X130820399Y-29822734D01*
X130820394Y-29822737D01*
X130781390Y-29848799D01*
X130654566Y-29933540D01*
X130654565Y-29933541D01*
X130654559Y-29933546D01*
X130513546Y-30074559D01*
X130513541Y-30074565D01*
X130513540Y-30074566D01*
X130402741Y-30240387D01*
X130402731Y-30240404D01*
X130402726Y-30240413D01*
X130326419Y-30424637D01*
X130326406Y-30424676D01*
X130287500Y-30620270D01*
X130287500Y-30775356D01*
X130282237Y-30793276D01*
X130326406Y-31015322D01*
X130326407Y-31015326D01*
X130326408Y-31015329D01*
X130326411Y-31015339D01*
X130326415Y-31015349D01*
X130326418Y-31015357D01*
X130402726Y-31199585D01*
X130402731Y-31199594D01*
X130402741Y-31199611D01*
X130513540Y-31365432D01*
X130513541Y-31365433D01*
X130513546Y-31365439D01*
X130654559Y-31506452D01*
X130654565Y-31506457D01*
X130654569Y-31506460D01*
X130820394Y-31617262D01*
X130820407Y-31617269D01*
X130820409Y-31617269D01*
X130820413Y-31617272D01*
X130980573Y-31683611D01*
X130999054Y-31691265D01*
X131003463Y-31693351D01*
X131200271Y-31732500D01*
X131399725Y-31732500D01*
X131399726Y-31732500D01*
X131475500Y-31717427D01*
X131585094Y-31695627D01*
X131595335Y-31693590D01*
X131760831Y-31625040D01*
X131779592Y-31617269D01*
X131779592Y-31617268D01*
X131779599Y-31617266D01*
X131803783Y-31601107D01*
X131835617Y-31585874D01*
X131848620Y-31581802D01*
X131918477Y-31580556D01*
X131977920Y-31617275D01*
X132006594Y-31672687D01*
X132008423Y-31680744D01*
X132011500Y-31708195D01*
X132011500Y-32267867D01*
X132006475Y-32302809D01*
X132002637Y-32315877D01*
X131964859Y-32374653D01*
X131901301Y-32403674D01*
X131839283Y-32396721D01*
X131831569Y-32393765D01*
X131807061Y-32381082D01*
X131779617Y-32362745D01*
X131779616Y-32362744D01*
X131779605Y-32362737D01*
X131779592Y-32362730D01*
X131779585Y-32362726D01*
X131595361Y-32286419D01*
X131595347Y-32286414D01*
X131595339Y-32286411D01*
X131595329Y-32286408D01*
X131595326Y-32286407D01*
X131595322Y-32286406D01*
X131399728Y-32247500D01*
X131399725Y-32247500D01*
X131399723Y-32247500D01*
X131200277Y-32247500D01*
X131200275Y-32247500D01*
X131200271Y-32247500D01*
X131004676Y-32286406D01*
X131004670Y-32286408D01*
X131004660Y-32286411D01*
X131004655Y-32286412D01*
X131004637Y-32286419D01*
X130820413Y-32362726D01*
X130820404Y-32362731D01*
X130820387Y-32362741D01*
X130654566Y-32473540D01*
X130654565Y-32473541D01*
X130654559Y-32473546D01*
X130513546Y-32614559D01*
X130513541Y-32614565D01*
X130513540Y-32614566D01*
X130402741Y-32780387D01*
X130402731Y-32780404D01*
X130402726Y-32780413D01*
X130326419Y-32964637D01*
X130326406Y-32964676D01*
X130287500Y-33160270D01*
X130287500Y-33315356D01*
X130282237Y-33333276D01*
X130326406Y-33555322D01*
X130326407Y-33555326D01*
X130326408Y-33555329D01*
X130326411Y-33555339D01*
X130326414Y-33555347D01*
X130326419Y-33555361D01*
X130402726Y-33739585D01*
X130402731Y-33739594D01*
X130402741Y-33739611D01*
X130513540Y-33905432D01*
X130513541Y-33905433D01*
X130513546Y-33905439D01*
X130654559Y-34046452D01*
X130654565Y-34046457D01*
X130654569Y-34046460D01*
X130820394Y-34157262D01*
X130820407Y-34157269D01*
X130820409Y-34157269D01*
X130820413Y-34157272D01*
X130980573Y-34223611D01*
X130999054Y-34231265D01*
X131003463Y-34233351D01*
X131200271Y-34272500D01*
X131399725Y-34272500D01*
X131399726Y-34272500D01*
X131426044Y-34267264D01*
X131531324Y-34246322D01*
X131531325Y-34246322D01*
X131544196Y-34243761D01*
X131595335Y-34233590D01*
X131758000Y-34166212D01*
X131779592Y-34157269D01*
X131779592Y-34157268D01*
X131779599Y-34157266D01*
X131803783Y-34141107D01*
X131835617Y-34125874D01*
X131848620Y-34121802D01*
X131918477Y-34120556D01*
X131977920Y-34157275D01*
X132006594Y-34212687D01*
X132008423Y-34220744D01*
X132011500Y-34248195D01*
X132011500Y-34807867D01*
X132006475Y-34842809D01*
X132002637Y-34855877D01*
X131964859Y-34914653D01*
X131901301Y-34943674D01*
X131839283Y-34936721D01*
X131831569Y-34933765D01*
X131807061Y-34921082D01*
X131779617Y-34902745D01*
X131779616Y-34902744D01*
X131779605Y-34902737D01*
X131779592Y-34902730D01*
X131779585Y-34902726D01*
X131595361Y-34826419D01*
X131595347Y-34826414D01*
X131595339Y-34826411D01*
X131595329Y-34826408D01*
X131595326Y-34826407D01*
X131595322Y-34826406D01*
X131399728Y-34787500D01*
X131399725Y-34787500D01*
X131399723Y-34787500D01*
X131200277Y-34787500D01*
X131200275Y-34787500D01*
X131200271Y-34787500D01*
X131004676Y-34826406D01*
X131004670Y-34826408D01*
X131004660Y-34826411D01*
X131004655Y-34826412D01*
X131004637Y-34826419D01*
X130820413Y-34902726D01*
X130820404Y-34902731D01*
X130820387Y-34902741D01*
X130654566Y-35013540D01*
X130654565Y-35013541D01*
X130654559Y-35013546D01*
X130513546Y-35154559D01*
X130513541Y-35154565D01*
X130513540Y-35154566D01*
X130402735Y-35320396D01*
X130402734Y-35320398D01*
X130369574Y-35400454D01*
X130351567Y-35430804D01*
X130344480Y-35439599D01*
X130287089Y-35479449D01*
X130217264Y-35481945D01*
X130157174Y-35446295D01*
X130130524Y-35401704D01*
X129735874Y-34240633D01*
X129734745Y-34236419D01*
X129731277Y-34229082D01*
X129729011Y-34223611D01*
X129727823Y-34220744D01*
X129701531Y-34157267D01*
X129657269Y-34050407D01*
X129657262Y-34050394D01*
X129546460Y-33884569D01*
X129546457Y-33884565D01*
X129546452Y-33884559D01*
X129405439Y-33743546D01*
X129405433Y-33743541D01*
X129405432Y-33743540D01*
X129239611Y-33632741D01*
X129239606Y-33632738D01*
X129239605Y-33632737D01*
X129239592Y-33632730D01*
X129239585Y-33632726D01*
X129055361Y-33556419D01*
X129055347Y-33556414D01*
X129055339Y-33556411D01*
X129055329Y-33556408D01*
X129055326Y-33556407D01*
X129055322Y-33556406D01*
X128859728Y-33517500D01*
X128859725Y-33517500D01*
X128859723Y-33517500D01*
X128660277Y-33517500D01*
X128660275Y-33517500D01*
X128660271Y-33517500D01*
X128464676Y-33556406D01*
X128464670Y-33556408D01*
X128464660Y-33556411D01*
X128464655Y-33556412D01*
X128464637Y-33556419D01*
X128280413Y-33632726D01*
X128280404Y-33632731D01*
X128280387Y-33632741D01*
X128114573Y-33743536D01*
X128114568Y-33743539D01*
X128114559Y-33743547D01*
X128074787Y-33783320D01*
X128046533Y-33804471D01*
X128036607Y-33809891D01*
X127968334Y-33824743D01*
X127902870Y-33800326D01*
X127860999Y-33744395D01*
X127858313Y-33737191D01*
X127850500Y-33693871D01*
X127850500Y-32829583D01*
X127855521Y-32794656D01*
X127857535Y-32787794D01*
X127858707Y-32783801D01*
X127896477Y-32725022D01*
X127960031Y-32695993D01*
X128029186Y-32705931D01*
X128036172Y-32709121D01*
X128072343Y-32734235D01*
X128114560Y-32776453D01*
X128114565Y-32776457D01*
X128114569Y-32776460D01*
X128280394Y-32887262D01*
X128280407Y-32887269D01*
X128280409Y-32887269D01*
X128280413Y-32887272D01*
X128440573Y-32953611D01*
X128459054Y-32961265D01*
X128463463Y-32963351D01*
X128660271Y-33002500D01*
X128859725Y-33002500D01*
X128859726Y-33002500D01*
X128906067Y-32993281D01*
X129045094Y-32965627D01*
X129055335Y-32963590D01*
X129239585Y-32887272D01*
X129239592Y-32887269D01*
X129239592Y-32887268D01*
X129239599Y-32887266D01*
X129405431Y-32776460D01*
X129546460Y-32635431D01*
X129657266Y-32469599D01*
X129733590Y-32285335D01*
X129734999Y-32278255D01*
X129763323Y-32135860D01*
X129763323Y-32135857D01*
X129772500Y-32089725D01*
X129772500Y-31890271D01*
X129733351Y-31693463D01*
X129731264Y-31689050D01*
X129729011Y-31683611D01*
X129723840Y-31671126D01*
X129701533Y-31617272D01*
X129657272Y-31510413D01*
X129657267Y-31510404D01*
X129657262Y-31510394D01*
X129546460Y-31344569D01*
X129546457Y-31344565D01*
X129546452Y-31344559D01*
X129405439Y-31203546D01*
X129405433Y-31203541D01*
X129405432Y-31203540D01*
X129239611Y-31092741D01*
X129239606Y-31092738D01*
X129239605Y-31092737D01*
X129239592Y-31092730D01*
X129239585Y-31092726D01*
X129055361Y-31016419D01*
X129055347Y-31016414D01*
X129055339Y-31016411D01*
X129055329Y-31016408D01*
X129055326Y-31016407D01*
X129055322Y-31016406D01*
X128859728Y-30977500D01*
X128859725Y-30977500D01*
X128859723Y-30977500D01*
X128660277Y-30977500D01*
X128660275Y-30977500D01*
X128660271Y-30977500D01*
X128464676Y-31016406D01*
X128464670Y-31016408D01*
X128464660Y-31016411D01*
X128464655Y-31016412D01*
X128464637Y-31016419D01*
X128280410Y-31092728D01*
X128280405Y-31092730D01*
X128280396Y-31092735D01*
X128258210Y-31107559D01*
X128226375Y-31122790D01*
X128213380Y-31126859D01*
X128143521Y-31128106D01*
X128084078Y-31091387D01*
X128055401Y-31035961D01*
X128053572Y-31027902D01*
X128050500Y-31000471D01*
X128050500Y-30443468D01*
X128055523Y-30408534D01*
X128059360Y-30395466D01*
X128097134Y-30336688D01*
X128160689Y-30307662D01*
X128222705Y-30314610D01*
X128230428Y-30317570D01*
X128254939Y-30330253D01*
X128278789Y-30346189D01*
X128279991Y-30347019D01*
X128280393Y-30347260D01*
X128280394Y-30347261D01*
X128280401Y-30347266D01*
X128280403Y-30347267D01*
X128280407Y-30347269D01*
X128459056Y-30421267D01*
X128463487Y-30423362D01*
X128464227Y-30423505D01*
X128464970Y-30423651D01*
X128660271Y-30462500D01*
X128859725Y-30462500D01*
X128859727Y-30462500D01*
X128962124Y-30442131D01*
X129029635Y-30428702D01*
X129055335Y-30423590D01*
X129239145Y-30347454D01*
X129239592Y-30347269D01*
X129239592Y-30347268D01*
X129239599Y-30347266D01*
X129405431Y-30236460D01*
X129546460Y-30095431D01*
X129657266Y-29929599D01*
X129658964Y-29925501D01*
X129701529Y-29822737D01*
X129733590Y-29745335D01*
X129746322Y-29681324D01*
X129772500Y-29549725D01*
X129772500Y-29350271D01*
X129733351Y-29153463D01*
X129731264Y-29149050D01*
X129729011Y-29143611D01*
X129720789Y-29123760D01*
X129701974Y-29078336D01*
X129657272Y-28970413D01*
X129657267Y-28970404D01*
X129657262Y-28970394D01*
X129546460Y-28804569D01*
X129546457Y-28804565D01*
X129546452Y-28804559D01*
X129405439Y-28663546D01*
X129405433Y-28663541D01*
X129405432Y-28663540D01*
X129239611Y-28552741D01*
X129239606Y-28552738D01*
X129239605Y-28552737D01*
X129239592Y-28552730D01*
X129239585Y-28552726D01*
X129055361Y-28476419D01*
X129055347Y-28476414D01*
X129055339Y-28476411D01*
X129055329Y-28476408D01*
X129055326Y-28476407D01*
X129055322Y-28476406D01*
X128859728Y-28437500D01*
X128859725Y-28437500D01*
X128859723Y-28437500D01*
X128660277Y-28437500D01*
X128660275Y-28437500D01*
X128660271Y-28437500D01*
X128464676Y-28476406D01*
X128464670Y-28476408D01*
X128464660Y-28476411D01*
X128464655Y-28476412D01*
X128464637Y-28476419D01*
X128280412Y-28552726D01*
X128280402Y-28552731D01*
X128280394Y-28552736D01*
X128280393Y-28552736D01*
X128193653Y-28610695D01*
X128161814Y-28625928D01*
X128147091Y-28630538D01*
X128077233Y-28631785D01*
X128021060Y-28598567D01*
X128013266Y-28590537D01*
X127994860Y-28566176D01*
X127987500Y-28553429D01*
X127987498Y-28553426D01*
X127978471Y-28537791D01*
X127978467Y-28537786D01*
X127852617Y-28411936D01*
X127827771Y-28376347D01*
X127817650Y-28354485D01*
X127817650Y-28354486D01*
X127638687Y-27967931D01*
X127638685Y-27967929D01*
X127638682Y-27967921D01*
X127637918Y-27966604D01*
X127633300Y-27959403D01*
X127611994Y-27922500D01*
X127596880Y-27896322D01*
X127565513Y-27841991D01*
X127565508Y-27841984D01*
X127565493Y-27841968D01*
X127463030Y-27739505D01*
X127463014Y-27739490D01*
X127463006Y-27739485D01*
X127409243Y-27708445D01*
X127380808Y-27678624D01*
X127326007Y-27663939D01*
X127326007Y-27663940D01*
X127240587Y-27641052D01*
X127197475Y-27629500D01*
X127197474Y-27629500D01*
X127052523Y-27629500D01*
X127023810Y-27637193D01*
X126988771Y-27641382D01*
X126974897Y-27641052D01*
X126908345Y-27619779D01*
X126863860Y-27565903D01*
X126860508Y-27558076D01*
X126850500Y-27509272D01*
X126850500Y-26983276D01*
X127742237Y-26983276D01*
X127786406Y-27205322D01*
X127786407Y-27205326D01*
X127786408Y-27205329D01*
X127786411Y-27205339D01*
X127786414Y-27205347D01*
X127786419Y-27205361D01*
X127862726Y-27389585D01*
X127862731Y-27389594D01*
X127862741Y-27389611D01*
X127973540Y-27555432D01*
X127973541Y-27555433D01*
X127973546Y-27555439D01*
X128114559Y-27696452D01*
X128114565Y-27696457D01*
X128114569Y-27696460D01*
X128280394Y-27807262D01*
X128280407Y-27807269D01*
X128280409Y-27807269D01*
X128280413Y-27807272D01*
X128440573Y-27873611D01*
X128459054Y-27881265D01*
X128463463Y-27883351D01*
X128660271Y-27922500D01*
X128859725Y-27922500D01*
X128859726Y-27922500D01*
X128886044Y-27917264D01*
X128991324Y-27896322D01*
X128991325Y-27896322D01*
X129004196Y-27893761D01*
X129055335Y-27883590D01*
X129239585Y-27807272D01*
X129239592Y-27807269D01*
X129239592Y-27807268D01*
X129239599Y-27807266D01*
X129405431Y-27696460D01*
X129546460Y-27555431D01*
X129657266Y-27389599D01*
X129658964Y-27385501D01*
X129701529Y-27282737D01*
X129733590Y-27205335D01*
X129761740Y-27063818D01*
X129772500Y-27009725D01*
X129772500Y-26810274D01*
X129772500Y-26810271D01*
X129733351Y-26613464D01*
X129731266Y-26609056D01*
X129715912Y-26571985D01*
X129664585Y-26448069D01*
X129657272Y-26430413D01*
X129657267Y-26430404D01*
X129657262Y-26430394D01*
X129546460Y-26264569D01*
X129546457Y-26264565D01*
X129546452Y-26264559D01*
X129405439Y-26123546D01*
X129405433Y-26123541D01*
X129405432Y-26123540D01*
X129239611Y-26012741D01*
X129239606Y-26012738D01*
X129239605Y-26012737D01*
X129239592Y-26012730D01*
X129239585Y-26012726D01*
X129055361Y-25936419D01*
X129055347Y-25936414D01*
X129055339Y-25936411D01*
X129055329Y-25936408D01*
X129055326Y-25936407D01*
X129055322Y-25936406D01*
X128859728Y-25897500D01*
X128859725Y-25897500D01*
X128859723Y-25897500D01*
X128660277Y-25897500D01*
X128660275Y-25897500D01*
X128660271Y-25897500D01*
X128464676Y-25936406D01*
X128464670Y-25936408D01*
X128464660Y-25936411D01*
X128464655Y-25936412D01*
X128464637Y-25936419D01*
X128280413Y-26012726D01*
X128280404Y-26012731D01*
X128280387Y-26012741D01*
X128114566Y-26123540D01*
X128114565Y-26123541D01*
X128114559Y-26123546D01*
X127973546Y-26264559D01*
X127973541Y-26264565D01*
X127973540Y-26264566D01*
X127862741Y-26430387D01*
X127862731Y-26430404D01*
X127862726Y-26430413D01*
X127786419Y-26614637D01*
X127786406Y-26614676D01*
X127747500Y-26810270D01*
X127747500Y-26965356D01*
X127742237Y-26983276D01*
X126850500Y-26983276D01*
X126850500Y-24603858D01*
X126850500Y-24603856D01*
X126826614Y-24514712D01*
X126821918Y-24506579D01*
X126821907Y-24506534D01*
X126821896Y-24506541D01*
X126821895Y-24506539D01*
X126821175Y-24505291D01*
X126821174Y-24505290D01*
X126819342Y-24502114D01*
X126819316Y-24502072D01*
X126816156Y-24496599D01*
X126816154Y-24496595D01*
X126780470Y-24434788D01*
X126342566Y-23996884D01*
X126312844Y-23949109D01*
X125925869Y-22810616D01*
X125924743Y-22806413D01*
X125921275Y-22799077D01*
X125912382Y-22777607D01*
X125911238Y-22774845D01*
X125910944Y-22774136D01*
X125873885Y-22684666D01*
X125847269Y-22620407D01*
X125847262Y-22620394D01*
X125820414Y-22580214D01*
X125805184Y-22548378D01*
X125801114Y-22535380D01*
X125799866Y-22465522D01*
X125836585Y-22406079D01*
X125892012Y-22377401D01*
X125900075Y-22375571D01*
X125927502Y-22372500D01*
X126899142Y-22372500D01*
X126899144Y-22372500D01*
X126988288Y-22348614D01*
X127068212Y-22302470D01*
X127523217Y-21847462D01*
X127551460Y-21826320D01*
X127561395Y-21820895D01*
X127629666Y-21806045D01*
X127695130Y-21830462D01*
G37*
%TD.AperFunction*%
%TA.AperFunction,Conductor*%
G36*
X127695126Y-18881459D02*
G01*
X127736999Y-18937391D01*
X127737001Y-18937395D01*
X127739682Y-18944583D01*
X127747500Y-18987917D01*
X127747500Y-20076678D01*
X127747500Y-20076680D01*
X127747499Y-20076680D01*
X127760710Y-20143089D01*
X127762032Y-20149735D01*
X127762033Y-20149739D01*
X127762033Y-20149740D01*
X127762034Y-20149741D01*
X127776332Y-20171139D01*
X127776333Y-20171141D01*
X127817398Y-20232600D01*
X127817403Y-20232604D01*
X127874357Y-20270659D01*
X127900616Y-20294246D01*
X127909513Y-20304892D01*
X127937398Y-20368955D01*
X127926223Y-20437922D01*
X127921471Y-20447855D01*
X127897294Y-20482022D01*
X126756744Y-21622573D01*
X126728493Y-21643722D01*
X126705405Y-21656330D01*
X126645975Y-21671500D01*
X126391374Y-21671500D01*
X126356439Y-21666477D01*
X126345585Y-21663290D01*
X126286807Y-21625516D01*
X126257782Y-21561960D01*
X126267722Y-21492811D01*
X126270912Y-21485824D01*
X126296019Y-21449662D01*
X126452014Y-21293668D01*
X126655470Y-21090212D01*
X126701614Y-21010288D01*
X126725500Y-20921143D01*
X126725500Y-20828856D01*
X126725500Y-19765372D01*
X126730522Y-19730439D01*
X126737934Y-19705194D01*
X126769228Y-19652452D01*
X127523214Y-18898466D01*
X127551457Y-18877322D01*
X127561391Y-18871898D01*
X127629661Y-18857045D01*
X127695126Y-18881459D01*
G37*
%TD.AperFunction*%
%TD*%
%TA.AperFunction,Conductor*%
%TO.N,/~{WE0}*%
G36*
X144900809Y-42014431D02*
G01*
X144906830Y-42020274D01*
X145085794Y-42406831D01*
X145114727Y-42469324D01*
X145115093Y-42478272D01*
X145112383Y-42482513D01*
X144982513Y-42612383D01*
X144974240Y-42615810D01*
X144969325Y-42614727D01*
X144520274Y-42406830D01*
X144514208Y-42400246D01*
X144514332Y-42391856D01*
X144620616Y-42127114D01*
X144626879Y-42120714D01*
X144627084Y-42120628D01*
X144891856Y-42014333D01*
X144900809Y-42014431D01*
G37*
%TD.AperFunction*%
%TD*%
%TA.AperFunction,Conductor*%
%TO.N,/~{WE0}*%
G36*
X143597301Y-65480255D02*
G01*
X143601279Y-65481903D01*
X143605072Y-65484438D01*
X143925767Y-65805133D01*
X143928303Y-65808927D01*
X143928985Y-65810573D01*
X143928986Y-65819528D01*
X143928980Y-65819542D01*
X143928660Y-65820312D01*
X143923879Y-65825853D01*
X143507094Y-66076105D01*
X143502796Y-66077646D01*
X143499228Y-66078178D01*
X143492945Y-66077382D01*
X143411816Y-66043069D01*
X143408038Y-66040503D01*
X143405889Y-66038321D01*
X143402525Y-66030165D01*
X143400064Y-65493444D01*
X143400935Y-65488964D01*
X143401610Y-65487314D01*
X143407912Y-65480955D01*
X143408924Y-65480530D01*
X143409532Y-65480276D01*
X143414056Y-65479366D01*
X143592827Y-65479366D01*
X143597301Y-65480255D01*
G37*
%TD.AperFunction*%
%TD*%
%TA.AperFunction,Conductor*%
%TO.N,/SD1*%
G36*
X135832613Y-29232450D02*
G01*
X135840348Y-29236543D01*
X135841388Y-29237776D01*
X135843523Y-29241555D01*
X136252655Y-30445231D01*
X136253252Y-30449758D01*
X136253046Y-30452915D01*
X136249644Y-30460426D01*
X136121117Y-30588953D01*
X136117321Y-30591490D01*
X136114397Y-30592701D01*
X136106155Y-30592969D01*
X134901664Y-30183560D01*
X134897712Y-30181276D01*
X134896275Y-30180015D01*
X134892334Y-30172204D01*
X134892198Y-30170591D01*
X134892643Y-30166279D01*
X135104229Y-29454999D01*
X135106358Y-29450963D01*
X135108532Y-29448284D01*
X135114278Y-29444443D01*
X135826170Y-29232675D01*
X135830703Y-29232252D01*
X135832613Y-29232450D01*
G37*
%TD.AperFunction*%
%TD*%
%TA.AperFunction,Conductor*%
%TO.N,/SD1*%
G36*
X135793980Y-50403456D02*
G01*
X135796704Y-50404585D01*
X135802092Y-50409103D01*
X135802136Y-50409172D01*
X135803254Y-50411431D01*
X135972532Y-50872580D01*
X135973239Y-50877090D01*
X135973159Y-50879048D01*
X135969620Y-50886963D01*
X135968506Y-50888044D01*
X135964952Y-50890410D01*
X135706733Y-51000690D01*
X135702267Y-51001629D01*
X135698096Y-51001675D01*
X135693373Y-51000736D01*
X135589588Y-50956411D01*
X135435193Y-50890472D01*
X135431426Y-50887895D01*
X135430056Y-50886495D01*
X135426719Y-50878485D01*
X135426698Y-50877090D01*
X135426696Y-50876930D01*
X135427412Y-50872727D01*
X135427466Y-50872580D01*
X135596384Y-50412416D01*
X135598758Y-50408527D01*
X135600760Y-50406354D01*
X135606868Y-50402853D01*
X135606953Y-50402834D01*
X135609441Y-50402567D01*
X135789505Y-50402567D01*
X135793980Y-50403456D01*
G37*
%TD.AperFunction*%
%TD*%
%TA.AperFunction,Conductor*%
%TO.N,/SD0*%
G36*
X136393064Y-51107977D02*
G01*
X136393149Y-51108012D01*
X136395482Y-51108978D01*
X136401174Y-51113998D01*
X136401473Y-51114523D01*
X136402641Y-51117414D01*
X136547983Y-51685696D01*
X136548229Y-51690256D01*
X136547976Y-51692020D01*
X136543410Y-51699723D01*
X136543406Y-51699725D01*
X136542702Y-51700252D01*
X136535964Y-51702583D01*
X136306848Y-51707927D01*
X136302531Y-51707208D01*
X136298643Y-51705775D01*
X136294892Y-51703521D01*
X136277476Y-51687952D01*
X136055665Y-51489661D01*
X136052920Y-51486011D01*
X136051653Y-51483378D01*
X136050652Y-51476398D01*
X136050672Y-51476278D01*
X136051370Y-51473799D01*
X136161624Y-51201767D01*
X136161933Y-51201073D01*
X136162307Y-51200310D01*
X136162657Y-51199653D01*
X136166392Y-51193186D01*
X136168638Y-51184798D01*
X136168837Y-51184141D01*
X136169057Y-51183485D01*
X136169300Y-51182832D01*
X136196166Y-51116544D01*
X136198671Y-51112733D01*
X136200799Y-51110574D01*
X136209047Y-51107087D01*
X136388589Y-51107087D01*
X136393064Y-51107977D01*
G37*
%TD.AperFunction*%
%TD*%
%TA.AperFunction,Conductor*%
%TO.N,/SD0*%
G36*
X137647230Y-28174893D02*
G01*
X137654182Y-28180535D01*
X137655107Y-28182770D01*
X137867966Y-28898329D01*
X137867041Y-28907236D01*
X137860447Y-28912766D01*
X136683018Y-29304621D01*
X136674086Y-29303982D01*
X136668222Y-29297215D01*
X136668513Y-29289044D01*
X136680364Y-29260436D01*
X136499700Y-29260436D01*
X136491427Y-29257009D01*
X136488000Y-29248736D01*
X136488000Y-29244325D01*
X136488891Y-29239848D01*
X136517289Y-29171289D01*
X136917234Y-27969550D01*
X136923097Y-27962785D01*
X136931669Y-27962033D01*
X137647230Y-28174893D01*
G37*
%TD.AperFunction*%
%TD*%
%TA.AperFunction,Conductor*%
%TO.N,/A6*%
G36*
X139583255Y-50038166D02*
G01*
X139586606Y-50045111D01*
X139648798Y-50589483D01*
X139646333Y-50598092D01*
X139639657Y-50602245D01*
X139494360Y-50633797D01*
X139485548Y-50632203D01*
X139481380Y-50627530D01*
X139322713Y-50305221D01*
X139321839Y-50297301D01*
X139362720Y-50128483D01*
X139383255Y-50043685D01*
X139388532Y-50036451D01*
X139394626Y-50034739D01*
X139574982Y-50034739D01*
X139583255Y-50038166D01*
G37*
%TD.AperFunction*%
%TD*%
%TA.AperFunction,Conductor*%
%TO.N,/A6*%
G36*
X140743718Y-36852642D02*
G01*
X140774045Y-36861664D01*
X140930242Y-36908128D01*
X141454998Y-37064229D01*
X141459035Y-37066358D01*
X141461715Y-37068533D01*
X141465556Y-37074282D01*
X141677322Y-37786167D01*
X141677746Y-37790708D01*
X141677549Y-37792610D01*
X141673455Y-37800348D01*
X141672222Y-37801388D01*
X141668443Y-37803523D01*
X140464767Y-38212655D01*
X140460240Y-38213252D01*
X140457083Y-38213046D01*
X140449572Y-38209644D01*
X140321045Y-38081117D01*
X140318510Y-38077324D01*
X140317296Y-38074395D01*
X140317029Y-38066156D01*
X140407772Y-37799189D01*
X140726440Y-36861660D01*
X140728722Y-36857712D01*
X140729984Y-36856274D01*
X140737793Y-36852334D01*
X140739407Y-36852198D01*
X140743718Y-36852642D01*
G37*
%TD.AperFunction*%
%TD*%
%TA.AperFunction,Conductor*%
%TO.N,/A2*%
G36*
X131234392Y-71532476D02*
G01*
X131234430Y-71532501D01*
X131236272Y-71534002D01*
X131363609Y-71661340D01*
X131366145Y-71665135D01*
X131367264Y-71667836D01*
X131367883Y-71674820D01*
X131367858Y-71674934D01*
X131367014Y-71677415D01*
X131158127Y-72120683D01*
X131155415Y-72124352D01*
X131153936Y-72125697D01*
X131145877Y-72128740D01*
X131144378Y-72128716D01*
X131140259Y-72127896D01*
X131127358Y-72122790D01*
X130882200Y-72025757D01*
X130878366Y-72023282D01*
X130875368Y-72020377D01*
X130872675Y-72016388D01*
X130765599Y-71753316D01*
X130764736Y-71748832D01*
X130764748Y-71746913D01*
X130768058Y-71738831D01*
X130769176Y-71737682D01*
X130772716Y-71735190D01*
X131220155Y-71531699D01*
X131224592Y-71530658D01*
X131227564Y-71530557D01*
X131234392Y-71532476D01*
G37*
%TD.AperFunction*%
%TD*%
%TA.AperFunction,Conductor*%
%TO.N,/A2*%
G36*
X140876775Y-44213009D02*
G01*
X140877801Y-44213315D01*
X140881851Y-44215456D01*
X141262813Y-44525645D01*
X141379840Y-44620931D01*
X141451720Y-44679457D01*
X141454628Y-44682971D01*
X141455476Y-44684543D01*
X141456388Y-44693451D01*
X141456388Y-44693453D01*
X141456118Y-44694355D01*
X141452296Y-44700073D01*
X140881859Y-45164536D01*
X140877829Y-45166671D01*
X140876123Y-45167182D01*
X140867215Y-45166273D01*
X140867214Y-45166272D01*
X140865649Y-45165428D01*
X140862121Y-45162503D01*
X140560000Y-44790000D01*
X140559999Y-44790000D01*
X140201875Y-45188440D01*
X140198226Y-45191172D01*
X140196983Y-45191766D01*
X140196619Y-45191941D01*
X140187678Y-45192423D01*
X140187671Y-45192420D01*
X140186261Y-45191922D01*
X140181884Y-45189163D01*
X140060567Y-45067846D01*
X140058030Y-45064048D01*
X140057349Y-45062403D01*
X140057346Y-45053458D01*
X140058029Y-45051807D01*
X140060561Y-45048016D01*
X140486836Y-44621740D01*
X140488600Y-44620293D01*
X140490485Y-44619034D01*
X140492485Y-44617964D01*
X140560000Y-44590000D01*
X140862117Y-44217500D01*
X140865626Y-44214587D01*
X140866722Y-44213993D01*
X140867191Y-44213738D01*
X140876096Y-44212808D01*
X140876775Y-44213009D01*
G37*
%TD.AperFunction*%
%TD*%
%TA.AperFunction,Conductor*%
%TO.N,/A1*%
G36*
X140747884Y-45955616D02*
G01*
X140754285Y-45961879D01*
X140754383Y-45962115D01*
X140860448Y-46226312D01*
X140860350Y-46235266D01*
X140853956Y-46241526D01*
X140474999Y-46393931D01*
X140472994Y-46396900D01*
X140472458Y-46396538D01*
X140471573Y-46398676D01*
X140463300Y-46402103D01*
X140453560Y-46402103D01*
X140453560Y-46401486D01*
X140453458Y-46401465D01*
X140453458Y-46402103D01*
X140286700Y-46402103D01*
X140278427Y-46398676D01*
X140275000Y-46390403D01*
X140275000Y-46337325D01*
X140275890Y-46332850D01*
X140292905Y-46291772D01*
X140304280Y-46264312D01*
X140468473Y-45856043D01*
X140474739Y-45849646D01*
X140483686Y-45849551D01*
X140747884Y-45955616D01*
G37*
%TD.AperFunction*%
%TD*%
%TA.AperFunction,Conductor*%
%TO.N,/A1*%
G36*
X131283247Y-72488353D02*
G01*
X131410267Y-72615373D01*
X131413694Y-72623646D01*
X131410267Y-72631919D01*
X131349501Y-72692684D01*
X131349497Y-72692689D01*
X131283608Y-72806811D01*
X131283606Y-72806815D01*
X131249500Y-72934105D01*
X131249500Y-72987307D01*
X131248417Y-72992223D01*
X131207565Y-73080461D01*
X131200980Y-73086528D01*
X131192589Y-73086403D01*
X130927849Y-72980120D01*
X130921448Y-72973857D01*
X130921350Y-72973621D01*
X130815067Y-72708881D01*
X130815165Y-72699927D01*
X130821006Y-72693907D01*
X131270061Y-72486008D01*
X131279006Y-72485643D01*
X131283247Y-72488353D01*
G37*
%TD.AperFunction*%
%TD*%
%TA.AperFunction,Conductor*%
%TO.N,/A0*%
G36*
X141465567Y-47228345D02*
G01*
X142122124Y-47583844D01*
X142127767Y-47590796D01*
X142127048Y-47599303D01*
X141563216Y-48743802D01*
X141556486Y-48749709D01*
X141552721Y-48750331D01*
X141367279Y-48750331D01*
X141359006Y-48746904D01*
X141356784Y-48743802D01*
X140792951Y-47599303D01*
X140792368Y-47590367D01*
X140797873Y-47583845D01*
X141454430Y-47228346D01*
X141463336Y-47227422D01*
X141465567Y-47228345D01*
G37*
%TD.AperFunction*%
%TD*%
%TA.AperFunction,Conductor*%
%TO.N,/A0*%
G36*
X132106325Y-72511857D02*
G01*
X132106394Y-72511901D01*
X132108413Y-72513516D01*
X132235737Y-72640840D01*
X132238273Y-72644635D01*
X132239401Y-72647358D01*
X132239992Y-72654467D01*
X132239974Y-72654545D01*
X132239191Y-72656829D01*
X132032809Y-73102610D01*
X132030118Y-73106302D01*
X132028677Y-73107629D01*
X132020578Y-73110721D01*
X132019026Y-73110698D01*
X132014840Y-73109857D01*
X131754275Y-73005250D01*
X131750452Y-73002756D01*
X131747465Y-72999833D01*
X131744793Y-72995833D01*
X131640198Y-72735300D01*
X131639358Y-72730817D01*
X131639379Y-72728857D01*
X131642679Y-72720842D01*
X131643766Y-72719721D01*
X131647239Y-72717259D01*
X132089262Y-72512616D01*
X132092215Y-72511249D01*
X132096652Y-72510176D01*
X132099595Y-72510056D01*
X132106325Y-72511857D01*
G37*
%TD.AperFunction*%
%TD*%
%TA.AperFunction,Conductor*%
%TO.N,/SD5*%
G36*
X127779501Y-49885013D02*
G01*
X127781824Y-49885805D01*
X128013140Y-49992897D01*
X128227610Y-50092190D01*
X128231299Y-50094878D01*
X128232626Y-50096318D01*
X128235721Y-50104420D01*
X128235698Y-50105972D01*
X128234857Y-50110158D01*
X128130250Y-50370723D01*
X128127756Y-50374546D01*
X128124836Y-50377531D01*
X128120831Y-50380207D01*
X127860302Y-50484799D01*
X127855817Y-50485640D01*
X127853862Y-50485619D01*
X127845836Y-50482313D01*
X127844720Y-50481229D01*
X127842255Y-50477752D01*
X127802849Y-50392634D01*
X127802044Y-50390248D01*
X127801506Y-50387808D01*
X127801234Y-50385295D01*
X127801234Y-50333370D01*
X127801024Y-50332482D01*
X127800927Y-50332227D01*
X127767127Y-50206078D01*
X127767125Y-50206074D01*
X127701236Y-50091952D01*
X127701232Y-50091947D01*
X127642112Y-50032827D01*
X127639578Y-50029037D01*
X127638894Y-50027387D01*
X127638892Y-50018438D01*
X127639579Y-50016779D01*
X127642110Y-50012992D01*
X127765843Y-49889258D01*
X127769633Y-49886725D01*
X127772359Y-49885596D01*
X127779418Y-49884995D01*
X127779501Y-49885013D01*
G37*
%TD.AperFunction*%
%TD*%
%TA.AperFunction,Conductor*%
%TO.N,/SD5*%
G36*
X127001545Y-29983422D02*
G01*
X127003892Y-29986022D01*
X127196855Y-30278083D01*
X127198556Y-30286875D01*
X127198186Y-30288252D01*
X127138879Y-30465159D01*
X127103258Y-30571415D01*
X127102676Y-30573150D01*
X127096797Y-30579905D01*
X127091583Y-30581131D01*
X126909859Y-30581131D01*
X126901586Y-30577704D01*
X126898328Y-30571415D01*
X126802131Y-30012384D01*
X126804106Y-30003650D01*
X126811678Y-29998869D01*
X126812485Y-29998759D01*
X126992973Y-29980829D01*
X127001545Y-29983422D01*
G37*
%TD.AperFunction*%
%TD*%
%TA.AperFunction,Conductor*%
%TO.N,/SD4*%
G36*
X127400809Y-28069431D02*
G01*
X127406830Y-28075274D01*
X127585794Y-28461831D01*
X127614727Y-28524324D01*
X127615093Y-28533272D01*
X127612383Y-28537513D01*
X127482513Y-28667383D01*
X127474240Y-28670810D01*
X127469325Y-28669727D01*
X127020274Y-28461830D01*
X127014208Y-28455246D01*
X127014332Y-28446856D01*
X127120616Y-28182114D01*
X127126879Y-28175714D01*
X127127084Y-28175628D01*
X127391856Y-28069333D01*
X127400809Y-28069431D01*
G37*
%TD.AperFunction*%
%TD*%
%TA.AperFunction,Conductor*%
%TO.N,/SD2*%
G36*
X131667101Y-22432765D02*
G01*
X131671287Y-22433928D01*
X132811715Y-22995754D01*
X132815333Y-22998527D01*
X132817423Y-23000909D01*
X132820331Y-23008627D01*
X132820331Y-23190393D01*
X132819439Y-23194873D01*
X132818227Y-23197797D01*
X132812590Y-23203812D01*
X131671390Y-23766019D01*
X131666978Y-23767199D01*
X131665070Y-23767323D01*
X131656765Y-23764589D01*
X131655534Y-23763550D01*
X131652791Y-23760180D01*
X131351540Y-23203812D01*
X131299453Y-23107614D01*
X131298105Y-23103254D01*
X131297749Y-23099817D01*
X131299097Y-23093042D01*
X131345536Y-23007278D01*
X131652738Y-22439915D01*
X131655651Y-22436406D01*
X131657138Y-22435199D01*
X131665492Y-22432629D01*
X131667101Y-22432765D01*
G37*
%TD.AperFunction*%
%TD*%
%TA.AperFunction,Conductor*%
%TO.N,/SD2*%
G36*
X133599856Y-48547296D02*
G01*
X133602675Y-48551848D01*
X133655866Y-48710511D01*
X133698186Y-48836747D01*
X133697567Y-48845680D01*
X133696855Y-48846916D01*
X133503892Y-49138977D01*
X133496472Y-49143990D01*
X133492973Y-49144170D01*
X133312505Y-49126241D01*
X133304611Y-49122013D01*
X133302019Y-49113441D01*
X133302131Y-49112614D01*
X133398328Y-48553585D01*
X133403109Y-48546013D01*
X133409859Y-48543869D01*
X133591583Y-48543869D01*
X133599856Y-48547296D01*
G37*
%TD.AperFunction*%
%TD*%
%TA.AperFunction,Conductor*%
%TO.N,/A4*%
G36*
X142416325Y-50261857D02*
G01*
X142416394Y-50261901D01*
X142418413Y-50263516D01*
X142545737Y-50390840D01*
X142548273Y-50394635D01*
X142549401Y-50397358D01*
X142549992Y-50404467D01*
X142549974Y-50404545D01*
X142549191Y-50406829D01*
X142342809Y-50852610D01*
X142340118Y-50856302D01*
X142338677Y-50857629D01*
X142330578Y-50860721D01*
X142329026Y-50860698D01*
X142324840Y-50859857D01*
X142064275Y-50755250D01*
X142060452Y-50752756D01*
X142057465Y-50749833D01*
X142054793Y-50745833D01*
X141950198Y-50485300D01*
X141949358Y-50480817D01*
X141949379Y-50478857D01*
X141952679Y-50470842D01*
X141953766Y-50469721D01*
X141957239Y-50467259D01*
X142399262Y-50262616D01*
X142402215Y-50261249D01*
X142406652Y-50260176D01*
X142409595Y-50260056D01*
X142416325Y-50261857D01*
G37*
%TD.AperFunction*%
%TD*%
%TA.AperFunction,Conductor*%
%TO.N,/A4*%
G36*
X140743718Y-39392642D02*
G01*
X140774045Y-39401664D01*
X140930242Y-39448128D01*
X141454998Y-39604229D01*
X141459035Y-39606358D01*
X141461715Y-39608533D01*
X141465556Y-39614282D01*
X141677322Y-40326167D01*
X141677746Y-40330708D01*
X141677549Y-40332610D01*
X141673455Y-40340348D01*
X141672222Y-40341388D01*
X141668443Y-40343523D01*
X140464767Y-40752655D01*
X140460240Y-40753252D01*
X140457083Y-40753046D01*
X140449572Y-40749644D01*
X140321045Y-40621117D01*
X140318510Y-40617324D01*
X140317296Y-40614395D01*
X140317029Y-40606156D01*
X140407772Y-40339189D01*
X140726440Y-39401660D01*
X140728722Y-39397712D01*
X140729984Y-39396274D01*
X140737793Y-39392334D01*
X140739407Y-39392198D01*
X140743718Y-39392642D01*
G37*
%TD.AperFunction*%
%TD*%
%TA.AperFunction,Conductor*%
%TO.N,/A7*%
G36*
X142435913Y-41026017D02*
G01*
X142441777Y-41032784D01*
X142441485Y-41040956D01*
X142429635Y-41069563D01*
X142429636Y-41069564D01*
X142610300Y-41069564D01*
X142618573Y-41072991D01*
X142622000Y-41081264D01*
X142622000Y-41085674D01*
X142621109Y-41090151D01*
X142592718Y-41158692D01*
X142592706Y-41158725D01*
X142192766Y-42360447D01*
X142186902Y-42367214D01*
X142178329Y-42367966D01*
X141462770Y-42155107D01*
X141455817Y-42149464D01*
X141454894Y-42147235D01*
X141242033Y-41431669D01*
X141242958Y-41422763D01*
X141249550Y-41417234D01*
X142426983Y-41025378D01*
X142435913Y-41026017D01*
G37*
%TD.AperFunction*%
%TD*%
%TA.AperFunction,Conductor*%
%TO.N,/A7*%
G36*
X143470242Y-20398128D02*
G01*
X143997230Y-20554893D01*
X144004182Y-20560535D01*
X144005107Y-20562770D01*
X144217986Y-21278398D01*
X144217061Y-21287305D01*
X144210537Y-21292812D01*
X143002565Y-21703404D01*
X142993629Y-21702821D01*
X142990527Y-21700599D01*
X142859400Y-21569472D01*
X142855973Y-21561199D01*
X142856595Y-21557434D01*
X142947772Y-21289189D01*
X143267188Y-20349460D01*
X143273094Y-20342732D01*
X143281601Y-20342013D01*
X143470242Y-20398128D01*
G37*
%TD.AperFunction*%
%TD*%
%TA.AperFunction,Conductor*%
%TO.N,/A5*%
G36*
X143502820Y-38161857D02*
G01*
X143504605Y-38165516D01*
X143761110Y-39060773D01*
X143761172Y-39066997D01*
X143602308Y-39665743D01*
X143596874Y-39672860D01*
X143590999Y-39674442D01*
X143410366Y-39674442D01*
X143402093Y-39671015D01*
X143398751Y-39664152D01*
X143325501Y-39060773D01*
X143238828Y-38346824D01*
X143241233Y-38338200D01*
X143243555Y-38335959D01*
X143486478Y-38159276D01*
X143495182Y-38157182D01*
X143502820Y-38161857D01*
G37*
%TD.AperFunction*%
%TD*%
%TA.AperFunction,Conductor*%
%TO.N,/A5*%
G36*
X143155670Y-49760271D02*
G01*
X143604725Y-49968169D01*
X143610791Y-49974753D01*
X143610666Y-49983144D01*
X143504383Y-50247884D01*
X143498120Y-50254285D01*
X143497884Y-50254383D01*
X143233144Y-50360666D01*
X143224190Y-50360568D01*
X143218169Y-50354725D01*
X143010271Y-49905672D01*
X143009906Y-49896727D01*
X143012614Y-49892488D01*
X143142487Y-49762615D01*
X143150759Y-49759189D01*
X143155670Y-49760271D01*
G37*
%TD.AperFunction*%
%TD*%
%TA.AperFunction,Conductor*%
%TO.N,/~{SE0}*%
G36*
X132462105Y-53155994D02*
G01*
X132464815Y-53160235D01*
X132635335Y-53624766D01*
X132634969Y-53633714D01*
X132628947Y-53639558D01*
X132366595Y-53751604D01*
X132357641Y-53751702D01*
X132357405Y-53751604D01*
X132095052Y-53639558D01*
X132088789Y-53633157D01*
X132088664Y-53624766D01*
X132259185Y-53160235D01*
X132265252Y-53153650D01*
X132270168Y-53152567D01*
X132453832Y-53152567D01*
X132462105Y-53155994D01*
G37*
%TD.AperFunction*%
%TD*%
%TA.AperFunction,Conductor*%
%TO.N,/~{SE0}*%
G36*
X132733143Y-20889332D02*
G01*
X132997884Y-20995616D01*
X133004285Y-21001879D01*
X133004383Y-21002115D01*
X133110666Y-21266855D01*
X133110568Y-21275809D01*
X133104724Y-21281831D01*
X132655675Y-21489727D01*
X132646727Y-21490093D01*
X132642486Y-21487383D01*
X132512616Y-21357513D01*
X132509189Y-21349240D01*
X132510270Y-21344329D01*
X132718170Y-20895272D01*
X132724753Y-20889208D01*
X132733143Y-20889332D01*
G37*
%TD.AperFunction*%
%TD*%
%TA.AperFunction,Conductor*%
%TO.N,/SD4*%
G36*
X128712165Y-49817891D02*
G01*
X128922683Y-49952622D01*
X129200515Y-50130433D01*
X129205636Y-50137779D01*
X129204063Y-50146595D01*
X129202903Y-50148117D01*
X129062344Y-50304229D01*
X129054262Y-50308084D01*
X129052769Y-50308067D01*
X128714780Y-50282585D01*
X128706788Y-50278546D01*
X128704962Y-50275653D01*
X128566061Y-49961573D01*
X128565850Y-49952622D01*
X128568487Y-49948571D01*
X128697586Y-49819472D01*
X128705858Y-49816046D01*
X128712165Y-49817891D01*
G37*
%TD.AperFunction*%
%TD*%
%TA.AperFunction,Conductor*%
%TO.N,/~{RAS1}*%
G36*
X130724169Y-53082967D02*
G01*
X130727237Y-53088366D01*
X130872134Y-53660061D01*
X130870845Y-53668922D01*
X130863667Y-53674276D01*
X130861086Y-53674631D01*
X130629701Y-53680422D01*
X130621526Y-53677373D01*
X130380283Y-53457468D01*
X130376478Y-53449362D01*
X130377319Y-53444434D01*
X130522041Y-53086850D01*
X130528321Y-53080467D01*
X130532886Y-53079540D01*
X130715896Y-53079540D01*
X130724169Y-53082967D01*
G37*
%TD.AperFunction*%
%TD*%
%TA.AperFunction,Conductor*%
%TO.N,/~{RAS1}*%
G36*
X131297230Y-35794893D02*
G01*
X131304182Y-35800535D01*
X131305107Y-35802770D01*
X131517966Y-36518329D01*
X131517041Y-36527236D01*
X131510447Y-36532766D01*
X130333018Y-36924621D01*
X130324086Y-36923982D01*
X130318222Y-36917215D01*
X130318513Y-36909044D01*
X130330364Y-36880436D01*
X130150200Y-36880436D01*
X130141927Y-36877009D01*
X130138500Y-36868736D01*
X130138500Y-36863117D01*
X130139390Y-36858643D01*
X130167289Y-36791289D01*
X130567234Y-35589550D01*
X130573097Y-35582785D01*
X130581669Y-35582033D01*
X131297230Y-35794893D01*
G37*
%TD.AperFunction*%
%TD*%
%TA.AperFunction,Conductor*%
%TO.N,/A6*%
G36*
X136947391Y-50744449D02*
G01*
X136951354Y-50745936D01*
X136955161Y-50748278D01*
X136959091Y-50751894D01*
X136962812Y-50755319D01*
X137192327Y-50966545D01*
X137195017Y-50970230D01*
X137196269Y-50972930D01*
X137197160Y-50979970D01*
X137197153Y-50980008D01*
X137196494Y-50982274D01*
X137165417Y-51059119D01*
X137164324Y-51061195D01*
X137163052Y-51063115D01*
X137161571Y-51064926D01*
X137109544Y-51116954D01*
X137109536Y-51116963D01*
X137069989Y-51185460D01*
X137069977Y-51185482D01*
X137069976Y-51185484D01*
X137049500Y-51261903D01*
X137049500Y-51330500D01*
X137048609Y-51334979D01*
X137047927Y-51336625D01*
X137041599Y-51342954D01*
X137040727Y-51343315D01*
X137039952Y-51343636D01*
X137035473Y-51344528D01*
X136861441Y-51344528D01*
X136856965Y-51343638D01*
X136854553Y-51342639D01*
X136848850Y-51337594D01*
X136848541Y-51337049D01*
X136847382Y-51334153D01*
X136846460Y-51330500D01*
X136704145Y-50766434D01*
X136703913Y-50761883D01*
X136704172Y-50760113D01*
X136708755Y-50752431D01*
X136709479Y-50751892D01*
X136716160Y-50749580D01*
X136942988Y-50743708D01*
X136947391Y-50744449D01*
G37*
%TD.AperFunction*%
%TD*%
%TA.AperFunction,Conductor*%
%TO.N,/A6*%
G36*
X129348532Y-69728049D02*
G01*
X129478402Y-69857919D01*
X129481829Y-69866192D01*
X129480746Y-69871108D01*
X129272850Y-70320157D01*
X129266265Y-70326224D01*
X129257874Y-70326099D01*
X128993134Y-70219816D01*
X128986733Y-70213553D01*
X128986635Y-70213317D01*
X128880352Y-69948577D01*
X128880450Y-69939623D01*
X128886291Y-69933603D01*
X129335346Y-69725704D01*
X129344291Y-69725339D01*
X129348532Y-69728049D01*
G37*
%TD.AperFunction*%
%TD*%
%TA.AperFunction,Conductor*%
%TO.N,/A6*%
G36*
X141670447Y-36337233D02*
G01*
X141677214Y-36343097D01*
X141677966Y-36351670D01*
X141465107Y-37067229D01*
X141459464Y-37074182D01*
X141457229Y-37075107D01*
X140741670Y-37287966D01*
X140732763Y-37287041D01*
X140727233Y-37280447D01*
X140414517Y-36340811D01*
X140327289Y-36078711D01*
X140298891Y-36010151D01*
X140298000Y-36005674D01*
X140298000Y-36001264D01*
X140301427Y-35992991D01*
X140309700Y-35989564D01*
X140490364Y-35989564D01*
X140478513Y-35960955D01*
X140478513Y-35952002D01*
X140484845Y-35945670D01*
X140493016Y-35945378D01*
X141670447Y-36337233D01*
G37*
%TD.AperFunction*%
%TD*%
%TA.AperFunction,Conductor*%
%TO.N,/A6*%
G36*
X140710130Y-18979377D02*
G01*
X141456213Y-19287437D01*
X141462552Y-19293762D01*
X141462562Y-19293786D01*
X141770619Y-20039862D01*
X141770609Y-20048816D01*
X141764270Y-20055141D01*
X141762998Y-20055583D01*
X140468711Y-20422711D01*
X140496577Y-20676760D01*
X140494073Y-20685358D01*
X140486223Y-20689666D01*
X140484947Y-20689736D01*
X140309700Y-20689736D01*
X140301427Y-20686309D01*
X140298000Y-20678036D01*
X140298000Y-20354325D01*
X140298890Y-20349850D01*
X140327289Y-20281289D01*
X140694417Y-18986999D01*
X140699970Y-18979977D01*
X140708865Y-18978938D01*
X140710130Y-18979377D01*
G37*
%TD.AperFunction*%
%TD*%
%TA.AperFunction,Conductor*%
%TO.N,/A7*%
G36*
X131254557Y-49873379D02*
G01*
X131516947Y-49985441D01*
X131523210Y-49991842D01*
X131523335Y-50000233D01*
X131352815Y-50464765D01*
X131346748Y-50471350D01*
X131341832Y-50472433D01*
X131158168Y-50472433D01*
X131149895Y-50469006D01*
X131147185Y-50464765D01*
X130976664Y-50000233D01*
X130977030Y-49991285D01*
X130983050Y-49985442D01*
X131245406Y-49873394D01*
X131254359Y-49873297D01*
X131254557Y-49873379D01*
G37*
%TD.AperFunction*%
%TD*%
%TA.AperFunction,Conductor*%
%TO.N,/A7*%
G36*
X128979470Y-69016887D02*
G01*
X128979539Y-69016931D01*
X128981558Y-69018546D01*
X129108882Y-69145870D01*
X129111418Y-69149665D01*
X129112546Y-69152388D01*
X129113137Y-69159497D01*
X129113119Y-69159575D01*
X129112336Y-69161859D01*
X128905954Y-69607640D01*
X128903263Y-69611332D01*
X128901822Y-69612659D01*
X128893723Y-69615751D01*
X128892171Y-69615728D01*
X128887985Y-69614887D01*
X128627420Y-69510280D01*
X128623597Y-69507786D01*
X128620610Y-69504863D01*
X128617938Y-69500863D01*
X128513343Y-69240330D01*
X128512503Y-69235847D01*
X128512524Y-69233887D01*
X128515824Y-69225872D01*
X128516911Y-69224751D01*
X128520384Y-69222289D01*
X128962407Y-69017646D01*
X128965360Y-69016279D01*
X128969797Y-69015206D01*
X128972740Y-69015086D01*
X128979470Y-69016887D01*
G37*
%TD.AperFunction*%
%TD*%
%TA.AperFunction,Conductor*%
%TO.N,/SD6*%
G36*
X125677305Y-22882938D02*
G01*
X125682812Y-22889462D01*
X126093404Y-24097434D01*
X126092821Y-24106370D01*
X126090599Y-24109472D01*
X125959472Y-24240599D01*
X125951199Y-24244026D01*
X125947434Y-24243404D01*
X124739462Y-23832812D01*
X124732732Y-23826905D01*
X124732013Y-23818398D01*
X124944893Y-23102767D01*
X124950535Y-23095817D01*
X124952761Y-23094895D01*
X125668398Y-22882013D01*
X125677305Y-22882938D01*
G37*
%TD.AperFunction*%
%TD*%
%TA.AperFunction,Conductor*%
%TO.N,/SD6*%
G36*
X126955235Y-49909276D02*
G01*
X126957558Y-49910068D01*
X127188874Y-50017160D01*
X127403344Y-50116453D01*
X127407033Y-50119141D01*
X127408360Y-50120581D01*
X127411455Y-50128683D01*
X127411432Y-50130235D01*
X127410591Y-50134421D01*
X127305984Y-50394986D01*
X127303490Y-50398809D01*
X127300570Y-50401794D01*
X127296565Y-50404470D01*
X127036036Y-50509062D01*
X127031551Y-50509903D01*
X127029595Y-50509882D01*
X127021574Y-50506580D01*
X127020457Y-50505496D01*
X127017991Y-50502018D01*
X126811983Y-50057046D01*
X126810910Y-50052608D01*
X126810790Y-50049666D01*
X126812591Y-50042936D01*
X126812634Y-50042868D01*
X126814246Y-50040853D01*
X126941577Y-49913521D01*
X126945367Y-49910988D01*
X126948093Y-49909859D01*
X126955152Y-49909258D01*
X126955235Y-49909276D01*
G37*
%TD.AperFunction*%
%TD*%
%TA.AperFunction,Conductor*%
%TO.N,/SD7*%
G36*
X124811736Y-51477778D02*
G01*
X124814059Y-51478570D01*
X125045375Y-51585662D01*
X125259845Y-51684955D01*
X125263534Y-51687643D01*
X125264861Y-51689083D01*
X125267956Y-51697185D01*
X125267933Y-51698737D01*
X125267092Y-51702923D01*
X125162485Y-51963488D01*
X125159991Y-51967311D01*
X125157071Y-51970296D01*
X125153066Y-51972972D01*
X124892537Y-52077564D01*
X124888052Y-52078405D01*
X124886096Y-52078384D01*
X124878075Y-52075082D01*
X124876958Y-52073998D01*
X124874492Y-52070520D01*
X124668484Y-51625548D01*
X124667411Y-51621110D01*
X124667291Y-51618168D01*
X124669092Y-51611438D01*
X124669135Y-51611370D01*
X124670747Y-51609355D01*
X124798078Y-51482023D01*
X124801868Y-51479490D01*
X124804594Y-51478361D01*
X124811653Y-51477760D01*
X124811736Y-51477778D01*
G37*
%TD.AperFunction*%
%TD*%
%TA.AperFunction,Conductor*%
%TO.N,/SD7*%
G36*
X123137305Y-24152938D02*
G01*
X123142812Y-24159462D01*
X123553404Y-25367434D01*
X123552821Y-25376370D01*
X123550599Y-25379472D01*
X123419472Y-25510599D01*
X123411199Y-25514026D01*
X123407434Y-25513404D01*
X122199462Y-25102812D01*
X122192732Y-25096905D01*
X122192013Y-25088398D01*
X122404893Y-24372767D01*
X122410535Y-24365817D01*
X122412761Y-24364895D01*
X123128398Y-24152013D01*
X123137305Y-24152938D01*
G37*
%TD.AperFunction*%
%TD*%
%TA.AperFunction,Conductor*%
%TO.N,/SC*%
G36*
X128280670Y-52360271D02*
G01*
X128729725Y-52568169D01*
X128735791Y-52574753D01*
X128735666Y-52583144D01*
X128629383Y-52847884D01*
X128623120Y-52854285D01*
X128622884Y-52854383D01*
X128358144Y-52960666D01*
X128349190Y-52960568D01*
X128343169Y-52954725D01*
X128135271Y-52505672D01*
X128134906Y-52496727D01*
X128137614Y-52492488D01*
X128267487Y-52362615D01*
X128275759Y-52359189D01*
X128280670Y-52360271D01*
G37*
%TD.AperFunction*%
%TD*%
%TA.AperFunction,Conductor*%
%TO.N,/SC*%
G36*
X125775809Y-26799431D02*
G01*
X125781830Y-26805274D01*
X125960794Y-27191831D01*
X125989727Y-27254324D01*
X125990093Y-27263272D01*
X125987383Y-27267513D01*
X125857513Y-27397383D01*
X125849240Y-27400810D01*
X125844325Y-27399727D01*
X125395274Y-27191830D01*
X125389208Y-27185246D01*
X125389332Y-27176856D01*
X125495616Y-26912114D01*
X125501879Y-26905714D01*
X125502084Y-26905628D01*
X125766856Y-26799333D01*
X125775809Y-26799431D01*
G37*
%TD.AperFunction*%
%TD*%
%TA.AperFunction,Conductor*%
%TO.N,/~{OE1}*%
G36*
X143891578Y-66667676D02*
G01*
X143981457Y-66724739D01*
X144099999Y-66800000D01*
X144099999Y-66799999D01*
X144100000Y-66800000D01*
X144161103Y-66702160D01*
X144168390Y-66696961D01*
X144177223Y-66698436D01*
X144179298Y-66700087D01*
X144302043Y-66822832D01*
X144305470Y-66831105D01*
X144302043Y-66839378D01*
X144172356Y-66969065D01*
X144168560Y-66971601D01*
X144100005Y-66999996D01*
X144099994Y-67000002D01*
X143891580Y-67132322D01*
X143882759Y-67133864D01*
X143876094Y-67129654D01*
X143702071Y-66907207D01*
X143699673Y-66898582D01*
X143702071Y-66892792D01*
X143876095Y-66670344D01*
X143883891Y-66665940D01*
X143891578Y-66667676D01*
G37*
%TD.AperFunction*%
%TD*%
%TA.AperFunction,Conductor*%
%TO.N,/~{OE1}*%
G36*
X144727305Y-30502938D02*
G01*
X144732812Y-30509462D01*
X145143404Y-31717434D01*
X145142821Y-31726370D01*
X145140599Y-31729472D01*
X145009472Y-31860599D01*
X145001199Y-31864026D01*
X144997434Y-31863404D01*
X143789462Y-31452812D01*
X143782732Y-31446905D01*
X143782013Y-31438398D01*
X143994893Y-30722767D01*
X144000535Y-30715817D01*
X144002761Y-30714895D01*
X144718398Y-30502013D01*
X144727305Y-30502938D01*
G37*
%TD.AperFunction*%
%TD*%
%TA.AperFunction,Conductor*%
%TO.N,/A4*%
G36*
X138129557Y-51373379D02*
G01*
X138390239Y-51484712D01*
X138396501Y-51491112D01*
X138396403Y-51500066D01*
X138395875Y-51501145D01*
X138225003Y-51809308D01*
X138224997Y-51809321D01*
X138197101Y-51876666D01*
X138194565Y-51880461D01*
X138088287Y-51986739D01*
X138080014Y-51990166D01*
X138071741Y-51986739D01*
X137950248Y-51865246D01*
X137946821Y-51856973D01*
X137950248Y-51848700D01*
X137953134Y-51846587D01*
X138025000Y-51809314D01*
X137854124Y-51501145D01*
X137853109Y-51492248D01*
X137858682Y-51485239D01*
X137859744Y-51484719D01*
X138120406Y-51373394D01*
X138129359Y-51373297D01*
X138129557Y-51373379D01*
G37*
%TD.AperFunction*%
%TD*%
%TA.AperFunction,Conductor*%
%TO.N,/A4*%
G36*
X142182522Y-31772468D02*
G01*
X142190276Y-31776583D01*
X142191332Y-31777842D01*
X142193469Y-31781666D01*
X142261412Y-31985817D01*
X142505483Y-32719189D01*
X142592706Y-32981274D01*
X142592718Y-32981307D01*
X142620167Y-33047575D01*
X142620833Y-33049767D01*
X142621275Y-33051987D01*
X142621500Y-33054272D01*
X142621500Y-33056408D01*
X142620609Y-33060887D01*
X142619927Y-33062533D01*
X142613599Y-33068862D01*
X142612727Y-33069223D01*
X142611952Y-33069544D01*
X142607473Y-33070436D01*
X142429635Y-33070436D01*
X142440594Y-33096891D01*
X142441485Y-33101369D01*
X142441485Y-33102812D01*
X142438058Y-33111085D01*
X142430204Y-33114504D01*
X142429089Y-33114544D01*
X142424975Y-33113953D01*
X141251760Y-32723500D01*
X141247794Y-32721242D01*
X141246365Y-32720004D01*
X141242371Y-32712190D01*
X141242227Y-32710549D01*
X141242667Y-32706197D01*
X141454229Y-31994998D01*
X141456358Y-31990963D01*
X141458532Y-31988284D01*
X141464278Y-31984443D01*
X142176102Y-31772695D01*
X142180641Y-31772273D01*
X142182522Y-31772468D01*
G37*
%TD.AperFunction*%
%TD*%
%TA.AperFunction,Conductor*%
%TO.N,/A4*%
G36*
X142430738Y-38485646D02*
G01*
X142438745Y-38489649D01*
X142441599Y-38497736D01*
X142441559Y-38498850D01*
X142440676Y-38502908D01*
X142429634Y-38529562D01*
X142429634Y-38529563D01*
X142429636Y-38529564D01*
X142607473Y-38529564D01*
X142611948Y-38530454D01*
X142612781Y-38530798D01*
X142613593Y-38531135D01*
X142619925Y-38537463D01*
X142619927Y-38537466D01*
X142620609Y-38539112D01*
X142621500Y-38543591D01*
X142621500Y-38545727D01*
X142621275Y-38548012D01*
X142620833Y-38550232D01*
X142620167Y-38552424D01*
X142592721Y-38618681D01*
X142592702Y-38618733D01*
X142193500Y-39818238D01*
X142191242Y-39822204D01*
X142190004Y-39823633D01*
X142182188Y-39827627D01*
X142180970Y-39827734D01*
X142180553Y-39827770D01*
X142176191Y-39827330D01*
X141465001Y-39615770D01*
X141460964Y-39613640D01*
X141458283Y-39611464D01*
X141454442Y-39605716D01*
X141242696Y-38893899D01*
X141242272Y-38889362D01*
X141242468Y-38887472D01*
X141246584Y-38879721D01*
X141247844Y-38878664D01*
X141251660Y-38876531D01*
X142424774Y-38486112D01*
X142429294Y-38485543D01*
X142430738Y-38485646D01*
G37*
%TD.AperFunction*%
%TD*%
%TA.AperFunction,Conductor*%
%TO.N,/A4*%
G36*
X130338976Y-70624745D02*
G01*
X130339045Y-70624789D01*
X130341064Y-70626404D01*
X130468388Y-70753728D01*
X130470924Y-70757523D01*
X130472052Y-70760246D01*
X130472643Y-70767355D01*
X130472625Y-70767433D01*
X130471842Y-70769717D01*
X130265460Y-71215498D01*
X130262769Y-71219190D01*
X130261328Y-71220517D01*
X130253229Y-71223609D01*
X130251677Y-71223586D01*
X130247491Y-71222745D01*
X129986926Y-71118138D01*
X129983103Y-71115644D01*
X129980116Y-71112721D01*
X129977444Y-71108721D01*
X129872849Y-70848188D01*
X129872009Y-70843705D01*
X129872030Y-70841745D01*
X129875330Y-70833730D01*
X129876417Y-70832609D01*
X129879890Y-70830147D01*
X130321913Y-70625504D01*
X130324866Y-70624137D01*
X130329303Y-70623064D01*
X130332246Y-70622944D01*
X130338976Y-70624745D01*
G37*
%TD.AperFunction*%
%TD*%
%TA.AperFunction,Conductor*%
%TO.N,/A5*%
G36*
X129548510Y-70501587D02*
G01*
X129548579Y-70501631D01*
X129550598Y-70503246D01*
X129677921Y-70630569D01*
X129680457Y-70634364D01*
X129681585Y-70637087D01*
X129682176Y-70644196D01*
X129682158Y-70644274D01*
X129681375Y-70646558D01*
X129631140Y-70755065D01*
X129630119Y-70756844D01*
X129628956Y-70758511D01*
X129627633Y-70760090D01*
X129582155Y-70805568D01*
X129582147Y-70805577D01*
X129516269Y-70919680D01*
X129516257Y-70919702D01*
X129516256Y-70919704D01*
X129482151Y-71046990D01*
X129482151Y-71073033D01*
X129481876Y-71075554D01*
X129481340Y-71077983D01*
X129480533Y-71080377D01*
X129474995Y-71092340D01*
X129472303Y-71096032D01*
X129470862Y-71097359D01*
X129462763Y-71100451D01*
X129461211Y-71100428D01*
X129457025Y-71099587D01*
X129196460Y-70994980D01*
X129192637Y-70992486D01*
X129189650Y-70989563D01*
X129186977Y-70985563D01*
X129082392Y-70725053D01*
X129081552Y-70720571D01*
X129081571Y-70718789D01*
X129085085Y-70710557D01*
X129085955Y-70709705D01*
X129091105Y-70706770D01*
X129184205Y-70681825D01*
X129298333Y-70615933D01*
X129306690Y-70607574D01*
X129308250Y-70606267D01*
X129309921Y-70605101D01*
X129311686Y-70604088D01*
X129534400Y-70500978D01*
X129538836Y-70499906D01*
X129541780Y-70499786D01*
X129548510Y-70501587D01*
G37*
%TD.AperFunction*%
%TD*%
%TA.AperFunction,Conductor*%
%TO.N,/A5*%
G36*
X144975913Y-37216017D02*
G01*
X144981777Y-37222784D01*
X144981485Y-37230956D01*
X144969635Y-37259563D01*
X144969636Y-37259564D01*
X145149800Y-37259564D01*
X145158073Y-37262991D01*
X145161500Y-37271264D01*
X145161500Y-37276881D01*
X145160609Y-37281358D01*
X145132718Y-37348692D01*
X145132706Y-37348725D01*
X144732766Y-38550447D01*
X144726902Y-38557214D01*
X144718329Y-38557966D01*
X144002770Y-38345107D01*
X143995817Y-38339464D01*
X143994894Y-38337235D01*
X143782033Y-37621669D01*
X143782958Y-37612763D01*
X143789550Y-37607234D01*
X144966983Y-37215378D01*
X144975913Y-37216017D01*
G37*
%TD.AperFunction*%
%TD*%
%TA.AperFunction,Conductor*%
%TO.N,/A5*%
G36*
X138156625Y-49999262D02*
G01*
X138356925Y-50084807D01*
X138413977Y-50109173D01*
X138417746Y-50111752D01*
X138418993Y-50113027D01*
X138422328Y-50121330D01*
X138422311Y-50122960D01*
X138421249Y-50127712D01*
X138249976Y-50501521D01*
X138222042Y-50568964D01*
X138220962Y-50570985D01*
X138219705Y-50572867D01*
X138218249Y-50574642D01*
X138162773Y-50630118D01*
X138158981Y-50632653D01*
X138157336Y-50633335D01*
X138148381Y-50633337D01*
X138146729Y-50632653D01*
X138142936Y-50630118D01*
X138035344Y-50522526D01*
X138032808Y-50518731D01*
X138032325Y-50517564D01*
X138032326Y-50508610D01*
X138038656Y-50502281D01*
X138039477Y-50501941D01*
X138044807Y-50501086D01*
X138050000Y-50501471D01*
X137878806Y-50127836D01*
X137877752Y-50123397D01*
X137877736Y-50122960D01*
X137877686Y-50121615D01*
X137880803Y-50113224D01*
X137881918Y-50112022D01*
X137885892Y-50109228D01*
X138143270Y-49999306D01*
X138147731Y-49998368D01*
X138151906Y-49998323D01*
X138156625Y-49999262D01*
G37*
%TD.AperFunction*%
%TD*%
%TA.AperFunction,Conductor*%
%TO.N,/A5*%
G36*
X143495364Y-33488546D02*
G01*
X144296197Y-33959581D01*
X144300180Y-33963454D01*
X144622909Y-34478539D01*
X144624397Y-34487369D01*
X144621267Y-34493024D01*
X144493879Y-34620412D01*
X144485606Y-34623839D01*
X144478249Y-34621237D01*
X143465839Y-33802578D01*
X143461561Y-33794711D01*
X143461514Y-33792837D01*
X143477752Y-33497987D01*
X143481628Y-33489916D01*
X143490077Y-33486950D01*
X143495364Y-33488546D01*
G37*
%TD.AperFunction*%
%TD*%
%TA.AperFunction,Conductor*%
%TO.N,VCC*%
G36*
X140008714Y-15102030D02*
G01*
X140014558Y-15108052D01*
X140126604Y-15370405D01*
X140126702Y-15379359D01*
X140126604Y-15379595D01*
X140014558Y-15641947D01*
X140008157Y-15648210D01*
X139999766Y-15648335D01*
X139535235Y-15477814D01*
X139528650Y-15471747D01*
X139527567Y-15466831D01*
X139527567Y-15283168D01*
X139530994Y-15274895D01*
X139535234Y-15272185D01*
X139999766Y-15101664D01*
X140008714Y-15102030D01*
G37*
%TD.AperFunction*%
%TD*%
%TA.AperFunction,Conductor*%
%TO.N,VCC*%
G36*
X123714765Y-15272185D02*
G01*
X123721350Y-15278252D01*
X123722433Y-15283168D01*
X123722433Y-15466831D01*
X123719006Y-15475104D01*
X123714765Y-15477814D01*
X123250233Y-15648335D01*
X123241285Y-15647969D01*
X123235441Y-15641947D01*
X123164185Y-15475104D01*
X123123394Y-15379593D01*
X123123297Y-15370641D01*
X123123395Y-15370405D01*
X123235442Y-15108050D01*
X123241842Y-15101789D01*
X123250233Y-15101664D01*
X123714765Y-15272185D01*
G37*
%TD.AperFunction*%
%TD*%
%TA.AperFunction,Conductor*%
%TO.N,/A3*%
G36*
X138377236Y-20342958D02*
G01*
X138382766Y-20349552D01*
X138782706Y-21551274D01*
X138782718Y-21551307D01*
X138811109Y-21619848D01*
X138812000Y-21624325D01*
X138812000Y-21628736D01*
X138808573Y-21637009D01*
X138800300Y-21640436D01*
X138619635Y-21640436D01*
X138631485Y-21669042D01*
X138631485Y-21677997D01*
X138625154Y-21684329D01*
X138616981Y-21684621D01*
X137439552Y-21292766D01*
X137432785Y-21286902D01*
X137432033Y-21278330D01*
X137644893Y-20562767D01*
X137650535Y-20555817D01*
X137652761Y-20554895D01*
X138368330Y-20342033D01*
X138377236Y-20342958D01*
G37*
%TD.AperFunction*%
%TD*%
%TA.AperFunction,Conductor*%
%TO.N,/A3*%
G36*
X138377305Y-43202938D02*
G01*
X138382812Y-43209462D01*
X138793404Y-44417434D01*
X138792821Y-44426370D01*
X138790599Y-44429472D01*
X138659472Y-44560599D01*
X138651199Y-44564026D01*
X138647434Y-44563404D01*
X137439462Y-44152812D01*
X137432732Y-44146905D01*
X137432013Y-44138398D01*
X137644893Y-43422767D01*
X137650535Y-43415817D01*
X137652761Y-43414895D01*
X138368398Y-43202013D01*
X138377305Y-43202938D01*
G37*
%TD.AperFunction*%
%TD*%
%TA.AperFunction,Conductor*%
%TO.N,/A3*%
G36*
X130439402Y-71418419D02*
G01*
X130439471Y-71418463D01*
X130441490Y-71420078D01*
X130568813Y-71547401D01*
X130571350Y-71551198D01*
X130572477Y-71553920D01*
X130573118Y-71560799D01*
X130573101Y-71560880D01*
X130572267Y-71563392D01*
X130530702Y-71653172D01*
X130529677Y-71654956D01*
X130528510Y-71656627D01*
X130527191Y-71658201D01*
X130474795Y-71710598D01*
X130474787Y-71710607D01*
X130408909Y-71824710D01*
X130408897Y-71824732D01*
X130408896Y-71824734D01*
X130374791Y-71952020D01*
X130374791Y-71986089D01*
X130374516Y-71988610D01*
X130373980Y-71991039D01*
X130373173Y-71993433D01*
X130365887Y-72009172D01*
X130363195Y-72012864D01*
X130361754Y-72014191D01*
X130353655Y-72017283D01*
X130352103Y-72017260D01*
X130347917Y-72016419D01*
X130087352Y-71911812D01*
X130083529Y-71909318D01*
X130080542Y-71906395D01*
X130077870Y-71902396D01*
X129979542Y-71657470D01*
X129973275Y-71641861D01*
X129972435Y-71637378D01*
X129972456Y-71635419D01*
X129975756Y-71627404D01*
X129976844Y-71626282D01*
X129980315Y-71623821D01*
X129999365Y-71615002D01*
X130001752Y-71614197D01*
X130004194Y-71613659D01*
X130006703Y-71613388D01*
X130050165Y-71613388D01*
X130051571Y-71612575D01*
X130112190Y-71596334D01*
X130175835Y-71579281D01*
X130175839Y-71579279D01*
X130228202Y-71549047D01*
X130289965Y-71513388D01*
X130349084Y-71454267D01*
X130350644Y-71452960D01*
X130352315Y-71451793D01*
X130354080Y-71450779D01*
X130422339Y-71419178D01*
X130425292Y-71417811D01*
X130429729Y-71416738D01*
X130432672Y-71416618D01*
X130439402Y-71418419D01*
G37*
%TD.AperFunction*%
%TD*%
%TA.AperFunction,Conductor*%
%TO.N,/A3*%
G36*
X138294468Y-42077884D02*
G01*
X138423412Y-42206828D01*
X138426839Y-42215101D01*
X138425901Y-42219690D01*
X138158585Y-42846546D01*
X138152363Y-42852740D01*
X137290073Y-43215784D01*
X137281118Y-43215836D01*
X137275060Y-43210217D01*
X137115711Y-42890274D01*
X137115091Y-42881343D01*
X137119547Y-42875425D01*
X138279560Y-42076520D01*
X138288316Y-42074651D01*
X138294468Y-42077884D01*
G37*
%TD.AperFunction*%
%TD*%
%TA.AperFunction,Conductor*%
%TO.N,/A2*%
G36*
X134361827Y-18980077D02*
G01*
X135104062Y-19286549D01*
X135107861Y-19289081D01*
X135110896Y-19292110D01*
X135113445Y-19295926D01*
X135419730Y-20037709D01*
X135420616Y-20042187D01*
X135420614Y-20043970D01*
X135417178Y-20052239D01*
X135417173Y-20052244D01*
X135416301Y-20053113D01*
X135411235Y-20056082D01*
X134118711Y-20422711D01*
X134146323Y-20674447D01*
X134145926Y-20678996D01*
X134145428Y-20680705D01*
X134139830Y-20687685D01*
X134138731Y-20688289D01*
X134133096Y-20689736D01*
X133962027Y-20689736D01*
X133957550Y-20688845D01*
X133955901Y-20688162D01*
X133949572Y-20681831D01*
X133948889Y-20680181D01*
X133948000Y-20675708D01*
X133948000Y-20355475D01*
X133948223Y-20353203D01*
X133948667Y-20350967D01*
X133949328Y-20348791D01*
X133977289Y-20281289D01*
X134343783Y-18989233D01*
X134345858Y-18985176D01*
X134346964Y-18983777D01*
X134354778Y-18979415D01*
X134356009Y-18979271D01*
X134361827Y-18980077D01*
G37*
%TD.AperFunction*%
%TD*%
%TA.AperFunction,Conductor*%
%TO.N,/A2*%
G36*
X135320447Y-43957233D02*
G01*
X135327214Y-43963097D01*
X135327966Y-43971670D01*
X135115107Y-44687229D01*
X135109464Y-44694182D01*
X135107229Y-44695107D01*
X134391670Y-44907966D01*
X134382763Y-44907041D01*
X134377233Y-44900447D01*
X134064517Y-43960811D01*
X133977289Y-43698711D01*
X133948891Y-43630151D01*
X133948000Y-43625674D01*
X133948000Y-43621264D01*
X133951427Y-43612991D01*
X133959700Y-43609564D01*
X134140364Y-43609564D01*
X134128513Y-43580955D01*
X134128513Y-43572002D01*
X134134845Y-43565670D01*
X134143016Y-43565378D01*
X135320447Y-43957233D01*
G37*
%TD.AperFunction*%
%TD*%
%TA.AperFunction,Conductor*%
%TO.N,/~{CAS1}*%
G36*
X126719854Y-52253456D02*
G01*
X126722578Y-52254585D01*
X126727966Y-52259103D01*
X126728010Y-52259172D01*
X126729128Y-52261431D01*
X126898406Y-52722580D01*
X126899113Y-52727090D01*
X126899033Y-52729048D01*
X126895494Y-52736963D01*
X126894380Y-52738044D01*
X126890826Y-52740410D01*
X126632607Y-52850690D01*
X126628141Y-52851629D01*
X126623970Y-52851675D01*
X126619247Y-52850736D01*
X126515462Y-52806411D01*
X126361067Y-52740472D01*
X126357300Y-52737895D01*
X126355930Y-52736495D01*
X126352593Y-52728485D01*
X126352572Y-52727090D01*
X126352570Y-52726930D01*
X126353286Y-52722727D01*
X126353340Y-52722580D01*
X126522258Y-52262416D01*
X126524632Y-52258527D01*
X126526634Y-52256354D01*
X126532742Y-52252853D01*
X126532827Y-52252834D01*
X126535315Y-52252567D01*
X126715379Y-52252567D01*
X126719854Y-52253456D01*
G37*
%TD.AperFunction*%
%TD*%
%TA.AperFunction,Conductor*%
%TO.N,/~{CAS1}*%
G36*
X124955567Y-48498345D02*
G01*
X125612124Y-48853844D01*
X125617767Y-48860796D01*
X125617048Y-48869303D01*
X125053216Y-50013802D01*
X125046486Y-50019709D01*
X125042721Y-50020331D01*
X124857279Y-50020331D01*
X124849006Y-50016904D01*
X124846784Y-50013802D01*
X124282951Y-48869303D01*
X124282368Y-48860367D01*
X124287873Y-48853845D01*
X124944430Y-48498346D01*
X124953336Y-48497422D01*
X124955567Y-48498345D01*
G37*
%TD.AperFunction*%
%TD*%
%TA.AperFunction,Conductor*%
%TO.N,/SD3*%
G36*
X133187495Y-24065020D02*
G01*
X133195387Y-24069248D01*
X133197980Y-24077820D01*
X133197868Y-24078647D01*
X133101672Y-24637678D01*
X133096891Y-24645250D01*
X133090141Y-24647394D01*
X132908417Y-24647394D01*
X132900144Y-24643967D01*
X132897324Y-24639413D01*
X132896742Y-24637678D01*
X132801813Y-24354514D01*
X132802432Y-24345582D01*
X132803137Y-24344356D01*
X132996108Y-24052283D01*
X133003527Y-24047272D01*
X133007026Y-24047092D01*
X133187495Y-24065020D01*
G37*
%TD.AperFunction*%
%TD*%
%TA.AperFunction,Conductor*%
%TO.N,/SD3*%
G36*
X133089948Y-49153457D02*
G01*
X133090414Y-49153650D01*
X133091593Y-49154138D01*
X133097925Y-49160466D01*
X133097927Y-49160469D01*
X133098609Y-49162115D01*
X133099500Y-49166594D01*
X133099500Y-49190896D01*
X133133605Y-49318182D01*
X133133606Y-49318184D01*
X133133618Y-49318206D01*
X133199496Y-49432309D01*
X133199501Y-49432315D01*
X133201816Y-49434630D01*
X133203402Y-49436603D01*
X133204742Y-49438700D01*
X133205866Y-49440968D01*
X133272532Y-49622580D01*
X133273239Y-49627090D01*
X133273159Y-49629048D01*
X133269620Y-49636963D01*
X133268506Y-49638044D01*
X133264952Y-49640410D01*
X133006733Y-49750690D01*
X133002267Y-49751629D01*
X132998096Y-49751675D01*
X132993373Y-49750736D01*
X132889588Y-49706411D01*
X132735193Y-49640472D01*
X132731426Y-49637895D01*
X132730056Y-49636495D01*
X132726719Y-49628485D01*
X132726698Y-49627090D01*
X132726696Y-49626930D01*
X132727412Y-49622727D01*
X132797310Y-49432315D01*
X132839197Y-49318206D01*
X132896383Y-49162416D01*
X132898759Y-49158525D01*
X132900760Y-49156353D01*
X132906900Y-49152846D01*
X132906924Y-49152840D01*
X132906980Y-49152829D01*
X132909441Y-49152567D01*
X133085473Y-49152567D01*
X133089948Y-49153457D01*
G37*
%TD.AperFunction*%
%TD*%
%TA.AperFunction,Conductor*%
%TO.N,/~{SE1}*%
G36*
X123137305Y-21612938D02*
G01*
X123142812Y-21619462D01*
X123553404Y-22827434D01*
X123552821Y-22836370D01*
X123550599Y-22839472D01*
X123419472Y-22970599D01*
X123411199Y-22974026D01*
X123407434Y-22973404D01*
X122199462Y-22562812D01*
X122192732Y-22556905D01*
X122192013Y-22548398D01*
X122404893Y-21832767D01*
X122410535Y-21825817D01*
X122412761Y-21824895D01*
X123128398Y-21612013D01*
X123137305Y-21612938D01*
G37*
%TD.AperFunction*%
%TD*%
%TA.AperFunction,Conductor*%
%TO.N,/~{SE1}*%
G36*
X125955147Y-51775726D02*
G01*
X125970814Y-51791392D01*
X125973350Y-51795188D01*
X126001697Y-51863626D01*
X126001763Y-51863787D01*
X126174706Y-52299597D01*
X126174572Y-52308551D01*
X126168426Y-52314673D01*
X125906343Y-52426604D01*
X125897389Y-52426702D01*
X125897153Y-52426604D01*
X125635069Y-52314673D01*
X125628806Y-52308272D01*
X125628789Y-52299598D01*
X125791106Y-51890564D01*
X125797342Y-51884141D01*
X125806296Y-51884007D01*
X125812721Y-51890244D01*
X125812789Y-51890405D01*
X125816049Y-51898276D01*
X125816050Y-51898276D01*
X125816050Y-51898277D01*
X125938602Y-51775725D01*
X125946874Y-51772299D01*
X125955147Y-51775726D01*
G37*
%TD.AperFunction*%
%TD*%
%TA.AperFunction,Conductor*%
%TO.N,/~{WE1}*%
G36*
X129482613Y-34312450D02*
G01*
X129490348Y-34316543D01*
X129491388Y-34317776D01*
X129493523Y-34321555D01*
X129902655Y-35525231D01*
X129903252Y-35529758D01*
X129903046Y-35532915D01*
X129899644Y-35540426D01*
X129771117Y-35668953D01*
X129767321Y-35671490D01*
X129764397Y-35672701D01*
X129756155Y-35672969D01*
X128551664Y-35263560D01*
X128547712Y-35261276D01*
X128546275Y-35260015D01*
X128542334Y-35252204D01*
X128542198Y-35250591D01*
X128542643Y-35246279D01*
X128754229Y-34534999D01*
X128756358Y-34530963D01*
X128758532Y-34528284D01*
X128764278Y-34524443D01*
X129476170Y-34312675D01*
X129480703Y-34312252D01*
X129482613Y-34312450D01*
G37*
%TD.AperFunction*%
%TD*%
%TA.AperFunction,Conductor*%
%TO.N,/~{WE1}*%
G36*
X129619560Y-53748622D02*
G01*
X129619629Y-53748666D01*
X129621648Y-53750281D01*
X129748972Y-53877605D01*
X129751508Y-53881400D01*
X129752636Y-53884123D01*
X129753227Y-53891232D01*
X129753209Y-53891310D01*
X129752426Y-53893594D01*
X129546044Y-54339375D01*
X129543353Y-54343067D01*
X129541912Y-54344394D01*
X129533813Y-54347486D01*
X129532261Y-54347463D01*
X129528075Y-54346622D01*
X129267510Y-54242015D01*
X129263687Y-54239521D01*
X129260700Y-54236598D01*
X129258028Y-54232598D01*
X129153433Y-53972065D01*
X129152593Y-53967582D01*
X129152614Y-53965622D01*
X129155914Y-53957607D01*
X129157001Y-53956486D01*
X129160474Y-53954024D01*
X129602497Y-53749381D01*
X129605450Y-53748014D01*
X129609887Y-53746941D01*
X129612830Y-53746821D01*
X129619560Y-53748622D01*
G37*
%TD.AperFunction*%
%TD*%
%TA.AperFunction,Conductor*%
%TO.N,/RD0*%
G36*
X122730709Y-48844884D02*
G01*
X122731846Y-48845894D01*
X122734836Y-48850046D01*
X122844690Y-49107266D01*
X122845629Y-49111732D01*
X122845675Y-49115903D01*
X122844736Y-49120627D01*
X122734930Y-49377731D01*
X122732351Y-49381500D01*
X122731076Y-49382747D01*
X122722772Y-49386082D01*
X122721255Y-49386066D01*
X122716271Y-49384894D01*
X122610379Y-49333523D01*
X122364000Y-49214000D01*
X122363986Y-49213994D01*
X122363982Y-49213992D01*
X122296505Y-49186042D01*
X122294484Y-49184962D01*
X122292602Y-49183705D01*
X122290827Y-49182249D01*
X122220170Y-49111592D01*
X122217636Y-49107802D01*
X122216952Y-49106152D01*
X122216950Y-49097203D01*
X122217637Y-49095544D01*
X122220168Y-49091757D01*
X122335080Y-48976844D01*
X122338875Y-48974309D01*
X122339552Y-48974029D01*
X122340523Y-48973628D01*
X122349104Y-48973484D01*
X122349120Y-48973490D01*
X122355251Y-48978784D01*
X122355605Y-48979423D01*
X122356768Y-48982467D01*
X122364074Y-49014328D01*
X122365993Y-49013772D01*
X122367184Y-49013637D01*
X122367426Y-49013055D01*
X122370587Y-49010804D01*
X122716060Y-48843206D01*
X122720474Y-48842055D01*
X122722168Y-48841956D01*
X122722255Y-48841951D01*
X122730709Y-48844884D01*
G37*
%TD.AperFunction*%
%TD*%
%TA.AperFunction,Conductor*%
%TO.N,/RD0*%
G36*
X121254557Y-30926379D02*
G01*
X121516947Y-31038441D01*
X121523210Y-31044842D01*
X121523335Y-31053233D01*
X121352815Y-31517765D01*
X121346748Y-31524350D01*
X121341832Y-31525433D01*
X121158168Y-31525433D01*
X121149895Y-31522006D01*
X121147185Y-31517765D01*
X120976664Y-31053233D01*
X120977030Y-31044285D01*
X120983050Y-31038442D01*
X121245406Y-30926394D01*
X121254359Y-30926297D01*
X121254557Y-30926379D01*
G37*
%TD.AperFunction*%
%TD*%
%TA.AperFunction,Conductor*%
%TO.N,/RD1*%
G36*
X121837974Y-49152316D02*
G01*
X121840839Y-49153534D01*
X122082198Y-49296774D01*
X122173300Y-49350840D01*
X122174287Y-49351497D01*
X122178464Y-49354593D01*
X122178470Y-49354597D01*
X122180343Y-49355848D01*
X122197610Y-49366195D01*
X122197620Y-49366200D01*
X122197629Y-49366206D01*
X122197641Y-49366212D01*
X122197651Y-49366218D01*
X122199632Y-49367277D01*
X122199642Y-49367281D01*
X122199650Y-49367286D01*
X122205867Y-49370226D01*
X122206811Y-49370728D01*
X122345107Y-49452803D01*
X122348497Y-49455847D01*
X122349568Y-49457279D01*
X122351783Y-49465953D01*
X122351782Y-49465958D01*
X122351656Y-49466832D01*
X122348544Y-49473237D01*
X122190681Y-49638793D01*
X122187104Y-49641348D01*
X122185214Y-49642217D01*
X122183323Y-49643087D01*
X122179057Y-49644141D01*
X121858369Y-49661228D01*
X121853851Y-49660577D01*
X121851084Y-49659600D01*
X121845443Y-49655347D01*
X121845384Y-49655264D01*
X121844148Y-49653049D01*
X121836764Y-49635607D01*
X121836480Y-49634867D01*
X121836467Y-49634831D01*
X121836220Y-49634112D01*
X121835995Y-49633379D01*
X121830021Y-49611082D01*
X121830020Y-49611081D01*
X121830020Y-49611079D01*
X121816912Y-49588377D01*
X121816572Y-49587746D01*
X121816514Y-49587630D01*
X121816257Y-49587114D01*
X121815971Y-49586490D01*
X121694230Y-49298915D01*
X121693305Y-49294450D01*
X121693282Y-49291416D01*
X121696645Y-49283119D01*
X121823601Y-49156163D01*
X121827394Y-49153630D01*
X121828301Y-49153254D01*
X121829813Y-49152627D01*
X121837390Y-49152156D01*
X121837974Y-49152316D01*
G37*
%TD.AperFunction*%
%TD*%
%TA.AperFunction,Conductor*%
%TO.N,/RD1*%
G36*
X120937495Y-33998757D02*
G01*
X120945387Y-34002985D01*
X120947980Y-34011557D01*
X120947868Y-34012384D01*
X120851672Y-34571415D01*
X120846891Y-34578987D01*
X120840141Y-34581131D01*
X120658417Y-34581131D01*
X120650144Y-34577704D01*
X120647324Y-34573150D01*
X120646742Y-34571415D01*
X120551813Y-34288251D01*
X120552432Y-34279319D01*
X120553137Y-34278093D01*
X120746108Y-33986020D01*
X120753527Y-33981009D01*
X120757026Y-33980829D01*
X120937495Y-33998757D01*
G37*
%TD.AperFunction*%
%TD*%
%TA.AperFunction,Conductor*%
%TO.N,/RD2*%
G36*
X121544809Y-49580459D02*
G01*
X121619065Y-49654714D01*
X121621601Y-49658509D01*
X121646223Y-49717954D01*
X121647114Y-49722428D01*
X121647114Y-49739517D01*
X121681220Y-49866807D01*
X121681222Y-49866811D01*
X121747111Y-49980933D01*
X121747115Y-49980938D01*
X121797578Y-50031401D01*
X121799823Y-50034549D01*
X121821777Y-50079605D01*
X121822320Y-50088543D01*
X121816384Y-50095248D01*
X121815854Y-50095490D01*
X121554595Y-50207069D01*
X121545641Y-50207167D01*
X121545405Y-50207069D01*
X121284145Y-50095490D01*
X121277882Y-50089089D01*
X121277980Y-50080135D01*
X121278211Y-50079628D01*
X121450000Y-49727071D01*
X121449999Y-49727070D01*
X121450000Y-49727070D01*
X121415290Y-49718557D01*
X121408071Y-49713258D01*
X121406714Y-49704407D01*
X121409802Y-49698923D01*
X121528266Y-49580459D01*
X121536538Y-49577033D01*
X121544809Y-49580459D01*
G37*
%TD.AperFunction*%
%TD*%
%TA.AperFunction,Conductor*%
%TO.N,/RD2*%
G36*
X128768266Y-19297277D02*
G01*
X129488075Y-20018030D01*
X129504459Y-20034436D01*
X129507880Y-20042712D01*
X129504448Y-20050983D01*
X129497288Y-20054351D01*
X128860000Y-20114999D01*
X128831601Y-20183560D01*
X128829065Y-20187356D01*
X128344717Y-20671705D01*
X128336444Y-20675132D01*
X128328171Y-20671705D01*
X128203689Y-20547223D01*
X128200262Y-20538950D01*
X128203689Y-20530677D01*
X128204055Y-20530327D01*
X128660000Y-20115000D01*
X128659998Y-20114999D01*
X128659999Y-20114999D01*
X128022711Y-20054351D01*
X128014799Y-20050156D01*
X128012172Y-20041596D01*
X128015539Y-20034437D01*
X128751722Y-19297288D01*
X128759992Y-19293857D01*
X128768266Y-19297277D01*
G37*
%TD.AperFunction*%
%TD*%
%TA.AperFunction,Conductor*%
%TO.N,/RD3*%
G36*
X121039948Y-50203457D02*
G01*
X121040414Y-50203650D01*
X121041593Y-50204138D01*
X121047925Y-50210466D01*
X121047927Y-50210469D01*
X121048609Y-50212115D01*
X121049500Y-50216594D01*
X121049500Y-50271359D01*
X121083605Y-50398647D01*
X121083606Y-50398649D01*
X121083618Y-50398671D01*
X121149496Y-50512774D01*
X121149504Y-50512783D01*
X121169485Y-50532764D01*
X121171071Y-50534737D01*
X121172411Y-50536834D01*
X121173535Y-50539102D01*
X121222532Y-50672580D01*
X121223239Y-50677090D01*
X121223159Y-50679046D01*
X121219617Y-50686964D01*
X121218502Y-50688046D01*
X121214949Y-50690410D01*
X120956733Y-50800690D01*
X120952267Y-50801629D01*
X120948096Y-50801675D01*
X120943373Y-50800736D01*
X120839588Y-50756411D01*
X120685193Y-50690472D01*
X120681426Y-50687895D01*
X120680056Y-50686495D01*
X120676719Y-50678485D01*
X120676698Y-50677090D01*
X120676696Y-50676930D01*
X120677412Y-50672727D01*
X120727297Y-50536834D01*
X120824748Y-50271359D01*
X120846383Y-50212416D01*
X120848759Y-50208525D01*
X120850760Y-50206353D01*
X120856900Y-50202846D01*
X120856924Y-50202840D01*
X120856980Y-50202829D01*
X120859441Y-50202567D01*
X121035473Y-50202567D01*
X121039948Y-50203457D01*
G37*
%TD.AperFunction*%
%TD*%
%TA.AperFunction,Conductor*%
%TO.N,/RD3*%
G36*
X131192753Y-19052589D02*
G01*
X131196545Y-19055124D01*
X131318402Y-19176980D01*
X131368249Y-19226827D01*
X131369705Y-19228602D01*
X131370962Y-19230484D01*
X131372042Y-19232505D01*
X131399990Y-19299981D01*
X131399998Y-19299996D01*
X131399998Y-19299997D01*
X131633567Y-19667811D01*
X131964051Y-20188243D01*
X131965699Y-20192497D01*
X131966006Y-20194250D01*
X131964057Y-20202990D01*
X131963242Y-20204151D01*
X131959237Y-20207718D01*
X131307616Y-20560544D01*
X131303256Y-20561892D01*
X131300816Y-20562145D01*
X131299823Y-20562248D01*
X131293042Y-20560901D01*
X130641052Y-20207876D01*
X130637538Y-20204959D01*
X130636415Y-20203575D01*
X130633863Y-20195000D01*
X130634010Y-20193581D01*
X130635767Y-20188525D01*
X131200000Y-19300000D01*
X131200000Y-19299999D01*
X131199997Y-19299997D01*
X131101207Y-19227643D01*
X131058093Y-19196065D01*
X131055008Y-19192703D01*
X131054083Y-19191181D01*
X131052714Y-19182334D01*
X131052977Y-19181258D01*
X131056066Y-19175769D01*
X131176713Y-19055122D01*
X131180500Y-19052591D01*
X131182152Y-19051906D01*
X131191102Y-19051906D01*
X131192753Y-19052589D01*
G37*
%TD.AperFunction*%
%TD*%
%TA.AperFunction,Conductor*%
%TO.N,/RD4*%
G36*
X121113604Y-51349225D02*
G01*
X121287748Y-51571827D01*
X121290147Y-51580454D01*
X121287748Y-51586245D01*
X121113604Y-51808846D01*
X121105807Y-51813251D01*
X121098305Y-51811631D01*
X120880504Y-51679035D01*
X120880495Y-51679030D01*
X120811945Y-51650637D01*
X120808149Y-51648101D01*
X120685049Y-51525001D01*
X120681622Y-51516728D01*
X120685049Y-51508455D01*
X120714469Y-51479035D01*
X120807608Y-51385895D01*
X120815880Y-51382469D01*
X120824153Y-51385896D01*
X120825907Y-51388141D01*
X120880506Y-51479036D01*
X121098307Y-51346439D01*
X121107153Y-51345065D01*
X121113604Y-51349225D01*
G37*
%TD.AperFunction*%
%TD*%
%TA.AperFunction,Conductor*%
%TO.N,/RD4*%
G36*
X119707050Y-31297616D02*
G01*
X119788181Y-31331929D01*
X119791960Y-31334495D01*
X119794109Y-31336677D01*
X119797473Y-31344833D01*
X119799500Y-31786597D01*
X119799500Y-31881606D01*
X119798609Y-31886085D01*
X119797927Y-31887731D01*
X119791599Y-31894060D01*
X119790727Y-31894421D01*
X119789952Y-31894742D01*
X119785473Y-31895634D01*
X119607173Y-31895634D01*
X119602695Y-31894743D01*
X119598722Y-31893097D01*
X119594927Y-31890561D01*
X119274231Y-31569865D01*
X119271697Y-31566075D01*
X119271013Y-31564425D01*
X119271011Y-31555476D01*
X119271333Y-31554696D01*
X119276116Y-31549148D01*
X119692908Y-31298890D01*
X119697201Y-31297352D01*
X119700769Y-31296820D01*
X119707050Y-31297616D01*
G37*
%TD.AperFunction*%
%TD*%
%TA.AperFunction,Conductor*%
%TO.N,/RD5*%
G36*
X119097884Y-32226008D02*
G01*
X119104285Y-32232271D01*
X119104383Y-32232507D01*
X119210448Y-32496704D01*
X119210350Y-32505658D01*
X119203956Y-32511918D01*
X118824999Y-32664323D01*
X118822994Y-32667292D01*
X118822458Y-32666930D01*
X118821573Y-32669068D01*
X118813300Y-32672495D01*
X118803560Y-32672495D01*
X118803560Y-32671878D01*
X118803458Y-32671857D01*
X118803458Y-32672495D01*
X118637200Y-32672495D01*
X118628927Y-32669068D01*
X118625500Y-32660795D01*
X118625500Y-32606510D01*
X118626390Y-32602035D01*
X118642645Y-32562791D01*
X118654280Y-32534704D01*
X118818473Y-32126435D01*
X118824739Y-32120038D01*
X118833686Y-32119943D01*
X119097884Y-32226008D01*
G37*
%TD.AperFunction*%
%TD*%
%TA.AperFunction,Conductor*%
%TO.N,/RD5*%
G36*
X120450615Y-51853696D02*
G01*
X120450722Y-51853723D01*
X120453309Y-51854700D01*
X120456106Y-51856156D01*
X120708039Y-51987282D01*
X120711593Y-51990133D01*
X120714118Y-51993142D01*
X120716541Y-51997970D01*
X120796468Y-52336273D01*
X120796630Y-52340835D01*
X120796130Y-52343919D01*
X120791852Y-52351213D01*
X120658930Y-52456657D01*
X120654869Y-52458742D01*
X120653155Y-52459231D01*
X120644259Y-52458205D01*
X120642904Y-52457451D01*
X120639131Y-52454108D01*
X120561585Y-52347376D01*
X120310273Y-52001479D01*
X120308361Y-51997334D01*
X120307821Y-51995085D01*
X120308770Y-51987047D01*
X120309254Y-51986098D01*
X120311402Y-51983140D01*
X120436744Y-51857798D01*
X120440534Y-51855265D01*
X120443123Y-51854193D01*
X120450409Y-51853646D01*
X120450615Y-51853696D01*
G37*
%TD.AperFunction*%
%TD*%
%TA.AperFunction,Conductor*%
%TO.N,/RD6*%
G36*
X121289289Y-52580397D02*
G01*
X121297202Y-52583934D01*
X121298287Y-52585052D01*
X121300649Y-52588602D01*
X121309176Y-52608565D01*
X121410931Y-52846824D01*
X121411870Y-52851290D01*
X121411916Y-52855461D01*
X121410977Y-52860185D01*
X121300713Y-53118363D01*
X121298136Y-53122130D01*
X121296736Y-53123500D01*
X121288726Y-53126837D01*
X121287173Y-53126860D01*
X121282968Y-53126144D01*
X121060092Y-53044330D01*
X121059169Y-53043946D01*
X121058262Y-53043522D01*
X121057367Y-53043056D01*
X120990853Y-53004655D01*
X120990853Y-53004654D01*
X120967329Y-52991072D01*
X120965305Y-52988435D01*
X120833271Y-52953058D01*
X120833269Y-52953058D01*
X120833267Y-52953058D01*
X120826835Y-52953058D01*
X120822358Y-52952167D01*
X120820709Y-52951484D01*
X120814380Y-52945153D01*
X120813697Y-52943503D01*
X120812808Y-52939030D01*
X120812808Y-52768085D01*
X120813697Y-52763612D01*
X120813731Y-52763527D01*
X120814379Y-52761964D01*
X120820704Y-52755633D01*
X120822362Y-52754947D01*
X120826835Y-52754058D01*
X120927192Y-52754058D01*
X120928598Y-52753245D01*
X120989217Y-52737004D01*
X121052862Y-52719951D01*
X121052866Y-52719949D01*
X121090906Y-52697986D01*
X121166992Y-52654058D01*
X121212488Y-52608560D01*
X121214453Y-52606981D01*
X121216549Y-52605641D01*
X121218805Y-52604522D01*
X121282822Y-52581023D01*
X121287330Y-52580317D01*
X121289289Y-52580397D01*
G37*
%TD.AperFunction*%
%TD*%
%TA.AperFunction,Conductor*%
%TO.N,/RD6*%
G36*
X121661819Y-18541801D02*
G01*
X122402710Y-19281721D01*
X122406142Y-19289992D01*
X122402721Y-19298268D01*
X122402710Y-19298279D01*
X121661819Y-20038198D01*
X121653543Y-20041619D01*
X121645272Y-20038187D01*
X121642351Y-20033303D01*
X121559209Y-19758104D01*
X121448000Y-19390000D01*
X121129559Y-19748815D01*
X121121504Y-19752728D01*
X121113042Y-19749800D01*
X121112535Y-19749322D01*
X120988168Y-19624955D01*
X120984741Y-19616682D01*
X120988166Y-19608412D01*
X121375646Y-19220931D01*
X121379437Y-19218399D01*
X121448000Y-19190000D01*
X121642352Y-18546694D01*
X121648024Y-18539768D01*
X121656935Y-18538880D01*
X121661819Y-18541801D01*
G37*
%TD.AperFunction*%
%TD*%
%TA.AperFunction,Conductor*%
%TO.N,/RD7*%
G36*
X124827225Y-19060803D02*
G01*
X125019065Y-19252643D01*
X125021601Y-19256439D01*
X125049997Y-19324995D01*
X125615076Y-20190158D01*
X125616731Y-20198959D01*
X125611678Y-20206352D01*
X125610851Y-20206845D01*
X124955571Y-20561652D01*
X124946664Y-20562577D01*
X124944429Y-20561652D01*
X124289148Y-20206845D01*
X124283505Y-20199892D01*
X124284430Y-20190985D01*
X124284910Y-20190178D01*
X124850000Y-19325000D01*
X124849993Y-19324995D01*
X124688203Y-19202062D01*
X124683688Y-19194328D01*
X124685965Y-19185668D01*
X124687001Y-19184480D01*
X124810679Y-19060803D01*
X124818952Y-19057376D01*
X124827225Y-19060803D01*
G37*
%TD.AperFunction*%
%TD*%
%TA.AperFunction,Conductor*%
%TO.N,/RD7*%
G36*
X120654214Y-53184288D02*
G01*
X120655482Y-53185519D01*
X120658086Y-53189313D01*
X120768065Y-53446824D01*
X120769004Y-53451290D01*
X120769050Y-53455461D01*
X120768111Y-53460185D01*
X120658095Y-53717781D01*
X120655516Y-53721550D01*
X120654241Y-53722797D01*
X120645934Y-53726132D01*
X120644176Y-53726113D01*
X120639668Y-53725157D01*
X120241750Y-53553538D01*
X120174300Y-53525600D01*
X120172279Y-53524520D01*
X120170397Y-53523263D01*
X120168622Y-53521807D01*
X120145680Y-53498865D01*
X120130193Y-53483377D01*
X120127658Y-53479584D01*
X120126976Y-53477939D01*
X120126975Y-53471200D01*
X120126821Y-53470696D01*
X120126975Y-53470405D01*
X120126975Y-53468986D01*
X120127660Y-53467332D01*
X120130191Y-53463545D01*
X120251781Y-53341955D01*
X120255576Y-53339420D01*
X120256253Y-53339140D01*
X120257224Y-53338739D01*
X120266172Y-53338740D01*
X120267817Y-53339421D01*
X120270118Y-53340958D01*
X120270731Y-53341074D01*
X120270733Y-53341076D01*
X120639651Y-53181964D01*
X120644109Y-53181009D01*
X120645896Y-53180983D01*
X120654214Y-53184288D01*
G37*
%TD.AperFunction*%
%TD*%
%TA.AperFunction,Conductor*%
%TO.N,VCCA*%
G36*
X143982513Y-77887616D02*
G01*
X144112383Y-78017486D01*
X144115810Y-78025759D01*
X144114727Y-78030675D01*
X143906831Y-78479724D01*
X143900246Y-78485791D01*
X143891855Y-78485666D01*
X143627115Y-78379383D01*
X143620714Y-78373120D01*
X143620616Y-78372884D01*
X143514333Y-78108144D01*
X143514431Y-78099190D01*
X143520272Y-78093170D01*
X143969327Y-77885271D01*
X143978272Y-77884906D01*
X143982513Y-77887616D01*
G37*
%TD.AperFunction*%
%TD*%
%TA.AperFunction,Conductor*%
%TO.N,VCCA*%
G36*
X142964765Y-74272185D02*
G01*
X142971350Y-74278252D01*
X142972433Y-74283168D01*
X142972433Y-74466831D01*
X142969006Y-74475104D01*
X142964765Y-74477814D01*
X142500233Y-74648335D01*
X142491285Y-74647969D01*
X142485441Y-74641947D01*
X142414185Y-74475104D01*
X142373394Y-74379593D01*
X142373297Y-74370641D01*
X142373395Y-74370405D01*
X142485442Y-74108050D01*
X142491842Y-74101789D01*
X142500233Y-74101664D01*
X142964765Y-74272185D01*
G37*
%TD.AperFunction*%
%TD*%
%TA.AperFunction,Conductor*%
%TO.N,VCCA*%
G36*
X143629557Y-78373379D02*
G01*
X143891947Y-78485441D01*
X143898210Y-78491842D01*
X143898335Y-78500233D01*
X143727815Y-78964765D01*
X143721748Y-78971350D01*
X143716832Y-78972433D01*
X143533168Y-78972433D01*
X143524895Y-78969006D01*
X143522185Y-78964765D01*
X143351664Y-78500233D01*
X143352030Y-78491285D01*
X143358050Y-78485442D01*
X143620406Y-78373394D01*
X143629359Y-78373297D01*
X143629557Y-78373379D01*
G37*
%TD.AperFunction*%
%TD*%
%TA.AperFunction,Conductor*%
%TO.N,VCCA*%
G36*
X145974995Y-86399130D02*
G01*
X145977755Y-86403510D01*
X146141683Y-86868081D01*
X146141205Y-86877023D01*
X146135343Y-86882691D01*
X145879580Y-86994697D01*
X145870627Y-86994877D01*
X145870386Y-86994780D01*
X145601446Y-86882696D01*
X145595128Y-86876350D01*
X145595015Y-86867727D01*
X145772128Y-86403234D01*
X145778277Y-86396725D01*
X145783060Y-86395703D01*
X145966722Y-86395703D01*
X145974995Y-86399130D01*
G37*
%TD.AperFunction*%
%TD*%
M02*
