%TF.GenerationSoftware,KiCad,Pcbnew,10.0.5+dfsg-1*%
%TF.CreationDate,2026-09-13T14:09:32+09:00*%
%TF.ProjectId,VdpBooster,56647042-6f6f-4737-9465-722e6b696361,rev?*%
%TF.SameCoordinates,Original*%
%TF.FileFunction,Copper,L1,Top*%
%TF.FilePolarity,Positive*%
%FSLAX46Y46*%
G04 Gerber Fmt 4.6, Leading zero omitted, Abs format (unit mm)*
G04 Created by KiCad (PCBNEW 10.0.5+dfsg-1) date 2026-09-13 14:09:32*
%MOMM*%
%LPD*%
G01*
G04 APERTURE LIST*
G04 Aperture macros list*
%AMRoundRect*
0 Rectangle with rounded corners*
0 $1 Rounding radius*
0 $2 $3 $4 $5 $6 $7 $8 $9 X,Y pos of 4 corners*
0 Add a 4 corners polygon primitive as box body*
4,1,4,$2,$3,$4,$5,$6,$7,$8,$9,$2,$3,0*
0 Add four circle primitives for the rounded corners*
1,1,$1+$1,$2,$3*
1,1,$1+$1,$4,$5*
1,1,$1+$1,$6,$7*
1,1,$1+$1,$8,$9*
0 Add four rect primitives between the rounded corners*
20,1,$1+$1,$2,$3,$4,$5,0*
20,1,$1+$1,$4,$5,$6,$7,0*
20,1,$1+$1,$6,$7,$8,$9,0*
20,1,$1+$1,$8,$9,$2,$3,0*%
G04 Aperture macros list end*
%TA.AperFunction,ComponentPad*%
%ADD10R,1.524000X1.524000*%
%TD*%
%TA.AperFunction,ComponentPad*%
%ADD11C,1.524000*%
%TD*%
%TA.AperFunction,SMDPad,CuDef*%
%ADD12R,2.000000X2.000000*%
%TD*%
%TA.AperFunction,SMDPad,CuDef*%
%ADD13RoundRect,0.237500X-0.250000X-0.237500X0.250000X-0.237500X0.250000X0.237500X-0.250000X0.237500X0*%
%TD*%
%TA.AperFunction,SMDPad,CuDef*%
%ADD14RoundRect,0.237500X0.250000X0.237500X-0.250000X0.237500X-0.250000X-0.237500X0.250000X-0.237500X0*%
%TD*%
%TA.AperFunction,SMDPad,CuDef*%
%ADD15RoundRect,0.237500X-0.300000X-0.237500X0.300000X-0.237500X0.300000X0.237500X-0.300000X0.237500X0*%
%TD*%
%TA.AperFunction,SMDPad,CuDef*%
%ADD16RoundRect,0.237500X0.300000X0.237500X-0.300000X0.237500X-0.300000X-0.237500X0.300000X-0.237500X0*%
%TD*%
%TA.AperFunction,SMDPad,CuDef*%
%ADD17RoundRect,0.237500X0.237500X-0.300000X0.237500X0.300000X-0.237500X0.300000X-0.237500X-0.300000X0*%
%TD*%
%TA.AperFunction,SMDPad,CuDef*%
%ADD18RoundRect,0.137500X-0.737500X-0.137500X0.737500X-0.137500X0.737500X0.137500X-0.737500X0.137500X0*%
%TD*%
%TA.AperFunction,SMDPad,CuDef*%
%ADD19RoundRect,0.137500X-0.137500X-0.737500X0.137500X-0.737500X0.137500X0.737500X-0.137500X0.737500X0*%
%TD*%
%TA.AperFunction,ViaPad*%
%ADD20C,0.600000*%
%TD*%
%TA.AperFunction,Conductor*%
%ADD21C,0.200000*%
%TD*%
G04 APERTURE END LIST*
D10*
%TO.P,U1,1,W2/IO2_1*%
%TO.N,/A2*%
X135110000Y-19290000D03*
D11*
%TO.P,U1,2,W3/IO3_2*%
%TO.N,/A3*%
X137650000Y-20560000D03*
%TO.P,U1,3,~{SE}_3*%
%TO.N,/~{SE0}*%
X135110000Y-21830000D03*
%TO.P,U1,4,SIO2_4*%
%TO.N,/SD2*%
X137650000Y-23100000D03*
%TO.P,U1,5,SIO3_5*%
%TO.N,/SD3*%
X135110000Y-24370000D03*
%TO.P,U1,6,GND_6*%
%TO.N,GND*%
X137650000Y-25640000D03*
%TO.P,U1,7,SC_7*%
%TO.N,/SC*%
X135110000Y-26910000D03*
%TO.P,U1,8,SIO0_8*%
%TO.N,/SD0*%
X137650000Y-28180000D03*
%TO.P,U1,9,SIO1_9*%
%TO.N,/SD1*%
X135110000Y-29450000D03*
%TO.P,U1,10,~{DT}/~{OE}_10*%
%TO.N,/~{OE1}*%
X137650000Y-30720000D03*
%TO.P,U1,11,W0/IO0_11*%
%TO.N,/A0*%
X135110000Y-31990000D03*
%TO.P,U1,12,W1/IO1_12*%
%TO.N,/A1*%
X137650000Y-33260000D03*
%TO.P,U1,13,~{WB}/~{WE}_13*%
%TO.N,/~{WE0}*%
X135110000Y-34530000D03*
%TO.P,U1,14,~{RAS}_14*%
%TO.N,/~{RAS1}*%
X137650000Y-35800000D03*
%TO.P,U1,15,A5_15*%
%TO.N,/A6*%
X135110000Y-37070000D03*
%TO.P,U1,16,A6_16*%
%TO.N,/A5*%
X137650000Y-38340000D03*
%TO.P,U1,17,A4_17*%
%TO.N,/A4*%
X135110000Y-39610000D03*
%TO.P,U1,18,VCC_18*%
%TO.N,VCC*%
X137650000Y-40880000D03*
%TO.P,U1,19,A7_19*%
%TO.N,/A7*%
X135110000Y-42150000D03*
%TO.P,U1,20,A3_20*%
%TO.N,/A3*%
X137650000Y-43420000D03*
%TO.P,U1,21,A2_21*%
%TO.N,/A2*%
X135110000Y-44690000D03*
%TO.P,U1,22,A1_22*%
%TO.N,/A1*%
X137650000Y-45960000D03*
%TO.P,U1,23,A0_23*%
%TO.N,/A0*%
X135110000Y-47230000D03*
%TO.P,U1,24,~{CAS}_24*%
%TO.N,/~{CAS1}*%
X137650000Y-48500000D03*
%TD*%
D12*
%TO.P,TP7,1,1_1*%
%TO.N,/VID_B_ENC*%
X125525000Y-84625000D03*
%TD*%
%TO.P,TP6,1,1_1*%
%TO.N,/VID_G_ENC*%
X125525000Y-80575000D03*
%TD*%
%TO.P,TP5,1,1_1*%
%TO.N,/VID_R_ENC*%
X125525000Y-76525000D03*
%TD*%
%TO.P,TP2,1,1_1*%
%TO.N,GNDA*%
X142750000Y-86500000D03*
%TD*%
%TO.P,TP1,1,1_1*%
%TO.N,VCCA*%
X139250000Y-86500000D03*
%TD*%
%TO.P,TP4,1,1_1*%
%TO.N,GND*%
X117500000Y-36000000D03*
%TD*%
%TO.P,TP3,1,1_1*%
%TO.N,VCC*%
X117500000Y-44500000D03*
%TD*%
D13*
%TO.P,R4,2*%
%TO.N,/VID_G*%
X135025000Y-80000000D03*
%TO.P,R4,1*%
%TO.N,VCCA*%
X133200000Y-80000000D03*
%TD*%
%TO.P,R9,1*%
%TO.N,GNDA*%
X129700000Y-85750000D03*
%TO.P,R9,2*%
%TO.N,Net-(C8-Pad1)*%
X131525000Y-85750000D03*
%TD*%
D14*
%TO.P,R8,1*%
%TO.N,/VID_B*%
X135025000Y-85750000D03*
%TO.P,R8,2*%
%TO.N,Net-(C8-Pad1)*%
X133200000Y-85750000D03*
%TD*%
D13*
%TO.P,R7,1*%
%TO.N,VCCA*%
X133200000Y-84000000D03*
%TO.P,R7,2*%
%TO.N,/VID_B*%
X135025000Y-84000000D03*
%TD*%
%TO.P,R6,1*%
%TO.N,GNDA*%
X129700000Y-81750000D03*
%TO.P,R6,2*%
%TO.N,Net-(C7-Pad1)*%
X131525000Y-81750000D03*
%TD*%
D14*
%TO.P,R5,1*%
%TO.N,/VID_G*%
X135025000Y-81750000D03*
%TO.P,R5,2*%
%TO.N,Net-(C7-Pad1)*%
X133200000Y-81750000D03*
%TD*%
D13*
%TO.P,R3,1*%
%TO.N,GNDA*%
X129700000Y-77750000D03*
%TO.P,R3,2*%
%TO.N,Net-(C6-Pad1)*%
X131525000Y-77750000D03*
%TD*%
D14*
%TO.P,R2,1*%
%TO.N,/VID_R*%
X135025000Y-77750000D03*
%TO.P,R2,2*%
%TO.N,Net-(C6-Pad1)*%
X133200000Y-77750000D03*
%TD*%
D13*
%TO.P,R1,1*%
%TO.N,VCCA*%
X133200000Y-76000000D03*
%TO.P,R1,2*%
%TO.N,/VID_R*%
X135025000Y-76000000D03*
%TD*%
D15*
%TO.P,C9,1*%
%TO.N,VCCA*%
X138637500Y-84000000D03*
%TO.P,C9,2*%
%TO.N,GNDA*%
X140362500Y-84000000D03*
%TD*%
D16*
%TO.P,C8,1*%
%TO.N,Net-(C8-Pad1)*%
X131475000Y-84000000D03*
%TO.P,C8,2*%
%TO.N,/VID_B_ENC*%
X129750000Y-84000000D03*
%TD*%
%TO.P,C7,1*%
%TO.N,Net-(C7-Pad1)*%
X131475000Y-80000000D03*
%TO.P,C7,2*%
%TO.N,/VID_G_ENC*%
X129750000Y-80000000D03*
%TD*%
%TO.P,C6,1*%
%TO.N,Net-(C6-Pad1)*%
X131475000Y-76000000D03*
%TO.P,C6,2*%
%TO.N,/VID_R_ENC*%
X129750000Y-76000000D03*
%TD*%
D17*
%TO.P,C5,1*%
%TO.N,VCC*%
X118500000Y-40912500D03*
%TO.P,C5,2*%
%TO.N,GND*%
X118500000Y-39187500D03*
%TD*%
D15*
%TO.P,C4,1*%
%TO.N,/SC*%
X130137500Y-53500000D03*
%TO.P,C4,2*%
%TO.N,GND*%
X131862500Y-53500000D03*
%TD*%
D16*
%TO.P,C3,1*%
%TO.N,/~{OE1}*%
X137862500Y-53500000D03*
%TO.P,C3,2*%
%TO.N,GND*%
X136137500Y-53500000D03*
%TD*%
%TO.P,C2,1*%
%TO.N,/~{CAS1}*%
X137862500Y-65500000D03*
%TO.P,C2,2*%
%TO.N,GND*%
X136137500Y-65500000D03*
%TD*%
D15*
%TO.P,C1,1*%
%TO.N,/~{RAS1}*%
X130137500Y-65500000D03*
%TO.P,C1,2*%
%TO.N,GND*%
X131862500Y-65500000D03*
%TD*%
D18*
%TO.P,U5,1,SD0_1*%
%TO.N,/SD0*%
X145000000Y-54900000D03*
%TO.P,U5,2,SD1_2*%
%TO.N,/SD1*%
X145000000Y-55700000D03*
%TO.P,U5,3,SD2_3*%
%TO.N,/SD2*%
X145000000Y-56500000D03*
%TO.P,U5,4,SD3_4*%
%TO.N,/SD3*%
X145000000Y-57300000D03*
%TO.P,U5,5,SD4_5*%
%TO.N,/SD4*%
X145000000Y-58100000D03*
%TO.P,U5,6,SD5_6*%
%TO.N,/SD5*%
X145000000Y-58900000D03*
%TO.P,U5,7,SD6_7*%
%TO.N,/SD6*%
X145000000Y-59700000D03*
%TO.P,U5,8,SD7_8*%
%TO.N,/SD7*%
X145000000Y-60500000D03*
%TO.P,U5,9,~{SE1}_9*%
%TO.N,/~{SE1}*%
X145000000Y-61300000D03*
%TO.P,U5,10,~{SE0}_10*%
%TO.N,/~{SE0}*%
X145000000Y-62100000D03*
%TO.P,U5,11,SC_11*%
%TO.N,/SC*%
X145000000Y-62900000D03*
%TO.P,U5,12,~{RAS1}_12*%
%TO.N,/~{RAS1}*%
X145000000Y-63700000D03*
%TO.P,U5,13,~{CAS1}_13*%
%TO.N,/~{CAS1}*%
X145000000Y-64500000D03*
%TO.P,U5,14,~{WE1}_14*%
%TO.N,/~{WE1}*%
X145000000Y-65300000D03*
%TO.P,U5,15,~{WE0}_15*%
%TO.N,/~{WE0}*%
X145000000Y-66100000D03*
%TO.P,U5,16,~{OE1}_16*%
%TO.N,/~{OE1}*%
X145000000Y-66900000D03*
%TO.P,U5,17,GND_17*%
%TO.N,GND*%
X145000000Y-67700000D03*
%TO.P,U5,18,RD0_18*%
%TO.N,/RD0*%
X145000000Y-68500000D03*
%TO.P,U5,19,RD1_19*%
%TO.N,/RD1*%
X145000000Y-69300000D03*
%TO.P,U5,20,RD2_20*%
%TO.N,/RD2*%
X145000000Y-70100000D03*
%TO.P,U5,21,RD3_21*%
%TO.N,/RD3*%
X145000000Y-70900000D03*
%TO.P,U5,22,RD4_22*%
%TO.N,/RD4*%
X145000000Y-71700000D03*
%TO.P,U5,23,RD5_23*%
%TO.N,/RD5*%
X145000000Y-72500000D03*
%TO.P,U5,24,RD6_24*%
%TO.N,/RD6*%
X145000000Y-73300000D03*
%TO.P,U5,25,RD7_25*%
%TO.N,/RD7*%
X145000000Y-74100000D03*
%TO.P,U5,26,AGC_26*%
%TO.N,GNDA*%
X145000000Y-74900000D03*
%TO.P,U5,27,R_27*%
%TO.N,/VID_R*%
X145000000Y-75700000D03*
%TO.P,U5,28,G_28*%
%TO.N,/VID_G*%
X145000000Y-76500000D03*
%TO.P,U5,29,B_29*%
%TO.N,/VID_B*%
X145000000Y-77300000D03*
%TO.P,U5,30,AVC_30*%
%TO.N,VCCA*%
X145000000Y-78100000D03*
%TO.P,U5,31,AD0_31*%
%TO.N,/A0*%
X145000000Y-78900000D03*
%TO.P,U5,32,AD1_32*%
%TO.N,/A1*%
X145000000Y-79700000D03*
D19*
%TO.P,U5,33,AD2_33*%
%TO.N,/A2*%
X147725000Y-82425000D03*
%TO.P,U5,34,AD3_34*%
%TO.N,/A3*%
X148525000Y-82425000D03*
%TO.P,U5,35,AD4_35*%
%TO.N,/A4*%
X149325000Y-82425000D03*
%TO.P,U5,36,AD5_36*%
%TO.N,/A5*%
X150125000Y-82425000D03*
%TO.P,U5,37,AD6_37*%
%TO.N,/A6*%
X150925000Y-82425000D03*
%TO.P,U5,38,AD7_38*%
%TO.N,/A7*%
X151725000Y-82425000D03*
%TO.P,U5,39,~{YS}_39*%
%TO.N,unconnected-(U5-~{YS}-Pad39)*%
X152525000Y-82425000D03*
%TO.P,U5,40,SPA/B_40*%
%TO.N,unconnected-(U5-SPA{slash}B-Pad40)*%
X153325000Y-82425000D03*
%TO.P,U5,41,~{VSYNC}_41*%
%TO.N,unconnected-(U5-~{VSYNC}-Pad41)*%
X154125000Y-82425000D03*
%TO.P,U5,42,~{CSYNC}_42*%
%TO.N,unconnected-(U5-~{CSYNC}-Pad42)*%
X154925000Y-82425000D03*
%TO.P,U5,43,~{HSYNC}_43*%
%TO.N,unconnected-(U5-~{HSYNC}-Pad43)*%
X155725000Y-82425000D03*
%TO.P,U5,44,~{HL}_44*%
%TO.N,unconnected-(U5-~{HL}-Pad44)*%
X156525000Y-82425000D03*
%TO.P,U5,45,SEL0_45*%
%TO.N,unconnected-(U5-SEL0-Pad45)*%
X157325000Y-82425000D03*
%TO.P,U5,46,~{PAL}_46*%
%TO.N,unconnected-(U5-~{PAL}-Pad46)*%
X158125000Y-82425000D03*
%TO.P,U5,47,~{RESET}_47*%
%TO.N,unconnected-(U5-~{RESET}-Pad47)*%
X158925000Y-82425000D03*
%TO.P,U5,48,SEL1_48*%
%TO.N,unconnected-(U5-SEL1-Pad48)*%
X159725000Y-82425000D03*
%TO.P,U5,49,CLK1_49*%
%TO.N,unconnected-(U5-CLK1-Pad49)*%
X160525000Y-82425000D03*
%TO.P,U5,50,SBCR_50*%
%TO.N,unconnected-(U5-SBCR-Pad50)*%
X161325000Y-82425000D03*
%TO.P,U5,51,CLK0_51*%
%TO.N,unconnected-(U5-CLK0-Pad51)*%
X162125000Y-82425000D03*
%TO.P,U5,52,MCK_52*%
%TO.N,unconnected-(U5-MCK-Pad52)*%
X162925000Y-82425000D03*
%TO.P,U5,53,EDCK_53*%
%TO.N,unconnected-(U5-EDCK-Pad53)*%
X163725000Y-82425000D03*
%TO.P,U5,54,VDD_54*%
%TO.N,unconnected-(U5-VDD-Pad54)*%
X164525000Y-82425000D03*
%TO.P,U5,55,CD0_55*%
%TO.N,unconnected-(U5-CD0-Pad55)*%
X165325000Y-82425000D03*
%TO.P,U5,56,CD1_56*%
%TO.N,unconnected-(U5-CD1-Pad56)*%
X166125000Y-82425000D03*
%TO.P,U5,57,CD2_57*%
%TO.N,unconnected-(U5-CD2-Pad57)*%
X166925000Y-82425000D03*
%TO.P,U5,58,CD3_58*%
%TO.N,unconnected-(U5-CD3-Pad58)*%
X167725000Y-82425000D03*
%TO.P,U5,59,CD4_59*%
%TO.N,unconnected-(U5-CD4-Pad59)*%
X168525000Y-82425000D03*
%TO.P,U5,60,CD5_60*%
%TO.N,unconnected-(U5-CD5-Pad60)*%
X169325000Y-82425000D03*
%TO.P,U5,61,CD6_61*%
%TO.N,unconnected-(U5-CD6-Pad61)*%
X170125000Y-82425000D03*
%TO.P,U5,62,CD7_62*%
%TO.N,unconnected-(U5-CD7-Pad62)*%
X170925000Y-82425000D03*
%TO.P,U5,63,CD8_63*%
%TO.N,unconnected-(U5-CD8-Pad63)*%
X171725000Y-82425000D03*
%TO.P,U5,64,CD9_64*%
%TO.N,unconnected-(U5-CD9-Pad64)*%
X172525000Y-82425000D03*
D18*
%TO.P,U5,65,CD10_65*%
%TO.N,unconnected-(U5-CD10-Pad65)*%
X175250000Y-79700000D03*
%TO.P,U5,66,CD11_66*%
%TO.N,unconnected-(U5-CD11-Pad66)*%
X175250000Y-78900000D03*
%TO.P,U5,67,CD12_67*%
%TO.N,unconnected-(U5-CD12-Pad67)*%
X175250000Y-78100000D03*
%TO.P,U5,68,CD13_68*%
%TO.N,unconnected-(U5-CD13-Pad68)*%
X175250000Y-77300000D03*
%TO.P,U5,69,CD14_69*%
%TO.N,unconnected-(U5-CD14-Pad69)*%
X175250000Y-76500000D03*
%TO.P,U5,70,CD15_70*%
%TO.N,unconnected-(U5-CD15-Pad70)*%
X175250000Y-75700000D03*
%TO.P,U5,71,CA0_71*%
%TO.N,unconnected-(U5-CA0-Pad71)*%
X175250000Y-74900000D03*
%TO.P,U5,72,CA1_72*%
%TO.N,unconnected-(U5-CA1-Pad72)*%
X175250000Y-74100000D03*
%TO.P,U5,73,CA2_73*%
%TO.N,unconnected-(U5-CA2-Pad73)*%
X175250000Y-73300000D03*
%TO.P,U5,74,CA3_74*%
%TO.N,unconnected-(U5-CA3-Pad74)*%
X175250000Y-72500000D03*
%TO.P,U5,75,CA4_75*%
%TO.N,unconnected-(U5-CA4-Pad75)*%
X175250000Y-71700000D03*
%TO.P,U5,76,CA5_76*%
%TO.N,unconnected-(U5-CA5-Pad76)*%
X175250000Y-70900000D03*
%TO.P,U5,77,CA6_77*%
%TO.N,unconnected-(U5-CA6-Pad77)*%
X175250000Y-70100000D03*
%TO.P,U5,78,CA7_78*%
%TO.N,unconnected-(U5-CA7-Pad78)*%
X175250000Y-69300000D03*
%TO.P,U5,79,CA8_79*%
%TO.N,unconnected-(U5-CA8-Pad79)*%
X175250000Y-68500000D03*
%TO.P,U5,80,CA9_80*%
%TO.N,unconnected-(U5-CA9-Pad80)*%
X175250000Y-67700000D03*
%TO.P,U5,81,CA10_81*%
%TO.N,unconnected-(U5-CA10-Pad81)*%
X175250000Y-66900000D03*
%TO.P,U5,82,CA11_82*%
%TO.N,unconnected-(U5-CA11-Pad82)*%
X175250000Y-66100000D03*
%TO.P,U5,83,CA12_83*%
%TO.N,unconnected-(U5-CA12-Pad83)*%
X175250000Y-65300000D03*
%TO.P,U5,84,CA13_84*%
%TO.N,unconnected-(U5-CA13-Pad84)*%
X175250000Y-64500000D03*
%TO.P,U5,85,CA14_85*%
%TO.N,unconnected-(U5-CA14-Pad85)*%
X175250000Y-63700000D03*
%TO.P,U5,86,CA15_86*%
%TO.N,unconnected-(U5-CA15-Pad86)*%
X175250000Y-62900000D03*
%TO.P,U5,87,CA16_87*%
%TO.N,unconnected-(U5-CA16-Pad87)*%
X175250000Y-62100000D03*
%TO.P,U5,88,CA17_88*%
%TO.N,unconnected-(U5-CA17-Pad88)*%
X175250000Y-61300000D03*
%TO.P,U5,89,CA18_89*%
%TO.N,unconnected-(U5-CA18-Pad89)*%
X175250000Y-60500000D03*
%TO.P,U5,90,CA19_90*%
%TO.N,unconnected-(U5-CA19-Pad90)*%
X175250000Y-59700000D03*
%TO.P,U5,91,CA20_91*%
%TO.N,unconnected-(U5-CA20-Pad91)*%
X175250000Y-58900000D03*
%TO.P,U5,92,CA21_92*%
%TO.N,unconnected-(U5-CA21-Pad92)*%
X175250000Y-58100000D03*
%TO.P,U5,93,CA22_93*%
%TO.N,unconnected-(U5-CA22-Pad93)*%
X175250000Y-57300000D03*
%TO.P,U5,94,AYS_94*%
%TO.N,unconnected-(U5-AYS-Pad94)*%
X175250000Y-56500000D03*
%TO.P,U5,95,SOUND_95*%
%TO.N,unconnected-(U5-SOUND-Pad95)*%
X175250000Y-55700000D03*
%TO.P,U5,96,AGS_96*%
%TO.N,unconnected-(U5-AGS-Pad96)*%
X175250000Y-54900000D03*
D19*
%TO.P,U5,97,GND_97*%
%TO.N,unconnected-(U5-GND-Pad97)*%
X172525000Y-52175000D03*
%TO.P,U5,98,~{INT}_98*%
%TO.N,unconnected-(U5-~{INT}-Pad98)*%
X171725000Y-52175000D03*
%TO.P,U5,99,~{BR}_99*%
%TO.N,unconnected-(U5-~{BR}-Pad99)*%
X170925000Y-52175000D03*
%TO.P,U5,100,~{BGAK}_100*%
%TO.N,unconnected-(U5-~{BGAK}-Pad100)*%
X170125000Y-52175000D03*
%TO.P,U5,101,~{BG}_101*%
%TO.N,unconnected-(U5-~{BG}-Pad101)*%
X169325000Y-52175000D03*
%TO.P,U5,102,~{MREQ}_102*%
%TO.N,unconnected-(U5-~{MREQ}-Pad102)*%
X168525000Y-52175000D03*
%TO.P,U5,103,~{INTAK}_103*%
%TO.N,unconnected-(U5-~{INTAK}-Pad103)*%
X167725000Y-52175000D03*
%TO.P,U5,104,~{IPL1}_104*%
%TO.N,unconnected-(U5-~{IPL1}-Pad104)*%
X166925000Y-52175000D03*
%TO.P,U5,105,~{IPL2}_105*%
%TO.N,unconnected-(U5-~{IPL2}-Pad105)*%
X166125000Y-52175000D03*
%TO.P,U5,106,~{IORQ}_106*%
%TO.N,unconnected-(U5-~{IORQ}-Pad106)*%
X165325000Y-52175000D03*
%TO.P,U5,107,~{RD}_107*%
%TO.N,unconnected-(U5-~{RD}-Pad107)*%
X164525000Y-52175000D03*
%TO.P,U5,108,~{WR}_108*%
%TO.N,unconnected-(U5-~{WR}-Pad108)*%
X163725000Y-52175000D03*
%TO.P,U5,109,~{M1}_109*%
%TO.N,unconnected-(U5-~{M1}-Pad109)*%
X162925000Y-52175000D03*
%TO.P,U5,110,~{AS}_110*%
%TO.N,unconnected-(U5-~{AS}-Pad110)*%
X162125000Y-52175000D03*
%TO.P,U5,111,~{UDS}_111*%
%TO.N,unconnected-(U5-~{UDS}-Pad111)*%
X161325000Y-52175000D03*
%TO.P,U5,112,~{LDS}_112*%
%TO.N,unconnected-(U5-~{LDS}-Pad112)*%
X160525000Y-52175000D03*
%TO.P,U5,113,R/~{W}_113*%
%TO.N,unconnected-(U5-R{slash}~{W}-Pad113)*%
X159725000Y-52175000D03*
%TO.P,U5,114,~{DTAK}_114*%
%TO.N,unconnected-(U5-~{DTAK}-Pad114)*%
X158925000Y-52175000D03*
%TO.P,U5,115,~{UWR}_115*%
%TO.N,unconnected-(U5-~{UWR}-Pad115)*%
X158125000Y-52175000D03*
%TO.P,U5,116,~{LWR}_116*%
%TO.N,unconnected-(U5-~{LWR}-Pad116)*%
X157325000Y-52175000D03*
%TO.P,U5,117,~{OE0}_117*%
%TO.N,unconnected-(U5-~{OE0}-Pad117)*%
X156525000Y-52175000D03*
%TO.P,U5,118,~{CAS0}_118*%
%TO.N,unconnected-(U5-~{CAS0}-Pad118)*%
X155725000Y-52175000D03*
%TO.P,U5,119,~{RAS0}_119*%
%TO.N,unconnected-(U5-~{RAS0}-Pad119)*%
X154925000Y-52175000D03*
%TO.P,U5,120,RA0_120*%
%TO.N,unconnected-(U5-RA0-Pad120)*%
X154125000Y-52175000D03*
%TO.P,U5,121,RA1_121*%
%TO.N,unconnected-(U5-RA1-Pad121)*%
X153325000Y-52175000D03*
%TO.P,U5,122,RA2_122*%
%TO.N,unconnected-(U5-RA2-Pad122)*%
X152525000Y-52175000D03*
%TO.P,U5,123,RA3_123*%
%TO.N,unconnected-(U5-RA3-Pad123)*%
X151725000Y-52175000D03*
%TO.P,U5,124,RA4_124*%
%TO.N,unconnected-(U5-RA4-Pad124)*%
X150925000Y-52175000D03*
%TO.P,U5,125,RA5_125*%
%TO.N,unconnected-(U5-RA5-Pad125)*%
X150125000Y-52175000D03*
%TO.P,U5,126,RA6_126*%
%TO.N,unconnected-(U5-RA6-Pad126)*%
X149325000Y-52175000D03*
%TO.P,U5,127,RA7_127*%
%TO.N,unconnected-(U5-RA7-Pad127)*%
X148525000Y-52175000D03*
%TO.P,U5,128,VDD_128*%
%TO.N,unconnected-(U5-VDD-Pad128)*%
X147725000Y-52175000D03*
%TD*%
D11*
%TO.P,U2,24,~{CAS}_24*%
%TO.N,/~{CAS1}*%
X144000000Y-48500000D03*
%TO.P,U2,23,A0_23*%
%TO.N,/A0*%
X141460000Y-47230000D03*
%TO.P,U2,22,A1_22*%
%TO.N,/A1*%
X144000000Y-45960000D03*
%TO.P,U2,21,A2_21*%
%TO.N,/A2*%
X141460000Y-44690000D03*
%TO.P,U2,20,A3_20*%
%TO.N,/A3*%
X144000000Y-43420000D03*
%TO.P,U2,19,A7_19*%
%TO.N,/A7*%
X141460000Y-42150000D03*
%TO.P,U2,18,VCC_18*%
%TO.N,VCC*%
X144000000Y-40880000D03*
%TO.P,U2,17,A4_17*%
%TO.N,/A4*%
X141460000Y-39610000D03*
%TO.P,U2,16,A6_16*%
%TO.N,/A5*%
X144000000Y-38340000D03*
%TO.P,U2,15,A5_15*%
%TO.N,/A6*%
X141460000Y-37070000D03*
%TO.P,U2,14,~{RAS}_14*%
%TO.N,/~{RAS1}*%
X144000000Y-35800000D03*
%TO.P,U2,13,~{WB}/~{WE}_13*%
%TO.N,/~{WE0}*%
X141460000Y-34530000D03*
%TO.P,U2,12,W1/IO1_12*%
%TO.N,/A5*%
X144000000Y-33260000D03*
%TO.P,U2,11,W0/IO0_11*%
%TO.N,/A4*%
X141460000Y-31990000D03*
%TO.P,U2,10,~{DT}/~{OE}_10*%
%TO.N,/~{OE1}*%
X144000000Y-30720000D03*
%TO.P,U2,9,SIO1_9*%
%TO.N,/SD5*%
X141460000Y-29450000D03*
%TO.P,U2,8,SIO0_8*%
%TO.N,/SD4*%
X144000000Y-28180000D03*
%TO.P,U2,7,SC_7*%
%TO.N,/SC*%
X141460000Y-26910000D03*
%TO.P,U2,6,GND_6*%
%TO.N,GND*%
X144000000Y-25640000D03*
%TO.P,U2,5,SIO3_5*%
%TO.N,/SD7*%
X141460000Y-24370000D03*
%TO.P,U2,4,SIO2_4*%
%TO.N,/SD6*%
X144000000Y-23100000D03*
%TO.P,U2,3,~{SE}_3*%
%TO.N,/~{SE0}*%
X141460000Y-21830000D03*
%TO.P,U2,2,W3/IO3_2*%
%TO.N,/A7*%
X144000000Y-20560000D03*
D10*
%TO.P,U2,1,W2/IO2_1*%
%TO.N,/A6*%
X141460000Y-19290000D03*
%TD*%
D11*
%TO.P,U3,24,~{CAS}_24*%
%TO.N,/~{CAS1}*%
X124950000Y-48500000D03*
%TO.P,U3,23,A0_23*%
%TO.N,/A0*%
X122410000Y-47230000D03*
%TO.P,U3,22,A1_22*%
%TO.N,/A1*%
X124950000Y-45960000D03*
%TO.P,U3,21,A2_21*%
%TO.N,/A2*%
X122410000Y-44690000D03*
%TO.P,U3,20,A3_20*%
%TO.N,/A3*%
X124950000Y-43420000D03*
%TO.P,U3,19,A7_19*%
%TO.N,/A7*%
X122410000Y-42150000D03*
%TO.P,U3,18,VCC_18*%
%TO.N,VCC*%
X124950000Y-40880000D03*
%TO.P,U3,17,A4_17*%
%TO.N,/A4*%
X122410000Y-39610000D03*
%TO.P,U3,16,A6_16*%
%TO.N,/A5*%
X124950000Y-38340000D03*
%TO.P,U3,15,A5_15*%
%TO.N,/A6*%
X122410000Y-37070000D03*
%TO.P,U3,14,~{RAS}_14*%
%TO.N,/~{RAS1}*%
X124950000Y-35800000D03*
%TO.P,U3,13,~{WB}/~{WE}_13*%
%TO.N,/~{WE1}*%
X122410000Y-34530000D03*
%TO.P,U3,12,W1/IO1_12*%
%TO.N,/RD5*%
X124950000Y-33260000D03*
%TO.P,U3,11,W0/IO0_11*%
%TO.N,/RD4*%
X122410000Y-31990000D03*
%TO.P,U3,10,~{DT}/~{OE}_10*%
%TO.N,/~{OE1}*%
X124950000Y-30720000D03*
%TO.P,U3,9,SIO1_9*%
%TO.N,/SD5*%
X122410000Y-29450000D03*
%TO.P,U3,8,SIO0_8*%
%TO.N,/SD4*%
X124950000Y-28180000D03*
%TO.P,U3,7,SC_7*%
%TO.N,/SC*%
X122410000Y-26910000D03*
%TO.P,U3,6,GND_6*%
%TO.N,GND*%
X124950000Y-25640000D03*
%TO.P,U3,5,SIO3_5*%
%TO.N,/SD7*%
X122410000Y-24370000D03*
%TO.P,U3,4,SIO2_4*%
%TO.N,/SD6*%
X124950000Y-23100000D03*
%TO.P,U3,3,~{SE}_3*%
%TO.N,/~{SE1}*%
X122410000Y-21830000D03*
%TO.P,U3,2,W3/IO3_2*%
%TO.N,/RD7*%
X124950000Y-20560000D03*
D10*
%TO.P,U3,1,W2/IO2_1*%
%TO.N,/RD6*%
X122410000Y-19290000D03*
%TD*%
D11*
%TO.P,U4,24,~{CAS}_24*%
%TO.N,/~{CAS1}*%
X131300000Y-48500000D03*
%TO.P,U4,23,A0_23*%
%TO.N,/A0*%
X128760000Y-47230000D03*
%TO.P,U4,22,A1_22*%
%TO.N,/A1*%
X131300000Y-45960000D03*
%TO.P,U4,21,A2_21*%
%TO.N,/A2*%
X128760000Y-44690000D03*
%TO.P,U4,20,A3_20*%
%TO.N,/A3*%
X131300000Y-43420000D03*
%TO.P,U4,19,A7_19*%
%TO.N,/A7*%
X128760000Y-42150000D03*
%TO.P,U4,18,VCC_18*%
%TO.N,VCC*%
X131300000Y-40880000D03*
%TO.P,U4,17,A4_17*%
%TO.N,/A4*%
X128760000Y-39610000D03*
%TO.P,U4,16,A6_16*%
%TO.N,/A5*%
X131300000Y-38340000D03*
%TO.P,U4,15,A5_15*%
%TO.N,/A6*%
X128760000Y-37070000D03*
%TO.P,U4,14,~{RAS}_14*%
%TO.N,/~{RAS1}*%
X131300000Y-35800000D03*
%TO.P,U4,13,~{WB}/~{WE}_13*%
%TO.N,/~{WE1}*%
X128760000Y-34530000D03*
%TO.P,U4,12,W1/IO1_12*%
%TO.N,/RD1*%
X131300000Y-33260000D03*
%TO.P,U4,11,W0/IO0_11*%
%TO.N,/RD0*%
X128760000Y-31990000D03*
%TO.P,U4,10,~{DT}/~{OE}_10*%
%TO.N,/~{OE1}*%
X131300000Y-30720000D03*
%TO.P,U4,9,SIO1_9*%
%TO.N,/SD1*%
X128760000Y-29450000D03*
%TO.P,U4,8,SIO0_8*%
%TO.N,/SD0*%
X131300000Y-28180000D03*
%TO.P,U4,7,SC_7*%
%TO.N,/SC*%
X128760000Y-26910000D03*
%TO.P,U4,6,GND_6*%
%TO.N,GND*%
X131300000Y-25640000D03*
%TO.P,U4,5,SIO3_5*%
%TO.N,/SD3*%
X128760000Y-24370000D03*
%TO.P,U4,4,SIO2_4*%
%TO.N,/SD2*%
X131300000Y-23100000D03*
%TO.P,U4,3,~{SE}_3*%
%TO.N,/~{SE1}*%
X128760000Y-21830000D03*
%TO.P,U4,2,W3/IO3_2*%
%TO.N,/RD3*%
X131300000Y-20560000D03*
D10*
%TO.P,U4,1,W2/IO2_1*%
%TO.N,/RD2*%
X128760000Y-19290000D03*
%TD*%
D20*
%TO.N,GNDA*%
X142125000Y-84625000D03*
X136875000Y-83750000D03*
X125125000Y-86625000D03*
%TO.N,VCCA*%
X132375000Y-80875000D03*
X132375000Y-84875000D03*
%TO.N,GND*%
X149000000Y-86250000D03*
X145200000Y-80750000D03*
%TO.N,/~{WE0}*%
X145000000Y-42250000D03*
%TO.N,/A3*%
X144174265Y-81825735D03*
%TO.N,GNDA*%
X138250000Y-79500000D03*
X143750000Y-75000000D03*
X132375000Y-75125000D03*
X129750000Y-86750000D03*
X129750000Y-83000000D03*
X129750000Y-79000000D03*
%TO.N,VCCA*%
X137750000Y-84000000D03*
%TO.N,/A7*%
X140600735Y-81500000D03*
%TO.N,/A6*%
X141200735Y-80799265D03*
%TO.N,/A5*%
X141911735Y-81510265D03*
%TO.N,/A4*%
X141000000Y-80000000D03*
%TO.N,/A2*%
X140616975Y-79133025D03*
%TO.N,VCCA*%
X132375000Y-76875000D03*
%TO.N,GND*%
X134500000Y-54750000D03*
X123500000Y-51000000D03*
X145750000Y-29500000D03*
X118750000Y-28750000D03*
X125000000Y-19000000D03*
X131750000Y-18250000D03*
X138000000Y-18750000D03*
X144500000Y-18750000D03*
X145000000Y-53250000D03*
X134750000Y-49375000D03*
X128625000Y-49375000D03*
X125250000Y-62250000D03*
X138250000Y-74125000D03*
X125250000Y-73000000D03*
X117500000Y-65000000D03*
X117250000Y-52500000D03*
X143750000Y-67750000D03*
X134000000Y-66650000D03*
X117400000Y-38000000D03*
%TO.N,/RD7*%
X118250000Y-53250000D03*
%TO.N,/RD6*%
X119000000Y-52750000D03*
%TO.N,/RD5*%
X119687105Y-52292492D03*
X118400000Y-33068000D03*
%TO.N,/RD4*%
X120350000Y-51844637D03*
X119000000Y-32250000D03*
%TO.N,/RD3*%
X120950000Y-51250000D03*
%TO.N,/RD1*%
X120650000Y-34000000D03*
X122150000Y-50065687D03*
%TO.N,/RD0*%
X121250000Y-30928000D03*
X122750000Y-49500000D03*
%TO.N,/SC*%
X125756000Y-53506000D03*
%TO.N,/~{OE1}*%
X144875000Y-52125000D03*
%TO.N,/RD7*%
X119400000Y-21500000D03*
%TO.N,/RD6*%
X119900000Y-19950000D03*
%TO.N,/~{OE1}*%
X143700000Y-66900000D03*
%TO.N,/~{WE0}*%
X143700000Y-66000000D03*
%TO.N,/~{WE1}*%
X130000000Y-67250000D03*
%TO.N,/~{RAS1}*%
X130500000Y-63750000D03*
%TO.N,/SC*%
X125500000Y-26910000D03*
%TO.N,/SD4*%
X129570000Y-28180000D03*
%TO.N,/SC*%
X127250000Y-62900000D03*
%TO.N,/~{SE0}*%
X133000000Y-21000000D03*
X132500000Y-62000000D03*
%TO.N,/~{SE1}*%
X126500000Y-61300000D03*
%TO.N,/SD7*%
X124750000Y-60600000D03*
%TO.N,/SD6*%
X127250000Y-59700000D03*
%TO.N,/SD5*%
X128000000Y-58900000D03*
X127575000Y-30312000D03*
%TO.N,/SD4*%
X128750000Y-58100000D03*
%TO.N,/SD3*%
X133000000Y-57500000D03*
X132900000Y-24066263D03*
%TO.N,/SD2*%
X133600000Y-56500000D03*
%TO.N,/SD1*%
X136000000Y-56000000D03*
%TO.N,/SD0*%
X136500000Y-55000000D03*
%TO.N,/A0*%
X141322000Y-78642825D03*
%TO.N,/A1*%
X143100000Y-79500000D03*
%TO.N,/A7*%
X138885421Y-42500000D03*
%TO.N,/~{CAS1}*%
X137650000Y-64300000D03*
%TO.N,/RD2*%
X121550000Y-50654142D03*
%TD*%
%TO.N,GNDA*%
D21*
X145000000Y-74900000D02*
X143850000Y-74900000D01*
X143850000Y-74900000D02*
X143750000Y-75000000D01*
%TO.N,VCCA*%
X137549265Y-78950735D02*
X137549265Y-83799265D01*
X137549265Y-83799265D02*
X137750000Y-84000000D01*
X132375000Y-80875000D02*
X132375000Y-80825000D01*
X133200000Y-84000000D02*
X133200000Y-84050000D01*
X133200000Y-84050000D02*
X132375000Y-84875000D01*
X132375000Y-80825000D02*
X133200000Y-80000000D01*
X132375000Y-76875000D02*
X132375000Y-76825000D01*
X132375000Y-76825000D02*
X133200000Y-76000000D01*
%TO.N,/A0*%
X141460000Y-47230000D02*
X144520000Y-47230000D01*
X144520000Y-47230000D02*
X145250000Y-46500000D01*
X145250000Y-46500000D02*
X145250000Y-45500000D01*
X145250000Y-45500000D02*
X146500000Y-44250000D01*
X142875000Y-32125000D02*
X141948000Y-33052000D01*
X146500000Y-44250000D02*
X146500000Y-35250000D01*
X146500000Y-35250000D02*
X145250000Y-34000000D01*
X145250000Y-34000000D02*
X145250000Y-32750000D01*
X145250000Y-32750000D02*
X144625000Y-32125000D01*
X144625000Y-32125000D02*
X142875000Y-32125000D01*
X141948000Y-33052000D02*
X139552000Y-33052000D01*
X138490000Y-31990000D02*
X135110000Y-31990000D01*
X139552000Y-33052000D02*
X138490000Y-31990000D01*
%TO.N,/~{OE1}*%
X137862500Y-53500000D02*
X143500000Y-53500000D01*
X143500000Y-53500000D02*
X144875000Y-52125000D01*
%TO.N,/A1*%
X144000000Y-45960000D02*
X146000000Y-43960000D01*
X146000000Y-43960000D02*
X146000000Y-35434314D01*
X146000000Y-35434314D02*
X144887686Y-34322000D01*
X142218000Y-33468000D02*
X137858000Y-33468000D01*
X144887686Y-34322000D02*
X143072000Y-34322000D01*
X143072000Y-34322000D02*
X142218000Y-33468000D01*
X137858000Y-33468000D02*
X137650000Y-33260000D01*
%TO.N,/~{WE0}*%
X145500000Y-41750000D02*
X145000000Y-42250000D01*
X145500000Y-35500000D02*
X145500000Y-41750000D01*
X144500000Y-34738000D02*
X141668000Y-34738000D01*
X144500000Y-34738000D02*
X144738000Y-34738000D01*
X144738000Y-34738000D02*
X145500000Y-35500000D01*
X141668000Y-34738000D02*
X141460000Y-34530000D01*
%TO.N,GNDA*%
X142750000Y-86500000D02*
X142750000Y-86387500D01*
X142750000Y-86387500D02*
X140362500Y-84000000D01*
%TO.N,VCCA*%
X138637500Y-84000000D02*
X138637500Y-85887500D01*
X138637500Y-85887500D02*
X139250000Y-86500000D01*
%TO.N,/VID_B_ENC*%
X129750000Y-84000000D02*
X126150000Y-84000000D01*
X126150000Y-84000000D02*
X125525000Y-84625000D01*
%TO.N,/VID_G_ENC*%
X129750000Y-80000000D02*
X126100000Y-80000000D01*
X126100000Y-80000000D02*
X125525000Y-80575000D01*
%TO.N,/VID_R_ENC*%
X129750000Y-76000000D02*
X126050000Y-76000000D01*
X126050000Y-76000000D02*
X125525000Y-76525000D01*
%TO.N,VCC*%
X117500000Y-44500000D02*
X117500000Y-41912500D01*
X117500000Y-41912500D02*
X118500000Y-40912500D01*
%TO.N,/A7*%
X140600735Y-81500000D02*
X140600735Y-82100735D01*
X140600735Y-82100735D02*
X141307843Y-82807843D01*
X141307843Y-82807843D02*
X142250000Y-82807843D01*
X142250000Y-82807843D02*
X143692157Y-84250000D01*
X143692157Y-84250000D02*
X144000000Y-84250000D01*
X144000000Y-84250000D02*
X144750000Y-85000000D01*
X144750000Y-85000000D02*
X145750000Y-85000000D01*
X145750000Y-85000000D02*
X146250000Y-85500000D01*
X146250000Y-85500000D02*
X149750000Y-85500000D01*
X149750000Y-85500000D02*
X151650000Y-83600000D01*
X151650000Y-83600000D02*
X151650000Y-82425000D01*
%TO.N,/A6*%
X150925000Y-82425000D02*
X150925000Y-83299999D01*
X150925000Y-83299999D02*
X149274999Y-84950000D01*
X149274999Y-84950000D02*
X146450000Y-84950000D01*
X146450000Y-84950000D02*
X146000000Y-84500000D01*
X146000000Y-84500000D02*
X145000000Y-84500000D01*
X145000000Y-84500000D02*
X144250000Y-83750000D01*
X144250000Y-83750000D02*
X143934314Y-83750000D01*
X143934314Y-83750000D02*
X142592157Y-82407843D01*
X142592157Y-82407843D02*
X141907843Y-82407843D01*
X141907843Y-82407843D02*
X141200735Y-81700735D01*
X141200735Y-81700735D02*
X141200735Y-80799265D01*
%TO.N,/A5*%
X150125000Y-82425000D02*
X150125000Y-83375000D01*
X150125000Y-83375000D02*
X148950000Y-84550000D01*
X148950000Y-84550000D02*
X146734314Y-84550000D01*
X146734314Y-84550000D02*
X146217157Y-84032843D01*
X146217157Y-84032843D02*
X145282843Y-84032843D01*
X145282843Y-84032843D02*
X144500000Y-83250000D01*
X144500000Y-83250000D02*
X144000000Y-83250000D01*
X144000000Y-83250000D02*
X142750000Y-82000000D01*
X142750000Y-82000000D02*
X142401470Y-82000000D01*
X142401470Y-82000000D02*
X141911735Y-81510265D01*
%TO.N,/A4*%
X149325000Y-82425000D02*
X149325000Y-83425000D01*
X149325000Y-83425000D02*
X148600000Y-84150000D01*
X148600000Y-84150000D02*
X146900000Y-84150000D01*
X146900000Y-84150000D02*
X146250000Y-83500000D01*
X146250000Y-83500000D02*
X145500000Y-83500000D01*
X145500000Y-83500000D02*
X144750000Y-82750000D01*
X144750000Y-82750000D02*
X144250000Y-82750000D01*
X144250000Y-82750000D02*
X143000000Y-81500000D01*
X143000000Y-81500000D02*
X142750000Y-81500000D01*
X141250000Y-80000000D02*
X141000000Y-80000000D01*
X142750000Y-81500000D02*
X141250000Y-80000000D01*
%TO.N,/A3*%
X144174265Y-81825735D02*
X144227205Y-81825735D01*
X144227205Y-81825735D02*
X144651470Y-82250000D01*
X144651470Y-82250000D02*
X145000000Y-82250000D01*
X145000000Y-82250000D02*
X145575000Y-82825000D01*
X145575000Y-82825000D02*
X146325000Y-82825000D01*
X147250000Y-83750000D02*
X148250000Y-83750000D01*
X146325000Y-82825000D02*
X147250000Y-83750000D01*
X148250000Y-83750000D02*
X148525000Y-83475000D01*
X148525000Y-83475000D02*
X148525000Y-82425000D01*
%TO.N,/A2*%
X140616975Y-79133025D02*
X140963671Y-79133025D01*
X140963671Y-79133025D02*
X141073471Y-79242825D01*
X141073471Y-79242825D02*
X141242825Y-79242825D01*
X141242825Y-79242825D02*
X142750000Y-80750000D01*
X142750000Y-80750000D02*
X144250000Y-80750000D01*
X144250000Y-80750000D02*
X145925000Y-82425000D01*
X145925000Y-82425000D02*
X147725000Y-82425000D01*
%TO.N,/RD7*%
X145000000Y-74100000D02*
X143317157Y-74100000D01*
X143317157Y-74100000D02*
X142717157Y-73500000D01*
X142717157Y-73500000D02*
X127000000Y-73500000D01*
X127000000Y-73500000D02*
X118250000Y-64750000D01*
X118250000Y-64750000D02*
X118250000Y-53250000D01*
%TO.N,/RD6*%
X143300000Y-73300000D02*
X143000000Y-73000000D01*
X145000000Y-73300000D02*
X143300000Y-73300000D01*
X143000000Y-73000000D02*
X127737252Y-73000000D01*
%TO.N,GNDA*%
X140362500Y-84000000D02*
X140362500Y-83612500D01*
%TO.N,VCCA*%
X137750000Y-84000000D02*
X138637500Y-84000000D01*
X137549265Y-78950735D02*
X139000000Y-77500000D01*
X139000000Y-77500000D02*
X143000000Y-77500000D01*
X143000000Y-77500000D02*
X143600000Y-78100000D01*
X143600000Y-78100000D02*
X145000000Y-78100000D01*
%TO.N,/VID_B*%
X145000000Y-77300000D02*
X143550000Y-77300000D01*
X143550000Y-77300000D02*
X143250000Y-77000000D01*
X143250000Y-77000000D02*
X138750000Y-77000000D01*
X138750000Y-77000000D02*
X136500000Y-79250000D01*
X136500000Y-79250000D02*
X136500000Y-82525000D01*
X136500000Y-82525000D02*
X135025000Y-84000000D01*
%TO.N,/VID_G*%
X135025000Y-80000000D02*
X135025000Y-79975000D01*
X135025000Y-79975000D02*
X138500000Y-76500000D01*
%TO.N,/VID_R*%
X145000000Y-75700000D02*
X143800000Y-75700000D01*
X143800000Y-75700000D02*
X143500000Y-76000000D01*
X143500000Y-76000000D02*
X135025000Y-76000000D01*
%TO.N,/VID_G*%
X145000000Y-76500000D02*
X138500000Y-76500000D01*
%TO.N,/A0*%
X141322000Y-78642825D02*
X141892825Y-78642825D01*
X141892825Y-78642825D02*
X142150000Y-78900000D01*
X142150000Y-78900000D02*
X145000000Y-78900000D01*
%TO.N,/A1*%
X143100000Y-79500000D02*
X143200000Y-79500000D01*
X143200000Y-79500000D02*
X143400000Y-79700000D01*
X143400000Y-79700000D02*
X145000000Y-79700000D01*
%TO.N,Net-(C8-Pad1)*%
X131475000Y-84000000D02*
X131475000Y-85700000D01*
X131475000Y-85700000D02*
X131525000Y-85750000D01*
%TO.N,Net-(C7-Pad1)*%
X133200000Y-81750000D02*
X131525000Y-81750000D01*
X131475000Y-80000000D02*
X131475000Y-81700000D01*
X131475000Y-81700000D02*
X131525000Y-81750000D01*
%TO.N,Net-(C8-Pad1)*%
X133200000Y-85750000D02*
X131525000Y-85750000D01*
%TO.N,/VID_G*%
X135025000Y-81750000D02*
X135025000Y-80000000D01*
%TO.N,/VID_B*%
X135025000Y-84000000D02*
X135025000Y-85750000D01*
%TO.N,VCCA*%
X133362500Y-83837500D02*
X133200000Y-84000000D01*
%TO.N,Net-(C6-Pad1)*%
X131525000Y-77750000D02*
X131525000Y-76050000D01*
X131525000Y-76050000D02*
X131475000Y-76000000D01*
X133200000Y-77750000D02*
X131525000Y-77750000D01*
%TO.N,/VID_R*%
X135025000Y-76000000D02*
X135025000Y-77750000D01*
%TO.N,/~{RAS1}*%
X130500000Y-63750000D02*
X130137500Y-64112500D01*
X130137500Y-64112500D02*
X130137500Y-65500000D01*
X130500000Y-63750000D02*
X130650000Y-63750000D01*
X130650000Y-63750000D02*
X130700000Y-63700000D01*
X130700000Y-63700000D02*
X145000000Y-63700000D01*
%TO.N,/~{CAS1}*%
X137862500Y-65500000D02*
X137862500Y-64512500D01*
X137862500Y-64512500D02*
X137650000Y-64300000D01*
X137650000Y-64300000D02*
X139300000Y-64300000D01*
X139300000Y-64300000D02*
X139500000Y-64500000D01*
%TO.N,GND*%
X136137500Y-65112500D02*
X136137500Y-65500000D01*
%TO.N,/SC*%
X130137500Y-53500000D02*
X125762000Y-53500000D01*
X125762000Y-53500000D02*
X125756000Y-53506000D01*
%TO.N,/~{WE1}*%
X145000000Y-65300000D02*
X143200000Y-65300000D01*
X141250000Y-67250000D02*
X143200000Y-65300000D01*
X130000000Y-67250000D02*
X141250000Y-67250000D01*
%TO.N,/SD7*%
X124750000Y-60600000D02*
X144900000Y-60600000D01*
X144900000Y-60600000D02*
X145000000Y-60500000D01*
%TO.N,/~{SE1}*%
X126500000Y-61300000D02*
X145000000Y-61300000D01*
%TO.N,/SC*%
X127250000Y-62900000D02*
X145000000Y-62900000D01*
%TO.N,/SD6*%
X127250000Y-59700000D02*
X145000000Y-59700000D01*
%TO.N,/SD5*%
X128000000Y-58900000D02*
X145000000Y-58900000D01*
%TO.N,/SD4*%
X128750000Y-58100000D02*
X145000000Y-58100000D01*
%TO.N,/SD2*%
X145000000Y-56500000D02*
X144900000Y-56600000D01*
X144900000Y-56600000D02*
X133700000Y-56600000D01*
X133700000Y-56600000D02*
X133600000Y-56500000D01*
%TO.N,GND*%
X143800000Y-67700000D02*
X143750000Y-67750000D01*
X145000000Y-67700000D02*
X143800000Y-67700000D01*
X118500000Y-39100000D02*
X117400000Y-38000000D01*
%TO.N,/RD6*%
X127737252Y-73000000D02*
X119000000Y-64262748D01*
X119000000Y-64262748D02*
X119000000Y-52750000D01*
%TO.N,/RD5*%
X124950000Y-33260000D02*
X124758000Y-33068000D01*
X124758000Y-33068000D02*
X118400000Y-33068000D01*
X119687105Y-63818479D02*
X119687105Y-52292492D01*
X128368626Y-72500000D02*
X119687105Y-63818479D01*
X145000000Y-72500000D02*
X128368626Y-72500000D01*
%TO.N,/RD4*%
X128700000Y-71700000D02*
X120350000Y-63350000D01*
X145000000Y-71700000D02*
X128700000Y-71700000D01*
X120350000Y-63350000D02*
X120350000Y-51844637D01*
X119000000Y-32250000D02*
X119260000Y-31990000D01*
X119260000Y-31990000D02*
X122410000Y-31990000D01*
%TO.N,/RD3*%
X129005878Y-70900000D02*
X120950000Y-62844122D01*
X120950000Y-62844122D02*
X120950000Y-51250000D01*
X145000000Y-70900000D02*
X129005878Y-70900000D01*
%TO.N,/RD1*%
X122000000Y-33468000D02*
X122849895Y-33468000D01*
X122000000Y-33468000D02*
X121182000Y-33468000D01*
X121182000Y-33468000D02*
X120650000Y-34000000D01*
X122150000Y-61781374D02*
X122150000Y-50065687D01*
X145000000Y-69300000D02*
X129668626Y-69300000D01*
X129668626Y-69300000D02*
X122150000Y-61781374D01*
%TO.N,/RD0*%
X122928000Y-30928000D02*
X121250000Y-30928000D01*
X122750000Y-61250000D02*
X122750000Y-49500000D01*
X130000000Y-68500000D02*
X122750000Y-61250000D01*
X145000000Y-68500000D02*
X130000000Y-68500000D01*
%TO.N,VCC*%
X124950000Y-40880000D02*
X124120000Y-40880000D01*
X124120000Y-40880000D02*
X124000000Y-41000000D01*
%TO.N,/RD7*%
X120440000Y-20560000D02*
X124950000Y-20560000D01*
X119400000Y-21500000D02*
X119500000Y-21500000D01*
X119500000Y-21500000D02*
X120440000Y-20560000D01*
%TO.N,/RD6*%
X119900000Y-19950000D02*
X119950000Y-19950000D01*
X119950000Y-19950000D02*
X120610000Y-19290000D01*
X120610000Y-19290000D02*
X122410000Y-19290000D01*
%TO.N,/RD4*%
X122300000Y-32100000D02*
X122410000Y-31990000D01*
%TO.N,/RD1*%
X125678000Y-34322000D02*
X126740000Y-33260000D01*
X123703895Y-34322000D02*
X125678000Y-34322000D01*
X122849895Y-33468000D02*
X123703895Y-34322000D01*
X126740000Y-33260000D02*
X131300000Y-33260000D01*
%TO.N,/RD0*%
X121250000Y-30928000D02*
X121072000Y-30928000D01*
X128760000Y-31990000D02*
X123990000Y-31990000D01*
X123990000Y-31990000D02*
X122928000Y-30928000D01*
%TO.N,/SD5*%
X128500000Y-30512000D02*
X127775000Y-30512000D01*
X127775000Y-30512000D02*
X127575000Y-30312000D01*
X128500000Y-30512000D02*
X129663000Y-30512000D01*
X128500000Y-30512000D02*
X127062000Y-30512000D01*
X127062000Y-30512000D02*
X126862000Y-30312000D01*
X126862000Y-30312000D02*
X126000000Y-29450000D01*
%TO.N,/A0*%
X141460000Y-47230000D02*
X135110000Y-47230000D01*
%TO.N,/~{OE1}*%
X145000000Y-66900000D02*
X143700000Y-66900000D01*
%TO.N,/~{CAS1}*%
X145000000Y-64500000D02*
X139500000Y-64500000D01*
%TO.N,/~{WE0}*%
X145000000Y-66100000D02*
X143800000Y-66100000D01*
X143800000Y-66100000D02*
X143700000Y-66000000D01*
%TO.N,/SC*%
X122410000Y-26910000D02*
X125500000Y-26910000D01*
%TO.N,/SD5*%
X126000000Y-29450000D02*
X122410000Y-29450000D01*
X130525000Y-29650000D02*
X132150000Y-29650000D01*
X129663000Y-30512000D02*
X130525000Y-29650000D01*
%TO.N,/SD4*%
X124950000Y-28180000D02*
X129570000Y-28180000D01*
%TO.N,/~{SE0}*%
X133830000Y-21830000D02*
X135110000Y-21830000D01*
X133000000Y-21000000D02*
X133830000Y-21830000D01*
X145000000Y-62100000D02*
X132600000Y-62100000D01*
X132600000Y-62100000D02*
X132500000Y-62000000D01*
%TO.N,/SD3*%
X132500000Y-24162000D02*
X133162000Y-24162000D01*
X132500000Y-24162000D02*
X132804263Y-24162000D01*
X132804263Y-24162000D02*
X132900000Y-24066263D01*
X133200000Y-57300000D02*
X133000000Y-57500000D01*
X145000000Y-57300000D02*
X133200000Y-57300000D01*
%TO.N,/SD1*%
X136300000Y-55700000D02*
X136000000Y-56000000D01*
X145000000Y-55700000D02*
X136300000Y-55700000D01*
%TO.N,/SD0*%
X136600000Y-54900000D02*
X136500000Y-55000000D01*
X145000000Y-54900000D02*
X136600000Y-54900000D01*
%TO.N,GND*%
X130360000Y-25640000D02*
X131300000Y-25640000D01*
X133032000Y-25832000D02*
X137458000Y-25832000D01*
%TO.N,/SD3*%
X133162000Y-24162000D02*
X133370000Y-24370000D01*
%TO.N,/SC*%
X134918000Y-26718000D02*
X128952000Y-26718000D01*
%TO.N,/~{SE0}*%
X135318000Y-21622000D02*
X141252000Y-21622000D01*
%TO.N,/SC*%
X135110000Y-26910000D02*
X134918000Y-26718000D01*
%TO.N,/SD6*%
X124950000Y-23100000D02*
X129300000Y-23100000D01*
%TO.N,VCC*%
X124950000Y-40880000D02*
X144000000Y-40880000D01*
%TO.N,/SD4*%
X131739895Y-27118000D02*
X130632000Y-27118000D01*
%TO.N,/~{WE0}*%
X141290000Y-34700000D02*
X141460000Y-34530000D01*
%TO.N,/SD1*%
X128960000Y-29250000D02*
X134910000Y-29250000D01*
%TO.N,/A7*%
X141460000Y-42150000D02*
X122410000Y-42150000D01*
%TO.N,/A2*%
X141460000Y-44690000D02*
X122410000Y-44690000D01*
%TO.N,/A0*%
X135110000Y-47230000D02*
X128760000Y-47230000D01*
%TO.N,/SD3*%
X133370000Y-24370000D02*
X135110000Y-24370000D01*
%TO.N,/~{OE1}*%
X125142000Y-30912000D02*
X124950000Y-30720000D01*
%TO.N,/SC*%
X135302000Y-26718000D02*
X141268000Y-26718000D01*
%TO.N,/SD3*%
X128735000Y-24365000D02*
X128795000Y-24365000D01*
%TO.N,/SD1*%
X134910000Y-29250000D02*
X135110000Y-29450000D01*
%TO.N,/~{OE1}*%
X131108000Y-30912000D02*
X125142000Y-30912000D01*
%TO.N,/SD2*%
X137655000Y-23165000D02*
X137525000Y-23035000D01*
%TO.N,GND*%
X126590000Y-25640000D02*
X126798000Y-25848000D01*
%TO.N,/~{SE0}*%
X141455000Y-21765000D02*
X141325000Y-21635000D01*
%TO.N,GND*%
X124950000Y-25640000D02*
X126590000Y-25640000D01*
%TO.N,/A4*%
X141460000Y-39610000D02*
X122410000Y-39610000D01*
%TO.N,/~{OE1}*%
X131492000Y-30912000D02*
X137458000Y-30912000D01*
%TO.N,/A1*%
X131300000Y-45960000D02*
X144000000Y-45960000D01*
%TO.N,/SD4*%
X136356105Y-27972000D02*
X132593895Y-27972000D01*
%TO.N,/SD5*%
X136650000Y-29450000D02*
X141460000Y-29450000D01*
%TO.N,/SD2*%
X131465000Y-23035000D02*
X131335000Y-23165000D01*
X137458000Y-23292000D02*
X131492000Y-23292000D01*
%TO.N,GND*%
X130152000Y-25848000D02*
X130360000Y-25640000D01*
%TO.N,/~{SE0}*%
X135265000Y-21635000D02*
X135135000Y-21765000D01*
%TO.N,/~{CAS1}*%
X137650000Y-48500000D02*
X144000000Y-48500000D01*
%TO.N,/SD2*%
X137650000Y-23100000D02*
X137458000Y-23292000D01*
%TO.N,/~{CAS1}*%
X124950000Y-48500000D02*
X131300000Y-48500000D01*
%TO.N,/SD5*%
X135588000Y-30512000D02*
X136650000Y-29450000D01*
%TO.N,/SD2*%
X131335000Y-23165000D02*
X131395000Y-23165000D01*
%TO.N,/SD5*%
X132150000Y-29650000D02*
X132250000Y-29650000D01*
%TO.N,/~{SE0}*%
X135135000Y-21765000D02*
X135195000Y-21765000D01*
%TO.N,/SD4*%
X139430000Y-28180000D02*
X138368000Y-27118000D01*
X144000000Y-28180000D02*
X139430000Y-28180000D01*
%TO.N,/A1*%
X124950000Y-45960000D02*
X131300000Y-45960000D01*
%TO.N,/SD4*%
X137210105Y-27118000D02*
X136356105Y-27972000D01*
X138368000Y-27118000D02*
X137210105Y-27118000D01*
%TO.N,GND*%
X132840000Y-25640000D02*
X133032000Y-25832000D01*
%TO.N,/SC*%
X128952000Y-26718000D02*
X128760000Y-26910000D01*
%TO.N,/~{CAS1}*%
X131300000Y-48500000D02*
X137650000Y-48500000D01*
%TO.N,/SD6*%
X140050000Y-23100000D02*
X144000000Y-23100000D01*
%TO.N,/SD7*%
X122410000Y-24370000D02*
X126070000Y-24370000D01*
X126070000Y-24370000D02*
X127132000Y-25432000D01*
X127132000Y-25432000D02*
X129668000Y-25432000D01*
X129668000Y-25432000D02*
X130538000Y-24562000D01*
X130538000Y-24562000D02*
X132562000Y-24562000D01*
X132562000Y-24562000D02*
X133432000Y-25432000D01*
X133432000Y-25432000D02*
X135968000Y-25432000D01*
%TO.N,/A0*%
X128760000Y-47230000D02*
X122410000Y-47230000D01*
%TO.N,/~{WE0}*%
X135280000Y-34700000D02*
X141290000Y-34700000D01*
%TO.N,/~{SE1}*%
X128730000Y-21830000D02*
X128600000Y-21700000D01*
%TO.N,GND*%
X131300000Y-25640000D02*
X132840000Y-25640000D01*
%TO.N,/SD5*%
X132250000Y-29650000D02*
X133112000Y-30512000D01*
%TO.N,/A3*%
X124950000Y-43420000D02*
X144000000Y-43420000D01*
%TO.N,/~{OE1}*%
X137650000Y-30720000D02*
X144000000Y-30720000D01*
%TO.N,/SD2*%
X137685000Y-23165000D02*
X137655000Y-23165000D01*
%TO.N,/SC*%
X141268000Y-26718000D02*
X141460000Y-26910000D01*
%TO.N,/SD1*%
X128760000Y-29450000D02*
X128960000Y-29250000D01*
%TO.N,/SD0*%
X131492000Y-28372000D02*
X137458000Y-28372000D01*
%TO.N,/SD5*%
X133112000Y-30512000D02*
X135588000Y-30512000D01*
%TO.N,/SD4*%
X130632000Y-27118000D02*
X129570000Y-28180000D01*
%TO.N,GND*%
X126798000Y-25848000D02*
X130152000Y-25848000D01*
%TO.N,/~{SE1}*%
X128760000Y-21830000D02*
X128730000Y-21830000D01*
%TO.N,/SD0*%
X131600000Y-27900000D02*
X131335000Y-28165000D01*
%TO.N,/SD7*%
X135968000Y-25432000D02*
X137030000Y-24370000D01*
X137030000Y-24370000D02*
X141460000Y-24370000D01*
%TO.N,/~{SE0}*%
X141485000Y-21765000D02*
X141455000Y-21765000D01*
%TO.N,/SC*%
X125500000Y-26910000D02*
X128760000Y-26910000D01*
%TO.N,/SD0*%
X137458000Y-28372000D02*
X137650000Y-28180000D01*
%TO.N,/SD6*%
X129300000Y-23100000D02*
X130650000Y-21750000D01*
X130650000Y-21750000D02*
X132500000Y-21750000D01*
X132500000Y-21750000D02*
X133642000Y-22892000D01*
X133642000Y-22892000D02*
X135888000Y-22892000D01*
X135888000Y-22892000D02*
X136758000Y-22022000D01*
X136758000Y-22022000D02*
X138972000Y-22022000D01*
X138972000Y-22022000D02*
X140050000Y-23100000D01*
%TO.N,/SD3*%
X128760000Y-24370000D02*
X129830000Y-24370000D01*
%TO.N,/~{WE0}*%
X135110000Y-34530000D02*
X135280000Y-34700000D01*
%TO.N,/~{SE0}*%
X135110000Y-21830000D02*
X135318000Y-21622000D01*
%TO.N,/~{OE1}*%
X137458000Y-30912000D02*
X137650000Y-30720000D01*
%TO.N,/A5*%
X124950000Y-38340000D02*
X144000000Y-38340000D01*
%TO.N,/SD0*%
X137442000Y-27972000D02*
X137650000Y-28180000D01*
%TO.N,/SD3*%
X130038000Y-24162000D02*
X132500000Y-24162000D01*
%TO.N,/SD0*%
X131508000Y-27972000D02*
X131300000Y-28180000D01*
X137685000Y-28165000D02*
X137655000Y-28165000D01*
X137655000Y-28165000D02*
X137390000Y-27900000D01*
X131335000Y-28165000D02*
X131395000Y-28165000D01*
%TO.N,/~{RAS1}*%
X124950000Y-35800000D02*
X144000000Y-35800000D01*
%TO.N,/~{SE1}*%
X122410000Y-21830000D02*
X128760000Y-21830000D01*
%TO.N,/SD3*%
X129830000Y-24370000D02*
X130038000Y-24162000D01*
%TO.N,/~{SE1}*%
X122540000Y-21700000D02*
X122410000Y-21830000D01*
%TO.N,/SD2*%
X131492000Y-23292000D02*
X131300000Y-23100000D01*
%TO.N,/~{SE1}*%
X122470000Y-21830000D02*
X122800000Y-21500000D01*
%TO.N,/A6*%
X141460000Y-37070000D02*
X122410000Y-37070000D01*
%TO.N,/~{SE0}*%
X141252000Y-21622000D02*
X141460000Y-21830000D01*
%TO.N,GND*%
X137458000Y-25832000D02*
X137650000Y-25640000D01*
%TO.N,/SC*%
X135110000Y-26910000D02*
X135302000Y-26718000D01*
%TO.N,/SD0*%
X131300000Y-28180000D02*
X131492000Y-28372000D01*
%TO.N,/~{SE1}*%
X122410000Y-21830000D02*
X122470000Y-21830000D01*
%TO.N,/~{OE1}*%
X131300000Y-30720000D02*
X131492000Y-30912000D01*
%TO.N,/SD5*%
X132150000Y-29650000D02*
X132300000Y-29650000D01*
%TO.N,GND*%
X144000000Y-25640000D02*
X137650000Y-25640000D01*
%TO.N,/SD4*%
X132593895Y-27972000D02*
X131739895Y-27118000D01*
%TO.N,/~{OE1}*%
X131300000Y-30720000D02*
X131108000Y-30912000D01*
%TO.N,/~{WE1}*%
X122400000Y-34500000D02*
X122900000Y-35000000D01*
X122900000Y-35000000D02*
X124248105Y-35000000D01*
X125389895Y-34738000D02*
X125651895Y-35000000D01*
X124248105Y-35000000D02*
X124510105Y-34738000D01*
X124510105Y-34738000D02*
X125389895Y-34738000D01*
X125651895Y-35000000D02*
X128250000Y-35000000D01*
X128250000Y-35000000D02*
X128750000Y-34500000D01*
%TO.N,VCC*%
X124000000Y-41000000D02*
X118500000Y-41000000D01*
%TO.N,/RD2*%
X121550000Y-62312748D02*
X121550000Y-50654142D01*
X129337252Y-70100000D02*
X121550000Y-62312748D01*
X145000000Y-70100000D02*
X129337252Y-70100000D01*
%TO.N,VCCA*%
X133362500Y-79837500D02*
X133200000Y-80000000D01*
%TD*%
%TA.AperFunction,Conductor*%
%TO.N,GNDA*%
G36*
X137118099Y-79230097D02*
G01*
X137174032Y-79271969D01*
X137198449Y-79337433D01*
X137198765Y-79346279D01*
X137198765Y-83845413D01*
X137201535Y-83855750D01*
X137201536Y-83919923D01*
X137199500Y-83927520D01*
X137199500Y-83927525D01*
X137199500Y-84072475D01*
X137233537Y-84199500D01*
X137237017Y-84212488D01*
X137309488Y-84338011D01*
X137309490Y-84338013D01*
X137309491Y-84338015D01*
X137411985Y-84440509D01*
X137411986Y-84440510D01*
X137411988Y-84440511D01*
X137537511Y-84512982D01*
X137537512Y-84512982D01*
X137537515Y-84512984D01*
X137677525Y-84550500D01*
X137677528Y-84550500D01*
X137822473Y-84550500D01*
X137822475Y-84550500D01*
X137857808Y-84541032D01*
X137927654Y-84542693D01*
X137982587Y-84579870D01*
X137982613Y-84579845D01*
X137982744Y-84579976D01*
X137985517Y-84581853D01*
X137988818Y-84586050D01*
X137988881Y-84586113D01*
X137988882Y-84586114D01*
X137988884Y-84586116D01*
X138073607Y-84649539D01*
X138100627Y-84669767D01*
X138101222Y-84670212D01*
X138206335Y-84709417D01*
X138262267Y-84751288D01*
X138286684Y-84816752D01*
X138287000Y-84825598D01*
X138287000Y-85135467D01*
X138267315Y-85202506D01*
X138214511Y-85248261D01*
X138187194Y-85257084D01*
X138152262Y-85264033D01*
X138152260Y-85264033D01*
X138069399Y-85319399D01*
X138014033Y-85402260D01*
X138014032Y-85402264D01*
X137999500Y-85475321D01*
X137999500Y-87375500D01*
X137979815Y-87442539D01*
X137927011Y-87488294D01*
X137875500Y-87499500D01*
X134750000Y-87499500D01*
X134750000Y-86475500D01*
X135321674Y-86475500D01*
X135321690Y-86475499D01*
X135379799Y-86469251D01*
X135511278Y-86420212D01*
X135623616Y-86336116D01*
X135707712Y-86223778D01*
X135756751Y-86092299D01*
X135762999Y-86034190D01*
X135763000Y-86034173D01*
X135763000Y-85465826D01*
X135762999Y-85465809D01*
X135756751Y-85407700D01*
X135726507Y-85326614D01*
X135707712Y-85276222D01*
X135623616Y-85163884D01*
X135511278Y-85079788D01*
X135456165Y-85059231D01*
X135400232Y-85017359D01*
X135375816Y-84951894D01*
X135375500Y-84943050D01*
X135375500Y-84806948D01*
X135395185Y-84739909D01*
X135447989Y-84694154D01*
X135456145Y-84690775D01*
X135511278Y-84670212D01*
X135623616Y-84586116D01*
X135707712Y-84473778D01*
X135756751Y-84342299D01*
X135757559Y-84334788D01*
X135762999Y-84284190D01*
X135763000Y-84284173D01*
X135763000Y-83809044D01*
X135782685Y-83742005D01*
X135799319Y-83721363D01*
X136287806Y-83232876D01*
X136780470Y-82740212D01*
X136826614Y-82660288D01*
X136831993Y-82640212D01*
X136850500Y-82571144D01*
X136850500Y-79446544D01*
X136870185Y-79379505D01*
X136886819Y-79358863D01*
X136987084Y-79258598D01*
X137048407Y-79225113D01*
X137118099Y-79230097D01*
G37*
%TD.AperFunction*%
%TA.AperFunction,Conductor*%
G36*
X142870495Y-77870185D02*
G01*
X142891137Y-77886819D01*
X143042637Y-78038319D01*
X143076122Y-78099642D01*
X143071138Y-78169334D01*
X143029266Y-78225267D01*
X142963802Y-78249684D01*
X142954956Y-78250000D01*
X142750000Y-78250000D01*
X142750000Y-78425500D01*
X142730315Y-78492539D01*
X142677511Y-78538294D01*
X142626000Y-78549500D01*
X142346543Y-78549500D01*
X142279504Y-78529815D01*
X142258867Y-78513185D01*
X142108037Y-78362355D01*
X142051856Y-78329919D01*
X142028112Y-78316210D01*
X142024392Y-78315214D01*
X142024393Y-78315214D01*
X142024385Y-78315212D01*
X141938969Y-78292325D01*
X141938968Y-78292325D01*
X141801386Y-78292325D01*
X141734347Y-78272640D01*
X141713705Y-78256006D01*
X141660017Y-78202318D01*
X141660011Y-78202313D01*
X141534488Y-78129842D01*
X141534489Y-78129842D01*
X141521510Y-78126364D01*
X141394475Y-78092325D01*
X141249525Y-78092325D01*
X141122489Y-78126364D01*
X141109511Y-78129842D01*
X140983988Y-78202313D01*
X140983982Y-78202318D01*
X140881493Y-78304807D01*
X140881488Y-78304813D01*
X140809017Y-78430336D01*
X140809017Y-78430337D01*
X140809016Y-78430339D01*
X140809016Y-78430340D01*
X140792863Y-78490619D01*
X140756500Y-78550279D01*
X140693653Y-78580808D01*
X140673090Y-78582525D01*
X140544500Y-78582525D01*
X140415968Y-78616965D01*
X140404486Y-78620042D01*
X140278963Y-78692513D01*
X140278957Y-78692518D01*
X140176468Y-78795007D01*
X140176463Y-78795013D01*
X140103992Y-78920536D01*
X140103991Y-78920540D01*
X140066475Y-79060550D01*
X140066475Y-79205500D01*
X140100263Y-79331597D01*
X140103992Y-79345513D01*
X140176463Y-79471036D01*
X140176465Y-79471038D01*
X140176466Y-79471040D01*
X140278960Y-79573534D01*
X140278961Y-79573535D01*
X140278963Y-79573536D01*
X140404486Y-79646007D01*
X140404487Y-79646007D01*
X140404490Y-79646009D01*
X140404492Y-79646009D01*
X140411994Y-79649117D01*
X140410664Y-79652326D01*
X140456650Y-79680280D01*
X140487254Y-79743091D01*
X140484770Y-79795893D01*
X140449500Y-79927525D01*
X140449500Y-80072475D01*
X140486647Y-80211109D01*
X140487017Y-80212488D01*
X140559488Y-80338011D01*
X140559493Y-80338017D01*
X140664578Y-80443102D01*
X140698063Y-80504425D01*
X140693079Y-80574117D01*
X140690687Y-80579197D01*
X140690862Y-80579270D01*
X140687751Y-80586778D01*
X140668993Y-80656785D01*
X140650235Y-80726790D01*
X140650235Y-80726792D01*
X140650235Y-80825500D01*
X140630550Y-80892539D01*
X140577746Y-80938294D01*
X140536174Y-80947337D01*
X140536320Y-80948439D01*
X140528263Y-80949499D01*
X140388246Y-80987017D01*
X140262723Y-81059488D01*
X140262717Y-81059493D01*
X140160228Y-81161982D01*
X140160223Y-81161988D01*
X140087752Y-81287511D01*
X140087751Y-81287515D01*
X140050235Y-81427525D01*
X140050235Y-81572475D01*
X140082580Y-81693186D01*
X140087752Y-81712488D01*
X140160223Y-81838011D01*
X140160228Y-81838017D01*
X140213916Y-81891705D01*
X140247401Y-81953028D01*
X140250235Y-81979386D01*
X140250235Y-82146878D01*
X140268530Y-82215157D01*
X140268546Y-82215214D01*
X140274121Y-82236024D01*
X140320262Y-82315943D01*
X140320264Y-82315946D01*
X140320265Y-82315947D01*
X141092631Y-83088313D01*
X141138356Y-83114712D01*
X141138357Y-83114713D01*
X141138358Y-83114713D01*
X141172552Y-83134456D01*
X141172554Y-83134456D01*
X141172555Y-83134457D01*
X141261699Y-83158343D01*
X141261700Y-83158343D01*
X141353987Y-83158343D01*
X142053456Y-83158343D01*
X142120495Y-83178028D01*
X142141137Y-83194662D01*
X142713681Y-83767206D01*
X142747166Y-83828529D01*
X142750000Y-83854887D01*
X142750000Y-85126000D01*
X142730315Y-85193039D01*
X142677511Y-85238794D01*
X142626000Y-85250000D01*
X141725373Y-85250000D01*
X141652459Y-85264503D01*
X141652455Y-85264505D01*
X141569760Y-85319760D01*
X141514505Y-85402455D01*
X141514503Y-85402459D01*
X141500000Y-85475371D01*
X141500000Y-86375000D01*
X142626000Y-86375000D01*
X142693039Y-86394685D01*
X142738794Y-86447489D01*
X142750000Y-86499000D01*
X142750000Y-86501000D01*
X142730315Y-86568039D01*
X142677511Y-86613794D01*
X142626000Y-86625000D01*
X141500000Y-86625000D01*
X141500000Y-87375500D01*
X141480315Y-87442539D01*
X141427511Y-87488294D01*
X141376000Y-87499500D01*
X140624500Y-87499500D01*
X140557461Y-87479815D01*
X140511706Y-87427011D01*
X140500500Y-87375500D01*
X140500500Y-85475323D01*
X140500499Y-85475321D01*
X140485967Y-85402264D01*
X140485966Y-85402260D01*
X140430601Y-85319399D01*
X140365981Y-85276222D01*
X140347739Y-85264033D01*
X140347735Y-85264032D01*
X140274677Y-85249500D01*
X140274674Y-85249500D01*
X139112000Y-85249500D01*
X139044961Y-85229815D01*
X138999206Y-85177011D01*
X138988000Y-85125500D01*
X138988000Y-84825598D01*
X139007685Y-84758559D01*
X139060489Y-84712804D01*
X139068650Y-84709422D01*
X139173778Y-84670212D01*
X139286116Y-84586116D01*
X139370212Y-84473778D01*
X139384086Y-84436579D01*
X139425957Y-84380648D01*
X139491421Y-84356231D01*
X139559694Y-84371083D01*
X139609099Y-84420488D01*
X139616449Y-84436581D01*
X139630233Y-84473537D01*
X139714241Y-84585758D01*
X139826462Y-84669767D01*
X139957812Y-84718758D01*
X140015853Y-84724999D01*
X140015870Y-84725000D01*
X140237500Y-84725000D01*
X140487500Y-84725000D01*
X140709130Y-84725000D01*
X140709146Y-84724999D01*
X140767187Y-84718758D01*
X140898537Y-84669767D01*
X141010758Y-84585758D01*
X141094767Y-84473537D01*
X141143758Y-84342187D01*
X141149999Y-84284146D01*
X141150000Y-84284129D01*
X141150000Y-84125000D01*
X140487500Y-84125000D01*
X140487500Y-84725000D01*
X140237500Y-84725000D01*
X140237500Y-83875000D01*
X140487500Y-83875000D01*
X141150000Y-83875000D01*
X141150000Y-83715870D01*
X141149999Y-83715853D01*
X141143758Y-83657812D01*
X141094767Y-83526462D01*
X141010758Y-83414241D01*
X140898537Y-83330232D01*
X140767187Y-83281241D01*
X140709146Y-83275000D01*
X140487500Y-83275000D01*
X140487500Y-83875000D01*
X140237500Y-83875000D01*
X140237500Y-83275000D01*
X140015853Y-83275000D01*
X139957812Y-83281241D01*
X139826462Y-83330232D01*
X139714241Y-83414241D01*
X139630232Y-83526463D01*
X139630229Y-83526468D01*
X139616448Y-83563418D01*
X139574577Y-83619352D01*
X139509112Y-83643768D01*
X139440839Y-83628916D01*
X139391434Y-83579510D01*
X139384086Y-83563419D01*
X139373407Y-83534788D01*
X139370212Y-83526222D01*
X139286116Y-83413884D01*
X139209541Y-83356560D01*
X139173780Y-83329789D01*
X139173778Y-83329788D01*
X139147144Y-83319854D01*
X139042299Y-83280748D01*
X138984190Y-83274500D01*
X138984174Y-83274500D01*
X138290826Y-83274500D01*
X138290809Y-83274500D01*
X138232700Y-83280748D01*
X138101217Y-83329790D01*
X138098075Y-83332143D01*
X138094393Y-83333516D01*
X138093434Y-83334040D01*
X138093358Y-83333902D01*
X138032611Y-83356560D01*
X137964338Y-83341708D01*
X137914933Y-83292302D01*
X137899765Y-83232876D01*
X137899765Y-79147279D01*
X137919450Y-79080240D01*
X137936084Y-79059598D01*
X139108863Y-77886819D01*
X139170186Y-77853334D01*
X139196544Y-77850500D01*
X142803456Y-77850500D01*
X142870495Y-77870185D01*
G37*
%TD.AperFunction*%
%TA.AperFunction,Conductor*%
G36*
X136068834Y-79529362D02*
G01*
X136124767Y-79571234D01*
X136149184Y-79636698D01*
X136149500Y-79645544D01*
X136149500Y-82328456D01*
X136129815Y-82395495D01*
X136113181Y-82416137D01*
X135291137Y-83238181D01*
X135229814Y-83271666D01*
X135203456Y-83274500D01*
X134750000Y-83274500D01*
X134750000Y-82475500D01*
X135321674Y-82475500D01*
X135321690Y-82475499D01*
X135379799Y-82469251D01*
X135511278Y-82420212D01*
X135623616Y-82336116D01*
X135707712Y-82223778D01*
X135756751Y-82092299D01*
X135758665Y-82074500D01*
X135762999Y-82034190D01*
X135763000Y-82034173D01*
X135763000Y-81465826D01*
X135762999Y-81465809D01*
X135756751Y-81407700D01*
X135742165Y-81368594D01*
X135707712Y-81276222D01*
X135623616Y-81163884D01*
X135511278Y-81079788D01*
X135456165Y-81059231D01*
X135400232Y-81017359D01*
X135375816Y-80951894D01*
X135375500Y-80943050D01*
X135375500Y-80806948D01*
X135395185Y-80739909D01*
X135447989Y-80694154D01*
X135456145Y-80690775D01*
X135511278Y-80670212D01*
X135623616Y-80586116D01*
X135707712Y-80473778D01*
X135756751Y-80342299D01*
X135757212Y-80338011D01*
X135762999Y-80284190D01*
X135763000Y-80284173D01*
X135763000Y-79784044D01*
X135782685Y-79717005D01*
X135799319Y-79696363D01*
X135937819Y-79557863D01*
X135999142Y-79524378D01*
X136068834Y-79529362D01*
G37*
%TD.AperFunction*%
%TA.AperFunction,Conductor*%
G36*
X137921495Y-76370185D02*
G01*
X137967250Y-76422989D01*
X137977194Y-76492147D01*
X137948169Y-76555703D01*
X137942137Y-76562181D01*
X135266137Y-79238181D01*
X135204814Y-79271666D01*
X135178456Y-79274500D01*
X134750000Y-79274500D01*
X134750000Y-78475500D01*
X135321674Y-78475500D01*
X135321690Y-78475499D01*
X135379799Y-78469251D01*
X135382073Y-78468403D01*
X135511278Y-78420212D01*
X135623616Y-78336116D01*
X135707712Y-78223778D01*
X135756751Y-78092299D01*
X135762999Y-78034190D01*
X135763000Y-78034173D01*
X135763000Y-77465826D01*
X135762999Y-77465809D01*
X135756751Y-77407700D01*
X135742165Y-77368594D01*
X135707712Y-77276222D01*
X135623616Y-77163884D01*
X135511278Y-77079788D01*
X135456165Y-77059231D01*
X135400232Y-77017359D01*
X135375816Y-76951894D01*
X135375500Y-76943050D01*
X135375500Y-76806948D01*
X135395185Y-76739909D01*
X135447989Y-76694154D01*
X135456145Y-76690775D01*
X135511278Y-76670212D01*
X135623616Y-76586116D01*
X135707712Y-76473778D01*
X135723605Y-76431168D01*
X135765476Y-76375234D01*
X135830940Y-76350816D01*
X135839787Y-76350500D01*
X137854456Y-76350500D01*
X137921495Y-76370185D01*
G37*
%TD.AperFunction*%
%TA.AperFunction,Conductor*%
G36*
X143865677Y-74769685D02*
G01*
X143872273Y-74775000D01*
X144876000Y-74775000D01*
X144943039Y-74794685D01*
X144988794Y-74847489D01*
X145000000Y-74899000D01*
X145000000Y-74901000D01*
X144980315Y-74968039D01*
X144927511Y-75013794D01*
X144876000Y-75025000D01*
X143875000Y-75025000D01*
X143875000Y-75067996D01*
X143874999Y-75067996D01*
X143889370Y-75158734D01*
X143894707Y-75169208D01*
X143907602Y-75237877D01*
X143881324Y-75302617D01*
X143824217Y-75342873D01*
X143784221Y-75349500D01*
X143753856Y-75349500D01*
X143664712Y-75373386D01*
X143664709Y-75373387D01*
X143584791Y-75419527D01*
X143584786Y-75419531D01*
X143391137Y-75613181D01*
X143329814Y-75646666D01*
X143303456Y-75649500D01*
X135839787Y-75649500D01*
X135772748Y-75629815D01*
X135726993Y-75577011D01*
X135723605Y-75568832D01*
X135707714Y-75526226D01*
X135707712Y-75526222D01*
X135623616Y-75413884D01*
X135537610Y-75349500D01*
X135511280Y-75329789D01*
X135511278Y-75329788D01*
X135484644Y-75319854D01*
X135379799Y-75280748D01*
X135321690Y-75274500D01*
X135321674Y-75274500D01*
X134750000Y-75274500D01*
X134750000Y-74750000D01*
X143798638Y-74750000D01*
X143865677Y-74769685D01*
G37*
%TD.AperFunction*%
%TD*%
%TA.AperFunction,Conductor*%
%TO.N,GNDA*%
G36*
X134750000Y-75274500D02*
G01*
X134728326Y-75274500D01*
X134728309Y-75274500D01*
X134670200Y-75280748D01*
X134538719Y-75329789D01*
X134426384Y-75413884D01*
X134342289Y-75526219D01*
X134293248Y-75657700D01*
X134287000Y-75715809D01*
X134287000Y-76284190D01*
X134293248Y-76342299D01*
X134307819Y-76381364D01*
X134342288Y-76473778D01*
X134426384Y-76586116D01*
X134538722Y-76670212D01*
X134593834Y-76690767D01*
X134649766Y-76732636D01*
X134674184Y-76798101D01*
X134674500Y-76806948D01*
X134674500Y-76943050D01*
X134654815Y-77010089D01*
X134602011Y-77055844D01*
X134593835Y-77059231D01*
X134538721Y-77079788D01*
X134426384Y-77163884D01*
X134342289Y-77276219D01*
X134293248Y-77407700D01*
X134287000Y-77465809D01*
X134287000Y-78034190D01*
X134293248Y-78092299D01*
X134323345Y-78172989D01*
X134342288Y-78223778D01*
X134426384Y-78336116D01*
X134516555Y-78403618D01*
X134538127Y-78419767D01*
X134538722Y-78420212D01*
X134631094Y-78454665D01*
X134670200Y-78469251D01*
X134728309Y-78475499D01*
X134728326Y-78475500D01*
X134750000Y-78475500D01*
X134750000Y-79274500D01*
X134728309Y-79274500D01*
X134670200Y-79280748D01*
X134538719Y-79329789D01*
X134426384Y-79413884D01*
X134342289Y-79526219D01*
X134293248Y-79657700D01*
X134287000Y-79715809D01*
X134287000Y-80284190D01*
X134293248Y-80342299D01*
X134307819Y-80381364D01*
X134342288Y-80473778D01*
X134426384Y-80586116D01*
X134538722Y-80670212D01*
X134593834Y-80690767D01*
X134649766Y-80732636D01*
X134674184Y-80798101D01*
X134674500Y-80806948D01*
X134674500Y-80943050D01*
X134654815Y-81010089D01*
X134602011Y-81055844D01*
X134593835Y-81059231D01*
X134538721Y-81079788D01*
X134426384Y-81163884D01*
X134342289Y-81276219D01*
X134293248Y-81407700D01*
X134287000Y-81465809D01*
X134287000Y-82034190D01*
X134293248Y-82092299D01*
X134323345Y-82172989D01*
X134342288Y-82223778D01*
X134426384Y-82336116D01*
X134505704Y-82395495D01*
X134538127Y-82419767D01*
X134538722Y-82420212D01*
X134631094Y-82454665D01*
X134670200Y-82469251D01*
X134728309Y-82475499D01*
X134728326Y-82475500D01*
X134750000Y-82475500D01*
X134750000Y-83274500D01*
X134728309Y-83274500D01*
X134670200Y-83280748D01*
X134538719Y-83329789D01*
X134426384Y-83413884D01*
X134342289Y-83526219D01*
X134293248Y-83657700D01*
X134287000Y-83715809D01*
X134287000Y-84284190D01*
X134293248Y-84342299D01*
X134307819Y-84381364D01*
X134342288Y-84473778D01*
X134426384Y-84586116D01*
X134538722Y-84670212D01*
X134593834Y-84690767D01*
X134649766Y-84732636D01*
X134674184Y-84798101D01*
X134674500Y-84806948D01*
X134674500Y-84943050D01*
X134654815Y-85010089D01*
X134602011Y-85055844D01*
X134593835Y-85059231D01*
X134538721Y-85079788D01*
X134426384Y-85163884D01*
X134342289Y-85276219D01*
X134293248Y-85407700D01*
X134287000Y-85465809D01*
X134287000Y-86034190D01*
X134293248Y-86092299D01*
X134323345Y-86172989D01*
X134342288Y-86223778D01*
X134426384Y-86336116D01*
X134516555Y-86403618D01*
X134538127Y-86419767D01*
X134538722Y-86420212D01*
X134631094Y-86454665D01*
X134670200Y-86469251D01*
X134728309Y-86475499D01*
X134728326Y-86475500D01*
X134750000Y-86475500D01*
X134750000Y-87499500D01*
X124624500Y-87499500D01*
X124557461Y-87479815D01*
X124511706Y-87427011D01*
X124500500Y-87375500D01*
X124500500Y-86034146D01*
X128962500Y-86034146D01*
X128968741Y-86092187D01*
X129017732Y-86223537D01*
X129101741Y-86335758D01*
X129213962Y-86419767D01*
X129345312Y-86468758D01*
X129403353Y-86474999D01*
X129403370Y-86475000D01*
X129575000Y-86475000D01*
X129825000Y-86475000D01*
X129996630Y-86475000D01*
X129996646Y-86474999D01*
X130054687Y-86468758D01*
X130186037Y-86419767D01*
X130298258Y-86335758D01*
X130382267Y-86223537D01*
X130431258Y-86092187D01*
X130437499Y-86034146D01*
X130437500Y-86034129D01*
X130437500Y-85875000D01*
X129825000Y-85875000D01*
X129825000Y-86475000D01*
X129575000Y-86475000D01*
X129575000Y-85875000D01*
X128962500Y-85875000D01*
X128962500Y-86034146D01*
X124500500Y-86034146D01*
X124500500Y-85999500D01*
X124520185Y-85932461D01*
X124572989Y-85886706D01*
X124624500Y-85875500D01*
X126549676Y-85875500D01*
X126549677Y-85875499D01*
X126622740Y-85860966D01*
X126705601Y-85805601D01*
X126760966Y-85722740D01*
X126775500Y-85649674D01*
X126775500Y-85465853D01*
X128962500Y-85465853D01*
X128962500Y-85625000D01*
X129575000Y-85625000D01*
X129825000Y-85625000D01*
X130437500Y-85625000D01*
X130437500Y-85465870D01*
X130437499Y-85465853D01*
X130431258Y-85407812D01*
X130382267Y-85276462D01*
X130298258Y-85164241D01*
X130186037Y-85080232D01*
X130054687Y-85031241D01*
X129996646Y-85025000D01*
X129825000Y-85025000D01*
X129825000Y-85625000D01*
X129575000Y-85625000D01*
X129575000Y-85025000D01*
X129403353Y-85025000D01*
X129345312Y-85031241D01*
X129213962Y-85080232D01*
X129101741Y-85164241D01*
X129017732Y-85276462D01*
X128968741Y-85407812D01*
X128962500Y-85465853D01*
X126775500Y-85465853D01*
X126775500Y-84474500D01*
X126795185Y-84407461D01*
X126847989Y-84361706D01*
X126899500Y-84350500D01*
X128885213Y-84350500D01*
X128952252Y-84370185D01*
X128998007Y-84422989D01*
X129001395Y-84431168D01*
X129017285Y-84473773D01*
X129017287Y-84473777D01*
X129017288Y-84473778D01*
X129101384Y-84586116D01*
X129213722Y-84670212D01*
X129306094Y-84704665D01*
X129345200Y-84719251D01*
X129403309Y-84725499D01*
X129403326Y-84725500D01*
X130096674Y-84725500D01*
X130096690Y-84725499D01*
X130154799Y-84719251D01*
X130286278Y-84670212D01*
X130398616Y-84586116D01*
X130482712Y-84473778D01*
X130496319Y-84437295D01*
X130538190Y-84381364D01*
X130603654Y-84356947D01*
X130671927Y-84371799D01*
X130721332Y-84421205D01*
X130728678Y-84437288D01*
X130742288Y-84473778D01*
X130826384Y-84586116D01*
X130938722Y-84670212D01*
X131043835Y-84709417D01*
X131099767Y-84751288D01*
X131124184Y-84816752D01*
X131124500Y-84825598D01*
X131124500Y-84961699D01*
X131104815Y-85028738D01*
X131052011Y-85074493D01*
X131043840Y-85077878D01*
X131038727Y-85079785D01*
X131038721Y-85079788D01*
X130926384Y-85163884D01*
X130842289Y-85276219D01*
X130793248Y-85407700D01*
X130787000Y-85465809D01*
X130787000Y-86034190D01*
X130793248Y-86092299D01*
X130823345Y-86172989D01*
X130842288Y-86223778D01*
X130926384Y-86336116D01*
X131016555Y-86403618D01*
X131038127Y-86419767D01*
X131038722Y-86420212D01*
X131131094Y-86454665D01*
X131170200Y-86469251D01*
X131228309Y-86475499D01*
X131228326Y-86475500D01*
X131821674Y-86475500D01*
X131821690Y-86475499D01*
X131879799Y-86469251D01*
X131881121Y-86468758D01*
X132011278Y-86420212D01*
X132123616Y-86336116D01*
X132207712Y-86223778D01*
X132223605Y-86181168D01*
X132265476Y-86125234D01*
X132330940Y-86100816D01*
X132339787Y-86100500D01*
X132385213Y-86100500D01*
X132452252Y-86120185D01*
X132498007Y-86172989D01*
X132501395Y-86181168D01*
X132517285Y-86223773D01*
X132517287Y-86223777D01*
X132517288Y-86223778D01*
X132601384Y-86336116D01*
X132691555Y-86403618D01*
X132713127Y-86419767D01*
X132713722Y-86420212D01*
X132806094Y-86454665D01*
X132845200Y-86469251D01*
X132903309Y-86475499D01*
X132903326Y-86475500D01*
X133496674Y-86475500D01*
X133496690Y-86475499D01*
X133554799Y-86469251D01*
X133556121Y-86468758D01*
X133686278Y-86420212D01*
X133798616Y-86336116D01*
X133882712Y-86223778D01*
X133931751Y-86092299D01*
X133931763Y-86092187D01*
X133937999Y-86034190D01*
X133938000Y-86034173D01*
X133938000Y-85465826D01*
X133937999Y-85465809D01*
X133931751Y-85407700D01*
X133917165Y-85368594D01*
X133882712Y-85276222D01*
X133798616Y-85163884D01*
X133731112Y-85113351D01*
X133686280Y-85079789D01*
X133686278Y-85079788D01*
X133659644Y-85069854D01*
X133554799Y-85030748D01*
X133496690Y-85024500D01*
X133496674Y-85024500D01*
X133049500Y-85024500D01*
X132982461Y-85004815D01*
X132936706Y-84952011D01*
X132925500Y-84900500D01*
X132925500Y-84871544D01*
X132945185Y-84804505D01*
X132961819Y-84783863D01*
X132983863Y-84761819D01*
X133045186Y-84728334D01*
X133071544Y-84725500D01*
X133496674Y-84725500D01*
X133496690Y-84725499D01*
X133554799Y-84719251D01*
X133686278Y-84670212D01*
X133798616Y-84586116D01*
X133882712Y-84473778D01*
X133931751Y-84342299D01*
X133933665Y-84324500D01*
X133937999Y-84284190D01*
X133938000Y-84284173D01*
X133938000Y-83715826D01*
X133937999Y-83715809D01*
X133931751Y-83657700D01*
X133901655Y-83577011D01*
X133882712Y-83526222D01*
X133798616Y-83413884D01*
X133719710Y-83354815D01*
X133686280Y-83329789D01*
X133686278Y-83329788D01*
X133659644Y-83319854D01*
X133554799Y-83280748D01*
X133496690Y-83274500D01*
X133496674Y-83274500D01*
X132903326Y-83274500D01*
X132903309Y-83274500D01*
X132845200Y-83280748D01*
X132713719Y-83329789D01*
X132601384Y-83413884D01*
X132517287Y-83526222D01*
X132478681Y-83629729D01*
X132436810Y-83685663D01*
X132371345Y-83710079D01*
X132303072Y-83695227D01*
X132253667Y-83645821D01*
X132246319Y-83629729D01*
X132207712Y-83526222D01*
X132146459Y-83444399D01*
X132123616Y-83413884D01*
X132044710Y-83354815D01*
X132011280Y-83329789D01*
X132011278Y-83329788D01*
X131984644Y-83319854D01*
X131879799Y-83280748D01*
X131821690Y-83274500D01*
X131821674Y-83274500D01*
X131128326Y-83274500D01*
X131128309Y-83274500D01*
X131070200Y-83280748D01*
X130938719Y-83329789D01*
X130826384Y-83413884D01*
X130742288Y-83526221D01*
X130728681Y-83562703D01*
X130686809Y-83618636D01*
X130621345Y-83643052D01*
X130553072Y-83628200D01*
X130503667Y-83578794D01*
X130496319Y-83562703D01*
X130491466Y-83549693D01*
X130482712Y-83526222D01*
X130398616Y-83413884D01*
X130319710Y-83354815D01*
X130286280Y-83329789D01*
X130286278Y-83329788D01*
X130259644Y-83319854D01*
X130154799Y-83280748D01*
X130096690Y-83274500D01*
X130096674Y-83274500D01*
X129403326Y-83274500D01*
X129403309Y-83274500D01*
X129345200Y-83280748D01*
X129213719Y-83329789D01*
X129101384Y-83413884D01*
X129017287Y-83526222D01*
X129017285Y-83526226D01*
X129001395Y-83568832D01*
X128959524Y-83624766D01*
X128894060Y-83649184D01*
X128885213Y-83649500D01*
X126887046Y-83649500D01*
X126820007Y-83629815D01*
X126774252Y-83577011D01*
X126765429Y-83549693D01*
X126760967Y-83527262D01*
X126760966Y-83527260D01*
X126760270Y-83526219D01*
X126705601Y-83444399D01*
X126622740Y-83389034D01*
X126622739Y-83389033D01*
X126622735Y-83389032D01*
X126549677Y-83374500D01*
X126549674Y-83374500D01*
X124624500Y-83374500D01*
X124557461Y-83354815D01*
X124511706Y-83302011D01*
X124500500Y-83250500D01*
X124500500Y-82034146D01*
X128962500Y-82034146D01*
X128968741Y-82092187D01*
X129017732Y-82223537D01*
X129101741Y-82335758D01*
X129213962Y-82419767D01*
X129345312Y-82468758D01*
X129403353Y-82474999D01*
X129403370Y-82475000D01*
X129575000Y-82475000D01*
X129825000Y-82475000D01*
X129996630Y-82475000D01*
X129996646Y-82474999D01*
X130054687Y-82468758D01*
X130186037Y-82419767D01*
X130298258Y-82335758D01*
X130382267Y-82223537D01*
X130431258Y-82092187D01*
X130437499Y-82034146D01*
X130437500Y-82034129D01*
X130437500Y-81875000D01*
X129825000Y-81875000D01*
X129825000Y-82475000D01*
X129575000Y-82475000D01*
X129575000Y-81875000D01*
X128962500Y-81875000D01*
X128962500Y-82034146D01*
X124500500Y-82034146D01*
X124500500Y-81949500D01*
X124520185Y-81882461D01*
X124572989Y-81836706D01*
X124624500Y-81825500D01*
X126549676Y-81825500D01*
X126549677Y-81825499D01*
X126622740Y-81810966D01*
X126705601Y-81755601D01*
X126760966Y-81672740D01*
X126775500Y-81599674D01*
X126775500Y-81465853D01*
X128962500Y-81465853D01*
X128962500Y-81625000D01*
X129575000Y-81625000D01*
X129825000Y-81625000D01*
X130437500Y-81625000D01*
X130437500Y-81465870D01*
X130437499Y-81465853D01*
X130431258Y-81407812D01*
X130382267Y-81276462D01*
X130298258Y-81164241D01*
X130186037Y-81080232D01*
X130054687Y-81031241D01*
X129996646Y-81025000D01*
X129825000Y-81025000D01*
X129825000Y-81625000D01*
X129575000Y-81625000D01*
X129575000Y-81025000D01*
X129403353Y-81025000D01*
X129345312Y-81031241D01*
X129213962Y-81080232D01*
X129101741Y-81164241D01*
X129017732Y-81276462D01*
X128968741Y-81407812D01*
X128962500Y-81465853D01*
X126775500Y-81465853D01*
X126775500Y-80474500D01*
X126795185Y-80407461D01*
X126847989Y-80361706D01*
X126899500Y-80350500D01*
X128885213Y-80350500D01*
X128952252Y-80370185D01*
X128998007Y-80422989D01*
X129001395Y-80431168D01*
X129017285Y-80473773D01*
X129017287Y-80473777D01*
X129017288Y-80473778D01*
X129101384Y-80586116D01*
X129213722Y-80670212D01*
X129306094Y-80704665D01*
X129345200Y-80719251D01*
X129403309Y-80725499D01*
X129403326Y-80725500D01*
X130096674Y-80725500D01*
X130096690Y-80725499D01*
X130154799Y-80719251D01*
X130286278Y-80670212D01*
X130398616Y-80586116D01*
X130482712Y-80473778D01*
X130496319Y-80437295D01*
X130538190Y-80381364D01*
X130603654Y-80356947D01*
X130671927Y-80371799D01*
X130721332Y-80421205D01*
X130728678Y-80437288D01*
X130742288Y-80473778D01*
X130826384Y-80586116D01*
X130938722Y-80670212D01*
X131043835Y-80709417D01*
X131099767Y-80751288D01*
X131124184Y-80816752D01*
X131124500Y-80825598D01*
X131124500Y-80961699D01*
X131104815Y-81028738D01*
X131052011Y-81074493D01*
X131043840Y-81077878D01*
X131038727Y-81079785D01*
X131038721Y-81079788D01*
X130926384Y-81163884D01*
X130842289Y-81276219D01*
X130793248Y-81407700D01*
X130787000Y-81465809D01*
X130787000Y-82034190D01*
X130793248Y-82092299D01*
X130823345Y-82172989D01*
X130842288Y-82223778D01*
X130926384Y-82336116D01*
X131005704Y-82395495D01*
X131038127Y-82419767D01*
X131038722Y-82420212D01*
X131131094Y-82454665D01*
X131170200Y-82469251D01*
X131228309Y-82475499D01*
X131228326Y-82475500D01*
X131821674Y-82475500D01*
X131821690Y-82475499D01*
X131879799Y-82469251D01*
X131881121Y-82468758D01*
X132011278Y-82420212D01*
X132123616Y-82336116D01*
X132207712Y-82223778D01*
X132223605Y-82181168D01*
X132265476Y-82125234D01*
X132330940Y-82100816D01*
X132339787Y-82100500D01*
X132385213Y-82100500D01*
X132452252Y-82120185D01*
X132498007Y-82172989D01*
X132501395Y-82181168D01*
X132517285Y-82223773D01*
X132517287Y-82223777D01*
X132517288Y-82223778D01*
X132601384Y-82336116D01*
X132680704Y-82395495D01*
X132713127Y-82419767D01*
X132713722Y-82420212D01*
X132806094Y-82454665D01*
X132845200Y-82469251D01*
X132903309Y-82475499D01*
X132903326Y-82475500D01*
X133496674Y-82475500D01*
X133496690Y-82475499D01*
X133554799Y-82469251D01*
X133556121Y-82468758D01*
X133686278Y-82420212D01*
X133798616Y-82336116D01*
X133882712Y-82223778D01*
X133931751Y-82092299D01*
X133931763Y-82092187D01*
X133937999Y-82034190D01*
X133938000Y-82034173D01*
X133938000Y-81465826D01*
X133937999Y-81465809D01*
X133931751Y-81407700D01*
X133917165Y-81368594D01*
X133882712Y-81276222D01*
X133798616Y-81163884D01*
X133731112Y-81113351D01*
X133686280Y-81079789D01*
X133686278Y-81079788D01*
X133659644Y-81069854D01*
X133554799Y-81030748D01*
X133496690Y-81024500D01*
X133496674Y-81024500D01*
X133049500Y-81024500D01*
X132982461Y-81004815D01*
X132936706Y-80952011D01*
X132925500Y-80900500D01*
X132925500Y-80849500D01*
X132945185Y-80782461D01*
X132997989Y-80736706D01*
X133049500Y-80725500D01*
X133496674Y-80725500D01*
X133496690Y-80725499D01*
X133554799Y-80719251D01*
X133686278Y-80670212D01*
X133798616Y-80586116D01*
X133882712Y-80473778D01*
X133931751Y-80342299D01*
X133933665Y-80324500D01*
X133937999Y-80284190D01*
X133938000Y-80284173D01*
X133938000Y-79715826D01*
X133937999Y-79715809D01*
X133931751Y-79657700D01*
X133901655Y-79577011D01*
X133882712Y-79526222D01*
X133798616Y-79413884D01*
X133708178Y-79346182D01*
X133686280Y-79329789D01*
X133686278Y-79329788D01*
X133659644Y-79319854D01*
X133554799Y-79280748D01*
X133496690Y-79274500D01*
X133496674Y-79274500D01*
X132903326Y-79274500D01*
X132903309Y-79274500D01*
X132845200Y-79280748D01*
X132713719Y-79329789D01*
X132601384Y-79413884D01*
X132517287Y-79526222D01*
X132478681Y-79629729D01*
X132436810Y-79685663D01*
X132371345Y-79710079D01*
X132303072Y-79695227D01*
X132253667Y-79645821D01*
X132246319Y-79629729D01*
X132207712Y-79526222D01*
X132171059Y-79477260D01*
X132123616Y-79413884D01*
X132033178Y-79346182D01*
X132011280Y-79329789D01*
X132011278Y-79329788D01*
X131984644Y-79319854D01*
X131879799Y-79280748D01*
X131821690Y-79274500D01*
X131821674Y-79274500D01*
X131128326Y-79274500D01*
X131128309Y-79274500D01*
X131070200Y-79280748D01*
X130938719Y-79329789D01*
X130826384Y-79413884D01*
X130742288Y-79526221D01*
X130728681Y-79562703D01*
X130686809Y-79618636D01*
X130621345Y-79643052D01*
X130553072Y-79628200D01*
X130503667Y-79578794D01*
X130496319Y-79562703D01*
X130482713Y-79526226D01*
X130482712Y-79526222D01*
X130398616Y-79413884D01*
X130308178Y-79346182D01*
X130286280Y-79329789D01*
X130286278Y-79329788D01*
X130259644Y-79319854D01*
X130154799Y-79280748D01*
X130096690Y-79274500D01*
X130096674Y-79274500D01*
X129403326Y-79274500D01*
X129403309Y-79274500D01*
X129345200Y-79280748D01*
X129213719Y-79329789D01*
X129101384Y-79413884D01*
X129017287Y-79526222D01*
X129017285Y-79526226D01*
X129001395Y-79568832D01*
X128959524Y-79624766D01*
X128894060Y-79649184D01*
X128885213Y-79649500D01*
X126896991Y-79649500D01*
X126829952Y-79629815D01*
X126784197Y-79577011D01*
X126775374Y-79549691D01*
X126760967Y-79477264D01*
X126760966Y-79477260D01*
X126705601Y-79394399D01*
X126622740Y-79339034D01*
X126622739Y-79339033D01*
X126622735Y-79339032D01*
X126549677Y-79324500D01*
X126549674Y-79324500D01*
X124624500Y-79324500D01*
X124557461Y-79304815D01*
X124511706Y-79252011D01*
X124500500Y-79200500D01*
X124500500Y-78034146D01*
X128962500Y-78034146D01*
X128968741Y-78092187D01*
X129017732Y-78223537D01*
X129101741Y-78335758D01*
X129213962Y-78419767D01*
X129345312Y-78468758D01*
X129403353Y-78474999D01*
X129403370Y-78475000D01*
X129575000Y-78475000D01*
X129825000Y-78475000D01*
X129996630Y-78475000D01*
X129996646Y-78474999D01*
X130054687Y-78468758D01*
X130186037Y-78419767D01*
X130298258Y-78335758D01*
X130382267Y-78223537D01*
X130431258Y-78092187D01*
X130437499Y-78034146D01*
X130437500Y-78034129D01*
X130437500Y-77875000D01*
X129825000Y-77875000D01*
X129825000Y-78475000D01*
X129575000Y-78475000D01*
X129575000Y-77875000D01*
X128962500Y-77875000D01*
X128962500Y-78034146D01*
X124500500Y-78034146D01*
X124500500Y-77899500D01*
X124520185Y-77832461D01*
X124572989Y-77786706D01*
X124624500Y-77775500D01*
X126549676Y-77775500D01*
X126549677Y-77775499D01*
X126622740Y-77760966D01*
X126705601Y-77705601D01*
X126760966Y-77622740D01*
X126775500Y-77549674D01*
X126775500Y-77465853D01*
X128962500Y-77465853D01*
X128962500Y-77625000D01*
X129575000Y-77625000D01*
X129825000Y-77625000D01*
X130437500Y-77625000D01*
X130437500Y-77465870D01*
X130437499Y-77465853D01*
X130431258Y-77407812D01*
X130382267Y-77276462D01*
X130298258Y-77164241D01*
X130186037Y-77080232D01*
X130054687Y-77031241D01*
X129996646Y-77025000D01*
X129825000Y-77025000D01*
X129825000Y-77625000D01*
X129575000Y-77625000D01*
X129575000Y-77025000D01*
X129403353Y-77025000D01*
X129345312Y-77031241D01*
X129213962Y-77080232D01*
X129101741Y-77164241D01*
X129017732Y-77276462D01*
X128968741Y-77407812D01*
X128962500Y-77465853D01*
X126775500Y-77465853D01*
X126775500Y-76474500D01*
X126795185Y-76407461D01*
X126847989Y-76361706D01*
X126899500Y-76350500D01*
X128885213Y-76350500D01*
X128952252Y-76370185D01*
X128998007Y-76422989D01*
X129001395Y-76431168D01*
X129017285Y-76473773D01*
X129017287Y-76473777D01*
X129017288Y-76473778D01*
X129101384Y-76586116D01*
X129213722Y-76670212D01*
X129306094Y-76704665D01*
X129345200Y-76719251D01*
X129403309Y-76725499D01*
X129403326Y-76725500D01*
X130096674Y-76725500D01*
X130096690Y-76725499D01*
X130154799Y-76719251D01*
X130286278Y-76670212D01*
X130398616Y-76586116D01*
X130482712Y-76473778D01*
X130496319Y-76437295D01*
X130538190Y-76381364D01*
X130603654Y-76356947D01*
X130671927Y-76371799D01*
X130721332Y-76421205D01*
X130728678Y-76437288D01*
X130742288Y-76473778D01*
X130826384Y-76586116D01*
X130938722Y-76670212D01*
X131070201Y-76719251D01*
X131070202Y-76719251D01*
X131077743Y-76721033D01*
X131077028Y-76724057D01*
X131128298Y-76745289D01*
X131168151Y-76802678D01*
X131174500Y-76841847D01*
X131174500Y-76943050D01*
X131154815Y-77010089D01*
X131102011Y-77055844D01*
X131093835Y-77059231D01*
X131038721Y-77079788D01*
X130926384Y-77163884D01*
X130842289Y-77276219D01*
X130793248Y-77407700D01*
X130787000Y-77465809D01*
X130787000Y-78034190D01*
X130793248Y-78092299D01*
X130823345Y-78172989D01*
X130842288Y-78223778D01*
X130926384Y-78336116D01*
X131016555Y-78403618D01*
X131038127Y-78419767D01*
X131038722Y-78420212D01*
X131131094Y-78454665D01*
X131170200Y-78469251D01*
X131228309Y-78475499D01*
X131228326Y-78475500D01*
X131821674Y-78475500D01*
X131821690Y-78475499D01*
X131879799Y-78469251D01*
X131881121Y-78468758D01*
X132011278Y-78420212D01*
X132123616Y-78336116D01*
X132207712Y-78223778D01*
X132223605Y-78181168D01*
X132265476Y-78125234D01*
X132330940Y-78100816D01*
X132339787Y-78100500D01*
X132385213Y-78100500D01*
X132452252Y-78120185D01*
X132498007Y-78172989D01*
X132501395Y-78181168D01*
X132517285Y-78223773D01*
X132517287Y-78223777D01*
X132517288Y-78223778D01*
X132601384Y-78336116D01*
X132691555Y-78403618D01*
X132713127Y-78419767D01*
X132713722Y-78420212D01*
X132806094Y-78454665D01*
X132845200Y-78469251D01*
X132903309Y-78475499D01*
X132903326Y-78475500D01*
X133496674Y-78475500D01*
X133496690Y-78475499D01*
X133554799Y-78469251D01*
X133556121Y-78468758D01*
X133686278Y-78420212D01*
X133798616Y-78336116D01*
X133882712Y-78223778D01*
X133931751Y-78092299D01*
X133931763Y-78092187D01*
X133937999Y-78034190D01*
X133938000Y-78034173D01*
X133938000Y-77465826D01*
X133937999Y-77465809D01*
X133931751Y-77407700D01*
X133917165Y-77368594D01*
X133882712Y-77276222D01*
X133798616Y-77163884D01*
X133731112Y-77113351D01*
X133686280Y-77079789D01*
X133686278Y-77079788D01*
X133659644Y-77069854D01*
X133554799Y-77030748D01*
X133496690Y-77024500D01*
X133496674Y-77024500D01*
X133049500Y-77024500D01*
X132982461Y-77004815D01*
X132936706Y-76952011D01*
X132925500Y-76900500D01*
X132925500Y-76849500D01*
X132945185Y-76782461D01*
X132997989Y-76736706D01*
X133049500Y-76725500D01*
X133496674Y-76725500D01*
X133496690Y-76725499D01*
X133554799Y-76719251D01*
X133686278Y-76670212D01*
X133798616Y-76586116D01*
X133882712Y-76473778D01*
X133931751Y-76342299D01*
X133933665Y-76324500D01*
X133937999Y-76284190D01*
X133938000Y-76284173D01*
X133938000Y-75715826D01*
X133937999Y-75715809D01*
X133931751Y-75657700D01*
X133901655Y-75577011D01*
X133882712Y-75526222D01*
X133798616Y-75413884D01*
X133705796Y-75344399D01*
X133686280Y-75329789D01*
X133686278Y-75329788D01*
X133659644Y-75319854D01*
X133554799Y-75280748D01*
X133496690Y-75274500D01*
X133496674Y-75274500D01*
X132903326Y-75274500D01*
X132903309Y-75274500D01*
X132845200Y-75280748D01*
X132713719Y-75329789D01*
X132601384Y-75413884D01*
X132517287Y-75526222D01*
X132478681Y-75629729D01*
X132436810Y-75685663D01*
X132371345Y-75710079D01*
X132303072Y-75695227D01*
X132253667Y-75645821D01*
X132246319Y-75629729D01*
X132207712Y-75526222D01*
X132188324Y-75500323D01*
X132123616Y-75413884D01*
X132030796Y-75344399D01*
X132011280Y-75329789D01*
X132011278Y-75329788D01*
X131984644Y-75319854D01*
X131879799Y-75280748D01*
X131821690Y-75274500D01*
X131821674Y-75274500D01*
X131128326Y-75274500D01*
X131128309Y-75274500D01*
X131070200Y-75280748D01*
X130938719Y-75329789D01*
X130826384Y-75413884D01*
X130742288Y-75526221D01*
X130728681Y-75562703D01*
X130686809Y-75618636D01*
X130621345Y-75643052D01*
X130553072Y-75628200D01*
X130503667Y-75578794D01*
X130496319Y-75562703D01*
X130482713Y-75526226D01*
X130482712Y-75526222D01*
X130398616Y-75413884D01*
X130305796Y-75344399D01*
X130286280Y-75329789D01*
X130286278Y-75329788D01*
X130259644Y-75319854D01*
X130154799Y-75280748D01*
X130096690Y-75274500D01*
X130096674Y-75274500D01*
X129403326Y-75274500D01*
X129403309Y-75274500D01*
X129345200Y-75280748D01*
X129213719Y-75329789D01*
X129101384Y-75413884D01*
X129017287Y-75526222D01*
X129017285Y-75526226D01*
X129001395Y-75568832D01*
X128959524Y-75624766D01*
X128894060Y-75649184D01*
X128885213Y-75649500D01*
X126899500Y-75649500D01*
X126832461Y-75629815D01*
X126786706Y-75577011D01*
X126775500Y-75525500D01*
X126775500Y-75500323D01*
X126775499Y-75500321D01*
X126760967Y-75427264D01*
X126760966Y-75427260D01*
X126705601Y-75344399D01*
X126622740Y-75289034D01*
X126622739Y-75289033D01*
X126622735Y-75289032D01*
X126549677Y-75274500D01*
X126549674Y-75274500D01*
X124624500Y-75274500D01*
X124557461Y-75254815D01*
X124511706Y-75202011D01*
X124500500Y-75150500D01*
X124500500Y-74874000D01*
X124520185Y-74806961D01*
X124572989Y-74761206D01*
X124624500Y-74750000D01*
X134750000Y-74750000D01*
X134750000Y-75274500D01*
G37*
%TD.AperFunction*%
%TD*%
%TA.AperFunction,Conductor*%
%TO.N,GND*%
G36*
X143210703Y-84264674D02*
G01*
X143217181Y-84270706D01*
X143476945Y-84530470D01*
X143476946Y-84530471D01*
X143476948Y-84530472D01*
X143539899Y-84566817D01*
X143539900Y-84566817D01*
X143556866Y-84576613D01*
X143556868Y-84576613D01*
X143556869Y-84576614D01*
X143646013Y-84600500D01*
X143785626Y-84600500D01*
X143820558Y-84605521D01*
X143845802Y-84612934D01*
X143898548Y-84644230D01*
X144534788Y-85280470D01*
X144588443Y-85311447D01*
X144588462Y-85311460D01*
X144595478Y-85315509D01*
X144595479Y-85315510D01*
X144601869Y-85319198D01*
X144601884Y-85319214D01*
X144601887Y-85319209D01*
X144601889Y-85319210D01*
X144614712Y-85326614D01*
X144703856Y-85350500D01*
X145535626Y-85350500D01*
X145570558Y-85355521D01*
X145595802Y-85362934D01*
X145648548Y-85394230D01*
X146034788Y-85780470D01*
X146114712Y-85826614D01*
X146203856Y-85850500D01*
X146203858Y-85850500D01*
X149624494Y-85850500D01*
X149659421Y-85855521D01*
X149670274Y-85858707D01*
X149729055Y-85896477D01*
X149758084Y-85960031D01*
X149748145Y-86029190D01*
X149748144Y-86029192D01*
X149744959Y-86036167D01*
X149719843Y-86072342D01*
X148341612Y-87450573D01*
X148313361Y-87471722D01*
X148290273Y-87484330D01*
X148230843Y-87499500D01*
X144142330Y-87499500D01*
X144107389Y-87494475D01*
X144092390Y-87490070D01*
X144033644Y-87452327D01*
X144032457Y-87450958D01*
X144004977Y-87396083D01*
X144003332Y-87388521D01*
X144000500Y-87362168D01*
X144000500Y-85475139D01*
X144000064Y-85473134D01*
X143985972Y-85402289D01*
X143985971Y-85402287D01*
X143985967Y-85402264D01*
X143985966Y-85402260D01*
X143985965Y-85402258D01*
X143985964Y-85402256D01*
X143975650Y-85386819D01*
X143975650Y-85386820D01*
X143954737Y-85355522D01*
X143930601Y-85319399D01*
X143865981Y-85276222D01*
X143865980Y-85276221D01*
X143847740Y-85264033D01*
X143847737Y-85264032D01*
X143847735Y-85264032D01*
X143847725Y-85264030D01*
X143847709Y-85264026D01*
X143774680Y-85249500D01*
X143774677Y-85249500D01*
X143774674Y-85249500D01*
X143129500Y-85249500D01*
X143062461Y-85229815D01*
X143016706Y-85177011D01*
X143005500Y-85125500D01*
X143005500Y-84358387D01*
X143025185Y-84291348D01*
X143077989Y-84245593D01*
X143147147Y-84235649D01*
X143210703Y-84264674D01*
G37*
%TD.AperFunction*%
%TA.AperFunction,Conductor*%
G36*
X145392606Y-80230522D02*
G01*
X145407604Y-80234926D01*
X145466355Y-80272671D01*
X145467542Y-80274040D01*
X145495018Y-80328901D01*
X145496663Y-80336459D01*
X145499500Y-80362830D01*
X145499500Y-81186626D01*
X145494476Y-81221564D01*
X145491289Y-81232417D01*
X145453514Y-81291194D01*
X145389957Y-81320217D01*
X145320807Y-81310276D01*
X145313829Y-81307089D01*
X145277657Y-81281975D01*
X144465213Y-80469531D01*
X144465211Y-80469529D01*
X144458749Y-80465798D01*
X144431006Y-80443979D01*
X144423196Y-80435788D01*
X144391187Y-80373684D01*
X144397835Y-80304131D01*
X144441028Y-80249215D01*
X144441586Y-80248819D01*
X144492912Y-80227584D01*
X144495127Y-80227212D01*
X144515665Y-80225499D01*
X145357670Y-80225499D01*
X145392606Y-80230522D01*
G37*
%TD.AperFunction*%
%TA.AperFunction,Conductor*%
G36*
X121511601Y-41355523D02*
G01*
X121524669Y-41359360D01*
X121583447Y-41397134D01*
X121612473Y-41460689D01*
X121605526Y-41522704D01*
X121602571Y-41530416D01*
X121589882Y-41554940D01*
X121512741Y-41670387D01*
X121512731Y-41670404D01*
X121512726Y-41670413D01*
X121436419Y-41854637D01*
X121436406Y-41854676D01*
X121397500Y-42050270D01*
X121397500Y-42205356D01*
X121392237Y-42223276D01*
X121436406Y-42445322D01*
X121436407Y-42445326D01*
X121436408Y-42445329D01*
X121436411Y-42445339D01*
X121436414Y-42445347D01*
X121436419Y-42445361D01*
X121512726Y-42629585D01*
X121512730Y-42629592D01*
X121512736Y-42629604D01*
X121512741Y-42629611D01*
X121623540Y-42795432D01*
X121623541Y-42795433D01*
X121623546Y-42795439D01*
X121764559Y-42936452D01*
X121764565Y-42936457D01*
X121764569Y-42936460D01*
X121930394Y-43047262D01*
X121930407Y-43047269D01*
X122109065Y-43121270D01*
X122113488Y-43123362D01*
X122114227Y-43123505D01*
X122114970Y-43123651D01*
X122310271Y-43162500D01*
X122509725Y-43162500D01*
X122509726Y-43162500D01*
X122536044Y-43157264D01*
X122641324Y-43136322D01*
X122641325Y-43136322D01*
X122654196Y-43133761D01*
X122705335Y-43123590D01*
X122803406Y-43082967D01*
X122847840Y-43064563D01*
X122856341Y-43061041D01*
X122883053Y-43049977D01*
X122885843Y-43049005D01*
X122887288Y-43048336D01*
X122891945Y-43046294D01*
X122901210Y-43042456D01*
X122910095Y-43033570D01*
X123055431Y-42936460D01*
X123196460Y-42795431D01*
X123307266Y-42629599D01*
X123322212Y-42593513D01*
X123340215Y-42563170D01*
X123350030Y-42550991D01*
X123407418Y-42511146D01*
X123415937Y-42508311D01*
X123420342Y-42506845D01*
X123459500Y-42500500D01*
X124120416Y-42500500D01*
X124155343Y-42505521D01*
X124166196Y-42508707D01*
X124224977Y-42546477D01*
X124254006Y-42610031D01*
X124244067Y-42679190D01*
X124244063Y-42679199D01*
X124240878Y-42686173D01*
X124215766Y-42722340D01*
X124163547Y-42774559D01*
X124163539Y-42774568D01*
X124163536Y-42774573D01*
X124052741Y-42940387D01*
X124052731Y-42940404D01*
X124052726Y-42940413D01*
X123976419Y-43124637D01*
X123976406Y-43124676D01*
X123937500Y-43320270D01*
X123937500Y-43475356D01*
X123932237Y-43493276D01*
X123976406Y-43715322D01*
X123976407Y-43715326D01*
X123976408Y-43715329D01*
X123976411Y-43715339D01*
X123976414Y-43715347D01*
X123976419Y-43715361D01*
X124052726Y-43899585D01*
X124052730Y-43899592D01*
X124052736Y-43899604D01*
X124052741Y-43899611D01*
X124163540Y-44065432D01*
X124163541Y-44065433D01*
X124163545Y-44065438D01*
X124213319Y-44115211D01*
X124234471Y-44143466D01*
X124239891Y-44153392D01*
X124254743Y-44221665D01*
X124230326Y-44287129D01*
X124174393Y-44329001D01*
X124167205Y-44331682D01*
X124123871Y-44339500D01*
X123461424Y-44339500D01*
X123426483Y-44334475D01*
X123411484Y-44330070D01*
X123352712Y-44292297D01*
X123343794Y-44282005D01*
X123322946Y-44248255D01*
X123307270Y-44210410D01*
X123307264Y-44210397D01*
X123196458Y-44044566D01*
X123196457Y-44044565D01*
X123196452Y-44044559D01*
X123055439Y-43903546D01*
X123055433Y-43903541D01*
X123055432Y-43903540D01*
X122889611Y-43792741D01*
X122889610Y-43792740D01*
X122889605Y-43792737D01*
X122889592Y-43792730D01*
X122889585Y-43792726D01*
X122705361Y-43716419D01*
X122705347Y-43716414D01*
X122705339Y-43716411D01*
X122705329Y-43716408D01*
X122705326Y-43716407D01*
X122705322Y-43716406D01*
X122509728Y-43677500D01*
X122509725Y-43677500D01*
X122509723Y-43677500D01*
X122310277Y-43677500D01*
X122310275Y-43677500D01*
X122310271Y-43677500D01*
X122114676Y-43716406D01*
X122114670Y-43716408D01*
X122114660Y-43716411D01*
X122114655Y-43716412D01*
X122114637Y-43716419D01*
X121930413Y-43792726D01*
X121930404Y-43792731D01*
X121930387Y-43792741D01*
X121764566Y-43903540D01*
X121764565Y-43903541D01*
X121764559Y-43903546D01*
X121623546Y-44044559D01*
X121623541Y-44044565D01*
X121623540Y-44044566D01*
X121512741Y-44210387D01*
X121512731Y-44210404D01*
X121512726Y-44210413D01*
X121436419Y-44394637D01*
X121436406Y-44394676D01*
X121397500Y-44590270D01*
X121397500Y-44745356D01*
X121392237Y-44763276D01*
X121436406Y-44985322D01*
X121436407Y-44985326D01*
X121436408Y-44985329D01*
X121436411Y-44985339D01*
X121436414Y-44985347D01*
X121436419Y-44985361D01*
X121512726Y-45169585D01*
X121512730Y-45169592D01*
X121512736Y-45169604D01*
X121512741Y-45169611D01*
X121623540Y-45335432D01*
X121623541Y-45335433D01*
X121623546Y-45335439D01*
X121764559Y-45476452D01*
X121764565Y-45476457D01*
X121764569Y-45476460D01*
X121930394Y-45587262D01*
X121930407Y-45587269D01*
X122109065Y-45661270D01*
X122113488Y-45663362D01*
X122114227Y-45663505D01*
X122114970Y-45663651D01*
X122310271Y-45702500D01*
X122509725Y-45702500D01*
X122509726Y-45702500D01*
X122539666Y-45696544D01*
X122641324Y-45676322D01*
X122641325Y-45676322D01*
X122654196Y-45673761D01*
X122705335Y-45663590D01*
X122889599Y-45587266D01*
X123055431Y-45476460D01*
X123196460Y-45335431D01*
X123307266Y-45169599D01*
X123322212Y-45133513D01*
X123340215Y-45103170D01*
X123350030Y-45090991D01*
X123407418Y-45051146D01*
X123415937Y-45048311D01*
X123420342Y-45046845D01*
X123459500Y-45040500D01*
X124120416Y-45040500D01*
X124155343Y-45045521D01*
X124166196Y-45048707D01*
X124224977Y-45086477D01*
X124254006Y-45150031D01*
X124244067Y-45219190D01*
X124244063Y-45219199D01*
X124240878Y-45226173D01*
X124215766Y-45262340D01*
X124163547Y-45314559D01*
X124163539Y-45314568D01*
X124163536Y-45314573D01*
X124052741Y-45480387D01*
X124052731Y-45480404D01*
X124052726Y-45480413D01*
X123976419Y-45664637D01*
X123976406Y-45664676D01*
X123937500Y-45860270D01*
X123937500Y-46015356D01*
X123932237Y-46033276D01*
X123976406Y-46255322D01*
X123976407Y-46255326D01*
X123976408Y-46255329D01*
X123976411Y-46255339D01*
X123976414Y-46255347D01*
X123976419Y-46255361D01*
X124052726Y-46439585D01*
X124052730Y-46439592D01*
X124052736Y-46439604D01*
X124052741Y-46439611D01*
X124163540Y-46605432D01*
X124163541Y-46605433D01*
X124163545Y-46605438D01*
X124213319Y-46655211D01*
X124234471Y-46683466D01*
X124239891Y-46693392D01*
X124254743Y-46761665D01*
X124230326Y-46827129D01*
X124174393Y-46869001D01*
X124167205Y-46871682D01*
X124123871Y-46879500D01*
X123461424Y-46879500D01*
X123426483Y-46874475D01*
X123411484Y-46870070D01*
X123352712Y-46832297D01*
X123343794Y-46822005D01*
X123322946Y-46788255D01*
X123307270Y-46750410D01*
X123307264Y-46750397D01*
X123196458Y-46584566D01*
X123196457Y-46584565D01*
X123196452Y-46584559D01*
X123055439Y-46443546D01*
X123055433Y-46443541D01*
X123055432Y-46443540D01*
X122889611Y-46332741D01*
X122889610Y-46332740D01*
X122889605Y-46332737D01*
X122889592Y-46332730D01*
X122889585Y-46332726D01*
X122705361Y-46256419D01*
X122705347Y-46256414D01*
X122705339Y-46256411D01*
X122705329Y-46256408D01*
X122705326Y-46256407D01*
X122705322Y-46256406D01*
X122509728Y-46217500D01*
X122509725Y-46217500D01*
X122509723Y-46217500D01*
X122310277Y-46217500D01*
X122310275Y-46217500D01*
X122310271Y-46217500D01*
X122114676Y-46256406D01*
X122114670Y-46256408D01*
X122114660Y-46256411D01*
X122114655Y-46256412D01*
X122114637Y-46256419D01*
X121930413Y-46332726D01*
X121930404Y-46332731D01*
X121930387Y-46332741D01*
X121764566Y-46443540D01*
X121764565Y-46443541D01*
X121764559Y-46443546D01*
X121623546Y-46584559D01*
X121623541Y-46584565D01*
X121623540Y-46584566D01*
X121512741Y-46750387D01*
X121512731Y-46750404D01*
X121512726Y-46750413D01*
X121436419Y-46934637D01*
X121436406Y-46934676D01*
X121397500Y-47130270D01*
X121397500Y-47285356D01*
X121392237Y-47303276D01*
X121436406Y-47525322D01*
X121436407Y-47525326D01*
X121436408Y-47525329D01*
X121436411Y-47525339D01*
X121436414Y-47525347D01*
X121436419Y-47525361D01*
X121512726Y-47709585D01*
X121512730Y-47709592D01*
X121512735Y-47709602D01*
X121512741Y-47709611D01*
X121623540Y-47875432D01*
X121623541Y-47875433D01*
X121623546Y-47875439D01*
X121764559Y-48016452D01*
X121764565Y-48016457D01*
X121764569Y-48016460D01*
X121930394Y-48127262D01*
X121930407Y-48127269D01*
X122109065Y-48201270D01*
X122113488Y-48203362D01*
X122114227Y-48203505D01*
X122114970Y-48203651D01*
X122310271Y-48242500D01*
X122509725Y-48242500D01*
X122509726Y-48242500D01*
X122536044Y-48237264D01*
X122641324Y-48216322D01*
X122641325Y-48216322D01*
X122654196Y-48213761D01*
X122705335Y-48203590D01*
X122889599Y-48127266D01*
X123055431Y-48016460D01*
X123196460Y-47875431D01*
X123307266Y-47709599D01*
X123322212Y-47673513D01*
X123340215Y-47643170D01*
X123350030Y-47630991D01*
X123407418Y-47591146D01*
X123415937Y-47588311D01*
X123420342Y-47586845D01*
X123459500Y-47580500D01*
X124120416Y-47580500D01*
X124155343Y-47585521D01*
X124166196Y-47588707D01*
X124224977Y-47626477D01*
X124254006Y-47690031D01*
X124244067Y-47759190D01*
X124244063Y-47759199D01*
X124240878Y-47766173D01*
X124215766Y-47802340D01*
X124163547Y-47854559D01*
X124163539Y-47854568D01*
X124163536Y-47854573D01*
X124052741Y-48020387D01*
X124052731Y-48020404D01*
X124052726Y-48020413D01*
X123976419Y-48204637D01*
X123976406Y-48204676D01*
X123937500Y-48400270D01*
X123937500Y-48555356D01*
X123932237Y-48573276D01*
X123976406Y-48795322D01*
X123976407Y-48795326D01*
X123976408Y-48795329D01*
X123976411Y-48795339D01*
X123976414Y-48795347D01*
X123976419Y-48795361D01*
X124052726Y-48979585D01*
X124052730Y-48979592D01*
X124052736Y-48979604D01*
X124052741Y-48979611D01*
X124163540Y-49145432D01*
X124163541Y-49145433D01*
X124163546Y-49145439D01*
X124304559Y-49286452D01*
X124304565Y-49286457D01*
X124304569Y-49286460D01*
X124470394Y-49397262D01*
X124470407Y-49397269D01*
X124649065Y-49471270D01*
X124653488Y-49473362D01*
X124654227Y-49473505D01*
X124654970Y-49473651D01*
X124850271Y-49512500D01*
X125049725Y-49512500D01*
X125049727Y-49512500D01*
X125198325Y-49482941D01*
X125198326Y-49482941D01*
X125210156Y-49480587D01*
X125245335Y-49473590D01*
X125387844Y-49414561D01*
X125429592Y-49397269D01*
X125429592Y-49397268D01*
X125429599Y-49397266D01*
X125595431Y-49286460D01*
X125736460Y-49145431D01*
X125847266Y-48979599D01*
X125862212Y-48943513D01*
X125880215Y-48913170D01*
X125890030Y-48900991D01*
X125947418Y-48861146D01*
X125951830Y-48859677D01*
X125960342Y-48856845D01*
X125999500Y-48850500D01*
X130248576Y-48850500D01*
X130283512Y-48855523D01*
X130298510Y-48859927D01*
X130357283Y-48897697D01*
X130366201Y-48907988D01*
X130387052Y-48941739D01*
X130390267Y-48949500D01*
X130390265Y-48949500D01*
X130390270Y-48949507D01*
X130402733Y-48979599D01*
X130513540Y-49145432D01*
X130513541Y-49145433D01*
X130513546Y-49145439D01*
X130654559Y-49286452D01*
X130654565Y-49286457D01*
X130654569Y-49286460D01*
X130820394Y-49397262D01*
X130820407Y-49397269D01*
X130999065Y-49471270D01*
X131003488Y-49473362D01*
X131004227Y-49473505D01*
X131004970Y-49473651D01*
X131200271Y-49512500D01*
X131399725Y-49512500D01*
X131399727Y-49512500D01*
X131548325Y-49482941D01*
X131548326Y-49482941D01*
X131560156Y-49480587D01*
X131595335Y-49473590D01*
X131737844Y-49414561D01*
X131779592Y-49397269D01*
X131779592Y-49397268D01*
X131779599Y-49397266D01*
X131945431Y-49286460D01*
X132086460Y-49145431D01*
X132197266Y-48979599D01*
X132212212Y-48943513D01*
X132230215Y-48913170D01*
X132240030Y-48900991D01*
X132297418Y-48861146D01*
X132301830Y-48859677D01*
X132310342Y-48856845D01*
X132349500Y-48850500D01*
X136598576Y-48850500D01*
X136633512Y-48855523D01*
X136648510Y-48859927D01*
X136707283Y-48897697D01*
X136716201Y-48907988D01*
X136737052Y-48941739D01*
X136740267Y-48949500D01*
X136740265Y-48949500D01*
X136740270Y-48949507D01*
X136752733Y-48979599D01*
X136863540Y-49145432D01*
X136863541Y-49145433D01*
X136863546Y-49145439D01*
X137004559Y-49286452D01*
X137004565Y-49286457D01*
X137004569Y-49286460D01*
X137170394Y-49397262D01*
X137170407Y-49397269D01*
X137349065Y-49471270D01*
X137353488Y-49473362D01*
X137354227Y-49473505D01*
X137354970Y-49473651D01*
X137550271Y-49512500D01*
X137749725Y-49512500D01*
X137749727Y-49512500D01*
X137898325Y-49482941D01*
X137898326Y-49482941D01*
X137910156Y-49480587D01*
X137945335Y-49473590D01*
X138087844Y-49414561D01*
X138129592Y-49397269D01*
X138129592Y-49397268D01*
X138129599Y-49397266D01*
X138295431Y-49286460D01*
X138436460Y-49145431D01*
X138547266Y-48979599D01*
X138562212Y-48943513D01*
X138580215Y-48913170D01*
X138590030Y-48900991D01*
X138647418Y-48861146D01*
X138651830Y-48859677D01*
X138660342Y-48856845D01*
X138699500Y-48850500D01*
X142948576Y-48850500D01*
X142983512Y-48855523D01*
X142998510Y-48859927D01*
X143057283Y-48897697D01*
X143066201Y-48907988D01*
X143087052Y-48941739D01*
X143090267Y-48949500D01*
X143090265Y-48949500D01*
X143090270Y-48949507D01*
X143102733Y-48979599D01*
X143213540Y-49145432D01*
X143213541Y-49145433D01*
X143213546Y-49145439D01*
X143354559Y-49286452D01*
X143354565Y-49286457D01*
X143354569Y-49286460D01*
X143520394Y-49397262D01*
X143520407Y-49397269D01*
X143699065Y-49471270D01*
X143703488Y-49473362D01*
X143704227Y-49473505D01*
X143704970Y-49473651D01*
X143900271Y-49512500D01*
X144099725Y-49512500D01*
X144099727Y-49512500D01*
X144248325Y-49482941D01*
X144248326Y-49482941D01*
X144260156Y-49480587D01*
X144295335Y-49473590D01*
X144437844Y-49414561D01*
X144479592Y-49397269D01*
X144479592Y-49397268D01*
X144479599Y-49397266D01*
X144645431Y-49286460D01*
X144786460Y-49145431D01*
X144892309Y-48987018D01*
X144897263Y-48979604D01*
X144897264Y-48979601D01*
X144897266Y-48979599D01*
X144973590Y-48795335D01*
X145012500Y-48599723D01*
X145012500Y-48400277D01*
X145012500Y-48400274D01*
X145012500Y-48400271D01*
X144973351Y-48203463D01*
X144971269Y-48199062D01*
X144950740Y-48149500D01*
X144950707Y-48149421D01*
X144910099Y-48051383D01*
X144897269Y-48020407D01*
X144897262Y-48020394D01*
X144786460Y-47854569D01*
X144786457Y-47854565D01*
X144786452Y-47854559D01*
X144676427Y-47744534D01*
X144655278Y-47716284D01*
X144648626Y-47704103D01*
X144633772Y-47635831D01*
X144658185Y-47570368D01*
X144663290Y-47563548D01*
X144700550Y-47530481D01*
X144735212Y-47510470D01*
X145530470Y-46715212D01*
X145576614Y-46635288D01*
X145576615Y-46635285D01*
X145586471Y-46598502D01*
X145586471Y-46598501D01*
X145590203Y-46584569D01*
X145590205Y-46584567D01*
X145594555Y-46568327D01*
X145600500Y-46546144D01*
X145600500Y-45714373D01*
X145605522Y-45679440D01*
X145612934Y-45654195D01*
X145644228Y-45601453D01*
X146400214Y-44845467D01*
X146428457Y-44824323D01*
X146438391Y-44818899D01*
X146506661Y-44804046D01*
X146572126Y-44828460D01*
X146613999Y-44884392D01*
X146614001Y-44884396D01*
X146616682Y-44891584D01*
X146624500Y-44934918D01*
X146624500Y-45098494D01*
X146619476Y-45133431D01*
X146612064Y-45158672D01*
X146580769Y-45211416D01*
X146099504Y-45692679D01*
X146099503Y-45692681D01*
X146099493Y-45692696D01*
X146033610Y-45806806D01*
X146033609Y-45806808D01*
X145999500Y-45934108D01*
X145999500Y-51223494D01*
X145994476Y-51258431D01*
X145987064Y-51283672D01*
X145955769Y-51336416D01*
X145599504Y-51692679D01*
X145599500Y-51692684D01*
X145599498Y-51692687D01*
X145599490Y-51692700D01*
X145546580Y-51784341D01*
X145524768Y-51812079D01*
X145524311Y-51812515D01*
X145514725Y-51821654D01*
X145452626Y-51853673D01*
X145383072Y-51847035D01*
X145383061Y-51847030D01*
X145381550Y-51846425D01*
X145333931Y-51812515D01*
X145330649Y-51808727D01*
X145316974Y-51789522D01*
X145315511Y-51786988D01*
X145315507Y-51786983D01*
X145212877Y-51684353D01*
X145212568Y-51684123D01*
X145209802Y-51682635D01*
X145159243Y-51653445D01*
X145130808Y-51623624D01*
X145076007Y-51608939D01*
X145076007Y-51608940D01*
X145011740Y-51591720D01*
X144947475Y-51574500D01*
X144947474Y-51574500D01*
X144802525Y-51574500D01*
X144673994Y-51608939D01*
X144673993Y-51608940D01*
X144666338Y-51610991D01*
X144662510Y-51612017D01*
X144536991Y-51684485D01*
X144536984Y-51684490D01*
X144536968Y-51684505D01*
X144434505Y-51786968D01*
X144434490Y-51786984D01*
X144434485Y-51786992D01*
X144362017Y-51912509D01*
X144361989Y-51912578D01*
X144361748Y-51913511D01*
X144324500Y-52052525D01*
X144324500Y-52110626D01*
X144319476Y-52145563D01*
X144312064Y-52170804D01*
X144280769Y-52223548D01*
X143403744Y-53100573D01*
X143375493Y-53121722D01*
X143352405Y-53134330D01*
X143292975Y-53149500D01*
X138745117Y-53149500D01*
X138710176Y-53144475D01*
X138695177Y-53140070D01*
X138636405Y-53102298D01*
X138628551Y-53093234D01*
X138606082Y-53055365D01*
X138599448Y-53037578D01*
X138595214Y-53026226D01*
X138595212Y-53026222D01*
X138595210Y-53026219D01*
X138595208Y-53026215D01*
X138570355Y-52993016D01*
X138511117Y-52913886D01*
X138511118Y-52913886D01*
X138511116Y-52913884D01*
X138443612Y-52863351D01*
X138443611Y-52863350D01*
X138398786Y-52829793D01*
X138398782Y-52829791D01*
X138398780Y-52829789D01*
X138398778Y-52829788D01*
X138398777Y-52829787D01*
X138398776Y-52829787D01*
X138398772Y-52829785D01*
X138372148Y-52819854D01*
X138372144Y-52819854D01*
X138267299Y-52780748D01*
X138267297Y-52780747D01*
X138267296Y-52780747D01*
X138209198Y-52774500D01*
X138209190Y-52774500D01*
X138209174Y-52774500D01*
X137515826Y-52774500D01*
X137515809Y-52774500D01*
X137515800Y-52774500D01*
X137457702Y-52780747D01*
X137457696Y-52780748D01*
X137326224Y-52829786D01*
X137326213Y-52829792D01*
X137213884Y-52913882D01*
X137213882Y-52913884D01*
X137129792Y-53026213D01*
X137129786Y-53026224D01*
X137080748Y-53157696D01*
X137080747Y-53157702D01*
X137074500Y-53215800D01*
X137074500Y-53784198D01*
X137080747Y-53842296D01*
X137080748Y-53842299D01*
X137102056Y-53899427D01*
X137110844Y-53922986D01*
X137110845Y-53922990D01*
X137129785Y-53973773D01*
X137129787Y-53973777D01*
X137129789Y-53973780D01*
X137213884Y-54086116D01*
X137326222Y-54170212D01*
X137326221Y-54170212D01*
X137418591Y-54204665D01*
X137418592Y-54204665D01*
X137451700Y-54217013D01*
X137457700Y-54219251D01*
X137515792Y-54225497D01*
X137515798Y-54225498D01*
X137515803Y-54225498D01*
X137515809Y-54225499D01*
X137515826Y-54225500D01*
X138209174Y-54225500D01*
X138209182Y-54225500D01*
X138209193Y-54225499D01*
X138234093Y-54222821D01*
X138267299Y-54219251D01*
X138398778Y-54170212D01*
X138511116Y-54086116D01*
X138595212Y-53973778D01*
X138604875Y-53947868D01*
X138621788Y-53916897D01*
X138631157Y-53904381D01*
X138687086Y-53862510D01*
X138698330Y-53858316D01*
X138741660Y-53850500D01*
X143546142Y-53850500D01*
X143546144Y-53850500D01*
X143635288Y-53826614D01*
X143635439Y-53826526D01*
X143635505Y-53826489D01*
X143635508Y-53826487D01*
X143635521Y-53826480D01*
X143712026Y-53782309D01*
X143717509Y-53779359D01*
X143720640Y-53777334D01*
X143745709Y-53762860D01*
X143765826Y-53729855D01*
X144771258Y-52724423D01*
X144799508Y-52703275D01*
X144822600Y-52690667D01*
X144882025Y-52675500D01*
X144947472Y-52675500D01*
X144947475Y-52675500D01*
X145087485Y-52637984D01*
X145213015Y-52565509D01*
X145275217Y-52503306D01*
X145303457Y-52482165D01*
X145313391Y-52476741D01*
X145381661Y-52461888D01*
X145447126Y-52486302D01*
X145488999Y-52542234D01*
X145489001Y-52542238D01*
X145491682Y-52549426D01*
X145499500Y-52592760D01*
X145499500Y-54232670D01*
X145494475Y-54267614D01*
X145490070Y-54282612D01*
X145452327Y-54341355D01*
X145450958Y-54342542D01*
X145396097Y-54370018D01*
X145388539Y-54371663D01*
X145362168Y-54374500D01*
X144208273Y-54374500D01*
X144199120Y-54379497D01*
X144192168Y-54380802D01*
X144150749Y-54387362D01*
X144145869Y-54387746D01*
X144141111Y-54388888D01*
X144031599Y-54444687D01*
X144031591Y-54444692D01*
X144031590Y-54444693D01*
X144031581Y-54444701D01*
X143975708Y-54500575D01*
X143947456Y-54521725D01*
X143924371Y-54534331D01*
X143864942Y-54549500D01*
X136870262Y-54549500D01*
X136838165Y-54545274D01*
X136807700Y-54537110D01*
X136777797Y-54524723D01*
X136712488Y-54487017D01*
X136712489Y-54487017D01*
X136701002Y-54483939D01*
X136572475Y-54449500D01*
X136572472Y-54449500D01*
X136427525Y-54449500D01*
X136298994Y-54483939D01*
X136298993Y-54483940D01*
X136291338Y-54485991D01*
X136287510Y-54487017D01*
X136161991Y-54559485D01*
X136161984Y-54559490D01*
X136161968Y-54559505D01*
X136059505Y-54661968D01*
X136059490Y-54661984D01*
X136059485Y-54661992D01*
X135987017Y-54787509D01*
X135986989Y-54787578D01*
X135986748Y-54788511D01*
X135949500Y-54927525D01*
X135949500Y-55072475D01*
X135987016Y-55212485D01*
X135987017Y-55212487D01*
X135995177Y-55226621D01*
X135995180Y-55226625D01*
X136008284Y-55249322D01*
X136021401Y-55282085D01*
X136024673Y-55295571D01*
X136021350Y-55365362D01*
X135980827Y-55422273D01*
X135976199Y-55425913D01*
X135930923Y-55448411D01*
X135889485Y-55459250D01*
X135885718Y-55460702D01*
X135801386Y-55483299D01*
X135801385Y-55483298D01*
X135787512Y-55487016D01*
X135787507Y-55487018D01*
X135661992Y-55559485D01*
X135661984Y-55559490D01*
X135661968Y-55559505D01*
X135559505Y-55661968D01*
X135559490Y-55661984D01*
X135559485Y-55661992D01*
X135487017Y-55787509D01*
X135486989Y-55787578D01*
X135486748Y-55788511D01*
X135449500Y-55927525D01*
X135449500Y-56072475D01*
X135450496Y-56076192D01*
X135454684Y-56111226D01*
X135454354Y-56125101D01*
X135433081Y-56191654D01*
X135379207Y-56236139D01*
X135371392Y-56239486D01*
X135322574Y-56249500D01*
X134180457Y-56249500D01*
X134145519Y-56244476D01*
X134127464Y-56239174D01*
X134072662Y-56205771D01*
X134065474Y-56198233D01*
X134047826Y-56174659D01*
X134041242Y-56163255D01*
X134041249Y-56163250D01*
X134041223Y-56163223D01*
X134040513Y-56161992D01*
X134040509Y-56161985D01*
X133938015Y-56059491D01*
X133937877Y-56059353D01*
X133937568Y-56059123D01*
X133934802Y-56057635D01*
X133884243Y-56028445D01*
X133855808Y-55998624D01*
X133801007Y-55983939D01*
X133801007Y-55983940D01*
X133736740Y-55966720D01*
X133672475Y-55949500D01*
X133672474Y-55949500D01*
X133527525Y-55949500D01*
X133398994Y-55983939D01*
X133398993Y-55983940D01*
X133391338Y-55985991D01*
X133387510Y-55987017D01*
X133261991Y-56059485D01*
X133261984Y-56059490D01*
X133261968Y-56059505D01*
X133159505Y-56161968D01*
X133159490Y-56161984D01*
X133159485Y-56161992D01*
X133087017Y-56287509D01*
X133086989Y-56287578D01*
X133086748Y-56288511D01*
X133049500Y-56427525D01*
X133049500Y-56572474D01*
X133087013Y-56712477D01*
X133087017Y-56712488D01*
X133087018Y-56712490D01*
X133107555Y-56748061D01*
X133120672Y-56780824D01*
X133123944Y-56794310D01*
X133120621Y-56864101D01*
X133080094Y-56921016D01*
X133080090Y-56921019D01*
X133078812Y-56922024D01*
X133025634Y-56946309D01*
X133020705Y-56947259D01*
X132997244Y-56949500D01*
X132927525Y-56949500D01*
X132798994Y-56983939D01*
X132798993Y-56983940D01*
X132791338Y-56985991D01*
X132787510Y-56987017D01*
X132661991Y-57059485D01*
X132661984Y-57059490D01*
X132661968Y-57059505D01*
X132559505Y-57161968D01*
X132559490Y-57161984D01*
X132559485Y-57161992D01*
X132487017Y-57287509D01*
X132486989Y-57287578D01*
X132486748Y-57288511D01*
X132449500Y-57427525D01*
X132449500Y-57572475D01*
X132450494Y-57576185D01*
X132454684Y-57611228D01*
X132454354Y-57625102D01*
X132433081Y-57691654D01*
X132379207Y-57736139D01*
X132371392Y-57739486D01*
X132322574Y-57749500D01*
X129247216Y-57749500D01*
X129212280Y-57744477D01*
X129187038Y-57737065D01*
X129134292Y-57705768D01*
X129088030Y-57659505D01*
X129088014Y-57659490D01*
X129088006Y-57659485D01*
X129034243Y-57628445D01*
X129005808Y-57598624D01*
X128951007Y-57583939D01*
X128951007Y-57583940D01*
X128886740Y-57566720D01*
X128822475Y-57549500D01*
X128822474Y-57549500D01*
X128677525Y-57549500D01*
X128548994Y-57583939D01*
X128548993Y-57583940D01*
X128541338Y-57585991D01*
X128537510Y-57587017D01*
X128411991Y-57659485D01*
X128411984Y-57659490D01*
X128411968Y-57659505D01*
X128309505Y-57761968D01*
X128309490Y-57761984D01*
X128309485Y-57761992D01*
X128237017Y-57887509D01*
X128236989Y-57887578D01*
X128236748Y-57888511D01*
X128199500Y-58027525D01*
X128199500Y-58172479D01*
X128200669Y-58176840D01*
X128204856Y-58211871D01*
X128204526Y-58225746D01*
X128183253Y-58292299D01*
X128129377Y-58336785D01*
X128123962Y-58339104D01*
X128074414Y-58349115D01*
X128034936Y-58348881D01*
X128029104Y-58349500D01*
X127927525Y-58349500D01*
X127798994Y-58383939D01*
X127798993Y-58383940D01*
X127791338Y-58385991D01*
X127787510Y-58387017D01*
X127661991Y-58459485D01*
X127661984Y-58459490D01*
X127661968Y-58459505D01*
X127559505Y-58561968D01*
X127559490Y-58561984D01*
X127559485Y-58561992D01*
X127487017Y-58687509D01*
X127486989Y-58687578D01*
X127486748Y-58688511D01*
X127449500Y-58827525D01*
X127449500Y-58972479D01*
X127450669Y-58976840D01*
X127454856Y-59011871D01*
X127454526Y-59025746D01*
X127433253Y-59092299D01*
X127379377Y-59136785D01*
X127373962Y-59139104D01*
X127324414Y-59149115D01*
X127284936Y-59148881D01*
X127279104Y-59149500D01*
X127177525Y-59149500D01*
X127048994Y-59183939D01*
X127048993Y-59183940D01*
X127041338Y-59185991D01*
X127037510Y-59187017D01*
X126911991Y-59259485D01*
X126911984Y-59259490D01*
X126911968Y-59259505D01*
X126809505Y-59361968D01*
X126809490Y-59361984D01*
X126809485Y-59361992D01*
X126737017Y-59487509D01*
X126736989Y-59487578D01*
X126736748Y-59488511D01*
X126699500Y-59627525D01*
X126699500Y-59772474D01*
X126737013Y-59912477D01*
X126737017Y-59912488D01*
X126737018Y-59912490D01*
X126807120Y-60033911D01*
X126808565Y-60036484D01*
X126823258Y-60063392D01*
X126838110Y-60131665D01*
X126813693Y-60197129D01*
X126757765Y-60238999D01*
X126750578Y-60241680D01*
X126707239Y-60249500D01*
X125247216Y-60249500D01*
X125212280Y-60244477D01*
X125187038Y-60237065D01*
X125134292Y-60205768D01*
X125088030Y-60159505D01*
X125088014Y-60159490D01*
X125088006Y-60159485D01*
X125034243Y-60128445D01*
X125005808Y-60098624D01*
X124951007Y-60083939D01*
X124951007Y-60083940D01*
X124874320Y-60063392D01*
X124822475Y-60049500D01*
X124822474Y-60049500D01*
X124677525Y-60049500D01*
X124548994Y-60083939D01*
X124548993Y-60083940D01*
X124541338Y-60085991D01*
X124537510Y-60087017D01*
X124411991Y-60159485D01*
X124411984Y-60159490D01*
X124411968Y-60159505D01*
X124309505Y-60261968D01*
X124309490Y-60261984D01*
X124309485Y-60261992D01*
X124237017Y-60387509D01*
X124236989Y-60387578D01*
X124236748Y-60388511D01*
X124199500Y-60527525D01*
X124199500Y-60672474D01*
X124237013Y-60812477D01*
X124237017Y-60812488D01*
X124237018Y-60812489D01*
X124307635Y-60934802D01*
X124309123Y-60937568D01*
X124309353Y-60937877D01*
X124411985Y-61040509D01*
X124412674Y-61041005D01*
X124415178Y-61042353D01*
X124534069Y-61110995D01*
X124537087Y-61112869D01*
X124537514Y-61112983D01*
X124537515Y-61112984D01*
X124677525Y-61150500D01*
X124677528Y-61150500D01*
X124822472Y-61150500D01*
X124822475Y-61150500D01*
X124962485Y-61112984D01*
X125088015Y-61040509D01*
X125129099Y-60999424D01*
X125157350Y-60978275D01*
X125180442Y-60965667D01*
X125239867Y-60950500D01*
X125844299Y-60950500D01*
X125879231Y-60955521D01*
X125892550Y-60959432D01*
X125951328Y-60997206D01*
X125980354Y-61060761D01*
X125980355Y-61060772D01*
X125981564Y-61069185D01*
X125978600Y-61118915D01*
X125949500Y-61227523D01*
X125949500Y-61372474D01*
X125987013Y-61512477D01*
X125987017Y-61512488D01*
X125987018Y-61512489D01*
X126057635Y-61634802D01*
X126059123Y-61637568D01*
X126059353Y-61637877D01*
X126161985Y-61740509D01*
X126162674Y-61741005D01*
X126165178Y-61742353D01*
X126284069Y-61810995D01*
X126287087Y-61812869D01*
X126287514Y-61812983D01*
X126287515Y-61812984D01*
X126427525Y-61850500D01*
X126427528Y-61850500D01*
X126572472Y-61850500D01*
X126572475Y-61850500D01*
X126712485Y-61812984D01*
X126838015Y-61740509D01*
X126879099Y-61699424D01*
X126907350Y-61678275D01*
X126930442Y-61665667D01*
X126989867Y-61650500D01*
X131844299Y-61650500D01*
X131879231Y-61655521D01*
X131892550Y-61659432D01*
X131951328Y-61697206D01*
X131980354Y-61760761D01*
X131980355Y-61760772D01*
X131981564Y-61769185D01*
X131978600Y-61818915D01*
X131949500Y-61927523D01*
X131949500Y-61927525D01*
X131949500Y-62072475D01*
X131974980Y-62167566D01*
X131974979Y-62167566D01*
X131987016Y-62212486D01*
X131987018Y-62212491D01*
X132057121Y-62333912D01*
X132058567Y-62336486D01*
X132073259Y-62363393D01*
X132088110Y-62431666D01*
X132063692Y-62497130D01*
X132007765Y-62538999D01*
X132000578Y-62541680D01*
X131957239Y-62549500D01*
X127747216Y-62549500D01*
X127712280Y-62544477D01*
X127687038Y-62537065D01*
X127634292Y-62505768D01*
X127588030Y-62459505D01*
X127588014Y-62459490D01*
X127588006Y-62459485D01*
X127534243Y-62428445D01*
X127505808Y-62398624D01*
X127451007Y-62383939D01*
X127451007Y-62383940D01*
X127374324Y-62363393D01*
X127322475Y-62349500D01*
X127322474Y-62349500D01*
X127177525Y-62349500D01*
X127048994Y-62383939D01*
X127048993Y-62383940D01*
X127041338Y-62385991D01*
X127037510Y-62387017D01*
X126911991Y-62459485D01*
X126911984Y-62459490D01*
X126911968Y-62459505D01*
X126809505Y-62561968D01*
X126809490Y-62561984D01*
X126809485Y-62561992D01*
X126737017Y-62687509D01*
X126736989Y-62687578D01*
X126736748Y-62688511D01*
X126699500Y-62827525D01*
X126699500Y-62972475D01*
X126731073Y-63090304D01*
X126731073Y-63090306D01*
X126737015Y-63112485D01*
X126737016Y-63112486D01*
X126807635Y-63234802D01*
X126809123Y-63237568D01*
X126809353Y-63237877D01*
X126911985Y-63340509D01*
X126912674Y-63341005D01*
X126915178Y-63342353D01*
X127034069Y-63410995D01*
X127037087Y-63412869D01*
X127037514Y-63412983D01*
X127037515Y-63412984D01*
X127177525Y-63450500D01*
X127177528Y-63450500D01*
X127322472Y-63450500D01*
X127322475Y-63450500D01*
X127462485Y-63412984D01*
X127588015Y-63340509D01*
X127629099Y-63299424D01*
X127657350Y-63278275D01*
X127680442Y-63265667D01*
X127739867Y-63250500D01*
X129920120Y-63250500D01*
X129955052Y-63255521D01*
X129968371Y-63259432D01*
X130027149Y-63297206D01*
X130056175Y-63360761D01*
X130056177Y-63360778D01*
X130056408Y-63362386D01*
X130050852Y-63420564D01*
X130049214Y-63425298D01*
X130039417Y-63446752D01*
X129987018Y-63537509D01*
X129986990Y-63537577D01*
X129986748Y-63538513D01*
X129949500Y-63677525D01*
X129949500Y-63735626D01*
X129944476Y-63770563D01*
X129937064Y-63795804D01*
X129905769Y-63848548D01*
X129857032Y-63897284D01*
X129857026Y-63897293D01*
X129819676Y-63961986D01*
X129819671Y-63961995D01*
X129812876Y-63973762D01*
X129811029Y-63976734D01*
X129807084Y-63989765D01*
X129806661Y-63992980D01*
X129787000Y-64066356D01*
X129787000Y-64656571D01*
X129781975Y-64691515D01*
X129777570Y-64706513D01*
X129739803Y-64765278D01*
X129730740Y-64773132D01*
X129692867Y-64795604D01*
X129601225Y-64829786D01*
X129601215Y-64829791D01*
X129488887Y-64913881D01*
X129488878Y-64913890D01*
X129404792Y-65026213D01*
X129404786Y-65026224D01*
X129355748Y-65157696D01*
X129355747Y-65157702D01*
X129349500Y-65215800D01*
X129349500Y-65784198D01*
X129355747Y-65842296D01*
X129394854Y-65947143D01*
X129394854Y-65947146D01*
X129404788Y-65973778D01*
X129488884Y-66086116D01*
X129601222Y-66170212D01*
X129601221Y-66170212D01*
X129693591Y-66204665D01*
X129693592Y-66204665D01*
X129726700Y-66217013D01*
X129732700Y-66219251D01*
X129790792Y-66225497D01*
X129790798Y-66225498D01*
X129790803Y-66225498D01*
X129790809Y-66225499D01*
X129790826Y-66225500D01*
X130484174Y-66225500D01*
X130484182Y-66225500D01*
X130484193Y-66225499D01*
X130509093Y-66222821D01*
X130542299Y-66219251D01*
X130560439Y-66212485D01*
X130673778Y-66170212D01*
X130786116Y-66086116D01*
X130870212Y-65973778D01*
X130919251Y-65842299D01*
X130922035Y-65816407D01*
X130925499Y-65784190D01*
X130925500Y-65784173D01*
X130925500Y-65215826D01*
X130925499Y-65215809D01*
X130919251Y-65157700D01*
X130885008Y-65065892D01*
X130873921Y-65036167D01*
X130870213Y-65026224D01*
X130870212Y-65026222D01*
X130870205Y-65026213D01*
X130786116Y-64913884D01*
X130673778Y-64829788D01*
X130673777Y-64829787D01*
X130673775Y-64829786D01*
X130665271Y-64826615D01*
X130665271Y-64826614D01*
X130665265Y-64826613D01*
X130665262Y-64826612D01*
X130629723Y-64813356D01*
X130585369Y-64796812D01*
X130571179Y-64786189D01*
X130554393Y-64779898D01*
X130541879Y-64770530D01*
X130531193Y-64756255D01*
X130529436Y-64754940D01*
X130528668Y-64752882D01*
X130500008Y-64714596D01*
X130500007Y-64714593D01*
X130495817Y-64703358D01*
X130488000Y-64660028D01*
X130488000Y-64436112D01*
X130493023Y-64401176D01*
X130497427Y-64386178D01*
X130503152Y-64377268D01*
X130503358Y-64376338D01*
X130504444Y-64375258D01*
X130535197Y-64327405D01*
X130541898Y-64321598D01*
X130591010Y-64295532D01*
X130712485Y-64262984D01*
X130838015Y-64190509D01*
X130929103Y-64099420D01*
X130957350Y-64078275D01*
X130980442Y-64065667D01*
X131039867Y-64050500D01*
X136967504Y-64050500D01*
X137002436Y-64055521D01*
X137015755Y-64059432D01*
X137074533Y-64097206D01*
X137103558Y-64160759D01*
X137104768Y-64169173D01*
X137101807Y-64218913D01*
X137099500Y-64227520D01*
X137099500Y-64227525D01*
X137099500Y-64372475D01*
X137103172Y-64386178D01*
X137127764Y-64477959D01*
X137137015Y-64512484D01*
X137137018Y-64512491D01*
X137209485Y-64638006D01*
X137209490Y-64638014D01*
X137209505Y-64638030D01*
X137255340Y-64683864D01*
X137276495Y-64712125D01*
X137283146Y-64724307D01*
X137297995Y-64792581D01*
X137273579Y-64858038D01*
X137265263Y-64869147D01*
X137240307Y-64894103D01*
X137213883Y-64913884D01*
X137129789Y-65026218D01*
X137129786Y-65026224D01*
X137080748Y-65157696D01*
X137080747Y-65157702D01*
X137074500Y-65215800D01*
X137074500Y-65784198D01*
X137080747Y-65842296D01*
X137119854Y-65947143D01*
X137119854Y-65947146D01*
X137129788Y-65973778D01*
X137213884Y-66086116D01*
X137326222Y-66170212D01*
X137326221Y-66170212D01*
X137418591Y-66204665D01*
X137418592Y-66204665D01*
X137451700Y-66217013D01*
X137457700Y-66219251D01*
X137515792Y-66225497D01*
X137515798Y-66225498D01*
X137515803Y-66225498D01*
X137515809Y-66225499D01*
X137515826Y-66225500D01*
X138209174Y-66225500D01*
X138209182Y-66225500D01*
X138209193Y-66225499D01*
X138234093Y-66222821D01*
X138267299Y-66219251D01*
X138285439Y-66212485D01*
X138398778Y-66170212D01*
X138511116Y-66086116D01*
X138595212Y-65973778D01*
X138644251Y-65842299D01*
X138647035Y-65816407D01*
X138650499Y-65784190D01*
X138650500Y-65784173D01*
X138650500Y-65215826D01*
X138650499Y-65215809D01*
X138644251Y-65157700D01*
X138610008Y-65065892D01*
X138598921Y-65036167D01*
X138595213Y-65026224D01*
X138595211Y-65026221D01*
X138569703Y-64992147D01*
X138511116Y-64913884D01*
X138492571Y-64900001D01*
X138492568Y-64899997D01*
X138492567Y-64899998D01*
X138471795Y-64884448D01*
X138446844Y-64859496D01*
X138440066Y-64850442D01*
X138415648Y-64784978D01*
X138430499Y-64716705D01*
X138479901Y-64667300D01*
X138482906Y-64665659D01*
X138542318Y-64650500D01*
X139085626Y-64650500D01*
X139120558Y-64655521D01*
X139145802Y-64662934D01*
X139198548Y-64694230D01*
X139284788Y-64780470D01*
X139285479Y-64780968D01*
X139287999Y-64782324D01*
X139305944Y-64792684D01*
X139305946Y-64792686D01*
X139305947Y-64792686D01*
X139364712Y-64826614D01*
X139453856Y-64850500D01*
X139453857Y-64850500D01*
X139546144Y-64850500D01*
X142836626Y-64850500D01*
X142871553Y-64855521D01*
X142882406Y-64858707D01*
X142941187Y-64896477D01*
X142970216Y-64960031D01*
X142960277Y-65029190D01*
X142960276Y-65029192D01*
X142957091Y-65036167D01*
X142931975Y-65072342D01*
X141153744Y-66850573D01*
X141125493Y-66871722D01*
X141102405Y-66884330D01*
X141042975Y-66899500D01*
X130497216Y-66899500D01*
X130462280Y-66894477D01*
X130437038Y-66887065D01*
X130384292Y-66855768D01*
X130338030Y-66809505D01*
X130338014Y-66809490D01*
X130338006Y-66809485D01*
X130284243Y-66778445D01*
X130255808Y-66748624D01*
X130201007Y-66733939D01*
X130201007Y-66733940D01*
X130082454Y-66702174D01*
X130072475Y-66699500D01*
X130072474Y-66699500D01*
X129927525Y-66699500D01*
X129798994Y-66733939D01*
X129798993Y-66733940D01*
X129791338Y-66735991D01*
X129787510Y-66737017D01*
X129661991Y-66809485D01*
X129661984Y-66809490D01*
X129661968Y-66809505D01*
X129559505Y-66911968D01*
X129559490Y-66911984D01*
X129559485Y-66911992D01*
X129487017Y-67037509D01*
X129486989Y-67037578D01*
X129486748Y-67038511D01*
X129454438Y-67159095D01*
X129448055Y-67177184D01*
X129437909Y-67200110D01*
X129392778Y-67253448D01*
X129325974Y-67273919D01*
X129261872Y-67256940D01*
X129253313Y-67251929D01*
X129228283Y-67232602D01*
X126304573Y-64308892D01*
X123149426Y-61153744D01*
X123128274Y-61125488D01*
X123115667Y-61102399D01*
X123100500Y-61042974D01*
X123100500Y-53433525D01*
X125205500Y-53433525D01*
X125205500Y-53440925D01*
X125205500Y-53578474D01*
X125243013Y-53718477D01*
X125243016Y-53718485D01*
X125243017Y-53718488D01*
X125280940Y-53784173D01*
X125313635Y-53840802D01*
X125315123Y-53843568D01*
X125315353Y-53843877D01*
X125417985Y-53946509D01*
X125418674Y-53947005D01*
X125421178Y-53948353D01*
X125540069Y-54016995D01*
X125543087Y-54018869D01*
X125543514Y-54018983D01*
X125543515Y-54018984D01*
X125683525Y-54056500D01*
X125683528Y-54056500D01*
X125828472Y-54056500D01*
X125828475Y-54056500D01*
X125968485Y-54018984D01*
X126094015Y-53946509D01*
X126141099Y-53899424D01*
X126169350Y-53878275D01*
X126192442Y-53865667D01*
X126251867Y-53850500D01*
X129254883Y-53850500D01*
X129289819Y-53855523D01*
X129304817Y-53859927D01*
X129363590Y-53897697D01*
X129371443Y-53906759D01*
X129393916Y-53944632D01*
X129404784Y-53973771D01*
X129404787Y-53973777D01*
X129408931Y-53979526D01*
X129410099Y-53980874D01*
X129473952Y-54066170D01*
X129488884Y-54086116D01*
X129601222Y-54170212D01*
X129601221Y-54170212D01*
X129693591Y-54204665D01*
X129693592Y-54204665D01*
X129726700Y-54217013D01*
X129732700Y-54219251D01*
X129790792Y-54225497D01*
X129790798Y-54225498D01*
X129790803Y-54225498D01*
X129790809Y-54225499D01*
X129790826Y-54225500D01*
X130484174Y-54225500D01*
X130484182Y-54225500D01*
X130484193Y-54225499D01*
X130509093Y-54222821D01*
X130542299Y-54219251D01*
X130673778Y-54170212D01*
X130786116Y-54086116D01*
X130870212Y-53973778D01*
X130919251Y-53842299D01*
X130920937Y-53826614D01*
X130925499Y-53784190D01*
X130925500Y-53784173D01*
X130925500Y-53215826D01*
X130925499Y-53215809D01*
X130919251Y-53157700D01*
X130889155Y-53077011D01*
X130886104Y-53068832D01*
X130870213Y-53026224D01*
X130870212Y-53026222D01*
X130843051Y-52989940D01*
X130786116Y-52913884D01*
X130718612Y-52863351D01*
X130718611Y-52863350D01*
X130673786Y-52829793D01*
X130673782Y-52829791D01*
X130673780Y-52829789D01*
X130673778Y-52829788D01*
X130673777Y-52829787D01*
X130673776Y-52829787D01*
X130673772Y-52829785D01*
X130647148Y-52819854D01*
X130647144Y-52819854D01*
X130542299Y-52780748D01*
X130542297Y-52780747D01*
X130542296Y-52780747D01*
X130484198Y-52774500D01*
X130484190Y-52774500D01*
X130484174Y-52774500D01*
X129790826Y-52774500D01*
X129790809Y-52774500D01*
X129790800Y-52774500D01*
X129732702Y-52780747D01*
X129732696Y-52780748D01*
X129601224Y-52829786D01*
X129601213Y-52829792D01*
X129488885Y-52913881D01*
X129404785Y-53026224D01*
X129404780Y-53026236D01*
X129395123Y-53052129D01*
X129378211Y-53083101D01*
X129368843Y-53095616D01*
X129312916Y-53137488D01*
X129309124Y-53138902D01*
X129301679Y-53141679D01*
X129258340Y-53149500D01*
X126247216Y-53149500D01*
X126212280Y-53144477D01*
X126187038Y-53137065D01*
X126134292Y-53105768D01*
X126094030Y-53065505D01*
X126094014Y-53065490D01*
X126094006Y-53065485D01*
X126045670Y-53037578D01*
X126040242Y-53034444D01*
X126011808Y-53004624D01*
X125957007Y-52989939D01*
X125957007Y-52989940D01*
X125892740Y-52972720D01*
X125828475Y-52955500D01*
X125828474Y-52955500D01*
X125683525Y-52955500D01*
X125554994Y-52989939D01*
X125554993Y-52989940D01*
X125547338Y-52991991D01*
X125543510Y-52993017D01*
X125417991Y-53065485D01*
X125417984Y-53065490D01*
X125417968Y-53065505D01*
X125315505Y-53167968D01*
X125315490Y-53167984D01*
X125315485Y-53167992D01*
X125243017Y-53293509D01*
X125243004Y-53293541D01*
X125242909Y-53293914D01*
X125205500Y-53433525D01*
X123100500Y-53433525D01*
X123100500Y-49997215D01*
X123105522Y-49962282D01*
X123112934Y-49937037D01*
X123144229Y-49884294D01*
X123190509Y-49838015D01*
X123262984Y-49712485D01*
X123300500Y-49572475D01*
X123300500Y-49427525D01*
X123262984Y-49287515D01*
X123262370Y-49286452D01*
X123190511Y-49161988D01*
X123190506Y-49161982D01*
X123087877Y-49059353D01*
X123087568Y-49059123D01*
X123084802Y-49057635D01*
X123034242Y-49028444D01*
X123005808Y-48998624D01*
X122934828Y-48979605D01*
X122878651Y-48964552D01*
X122822475Y-48949500D01*
X122822474Y-48949500D01*
X122677525Y-48949500D01*
X122565172Y-48979605D01*
X122565171Y-48979604D01*
X122537512Y-48987016D01*
X122537507Y-48987018D01*
X122411992Y-49059485D01*
X122411984Y-49059490D01*
X122411968Y-49059505D01*
X122309505Y-49161968D01*
X122309490Y-49161984D01*
X122309485Y-49161992D01*
X122237017Y-49287509D01*
X122236990Y-49287577D01*
X122236748Y-49288512D01*
X122205250Y-49406062D01*
X122191357Y-49438505D01*
X122183223Y-49451850D01*
X122131523Y-49498849D01*
X122131518Y-49498852D01*
X122123532Y-49502731D01*
X122085547Y-49514130D01*
X122077530Y-49515185D01*
X121948994Y-49549626D01*
X121948993Y-49549627D01*
X121941338Y-49551678D01*
X121937510Y-49552704D01*
X121811991Y-49625172D01*
X121811984Y-49625177D01*
X121811968Y-49625192D01*
X121709505Y-49727655D01*
X121709490Y-49727671D01*
X121709485Y-49727679D01*
X121637018Y-49853193D01*
X121600740Y-49988584D01*
X121594366Y-50006652D01*
X121585619Y-50026426D01*
X121540497Y-50079771D01*
X121535411Y-50083126D01*
X121485505Y-50102249D01*
X121459594Y-50106130D01*
X121455905Y-50108880D01*
X121444931Y-50112374D01*
X121337512Y-50141158D01*
X121337507Y-50141160D01*
X121211992Y-50213627D01*
X121211984Y-50213632D01*
X121211968Y-50213647D01*
X121109505Y-50316110D01*
X121109490Y-50316126D01*
X121109485Y-50316134D01*
X121037018Y-50441648D01*
X121010171Y-50541843D01*
X121008082Y-50545268D01*
X121008352Y-50545348D01*
X120990072Y-50607604D01*
X120952298Y-50666382D01*
X120952288Y-50666390D01*
X120950919Y-50667576D01*
X120896084Y-50695021D01*
X120857450Y-50703425D01*
X120856597Y-50704105D01*
X120841916Y-50709040D01*
X120737512Y-50737016D01*
X120737507Y-50737018D01*
X120611992Y-50809485D01*
X120611984Y-50809490D01*
X120611968Y-50809505D01*
X120509505Y-50911968D01*
X120509490Y-50911984D01*
X120509485Y-50911992D01*
X120437018Y-51037507D01*
X120437016Y-51037512D01*
X120410256Y-51137379D01*
X120407955Y-51141153D01*
X120408006Y-51141168D01*
X120390072Y-51202242D01*
X120352327Y-51260992D01*
X120350958Y-51262179D01*
X120296084Y-51289658D01*
X120257450Y-51298062D01*
X120256597Y-51298742D01*
X120241916Y-51303677D01*
X120137512Y-51331653D01*
X120137507Y-51331655D01*
X120011992Y-51404122D01*
X120011984Y-51404127D01*
X120011968Y-51404142D01*
X119909505Y-51506605D01*
X119909490Y-51506621D01*
X119909485Y-51506629D01*
X119837018Y-51632146D01*
X119837017Y-51632148D01*
X119836822Y-51632876D01*
X119836743Y-51633059D01*
X119836486Y-51633917D01*
X119836432Y-51633900D01*
X119836426Y-51633920D01*
X119836381Y-51633905D01*
X119822931Y-51665310D01*
X119814796Y-51678656D01*
X119763107Y-51725648D01*
X119755132Y-51729523D01*
X119700940Y-51741992D01*
X119614630Y-51741992D01*
X119486099Y-51776431D01*
X119486098Y-51776432D01*
X119478443Y-51778483D01*
X119474615Y-51779509D01*
X119349096Y-51851977D01*
X119349089Y-51851982D01*
X119349073Y-51851997D01*
X119246610Y-51954460D01*
X119246595Y-51954476D01*
X119246590Y-51954484D01*
X119174126Y-52079994D01*
X119174121Y-52080004D01*
X119174118Y-52080012D01*
X119174116Y-52080018D01*
X119171340Y-52090378D01*
X119157448Y-52122819D01*
X119149314Y-52136164D01*
X119097614Y-52183162D01*
X119089637Y-52187037D01*
X119035459Y-52199500D01*
X118927525Y-52199500D01*
X118798994Y-52233939D01*
X118798993Y-52233940D01*
X118791338Y-52235991D01*
X118787510Y-52237017D01*
X118661991Y-52309485D01*
X118661984Y-52309490D01*
X118661968Y-52309505D01*
X118559505Y-52411968D01*
X118559490Y-52411984D01*
X118559485Y-52411992D01*
X118487018Y-52537507D01*
X118487017Y-52537510D01*
X118472204Y-52592789D01*
X118458312Y-52625230D01*
X118450175Y-52638580D01*
X118398485Y-52685574D01*
X118396855Y-52686366D01*
X118336771Y-52698695D01*
X118303267Y-52697101D01*
X118299990Y-52698529D01*
X118284501Y-52699500D01*
X118177525Y-52699500D01*
X118050501Y-52733536D01*
X118050500Y-52733535D01*
X118037512Y-52737016D01*
X118037507Y-52737018D01*
X117911992Y-52809485D01*
X117911984Y-52809490D01*
X117911968Y-52809505D01*
X117809505Y-52911968D01*
X117809490Y-52911984D01*
X117809485Y-52911992D01*
X117737017Y-53037509D01*
X117736989Y-53037578D01*
X117736748Y-53038511D01*
X117699500Y-53177525D01*
X117699500Y-53322474D01*
X117729255Y-53433523D01*
X117737016Y-53462486D01*
X117737018Y-53462491D01*
X117809485Y-53588006D01*
X117809490Y-53588014D01*
X117809505Y-53588030D01*
X117850573Y-53629097D01*
X117871725Y-53657352D01*
X117884332Y-53680440D01*
X117899500Y-53739867D01*
X117899500Y-64796150D01*
X117919405Y-64870440D01*
X117919407Y-64870443D01*
X117923385Y-64885288D01*
X117931548Y-64899427D01*
X117969523Y-64965202D01*
X117969527Y-64965208D01*
X117969529Y-64965211D01*
X117969530Y-64965212D01*
X126784788Y-73780470D01*
X126864712Y-73826614D01*
X126953856Y-73850500D01*
X126953857Y-73850500D01*
X127046144Y-73850500D01*
X142502783Y-73850500D01*
X142537715Y-73855521D01*
X142562959Y-73862934D01*
X142615705Y-73894230D01*
X143004294Y-74282819D01*
X143037779Y-74344142D01*
X143032795Y-74413834D01*
X142990923Y-74469767D01*
X142925459Y-74494184D01*
X142916613Y-74494500D01*
X124624500Y-74494500D01*
X124557461Y-74474815D01*
X124511706Y-74422011D01*
X124500500Y-74370500D01*
X124500500Y-72934110D01*
X124500500Y-72934108D01*
X124476540Y-72844689D01*
X124466392Y-72806814D01*
X124400499Y-72692685D01*
X116549426Y-64841612D01*
X116528274Y-64813356D01*
X116515667Y-64790267D01*
X116500500Y-64730842D01*
X116500500Y-45892329D01*
X116505523Y-45857393D01*
X116509927Y-45842395D01*
X116547672Y-45783644D01*
X116549041Y-45782457D01*
X116603920Y-45754977D01*
X116611479Y-45753333D01*
X116637832Y-45750500D01*
X118528796Y-45750500D01*
X118536648Y-45748117D01*
X118597740Y-45735966D01*
X118680601Y-45680601D01*
X118735966Y-45597740D01*
X118750500Y-45524674D01*
X118750500Y-43475326D01*
X118750500Y-43475323D01*
X118750500Y-43475139D01*
X118750064Y-43473134D01*
X118735972Y-43402289D01*
X118735971Y-43402287D01*
X118735967Y-43402264D01*
X118735966Y-43402260D01*
X118735965Y-43402258D01*
X118735964Y-43402256D01*
X118680601Y-43319399D01*
X118607891Y-43270816D01*
X118603826Y-43267480D01*
X118597739Y-43264033D01*
X118597735Y-43264032D01*
X118597709Y-43264026D01*
X118524680Y-43249500D01*
X118524677Y-43249500D01*
X118524674Y-43249500D01*
X117992330Y-43249500D01*
X117957389Y-43244475D01*
X117942390Y-43240070D01*
X117883644Y-43202327D01*
X117882457Y-43200958D01*
X117854977Y-43146083D01*
X117853332Y-43138521D01*
X117850500Y-43112168D01*
X117850500Y-42126872D01*
X117855522Y-42091939D01*
X117862934Y-42066694D01*
X117894228Y-42013952D01*
X118158757Y-41749422D01*
X118187011Y-41728273D01*
X118189323Y-41727011D01*
X118196700Y-41722983D01*
X118210101Y-41715666D01*
X118269524Y-41700500D01*
X118784182Y-41700500D01*
X118784193Y-41700499D01*
X118809093Y-41697821D01*
X118842299Y-41694251D01*
X118973778Y-41645212D01*
X119086116Y-41561116D01*
X119170212Y-41448778D01*
X119170550Y-41447869D01*
X119187463Y-41416895D01*
X119187963Y-41416227D01*
X119196829Y-41404382D01*
X119252755Y-41362512D01*
X119264009Y-41358315D01*
X119307335Y-41350500D01*
X121476667Y-41350500D01*
X121511601Y-41355523D01*
G37*
%TD.AperFunction*%
%TA.AperFunction,Conductor*%
G36*
X143111373Y-66040238D02*
G01*
X143111391Y-66040251D01*
X143112693Y-66041226D01*
X143149906Y-66086307D01*
X143152095Y-66090814D01*
X143160329Y-66112893D01*
X143175688Y-66170210D01*
X143175688Y-66170211D01*
X143175689Y-66170213D01*
X143187017Y-66212488D01*
X143259488Y-66338011D01*
X143259489Y-66338012D01*
X143259492Y-66338017D01*
X143271188Y-66349713D01*
X143277145Y-66360623D01*
X143292339Y-66377967D01*
X143299829Y-66391684D01*
X143303622Y-66409111D01*
X143304673Y-66411036D01*
X143304516Y-66413221D01*
X143314683Y-66459931D01*
X143314554Y-66461740D01*
X143295185Y-66519958D01*
X143291004Y-66526464D01*
X143274370Y-66547105D01*
X143259491Y-66561984D01*
X143259485Y-66561991D01*
X143236376Y-66602018D01*
X143236369Y-66602030D01*
X143187017Y-66687511D01*
X143187016Y-66687515D01*
X143183090Y-66702166D01*
X143183086Y-66702174D01*
X143149500Y-66827525D01*
X143149500Y-66972475D01*
X143161118Y-67015832D01*
X143166927Y-67037512D01*
X143166926Y-67037512D01*
X143187016Y-67112487D01*
X143187018Y-67112491D01*
X143257635Y-67234802D01*
X143259123Y-67237568D01*
X143259353Y-67237877D01*
X143361985Y-67340509D01*
X143362674Y-67341005D01*
X143365178Y-67342353D01*
X143484069Y-67410995D01*
X143487087Y-67412869D01*
X143487514Y-67412983D01*
X143487515Y-67412984D01*
X143627525Y-67450500D01*
X143627528Y-67450500D01*
X143772472Y-67450500D01*
X143772475Y-67450500D01*
X143896727Y-67417206D01*
X143904692Y-67416210D01*
X143904974Y-67416094D01*
X143912690Y-67413474D01*
X143919994Y-67409873D01*
X143920093Y-67409831D01*
X143926619Y-67404823D01*
X143947644Y-67392684D01*
X143981240Y-67379369D01*
X143981325Y-67379349D01*
X144051091Y-67383156D01*
X144075368Y-67400698D01*
X144136301Y-67410348D01*
X144145855Y-67412249D01*
X144145865Y-67412251D01*
X144150737Y-67412634D01*
X144181818Y-67417557D01*
X144231967Y-67425500D01*
X145357670Y-67425499D01*
X145392604Y-67430522D01*
X145407603Y-67434926D01*
X145466381Y-67472700D01*
X145466390Y-67472710D01*
X145467576Y-67474079D01*
X145495018Y-67528901D01*
X145496663Y-67536459D01*
X145499500Y-67562830D01*
X145499500Y-67832670D01*
X145494475Y-67867614D01*
X145490070Y-67882612D01*
X145452327Y-67941355D01*
X145450958Y-67942542D01*
X145396097Y-67970018D01*
X145388539Y-67971663D01*
X145362168Y-67974500D01*
X144208273Y-67974500D01*
X144199120Y-67979497D01*
X144192168Y-67980802D01*
X144150749Y-67987362D01*
X144145869Y-67987746D01*
X144141111Y-67988888D01*
X144031599Y-68044687D01*
X144031591Y-68044692D01*
X144031590Y-68044693D01*
X144031581Y-68044701D01*
X143975708Y-68100575D01*
X143947456Y-68121725D01*
X143924371Y-68134331D01*
X143864942Y-68149500D01*
X130214373Y-68149500D01*
X130179437Y-68144477D01*
X130154195Y-68137065D01*
X130101450Y-68105769D01*
X130018730Y-68023049D01*
X129997579Y-67994795D01*
X129991602Y-67983849D01*
X129976750Y-67915576D01*
X130001167Y-67850112D01*
X130053669Y-67809579D01*
X130075503Y-67800688D01*
X130090156Y-67795762D01*
X130212485Y-67762984D01*
X130338015Y-67690509D01*
X130379099Y-67649424D01*
X130407350Y-67628275D01*
X130430442Y-67615667D01*
X130489867Y-67600500D01*
X141296142Y-67600500D01*
X141296144Y-67600500D01*
X141385288Y-67576614D01*
X141395912Y-67570480D01*
X141465212Y-67530470D01*
X142937207Y-66058472D01*
X142965456Y-66037326D01*
X142967608Y-66036150D01*
X142977636Y-66030674D01*
X143045908Y-66015822D01*
X143111373Y-66040238D01*
G37*
%TD.AperFunction*%
%TA.AperFunction,Conductor*%
G36*
X144258426Y-15505521D02*
G01*
X144283670Y-15512934D01*
X144336416Y-15544230D01*
X146575573Y-17783387D01*
X146596723Y-17811639D01*
X146609331Y-17834728D01*
X146624500Y-17894157D01*
X146624500Y-34561626D01*
X146619476Y-34596564D01*
X146616289Y-34607417D01*
X146578514Y-34666194D01*
X146514957Y-34695217D01*
X146445807Y-34685276D01*
X146438829Y-34682089D01*
X146402657Y-34656975D01*
X145649426Y-33903744D01*
X145628274Y-33875488D01*
X145615667Y-33852399D01*
X145600500Y-33792974D01*
X145600500Y-32703858D01*
X145600500Y-32703856D01*
X145576614Y-32614712D01*
X145576531Y-32614569D01*
X145572295Y-32607232D01*
X145550310Y-32569152D01*
X145530472Y-32534791D01*
X145530470Y-32534788D01*
X145530465Y-32534783D01*
X145530459Y-32534776D01*
X144840221Y-31844538D01*
X144840214Y-31844532D01*
X144840208Y-31844527D01*
X144840203Y-31844523D01*
X144774425Y-31806547D01*
X144767896Y-31801537D01*
X144752682Y-31795235D01*
X144744520Y-31794161D01*
X144741967Y-31793477D01*
X144671144Y-31774500D01*
X144671143Y-31774500D01*
X144670885Y-31774500D01*
X144668090Y-31774098D01*
X144663084Y-31773439D01*
X144663091Y-31773379D01*
X144635950Y-31769477D01*
X144625096Y-31766290D01*
X144566318Y-31728516D01*
X144537293Y-31664960D01*
X144547236Y-31595803D01*
X144548217Y-31593656D01*
X144592109Y-31542088D01*
X144614260Y-31527288D01*
X144645431Y-31506460D01*
X144786460Y-31365431D01*
X144897266Y-31199599D01*
X144973590Y-31015335D01*
X145005378Y-30855527D01*
X145012500Y-30819725D01*
X145012500Y-30620274D01*
X145012500Y-30620271D01*
X144973351Y-30423463D01*
X144971269Y-30419062D01*
X144950740Y-30369500D01*
X144950707Y-30369421D01*
X144910099Y-30271383D01*
X144897269Y-30240407D01*
X144897262Y-30240394D01*
X144786460Y-30074569D01*
X144786457Y-30074565D01*
X144786452Y-30074559D01*
X144645439Y-29933546D01*
X144645433Y-29933541D01*
X144645432Y-29933540D01*
X144479611Y-29822741D01*
X144479610Y-29822740D01*
X144479605Y-29822737D01*
X144479592Y-29822730D01*
X144479585Y-29822726D01*
X144295361Y-29746419D01*
X144295347Y-29746414D01*
X144295339Y-29746411D01*
X144295329Y-29746408D01*
X144295326Y-29746407D01*
X144295322Y-29746406D01*
X144099728Y-29707500D01*
X144099725Y-29707500D01*
X144099723Y-29707500D01*
X143900277Y-29707500D01*
X143900275Y-29707500D01*
X143900271Y-29707500D01*
X143704676Y-29746406D01*
X143704670Y-29746408D01*
X143704660Y-29746411D01*
X143704655Y-29746412D01*
X143704637Y-29746419D01*
X143520413Y-29822726D01*
X143520404Y-29822731D01*
X143520387Y-29822741D01*
X143354566Y-29933540D01*
X143354565Y-29933541D01*
X143354559Y-29933546D01*
X143213546Y-30074559D01*
X143213541Y-30074565D01*
X143213540Y-30074566D01*
X143102734Y-30240397D01*
X143102730Y-30240407D01*
X143089901Y-30271381D01*
X143089897Y-30271390D01*
X143087785Y-30276488D01*
X143069779Y-30306834D01*
X143059972Y-30319004D01*
X143002586Y-30358851D01*
X142989666Y-30363152D01*
X142950500Y-30369500D01*
X142289584Y-30369500D01*
X142254649Y-30364477D01*
X142243795Y-30361290D01*
X142185017Y-30323516D01*
X142155992Y-30259960D01*
X142165935Y-30190803D01*
X142169125Y-30183820D01*
X142194234Y-30147658D01*
X142246458Y-30095434D01*
X142246460Y-30095431D01*
X142357266Y-29929599D01*
X142359461Y-29924301D01*
X142406392Y-29810998D01*
X142433590Y-29745335D01*
X142463331Y-29595819D01*
X142472500Y-29549725D01*
X142472500Y-29350271D01*
X142433351Y-29153463D01*
X142431269Y-29149062D01*
X142410740Y-29099500D01*
X142410707Y-29099421D01*
X142370099Y-29001383D01*
X142357269Y-28970407D01*
X142357262Y-28970394D01*
X142246460Y-28804569D01*
X142246457Y-28804565D01*
X142246453Y-28804560D01*
X142196680Y-28754788D01*
X142175529Y-28726535D01*
X142170107Y-28716605D01*
X142155256Y-28648334D01*
X142179673Y-28582870D01*
X142235602Y-28541000D01*
X142239479Y-28539554D01*
X142242815Y-28538311D01*
X142286129Y-28530500D01*
X142948576Y-28530500D01*
X142983512Y-28535523D01*
X142998510Y-28539927D01*
X143057287Y-28577701D01*
X143066206Y-28587994D01*
X143087055Y-28621747D01*
X143102732Y-28659597D01*
X143102732Y-28659598D01*
X143213540Y-28825432D01*
X143213541Y-28825433D01*
X143213546Y-28825439D01*
X143354559Y-28966452D01*
X143354565Y-28966457D01*
X143354569Y-28966460D01*
X143520394Y-29077262D01*
X143520407Y-29077269D01*
X143699065Y-29151270D01*
X143703488Y-29153362D01*
X143704227Y-29153505D01*
X143704970Y-29153651D01*
X143900271Y-29192500D01*
X144099725Y-29192500D01*
X144099726Y-29192500D01*
X144126044Y-29187264D01*
X144231324Y-29166322D01*
X144231325Y-29166322D01*
X144244196Y-29163761D01*
X144295335Y-29153590D01*
X144479599Y-29077266D01*
X144645431Y-28966460D01*
X144786460Y-28825431D01*
X144897266Y-28659599D01*
X144973590Y-28475335D01*
X144973591Y-28475329D01*
X144973592Y-28475327D01*
X144998525Y-28349980D01*
X144998525Y-28349978D01*
X145012500Y-28279726D01*
X145012500Y-28080271D01*
X144973352Y-27883465D01*
X144971273Y-27879072D01*
X144897269Y-27700407D01*
X144897262Y-27700394D01*
X144786460Y-27534569D01*
X144786457Y-27534565D01*
X144786452Y-27534559D01*
X144645439Y-27393546D01*
X144645433Y-27393541D01*
X144645432Y-27393540D01*
X144479611Y-27282741D01*
X144479610Y-27282740D01*
X144479605Y-27282737D01*
X144479592Y-27282730D01*
X144479585Y-27282726D01*
X144295361Y-27206419D01*
X144295347Y-27206414D01*
X144295339Y-27206411D01*
X144295329Y-27206408D01*
X144295326Y-27206407D01*
X144295322Y-27206406D01*
X144099728Y-27167500D01*
X144099725Y-27167500D01*
X144099723Y-27167500D01*
X143900277Y-27167500D01*
X143900275Y-27167500D01*
X143900271Y-27167500D01*
X143704676Y-27206406D01*
X143704670Y-27206408D01*
X143704660Y-27206411D01*
X143704655Y-27206412D01*
X143704637Y-27206419D01*
X143520413Y-27282726D01*
X143520404Y-27282731D01*
X143520387Y-27282741D01*
X143354566Y-27393540D01*
X143354565Y-27393541D01*
X143354559Y-27393546D01*
X143213546Y-27534559D01*
X143213541Y-27534565D01*
X143213540Y-27534566D01*
X143102734Y-27700397D01*
X143102730Y-27700407D01*
X143089901Y-27731381D01*
X143089897Y-27731390D01*
X143087785Y-27736488D01*
X143069779Y-27766834D01*
X143059972Y-27779004D01*
X143002586Y-27818851D01*
X142989666Y-27823152D01*
X142950500Y-27829500D01*
X142289584Y-27829500D01*
X142254649Y-27824477D01*
X142243795Y-27821290D01*
X142185017Y-27783516D01*
X142155992Y-27719960D01*
X142165935Y-27650803D01*
X142169125Y-27643820D01*
X142194234Y-27607658D01*
X142246458Y-27555434D01*
X142246460Y-27555431D01*
X142357266Y-27389599D01*
X142433590Y-27205335D01*
X142460746Y-27068816D01*
X142472500Y-27009725D01*
X142472500Y-26810274D01*
X142472500Y-26810271D01*
X142433351Y-26613463D01*
X142431269Y-26609062D01*
X142410740Y-26559500D01*
X142410707Y-26559421D01*
X142379033Y-26482952D01*
X142357269Y-26430407D01*
X142357262Y-26430394D01*
X142246460Y-26264569D01*
X142246457Y-26264565D01*
X142246455Y-26264563D01*
X142246452Y-26264559D01*
X142105439Y-26123546D01*
X142105433Y-26123541D01*
X142105432Y-26123540D01*
X141939611Y-26012741D01*
X141939610Y-26012740D01*
X141939605Y-26012737D01*
X141939592Y-26012730D01*
X141939585Y-26012726D01*
X141755361Y-25936419D01*
X141755347Y-25936414D01*
X141755339Y-25936411D01*
X141755329Y-25936408D01*
X141755326Y-25936407D01*
X141755322Y-25936406D01*
X141559728Y-25897500D01*
X141559725Y-25897500D01*
X141559723Y-25897500D01*
X141360277Y-25897500D01*
X141360275Y-25897500D01*
X141360271Y-25897500D01*
X141164676Y-25936406D01*
X141164670Y-25936408D01*
X141164660Y-25936411D01*
X141164655Y-25936412D01*
X141164637Y-25936419D01*
X140980413Y-26012726D01*
X140980404Y-26012731D01*
X140980387Y-26012741D01*
X140814566Y-26123540D01*
X140814565Y-26123541D01*
X140814559Y-26123546D01*
X140673545Y-26264560D01*
X140673534Y-26264574D01*
X140673525Y-26264588D01*
X140651487Y-26297570D01*
X140627903Y-26323825D01*
X140611808Y-26337276D01*
X140557584Y-26363522D01*
X140551004Y-26364893D01*
X140525711Y-26367500D01*
X136049346Y-26367500D01*
X136014410Y-26362477D01*
X135994276Y-26356565D01*
X135942319Y-26326050D01*
X135937527Y-26321343D01*
X135921321Y-26301776D01*
X135896460Y-26264569D01*
X135896457Y-26264565D01*
X135896456Y-26264563D01*
X135755439Y-26123546D01*
X135755433Y-26123541D01*
X135755432Y-26123540D01*
X135599736Y-26019506D01*
X135573482Y-25995924D01*
X135566229Y-25987245D01*
X135538342Y-25923184D01*
X135549517Y-25854214D01*
X135596203Y-25802234D01*
X135596507Y-25802046D01*
X135598236Y-25800980D01*
X135663363Y-25782500D01*
X136014142Y-25782500D01*
X136014144Y-25782500D01*
X136103288Y-25758614D01*
X136183212Y-25712470D01*
X137126258Y-24769423D01*
X137154508Y-24748275D01*
X137177600Y-24735667D01*
X137237025Y-24720500D01*
X140408576Y-24720500D01*
X140443512Y-24725523D01*
X140458510Y-24729927D01*
X140517283Y-24767696D01*
X140526202Y-24777988D01*
X140547055Y-24811745D01*
X140562732Y-24849596D01*
X140562736Y-24849604D01*
X140673540Y-25015432D01*
X140673541Y-25015433D01*
X140673546Y-25015439D01*
X140814559Y-25156452D01*
X140814565Y-25156457D01*
X140814569Y-25156460D01*
X140980394Y-25267262D01*
X140980407Y-25267269D01*
X141159065Y-25341270D01*
X141163488Y-25343362D01*
X141164227Y-25343505D01*
X141164970Y-25343651D01*
X141360271Y-25382500D01*
X141559725Y-25382500D01*
X141559726Y-25382500D01*
X141586044Y-25377264D01*
X141691324Y-25356322D01*
X141691325Y-25356322D01*
X141704196Y-25353761D01*
X141755335Y-25343590D01*
X141939599Y-25267266D01*
X142105431Y-25156460D01*
X142246460Y-25015431D01*
X142357266Y-24849599D01*
X142433590Y-24665335D01*
X142455042Y-24557490D01*
X142472500Y-24469725D01*
X142472500Y-24270271D01*
X142433351Y-24073463D01*
X142431269Y-24069062D01*
X142410740Y-24019500D01*
X142410707Y-24019421D01*
X142372214Y-23926488D01*
X142357269Y-23890407D01*
X142357262Y-23890394D01*
X142246460Y-23724569D01*
X142246457Y-23724565D01*
X142246453Y-23724560D01*
X142196680Y-23674788D01*
X142175529Y-23646535D01*
X142170107Y-23636605D01*
X142155256Y-23568334D01*
X142179673Y-23502870D01*
X142235602Y-23461000D01*
X142239479Y-23459554D01*
X142242815Y-23458311D01*
X142286129Y-23450500D01*
X142948576Y-23450500D01*
X142983512Y-23455523D01*
X142998510Y-23459927D01*
X143057283Y-23497696D01*
X143066202Y-23507988D01*
X143087055Y-23541745D01*
X143102732Y-23579596D01*
X143102736Y-23579604D01*
X143213540Y-23745432D01*
X143213541Y-23745433D01*
X143213546Y-23745439D01*
X143354559Y-23886452D01*
X143354565Y-23886457D01*
X143354569Y-23886460D01*
X143520394Y-23997262D01*
X143520407Y-23997269D01*
X143699065Y-24071270D01*
X143703488Y-24073362D01*
X143704227Y-24073505D01*
X143704970Y-24073651D01*
X143900271Y-24112500D01*
X144099725Y-24112500D01*
X144099726Y-24112500D01*
X144126044Y-24107264D01*
X144231324Y-24086322D01*
X144231325Y-24086322D01*
X144244196Y-24083761D01*
X144295335Y-24073590D01*
X144479599Y-23997266D01*
X144645431Y-23886460D01*
X144786460Y-23745431D01*
X144897266Y-23579599D01*
X144973590Y-23395335D01*
X145012500Y-23199723D01*
X145012500Y-23000277D01*
X145012500Y-23000274D01*
X145012500Y-23000272D01*
X145012500Y-23000271D01*
X144973352Y-22803465D01*
X144971273Y-22799072D01*
X144897269Y-22620407D01*
X144897262Y-22620394D01*
X144786460Y-22454569D01*
X144786457Y-22454565D01*
X144786452Y-22454559D01*
X144645439Y-22313546D01*
X144645433Y-22313541D01*
X144645432Y-22313540D01*
X144479611Y-22202741D01*
X144479610Y-22202740D01*
X144479605Y-22202737D01*
X144479592Y-22202730D01*
X144479585Y-22202726D01*
X144295361Y-22126419D01*
X144295347Y-22126414D01*
X144295339Y-22126411D01*
X144295329Y-22126408D01*
X144295326Y-22126407D01*
X144295322Y-22126406D01*
X144099728Y-22087500D01*
X144099725Y-22087500D01*
X144099723Y-22087500D01*
X143900277Y-22087500D01*
X143900275Y-22087500D01*
X143900271Y-22087500D01*
X143704676Y-22126406D01*
X143704670Y-22126408D01*
X143704660Y-22126411D01*
X143704655Y-22126412D01*
X143704637Y-22126419D01*
X143520413Y-22202726D01*
X143520404Y-22202731D01*
X143520387Y-22202741D01*
X143354566Y-22313540D01*
X143354565Y-22313541D01*
X143354559Y-22313546D01*
X143213546Y-22454559D01*
X143213541Y-22454565D01*
X143213540Y-22454566D01*
X143102734Y-22620397D01*
X143102730Y-22620407D01*
X143089901Y-22651381D01*
X143089897Y-22651390D01*
X143087785Y-22656488D01*
X143069779Y-22686834D01*
X143059972Y-22699004D01*
X143002586Y-22738851D01*
X142989666Y-22743152D01*
X142950500Y-22749500D01*
X142289584Y-22749500D01*
X142254649Y-22744477D01*
X142243795Y-22741290D01*
X142185017Y-22703516D01*
X142155992Y-22639960D01*
X142165935Y-22570803D01*
X142169125Y-22563820D01*
X142194234Y-22527658D01*
X142246458Y-22475434D01*
X142246460Y-22475431D01*
X142357266Y-22309599D01*
X142433590Y-22125335D01*
X142433594Y-22125319D01*
X142459071Y-21997235D01*
X142459071Y-21997233D01*
X142472500Y-21929726D01*
X142472500Y-21730271D01*
X142433351Y-21533463D01*
X142431269Y-21529062D01*
X142410740Y-21479500D01*
X142410707Y-21479421D01*
X142372946Y-21388255D01*
X142357269Y-21350407D01*
X142357262Y-21350394D01*
X142246460Y-21184569D01*
X142246457Y-21184565D01*
X142246452Y-21184559D01*
X142105439Y-21043546D01*
X142105433Y-21043541D01*
X142105432Y-21043540D01*
X141939611Y-20932741D01*
X141939610Y-20932740D01*
X141939605Y-20932737D01*
X141939592Y-20932730D01*
X141939585Y-20932726D01*
X141755361Y-20856419D01*
X141755347Y-20856414D01*
X141755339Y-20856411D01*
X141755329Y-20856408D01*
X141755326Y-20856407D01*
X141755322Y-20856406D01*
X141559728Y-20817500D01*
X141559725Y-20817500D01*
X141559723Y-20817500D01*
X141360277Y-20817500D01*
X141360275Y-20817500D01*
X141360271Y-20817500D01*
X141164676Y-20856406D01*
X141164670Y-20856408D01*
X141164660Y-20856411D01*
X141164655Y-20856412D01*
X141164637Y-20856419D01*
X140980413Y-20932726D01*
X140980404Y-20932731D01*
X140980387Y-20932741D01*
X140814566Y-21043540D01*
X140673534Y-21184573D01*
X140662182Y-21201565D01*
X140638592Y-21227828D01*
X140622496Y-21241279D01*
X140568275Y-21267522D01*
X140561695Y-21268893D01*
X140536402Y-21271500D01*
X138642133Y-21271500D01*
X138607193Y-21266476D01*
X138594124Y-21262638D01*
X138535348Y-21224861D01*
X138506325Y-21161304D01*
X138513274Y-21099295D01*
X138516235Y-21091567D01*
X138528912Y-21067067D01*
X138544322Y-21044004D01*
X138546347Y-21041239D01*
X138547851Y-21038846D01*
X138549589Y-21033991D01*
X138562948Y-21001738D01*
X138623590Y-20855335D01*
X138644453Y-20750449D01*
X138662500Y-20659725D01*
X138662500Y-20633276D01*
X142982237Y-20633276D01*
X143026406Y-20855322D01*
X143026407Y-20855326D01*
X143026408Y-20855329D01*
X143026411Y-20855339D01*
X143026414Y-20855347D01*
X143026419Y-20855361D01*
X143102726Y-21039585D01*
X143102730Y-21039592D01*
X143102736Y-21039604D01*
X143102741Y-21039611D01*
X143213540Y-21205432D01*
X143213541Y-21205433D01*
X143213546Y-21205439D01*
X143354559Y-21346452D01*
X143354565Y-21346457D01*
X143354569Y-21346460D01*
X143520394Y-21457262D01*
X143520407Y-21457269D01*
X143654917Y-21512984D01*
X143699053Y-21531265D01*
X143703463Y-21533351D01*
X143900271Y-21572500D01*
X144099725Y-21572500D01*
X144099727Y-21572500D01*
X144237059Y-21545182D01*
X144237060Y-21545182D01*
X144251726Y-21542264D01*
X144295335Y-21533590D01*
X144479599Y-21457266D01*
X144645431Y-21346460D01*
X144786460Y-21205431D01*
X144897266Y-21039599D01*
X144973590Y-20855335D01*
X144994453Y-20750449D01*
X145012500Y-20659725D01*
X145012500Y-20460274D01*
X145012500Y-20460271D01*
X144973351Y-20263462D01*
X144971264Y-20259049D01*
X144960309Y-20232601D01*
X144897272Y-20080413D01*
X144897267Y-20080404D01*
X144897262Y-20080394D01*
X144786460Y-19914569D01*
X144786457Y-19914565D01*
X144786452Y-19914559D01*
X144645439Y-19773546D01*
X144645433Y-19773541D01*
X144645432Y-19773540D01*
X144479611Y-19662741D01*
X144479610Y-19662740D01*
X144479605Y-19662737D01*
X144479592Y-19662730D01*
X144479585Y-19662726D01*
X144295361Y-19586419D01*
X144295347Y-19586414D01*
X144295339Y-19586411D01*
X144295329Y-19586408D01*
X144295326Y-19586407D01*
X144295322Y-19586406D01*
X144099728Y-19547500D01*
X144099725Y-19547500D01*
X144099723Y-19547500D01*
X143900277Y-19547500D01*
X143900275Y-19547500D01*
X143900271Y-19547500D01*
X143704676Y-19586406D01*
X143704670Y-19586408D01*
X143704660Y-19586411D01*
X143704655Y-19586412D01*
X143704637Y-19586419D01*
X143520413Y-19662726D01*
X143520404Y-19662731D01*
X143520387Y-19662741D01*
X143354566Y-19773540D01*
X143354565Y-19773541D01*
X143354559Y-19773546D01*
X143213546Y-19914559D01*
X143213541Y-19914565D01*
X143213540Y-19914566D01*
X143102741Y-20080387D01*
X143102731Y-20080404D01*
X143102726Y-20080413D01*
X143026419Y-20264637D01*
X143026406Y-20264676D01*
X142987500Y-20460270D01*
X142987500Y-20615356D01*
X142982237Y-20633276D01*
X138662500Y-20633276D01*
X138662500Y-20460274D01*
X138662500Y-20460271D01*
X138623351Y-20263462D01*
X138621264Y-20259049D01*
X138610309Y-20232601D01*
X138547272Y-20080413D01*
X138547267Y-20080404D01*
X138547262Y-20080394D01*
X138544780Y-20076680D01*
X140447499Y-20076680D01*
X140462028Y-20149717D01*
X140462032Y-20149735D01*
X140462033Y-20149739D01*
X140465480Y-20155826D01*
X140468816Y-20159891D01*
X140517399Y-20232601D01*
X140600256Y-20287964D01*
X140600258Y-20287965D01*
X140600259Y-20287965D01*
X140600260Y-20287966D01*
X140600264Y-20287967D01*
X140600279Y-20287970D01*
X140600288Y-20287972D01*
X140645021Y-20296869D01*
X140665681Y-20300979D01*
X140668415Y-20301703D01*
X140673323Y-20302500D01*
X142246676Y-20302500D01*
X142250796Y-20302500D01*
X142258648Y-20300117D01*
X142319740Y-20287966D01*
X142402601Y-20232601D01*
X142457966Y-20149740D01*
X142472500Y-20076674D01*
X142472500Y-18503326D01*
X142472500Y-18503323D01*
X142472500Y-18503139D01*
X142472064Y-18501134D01*
X142457972Y-18430289D01*
X142457967Y-18430266D01*
X142457967Y-18430264D01*
X142457966Y-18430260D01*
X142457965Y-18430258D01*
X142457964Y-18430256D01*
X142402601Y-18347399D01*
X142329891Y-18298816D01*
X142325826Y-18295480D01*
X142319739Y-18292033D01*
X142319735Y-18292032D01*
X142319709Y-18292026D01*
X142246680Y-18277500D01*
X142246677Y-18277500D01*
X142246674Y-18277500D01*
X140673326Y-18277500D01*
X140673323Y-18277500D01*
X140673319Y-18277500D01*
X140600285Y-18292027D01*
X140600262Y-18292032D01*
X140600258Y-18292033D01*
X140517399Y-18347399D01*
X140462033Y-18430258D01*
X140462032Y-18430266D01*
X140462028Y-18430281D01*
X140447500Y-18503318D01*
X140447500Y-18503321D01*
X140447500Y-20076678D01*
X140447500Y-20076680D01*
X140447499Y-20076680D01*
X138544780Y-20076680D01*
X138436460Y-19914569D01*
X138436457Y-19914565D01*
X138436452Y-19914559D01*
X138295439Y-19773546D01*
X138295433Y-19773541D01*
X138295432Y-19773540D01*
X138129611Y-19662741D01*
X138129610Y-19662740D01*
X138129605Y-19662737D01*
X138129592Y-19662730D01*
X138129585Y-19662726D01*
X137945361Y-19586419D01*
X137945347Y-19586414D01*
X137945339Y-19586411D01*
X137945329Y-19586408D01*
X137945326Y-19586407D01*
X137945322Y-19586406D01*
X137749728Y-19547500D01*
X137749725Y-19547500D01*
X137749723Y-19547500D01*
X137550277Y-19547500D01*
X137550275Y-19547500D01*
X137550271Y-19547500D01*
X137354676Y-19586406D01*
X137354670Y-19586408D01*
X137354660Y-19586411D01*
X137354655Y-19586412D01*
X137354637Y-19586419D01*
X137170413Y-19662726D01*
X137170404Y-19662731D01*
X137170387Y-19662741D01*
X137004566Y-19773540D01*
X137004565Y-19773541D01*
X137004559Y-19773546D01*
X136863546Y-19914559D01*
X136863541Y-19914565D01*
X136863540Y-19914566D01*
X136752741Y-20080387D01*
X136752731Y-20080404D01*
X136752726Y-20080413D01*
X136676419Y-20264637D01*
X136676406Y-20264676D01*
X136637500Y-20460270D01*
X136637500Y-20615356D01*
X136632237Y-20633276D01*
X136676406Y-20855322D01*
X136676407Y-20855326D01*
X136676408Y-20855329D01*
X136676411Y-20855339D01*
X136676414Y-20855347D01*
X136676419Y-20855361D01*
X136752726Y-21039585D01*
X136752730Y-21039592D01*
X136752737Y-21039605D01*
X136752741Y-21039611D01*
X136752745Y-21039617D01*
X136768893Y-21063785D01*
X136784124Y-21095621D01*
X136788194Y-21108619D01*
X136789442Y-21178477D01*
X136752723Y-21237920D01*
X136697309Y-21266596D01*
X136694814Y-21267162D01*
X136689251Y-21268424D01*
X136661807Y-21271500D01*
X136038655Y-21271500D01*
X136003719Y-21266477D01*
X135983585Y-21260565D01*
X135931628Y-21230050D01*
X135926837Y-21225344D01*
X135910630Y-21205776D01*
X135896460Y-21184568D01*
X135896457Y-21184565D01*
X135896455Y-21184562D01*
X135755439Y-21043546D01*
X135755433Y-21043541D01*
X135755432Y-21043540D01*
X135589611Y-20932741D01*
X135589610Y-20932740D01*
X135589605Y-20932737D01*
X135589592Y-20932730D01*
X135589585Y-20932726D01*
X135405361Y-20856419D01*
X135405347Y-20856414D01*
X135405339Y-20856411D01*
X135405329Y-20856408D01*
X135405326Y-20856407D01*
X135405322Y-20856406D01*
X135209728Y-20817500D01*
X135209725Y-20817500D01*
X135209723Y-20817500D01*
X135010277Y-20817500D01*
X135010275Y-20817500D01*
X135010271Y-20817500D01*
X134814676Y-20856406D01*
X134814670Y-20856408D01*
X134814660Y-20856411D01*
X134814655Y-20856412D01*
X134814637Y-20856419D01*
X134630413Y-20932726D01*
X134630404Y-20932731D01*
X134630387Y-20932741D01*
X134464566Y-21043540D01*
X134464565Y-21043541D01*
X134464559Y-21043546D01*
X134323546Y-21184559D01*
X134323541Y-21184565D01*
X134323540Y-21184566D01*
X134212738Y-21350391D01*
X134212733Y-21350401D01*
X134208435Y-21360779D01*
X134208432Y-21360785D01*
X134197786Y-21386485D01*
X134179779Y-21416834D01*
X134169973Y-21429003D01*
X134112586Y-21468851D01*
X134099666Y-21473152D01*
X134060500Y-21479500D01*
X134044373Y-21479500D01*
X134009437Y-21474477D01*
X133984195Y-21467065D01*
X133931450Y-21435769D01*
X133599426Y-21103744D01*
X133578274Y-21075488D01*
X133565667Y-21052399D01*
X133550500Y-20992974D01*
X133550500Y-20927527D01*
X133550500Y-20927525D01*
X133512984Y-20787515D01*
X133456465Y-20689622D01*
X133440511Y-20661988D01*
X133440506Y-20661982D01*
X133440502Y-20661978D01*
X133440493Y-20661968D01*
X133338030Y-20559505D01*
X133338014Y-20559490D01*
X133338011Y-20559488D01*
X133284241Y-20528444D01*
X133255808Y-20498624D01*
X133194385Y-20482166D01*
X133194385Y-20482165D01*
X133098237Y-20456402D01*
X133072475Y-20449500D01*
X133072474Y-20449500D01*
X132927525Y-20449500D01*
X132805614Y-20482166D01*
X132805613Y-20482165D01*
X132787510Y-20487016D01*
X132787507Y-20487018D01*
X132661992Y-20559485D01*
X132661984Y-20559490D01*
X132661979Y-20559495D01*
X132559489Y-20661986D01*
X132559486Y-20661989D01*
X132552798Y-20673575D01*
X132530984Y-20701313D01*
X132522800Y-20709116D01*
X132460700Y-20741134D01*
X132391146Y-20734495D01*
X132336224Y-20691306D01*
X132336177Y-20691240D01*
X132335820Y-20690738D01*
X132314588Y-20639430D01*
X132314216Y-20637217D01*
X132312500Y-20616661D01*
X132312500Y-20460271D01*
X132273351Y-20263462D01*
X132271264Y-20259049D01*
X132260309Y-20232601D01*
X132197272Y-20080413D01*
X132197267Y-20080404D01*
X132197262Y-20080394D01*
X132194780Y-20076680D01*
X134097499Y-20076680D01*
X134112028Y-20149717D01*
X134112032Y-20149735D01*
X134112033Y-20149739D01*
X134115480Y-20155826D01*
X134118816Y-20159891D01*
X134167399Y-20232601D01*
X134250256Y-20287964D01*
X134250258Y-20287965D01*
X134250259Y-20287965D01*
X134250260Y-20287966D01*
X134250264Y-20287967D01*
X134250279Y-20287970D01*
X134250288Y-20287972D01*
X134295021Y-20296869D01*
X134315681Y-20300979D01*
X134318415Y-20301703D01*
X134323323Y-20302500D01*
X135896676Y-20302500D01*
X135900796Y-20302500D01*
X135908648Y-20300117D01*
X135969740Y-20287966D01*
X136052601Y-20232601D01*
X136107966Y-20149740D01*
X136122500Y-20076674D01*
X136122500Y-18503326D01*
X136122500Y-18503323D01*
X136122500Y-18503139D01*
X136122064Y-18501134D01*
X136107972Y-18430289D01*
X136107967Y-18430266D01*
X136107967Y-18430264D01*
X136107966Y-18430260D01*
X136107965Y-18430258D01*
X136107964Y-18430256D01*
X136052601Y-18347399D01*
X135979891Y-18298816D01*
X135975826Y-18295480D01*
X135969739Y-18292033D01*
X135969735Y-18292032D01*
X135969709Y-18292026D01*
X135896680Y-18277500D01*
X135896677Y-18277500D01*
X135896674Y-18277500D01*
X134323326Y-18277500D01*
X134323323Y-18277500D01*
X134323319Y-18277500D01*
X134250285Y-18292027D01*
X134250262Y-18292032D01*
X134250258Y-18292033D01*
X134167399Y-18347399D01*
X134112033Y-18430258D01*
X134112032Y-18430266D01*
X134112028Y-18430281D01*
X134097500Y-18503318D01*
X134097500Y-18503321D01*
X134097500Y-20076678D01*
X134097500Y-20076680D01*
X134097499Y-20076680D01*
X132194780Y-20076680D01*
X132086460Y-19914569D01*
X132086457Y-19914565D01*
X132086452Y-19914559D01*
X131945439Y-19773546D01*
X131945433Y-19773541D01*
X131945432Y-19773540D01*
X131779611Y-19662741D01*
X131779610Y-19662740D01*
X131779605Y-19662737D01*
X131779592Y-19662730D01*
X131779585Y-19662726D01*
X131595361Y-19586419D01*
X131595347Y-19586414D01*
X131595339Y-19586411D01*
X131595329Y-19586408D01*
X131595326Y-19586407D01*
X131595322Y-19586406D01*
X131399728Y-19547500D01*
X131399725Y-19547500D01*
X131399723Y-19547500D01*
X131200277Y-19547500D01*
X131200275Y-19547500D01*
X131200271Y-19547500D01*
X131004676Y-19586406D01*
X131004670Y-19586408D01*
X131004660Y-19586411D01*
X131004655Y-19586412D01*
X131004637Y-19586419D01*
X130820413Y-19662726D01*
X130820404Y-19662731D01*
X130820387Y-19662741D01*
X130654566Y-19773540D01*
X130654565Y-19773541D01*
X130654559Y-19773546D01*
X130513546Y-19914559D01*
X130513541Y-19914565D01*
X130513540Y-19914566D01*
X130402741Y-20080387D01*
X130402731Y-20080404D01*
X130402726Y-20080413D01*
X130326419Y-20264637D01*
X130326406Y-20264676D01*
X130287500Y-20460270D01*
X130287500Y-20615356D01*
X130282237Y-20633276D01*
X130326406Y-20855322D01*
X130326407Y-20855326D01*
X130326408Y-20855329D01*
X130326411Y-20855339D01*
X130326414Y-20855347D01*
X130326419Y-20855361D01*
X130402726Y-21039585D01*
X130402730Y-21039592D01*
X130402736Y-21039604D01*
X130402741Y-21039611D01*
X130513540Y-21205432D01*
X130513541Y-21205433D01*
X130513544Y-21205437D01*
X130525267Y-21217159D01*
X130546422Y-21245418D01*
X130553073Y-21257599D01*
X130567924Y-21325873D01*
X130543506Y-21391336D01*
X130543501Y-21391342D01*
X130538406Y-21398147D01*
X130501148Y-21431214D01*
X130434791Y-21469527D01*
X130434787Y-21469530D01*
X130434771Y-21469545D01*
X129996788Y-21907529D01*
X129968538Y-21928678D01*
X129958611Y-21934099D01*
X129890338Y-21948953D01*
X129824873Y-21924539D01*
X129783000Y-21868607D01*
X129780313Y-21861401D01*
X129772500Y-21818081D01*
X129772500Y-21730271D01*
X129733351Y-21533463D01*
X129731269Y-21529062D01*
X129710740Y-21479500D01*
X129710707Y-21479421D01*
X129672946Y-21388255D01*
X129657269Y-21350407D01*
X129657262Y-21350394D01*
X129546460Y-21184569D01*
X129546457Y-21184565D01*
X129546452Y-21184559D01*
X129405439Y-21043546D01*
X129405433Y-21043541D01*
X129405432Y-21043540D01*
X129239611Y-20932741D01*
X129239610Y-20932740D01*
X129239605Y-20932737D01*
X129239592Y-20932730D01*
X129239585Y-20932726D01*
X129055361Y-20856419D01*
X129055347Y-20856414D01*
X129055339Y-20856411D01*
X129055329Y-20856408D01*
X129055326Y-20856407D01*
X129055322Y-20856406D01*
X128859728Y-20817500D01*
X128859725Y-20817500D01*
X128859723Y-20817500D01*
X128660277Y-20817500D01*
X128660275Y-20817500D01*
X128660271Y-20817500D01*
X128464676Y-20856406D01*
X128464670Y-20856408D01*
X128464660Y-20856411D01*
X128464655Y-20856412D01*
X128464637Y-20856419D01*
X128280413Y-20932726D01*
X128280404Y-20932731D01*
X128280387Y-20932741D01*
X128114566Y-21043540D01*
X128114565Y-21043541D01*
X128114559Y-21043546D01*
X127973546Y-21184559D01*
X127973541Y-21184565D01*
X127973540Y-21184566D01*
X127862738Y-21350391D01*
X127862733Y-21350401D01*
X127858435Y-21360779D01*
X127858432Y-21360785D01*
X127847786Y-21386485D01*
X127829779Y-21416834D01*
X127819973Y-21429003D01*
X127762586Y-21468851D01*
X127749666Y-21473152D01*
X127710500Y-21479500D01*
X125779584Y-21479500D01*
X125744649Y-21474477D01*
X125733795Y-21471290D01*
X125675017Y-21433516D01*
X125645992Y-21369960D01*
X125655935Y-21300803D01*
X125659125Y-21293820D01*
X125684234Y-21257658D01*
X125736458Y-21205434D01*
X125736460Y-21205431D01*
X125847266Y-21039599D01*
X125923590Y-20855335D01*
X125944453Y-20750449D01*
X125962500Y-20659725D01*
X125962500Y-20460274D01*
X125962500Y-20460271D01*
X125923351Y-20263462D01*
X125921264Y-20259049D01*
X125910309Y-20232601D01*
X125847272Y-20080413D01*
X125847267Y-20080404D01*
X125847262Y-20080394D01*
X125844780Y-20076680D01*
X127747499Y-20076680D01*
X127762028Y-20149717D01*
X127762032Y-20149735D01*
X127762033Y-20149739D01*
X127765480Y-20155826D01*
X127768816Y-20159891D01*
X127817399Y-20232601D01*
X127900256Y-20287964D01*
X127900258Y-20287965D01*
X127900259Y-20287965D01*
X127900260Y-20287966D01*
X127900264Y-20287967D01*
X127900279Y-20287970D01*
X127900288Y-20287972D01*
X127945021Y-20296869D01*
X127965681Y-20300979D01*
X127968415Y-20301703D01*
X127973323Y-20302500D01*
X129546676Y-20302500D01*
X129550796Y-20302500D01*
X129558648Y-20300117D01*
X129619740Y-20287966D01*
X129702601Y-20232601D01*
X129757966Y-20149740D01*
X129772500Y-20076674D01*
X129772500Y-18503326D01*
X129772500Y-18503323D01*
X129772500Y-18503139D01*
X129772064Y-18501134D01*
X129757972Y-18430289D01*
X129757967Y-18430266D01*
X129757967Y-18430264D01*
X129757966Y-18430260D01*
X129757965Y-18430258D01*
X129757964Y-18430256D01*
X129702601Y-18347399D01*
X129629891Y-18298816D01*
X129625826Y-18295480D01*
X129619739Y-18292033D01*
X129619735Y-18292032D01*
X129619709Y-18292026D01*
X129546680Y-18277500D01*
X129546677Y-18277500D01*
X129546674Y-18277500D01*
X127973326Y-18277500D01*
X127973323Y-18277500D01*
X127973319Y-18277500D01*
X127900285Y-18292027D01*
X127900262Y-18292032D01*
X127900258Y-18292033D01*
X127817399Y-18347399D01*
X127762033Y-18430258D01*
X127762032Y-18430266D01*
X127762028Y-18430281D01*
X127747500Y-18503318D01*
X127747500Y-18503321D01*
X127747500Y-20076678D01*
X127747500Y-20076680D01*
X127747499Y-20076680D01*
X125844780Y-20076680D01*
X125736460Y-19914569D01*
X125736457Y-19914565D01*
X125736452Y-19914559D01*
X125595439Y-19773546D01*
X125595433Y-19773541D01*
X125595432Y-19773540D01*
X125429611Y-19662741D01*
X125429610Y-19662740D01*
X125429605Y-19662737D01*
X125429592Y-19662730D01*
X125429585Y-19662726D01*
X125245361Y-19586419D01*
X125245347Y-19586414D01*
X125245339Y-19586411D01*
X125245329Y-19586408D01*
X125245326Y-19586407D01*
X125245322Y-19586406D01*
X125049728Y-19547500D01*
X125049725Y-19547500D01*
X125049723Y-19547500D01*
X124850277Y-19547500D01*
X124850275Y-19547500D01*
X124850271Y-19547500D01*
X124654676Y-19586406D01*
X124654670Y-19586408D01*
X124654660Y-19586411D01*
X124654655Y-19586412D01*
X124654637Y-19586419D01*
X124470413Y-19662726D01*
X124470404Y-19662731D01*
X124470387Y-19662741D01*
X124304566Y-19773540D01*
X124304565Y-19773541D01*
X124304559Y-19773546D01*
X124163546Y-19914559D01*
X124163541Y-19914565D01*
X124163540Y-19914566D01*
X124052734Y-20080397D01*
X124052730Y-20080407D01*
X124043905Y-20101715D01*
X124042375Y-20105409D01*
X124039901Y-20111381D01*
X124039897Y-20111390D01*
X124037785Y-20116488D01*
X124019779Y-20146834D01*
X124009972Y-20159004D01*
X123952586Y-20198851D01*
X123939666Y-20203152D01*
X123900500Y-20209500D01*
X123564061Y-20209500D01*
X123529126Y-20204477D01*
X123514931Y-20200309D01*
X123456153Y-20162535D01*
X123427553Y-20101716D01*
X123424395Y-20082766D01*
X123424187Y-20081516D01*
X123422500Y-20061133D01*
X123422500Y-18503139D01*
X123422064Y-18501134D01*
X123407972Y-18430289D01*
X123407967Y-18430266D01*
X123407967Y-18430264D01*
X123407966Y-18430260D01*
X123407965Y-18430258D01*
X123407964Y-18430256D01*
X123352601Y-18347399D01*
X123279891Y-18298816D01*
X123275826Y-18295480D01*
X123269739Y-18292033D01*
X123269735Y-18292032D01*
X123269709Y-18292026D01*
X123196680Y-18277500D01*
X123196677Y-18277500D01*
X123196674Y-18277500D01*
X121623326Y-18277500D01*
X121623323Y-18277500D01*
X121623319Y-18277500D01*
X121550285Y-18292027D01*
X121550262Y-18292032D01*
X121550258Y-18292033D01*
X121467399Y-18347399D01*
X121412033Y-18430258D01*
X121412032Y-18430266D01*
X121412028Y-18430281D01*
X121397500Y-18503318D01*
X121397500Y-18797670D01*
X121392475Y-18832614D01*
X121388070Y-18847612D01*
X121350327Y-18906355D01*
X121348958Y-18907542D01*
X121294097Y-18935018D01*
X121286539Y-18936663D01*
X121260168Y-18939500D01*
X120563856Y-18939500D01*
X120474725Y-18963382D01*
X120474708Y-18963387D01*
X120474703Y-18963389D01*
X120394791Y-19009526D01*
X120394790Y-19009527D01*
X120394784Y-19009532D01*
X120394777Y-19009538D01*
X120053743Y-19350573D01*
X120025492Y-19371722D01*
X120002404Y-19384330D01*
X119942974Y-19399500D01*
X119827525Y-19399500D01*
X119698994Y-19433939D01*
X119698993Y-19433940D01*
X119691338Y-19435991D01*
X119687510Y-19437017D01*
X119561991Y-19509485D01*
X119561984Y-19509490D01*
X119561968Y-19509505D01*
X119459505Y-19611968D01*
X119459490Y-19611984D01*
X119459485Y-19611992D01*
X119387017Y-19737509D01*
X119386989Y-19737578D01*
X119386748Y-19738511D01*
X119349500Y-19877525D01*
X119349500Y-20022474D01*
X119380189Y-20137010D01*
X119387015Y-20162483D01*
X119387018Y-20162491D01*
X119457635Y-20284802D01*
X119459123Y-20287568D01*
X119459353Y-20287877D01*
X119561985Y-20390509D01*
X119562155Y-20390631D01*
X119562522Y-20390819D01*
X119687511Y-20462982D01*
X119687512Y-20462982D01*
X119687515Y-20462984D01*
X119741888Y-20477553D01*
X119774330Y-20491445D01*
X119786182Y-20498669D01*
X119833179Y-20550370D01*
X119844772Y-20619215D01*
X119844580Y-20620827D01*
X119824139Y-20675667D01*
X119821328Y-20679820D01*
X119819991Y-20681438D01*
X119819780Y-20682054D01*
X119818927Y-20682726D01*
X119806320Y-20697995D01*
X119600645Y-20903670D01*
X119572394Y-20924819D01*
X119555880Y-20933837D01*
X119493498Y-20948971D01*
X119484809Y-20948764D01*
X119451699Y-20947976D01*
X119450889Y-20948341D01*
X119433978Y-20949500D01*
X119327525Y-20949500D01*
X119202543Y-20982989D01*
X119202542Y-20982988D01*
X119187513Y-20987016D01*
X119187508Y-20987018D01*
X119061992Y-21059485D01*
X119061984Y-21059490D01*
X119061968Y-21059505D01*
X118959505Y-21161968D01*
X118959490Y-21161984D01*
X118959485Y-21161992D01*
X118887018Y-21287508D01*
X118887016Y-21287512D01*
X118882583Y-21304050D01*
X118882584Y-21304051D01*
X118849500Y-21427525D01*
X118849500Y-21572474D01*
X118887013Y-21712477D01*
X118887016Y-21712485D01*
X118887017Y-21712488D01*
X118897284Y-21730271D01*
X118957635Y-21834802D01*
X118959123Y-21837568D01*
X118959353Y-21837877D01*
X119061985Y-21940509D01*
X119062674Y-21941005D01*
X119065178Y-21942353D01*
X119184069Y-22010995D01*
X119187087Y-22012869D01*
X119187514Y-22012983D01*
X119187515Y-22012984D01*
X119327525Y-22050500D01*
X119327528Y-22050500D01*
X119472472Y-22050500D01*
X119472475Y-22050500D01*
X119612485Y-22012984D01*
X119738015Y-21940509D01*
X119840509Y-21838015D01*
X119912984Y-21712485D01*
X119947667Y-21583046D01*
X119960050Y-21553149D01*
X119975821Y-21525832D01*
X119995522Y-21500158D01*
X120536258Y-20959423D01*
X120564508Y-20938275D01*
X120587600Y-20925667D01*
X120647025Y-20910500D01*
X121580416Y-20910500D01*
X121615343Y-20915521D01*
X121626196Y-20918707D01*
X121684977Y-20956477D01*
X121714006Y-21020031D01*
X121704066Y-21089190D01*
X121702199Y-21093279D01*
X121700878Y-21096173D01*
X121675766Y-21132340D01*
X121623547Y-21184559D01*
X121623539Y-21184568D01*
X121623536Y-21184573D01*
X121512741Y-21350387D01*
X121512731Y-21350404D01*
X121512726Y-21350413D01*
X121436419Y-21534637D01*
X121436406Y-21534676D01*
X121397500Y-21730270D01*
X121397500Y-21885356D01*
X121392237Y-21903276D01*
X121436406Y-22125322D01*
X121436407Y-22125325D01*
X121436408Y-22125329D01*
X121436411Y-22125339D01*
X121436414Y-22125347D01*
X121436419Y-22125361D01*
X121512726Y-22309585D01*
X121512730Y-22309592D01*
X121512736Y-22309604D01*
X121512741Y-22309611D01*
X121623540Y-22475432D01*
X121623541Y-22475433D01*
X121623546Y-22475439D01*
X121764559Y-22616452D01*
X121764565Y-22616457D01*
X121764569Y-22616460D01*
X121930394Y-22727262D01*
X121930407Y-22727269D01*
X122109065Y-22801270D01*
X122113488Y-22803362D01*
X122114227Y-22803505D01*
X122114970Y-22803651D01*
X122310271Y-22842500D01*
X122509725Y-22842500D01*
X122509726Y-22842500D01*
X122536044Y-22837264D01*
X122641324Y-22816322D01*
X122641325Y-22816322D01*
X122660670Y-22812474D01*
X122705335Y-22803590D01*
X122803406Y-22762967D01*
X122847840Y-22744563D01*
X122856341Y-22741041D01*
X122883053Y-22729977D01*
X122885843Y-22729005D01*
X122887288Y-22728336D01*
X122891945Y-22726294D01*
X122901210Y-22722456D01*
X122910095Y-22713570D01*
X123055431Y-22616460D01*
X123196460Y-22475431D01*
X123307266Y-22309599D01*
X123322212Y-22273513D01*
X123340215Y-22243170D01*
X123350030Y-22230991D01*
X123407418Y-22191146D01*
X123415937Y-22188311D01*
X123420342Y-22186845D01*
X123459500Y-22180500D01*
X124120416Y-22180500D01*
X124155343Y-22185521D01*
X124166196Y-22188707D01*
X124224977Y-22226477D01*
X124254006Y-22290031D01*
X124244067Y-22359190D01*
X124244063Y-22359199D01*
X124240878Y-22366173D01*
X124215766Y-22402340D01*
X124163547Y-22454559D01*
X124163539Y-22454568D01*
X124163536Y-22454573D01*
X124052741Y-22620387D01*
X124052731Y-22620404D01*
X124052726Y-22620413D01*
X123976419Y-22804637D01*
X123976406Y-22804676D01*
X123937500Y-23000270D01*
X123937500Y-23155356D01*
X123932237Y-23173276D01*
X123976406Y-23395322D01*
X123976407Y-23395326D01*
X123976408Y-23395329D01*
X123976411Y-23395339D01*
X123976414Y-23395347D01*
X123976419Y-23395361D01*
X124052726Y-23579585D01*
X124052730Y-23579592D01*
X124052736Y-23579604D01*
X124052741Y-23579611D01*
X124163540Y-23745432D01*
X124163541Y-23745433D01*
X124163545Y-23745438D01*
X124213319Y-23795211D01*
X124234471Y-23823466D01*
X124239891Y-23833392D01*
X124254743Y-23901665D01*
X124230326Y-23967129D01*
X124174393Y-24009001D01*
X124167205Y-24011682D01*
X124123871Y-24019500D01*
X123461424Y-24019500D01*
X123426483Y-24014475D01*
X123411484Y-24010070D01*
X123352712Y-23972297D01*
X123343794Y-23962005D01*
X123322946Y-23928255D01*
X123307270Y-23890410D01*
X123307264Y-23890397D01*
X123196458Y-23724566D01*
X123196457Y-23724565D01*
X123196452Y-23724559D01*
X123055439Y-23583546D01*
X123055433Y-23583541D01*
X123055432Y-23583540D01*
X122889611Y-23472741D01*
X122889610Y-23472740D01*
X122889605Y-23472737D01*
X122889592Y-23472730D01*
X122889585Y-23472726D01*
X122705361Y-23396419D01*
X122705347Y-23396414D01*
X122705339Y-23396411D01*
X122705329Y-23396408D01*
X122705326Y-23396407D01*
X122705322Y-23396406D01*
X122509728Y-23357500D01*
X122509725Y-23357500D01*
X122509723Y-23357500D01*
X122310277Y-23357500D01*
X122310275Y-23357500D01*
X122310271Y-23357500D01*
X122114676Y-23396406D01*
X122114670Y-23396408D01*
X122114660Y-23396411D01*
X122114655Y-23396412D01*
X122114637Y-23396419D01*
X121930413Y-23472726D01*
X121930404Y-23472731D01*
X121930387Y-23472741D01*
X121764566Y-23583540D01*
X121764565Y-23583541D01*
X121764559Y-23583546D01*
X121623546Y-23724559D01*
X121623541Y-23724565D01*
X121623540Y-23724566D01*
X121512741Y-23890387D01*
X121512731Y-23890404D01*
X121512726Y-23890413D01*
X121436419Y-24074637D01*
X121436406Y-24074676D01*
X121397500Y-24270270D01*
X121397500Y-24425356D01*
X121392237Y-24443276D01*
X121436406Y-24665322D01*
X121436407Y-24665326D01*
X121436408Y-24665329D01*
X121436411Y-24665339D01*
X121436414Y-24665347D01*
X121436419Y-24665361D01*
X121512726Y-24849585D01*
X121512730Y-24849592D01*
X121512736Y-24849604D01*
X121512741Y-24849611D01*
X121623540Y-25015432D01*
X121623541Y-25015433D01*
X121623546Y-25015439D01*
X121764559Y-25156452D01*
X121764565Y-25156457D01*
X121764569Y-25156460D01*
X121930394Y-25267262D01*
X121930407Y-25267269D01*
X122109065Y-25341270D01*
X122113488Y-25343362D01*
X122114227Y-25343505D01*
X122114970Y-25343651D01*
X122310271Y-25382500D01*
X122509725Y-25382500D01*
X122509726Y-25382500D01*
X122536044Y-25377264D01*
X122641324Y-25356322D01*
X122641325Y-25356322D01*
X122654196Y-25353761D01*
X122705335Y-25343590D01*
X122889599Y-25267266D01*
X123055431Y-25156460D01*
X123196460Y-25015431D01*
X123307266Y-24849599D01*
X123322212Y-24813513D01*
X123340215Y-24783170D01*
X123350030Y-24770991D01*
X123407418Y-24731146D01*
X123415937Y-24728311D01*
X123420342Y-24726845D01*
X123459500Y-24720500D01*
X125855626Y-24720500D01*
X125890558Y-24725521D01*
X125915802Y-24732934D01*
X125968548Y-24764230D01*
X126916788Y-25712470D01*
X126996712Y-25758614D01*
X127085856Y-25782500D01*
X127085858Y-25782500D01*
X128198366Y-25782500D01*
X128233293Y-25787521D01*
X128244146Y-25790707D01*
X128302927Y-25828477D01*
X128331956Y-25892031D01*
X128322024Y-25961174D01*
X128321055Y-25963297D01*
X128277141Y-26014911D01*
X128114562Y-26123544D01*
X128114559Y-26123546D01*
X127973546Y-26264559D01*
X127973541Y-26264565D01*
X127973540Y-26264566D01*
X127862734Y-26430397D01*
X127862730Y-26430407D01*
X127849901Y-26461381D01*
X127849897Y-26461390D01*
X127847785Y-26466488D01*
X127829779Y-26496834D01*
X127819972Y-26509004D01*
X127762586Y-26548851D01*
X127749666Y-26553152D01*
X127710500Y-26559500D01*
X125997216Y-26559500D01*
X125962280Y-26554477D01*
X125937038Y-26547065D01*
X125884292Y-26515768D01*
X125838030Y-26469505D01*
X125838014Y-26469490D01*
X125838006Y-26469485D01*
X125784243Y-26438445D01*
X125755808Y-26408624D01*
X125701007Y-26393939D01*
X125701007Y-26393940D01*
X125602331Y-26367500D01*
X125572475Y-26359500D01*
X125572474Y-26359500D01*
X125427525Y-26359500D01*
X125298994Y-26393939D01*
X125298993Y-26393940D01*
X125291338Y-26395991D01*
X125287510Y-26397017D01*
X125161991Y-26469485D01*
X125161979Y-26469495D01*
X125120901Y-26510574D01*
X125092649Y-26531724D01*
X125069562Y-26544331D01*
X125010133Y-26559500D01*
X123461424Y-26559500D01*
X123426483Y-26554475D01*
X123411484Y-26550070D01*
X123352712Y-26512297D01*
X123343794Y-26502005D01*
X123322946Y-26468255D01*
X123307270Y-26430410D01*
X123307264Y-26430397D01*
X123196458Y-26264566D01*
X123196457Y-26264565D01*
X123196452Y-26264559D01*
X123055439Y-26123546D01*
X123055433Y-26123541D01*
X123055432Y-26123540D01*
X122889611Y-26012741D01*
X122889610Y-26012740D01*
X122889605Y-26012737D01*
X122889592Y-26012730D01*
X122889585Y-26012726D01*
X122705361Y-25936419D01*
X122705347Y-25936414D01*
X122705339Y-25936411D01*
X122705329Y-25936408D01*
X122705326Y-25936407D01*
X122705322Y-25936406D01*
X122509728Y-25897500D01*
X122509725Y-25897500D01*
X122509723Y-25897500D01*
X122310277Y-25897500D01*
X122310275Y-25897500D01*
X122310271Y-25897500D01*
X122114676Y-25936406D01*
X122114670Y-25936408D01*
X122114660Y-25936411D01*
X122114655Y-25936412D01*
X122114637Y-25936419D01*
X121930413Y-26012726D01*
X121930404Y-26012731D01*
X121930387Y-26012741D01*
X121764566Y-26123540D01*
X121764565Y-26123541D01*
X121764559Y-26123546D01*
X121623546Y-26264559D01*
X121623541Y-26264565D01*
X121623540Y-26264566D01*
X121512741Y-26430387D01*
X121512731Y-26430404D01*
X121512726Y-26430413D01*
X121436419Y-26614637D01*
X121436406Y-26614676D01*
X121397500Y-26810270D01*
X121397500Y-26965356D01*
X121392237Y-26983276D01*
X121436406Y-27205322D01*
X121436407Y-27205326D01*
X121436408Y-27205329D01*
X121436411Y-27205339D01*
X121436414Y-27205347D01*
X121436419Y-27205361D01*
X121512726Y-27389585D01*
X121512730Y-27389592D01*
X121512736Y-27389604D01*
X121512741Y-27389611D01*
X121623540Y-27555432D01*
X121623541Y-27555433D01*
X121623546Y-27555439D01*
X121764559Y-27696452D01*
X121764565Y-27696457D01*
X121764569Y-27696460D01*
X121930394Y-27807262D01*
X121930407Y-27807269D01*
X122053819Y-27858387D01*
X122109053Y-27881265D01*
X122113463Y-27883351D01*
X122310271Y-27922500D01*
X122509725Y-27922500D01*
X122509726Y-27922500D01*
X122536044Y-27917264D01*
X122641324Y-27896322D01*
X122641325Y-27896322D01*
X122654196Y-27893761D01*
X122705335Y-27883590D01*
X122889599Y-27807266D01*
X123055431Y-27696460D01*
X123196460Y-27555431D01*
X123307266Y-27389599D01*
X123322212Y-27353513D01*
X123340215Y-27323170D01*
X123350030Y-27310991D01*
X123407418Y-27271146D01*
X123414747Y-27268707D01*
X123420342Y-27266845D01*
X123459500Y-27260500D01*
X124120416Y-27260500D01*
X124155343Y-27265521D01*
X124166196Y-27268707D01*
X124224977Y-27306477D01*
X124254006Y-27370031D01*
X124244066Y-27439190D01*
X124242199Y-27443279D01*
X124240878Y-27446173D01*
X124215766Y-27482340D01*
X124163547Y-27534559D01*
X124163539Y-27534568D01*
X124163536Y-27534573D01*
X124052741Y-27700387D01*
X124052731Y-27700404D01*
X124052726Y-27700413D01*
X123976419Y-27884637D01*
X123976406Y-27884676D01*
X123937500Y-28080270D01*
X123937500Y-28235356D01*
X123932237Y-28253276D01*
X123976406Y-28475322D01*
X123976407Y-28475326D01*
X123976408Y-28475329D01*
X123976411Y-28475339D01*
X123976414Y-28475347D01*
X123976419Y-28475361D01*
X124052726Y-28659585D01*
X124052729Y-28659590D01*
X124052730Y-28659592D01*
X124052737Y-28659605D01*
X124052738Y-28659606D01*
X124052741Y-28659611D01*
X124163540Y-28825432D01*
X124163541Y-28825433D01*
X124163545Y-28825438D01*
X124213319Y-28875211D01*
X124234471Y-28903466D01*
X124239891Y-28913392D01*
X124254743Y-28981665D01*
X124230326Y-29047129D01*
X124174393Y-29089001D01*
X124167205Y-29091682D01*
X124123871Y-29099500D01*
X123461424Y-29099500D01*
X123426483Y-29094475D01*
X123411484Y-29090070D01*
X123352712Y-29052297D01*
X123343794Y-29042005D01*
X123322946Y-29008255D01*
X123307270Y-28970410D01*
X123307264Y-28970397D01*
X123196458Y-28804566D01*
X123196457Y-28804565D01*
X123196452Y-28804559D01*
X123055439Y-28663546D01*
X123055433Y-28663541D01*
X123055432Y-28663540D01*
X122889611Y-28552741D01*
X122889610Y-28552740D01*
X122889605Y-28552737D01*
X122889592Y-28552730D01*
X122889585Y-28552726D01*
X122705361Y-28476419D01*
X122705347Y-28476414D01*
X122705339Y-28476411D01*
X122705329Y-28476408D01*
X122705326Y-28476407D01*
X122705322Y-28476406D01*
X122509728Y-28437500D01*
X122509725Y-28437500D01*
X122509723Y-28437500D01*
X122310277Y-28437500D01*
X122310275Y-28437500D01*
X122310271Y-28437500D01*
X122114676Y-28476406D01*
X122114670Y-28476408D01*
X122114660Y-28476411D01*
X122114655Y-28476412D01*
X122114637Y-28476419D01*
X121930413Y-28552726D01*
X121930404Y-28552731D01*
X121930387Y-28552741D01*
X121764566Y-28663540D01*
X121764565Y-28663541D01*
X121764559Y-28663546D01*
X121623546Y-28804559D01*
X121623541Y-28804565D01*
X121623540Y-28804566D01*
X121512741Y-28970387D01*
X121512731Y-28970404D01*
X121512726Y-28970413D01*
X121436419Y-29154637D01*
X121436406Y-29154676D01*
X121397500Y-29350270D01*
X121397500Y-29505356D01*
X121392237Y-29523276D01*
X121436406Y-29745322D01*
X121436407Y-29745324D01*
X121436408Y-29745329D01*
X121436411Y-29745339D01*
X121436414Y-29745347D01*
X121436419Y-29745361D01*
X121512726Y-29929585D01*
X121512730Y-29929592D01*
X121512735Y-29929602D01*
X121512741Y-29929611D01*
X121623540Y-30095432D01*
X121623541Y-30095433D01*
X121623546Y-30095439D01*
X121764559Y-30236452D01*
X121764565Y-30236457D01*
X121764566Y-30236458D01*
X121920263Y-30340493D01*
X121946517Y-30364075D01*
X121953769Y-30372753D01*
X121981657Y-30436815D01*
X121970482Y-30505785D01*
X121923813Y-30557753D01*
X121921826Y-30558981D01*
X121856637Y-30577500D01*
X121747216Y-30577500D01*
X121712280Y-30572477D01*
X121687038Y-30565065D01*
X121634292Y-30533768D01*
X121588030Y-30487505D01*
X121588014Y-30487490D01*
X121588011Y-30487488D01*
X121563499Y-30473336D01*
X121534240Y-30456443D01*
X121505807Y-30426623D01*
X121421415Y-30404011D01*
X121371944Y-30390755D01*
X121322475Y-30377500D01*
X121322474Y-30377500D01*
X121177525Y-30377500D01*
X121078585Y-30404011D01*
X121078584Y-30404010D01*
X121037512Y-30415016D01*
X121037507Y-30415018D01*
X120911992Y-30487485D01*
X120911984Y-30487490D01*
X120911968Y-30487505D01*
X120809505Y-30589968D01*
X120809490Y-30589984D01*
X120809485Y-30589992D01*
X120737017Y-30715509D01*
X120736989Y-30715578D01*
X120736748Y-30716511D01*
X120699500Y-30855525D01*
X120699500Y-31000474D01*
X120724220Y-31092733D01*
X120737015Y-31140484D01*
X120737018Y-31140491D01*
X120807635Y-31262802D01*
X120809123Y-31265568D01*
X120809353Y-31265877D01*
X120809491Y-31266015D01*
X120911985Y-31368509D01*
X120956253Y-31394067D01*
X120965139Y-31399197D01*
X120992885Y-31421018D01*
X121000695Y-31429209D01*
X121032705Y-31491314D01*
X121026057Y-31560867D01*
X120982862Y-31615784D01*
X120982808Y-31615822D01*
X120982306Y-31616179D01*
X120931033Y-31637405D01*
X120928818Y-31637778D01*
X120908227Y-31639500D01*
X119213856Y-31639500D01*
X119124716Y-31663384D01*
X119124707Y-31663388D01*
X119112679Y-31670333D01*
X119112665Y-31670341D01*
X119105059Y-31674731D01*
X119075171Y-31687110D01*
X119051883Y-31693351D01*
X119044705Y-31695274D01*
X119012609Y-31699500D01*
X118927525Y-31699500D01*
X118804368Y-31732500D01*
X118804367Y-31732499D01*
X118787513Y-31737016D01*
X118787508Y-31737018D01*
X118661992Y-31809485D01*
X118661984Y-31809490D01*
X118661968Y-31809505D01*
X118559505Y-31911968D01*
X118559490Y-31911984D01*
X118559485Y-31911992D01*
X118487017Y-32037509D01*
X118486989Y-32037578D01*
X118486748Y-32038511D01*
X118449500Y-32177525D01*
X118449500Y-32322480D01*
X118455317Y-32344188D01*
X118459507Y-32379228D01*
X118459177Y-32393102D01*
X118437904Y-32459654D01*
X118384030Y-32504139D01*
X118376215Y-32507486D01*
X118335505Y-32515836D01*
X118335585Y-32516439D01*
X118327525Y-32517500D01*
X118213739Y-32547989D01*
X118213738Y-32547988D01*
X118187512Y-32555016D01*
X118187507Y-32555018D01*
X118061992Y-32627485D01*
X118061984Y-32627490D01*
X118061968Y-32627505D01*
X117959505Y-32729968D01*
X117959490Y-32729984D01*
X117959485Y-32729992D01*
X117887017Y-32855509D01*
X117886989Y-32855578D01*
X117886748Y-32856511D01*
X117857766Y-32964676D01*
X117849500Y-32995525D01*
X117849500Y-33140475D01*
X117876826Y-33242455D01*
X117876825Y-33242455D01*
X117887016Y-33280486D01*
X117887018Y-33280491D01*
X117957635Y-33402802D01*
X117959123Y-33405568D01*
X117959353Y-33405877D01*
X118061985Y-33508509D01*
X118062674Y-33509005D01*
X118065178Y-33510353D01*
X118184069Y-33578995D01*
X118187087Y-33580869D01*
X118187514Y-33580983D01*
X118187515Y-33580984D01*
X118327525Y-33618500D01*
X118327528Y-33618500D01*
X118472472Y-33618500D01*
X118472475Y-33618500D01*
X118612485Y-33580984D01*
X118738015Y-33508509D01*
X118779099Y-33467424D01*
X118807350Y-33446275D01*
X118830442Y-33433667D01*
X118889867Y-33418500D01*
X120135784Y-33418500D01*
X120140603Y-33419915D01*
X120145518Y-33418883D01*
X120170711Y-33423521D01*
X120181564Y-33426707D01*
X120196569Y-33436348D01*
X120202823Y-33438185D01*
X120207088Y-33443108D01*
X120240345Y-33464477D01*
X120269374Y-33528031D01*
X120259435Y-33597190D01*
X120259434Y-33597191D01*
X120256250Y-33604164D01*
X120231134Y-33640340D01*
X120213478Y-33657995D01*
X120213475Y-33657999D01*
X120209493Y-33661982D01*
X120209488Y-33661988D01*
X120137017Y-33787511D01*
X120137016Y-33787515D01*
X120132796Y-33803260D01*
X120132794Y-33803266D01*
X120099500Y-33927525D01*
X120099500Y-34072474D01*
X120135774Y-34207850D01*
X120137016Y-34212487D01*
X120137018Y-34212491D01*
X120207635Y-34334802D01*
X120209123Y-34337568D01*
X120209353Y-34337877D01*
X120311985Y-34440509D01*
X120312674Y-34441005D01*
X120315178Y-34442353D01*
X120434069Y-34510995D01*
X120437087Y-34512869D01*
X120437514Y-34512983D01*
X120437515Y-34512984D01*
X120577525Y-34550500D01*
X120577528Y-34550500D01*
X120722472Y-34550500D01*
X120722475Y-34550500D01*
X120862485Y-34512984D01*
X120988015Y-34440509D01*
X121090509Y-34338015D01*
X121162984Y-34212485D01*
X121200500Y-34072475D01*
X121200500Y-34014373D01*
X121205522Y-33979440D01*
X121212934Y-33954195D01*
X121244228Y-33901453D01*
X121278258Y-33867423D01*
X121306508Y-33846275D01*
X121329600Y-33833667D01*
X121389025Y-33818500D01*
X121417867Y-33818500D01*
X121452801Y-33823523D01*
X121465869Y-33827360D01*
X121524647Y-33865134D01*
X121553673Y-33928689D01*
X121546722Y-33990715D01*
X121543767Y-33998425D01*
X121531083Y-34022937D01*
X121512737Y-34050392D01*
X121512726Y-34050413D01*
X121436419Y-34234637D01*
X121436414Y-34234653D01*
X121436411Y-34234660D01*
X121436410Y-34234663D01*
X121436406Y-34234676D01*
X121397500Y-34430270D01*
X121397500Y-34585356D01*
X121392237Y-34603276D01*
X121436406Y-34825322D01*
X121436407Y-34825326D01*
X121436408Y-34825329D01*
X121436411Y-34825339D01*
X121436414Y-34825347D01*
X121436419Y-34825361D01*
X121512726Y-35009585D01*
X121512731Y-35009594D01*
X121512741Y-35009611D01*
X121623540Y-35175432D01*
X121623541Y-35175433D01*
X121623546Y-35175439D01*
X121764559Y-35316452D01*
X121764565Y-35316457D01*
X121764569Y-35316460D01*
X121930394Y-35427262D01*
X121930407Y-35427269D01*
X122087039Y-35492147D01*
X122109054Y-35501266D01*
X122113462Y-35503351D01*
X122310271Y-35542500D01*
X122509725Y-35542500D01*
X122509726Y-35542500D01*
X122536044Y-35537264D01*
X122641324Y-35516322D01*
X122641325Y-35516322D01*
X122655512Y-35513500D01*
X122705335Y-35503590D01*
X122889599Y-35427266D01*
X122958388Y-35381301D01*
X122990222Y-35366070D01*
X123021863Y-35356163D01*
X123058910Y-35350500D01*
X123838151Y-35350500D01*
X123873083Y-35355521D01*
X123886402Y-35359432D01*
X123945180Y-35397206D01*
X123974206Y-35460761D01*
X123974206Y-35460762D01*
X123975773Y-35471660D01*
X123974652Y-35513500D01*
X123937500Y-35700271D01*
X123937500Y-35855356D01*
X123932237Y-35873276D01*
X123976406Y-36095322D01*
X123976407Y-36095326D01*
X123976408Y-36095329D01*
X123976411Y-36095339D01*
X123976414Y-36095347D01*
X123976419Y-36095361D01*
X124052726Y-36279585D01*
X124052731Y-36279594D01*
X124052735Y-36279602D01*
X124052741Y-36279611D01*
X124163540Y-36445432D01*
X124163541Y-36445433D01*
X124163545Y-36445438D01*
X124213319Y-36495211D01*
X124234471Y-36523466D01*
X124239891Y-36533392D01*
X124254743Y-36601665D01*
X124230326Y-36667129D01*
X124174393Y-36709001D01*
X124167205Y-36711682D01*
X124123871Y-36719500D01*
X123461424Y-36719500D01*
X123426483Y-36714475D01*
X123411484Y-36710070D01*
X123352712Y-36672297D01*
X123343794Y-36662005D01*
X123322946Y-36628255D01*
X123307270Y-36590410D01*
X123307264Y-36590397D01*
X123196458Y-36424566D01*
X123196457Y-36424565D01*
X123196452Y-36424559D01*
X123055439Y-36283546D01*
X123055433Y-36283541D01*
X123055432Y-36283540D01*
X122889611Y-36172741D01*
X122889610Y-36172740D01*
X122889605Y-36172737D01*
X122889592Y-36172730D01*
X122889585Y-36172726D01*
X122705361Y-36096419D01*
X122705347Y-36096414D01*
X122705339Y-36096411D01*
X122705329Y-36096408D01*
X122705326Y-36096407D01*
X122705322Y-36096406D01*
X122509728Y-36057500D01*
X122509725Y-36057500D01*
X122509723Y-36057500D01*
X122310277Y-36057500D01*
X122310275Y-36057500D01*
X122310271Y-36057500D01*
X122114676Y-36096406D01*
X122114670Y-36096408D01*
X122114660Y-36096411D01*
X122114655Y-36096412D01*
X122114637Y-36096419D01*
X121930413Y-36172726D01*
X121930404Y-36172731D01*
X121930387Y-36172741D01*
X121764566Y-36283540D01*
X121764565Y-36283541D01*
X121764559Y-36283546D01*
X121623546Y-36424559D01*
X121623541Y-36424565D01*
X121623540Y-36424566D01*
X121512741Y-36590387D01*
X121512731Y-36590404D01*
X121512726Y-36590413D01*
X121436419Y-36774637D01*
X121436406Y-36774676D01*
X121397500Y-36970270D01*
X121397500Y-37125356D01*
X121392237Y-37143276D01*
X121436406Y-37365322D01*
X121436407Y-37365326D01*
X121436408Y-37365329D01*
X121436411Y-37365339D01*
X121436414Y-37365347D01*
X121436419Y-37365361D01*
X121512726Y-37549585D01*
X121512730Y-37549592D01*
X121512736Y-37549604D01*
X121512741Y-37549611D01*
X121623540Y-37715432D01*
X121623541Y-37715433D01*
X121623546Y-37715439D01*
X121764559Y-37856452D01*
X121764565Y-37856457D01*
X121764569Y-37856460D01*
X121930394Y-37967262D01*
X121930407Y-37967269D01*
X122109065Y-38041270D01*
X122113488Y-38043362D01*
X122114227Y-38043505D01*
X122114970Y-38043651D01*
X122310271Y-38082500D01*
X122509725Y-38082500D01*
X122509726Y-38082500D01*
X122536044Y-38077264D01*
X122641324Y-38056322D01*
X122641325Y-38056322D01*
X122654196Y-38053761D01*
X122705335Y-38043590D01*
X122889599Y-37967266D01*
X123055431Y-37856460D01*
X123196460Y-37715431D01*
X123307266Y-37549599D01*
X123322212Y-37513513D01*
X123340215Y-37483170D01*
X123350030Y-37470991D01*
X123407418Y-37431146D01*
X123415937Y-37428311D01*
X123420342Y-37426845D01*
X123459500Y-37420500D01*
X124120416Y-37420500D01*
X124155343Y-37425521D01*
X124166196Y-37428707D01*
X124224977Y-37466477D01*
X124254006Y-37530031D01*
X124244067Y-37599190D01*
X124244063Y-37599199D01*
X124240878Y-37606173D01*
X124215766Y-37642340D01*
X124163547Y-37694559D01*
X124163539Y-37694568D01*
X124163536Y-37694573D01*
X124052741Y-37860387D01*
X124052731Y-37860404D01*
X124052726Y-37860413D01*
X123976419Y-38044637D01*
X123976406Y-38044676D01*
X123937500Y-38240270D01*
X123937500Y-38395356D01*
X123932237Y-38413276D01*
X123976406Y-38635322D01*
X123976407Y-38635326D01*
X123976408Y-38635329D01*
X123976411Y-38635339D01*
X123976414Y-38635347D01*
X123976419Y-38635361D01*
X124052726Y-38819585D01*
X124052731Y-38819594D01*
X124052735Y-38819602D01*
X124052741Y-38819611D01*
X124163540Y-38985432D01*
X124163541Y-38985433D01*
X124163545Y-38985438D01*
X124213319Y-39035211D01*
X124234471Y-39063466D01*
X124239891Y-39073392D01*
X124254743Y-39141665D01*
X124230326Y-39207129D01*
X124174393Y-39249001D01*
X124167205Y-39251682D01*
X124123871Y-39259500D01*
X123461424Y-39259500D01*
X123426483Y-39254475D01*
X123411484Y-39250070D01*
X123352712Y-39212297D01*
X123343794Y-39202005D01*
X123322946Y-39168255D01*
X123307270Y-39130410D01*
X123307264Y-39130397D01*
X123196458Y-38964566D01*
X123196457Y-38964565D01*
X123196452Y-38964559D01*
X123055439Y-38823546D01*
X123055433Y-38823541D01*
X123055432Y-38823540D01*
X122889611Y-38712741D01*
X122889610Y-38712740D01*
X122889605Y-38712737D01*
X122889592Y-38712730D01*
X122889585Y-38712726D01*
X122705361Y-38636419D01*
X122705347Y-38636414D01*
X122705339Y-38636411D01*
X122705329Y-38636408D01*
X122705326Y-38636407D01*
X122705322Y-38636406D01*
X122509728Y-38597500D01*
X122509725Y-38597500D01*
X122509723Y-38597500D01*
X122310277Y-38597500D01*
X122310275Y-38597500D01*
X122310271Y-38597500D01*
X122114676Y-38636406D01*
X122114670Y-38636408D01*
X122114660Y-38636411D01*
X122114655Y-38636412D01*
X122114637Y-38636419D01*
X121930413Y-38712726D01*
X121930404Y-38712731D01*
X121930387Y-38712741D01*
X121764566Y-38823540D01*
X121764565Y-38823541D01*
X121764559Y-38823546D01*
X121623546Y-38964559D01*
X121623541Y-38964565D01*
X121623540Y-38964566D01*
X121512741Y-39130387D01*
X121512731Y-39130404D01*
X121512726Y-39130413D01*
X121436419Y-39314637D01*
X121436406Y-39314676D01*
X121397500Y-39510270D01*
X121397500Y-39665356D01*
X121392237Y-39683276D01*
X121436406Y-39905322D01*
X121436407Y-39905326D01*
X121436408Y-39905329D01*
X121436411Y-39905339D01*
X121436414Y-39905347D01*
X121436419Y-39905361D01*
X121512726Y-40089585D01*
X121512730Y-40089592D01*
X121512736Y-40089604D01*
X121512741Y-40089611D01*
X121623540Y-40255432D01*
X121623541Y-40255433D01*
X121623546Y-40255439D01*
X121764559Y-40396452D01*
X121764565Y-40396457D01*
X121764566Y-40396458D01*
X121788562Y-40412492D01*
X121814815Y-40436073D01*
X121821688Y-40444297D01*
X121822068Y-40444751D01*
X121849957Y-40508814D01*
X121838783Y-40577784D01*
X121792113Y-40629753D01*
X121790126Y-40630981D01*
X121724937Y-40649500D01*
X119363709Y-40649500D01*
X119328768Y-40644475D01*
X119313769Y-40640070D01*
X119254999Y-40602300D01*
X119251512Y-40598276D01*
X119225651Y-40549913D01*
X119225239Y-40548413D01*
X119221523Y-40528838D01*
X119219251Y-40507700D01*
X119209776Y-40482297D01*
X119197296Y-40448835D01*
X119179764Y-40401831D01*
X119170212Y-40376222D01*
X119086116Y-40263884D01*
X119018612Y-40213351D01*
X118977188Y-40182340D01*
X118973786Y-40179793D01*
X118973782Y-40179791D01*
X118973780Y-40179789D01*
X118973778Y-40179788D01*
X118973777Y-40179787D01*
X118973776Y-40179787D01*
X118973772Y-40179785D01*
X118936019Y-40165703D01*
X118936015Y-40165703D01*
X118842299Y-40130748D01*
X118842297Y-40130747D01*
X118842296Y-40130747D01*
X118784198Y-40124500D01*
X118784190Y-40124500D01*
X118784174Y-40124500D01*
X118215826Y-40124500D01*
X118215809Y-40124500D01*
X118215800Y-40124500D01*
X118157702Y-40130747D01*
X118157696Y-40130748D01*
X118026224Y-40179786D01*
X118026213Y-40179792D01*
X117913884Y-40263882D01*
X117913882Y-40263884D01*
X117829792Y-40376213D01*
X117829786Y-40376224D01*
X117780748Y-40507696D01*
X117780747Y-40507702D01*
X117774500Y-40565800D01*
X117774500Y-41073126D01*
X117769476Y-41108063D01*
X117762064Y-41133304D01*
X117730769Y-41186048D01*
X117219534Y-41697282D01*
X117219527Y-41697291D01*
X117219523Y-41697297D01*
X117190577Y-41747436D01*
X117190574Y-41747442D01*
X117173386Y-41777209D01*
X117149500Y-41866356D01*
X117149500Y-43107670D01*
X117144475Y-43142614D01*
X117140070Y-43157612D01*
X117102327Y-43216355D01*
X117100958Y-43217542D01*
X117046097Y-43245018D01*
X117038539Y-43246663D01*
X117012168Y-43249500D01*
X116642330Y-43249500D01*
X116607389Y-43244475D01*
X116592390Y-43240070D01*
X116533644Y-43202327D01*
X116532457Y-43200958D01*
X116504977Y-43146083D01*
X116503332Y-43138521D01*
X116500500Y-43112168D01*
X116500500Y-19776505D01*
X116505522Y-19741572D01*
X116506695Y-19737578D01*
X116512934Y-19716327D01*
X116544228Y-19663585D01*
X120658390Y-15549423D01*
X120686640Y-15528275D01*
X120709732Y-15515667D01*
X120769157Y-15500500D01*
X144223494Y-15500500D01*
X144258426Y-15505521D01*
G37*
%TD.AperFunction*%
%TA.AperFunction,Conductor*%
G36*
X132382558Y-24917521D02*
G01*
X132407802Y-24924934D01*
X132460548Y-24956230D01*
X133216788Y-25712470D01*
X133296712Y-25758614D01*
X133385856Y-25782500D01*
X133385858Y-25782500D01*
X134548366Y-25782500D01*
X134583293Y-25787521D01*
X134594146Y-25790707D01*
X134652927Y-25828477D01*
X134681956Y-25892031D01*
X134672024Y-25961174D01*
X134671055Y-25963297D01*
X134627141Y-26014911D01*
X134464562Y-26123544D01*
X134464559Y-26123546D01*
X134323545Y-26264560D01*
X134323534Y-26264574D01*
X134323525Y-26264588D01*
X134301487Y-26297570D01*
X134277903Y-26323825D01*
X134261808Y-26337276D01*
X134207584Y-26363522D01*
X134201004Y-26364893D01*
X134175711Y-26367500D01*
X129699346Y-26367500D01*
X129664410Y-26362477D01*
X129644276Y-26356565D01*
X129592319Y-26326050D01*
X129587527Y-26321343D01*
X129571321Y-26301776D01*
X129546460Y-26264569D01*
X129546457Y-26264565D01*
X129546456Y-26264563D01*
X129405439Y-26123546D01*
X129405433Y-26123541D01*
X129405432Y-26123540D01*
X129249736Y-26019506D01*
X129223482Y-25995924D01*
X129216229Y-25987245D01*
X129188342Y-25923184D01*
X129199517Y-25854214D01*
X129246203Y-25802234D01*
X129246507Y-25802046D01*
X129248236Y-25800980D01*
X129313363Y-25782500D01*
X129714142Y-25782500D01*
X129714144Y-25782500D01*
X129803288Y-25758614D01*
X129883212Y-25712470D01*
X130634258Y-24961423D01*
X130662508Y-24940275D01*
X130685600Y-24927667D01*
X130745025Y-24912500D01*
X132347626Y-24912500D01*
X132382558Y-24917521D01*
G37*
%TD.AperFunction*%
%TD*%
M02*
